<?xml version="1.0" encoding="UTF-8" standalone="no"?>
<svg
   xmlns:dc="http://purl.org/dc/elements/1.1/"
   xmlns:cc="http://creativecommons.org/ns#"
   xmlns:rdf="http://www.w3.org/1999/02/22-rdf-syntax-ns#"
   xmlns:svg="http://www.w3.org/2000/svg"
   xmlns="http://www.w3.org/2000/svg"
   xmlns:sodipodi="http://sodipodi.sourceforge.net/DTD/sodipodi-0.dtd"
   xmlns:inkscape="http://www.inkscape.org/namespaces/inkscape"
   version="1.1"
   width="1728"
   height="1296"
   id="svg2"
   inkscape:version="0.91 r13725"
   viewBox="0 0 1728 1296"
   sodipodi:docname="cut06-v11.svg">
  <metadata
     id="metadata62">
    <rdf:RDF>
      <cc:Work
         rdf:about="">
        <dc:format>image/svg+xml</dc:format>
        <dc:type
           rdf:resource="http://purl.org/dc/dcmitype/StillImage" />
        <dc:title></dc:title>
      </cc:Work>
    </rdf:RDF>
  </metadata>
  <defs
     id="defs60" />
  <sodipodi:namedview
     pagecolor="#ffffff"
     bordercolor="#666666"
     borderopacity="1"
     objecttolerance="10"
     gridtolerance="10"
     guidetolerance="10"
     inkscape:pageopacity="0"
     inkscape:pageshadow="2"
     inkscape:window-width="1757"
     inkscape:window-height="1007"
     id="namedview58"
     showgrid="false"
     inkscape:zoom="1.9510909"
     inkscape:cx="325.85199"
     inkscape:cy="1194.5015"
     inkscape:window-x="75"
     inkscape:window-y="34"
     inkscape:window-maximized="0"
     inkscape:current-layer="svg2" />
  <path
     d="m 241.5234,18.0283 c -0.002,-2.9942 1.1858,-5.8663 3.3015,-7.9846 2.1158,-2.1186 5.0006,-3.3097 7.9946,-3.3114 l 198.5102,0 c 2.9943,-0.002 5.8663,1.1854 7.9847,3.3012 2.1186,2.1158 3.3097,5.0006 3.3114,7.9948 l 0,53.9434 c 0.002,2.9939 -1.1855,5.866 -3.3012,7.9843 -2.1158,2.1186 -5.0006,3.3097 -7.9949,3.3117 l -198.5102,0 c -2.994,0.0017 -5.866,-1.1857 -7.9844,-3.3015 -2.1186,-2.1158 -3.3097,-5.0006 -3.3117,-7.9945 l 0,-53.9434 z"
     style="fill:none;stroke:#000000;stroke-width:0.21600001;stroke-linecap:butt;stroke-linejoin:bevel;stroke-dasharray:none"
     id="path4"
     inkscape:connector-curvature="0"
     inkscape:export-xdpi="90"
     inkscape:export-ydpi="90" />
  <text
     x="362.2269"
     y="59.5681"
     id="text6"
     inkscape:export-xdpi="90"
     inkscape:export-ydpi="90">
    <tspan
       font-size="12.0000"
       id="tspan8"
       style="font-size:12px;font-family:Arial;fill:#000000">RED BLACK</tspan>
  </text>
  <text
     x="133.952"
     y="68.171799"
     id="text10"
     inkscape:export-xdpi="90"
     inkscape:export-ydpi="90">
    <tspan
       font-size="12.0000"
       id="tspan12"
       style="font-size:12px;font-family:Arial;fill:#000000">BREAK</tspan>
  </text>
  <text
     x="55.164799"
     y="68.5681"
     id="text14"
     inkscape:export-xdpi="90"
     inkscape:export-ydpi="90">
    <tspan
       font-size="12.0000"
       id="tspan16"
       style="font-size:12px;font-family:Arial;fill:#000000">POWER</tspan>
  </text>
  <text
     x="310.3302"
     y="75.9356"
     id="text18"
     inkscape:export-xdpi="90"
     inkscape:export-ydpi="90">
    <tspan
       font-size="8.0000"
       id="tspan20"
       style="font-size:8px;font-family:Arial;fill:#000000">MOTORCTL</tspan>
  </text>
  <text
     x="286.43271"
     y="67.472198"
     id="text22"
     inkscape:export-xdpi="90"
     inkscape:export-ydpi="90">
    <tspan
       font-size="8.0000"
       id="tspan24"
       style="font-size:8px;font-family:Arial;fill:#000000">USB</tspan>
  </text>
  <path
     d="m 201.7905,57.7559 0,-42.5197 -11.3386,0 0,42.5197 11.3386,0 z"
     style="fill:none;stroke:#000000;stroke-width:0.21600001;stroke-linecap:butt;stroke-linejoin:bevel;stroke-dasharray:none"
     id="path26"
     inkscape:connector-curvature="0"
     inkscape:export-xdpi="90"
     inkscape:export-ydpi="90" />
  <path
     d="m 13.2866,18.0283 c -0.0017,-2.9942 1.1857,-5.8663 3.3015,-7.9846 2.1157,-2.1186 5.0006,-3.3097 7.9945,-3.3114 l 198.5103,0 c 2.9942,-0.002 5.8662,1.1854 7.9846,3.3012 2.1186,2.1158 3.3097,5.0006 3.3114,7.9948 l 0,53.9434 c 0.002,2.9939 -1.1854,5.866 -3.3012,7.9843 -2.1158,2.1186 -5.0006,3.3097 -7.9948,3.3117 l -198.5103,0 c -2.9939,0.0017 -5.866,-1.1857 -7.9843,-3.3015 -2.1186,-2.1158 -3.3098,-5.0006 -3.3117,-7.9945 l 0,-53.9434 z"
     style="fill:none;stroke:#000000;stroke-width:0.21600001;stroke-linecap:butt;stroke-linejoin:bevel;stroke-dasharray:none"
     id="path28"
     inkscape:connector-curvature="0"
     inkscape:export-xdpi="90"
     inkscape:export-ydpi="90" />
  <path
     d="m 29.5574,71.9717 c 0,-2.7397 -2.2209,-4.9607 -4.9606,-4.9607 -2.7394,0 -4.9606,2.221 -4.9606,4.9604 0,2.7397 2.2209,4.9606 4.9606,4.9609 2.7397,0 4.9606,-2.221 4.9606,-4.9606 z"
     style="fill:none;stroke:#000000;stroke-width:0.21600001;stroke-linecap:butt;stroke-linejoin:bevel;stroke-dasharray:none"
     id="path30"
     inkscape:connector-curvature="0"
     inkscape:export-xdpi="90"
     inkscape:export-ydpi="90" />
  <path
     d="m 228.0393,18.0283 c 0,-2.7396 -2.2209,-4.9606 -4.9606,-4.9606 -2.7394,0 -4.9607,2.221 -4.9607,4.9604 0,2.7396 2.221,4.9606 4.9607,4.9609 2.7397,0 4.9606,-2.221 4.9606,-4.9607 z"
     style="fill:none;stroke:#000000;stroke-width:0.21600001;stroke-linecap:butt;stroke-linejoin:bevel;stroke-dasharray:none"
     id="path32"
     inkscape:connector-curvature="0"
     inkscape:export-xdpi="90"
     inkscape:export-ydpi="90" />
  <path
     d="m 29.5574,18.0283 c 0,-2.7396 -2.2209,-4.9606 -4.9606,-4.9606 -2.7394,0 -4.9606,2.221 -4.9606,4.9604 0,2.7396 2.2209,4.9606 4.9606,4.9609 2.7397,0 4.9606,-2.221 4.9606,-4.9607 z"
     style="fill:none;stroke:#000000;stroke-width:0.21600001;stroke-linecap:butt;stroke-linejoin:bevel;stroke-dasharray:none"
     id="path34"
     inkscape:connector-curvature="0"
     inkscape:export-xdpi="90"
     inkscape:export-ydpi="90" />
  <path
     d="m 228.0393,71.9717 c 0,-2.7397 -2.2209,-4.9607 -4.9606,-4.9607 -2.7394,0 -4.9607,2.221 -4.9607,4.9604 0,2.7397 2.221,4.9606 4.9607,4.9609 2.7397,0 4.9606,-2.221 4.9606,-4.9606 z"
     style="fill:none;stroke:#000000;stroke-width:0.21600001;stroke-linecap:butt;stroke-linejoin:bevel;stroke-dasharray:none"
     id="path36"
     inkscape:connector-curvature="0"
     inkscape:export-xdpi="90"
     inkscape:export-ydpi="90" />
  <path
     d="m 162.2472,45 c 0,-4.6967 -3.8072,-8.5039 -8.5037,-8.5039 -4.6967,0 -8.5039,3.8072 -8.5042,8.5036 0,4.6967 3.8075,8.504 8.5039,8.5042 4.6968,0 8.504,-3.8075 8.504,-8.5039 z"
     style="fill:none;stroke:#000000;stroke-width:0.21600001;stroke-linecap:butt;stroke-linejoin:bevel;stroke-dasharray:none"
     id="path38"
     inkscape:connector-curvature="0"
     inkscape:export-xdpi="90"
     inkscape:export-ydpi="90" />
  <path
     d="m 86.2787,39.3307 c 0,-5.4794 -4.4419,-9.9213 -9.921,-9.9213 -5.4794,0 -9.9213,4.4417 -9.9215,9.921 0,5.4794 4.4418,9.9213 9.9212,9.9216 5.4794,0 9.9213,-4.4419 9.9213,-9.9213 z"
     style="fill:none;stroke:#000000;stroke-width:0.21600001;stroke-linecap:butt;stroke-linejoin:bevel;stroke-dasharray:none"
     id="path40"
     inkscape:connector-curvature="0"
     inkscape:export-xdpi="90"
     inkscape:export-ydpi="90" />
  <path
     d="m 257.7943,71.9717 c 0,-2.7397 -2.2209,-4.9607 -4.9606,-4.9607 -2.7394,0 -4.9607,2.221 -4.9607,4.9604 0,2.7397 2.221,4.9606 4.9607,4.9609 2.7397,0 4.9606,-2.221 4.9606,-4.9606 z"
     style="fill:none;stroke:#000000;stroke-width:0.21600001;stroke-linecap:butt;stroke-linejoin:bevel;stroke-dasharray:none"
     id="path42"
     inkscape:connector-curvature="0"
     inkscape:export-xdpi="90"
     inkscape:export-ydpi="90" />
  <path
     d="m 456.2762,18.0283 c 0,-2.7396 -2.221,-4.9606 -4.9606,-4.9606 -2.7394,0 -4.9607,2.221 -4.9607,4.9604 0,2.7396 2.221,4.9606 4.9607,4.9609 2.7396,0 4.9606,-2.221 4.9606,-4.9607 z"
     style="fill:none;stroke:#000000;stroke-width:0.21600001;stroke-linecap:butt;stroke-linejoin:bevel;stroke-dasharray:none"
     id="path44"
     inkscape:connector-curvature="0"
     inkscape:export-xdpi="90"
     inkscape:export-ydpi="90" />
  <path
     d="m 257.7943,18.0283 c 0,-2.7396 -2.2209,-4.9606 -4.9606,-4.9606 -2.7394,0 -4.9607,2.221 -4.9607,4.9604 0,2.7396 2.221,4.9606 4.9607,4.9609 2.7397,0 4.9606,-2.221 4.9606,-4.9607 z"
     style="fill:none;stroke:#000000;stroke-width:0.21600001;stroke-linecap:butt;stroke-linejoin:bevel;stroke-dasharray:none"
     id="path46"
     inkscape:connector-curvature="0"
     inkscape:export-xdpi="90"
     inkscape:export-ydpi="90" />
  <path
     d="m 456.2762,71.9717 c 0,-2.7397 -2.221,-4.9607 -4.9606,-4.9607 -2.7394,0 -4.9607,2.221 -4.9607,4.9604 0,2.7397 2.221,4.9606 4.9607,4.9609 2.7396,0 4.9606,-2.221 4.9606,-4.9606 z"
     style="fill:none;stroke:#000000;stroke-width:0.21600001;stroke-linecap:butt;stroke-linejoin:bevel;stroke-dasharray:none"
     id="path48"
     inkscape:connector-curvature="0"
     inkscape:export-xdpi="90"
     inkscape:export-ydpi="90" />
  <path
     d="m 347.8226,49.252 c 0,-4.6968 -3.8072,-8.504 -8.5036,-8.504 -4.6967,0 -8.5039,3.8072 -8.5042,8.5037 0,4.6967 3.8075,8.5039 8.5039,8.5042 4.6967,0 8.5039,-3.8075 8.5039,-8.5039 z"
     style="fill:none;stroke:#000000;stroke-width:0.21600001;stroke-linecap:butt;stroke-linejoin:bevel;stroke-dasharray:none"
     id="path50"
     inkscape:connector-curvature="0"
     inkscape:export-xdpi="90"
     inkscape:export-ydpi="90" />
  <path
     d="m 388.2163,30.8268 c 0,-8.6105 -6.98,-15.5906 -15.5902,-15.5906 -8.6105,-3e-4 -15.5906,6.9801 -15.5909,15.5903 0,8.6105 6.9804,15.5905 15.5906,15.5908 8.6105,0 15.5905,-6.9803 15.5905,-15.5905 z"
     style="fill:none;stroke:#000000;stroke-width:0.21600001;stroke-linecap:butt;stroke-linejoin:bevel;stroke-dasharray:none"
     id="path52"
     inkscape:connector-curvature="0"
     inkscape:export-xdpi="90"
     inkscape:export-ydpi="90" />
  <path
     d="m 433.5707,30.8268 c 0,-8.6105 -6.9801,-15.5906 -15.5903,-15.5906 -8.6105,-3e-4 -15.5905,6.9801 -15.5908,15.5903 0,8.6105 6.9803,15.5905 15.5905,15.5908 8.6105,0 15.5906,-6.9803 15.5906,-15.5905 z"
     style="fill:none;stroke:#000000;stroke-width:0.21600001;stroke-linecap:butt;stroke-linejoin:bevel;stroke-dasharray:none"
     id="path54"
     inkscape:connector-curvature="0"
     inkscape:export-xdpi="90"
     inkscape:export-ydpi="90" />
  <path
     d="m 279.216,28.08 28.08,0 c 1.1897,0 2.16,0.9703 2.16,2.16 l 0,24.48 c 0,1.1897 -0.9703,2.16 -2.16,2.16 l -28.08,0 c -1.1897,0 -2.16,-0.9703 -2.16,-2.16 l 0,-24.48 c 0,-1.1897 0.9703,-2.16 2.16,-2.16 z"
     style="fill:none;stroke:#1b1918;stroke-width:0.21600001;stroke-linecap:butt;stroke-linejoin:miter;stroke-dasharray:none"
     id="path56"
     inkscape:connector-curvature="0"
     inkscape:export-xdpi="90"
     inkscape:export-ydpi="90" />
</svg>
