G04 #@! TF.FileFunction,Copper,L1,Top,Signal*
%FSLAX46Y46*%
G04 Gerber Fmt 4.6, Leading zero omitted, Abs format (unit mm)*
G04 Created by KiCad (PCBNEW 4.0.4+e1-6308~48~ubuntu14.04.1-stable) date Wed Oct 19 01:06:42 2016*
%MOMM*%
%LPD*%
G01*
G04 APERTURE LIST*
%ADD10C,0.100000*%
%ADD11C,1.700000*%
%ADD12R,1.700000X1.700000*%
%ADD13O,1.600000X1.600000*%
%ADD14O,1.506220X3.014980*%
%ADD15R,1.300000X1.300000*%
%ADD16C,1.300000*%
%ADD17C,1.699260*%
%ADD18R,1.699260X1.699260*%
%ADD19C,1.998980*%
%ADD20R,1.790000X3.430000*%
%ADD21R,1.524000X1.524000*%
%ADD22C,1.524000*%
%ADD23O,3.014980X1.506220*%
%ADD24O,2.540000X1.800000*%
%ADD25R,1.400000X1.400000*%
%ADD26C,1.400000*%
%ADD27C,0.600000*%
%ADD28C,0.250000*%
%ADD29C,1.000000*%
G04 APERTURE END LIST*
D10*
D11*
X85100000Y-86360000D03*
X85090000Y-101566000D03*
X82560000Y-86360000D03*
X80020000Y-86360000D03*
D12*
X77480000Y-86370000D03*
D11*
X82560000Y-101566000D03*
X80020000Y-101566000D03*
D12*
X77480000Y-101566000D03*
D11*
X97790000Y-87480000D03*
X97790000Y-90020000D03*
X97790000Y-92560000D03*
X97790000Y-95100000D03*
X97790000Y-97640000D03*
D12*
X97790000Y-100180000D03*
D13*
X144780000Y-95250000D03*
X144780000Y-92710000D03*
X144780000Y-90170000D03*
X137160000Y-90170000D03*
X137160000Y-92710000D03*
X137160000Y-95250000D03*
D14*
X64135000Y-109220000D03*
X61595000Y-109220000D03*
D15*
X85090000Y-110490000D03*
D16*
X85090000Y-107990000D03*
D15*
X130810000Y-121920000D03*
D16*
X128310000Y-121920000D03*
D15*
X130810000Y-127000000D03*
D16*
X128310000Y-127000000D03*
D17*
X130810520Y-144777460D03*
D18*
X120650520Y-144777460D03*
D17*
X63499480Y-119382540D03*
D18*
X73659480Y-119382540D03*
D17*
X135889480Y-140972540D03*
D18*
X146049480Y-140972540D03*
D17*
X63499480Y-123192540D03*
D18*
X73659480Y-123192540D03*
D17*
X135889480Y-125732540D03*
D18*
X146049480Y-125732540D03*
D17*
X63499480Y-127002540D03*
D18*
X73659480Y-127002540D03*
D19*
X73660000Y-134620000D03*
X63500000Y-134620000D03*
X135890000Y-144780000D03*
X146050000Y-144780000D03*
X135890000Y-121920000D03*
X146050000Y-121920000D03*
X135890000Y-137160000D03*
X146050000Y-137160000D03*
X135890000Y-129540000D03*
X146050000Y-129540000D03*
X146050000Y-133350000D03*
X135890000Y-133350000D03*
X154940000Y-97790000D03*
X165100000Y-97790000D03*
X104140000Y-144780000D03*
X114300000Y-144780000D03*
D20*
X92810000Y-130650000D03*
X95310000Y-130650000D03*
X97810000Y-130650000D03*
X100310000Y-130650000D03*
X102810000Y-130650000D03*
X105310000Y-130650000D03*
X105310000Y-110340000D03*
X102810000Y-110340000D03*
X100310000Y-110340000D03*
X97810000Y-110340000D03*
X95310000Y-110340000D03*
X92810000Y-110340000D03*
D13*
X130810000Y-139700000D03*
X130810000Y-137160000D03*
X130810000Y-134620000D03*
X130810000Y-132080000D03*
X123190000Y-132080000D03*
X123190000Y-134620000D03*
X123190000Y-137160000D03*
X123190000Y-139700000D03*
D16*
X127635000Y-105410000D03*
D15*
X124135000Y-105410000D03*
D13*
X144780000Y-110490000D03*
X144780000Y-107950000D03*
X144780000Y-105410000D03*
X144780000Y-102870000D03*
X137160000Y-102870000D03*
X137160000Y-105410000D03*
X137160000Y-107950000D03*
X137160000Y-110490000D03*
D21*
X123190000Y-92710000D03*
D22*
X125730000Y-92710000D03*
X128270000Y-92710000D03*
X130810000Y-92710000D03*
D13*
X99060000Y-143510000D03*
X99060000Y-140970000D03*
X99060000Y-138430000D03*
X91440000Y-138430000D03*
X91440000Y-140970000D03*
X91440000Y-143510000D03*
D19*
X154940000Y-105410000D03*
X165100000Y-105410000D03*
X154940000Y-101600000D03*
X165100000Y-101600000D03*
D14*
X77470000Y-109220000D03*
X74930000Y-109220000D03*
X72390000Y-109220000D03*
X69850000Y-109220000D03*
X86995000Y-134620000D03*
X84455000Y-134620000D03*
D23*
X160147000Y-144780000D03*
X160147000Y-142240000D03*
X160147000Y-139700000D03*
X160147000Y-137160000D03*
X160147000Y-132080000D03*
X160147000Y-129540000D03*
X160147000Y-134620000D03*
X160147000Y-127000000D03*
X160147000Y-121920000D03*
X160147000Y-124460000D03*
D24*
X112395000Y-130810000D03*
X112395000Y-128270000D03*
X112395000Y-133350000D03*
D25*
X73660000Y-138430000D03*
D26*
X68660000Y-138430000D03*
D19*
X73660000Y-130810000D03*
X63500000Y-130810000D03*
D27*
X126405000Y-120015000D03*
X100965000Y-95885000D03*
X172085000Y-121920000D03*
X130175000Y-118110000D03*
X120650000Y-99060000D03*
X114300002Y-102235000D03*
X104140000Y-85090000D03*
X137160000Y-118744978D03*
X102235000Y-87630006D03*
X116115200Y-107404800D03*
X85090000Y-130810000D03*
X76835006Y-136525000D03*
X107950000Y-99060000D03*
X114207581Y-104472990D03*
X139065000Y-94615000D03*
X160655000Y-93980000D03*
X154940000Y-93980000D03*
X148590000Y-95250000D03*
X148590000Y-99060000D03*
X110490000Y-83820000D03*
X88900000Y-130810000D03*
X140335026Y-97155000D03*
X103505000Y-102235000D03*
X103505000Y-97155000D03*
D28*
X133350000Y-130810000D02*
X135890000Y-133350000D01*
X133350000Y-123560000D02*
X133350000Y-130810000D01*
X130810000Y-121920000D02*
X131710000Y-121920000D01*
X131710000Y-121920000D02*
X133350000Y-123560000D01*
X123190000Y-134620000D02*
X128270000Y-134620000D01*
X128270000Y-134620000D02*
X130810000Y-137160000D01*
D29*
X128310000Y-121920000D02*
X126405000Y-120015000D01*
X99695000Y-97155000D02*
X100965000Y-95885000D01*
X99477081Y-97155000D02*
X99695000Y-97155000D01*
X97790000Y-97640000D02*
X98992081Y-97640000D01*
X98992081Y-97640000D02*
X99477081Y-97155000D01*
X128310000Y-121920000D02*
X128310000Y-106085000D01*
X128310000Y-106085000D02*
X127635000Y-105410000D01*
X160147000Y-121920000D02*
X172085000Y-121920000D01*
D28*
X130175000Y-118110000D02*
X131445000Y-118110000D01*
X131869264Y-118110000D02*
X131445000Y-118110000D01*
X132080000Y-118110000D02*
X131869264Y-118110000D01*
X135890000Y-121920000D02*
X132080000Y-118110000D01*
X129540000Y-142240000D02*
X134622020Y-142240000D01*
X134622020Y-142240000D02*
X135889480Y-140972540D01*
X124460000Y-137160000D02*
X129540000Y-142240000D01*
X123190000Y-137160000D02*
X124460000Y-137160000D01*
X130810000Y-95250000D02*
X130810000Y-92710000D01*
X126365000Y-95250000D02*
X130810000Y-95250000D01*
X118735001Y-102879999D02*
X126365000Y-95250000D01*
X118100001Y-102879999D02*
X118735001Y-102879999D01*
X118100001Y-103170001D02*
X118100001Y-102879999D01*
X75445620Y-105410000D02*
X115860002Y-105410000D01*
X72390000Y-109220000D02*
X72390000Y-108465620D01*
X72390000Y-108465620D02*
X75445620Y-105410000D01*
X115860002Y-105410000D02*
X118100001Y-103170001D01*
X120225736Y-99060000D02*
X120650000Y-99060000D01*
X117475002Y-99060000D02*
X120225736Y-99060000D01*
X114300002Y-102235000D02*
X117475002Y-99060000D01*
D29*
X87630000Y-140970000D02*
X86995000Y-140335000D01*
X86995000Y-140335000D02*
X86995000Y-134620000D01*
X91440000Y-140970000D02*
X87630000Y-140970000D01*
D28*
X104140000Y-85090000D02*
X102235000Y-83185000D01*
X102235000Y-83185000D02*
X66040000Y-83185000D01*
X66040000Y-83185000D02*
X61595000Y-87630000D01*
X61595000Y-87630000D02*
X61595000Y-109220000D01*
D29*
X137795000Y-113030000D02*
X137160000Y-112395000D01*
X137160000Y-112395000D02*
X137160000Y-110490000D01*
X137160000Y-118744978D02*
X137160000Y-110490000D01*
X133985000Y-92710000D02*
X137160000Y-92710000D01*
X133985000Y-90170000D02*
X133985000Y-92710000D01*
X125730000Y-90170000D02*
X133985000Y-90170000D01*
X125730000Y-92710000D02*
X125730000Y-90170000D01*
X154940000Y-105410000D02*
X153526508Y-105410000D01*
X153526508Y-105410000D02*
X153526508Y-105553492D01*
X153526508Y-105553492D02*
X146050000Y-113030000D01*
X146050000Y-113030000D02*
X137795000Y-113030000D01*
X137160000Y-92710000D02*
X134481370Y-92710000D01*
X134481370Y-92710000D02*
X133985000Y-93206370D01*
X133985000Y-93206370D02*
X133985000Y-105410000D01*
X133985000Y-105410000D02*
X137160000Y-105410000D01*
X85100000Y-86360000D02*
X86370000Y-85090000D01*
X86370000Y-85090000D02*
X99694994Y-85090000D01*
X99694994Y-85090000D02*
X101935001Y-87330007D01*
X101935001Y-87330007D02*
X102235000Y-87630006D01*
X112395000Y-130810000D02*
X105470000Y-130810000D01*
X105470000Y-130810000D02*
X105310000Y-130650000D01*
X97810000Y-130650000D02*
X100310000Y-130650000D01*
X112870000Y-130650000D02*
X113030000Y-130810000D01*
X102810000Y-130650000D02*
X105310000Y-130650000D01*
X100310000Y-130650000D02*
X102810000Y-130650000D01*
D28*
X165100000Y-92710000D02*
X147320000Y-92710000D01*
X147320000Y-92710000D02*
X144780000Y-95250000D01*
X165100000Y-97790000D02*
X165100000Y-92710000D01*
D29*
X121920000Y-105410000D02*
X124135000Y-105410000D01*
X121920000Y-105410000D02*
X118110000Y-105410000D01*
X118110000Y-105410000D02*
X116115200Y-107404800D01*
X100310000Y-110340000D02*
X97810000Y-110340000D01*
X113180000Y-110340000D02*
X116115200Y-107404800D01*
X105310000Y-110340000D02*
X113180000Y-110340000D01*
X102810000Y-110340000D02*
X105310000Y-110340000D01*
X100310000Y-110340000D02*
X102810000Y-110340000D01*
X92810000Y-110340000D02*
X90915000Y-110340000D01*
X90915000Y-110340000D02*
X84415000Y-116840000D01*
X84415000Y-116840000D02*
X66042020Y-116840000D01*
X66042020Y-116840000D02*
X63499480Y-119382540D01*
X76835006Y-128328436D02*
X76835006Y-136525000D01*
X75509110Y-127002540D02*
X76835006Y-128328436D01*
X73659480Y-127002540D02*
X75509110Y-127002540D01*
D28*
X108585000Y-99060000D02*
X107950000Y-99060000D01*
X109220000Y-99485409D02*
X109220000Y-99060000D01*
X109220000Y-99060000D02*
X108585000Y-99060000D01*
X114207581Y-104472990D02*
X109220000Y-99485409D01*
X137160000Y-95250000D02*
X138430000Y-95250000D01*
X138430000Y-95250000D02*
X139065000Y-94615000D01*
X139065000Y-90805000D02*
X138430000Y-90170000D01*
X139065000Y-94615000D02*
X139065000Y-90805000D01*
X138430000Y-90170000D02*
X137160000Y-90170000D01*
X154940000Y-93980000D02*
X160655000Y-93980000D01*
X148590000Y-99060000D02*
X148590000Y-95250000D01*
X97790000Y-92560000D02*
X99165011Y-93935011D01*
X99165011Y-93935011D02*
X104012416Y-93935011D01*
X104012416Y-93935011D02*
X110490000Y-87457427D01*
X110490000Y-87457427D02*
X110490000Y-83820000D01*
D29*
X92810000Y-130650000D02*
X89060000Y-130650000D01*
X89060000Y-130650000D02*
X88900000Y-130810000D01*
X84455000Y-134620000D02*
X84455000Y-140335000D01*
X84455000Y-140335000D02*
X83820000Y-140970000D01*
X83820000Y-140970000D02*
X73660000Y-140970000D01*
X73660000Y-140970000D02*
X73660000Y-138430000D01*
D28*
X112395000Y-128270000D02*
X124460000Y-128270000D01*
X124460000Y-128270000D02*
X130810000Y-134620000D01*
X140335026Y-97579264D02*
X140335026Y-97155000D01*
X140335026Y-98425026D02*
X140335026Y-97579264D01*
X144780000Y-102870000D02*
X140335026Y-98425026D01*
X103505000Y-97155000D02*
X103505000Y-102235000D01*
M02*
