M48
;DRILL file {KiCad 4.0.4+e1-6308~48~ubuntu14.04.1-stable} date Wed Oct 19 01:06:50 2016
;FORMAT={-:-/ absolute / metric / decimal}
FMAT,2
METRIC,TZ
T1C0.400
T2C0.500
T3C0.701
T4C0.800
T5C0.800
T6C0.900
T7C0.998
T8C1.001
T9C1.143
T10C1.200
%
G90
G05
M71
T1
X76.835Y-136.525
X85.09Y-130.81
X88.9Y-130.81
X100.965Y-95.885
X102.235Y-87.63
X103.505Y-97.155
X103.505Y-102.235
X104.14Y-85.09
X107.95Y-99.06
X110.49Y-83.82
X114.208Y-104.473
X114.3Y-102.235
X116.115Y-107.405
X120.65Y-99.06
X126.405Y-120.015
X130.175Y-118.11
X137.16Y-118.745
X139.065Y-94.615
X140.335Y-97.155
X148.59Y-95.25
X148.59Y-99.06
X154.94Y-93.98
X160.655Y-93.98
X172.085Y-121.92
T2
X123.19Y-92.71
X125.73Y-92.71
X128.27Y-92.71
X130.81Y-92.71
T3
X63.499Y-119.383
X63.499Y-123.193
X63.499Y-127.003
X73.659Y-119.383
X73.659Y-123.193
X73.659Y-127.003
X120.651Y-144.777
X130.811Y-144.777
X135.889Y-125.733
X135.889Y-140.973
X146.049Y-125.733
X146.049Y-140.973
T4
X85.09Y-107.99
X85.09Y-110.49
X91.44Y-138.43
X91.44Y-140.97
X91.44Y-143.51
X99.06Y-138.43
X99.06Y-140.97
X99.06Y-143.51
X123.19Y-132.08
X123.19Y-134.62
X123.19Y-137.16
X123.19Y-139.7
X124.135Y-105.41
X127.635Y-105.41
X130.81Y-121.92
X130.81Y-127.
X130.81Y-132.08
X130.81Y-134.62
X130.81Y-137.16
X130.81Y-139.7
X137.16Y-90.17
X137.16Y-92.71
X137.16Y-95.25
X137.16Y-102.87
X137.16Y-105.41
X137.16Y-107.95
X137.16Y-110.49
X144.78Y-90.17
X144.78Y-92.71
X144.78Y-95.25
X144.78Y-102.87
X144.78Y-105.41
X144.78Y-107.95
X144.78Y-110.49
T5
X128.31Y-121.92
X128.31Y-127.
T6
X68.66Y-138.43
X73.66Y-138.43
T7
X61.595Y-109.22
X64.135Y-109.22
X69.85Y-109.22
X72.39Y-109.22
X74.93Y-109.22
X77.47Y-109.22
X84.455Y-134.62
X86.995Y-134.62
X160.147Y-121.92
X160.147Y-124.46
X160.147Y-127.
X160.147Y-129.54
X160.147Y-132.08
X160.147Y-134.62
X160.147Y-137.16
X160.147Y-139.7
X160.147Y-142.24
X160.147Y-144.78
T8
X63.5Y-130.81
X63.5Y-134.62
X73.66Y-130.81
X73.66Y-134.62
X104.14Y-144.78
X114.3Y-144.78
X135.89Y-121.92
X135.89Y-129.54
X135.89Y-133.35
X135.89Y-137.16
X135.89Y-144.78
X146.05Y-121.92
X146.05Y-129.54
X146.05Y-133.35
X146.05Y-137.16
X146.05Y-144.78
X154.94Y-97.79
X154.94Y-101.6
X154.94Y-105.41
X165.1Y-97.79
X165.1Y-101.6
X165.1Y-105.41
T9
X112.395Y-128.27
X112.395Y-130.81
X112.395Y-133.35
T10
X77.48Y-86.37
X77.48Y-101.566
X80.02Y-86.36
X80.02Y-101.566
X82.56Y-86.36
X82.56Y-101.566
X85.09Y-101.566
X85.1Y-86.36
X97.79Y-87.48
X97.79Y-90.02
X97.79Y-92.56
X97.79Y-95.1
X97.79Y-97.64
X97.79Y-100.18
T0
M30
