G04 #@! TF.FileFunction,Copper,L2,Bot,Signal*
%FSLAX46Y46*%
G04 Gerber Fmt 4.6, Leading zero omitted, Abs format (unit mm)*
G04 Created by KiCad (PCBNEW 4.0.4+e1-6308~48~ubuntu14.04.1-stable) date Wed Oct 19 01:06:42 2016*
%MOMM*%
%LPD*%
G01*
G04 APERTURE LIST*
%ADD10C,0.100000*%
%ADD11C,1.700000*%
%ADD12R,1.700000X1.700000*%
%ADD13O,1.600000X1.600000*%
%ADD14O,1.506220X3.014980*%
%ADD15R,1.300000X1.300000*%
%ADD16C,1.300000*%
%ADD17C,1.699260*%
%ADD18R,1.699260X1.699260*%
%ADD19C,1.998980*%
%ADD20R,1.524000X1.524000*%
%ADD21C,1.524000*%
%ADD22O,3.014980X1.506220*%
%ADD23O,2.540000X1.800000*%
%ADD24R,1.400000X1.400000*%
%ADD25C,1.400000*%
%ADD26C,0.600000*%
%ADD27C,0.250000*%
%ADD28C,1.000000*%
%ADD29C,0.600000*%
G04 APERTURE END LIST*
D10*
D11*
X85100000Y-86360000D03*
X85090000Y-101566000D03*
X82560000Y-86360000D03*
X80020000Y-86360000D03*
D12*
X77480000Y-86370000D03*
D11*
X82560000Y-101566000D03*
X80020000Y-101566000D03*
D12*
X77480000Y-101566000D03*
D11*
X97790000Y-87480000D03*
X97790000Y-90020000D03*
X97790000Y-92560000D03*
X97790000Y-95100000D03*
X97790000Y-97640000D03*
D12*
X97790000Y-100180000D03*
D13*
X144780000Y-95250000D03*
X144780000Y-92710000D03*
X144780000Y-90170000D03*
X137160000Y-90170000D03*
X137160000Y-92710000D03*
X137160000Y-95250000D03*
D14*
X64135000Y-109220000D03*
X61595000Y-109220000D03*
D15*
X85090000Y-110490000D03*
D16*
X85090000Y-107990000D03*
D15*
X130810000Y-121920000D03*
D16*
X128310000Y-121920000D03*
D15*
X130810000Y-127000000D03*
D16*
X128310000Y-127000000D03*
D17*
X130810520Y-144777460D03*
D18*
X120650520Y-144777460D03*
D17*
X63499480Y-119382540D03*
D18*
X73659480Y-119382540D03*
D17*
X135889480Y-140972540D03*
D18*
X146049480Y-140972540D03*
D17*
X63499480Y-123192540D03*
D18*
X73659480Y-123192540D03*
D17*
X135889480Y-125732540D03*
D18*
X146049480Y-125732540D03*
D17*
X63499480Y-127002540D03*
D18*
X73659480Y-127002540D03*
D19*
X73660000Y-134620000D03*
X63500000Y-134620000D03*
X135890000Y-144780000D03*
X146050000Y-144780000D03*
X135890000Y-121920000D03*
X146050000Y-121920000D03*
X135890000Y-137160000D03*
X146050000Y-137160000D03*
X135890000Y-129540000D03*
X146050000Y-129540000D03*
X146050000Y-133350000D03*
X135890000Y-133350000D03*
X154940000Y-97790000D03*
X165100000Y-97790000D03*
X104140000Y-144780000D03*
X114300000Y-144780000D03*
D13*
X130810000Y-139700000D03*
X130810000Y-137160000D03*
X130810000Y-134620000D03*
X130810000Y-132080000D03*
X123190000Y-132080000D03*
X123190000Y-134620000D03*
X123190000Y-137160000D03*
X123190000Y-139700000D03*
D16*
X127635000Y-105410000D03*
D15*
X124135000Y-105410000D03*
D13*
X144780000Y-110490000D03*
X144780000Y-107950000D03*
X144780000Y-105410000D03*
X144780000Y-102870000D03*
X137160000Y-102870000D03*
X137160000Y-105410000D03*
X137160000Y-107950000D03*
X137160000Y-110490000D03*
D20*
X123190000Y-92710000D03*
D21*
X125730000Y-92710000D03*
X128270000Y-92710000D03*
X130810000Y-92710000D03*
D13*
X99060000Y-143510000D03*
X99060000Y-140970000D03*
X99060000Y-138430000D03*
X91440000Y-138430000D03*
X91440000Y-140970000D03*
X91440000Y-143510000D03*
D19*
X154940000Y-105410000D03*
X165100000Y-105410000D03*
X154940000Y-101600000D03*
X165100000Y-101600000D03*
D14*
X77470000Y-109220000D03*
X74930000Y-109220000D03*
X72390000Y-109220000D03*
X69850000Y-109220000D03*
X86995000Y-134620000D03*
X84455000Y-134620000D03*
D22*
X160147000Y-144780000D03*
X160147000Y-142240000D03*
X160147000Y-139700000D03*
X160147000Y-137160000D03*
X160147000Y-132080000D03*
X160147000Y-129540000D03*
X160147000Y-134620000D03*
X160147000Y-127000000D03*
X160147000Y-121920000D03*
X160147000Y-124460000D03*
D23*
X112395000Y-130810000D03*
X112395000Y-128270000D03*
X112395000Y-133350000D03*
D24*
X73660000Y-138430000D03*
D25*
X68660000Y-138430000D03*
D19*
X73660000Y-130810000D03*
X63500000Y-130810000D03*
D26*
X126405000Y-120015000D03*
X100965000Y-95885000D03*
X172085000Y-121920000D03*
X130175000Y-118110000D03*
X120650000Y-99060000D03*
X114300002Y-102235000D03*
X104140000Y-85090000D03*
X137160000Y-118744978D03*
X102235000Y-87630006D03*
X116115200Y-107404800D03*
X85090000Y-130810000D03*
X76835006Y-136525000D03*
X107950000Y-99060000D03*
X114207581Y-104472990D03*
X139065000Y-94615000D03*
X160655000Y-93980000D03*
X154940000Y-93980000D03*
X148590000Y-95250000D03*
X148590000Y-99060000D03*
X110490000Y-83820000D03*
X88900000Y-130810000D03*
X140335026Y-97155000D03*
X103505000Y-102235000D03*
X103505000Y-97155000D03*
D27*
X132080000Y-137160000D02*
X135890000Y-133350000D01*
X130810000Y-137160000D02*
X132080000Y-137160000D01*
D28*
X64135000Y-109220000D02*
X64135000Y-108465620D01*
X64135000Y-108465620D02*
X71034620Y-101566000D01*
X71034620Y-101566000D02*
X77480000Y-101566000D01*
D27*
X127305002Y-128905000D02*
X129805000Y-128905000D01*
X129805000Y-128905000D02*
X130810000Y-127900000D01*
X130810000Y-127900000D02*
X130810000Y-127000000D01*
X124930001Y-131280001D02*
X127305002Y-128905000D01*
X123190000Y-132080000D02*
X123989999Y-131280001D01*
X123989999Y-131280001D02*
X124930001Y-131280001D01*
X121285000Y-127000000D02*
X130175000Y-118110000D01*
X123190000Y-137160000D02*
X121285000Y-135255000D01*
X121285000Y-135255000D02*
X121285000Y-127000000D01*
X135889480Y-140972540D02*
X137614491Y-142697551D01*
X137614491Y-142697551D02*
X143967551Y-142697551D01*
X143967551Y-142697551D02*
X146050000Y-144780000D01*
X146049480Y-140972540D02*
X146049480Y-137160520D01*
X146049480Y-137160520D02*
X146050000Y-137160000D01*
X135890000Y-129540000D02*
X135890000Y-125733060D01*
X135890000Y-125733060D02*
X135889480Y-125732540D01*
X146050000Y-121920000D02*
X146050000Y-125732020D01*
X146050000Y-125732020D02*
X146049480Y-125732540D01*
X121920000Y-97790000D02*
X120949999Y-98760001D01*
X154940000Y-97790000D02*
X121920000Y-97790000D01*
X120949999Y-98760001D02*
X120650000Y-99060000D01*
X113030002Y-103505000D02*
X114300002Y-102235000D01*
X69850000Y-108465620D02*
X74810620Y-103505000D01*
X69850000Y-109220000D02*
X69850000Y-108465620D01*
X74810620Y-103505000D02*
X113030002Y-103505000D01*
X154940000Y-101600000D02*
X156845000Y-99695000D01*
X151766410Y-85090000D02*
X104140000Y-85090000D01*
X156845000Y-99695000D02*
X156845000Y-90168590D01*
X156845000Y-90168590D02*
X151766410Y-85090000D01*
X61595000Y-108465620D02*
X61595000Y-109220000D01*
X160147000Y-137160000D02*
X159392620Y-137160000D01*
X159392620Y-137160000D02*
X156210000Y-133977380D01*
X156210000Y-133977380D02*
X156210000Y-107950000D01*
X156210000Y-107950000D02*
X156845000Y-107315000D01*
X156845000Y-107315000D02*
X156845000Y-103505000D01*
X156845000Y-103505000D02*
X154940000Y-101600000D01*
D28*
X137160000Y-107950000D02*
X137160000Y-110490000D01*
X136735736Y-118744978D02*
X137160000Y-118744978D01*
X133350000Y-129540000D02*
X133350001Y-118744999D01*
X130810000Y-132080000D02*
X133350000Y-129540000D01*
X133350022Y-118744978D02*
X136735736Y-118744978D01*
X133350001Y-118744999D02*
X133350022Y-118744978D01*
X102235000Y-87630006D02*
X102834986Y-87630006D01*
X102834986Y-87630006D02*
X105374980Y-90170000D01*
X105374980Y-90170000D02*
X125730000Y-90170000D01*
X125730000Y-90170000D02*
X125730000Y-92710000D01*
X130810000Y-132080000D02*
X128905000Y-132080000D01*
X128905000Y-132080000D02*
X126365000Y-134620000D01*
X124460000Y-139700000D02*
X123190000Y-139700000D01*
X126365000Y-134620000D02*
X126365000Y-137795000D01*
X126365000Y-137795000D02*
X124460000Y-139700000D01*
X130810520Y-144777460D02*
X128267460Y-144777460D01*
X128267460Y-144777460D02*
X123190000Y-139700000D01*
X130810520Y-144777460D02*
X135887460Y-144777460D01*
X135887460Y-144777460D02*
X135890000Y-144780000D01*
X137160000Y-107950000D02*
X137160000Y-105410000D01*
D27*
X146050000Y-133350000D02*
X146050000Y-129540000D01*
X142875000Y-133350000D02*
X146050000Y-133350000D01*
X139065000Y-137160000D02*
X142875000Y-133350000D01*
X135890000Y-137160000D02*
X139065000Y-137160000D01*
D28*
X120650520Y-144777460D02*
X120650520Y-142927830D01*
X120650520Y-142927830D02*
X118745000Y-141022310D01*
X118745000Y-141022310D02*
X118745000Y-117475000D01*
X118745000Y-117475000D02*
X116205000Y-114935000D01*
X116205000Y-114935000D02*
X116205000Y-107494600D01*
X116205000Y-107494600D02*
X116115200Y-107404800D01*
X63499480Y-127002540D02*
X64349109Y-127852169D01*
X85090000Y-120015000D02*
X85090000Y-110490000D01*
X63502540Y-127002540D02*
X63499480Y-127002540D01*
X73659480Y-119382540D02*
X85090000Y-119382540D01*
X85090000Y-119382540D02*
X85090000Y-120015000D01*
X64349109Y-127852169D02*
X66892169Y-127852169D01*
X85090000Y-130810000D02*
X85090000Y-120015000D01*
X85090000Y-130810000D02*
X73660000Y-130810000D01*
X69850000Y-130810000D02*
X73660000Y-130810000D01*
X66892169Y-127852169D02*
X69850000Y-130810000D01*
X73660000Y-134620000D02*
X72470000Y-134620000D01*
X72470000Y-134620000D02*
X68660000Y-138430000D01*
X83820006Y-143510000D02*
X76835006Y-136525000D01*
X91440000Y-143510000D02*
X83820006Y-143510000D01*
X93980000Y-142240000D02*
X92710000Y-143510000D01*
X92710000Y-143510000D02*
X91440000Y-143510000D01*
X93980000Y-139700000D02*
X93980000Y-142240000D01*
X92710000Y-138430000D02*
X93980000Y-139700000D01*
X91440000Y-138430000D02*
X92710000Y-138430000D01*
X73659480Y-127002540D02*
X73659480Y-123192540D01*
D27*
X99060000Y-143510000D02*
X102870000Y-143510000D01*
X102870000Y-143510000D02*
X104140000Y-144780000D01*
X97790000Y-95100000D02*
X101750000Y-99060000D01*
X101750000Y-99060000D02*
X108160740Y-99060000D01*
X114300000Y-144780000D02*
X116205000Y-142875000D01*
X116205000Y-142875000D02*
X116205000Y-117475000D01*
X116205000Y-117475000D02*
X114207581Y-115477581D01*
X114207581Y-115477581D02*
X114207581Y-104472990D01*
X143510000Y-97155000D02*
X151765000Y-97155000D01*
X153670000Y-95250000D02*
X153044999Y-95875001D01*
X154940000Y-93980000D02*
X153670000Y-95250000D01*
X153670000Y-95250000D02*
X151765000Y-97155000D01*
X153054998Y-95885000D02*
X153044999Y-95875001D01*
X140970000Y-94615000D02*
X139065000Y-94615000D01*
X143510000Y-97155000D02*
X140970000Y-94615000D01*
X160147000Y-134620000D02*
X169545000Y-134620000D01*
X169545000Y-134620000D02*
X169545000Y-93980000D01*
X169545000Y-93980000D02*
X160655000Y-93980000D01*
X128270000Y-92710000D02*
X128270000Y-90170000D01*
X128270000Y-90170000D02*
X134620000Y-90170000D01*
X134620000Y-88265000D02*
X141605000Y-88265000D01*
X134620000Y-90170000D02*
X134620000Y-88265000D01*
X141605000Y-89535000D02*
X144780000Y-92710000D01*
X141605000Y-88265000D02*
X141605000Y-89535000D01*
D28*
X117979998Y-107819998D02*
X126234999Y-116074999D01*
X149729999Y-129409999D02*
X149860000Y-129540000D01*
X116802997Y-100460001D02*
X117979998Y-101637002D01*
X155575000Y-144780000D02*
X160147000Y-144780000D01*
X98070001Y-100460001D02*
X116802997Y-100460001D01*
X117979998Y-101637002D02*
X117979998Y-107819998D01*
X97790000Y-100180000D02*
X98070001Y-100460001D01*
X149860000Y-129540000D02*
X149860000Y-139065000D01*
X126234999Y-116074999D02*
X149729999Y-116074999D01*
X149860000Y-139065000D02*
X155575000Y-144780000D01*
X149729999Y-116074999D02*
X149729999Y-129409999D01*
X144780000Y-107950000D02*
X144780000Y-105410000D01*
X144780000Y-105410000D02*
X147320000Y-105410000D01*
X152400000Y-110490000D02*
X152400000Y-137000490D01*
X147320000Y-105410000D02*
X152400000Y-110490000D01*
X152400000Y-137000490D02*
X157639510Y-142240000D01*
X157639510Y-142240000D02*
X160147000Y-142240000D01*
D27*
X148590000Y-95250000D02*
X148590000Y-86360000D01*
X98910000Y-86360000D02*
X97790000Y-87480000D01*
X148590000Y-86360000D02*
X98910000Y-86360000D01*
X97790000Y-90020000D02*
X97790000Y-87480000D01*
X148590000Y-104140000D02*
X148590000Y-99060000D01*
X154305000Y-109855000D02*
X148590000Y-104140000D01*
X154305000Y-135615490D02*
X154305000Y-109855000D01*
X160147000Y-139700000D02*
X158389510Y-139700000D01*
X158389510Y-139700000D02*
X154305000Y-135615490D01*
X111125000Y-83820000D02*
X110490000Y-83820000D01*
X160147000Y-132080000D02*
X167640000Y-132080000D01*
X167640000Y-132080000D02*
X167640000Y-95250000D01*
X167640000Y-95250000D02*
X158113590Y-95250000D01*
X158113590Y-95250000D02*
X158113590Y-89533590D01*
X158113590Y-89533590D02*
X152400000Y-83820000D01*
X152400000Y-83820000D02*
X111125000Y-83820000D01*
X160147000Y-129540000D02*
X159392620Y-129540000D01*
X165100000Y-101600000D02*
X163195000Y-103505000D01*
X163195000Y-103505000D02*
X163195000Y-107950000D01*
X163195000Y-107950000D02*
X164465000Y-109220000D01*
X164465000Y-109220000D02*
X164465000Y-124460000D01*
X164465000Y-124460000D02*
X160147000Y-124460000D01*
X166099489Y-126635511D02*
X165735000Y-127000000D01*
X165735000Y-127000000D02*
X160147000Y-127000000D01*
X165100000Y-105410000D02*
X166099489Y-106409489D01*
X166099489Y-106409489D02*
X166099489Y-126635511D01*
D28*
X63500000Y-134620000D02*
X63500000Y-130810000D01*
X63500000Y-130810000D02*
X60960000Y-128270000D01*
X60960000Y-128270000D02*
X60960000Y-125732020D01*
X60960000Y-125732020D02*
X62649851Y-124042169D01*
X62649851Y-124042169D02*
X63499480Y-123192540D01*
X77470000Y-109220000D02*
X77470000Y-116840000D01*
X77470000Y-116840000D02*
X69852020Y-116840000D01*
X69852020Y-116840000D02*
X63499480Y-123192540D01*
X85090000Y-107990000D02*
X78700000Y-107990000D01*
X78700000Y-107990000D02*
X77470000Y-109220000D01*
X88900000Y-107950000D02*
X88860000Y-107990000D01*
X88860000Y-107990000D02*
X85090000Y-107990000D01*
X88900000Y-130810000D02*
X88900000Y-107950000D01*
D27*
X77470000Y-109220000D02*
X77470000Y-108920000D01*
D28*
X74930000Y-109220000D02*
X74930000Y-114300000D01*
X74930000Y-114300000D02*
X58420000Y-114300000D01*
X58420000Y-114300000D02*
X58420000Y-139700000D01*
X58420000Y-139700000D02*
X59690000Y-140970000D01*
X59690000Y-140970000D02*
X73660000Y-140970000D01*
X73660000Y-140970000D02*
X73660000Y-138430000D01*
D27*
X103505000Y-97155000D02*
X140335026Y-97155000D01*
X88900000Y-102235000D02*
X88900000Y-98425000D01*
X83433999Y-100716001D02*
X85725000Y-98425000D01*
X85725000Y-98425000D02*
X88900000Y-98425000D01*
X83409999Y-100716001D02*
X83433999Y-100716001D01*
X103505000Y-102235000D02*
X88900000Y-102235000D01*
X83409999Y-100716001D02*
X82560000Y-101566000D01*
D29*
G36*
X164800000Y-86995000D02*
X164820517Y-87104037D01*
X164884958Y-87204181D01*
X164983283Y-87271364D01*
X165100000Y-87295000D01*
X174285000Y-87295000D01*
X174285000Y-142575000D01*
X165100000Y-142575000D01*
X164990963Y-142595517D01*
X164890819Y-142659958D01*
X164823636Y-142758283D01*
X164800000Y-142875000D01*
X164800000Y-147655000D01*
X96820000Y-147655000D01*
X96820000Y-141447376D01*
X97324457Y-141447376D01*
X97495220Y-141859666D01*
X97861676Y-142283153D01*
X97824613Y-142307918D01*
X97456100Y-142859438D01*
X97326695Y-143510000D01*
X97456100Y-144160562D01*
X97824613Y-144712082D01*
X98376133Y-145080595D01*
X99026695Y-145210000D01*
X99093305Y-145210000D01*
X99743867Y-145080595D01*
X100295387Y-144712082D01*
X100413709Y-144535000D01*
X102240724Y-144535000D01*
X102240181Y-145156174D01*
X102528752Y-145854569D01*
X103062621Y-146389370D01*
X103760511Y-146679159D01*
X104516174Y-146679819D01*
X105214569Y-146391248D01*
X105749370Y-145857379D01*
X106039159Y-145159489D01*
X106039819Y-144403826D01*
X105751248Y-143705431D01*
X105217379Y-143170630D01*
X104519489Y-142880841D01*
X103763826Y-142880181D01*
X103711408Y-142901840D01*
X103594784Y-142785216D01*
X103262251Y-142563023D01*
X102870000Y-142485000D01*
X100413709Y-142485000D01*
X100295387Y-142307918D01*
X100258324Y-142283153D01*
X100624780Y-141859666D01*
X100795543Y-141447376D01*
X100597043Y-141170000D01*
X99260000Y-141170000D01*
X99260000Y-141190000D01*
X98860000Y-141190000D01*
X98860000Y-141170000D01*
X97522957Y-141170000D01*
X97324457Y-141447376D01*
X96820000Y-141447376D01*
X96820000Y-140492624D01*
X97324457Y-140492624D01*
X97522957Y-140770000D01*
X98860000Y-140770000D01*
X98860000Y-140750000D01*
X99260000Y-140750000D01*
X99260000Y-140770000D01*
X100597043Y-140770000D01*
X100795543Y-140492624D01*
X100624780Y-140080334D01*
X100258324Y-139656847D01*
X100295387Y-139632082D01*
X100663900Y-139080562D01*
X100793305Y-138430000D01*
X100663900Y-137779438D01*
X100295387Y-137227918D01*
X99743867Y-136859405D01*
X99093305Y-136730000D01*
X99026695Y-136730000D01*
X98376133Y-136859405D01*
X97824613Y-137227918D01*
X97456100Y-137779438D01*
X97326695Y-138430000D01*
X97456100Y-139080562D01*
X97824613Y-139632082D01*
X97861676Y-139656847D01*
X97495220Y-140080334D01*
X97324457Y-140492624D01*
X96820000Y-140492624D01*
X96820000Y-133843112D01*
X110190105Y-133843112D01*
X110208513Y-133960930D01*
X110580578Y-134609565D01*
X111172543Y-135066443D01*
X111894287Y-135262008D01*
X112195000Y-135008916D01*
X112195000Y-133550000D01*
X112595000Y-133550000D01*
X112595000Y-135008916D01*
X112895713Y-135262008D01*
X113617457Y-135066443D01*
X114209422Y-134609565D01*
X114581487Y-133960930D01*
X114599895Y-133843112D01*
X114402834Y-133550000D01*
X112595000Y-133550000D01*
X112195000Y-133550000D01*
X110387166Y-133550000D01*
X110190105Y-133843112D01*
X96820000Y-133843112D01*
X96820000Y-128270000D01*
X110182487Y-128270000D01*
X110319504Y-128958830D01*
X110707829Y-129540000D01*
X110319504Y-130121170D01*
X110182487Y-130810000D01*
X110319504Y-131498830D01*
X110669134Y-132022088D01*
X110580578Y-132090435D01*
X110208513Y-132739070D01*
X110190105Y-132856888D01*
X110387166Y-133150000D01*
X112195000Y-133150000D01*
X112195000Y-133130000D01*
X112595000Y-133130000D01*
X112595000Y-133150000D01*
X114402834Y-133150000D01*
X114599895Y-132856888D01*
X114581487Y-132739070D01*
X114209422Y-132090435D01*
X114120866Y-132022088D01*
X114470496Y-131498830D01*
X114607513Y-130810000D01*
X114470496Y-130121170D01*
X114082171Y-129540000D01*
X114470496Y-128958830D01*
X114607513Y-128270000D01*
X114470496Y-127581170D01*
X114080305Y-126997208D01*
X113496343Y-126607017D01*
X112807513Y-126470000D01*
X111982487Y-126470000D01*
X111293657Y-126607017D01*
X110709695Y-126997208D01*
X110319504Y-127581170D01*
X110182487Y-128270000D01*
X96820000Y-128270000D01*
X96820000Y-104530000D01*
X113007531Y-104530000D01*
X113007374Y-104710637D01*
X113182581Y-105134671D01*
X113182581Y-115477581D01*
X113226823Y-115700000D01*
X113260604Y-115869832D01*
X113482797Y-116202365D01*
X115180000Y-117899568D01*
X115180000Y-142450431D01*
X114729022Y-142901409D01*
X114679489Y-142880841D01*
X113923826Y-142880181D01*
X113225431Y-143168752D01*
X112690630Y-143702621D01*
X112400841Y-144400511D01*
X112400181Y-145156174D01*
X112688752Y-145854569D01*
X113222621Y-146389370D01*
X113920511Y-146679159D01*
X114676174Y-146679819D01*
X115374569Y-146391248D01*
X115909370Y-145857379D01*
X116199159Y-145159489D01*
X116199819Y-144403826D01*
X116178160Y-144351408D01*
X116929785Y-143599784D01*
X117076640Y-143380000D01*
X117151977Y-143267251D01*
X117230000Y-142875000D01*
X117230000Y-117939899D01*
X117345000Y-118054899D01*
X117345000Y-141022310D01*
X117451569Y-141558067D01*
X117720099Y-141959949D01*
X117755051Y-142012259D01*
X119100896Y-143358105D01*
X118955554Y-143570820D01*
X118883258Y-143927830D01*
X118883258Y-145627090D01*
X118946014Y-145960610D01*
X119143124Y-146266928D01*
X119443880Y-146472426D01*
X119800890Y-146544722D01*
X121500150Y-146544722D01*
X121833670Y-146481966D01*
X122139988Y-146284856D01*
X122345486Y-145984100D01*
X122417782Y-145627090D01*
X122417782Y-143927830D01*
X122355026Y-143594310D01*
X122157916Y-143287992D01*
X122050520Y-143214611D01*
X122050520Y-142927830D01*
X121943951Y-142392073D01*
X121929202Y-142369999D01*
X121640469Y-141937880D01*
X120145000Y-140442412D01*
X120145000Y-117475000D01*
X120038431Y-116939243D01*
X119818942Y-116610755D01*
X119734949Y-116485050D01*
X117605000Y-114355102D01*
X117605000Y-109424898D01*
X125245049Y-117064948D01*
X125664144Y-117344978D01*
X125699242Y-117368430D01*
X126234999Y-117474999D01*
X129139335Y-117474999D01*
X128982335Y-117853096D01*
X120560216Y-126275216D01*
X120338023Y-126607749D01*
X120260000Y-127000000D01*
X120260000Y-135255000D01*
X120318804Y-135550630D01*
X120338023Y-135647251D01*
X120560216Y-135979784D01*
X121503770Y-136923338D01*
X121456695Y-137160000D01*
X121586100Y-137810562D01*
X121954613Y-138362082D01*
X122056260Y-138430000D01*
X121954613Y-138497918D01*
X121586100Y-139049438D01*
X121456695Y-139700000D01*
X121586100Y-140350562D01*
X121954613Y-140902082D01*
X122506133Y-141270595D01*
X122848872Y-141338770D01*
X127277511Y-145767410D01*
X127412160Y-145857379D01*
X127731703Y-146070891D01*
X128267460Y-146177460D01*
X129735885Y-146177460D01*
X129818140Y-146259859D01*
X130460970Y-146526785D01*
X131157016Y-146527393D01*
X131800311Y-146261589D01*
X131884587Y-146177460D01*
X134601080Y-146177460D01*
X134812621Y-146389370D01*
X135510511Y-146679159D01*
X136266174Y-146679819D01*
X136964569Y-146391248D01*
X137499370Y-145857379D01*
X137789159Y-145159489D01*
X137789819Y-144403826D01*
X137501248Y-143705431D01*
X137494515Y-143698687D01*
X137614491Y-143722551D01*
X143542983Y-143722551D01*
X144171409Y-144350978D01*
X144150841Y-144400511D01*
X144150181Y-145156174D01*
X144438752Y-145854569D01*
X144972621Y-146389370D01*
X145670511Y-146679159D01*
X146426174Y-146679819D01*
X147124569Y-146391248D01*
X147659370Y-145857379D01*
X147949159Y-145159489D01*
X147949819Y-144403826D01*
X147661248Y-143705431D01*
X147127379Y-143170630D01*
X146429489Y-142880841D01*
X145673826Y-142880181D01*
X145621408Y-142901840D01*
X145459370Y-142739802D01*
X146899110Y-142739802D01*
X147232630Y-142677046D01*
X147538948Y-142479936D01*
X147744446Y-142179180D01*
X147816742Y-141822170D01*
X147816742Y-140122910D01*
X147753986Y-139789390D01*
X147556876Y-139483072D01*
X147256120Y-139277574D01*
X147074480Y-139240791D01*
X147074480Y-138791944D01*
X147124569Y-138771248D01*
X147659370Y-138237379D01*
X147949159Y-137539489D01*
X147949819Y-136783826D01*
X147661248Y-136085431D01*
X147127379Y-135550630D01*
X146429489Y-135260841D01*
X145673826Y-135260181D01*
X144975431Y-135548752D01*
X144440630Y-136082621D01*
X144150841Y-136780511D01*
X144150181Y-137536174D01*
X144438752Y-138234569D01*
X144972621Y-138769370D01*
X145024480Y-138790904D01*
X145024480Y-139238276D01*
X144866330Y-139268034D01*
X144560012Y-139465144D01*
X144354514Y-139765900D01*
X144282218Y-140122910D01*
X144282218Y-141735142D01*
X143967551Y-141672551D01*
X138039059Y-141672551D01*
X137638848Y-141272340D01*
X137639413Y-140626044D01*
X137373609Y-139982749D01*
X136881860Y-139490141D01*
X136239030Y-139223215D01*
X135542984Y-139222607D01*
X134899689Y-139488411D01*
X134407081Y-139980160D01*
X134140155Y-140622990D01*
X134139547Y-141319036D01*
X134405351Y-141962331D01*
X134897100Y-142454939D01*
X135539930Y-142721865D01*
X136189805Y-142722433D01*
X136404114Y-142936742D01*
X136269489Y-142880841D01*
X135513826Y-142880181D01*
X134815431Y-143168752D01*
X134606359Y-143377460D01*
X131885155Y-143377460D01*
X131802900Y-143295061D01*
X131160070Y-143028135D01*
X130464024Y-143027527D01*
X129820729Y-143293331D01*
X129736453Y-143377460D01*
X128847359Y-143377460D01*
X125804898Y-140335000D01*
X125962522Y-140177376D01*
X129074457Y-140177376D01*
X129245220Y-140589666D01*
X129704792Y-141120760D01*
X130332622Y-141435556D01*
X130610000Y-141238867D01*
X130610000Y-139900000D01*
X131010000Y-139900000D01*
X131010000Y-141238867D01*
X131287378Y-141435556D01*
X131915208Y-141120760D01*
X132374780Y-140589666D01*
X132545543Y-140177376D01*
X132347043Y-139900000D01*
X131010000Y-139900000D01*
X130610000Y-139900000D01*
X129272957Y-139900000D01*
X129074457Y-140177376D01*
X125962522Y-140177376D01*
X127354950Y-138784949D01*
X127607775Y-138406569D01*
X127658431Y-138330757D01*
X127765000Y-137795000D01*
X127765000Y-135199898D01*
X129484899Y-133480000D01*
X129533131Y-133480000D01*
X129206100Y-133969438D01*
X129076695Y-134620000D01*
X129206100Y-135270562D01*
X129574613Y-135822082D01*
X129676260Y-135890000D01*
X129574613Y-135957918D01*
X129206100Y-136509438D01*
X129076695Y-137160000D01*
X129206100Y-137810562D01*
X129574613Y-138362082D01*
X129611676Y-138386847D01*
X129245220Y-138810334D01*
X129074457Y-139222624D01*
X129272957Y-139500000D01*
X130610000Y-139500000D01*
X130610000Y-139480000D01*
X131010000Y-139480000D01*
X131010000Y-139500000D01*
X132347043Y-139500000D01*
X132545543Y-139222624D01*
X132374780Y-138810334D01*
X132008324Y-138386847D01*
X132045387Y-138362082D01*
X132176540Y-138165797D01*
X132472251Y-138106977D01*
X132804784Y-137884784D01*
X134048915Y-136640653D01*
X133990841Y-136780511D01*
X133990181Y-137536174D01*
X134278752Y-138234569D01*
X134812621Y-138769370D01*
X135510511Y-139059159D01*
X136266174Y-139059819D01*
X136964569Y-138771248D01*
X137499370Y-138237379D01*
X137521120Y-138185000D01*
X139065000Y-138185000D01*
X139457251Y-138106977D01*
X139789784Y-137884784D01*
X143299569Y-134375000D01*
X144418271Y-134375000D01*
X144438752Y-134424569D01*
X144972621Y-134959370D01*
X145670511Y-135249159D01*
X146426174Y-135249819D01*
X147124569Y-134961248D01*
X147659370Y-134427379D01*
X147949159Y-133729489D01*
X147949819Y-132973826D01*
X147661248Y-132275431D01*
X147127379Y-131740630D01*
X147075000Y-131718880D01*
X147075000Y-131171729D01*
X147124569Y-131151248D01*
X147659370Y-130617379D01*
X147949159Y-129919489D01*
X147949819Y-129163826D01*
X147661248Y-128465431D01*
X147127379Y-127930630D01*
X146429489Y-127640841D01*
X145673826Y-127640181D01*
X144975431Y-127928752D01*
X144440630Y-128462621D01*
X144150841Y-129160511D01*
X144150181Y-129916174D01*
X144438752Y-130614569D01*
X144972621Y-131149370D01*
X145025000Y-131171120D01*
X145025000Y-131718271D01*
X144975431Y-131738752D01*
X144440630Y-132272621D01*
X144418880Y-132325000D01*
X142875000Y-132325000D01*
X142482749Y-132403023D01*
X142455474Y-132421248D01*
X142150216Y-132625215D01*
X138640432Y-136135000D01*
X137521729Y-136135000D01*
X137501248Y-136085431D01*
X136967379Y-135550630D01*
X136269489Y-135260841D01*
X135513826Y-135260181D01*
X135369932Y-135319637D01*
X135460978Y-135228591D01*
X135510511Y-135249159D01*
X136266174Y-135249819D01*
X136964569Y-134961248D01*
X137499370Y-134427379D01*
X137789159Y-133729489D01*
X137789819Y-132973826D01*
X137501248Y-132275431D01*
X136967379Y-131740630D01*
X136269489Y-131450841D01*
X135513826Y-131450181D01*
X134815431Y-131738752D01*
X134280630Y-132272621D01*
X133990841Y-132970511D01*
X133990181Y-133726174D01*
X134011840Y-133778592D01*
X132200513Y-135589918D01*
X132413900Y-135270562D01*
X132543305Y-134620000D01*
X132413900Y-133969438D01*
X132045387Y-133417918D01*
X131943740Y-133350000D01*
X132045387Y-133282082D01*
X132413900Y-132730562D01*
X132482075Y-132387823D01*
X134271904Y-130597995D01*
X134278752Y-130614569D01*
X134812621Y-131149370D01*
X135510511Y-131439159D01*
X136266174Y-131439819D01*
X136964569Y-131151248D01*
X137499370Y-130617379D01*
X137789159Y-129919489D01*
X137789819Y-129163826D01*
X137501248Y-128465431D01*
X136967379Y-127930630D01*
X136915000Y-127908880D01*
X136915000Y-127181002D01*
X137371879Y-126724920D01*
X137638805Y-126082090D01*
X137639413Y-125386044D01*
X137373609Y-124742749D01*
X136881860Y-124250141D01*
X136239030Y-123983215D01*
X135542984Y-123982607D01*
X134899689Y-124248411D01*
X134750000Y-124397838D01*
X134750001Y-123466640D01*
X134812621Y-123529370D01*
X135510511Y-123819159D01*
X136266174Y-123819819D01*
X136964569Y-123531248D01*
X137499370Y-122997379D01*
X137789159Y-122299489D01*
X137789161Y-122296174D01*
X144150181Y-122296174D01*
X144438752Y-122994569D01*
X144972621Y-123529370D01*
X145025000Y-123551120D01*
X145025000Y-123998178D01*
X144866330Y-124028034D01*
X144560012Y-124225144D01*
X144354514Y-124525900D01*
X144282218Y-124882910D01*
X144282218Y-126582170D01*
X144344974Y-126915690D01*
X144542084Y-127222008D01*
X144842840Y-127427506D01*
X145199850Y-127499802D01*
X146899110Y-127499802D01*
X147232630Y-127437046D01*
X147538948Y-127239936D01*
X147744446Y-126939180D01*
X147816742Y-126582170D01*
X147816742Y-124882910D01*
X147753986Y-124549390D01*
X147556876Y-124243072D01*
X147256120Y-124037574D01*
X147075000Y-124000896D01*
X147075000Y-123551729D01*
X147124569Y-123531248D01*
X147659370Y-122997379D01*
X147949159Y-122299489D01*
X147949819Y-121543826D01*
X147661248Y-120845431D01*
X147127379Y-120310630D01*
X146429489Y-120020841D01*
X145673826Y-120020181D01*
X144975431Y-120308752D01*
X144440630Y-120842621D01*
X144150841Y-121540511D01*
X144150181Y-122296174D01*
X137789161Y-122296174D01*
X137789819Y-121543826D01*
X137501248Y-120845431D01*
X136967379Y-120310630D01*
X136568444Y-120144978D01*
X137160000Y-120144978D01*
X137695757Y-120038409D01*
X138149949Y-119734927D01*
X138453431Y-119280735D01*
X138560000Y-118744978D01*
X138453431Y-118209221D01*
X138149949Y-117755029D01*
X137730855Y-117474999D01*
X148329999Y-117474999D01*
X148329999Y-129409999D01*
X148436568Y-129945756D01*
X148460000Y-129980824D01*
X148460000Y-139065000D01*
X148566569Y-139600757D01*
X148823230Y-139984876D01*
X148870051Y-140054949D01*
X154585051Y-145769950D01*
X155039244Y-146073432D01*
X155575000Y-146180000D01*
X158522357Y-146180000D01*
X158712836Y-146307274D01*
X159345454Y-146433110D01*
X160948546Y-146433110D01*
X161581164Y-146307274D01*
X162117471Y-145948925D01*
X162475820Y-145412618D01*
X162601656Y-144780000D01*
X162475820Y-144147382D01*
X162117471Y-143611075D01*
X161966202Y-143510000D01*
X162117471Y-143408925D01*
X162475820Y-142872618D01*
X162601656Y-142240000D01*
X162475820Y-141607382D01*
X162117471Y-141071075D01*
X161966202Y-140970000D01*
X162117471Y-140868925D01*
X162475820Y-140332618D01*
X162601656Y-139700000D01*
X162475820Y-139067382D01*
X162117471Y-138531075D01*
X161966202Y-138430000D01*
X162117471Y-138328925D01*
X162475820Y-137792618D01*
X162601656Y-137160000D01*
X162475820Y-136527382D01*
X162117471Y-135991075D01*
X161966202Y-135890000D01*
X162117471Y-135788925D01*
X162213639Y-135645000D01*
X169545000Y-135645000D01*
X169937251Y-135566977D01*
X170269784Y-135344784D01*
X170491977Y-135012251D01*
X170570000Y-134620000D01*
X170570000Y-93980000D01*
X170491977Y-93587749D01*
X170269784Y-93255216D01*
X169937251Y-93033023D01*
X169545000Y-92955000D01*
X161315685Y-92955000D01*
X160894742Y-92780209D01*
X160417353Y-92779793D01*
X159976143Y-92962097D01*
X159638283Y-93299367D01*
X159455209Y-93740258D01*
X159454793Y-94217647D01*
X159457831Y-94225000D01*
X159138590Y-94225000D01*
X159138590Y-89533590D01*
X159060567Y-89141339D01*
X158986176Y-89030006D01*
X158838374Y-88808805D01*
X153124784Y-83095216D01*
X152792251Y-82873023D01*
X152400000Y-82795000D01*
X111150685Y-82795000D01*
X110729742Y-82620209D01*
X110252353Y-82619793D01*
X109811143Y-82802097D01*
X109473283Y-83139367D01*
X109290209Y-83580258D01*
X109289793Y-84057647D01*
X109292831Y-84065000D01*
X104800685Y-84065000D01*
X104379742Y-83890209D01*
X103902353Y-83889793D01*
X103461143Y-84072097D01*
X103123283Y-84409367D01*
X102940209Y-84850258D01*
X102939793Y-85327647D01*
X102942831Y-85335000D01*
X98910000Y-85335000D01*
X98517749Y-85413023D01*
X98185215Y-85635216D01*
X98090170Y-85730261D01*
X97443431Y-85729696D01*
X96799999Y-85995557D01*
X96307287Y-86487410D01*
X96040304Y-87130376D01*
X96039696Y-87826569D01*
X96305557Y-88470001D01*
X96585125Y-88750057D01*
X96307287Y-89027410D01*
X96040304Y-89670376D01*
X96039696Y-90366569D01*
X96305557Y-91010001D01*
X96585125Y-91290057D01*
X96307287Y-91567410D01*
X96040304Y-92210376D01*
X96039696Y-92906569D01*
X96305557Y-93550001D01*
X96585125Y-93830057D01*
X96307287Y-94107410D01*
X96040304Y-94750376D01*
X96039696Y-95446569D01*
X96305557Y-96090001D01*
X96797410Y-96582713D01*
X97170460Y-96737617D01*
X97790000Y-97357157D01*
X97804142Y-97343015D01*
X98086985Y-97625858D01*
X98072843Y-97640000D01*
X98086985Y-97654142D01*
X97804142Y-97936985D01*
X97790000Y-97922843D01*
X97775858Y-97936985D01*
X97493015Y-97654142D01*
X97507157Y-97640000D01*
X96500255Y-96633098D01*
X96155042Y-96699347D01*
X95919524Y-97396622D01*
X95968768Y-98130948D01*
X96155042Y-98580653D01*
X96376451Y-98623143D01*
X96300162Y-98672234D01*
X96094664Y-98972990D01*
X96022368Y-99330000D01*
X96022368Y-101030000D01*
X96056237Y-101210000D01*
X89925000Y-101210000D01*
X89925000Y-98425000D01*
X89846977Y-98032749D01*
X89624784Y-97700216D01*
X89292251Y-97478023D01*
X88900000Y-97400000D01*
X85725000Y-97400000D01*
X85332749Y-97478023D01*
X85229144Y-97547250D01*
X85000216Y-97700215D01*
X82884150Y-99816282D01*
X82213431Y-99815696D01*
X81569999Y-100081557D01*
X81289943Y-100361125D01*
X81012590Y-100083287D01*
X80369624Y-99816304D01*
X79673431Y-99815696D01*
X79086447Y-100058233D01*
X78896454Y-99868241D01*
X78528912Y-99716000D01*
X77930000Y-99716000D01*
X77680000Y-99966000D01*
X77680000Y-101366000D01*
X77700000Y-101366000D01*
X77700000Y-101766000D01*
X77680000Y-101766000D01*
X77680000Y-101786000D01*
X77280000Y-101786000D01*
X77280000Y-101766000D01*
X75880000Y-101766000D01*
X75630000Y-102016000D01*
X75630000Y-102480000D01*
X74810620Y-102480000D01*
X74428534Y-102556001D01*
X74418369Y-102558023D01*
X74085835Y-102780216D01*
X73026051Y-103840000D01*
X56855000Y-103840000D01*
X56855000Y-101946275D01*
X64179671Y-101946275D01*
X64468319Y-102644857D01*
X65002331Y-103179802D01*
X65700409Y-103469669D01*
X66456275Y-103470329D01*
X67154857Y-103181681D01*
X67689802Y-102647669D01*
X67979669Y-101949591D01*
X67980329Y-101193725D01*
X67700749Y-100517087D01*
X75630000Y-100517087D01*
X75630000Y-101116000D01*
X75880000Y-101366000D01*
X77280000Y-101366000D01*
X77280000Y-99966000D01*
X77030000Y-99716000D01*
X76431088Y-99716000D01*
X76063546Y-99868241D01*
X75782241Y-100149545D01*
X75630000Y-100517087D01*
X67700749Y-100517087D01*
X67691681Y-100495143D01*
X67157669Y-99960198D01*
X66459591Y-99670331D01*
X65703725Y-99669671D01*
X65005143Y-99958319D01*
X64470198Y-100492331D01*
X64180331Y-101190409D01*
X64179671Y-101946275D01*
X56855000Y-101946275D01*
X56855000Y-86660000D01*
X64179703Y-86660000D01*
X64179671Y-86696275D01*
X64468319Y-87394857D01*
X65002331Y-87929802D01*
X65700409Y-88219669D01*
X66456275Y-88220329D01*
X67154857Y-87931681D01*
X67689802Y-87397669D01*
X67979669Y-86699591D01*
X67980329Y-85943725D01*
X67805250Y-85520000D01*
X75712368Y-85520000D01*
X75712368Y-87220000D01*
X75775124Y-87553520D01*
X75972234Y-87859838D01*
X76272990Y-88065336D01*
X76630000Y-88137632D01*
X78330000Y-88137632D01*
X78663520Y-88074876D01*
X78969838Y-87877766D01*
X79007450Y-87822719D01*
X79027410Y-87842713D01*
X79670376Y-88109696D01*
X80366569Y-88110304D01*
X81010001Y-87844443D01*
X81290057Y-87564875D01*
X81567410Y-87842713D01*
X82210376Y-88109696D01*
X82906569Y-88110304D01*
X83550001Y-87844443D01*
X83830057Y-87564875D01*
X84107410Y-87842713D01*
X84750376Y-88109696D01*
X85446569Y-88110304D01*
X86090001Y-87844443D01*
X86582713Y-87352590D01*
X86849696Y-86709624D01*
X86850304Y-86013431D01*
X86584443Y-85369999D01*
X86092590Y-84877287D01*
X85449624Y-84610304D01*
X84753431Y-84609696D01*
X84109999Y-84875557D01*
X83829943Y-85155125D01*
X83552590Y-84877287D01*
X82909624Y-84610304D01*
X82213431Y-84609696D01*
X81569999Y-84875557D01*
X81289943Y-85155125D01*
X81012590Y-84877287D01*
X80369624Y-84610304D01*
X79673431Y-84609696D01*
X79029999Y-84875557D01*
X79002480Y-84903028D01*
X78987766Y-84880162D01*
X78687010Y-84674664D01*
X78330000Y-84602368D01*
X76630000Y-84602368D01*
X76296480Y-84665124D01*
X75990162Y-84862234D01*
X75784664Y-85162990D01*
X75712368Y-85520000D01*
X67805250Y-85520000D01*
X67691681Y-85245143D01*
X67157669Y-84710198D01*
X66459591Y-84420331D01*
X66340000Y-84420227D01*
X66340000Y-82215000D01*
X164800000Y-82215000D01*
X164800000Y-86995000D01*
X164800000Y-86995000D01*
G37*
X164800000Y-86995000D02*
X164820517Y-87104037D01*
X164884958Y-87204181D01*
X164983283Y-87271364D01*
X165100000Y-87295000D01*
X174285000Y-87295000D01*
X174285000Y-142575000D01*
X165100000Y-142575000D01*
X164990963Y-142595517D01*
X164890819Y-142659958D01*
X164823636Y-142758283D01*
X164800000Y-142875000D01*
X164800000Y-147655000D01*
X96820000Y-147655000D01*
X96820000Y-141447376D01*
X97324457Y-141447376D01*
X97495220Y-141859666D01*
X97861676Y-142283153D01*
X97824613Y-142307918D01*
X97456100Y-142859438D01*
X97326695Y-143510000D01*
X97456100Y-144160562D01*
X97824613Y-144712082D01*
X98376133Y-145080595D01*
X99026695Y-145210000D01*
X99093305Y-145210000D01*
X99743867Y-145080595D01*
X100295387Y-144712082D01*
X100413709Y-144535000D01*
X102240724Y-144535000D01*
X102240181Y-145156174D01*
X102528752Y-145854569D01*
X103062621Y-146389370D01*
X103760511Y-146679159D01*
X104516174Y-146679819D01*
X105214569Y-146391248D01*
X105749370Y-145857379D01*
X106039159Y-145159489D01*
X106039819Y-144403826D01*
X105751248Y-143705431D01*
X105217379Y-143170630D01*
X104519489Y-142880841D01*
X103763826Y-142880181D01*
X103711408Y-142901840D01*
X103594784Y-142785216D01*
X103262251Y-142563023D01*
X102870000Y-142485000D01*
X100413709Y-142485000D01*
X100295387Y-142307918D01*
X100258324Y-142283153D01*
X100624780Y-141859666D01*
X100795543Y-141447376D01*
X100597043Y-141170000D01*
X99260000Y-141170000D01*
X99260000Y-141190000D01*
X98860000Y-141190000D01*
X98860000Y-141170000D01*
X97522957Y-141170000D01*
X97324457Y-141447376D01*
X96820000Y-141447376D01*
X96820000Y-140492624D01*
X97324457Y-140492624D01*
X97522957Y-140770000D01*
X98860000Y-140770000D01*
X98860000Y-140750000D01*
X99260000Y-140750000D01*
X99260000Y-140770000D01*
X100597043Y-140770000D01*
X100795543Y-140492624D01*
X100624780Y-140080334D01*
X100258324Y-139656847D01*
X100295387Y-139632082D01*
X100663900Y-139080562D01*
X100793305Y-138430000D01*
X100663900Y-137779438D01*
X100295387Y-137227918D01*
X99743867Y-136859405D01*
X99093305Y-136730000D01*
X99026695Y-136730000D01*
X98376133Y-136859405D01*
X97824613Y-137227918D01*
X97456100Y-137779438D01*
X97326695Y-138430000D01*
X97456100Y-139080562D01*
X97824613Y-139632082D01*
X97861676Y-139656847D01*
X97495220Y-140080334D01*
X97324457Y-140492624D01*
X96820000Y-140492624D01*
X96820000Y-133843112D01*
X110190105Y-133843112D01*
X110208513Y-133960930D01*
X110580578Y-134609565D01*
X111172543Y-135066443D01*
X111894287Y-135262008D01*
X112195000Y-135008916D01*
X112195000Y-133550000D01*
X112595000Y-133550000D01*
X112595000Y-135008916D01*
X112895713Y-135262008D01*
X113617457Y-135066443D01*
X114209422Y-134609565D01*
X114581487Y-133960930D01*
X114599895Y-133843112D01*
X114402834Y-133550000D01*
X112595000Y-133550000D01*
X112195000Y-133550000D01*
X110387166Y-133550000D01*
X110190105Y-133843112D01*
X96820000Y-133843112D01*
X96820000Y-128270000D01*
X110182487Y-128270000D01*
X110319504Y-128958830D01*
X110707829Y-129540000D01*
X110319504Y-130121170D01*
X110182487Y-130810000D01*
X110319504Y-131498830D01*
X110669134Y-132022088D01*
X110580578Y-132090435D01*
X110208513Y-132739070D01*
X110190105Y-132856888D01*
X110387166Y-133150000D01*
X112195000Y-133150000D01*
X112195000Y-133130000D01*
X112595000Y-133130000D01*
X112595000Y-133150000D01*
X114402834Y-133150000D01*
X114599895Y-132856888D01*
X114581487Y-132739070D01*
X114209422Y-132090435D01*
X114120866Y-132022088D01*
X114470496Y-131498830D01*
X114607513Y-130810000D01*
X114470496Y-130121170D01*
X114082171Y-129540000D01*
X114470496Y-128958830D01*
X114607513Y-128270000D01*
X114470496Y-127581170D01*
X114080305Y-126997208D01*
X113496343Y-126607017D01*
X112807513Y-126470000D01*
X111982487Y-126470000D01*
X111293657Y-126607017D01*
X110709695Y-126997208D01*
X110319504Y-127581170D01*
X110182487Y-128270000D01*
X96820000Y-128270000D01*
X96820000Y-104530000D01*
X113007531Y-104530000D01*
X113007374Y-104710637D01*
X113182581Y-105134671D01*
X113182581Y-115477581D01*
X113226823Y-115700000D01*
X113260604Y-115869832D01*
X113482797Y-116202365D01*
X115180000Y-117899568D01*
X115180000Y-142450431D01*
X114729022Y-142901409D01*
X114679489Y-142880841D01*
X113923826Y-142880181D01*
X113225431Y-143168752D01*
X112690630Y-143702621D01*
X112400841Y-144400511D01*
X112400181Y-145156174D01*
X112688752Y-145854569D01*
X113222621Y-146389370D01*
X113920511Y-146679159D01*
X114676174Y-146679819D01*
X115374569Y-146391248D01*
X115909370Y-145857379D01*
X116199159Y-145159489D01*
X116199819Y-144403826D01*
X116178160Y-144351408D01*
X116929785Y-143599784D01*
X117076640Y-143380000D01*
X117151977Y-143267251D01*
X117230000Y-142875000D01*
X117230000Y-117939899D01*
X117345000Y-118054899D01*
X117345000Y-141022310D01*
X117451569Y-141558067D01*
X117720099Y-141959949D01*
X117755051Y-142012259D01*
X119100896Y-143358105D01*
X118955554Y-143570820D01*
X118883258Y-143927830D01*
X118883258Y-145627090D01*
X118946014Y-145960610D01*
X119143124Y-146266928D01*
X119443880Y-146472426D01*
X119800890Y-146544722D01*
X121500150Y-146544722D01*
X121833670Y-146481966D01*
X122139988Y-146284856D01*
X122345486Y-145984100D01*
X122417782Y-145627090D01*
X122417782Y-143927830D01*
X122355026Y-143594310D01*
X122157916Y-143287992D01*
X122050520Y-143214611D01*
X122050520Y-142927830D01*
X121943951Y-142392073D01*
X121929202Y-142369999D01*
X121640469Y-141937880D01*
X120145000Y-140442412D01*
X120145000Y-117475000D01*
X120038431Y-116939243D01*
X119818942Y-116610755D01*
X119734949Y-116485050D01*
X117605000Y-114355102D01*
X117605000Y-109424898D01*
X125245049Y-117064948D01*
X125664144Y-117344978D01*
X125699242Y-117368430D01*
X126234999Y-117474999D01*
X129139335Y-117474999D01*
X128982335Y-117853096D01*
X120560216Y-126275216D01*
X120338023Y-126607749D01*
X120260000Y-127000000D01*
X120260000Y-135255000D01*
X120318804Y-135550630D01*
X120338023Y-135647251D01*
X120560216Y-135979784D01*
X121503770Y-136923338D01*
X121456695Y-137160000D01*
X121586100Y-137810562D01*
X121954613Y-138362082D01*
X122056260Y-138430000D01*
X121954613Y-138497918D01*
X121586100Y-139049438D01*
X121456695Y-139700000D01*
X121586100Y-140350562D01*
X121954613Y-140902082D01*
X122506133Y-141270595D01*
X122848872Y-141338770D01*
X127277511Y-145767410D01*
X127412160Y-145857379D01*
X127731703Y-146070891D01*
X128267460Y-146177460D01*
X129735885Y-146177460D01*
X129818140Y-146259859D01*
X130460970Y-146526785D01*
X131157016Y-146527393D01*
X131800311Y-146261589D01*
X131884587Y-146177460D01*
X134601080Y-146177460D01*
X134812621Y-146389370D01*
X135510511Y-146679159D01*
X136266174Y-146679819D01*
X136964569Y-146391248D01*
X137499370Y-145857379D01*
X137789159Y-145159489D01*
X137789819Y-144403826D01*
X137501248Y-143705431D01*
X137494515Y-143698687D01*
X137614491Y-143722551D01*
X143542983Y-143722551D01*
X144171409Y-144350978D01*
X144150841Y-144400511D01*
X144150181Y-145156174D01*
X144438752Y-145854569D01*
X144972621Y-146389370D01*
X145670511Y-146679159D01*
X146426174Y-146679819D01*
X147124569Y-146391248D01*
X147659370Y-145857379D01*
X147949159Y-145159489D01*
X147949819Y-144403826D01*
X147661248Y-143705431D01*
X147127379Y-143170630D01*
X146429489Y-142880841D01*
X145673826Y-142880181D01*
X145621408Y-142901840D01*
X145459370Y-142739802D01*
X146899110Y-142739802D01*
X147232630Y-142677046D01*
X147538948Y-142479936D01*
X147744446Y-142179180D01*
X147816742Y-141822170D01*
X147816742Y-140122910D01*
X147753986Y-139789390D01*
X147556876Y-139483072D01*
X147256120Y-139277574D01*
X147074480Y-139240791D01*
X147074480Y-138791944D01*
X147124569Y-138771248D01*
X147659370Y-138237379D01*
X147949159Y-137539489D01*
X147949819Y-136783826D01*
X147661248Y-136085431D01*
X147127379Y-135550630D01*
X146429489Y-135260841D01*
X145673826Y-135260181D01*
X144975431Y-135548752D01*
X144440630Y-136082621D01*
X144150841Y-136780511D01*
X144150181Y-137536174D01*
X144438752Y-138234569D01*
X144972621Y-138769370D01*
X145024480Y-138790904D01*
X145024480Y-139238276D01*
X144866330Y-139268034D01*
X144560012Y-139465144D01*
X144354514Y-139765900D01*
X144282218Y-140122910D01*
X144282218Y-141735142D01*
X143967551Y-141672551D01*
X138039059Y-141672551D01*
X137638848Y-141272340D01*
X137639413Y-140626044D01*
X137373609Y-139982749D01*
X136881860Y-139490141D01*
X136239030Y-139223215D01*
X135542984Y-139222607D01*
X134899689Y-139488411D01*
X134407081Y-139980160D01*
X134140155Y-140622990D01*
X134139547Y-141319036D01*
X134405351Y-141962331D01*
X134897100Y-142454939D01*
X135539930Y-142721865D01*
X136189805Y-142722433D01*
X136404114Y-142936742D01*
X136269489Y-142880841D01*
X135513826Y-142880181D01*
X134815431Y-143168752D01*
X134606359Y-143377460D01*
X131885155Y-143377460D01*
X131802900Y-143295061D01*
X131160070Y-143028135D01*
X130464024Y-143027527D01*
X129820729Y-143293331D01*
X129736453Y-143377460D01*
X128847359Y-143377460D01*
X125804898Y-140335000D01*
X125962522Y-140177376D01*
X129074457Y-140177376D01*
X129245220Y-140589666D01*
X129704792Y-141120760D01*
X130332622Y-141435556D01*
X130610000Y-141238867D01*
X130610000Y-139900000D01*
X131010000Y-139900000D01*
X131010000Y-141238867D01*
X131287378Y-141435556D01*
X131915208Y-141120760D01*
X132374780Y-140589666D01*
X132545543Y-140177376D01*
X132347043Y-139900000D01*
X131010000Y-139900000D01*
X130610000Y-139900000D01*
X129272957Y-139900000D01*
X129074457Y-140177376D01*
X125962522Y-140177376D01*
X127354950Y-138784949D01*
X127607775Y-138406569D01*
X127658431Y-138330757D01*
X127765000Y-137795000D01*
X127765000Y-135199898D01*
X129484899Y-133480000D01*
X129533131Y-133480000D01*
X129206100Y-133969438D01*
X129076695Y-134620000D01*
X129206100Y-135270562D01*
X129574613Y-135822082D01*
X129676260Y-135890000D01*
X129574613Y-135957918D01*
X129206100Y-136509438D01*
X129076695Y-137160000D01*
X129206100Y-137810562D01*
X129574613Y-138362082D01*
X129611676Y-138386847D01*
X129245220Y-138810334D01*
X129074457Y-139222624D01*
X129272957Y-139500000D01*
X130610000Y-139500000D01*
X130610000Y-139480000D01*
X131010000Y-139480000D01*
X131010000Y-139500000D01*
X132347043Y-139500000D01*
X132545543Y-139222624D01*
X132374780Y-138810334D01*
X132008324Y-138386847D01*
X132045387Y-138362082D01*
X132176540Y-138165797D01*
X132472251Y-138106977D01*
X132804784Y-137884784D01*
X134048915Y-136640653D01*
X133990841Y-136780511D01*
X133990181Y-137536174D01*
X134278752Y-138234569D01*
X134812621Y-138769370D01*
X135510511Y-139059159D01*
X136266174Y-139059819D01*
X136964569Y-138771248D01*
X137499370Y-138237379D01*
X137521120Y-138185000D01*
X139065000Y-138185000D01*
X139457251Y-138106977D01*
X139789784Y-137884784D01*
X143299569Y-134375000D01*
X144418271Y-134375000D01*
X144438752Y-134424569D01*
X144972621Y-134959370D01*
X145670511Y-135249159D01*
X146426174Y-135249819D01*
X147124569Y-134961248D01*
X147659370Y-134427379D01*
X147949159Y-133729489D01*
X147949819Y-132973826D01*
X147661248Y-132275431D01*
X147127379Y-131740630D01*
X147075000Y-131718880D01*
X147075000Y-131171729D01*
X147124569Y-131151248D01*
X147659370Y-130617379D01*
X147949159Y-129919489D01*
X147949819Y-129163826D01*
X147661248Y-128465431D01*
X147127379Y-127930630D01*
X146429489Y-127640841D01*
X145673826Y-127640181D01*
X144975431Y-127928752D01*
X144440630Y-128462621D01*
X144150841Y-129160511D01*
X144150181Y-129916174D01*
X144438752Y-130614569D01*
X144972621Y-131149370D01*
X145025000Y-131171120D01*
X145025000Y-131718271D01*
X144975431Y-131738752D01*
X144440630Y-132272621D01*
X144418880Y-132325000D01*
X142875000Y-132325000D01*
X142482749Y-132403023D01*
X142455474Y-132421248D01*
X142150216Y-132625215D01*
X138640432Y-136135000D01*
X137521729Y-136135000D01*
X137501248Y-136085431D01*
X136967379Y-135550630D01*
X136269489Y-135260841D01*
X135513826Y-135260181D01*
X135369932Y-135319637D01*
X135460978Y-135228591D01*
X135510511Y-135249159D01*
X136266174Y-135249819D01*
X136964569Y-134961248D01*
X137499370Y-134427379D01*
X137789159Y-133729489D01*
X137789819Y-132973826D01*
X137501248Y-132275431D01*
X136967379Y-131740630D01*
X136269489Y-131450841D01*
X135513826Y-131450181D01*
X134815431Y-131738752D01*
X134280630Y-132272621D01*
X133990841Y-132970511D01*
X133990181Y-133726174D01*
X134011840Y-133778592D01*
X132200513Y-135589918D01*
X132413900Y-135270562D01*
X132543305Y-134620000D01*
X132413900Y-133969438D01*
X132045387Y-133417918D01*
X131943740Y-133350000D01*
X132045387Y-133282082D01*
X132413900Y-132730562D01*
X132482075Y-132387823D01*
X134271904Y-130597995D01*
X134278752Y-130614569D01*
X134812621Y-131149370D01*
X135510511Y-131439159D01*
X136266174Y-131439819D01*
X136964569Y-131151248D01*
X137499370Y-130617379D01*
X137789159Y-129919489D01*
X137789819Y-129163826D01*
X137501248Y-128465431D01*
X136967379Y-127930630D01*
X136915000Y-127908880D01*
X136915000Y-127181002D01*
X137371879Y-126724920D01*
X137638805Y-126082090D01*
X137639413Y-125386044D01*
X137373609Y-124742749D01*
X136881860Y-124250141D01*
X136239030Y-123983215D01*
X135542984Y-123982607D01*
X134899689Y-124248411D01*
X134750000Y-124397838D01*
X134750001Y-123466640D01*
X134812621Y-123529370D01*
X135510511Y-123819159D01*
X136266174Y-123819819D01*
X136964569Y-123531248D01*
X137499370Y-122997379D01*
X137789159Y-122299489D01*
X137789161Y-122296174D01*
X144150181Y-122296174D01*
X144438752Y-122994569D01*
X144972621Y-123529370D01*
X145025000Y-123551120D01*
X145025000Y-123998178D01*
X144866330Y-124028034D01*
X144560012Y-124225144D01*
X144354514Y-124525900D01*
X144282218Y-124882910D01*
X144282218Y-126582170D01*
X144344974Y-126915690D01*
X144542084Y-127222008D01*
X144842840Y-127427506D01*
X145199850Y-127499802D01*
X146899110Y-127499802D01*
X147232630Y-127437046D01*
X147538948Y-127239936D01*
X147744446Y-126939180D01*
X147816742Y-126582170D01*
X147816742Y-124882910D01*
X147753986Y-124549390D01*
X147556876Y-124243072D01*
X147256120Y-124037574D01*
X147075000Y-124000896D01*
X147075000Y-123551729D01*
X147124569Y-123531248D01*
X147659370Y-122997379D01*
X147949159Y-122299489D01*
X147949819Y-121543826D01*
X147661248Y-120845431D01*
X147127379Y-120310630D01*
X146429489Y-120020841D01*
X145673826Y-120020181D01*
X144975431Y-120308752D01*
X144440630Y-120842621D01*
X144150841Y-121540511D01*
X144150181Y-122296174D01*
X137789161Y-122296174D01*
X137789819Y-121543826D01*
X137501248Y-120845431D01*
X136967379Y-120310630D01*
X136568444Y-120144978D01*
X137160000Y-120144978D01*
X137695757Y-120038409D01*
X138149949Y-119734927D01*
X138453431Y-119280735D01*
X138560000Y-118744978D01*
X138453431Y-118209221D01*
X138149949Y-117755029D01*
X137730855Y-117474999D01*
X148329999Y-117474999D01*
X148329999Y-129409999D01*
X148436568Y-129945756D01*
X148460000Y-129980824D01*
X148460000Y-139065000D01*
X148566569Y-139600757D01*
X148823230Y-139984876D01*
X148870051Y-140054949D01*
X154585051Y-145769950D01*
X155039244Y-146073432D01*
X155575000Y-146180000D01*
X158522357Y-146180000D01*
X158712836Y-146307274D01*
X159345454Y-146433110D01*
X160948546Y-146433110D01*
X161581164Y-146307274D01*
X162117471Y-145948925D01*
X162475820Y-145412618D01*
X162601656Y-144780000D01*
X162475820Y-144147382D01*
X162117471Y-143611075D01*
X161966202Y-143510000D01*
X162117471Y-143408925D01*
X162475820Y-142872618D01*
X162601656Y-142240000D01*
X162475820Y-141607382D01*
X162117471Y-141071075D01*
X161966202Y-140970000D01*
X162117471Y-140868925D01*
X162475820Y-140332618D01*
X162601656Y-139700000D01*
X162475820Y-139067382D01*
X162117471Y-138531075D01*
X161966202Y-138430000D01*
X162117471Y-138328925D01*
X162475820Y-137792618D01*
X162601656Y-137160000D01*
X162475820Y-136527382D01*
X162117471Y-135991075D01*
X161966202Y-135890000D01*
X162117471Y-135788925D01*
X162213639Y-135645000D01*
X169545000Y-135645000D01*
X169937251Y-135566977D01*
X170269784Y-135344784D01*
X170491977Y-135012251D01*
X170570000Y-134620000D01*
X170570000Y-93980000D01*
X170491977Y-93587749D01*
X170269784Y-93255216D01*
X169937251Y-93033023D01*
X169545000Y-92955000D01*
X161315685Y-92955000D01*
X160894742Y-92780209D01*
X160417353Y-92779793D01*
X159976143Y-92962097D01*
X159638283Y-93299367D01*
X159455209Y-93740258D01*
X159454793Y-94217647D01*
X159457831Y-94225000D01*
X159138590Y-94225000D01*
X159138590Y-89533590D01*
X159060567Y-89141339D01*
X158986176Y-89030006D01*
X158838374Y-88808805D01*
X153124784Y-83095216D01*
X152792251Y-82873023D01*
X152400000Y-82795000D01*
X111150685Y-82795000D01*
X110729742Y-82620209D01*
X110252353Y-82619793D01*
X109811143Y-82802097D01*
X109473283Y-83139367D01*
X109290209Y-83580258D01*
X109289793Y-84057647D01*
X109292831Y-84065000D01*
X104800685Y-84065000D01*
X104379742Y-83890209D01*
X103902353Y-83889793D01*
X103461143Y-84072097D01*
X103123283Y-84409367D01*
X102940209Y-84850258D01*
X102939793Y-85327647D01*
X102942831Y-85335000D01*
X98910000Y-85335000D01*
X98517749Y-85413023D01*
X98185215Y-85635216D01*
X98090170Y-85730261D01*
X97443431Y-85729696D01*
X96799999Y-85995557D01*
X96307287Y-86487410D01*
X96040304Y-87130376D01*
X96039696Y-87826569D01*
X96305557Y-88470001D01*
X96585125Y-88750057D01*
X96307287Y-89027410D01*
X96040304Y-89670376D01*
X96039696Y-90366569D01*
X96305557Y-91010001D01*
X96585125Y-91290057D01*
X96307287Y-91567410D01*
X96040304Y-92210376D01*
X96039696Y-92906569D01*
X96305557Y-93550001D01*
X96585125Y-93830057D01*
X96307287Y-94107410D01*
X96040304Y-94750376D01*
X96039696Y-95446569D01*
X96305557Y-96090001D01*
X96797410Y-96582713D01*
X97170460Y-96737617D01*
X97790000Y-97357157D01*
X97804142Y-97343015D01*
X98086985Y-97625858D01*
X98072843Y-97640000D01*
X98086985Y-97654142D01*
X97804142Y-97936985D01*
X97790000Y-97922843D01*
X97775858Y-97936985D01*
X97493015Y-97654142D01*
X97507157Y-97640000D01*
X96500255Y-96633098D01*
X96155042Y-96699347D01*
X95919524Y-97396622D01*
X95968768Y-98130948D01*
X96155042Y-98580653D01*
X96376451Y-98623143D01*
X96300162Y-98672234D01*
X96094664Y-98972990D01*
X96022368Y-99330000D01*
X96022368Y-101030000D01*
X96056237Y-101210000D01*
X89925000Y-101210000D01*
X89925000Y-98425000D01*
X89846977Y-98032749D01*
X89624784Y-97700216D01*
X89292251Y-97478023D01*
X88900000Y-97400000D01*
X85725000Y-97400000D01*
X85332749Y-97478023D01*
X85229144Y-97547250D01*
X85000216Y-97700215D01*
X82884150Y-99816282D01*
X82213431Y-99815696D01*
X81569999Y-100081557D01*
X81289943Y-100361125D01*
X81012590Y-100083287D01*
X80369624Y-99816304D01*
X79673431Y-99815696D01*
X79086447Y-100058233D01*
X78896454Y-99868241D01*
X78528912Y-99716000D01*
X77930000Y-99716000D01*
X77680000Y-99966000D01*
X77680000Y-101366000D01*
X77700000Y-101366000D01*
X77700000Y-101766000D01*
X77680000Y-101766000D01*
X77680000Y-101786000D01*
X77280000Y-101786000D01*
X77280000Y-101766000D01*
X75880000Y-101766000D01*
X75630000Y-102016000D01*
X75630000Y-102480000D01*
X74810620Y-102480000D01*
X74428534Y-102556001D01*
X74418369Y-102558023D01*
X74085835Y-102780216D01*
X73026051Y-103840000D01*
X56855000Y-103840000D01*
X56855000Y-101946275D01*
X64179671Y-101946275D01*
X64468319Y-102644857D01*
X65002331Y-103179802D01*
X65700409Y-103469669D01*
X66456275Y-103470329D01*
X67154857Y-103181681D01*
X67689802Y-102647669D01*
X67979669Y-101949591D01*
X67980329Y-101193725D01*
X67700749Y-100517087D01*
X75630000Y-100517087D01*
X75630000Y-101116000D01*
X75880000Y-101366000D01*
X77280000Y-101366000D01*
X77280000Y-99966000D01*
X77030000Y-99716000D01*
X76431088Y-99716000D01*
X76063546Y-99868241D01*
X75782241Y-100149545D01*
X75630000Y-100517087D01*
X67700749Y-100517087D01*
X67691681Y-100495143D01*
X67157669Y-99960198D01*
X66459591Y-99670331D01*
X65703725Y-99669671D01*
X65005143Y-99958319D01*
X64470198Y-100492331D01*
X64180331Y-101190409D01*
X64179671Y-101946275D01*
X56855000Y-101946275D01*
X56855000Y-86660000D01*
X64179703Y-86660000D01*
X64179671Y-86696275D01*
X64468319Y-87394857D01*
X65002331Y-87929802D01*
X65700409Y-88219669D01*
X66456275Y-88220329D01*
X67154857Y-87931681D01*
X67689802Y-87397669D01*
X67979669Y-86699591D01*
X67980329Y-85943725D01*
X67805250Y-85520000D01*
X75712368Y-85520000D01*
X75712368Y-87220000D01*
X75775124Y-87553520D01*
X75972234Y-87859838D01*
X76272990Y-88065336D01*
X76630000Y-88137632D01*
X78330000Y-88137632D01*
X78663520Y-88074876D01*
X78969838Y-87877766D01*
X79007450Y-87822719D01*
X79027410Y-87842713D01*
X79670376Y-88109696D01*
X80366569Y-88110304D01*
X81010001Y-87844443D01*
X81290057Y-87564875D01*
X81567410Y-87842713D01*
X82210376Y-88109696D01*
X82906569Y-88110304D01*
X83550001Y-87844443D01*
X83830057Y-87564875D01*
X84107410Y-87842713D01*
X84750376Y-88109696D01*
X85446569Y-88110304D01*
X86090001Y-87844443D01*
X86582713Y-87352590D01*
X86849696Y-86709624D01*
X86850304Y-86013431D01*
X86584443Y-85369999D01*
X86092590Y-84877287D01*
X85449624Y-84610304D01*
X84753431Y-84609696D01*
X84109999Y-84875557D01*
X83829943Y-85155125D01*
X83552590Y-84877287D01*
X82909624Y-84610304D01*
X82213431Y-84609696D01*
X81569999Y-84875557D01*
X81289943Y-85155125D01*
X81012590Y-84877287D01*
X80369624Y-84610304D01*
X79673431Y-84609696D01*
X79029999Y-84875557D01*
X79002480Y-84903028D01*
X78987766Y-84880162D01*
X78687010Y-84674664D01*
X78330000Y-84602368D01*
X76630000Y-84602368D01*
X76296480Y-84665124D01*
X75990162Y-84862234D01*
X75784664Y-85162990D01*
X75712368Y-85520000D01*
X67805250Y-85520000D01*
X67691681Y-85245143D01*
X67157669Y-84710198D01*
X66459591Y-84420331D01*
X66340000Y-84420227D01*
X66340000Y-82215000D01*
X164800000Y-82215000D01*
X164800000Y-86995000D01*
G36*
X158113590Y-96275000D02*
X163929015Y-96275000D01*
X163490630Y-96712621D01*
X163200841Y-97410511D01*
X163200181Y-98166174D01*
X163488752Y-98864569D01*
X164022621Y-99399370D01*
X164720511Y-99689159D01*
X165476174Y-99689819D01*
X166174569Y-99401248D01*
X166615000Y-98961585D01*
X166615000Y-100429015D01*
X166177379Y-99990630D01*
X165479489Y-99700841D01*
X164723826Y-99700181D01*
X164025431Y-99988752D01*
X163490630Y-100522621D01*
X163200841Y-101220511D01*
X163200181Y-101976174D01*
X163221840Y-102028592D01*
X162470216Y-102780216D01*
X162248023Y-103112749D01*
X162170000Y-103505000D01*
X162170000Y-107950000D01*
X162225705Y-108230051D01*
X162248023Y-108342251D01*
X162470216Y-108674784D01*
X163440000Y-109644569D01*
X163440000Y-123435000D01*
X162213639Y-123435000D01*
X162117471Y-123291075D01*
X162029573Y-123232343D01*
X162282437Y-123018215D01*
X162590314Y-122389994D01*
X162391125Y-122120000D01*
X160347000Y-122120000D01*
X160347000Y-122140000D01*
X159947000Y-122140000D01*
X159947000Y-122120000D01*
X157902875Y-122120000D01*
X157703686Y-122389994D01*
X158011563Y-123018215D01*
X158264427Y-123232343D01*
X158176529Y-123291075D01*
X157818180Y-123827382D01*
X157692344Y-124460000D01*
X157818180Y-125092618D01*
X158176529Y-125628925D01*
X158327798Y-125730000D01*
X158176529Y-125831075D01*
X157818180Y-126367382D01*
X157692344Y-127000000D01*
X157818180Y-127632618D01*
X158176529Y-128168925D01*
X158327798Y-128270000D01*
X158176529Y-128371075D01*
X157818180Y-128907382D01*
X157692344Y-129540000D01*
X157818180Y-130172618D01*
X158176529Y-130708925D01*
X158327798Y-130810000D01*
X158176529Y-130911075D01*
X157818180Y-131447382D01*
X157692344Y-132080000D01*
X157818180Y-132712618D01*
X158176529Y-133248925D01*
X158327798Y-133350000D01*
X158176529Y-133451075D01*
X157818180Y-133987382D01*
X157793524Y-134111336D01*
X157235000Y-133552812D01*
X157235000Y-121450006D01*
X157703686Y-121450006D01*
X157902875Y-121720000D01*
X159947000Y-121720000D01*
X159947000Y-120166890D01*
X160347000Y-120166890D01*
X160347000Y-121720000D01*
X162391125Y-121720000D01*
X162590314Y-121450006D01*
X162282437Y-120821785D01*
X161757042Y-120376874D01*
X161101380Y-120166890D01*
X160347000Y-120166890D01*
X159947000Y-120166890D01*
X159192620Y-120166890D01*
X158536958Y-120376874D01*
X158011563Y-120821785D01*
X157703686Y-121450006D01*
X157235000Y-121450006D01*
X157235000Y-108374568D01*
X157569785Y-108039784D01*
X157769536Y-107740836D01*
X157791977Y-107707251D01*
X157870000Y-107315000D01*
X157870000Y-103505000D01*
X157791977Y-103112749D01*
X157689768Y-102959784D01*
X157569785Y-102780216D01*
X156818591Y-102029022D01*
X156839159Y-101979489D01*
X156839819Y-101223826D01*
X156818160Y-101171408D01*
X157569785Y-100419784D01*
X157702979Y-100220445D01*
X157791977Y-100087251D01*
X157870000Y-99695000D01*
X157870000Y-96226547D01*
X158113590Y-96275000D01*
X158113590Y-96275000D01*
G37*
X158113590Y-96275000D02*
X163929015Y-96275000D01*
X163490630Y-96712621D01*
X163200841Y-97410511D01*
X163200181Y-98166174D01*
X163488752Y-98864569D01*
X164022621Y-99399370D01*
X164720511Y-99689159D01*
X165476174Y-99689819D01*
X166174569Y-99401248D01*
X166615000Y-98961585D01*
X166615000Y-100429015D01*
X166177379Y-99990630D01*
X165479489Y-99700841D01*
X164723826Y-99700181D01*
X164025431Y-99988752D01*
X163490630Y-100522621D01*
X163200841Y-101220511D01*
X163200181Y-101976174D01*
X163221840Y-102028592D01*
X162470216Y-102780216D01*
X162248023Y-103112749D01*
X162170000Y-103505000D01*
X162170000Y-107950000D01*
X162225705Y-108230051D01*
X162248023Y-108342251D01*
X162470216Y-108674784D01*
X163440000Y-109644569D01*
X163440000Y-123435000D01*
X162213639Y-123435000D01*
X162117471Y-123291075D01*
X162029573Y-123232343D01*
X162282437Y-123018215D01*
X162590314Y-122389994D01*
X162391125Y-122120000D01*
X160347000Y-122120000D01*
X160347000Y-122140000D01*
X159947000Y-122140000D01*
X159947000Y-122120000D01*
X157902875Y-122120000D01*
X157703686Y-122389994D01*
X158011563Y-123018215D01*
X158264427Y-123232343D01*
X158176529Y-123291075D01*
X157818180Y-123827382D01*
X157692344Y-124460000D01*
X157818180Y-125092618D01*
X158176529Y-125628925D01*
X158327798Y-125730000D01*
X158176529Y-125831075D01*
X157818180Y-126367382D01*
X157692344Y-127000000D01*
X157818180Y-127632618D01*
X158176529Y-128168925D01*
X158327798Y-128270000D01*
X158176529Y-128371075D01*
X157818180Y-128907382D01*
X157692344Y-129540000D01*
X157818180Y-130172618D01*
X158176529Y-130708925D01*
X158327798Y-130810000D01*
X158176529Y-130911075D01*
X157818180Y-131447382D01*
X157692344Y-132080000D01*
X157818180Y-132712618D01*
X158176529Y-133248925D01*
X158327798Y-133350000D01*
X158176529Y-133451075D01*
X157818180Y-133987382D01*
X157793524Y-134111336D01*
X157235000Y-133552812D01*
X157235000Y-121450006D01*
X157703686Y-121450006D01*
X157902875Y-121720000D01*
X159947000Y-121720000D01*
X159947000Y-120166890D01*
X160347000Y-120166890D01*
X160347000Y-121720000D01*
X162391125Y-121720000D01*
X162590314Y-121450006D01*
X162282437Y-120821785D01*
X161757042Y-120376874D01*
X161101380Y-120166890D01*
X160347000Y-120166890D01*
X159947000Y-120166890D01*
X159192620Y-120166890D01*
X158536958Y-120376874D01*
X158011563Y-120821785D01*
X157703686Y-121450006D01*
X157235000Y-121450006D01*
X157235000Y-108374568D01*
X157569785Y-108039784D01*
X157769536Y-107740836D01*
X157791977Y-107707251D01*
X157870000Y-107315000D01*
X157870000Y-103505000D01*
X157791977Y-103112749D01*
X157689768Y-102959784D01*
X157569785Y-102780216D01*
X156818591Y-102029022D01*
X156839159Y-101979489D01*
X156839819Y-101223826D01*
X156818160Y-101171408D01*
X157569785Y-100419784D01*
X157702979Y-100220445D01*
X157791977Y-100087251D01*
X157870000Y-99695000D01*
X157870000Y-96226547D01*
X158113590Y-96275000D01*
G36*
X128606985Y-121905858D02*
X128592843Y-121920000D01*
X128606985Y-121934142D01*
X128324142Y-122216985D01*
X128310000Y-122202843D01*
X127448537Y-123064306D01*
X127489970Y-123388934D01*
X128114529Y-123590930D01*
X128768846Y-123538542D01*
X129130030Y-123388934D01*
X129171463Y-123064309D01*
X129354005Y-123246851D01*
X129458689Y-123142167D01*
X129502234Y-123209838D01*
X129802990Y-123415336D01*
X130160000Y-123487632D01*
X131460000Y-123487632D01*
X131793520Y-123424876D01*
X131950001Y-123324184D01*
X131950000Y-125595533D01*
X131817010Y-125504664D01*
X131460000Y-125432368D01*
X130160000Y-125432368D01*
X129826480Y-125495124D01*
X129520162Y-125692234D01*
X129460463Y-125779607D01*
X129354005Y-125673149D01*
X129171463Y-125855691D01*
X129130030Y-125531066D01*
X128505471Y-125329070D01*
X127851154Y-125381458D01*
X127489970Y-125531066D01*
X127448537Y-125855694D01*
X128310000Y-126717157D01*
X128324142Y-126703015D01*
X128606985Y-126985858D01*
X128592843Y-127000000D01*
X128606985Y-127014142D01*
X128324142Y-127296985D01*
X128310000Y-127282843D01*
X128295858Y-127296985D01*
X128013015Y-127014142D01*
X128027157Y-127000000D01*
X127165694Y-126138537D01*
X126841066Y-126179970D01*
X126639070Y-126804529D01*
X126691458Y-127458846D01*
X126841066Y-127820030D01*
X127165691Y-127861463D01*
X127107960Y-127919194D01*
X126912751Y-127958023D01*
X126830883Y-128012726D01*
X126580218Y-128180215D01*
X124505433Y-130255001D01*
X123989999Y-130255001D01*
X123597748Y-130333024D01*
X123457674Y-130426619D01*
X123223305Y-130380000D01*
X123156695Y-130380000D01*
X122506133Y-130509405D01*
X122310000Y-130640457D01*
X122310000Y-127424568D01*
X126977168Y-122757401D01*
X127165694Y-122781463D01*
X128027157Y-121920000D01*
X128013015Y-121905858D01*
X128295858Y-121623015D01*
X128310000Y-121637157D01*
X128324142Y-121623015D01*
X128606985Y-121905858D01*
X128606985Y-121905858D01*
G37*
X128606985Y-121905858D02*
X128592843Y-121920000D01*
X128606985Y-121934142D01*
X128324142Y-122216985D01*
X128310000Y-122202843D01*
X127448537Y-123064306D01*
X127489970Y-123388934D01*
X128114529Y-123590930D01*
X128768846Y-123538542D01*
X129130030Y-123388934D01*
X129171463Y-123064309D01*
X129354005Y-123246851D01*
X129458689Y-123142167D01*
X129502234Y-123209838D01*
X129802990Y-123415336D01*
X130160000Y-123487632D01*
X131460000Y-123487632D01*
X131793520Y-123424876D01*
X131950001Y-123324184D01*
X131950000Y-125595533D01*
X131817010Y-125504664D01*
X131460000Y-125432368D01*
X130160000Y-125432368D01*
X129826480Y-125495124D01*
X129520162Y-125692234D01*
X129460463Y-125779607D01*
X129354005Y-125673149D01*
X129171463Y-125855691D01*
X129130030Y-125531066D01*
X128505471Y-125329070D01*
X127851154Y-125381458D01*
X127489970Y-125531066D01*
X127448537Y-125855694D01*
X128310000Y-126717157D01*
X128324142Y-126703015D01*
X128606985Y-126985858D01*
X128592843Y-127000000D01*
X128606985Y-127014142D01*
X128324142Y-127296985D01*
X128310000Y-127282843D01*
X128295858Y-127296985D01*
X128013015Y-127014142D01*
X128027157Y-127000000D01*
X127165694Y-126138537D01*
X126841066Y-126179970D01*
X126639070Y-126804529D01*
X126691458Y-127458846D01*
X126841066Y-127820030D01*
X127165691Y-127861463D01*
X127107960Y-127919194D01*
X126912751Y-127958023D01*
X126830883Y-128012726D01*
X126580218Y-128180215D01*
X124505433Y-130255001D01*
X123989999Y-130255001D01*
X123597748Y-130333024D01*
X123457674Y-130426619D01*
X123223305Y-130380000D01*
X123156695Y-130380000D01*
X122506133Y-130509405D01*
X122310000Y-130640457D01*
X122310000Y-127424568D01*
X126977168Y-122757401D01*
X127165694Y-122781463D01*
X128027157Y-121920000D01*
X128013015Y-121905858D01*
X128295858Y-121623015D01*
X128310000Y-121637157D01*
X128324142Y-121623015D01*
X128606985Y-121905858D01*
G36*
X119633283Y-98379367D02*
X119450209Y-98820258D01*
X119449793Y-99297647D01*
X119632097Y-99738857D01*
X119969367Y-100076717D01*
X120410258Y-100259791D01*
X120887647Y-100260207D01*
X121328857Y-100077903D01*
X121666717Y-99740633D01*
X121842665Y-99316903D01*
X122344569Y-98815000D01*
X147392392Y-98815000D01*
X147390209Y-98820258D01*
X147389793Y-99297647D01*
X147565000Y-99721681D01*
X147565000Y-104058734D01*
X147320000Y-104010000D01*
X146056869Y-104010000D01*
X146383900Y-103520562D01*
X146513305Y-102870000D01*
X146383900Y-102219438D01*
X146015387Y-101667918D01*
X145463867Y-101299405D01*
X144813305Y-101170000D01*
X144746695Y-101170000D01*
X144096133Y-101299405D01*
X143544613Y-101667918D01*
X143176100Y-102219438D01*
X143046695Y-102870000D01*
X143176100Y-103520562D01*
X143544613Y-104072082D01*
X143646260Y-104140000D01*
X143544613Y-104207918D01*
X143176100Y-104759438D01*
X143046695Y-105410000D01*
X143176100Y-106060562D01*
X143380000Y-106365721D01*
X143380000Y-106994279D01*
X143176100Y-107299438D01*
X143046695Y-107950000D01*
X143176100Y-108600562D01*
X143544613Y-109152082D01*
X143581676Y-109176847D01*
X143215220Y-109600334D01*
X143044457Y-110012624D01*
X143242957Y-110290000D01*
X144580000Y-110290000D01*
X144580000Y-110270000D01*
X144980000Y-110270000D01*
X144980000Y-110290000D01*
X146317043Y-110290000D01*
X146515543Y-110012624D01*
X146344780Y-109600334D01*
X145978324Y-109176847D01*
X146015387Y-109152082D01*
X146383900Y-108600562D01*
X146513305Y-107950000D01*
X146383900Y-107299438D01*
X146180000Y-106994279D01*
X146180000Y-106810000D01*
X146740102Y-106810000D01*
X151000000Y-111069899D01*
X151000000Y-115504177D01*
X150719948Y-115085050D01*
X150265756Y-114781568D01*
X149729999Y-114674999D01*
X126814898Y-114674999D01*
X119379998Y-107240100D01*
X119379998Y-104760000D01*
X122567368Y-104760000D01*
X122567368Y-106060000D01*
X122630124Y-106393520D01*
X122827234Y-106699838D01*
X123127990Y-106905336D01*
X123485000Y-106977632D01*
X124785000Y-106977632D01*
X125118520Y-106914876D01*
X125424838Y-106717766D01*
X125536525Y-106554306D01*
X126773537Y-106554306D01*
X126814970Y-106878934D01*
X127439529Y-107080930D01*
X128093846Y-107028542D01*
X128455030Y-106878934D01*
X128496463Y-106554306D01*
X127635000Y-105692843D01*
X126773537Y-106554306D01*
X125536525Y-106554306D01*
X125630336Y-106417010D01*
X125702632Y-106060000D01*
X125702632Y-105214529D01*
X125964070Y-105214529D01*
X126016458Y-105868846D01*
X126166066Y-106230030D01*
X126490694Y-106271463D01*
X127352157Y-105410000D01*
X127917843Y-105410000D01*
X128779306Y-106271463D01*
X129103934Y-106230030D01*
X129305930Y-105605471D01*
X129253542Y-104951154D01*
X129103934Y-104589970D01*
X128779306Y-104548537D01*
X127917843Y-105410000D01*
X127352157Y-105410000D01*
X126490694Y-104548537D01*
X126166066Y-104589970D01*
X125964070Y-105214529D01*
X125702632Y-105214529D01*
X125702632Y-104760000D01*
X125639876Y-104426480D01*
X125536414Y-104265694D01*
X126773537Y-104265694D01*
X127635000Y-105127157D01*
X128496463Y-104265694D01*
X128455030Y-103941066D01*
X127830471Y-103739070D01*
X127176154Y-103791458D01*
X126814970Y-103941066D01*
X126773537Y-104265694D01*
X125536414Y-104265694D01*
X125442766Y-104120162D01*
X125142010Y-103914664D01*
X124785000Y-103842368D01*
X123485000Y-103842368D01*
X123151480Y-103905124D01*
X122845162Y-104102234D01*
X122639664Y-104402990D01*
X122567368Y-104760000D01*
X119379998Y-104760000D01*
X119379998Y-102870000D01*
X135426695Y-102870000D01*
X135556100Y-103520562D01*
X135924613Y-104072082D01*
X136026260Y-104140000D01*
X135924613Y-104207918D01*
X135556100Y-104759438D01*
X135426695Y-105410000D01*
X135556100Y-106060562D01*
X135760000Y-106365721D01*
X135760000Y-106994279D01*
X135556100Y-107299438D01*
X135426695Y-107950000D01*
X135556100Y-108600562D01*
X135760000Y-108905721D01*
X135760000Y-109534279D01*
X135556100Y-109839438D01*
X135426695Y-110490000D01*
X135556100Y-111140562D01*
X135924613Y-111692082D01*
X136476133Y-112060595D01*
X137126695Y-112190000D01*
X137193305Y-112190000D01*
X137843867Y-112060595D01*
X138395387Y-111692082D01*
X138763900Y-111140562D01*
X138798348Y-110967376D01*
X143044457Y-110967376D01*
X143215220Y-111379666D01*
X143674792Y-111910760D01*
X144302622Y-112225556D01*
X144580000Y-112028867D01*
X144580000Y-110690000D01*
X144980000Y-110690000D01*
X144980000Y-112028867D01*
X145257378Y-112225556D01*
X145885208Y-111910760D01*
X146344780Y-111379666D01*
X146515543Y-110967376D01*
X146317043Y-110690000D01*
X144980000Y-110690000D01*
X144580000Y-110690000D01*
X143242957Y-110690000D01*
X143044457Y-110967376D01*
X138798348Y-110967376D01*
X138893305Y-110490000D01*
X138763900Y-109839438D01*
X138560000Y-109534279D01*
X138560000Y-108905721D01*
X138763900Y-108600562D01*
X138893305Y-107950000D01*
X138763900Y-107299438D01*
X138560000Y-106994279D01*
X138560000Y-106365721D01*
X138763900Y-106060562D01*
X138893305Y-105410000D01*
X138763900Y-104759438D01*
X138395387Y-104207918D01*
X138293740Y-104140000D01*
X138395387Y-104072082D01*
X138763900Y-103520562D01*
X138893305Y-102870000D01*
X138763900Y-102219438D01*
X138395387Y-101667918D01*
X137843867Y-101299405D01*
X137193305Y-101170000D01*
X137126695Y-101170000D01*
X136476133Y-101299405D01*
X135924613Y-101667918D01*
X135556100Y-102219438D01*
X135426695Y-102870000D01*
X119379998Y-102870000D01*
X119379998Y-101637002D01*
X119273429Y-101101245D01*
X119016017Y-100716001D01*
X118969948Y-100647053D01*
X117792946Y-99470052D01*
X117687163Y-99399370D01*
X117338754Y-99166570D01*
X116802997Y-99060001D01*
X109185740Y-99060001D01*
X109185740Y-99060000D01*
X109150156Y-98881105D01*
X109150207Y-98822353D01*
X109127574Y-98767576D01*
X109107717Y-98667749D01*
X109051664Y-98583860D01*
X108967903Y-98381143D01*
X108767111Y-98180000D01*
X119832999Y-98180000D01*
X119633283Y-98379367D01*
X119633283Y-98379367D01*
G37*
X119633283Y-98379367D02*
X119450209Y-98820258D01*
X119449793Y-99297647D01*
X119632097Y-99738857D01*
X119969367Y-100076717D01*
X120410258Y-100259791D01*
X120887647Y-100260207D01*
X121328857Y-100077903D01*
X121666717Y-99740633D01*
X121842665Y-99316903D01*
X122344569Y-98815000D01*
X147392392Y-98815000D01*
X147390209Y-98820258D01*
X147389793Y-99297647D01*
X147565000Y-99721681D01*
X147565000Y-104058734D01*
X147320000Y-104010000D01*
X146056869Y-104010000D01*
X146383900Y-103520562D01*
X146513305Y-102870000D01*
X146383900Y-102219438D01*
X146015387Y-101667918D01*
X145463867Y-101299405D01*
X144813305Y-101170000D01*
X144746695Y-101170000D01*
X144096133Y-101299405D01*
X143544613Y-101667918D01*
X143176100Y-102219438D01*
X143046695Y-102870000D01*
X143176100Y-103520562D01*
X143544613Y-104072082D01*
X143646260Y-104140000D01*
X143544613Y-104207918D01*
X143176100Y-104759438D01*
X143046695Y-105410000D01*
X143176100Y-106060562D01*
X143380000Y-106365721D01*
X143380000Y-106994279D01*
X143176100Y-107299438D01*
X143046695Y-107950000D01*
X143176100Y-108600562D01*
X143544613Y-109152082D01*
X143581676Y-109176847D01*
X143215220Y-109600334D01*
X143044457Y-110012624D01*
X143242957Y-110290000D01*
X144580000Y-110290000D01*
X144580000Y-110270000D01*
X144980000Y-110270000D01*
X144980000Y-110290000D01*
X146317043Y-110290000D01*
X146515543Y-110012624D01*
X146344780Y-109600334D01*
X145978324Y-109176847D01*
X146015387Y-109152082D01*
X146383900Y-108600562D01*
X146513305Y-107950000D01*
X146383900Y-107299438D01*
X146180000Y-106994279D01*
X146180000Y-106810000D01*
X146740102Y-106810000D01*
X151000000Y-111069899D01*
X151000000Y-115504177D01*
X150719948Y-115085050D01*
X150265756Y-114781568D01*
X149729999Y-114674999D01*
X126814898Y-114674999D01*
X119379998Y-107240100D01*
X119379998Y-104760000D01*
X122567368Y-104760000D01*
X122567368Y-106060000D01*
X122630124Y-106393520D01*
X122827234Y-106699838D01*
X123127990Y-106905336D01*
X123485000Y-106977632D01*
X124785000Y-106977632D01*
X125118520Y-106914876D01*
X125424838Y-106717766D01*
X125536525Y-106554306D01*
X126773537Y-106554306D01*
X126814970Y-106878934D01*
X127439529Y-107080930D01*
X128093846Y-107028542D01*
X128455030Y-106878934D01*
X128496463Y-106554306D01*
X127635000Y-105692843D01*
X126773537Y-106554306D01*
X125536525Y-106554306D01*
X125630336Y-106417010D01*
X125702632Y-106060000D01*
X125702632Y-105214529D01*
X125964070Y-105214529D01*
X126016458Y-105868846D01*
X126166066Y-106230030D01*
X126490694Y-106271463D01*
X127352157Y-105410000D01*
X127917843Y-105410000D01*
X128779306Y-106271463D01*
X129103934Y-106230030D01*
X129305930Y-105605471D01*
X129253542Y-104951154D01*
X129103934Y-104589970D01*
X128779306Y-104548537D01*
X127917843Y-105410000D01*
X127352157Y-105410000D01*
X126490694Y-104548537D01*
X126166066Y-104589970D01*
X125964070Y-105214529D01*
X125702632Y-105214529D01*
X125702632Y-104760000D01*
X125639876Y-104426480D01*
X125536414Y-104265694D01*
X126773537Y-104265694D01*
X127635000Y-105127157D01*
X128496463Y-104265694D01*
X128455030Y-103941066D01*
X127830471Y-103739070D01*
X127176154Y-103791458D01*
X126814970Y-103941066D01*
X126773537Y-104265694D01*
X125536414Y-104265694D01*
X125442766Y-104120162D01*
X125142010Y-103914664D01*
X124785000Y-103842368D01*
X123485000Y-103842368D01*
X123151480Y-103905124D01*
X122845162Y-104102234D01*
X122639664Y-104402990D01*
X122567368Y-104760000D01*
X119379998Y-104760000D01*
X119379998Y-102870000D01*
X135426695Y-102870000D01*
X135556100Y-103520562D01*
X135924613Y-104072082D01*
X136026260Y-104140000D01*
X135924613Y-104207918D01*
X135556100Y-104759438D01*
X135426695Y-105410000D01*
X135556100Y-106060562D01*
X135760000Y-106365721D01*
X135760000Y-106994279D01*
X135556100Y-107299438D01*
X135426695Y-107950000D01*
X135556100Y-108600562D01*
X135760000Y-108905721D01*
X135760000Y-109534279D01*
X135556100Y-109839438D01*
X135426695Y-110490000D01*
X135556100Y-111140562D01*
X135924613Y-111692082D01*
X136476133Y-112060595D01*
X137126695Y-112190000D01*
X137193305Y-112190000D01*
X137843867Y-112060595D01*
X138395387Y-111692082D01*
X138763900Y-111140562D01*
X138798348Y-110967376D01*
X143044457Y-110967376D01*
X143215220Y-111379666D01*
X143674792Y-111910760D01*
X144302622Y-112225556D01*
X144580000Y-112028867D01*
X144580000Y-110690000D01*
X144980000Y-110690000D01*
X144980000Y-112028867D01*
X145257378Y-112225556D01*
X145885208Y-111910760D01*
X146344780Y-111379666D01*
X146515543Y-110967376D01*
X146317043Y-110690000D01*
X144980000Y-110690000D01*
X144580000Y-110690000D01*
X143242957Y-110690000D01*
X143044457Y-110967376D01*
X138798348Y-110967376D01*
X138893305Y-110490000D01*
X138763900Y-109839438D01*
X138560000Y-109534279D01*
X138560000Y-108905721D01*
X138763900Y-108600562D01*
X138893305Y-107950000D01*
X138763900Y-107299438D01*
X138560000Y-106994279D01*
X138560000Y-106365721D01*
X138763900Y-106060562D01*
X138893305Y-105410000D01*
X138763900Y-104759438D01*
X138395387Y-104207918D01*
X138293740Y-104140000D01*
X138395387Y-104072082D01*
X138763900Y-103520562D01*
X138893305Y-102870000D01*
X138763900Y-102219438D01*
X138395387Y-101667918D01*
X137843867Y-101299405D01*
X137193305Y-101170000D01*
X137126695Y-101170000D01*
X136476133Y-101299405D01*
X135924613Y-101667918D01*
X135556100Y-102219438D01*
X135426695Y-102870000D01*
X119379998Y-102870000D01*
X119379998Y-101637002D01*
X119273429Y-101101245D01*
X119016017Y-100716001D01*
X118969948Y-100647053D01*
X117792946Y-99470052D01*
X117687163Y-99399370D01*
X117338754Y-99166570D01*
X116802997Y-99060001D01*
X109185740Y-99060001D01*
X109185740Y-99060000D01*
X109150156Y-98881105D01*
X109150207Y-98822353D01*
X109127574Y-98767576D01*
X109107717Y-98667749D01*
X109051664Y-98583860D01*
X108967903Y-98381143D01*
X108767111Y-98180000D01*
X119832999Y-98180000D01*
X119633283Y-98379367D01*
G36*
X100835000Y-87630006D02*
X100941569Y-88165763D01*
X101245051Y-88619955D01*
X101699243Y-88923437D01*
X102235000Y-89030006D01*
X102255088Y-89030006D01*
X104385031Y-91159950D01*
X104597394Y-91301846D01*
X104839223Y-91463431D01*
X105374980Y-91570000D01*
X121502180Y-91570000D01*
X121428000Y-91749087D01*
X121428000Y-92260000D01*
X121678000Y-92510000D01*
X122990000Y-92510000D01*
X122990000Y-92490000D01*
X123390000Y-92490000D01*
X123390000Y-92510000D01*
X123410000Y-92510000D01*
X123410000Y-92910000D01*
X123390000Y-92910000D01*
X123390000Y-94222000D01*
X123640000Y-94472000D01*
X124150912Y-94472000D01*
X124518454Y-94319759D01*
X124753721Y-94084493D01*
X124787323Y-94118154D01*
X125397957Y-94371711D01*
X126059142Y-94372288D01*
X126670218Y-94119797D01*
X127000165Y-93790425D01*
X127327323Y-94118154D01*
X127937957Y-94371711D01*
X128599142Y-94372288D01*
X129210218Y-94119797D01*
X129540165Y-93790425D01*
X129867323Y-94118154D01*
X130477957Y-94371711D01*
X131139142Y-94372288D01*
X131750218Y-94119797D01*
X132218154Y-93652677D01*
X132471711Y-93042043D01*
X132472288Y-92380858D01*
X132219797Y-91769782D01*
X131752677Y-91301846D01*
X131495363Y-91195000D01*
X134620000Y-91195000D01*
X135012251Y-91116977D01*
X135344784Y-90894784D01*
X135519001Y-90634052D01*
X135556100Y-90820562D01*
X135924613Y-91372082D01*
X136026260Y-91440000D01*
X135924613Y-91507918D01*
X135556100Y-92059438D01*
X135426695Y-92710000D01*
X135556100Y-93360562D01*
X135924613Y-93912082D01*
X136026260Y-93980000D01*
X135924613Y-94047918D01*
X135556100Y-94599438D01*
X135426695Y-95250000D01*
X135556100Y-95900562D01*
X135709405Y-96130000D01*
X104165685Y-96130000D01*
X103744742Y-95955209D01*
X103267353Y-95954793D01*
X102826143Y-96137097D01*
X102488283Y-96474367D01*
X102305209Y-96915258D01*
X102304793Y-97392647D01*
X102487097Y-97833857D01*
X102687889Y-98035000D01*
X102174569Y-98035000D01*
X99539739Y-95400171D01*
X99540304Y-94753431D01*
X99274443Y-94109999D01*
X98994875Y-93829943D01*
X99272713Y-93552590D01*
X99435730Y-93160000D01*
X121428000Y-93160000D01*
X121428000Y-93670913D01*
X121580241Y-94038455D01*
X121861546Y-94319759D01*
X122229088Y-94472000D01*
X122740000Y-94472000D01*
X122990000Y-94222000D01*
X122990000Y-92910000D01*
X121678000Y-92910000D01*
X121428000Y-93160000D01*
X99435730Y-93160000D01*
X99539696Y-92909624D01*
X99540304Y-92213431D01*
X99274443Y-91569999D01*
X98994875Y-91289943D01*
X99272713Y-91012590D01*
X99539696Y-90369624D01*
X99540304Y-89673431D01*
X99274443Y-89029999D01*
X98994875Y-88749943D01*
X99272713Y-88472590D01*
X99539696Y-87829624D01*
X99540084Y-87385000D01*
X100883735Y-87385000D01*
X100835000Y-87630006D01*
X100835000Y-87630006D01*
G37*
X100835000Y-87630006D02*
X100941569Y-88165763D01*
X101245051Y-88619955D01*
X101699243Y-88923437D01*
X102235000Y-89030006D01*
X102255088Y-89030006D01*
X104385031Y-91159950D01*
X104597394Y-91301846D01*
X104839223Y-91463431D01*
X105374980Y-91570000D01*
X121502180Y-91570000D01*
X121428000Y-91749087D01*
X121428000Y-92260000D01*
X121678000Y-92510000D01*
X122990000Y-92510000D01*
X122990000Y-92490000D01*
X123390000Y-92490000D01*
X123390000Y-92510000D01*
X123410000Y-92510000D01*
X123410000Y-92910000D01*
X123390000Y-92910000D01*
X123390000Y-94222000D01*
X123640000Y-94472000D01*
X124150912Y-94472000D01*
X124518454Y-94319759D01*
X124753721Y-94084493D01*
X124787323Y-94118154D01*
X125397957Y-94371711D01*
X126059142Y-94372288D01*
X126670218Y-94119797D01*
X127000165Y-93790425D01*
X127327323Y-94118154D01*
X127937957Y-94371711D01*
X128599142Y-94372288D01*
X129210218Y-94119797D01*
X129540165Y-93790425D01*
X129867323Y-94118154D01*
X130477957Y-94371711D01*
X131139142Y-94372288D01*
X131750218Y-94119797D01*
X132218154Y-93652677D01*
X132471711Y-93042043D01*
X132472288Y-92380858D01*
X132219797Y-91769782D01*
X131752677Y-91301846D01*
X131495363Y-91195000D01*
X134620000Y-91195000D01*
X135012251Y-91116977D01*
X135344784Y-90894784D01*
X135519001Y-90634052D01*
X135556100Y-90820562D01*
X135924613Y-91372082D01*
X136026260Y-91440000D01*
X135924613Y-91507918D01*
X135556100Y-92059438D01*
X135426695Y-92710000D01*
X135556100Y-93360562D01*
X135924613Y-93912082D01*
X136026260Y-93980000D01*
X135924613Y-94047918D01*
X135556100Y-94599438D01*
X135426695Y-95250000D01*
X135556100Y-95900562D01*
X135709405Y-96130000D01*
X104165685Y-96130000D01*
X103744742Y-95955209D01*
X103267353Y-95954793D01*
X102826143Y-96137097D01*
X102488283Y-96474367D01*
X102305209Y-96915258D01*
X102304793Y-97392647D01*
X102487097Y-97833857D01*
X102687889Y-98035000D01*
X102174569Y-98035000D01*
X99539739Y-95400171D01*
X99540304Y-94753431D01*
X99274443Y-94109999D01*
X98994875Y-93829943D01*
X99272713Y-93552590D01*
X99435730Y-93160000D01*
X121428000Y-93160000D01*
X121428000Y-93670913D01*
X121580241Y-94038455D01*
X121861546Y-94319759D01*
X122229088Y-94472000D01*
X122740000Y-94472000D01*
X122990000Y-94222000D01*
X122990000Y-92910000D01*
X121678000Y-92910000D01*
X121428000Y-93160000D01*
X99435730Y-93160000D01*
X99539696Y-92909624D01*
X99540304Y-92213431D01*
X99274443Y-91569999D01*
X98994875Y-91289943D01*
X99272713Y-91012590D01*
X99539696Y-90369624D01*
X99540304Y-89673431D01*
X99274443Y-89029999D01*
X98994875Y-88749943D01*
X99272713Y-88472590D01*
X99539696Y-87829624D01*
X99540084Y-87385000D01*
X100883735Y-87385000D01*
X100835000Y-87630006D01*
M02*
