M48
;DRILL file {KiCad 4.0.4+e1-6308~48~ubuntu14.04.1-stable} date Tue Oct 18 21:05:20 2016
;FORMAT={-:-/ absolute / inch / decimal}
FMAT,2
INCH,TZ
T1C0.016
T2C0.020
T3C0.028
T4C0.031
T5C0.032
T6C0.035
T7C0.039
T8C0.039
T9C0.045
T10C0.047
%
G90
G05
M72
T1
X3.025Y-5.375
X3.35Y-5.15
X3.5Y-5.15
X3.975Y-3.775
X4.025Y-3.45
X4.075Y-3.825
X4.075Y-4.025
X4.1Y-3.35
X4.25Y-3.9
X4.35Y-3.3
X4.4964Y-4.1131
X4.5Y-4.025
X4.5715Y-4.2285
X4.75Y-3.9
X4.9766Y-4.725
X5.125Y-4.65
X5.4Y-4.675
X5.475Y-3.725
X5.525Y-3.825
X5.85Y-3.75
X5.85Y-3.9
X6.1Y-3.7
X6.325Y-3.7
X6.775Y-4.8
T2
X4.85Y-3.65
X4.95Y-3.65
X5.05Y-3.65
X5.15Y-3.65
T3
X2.5Y-4.7001
X2.5Y-4.8501
X2.5Y-5.0001
X2.9Y-4.7001
X2.9Y-4.8501
X2.9Y-5.0001
X4.75Y-5.6999
X5.15Y-5.6999
X5.35Y-4.9501
X5.35Y-5.5501
X5.75Y-4.9501
X5.75Y-5.5501
T4
X3.35Y-4.2516
X3.35Y-4.35
X3.6Y-5.45
X3.6Y-5.55
X3.6Y-5.65
X3.9Y-5.45
X3.9Y-5.55
X3.9Y-5.65
X4.85Y-5.2
X4.85Y-5.3
X4.85Y-5.4
X4.85Y-5.5
X4.8872Y-4.15
X5.025Y-4.15
X5.15Y-4.8
X5.15Y-5.
X5.15Y-5.2
X5.15Y-5.3
X5.15Y-5.4
X5.15Y-5.5
X5.4Y-3.55
X5.4Y-3.65
X5.4Y-3.75
X5.4Y-4.05
X5.4Y-4.15
X5.4Y-4.25
X5.4Y-4.35
X5.7Y-3.55
X5.7Y-3.65
X5.7Y-3.75
X5.7Y-4.05
X5.7Y-4.15
X5.7Y-4.25
X5.7Y-4.35
T5
X5.0516Y-4.8
X5.0516Y-5.
T6
X2.7031Y-5.45
X2.9Y-5.45
T7
X2.425Y-4.3
X2.525Y-4.3
X2.75Y-4.3
X2.85Y-4.3
X2.95Y-4.3
X3.05Y-4.3
X3.325Y-5.3
X3.425Y-5.3
X6.305Y-4.8
X6.305Y-4.9
X6.305Y-5.
X6.305Y-5.1
X6.305Y-5.2
X6.305Y-5.3
X6.305Y-5.4
X6.305Y-5.5
X6.305Y-5.6
X6.305Y-5.7
T8
X2.5Y-5.15
X2.5Y-5.3
X2.9Y-5.15
X2.9Y-5.3
X4.1Y-5.7
X4.5Y-5.7
X5.35Y-4.8
X5.35Y-5.1
X5.35Y-5.25
X5.35Y-5.4
X5.35Y-5.7
X5.75Y-4.8
X5.75Y-5.1
X5.75Y-5.25
X5.75Y-5.4
X5.75Y-5.7
X6.1Y-3.85
X6.1Y-4.
X6.1Y-4.15
X6.5Y-3.85
X6.5Y-4.
X6.5Y-4.15
T9
X4.425Y-5.05
X4.425Y-5.15
X4.425Y-5.25
T10
X3.0504Y-3.4004
X3.0504Y-3.9987
X3.1504Y-3.4
X3.1504Y-3.9987
X3.2504Y-3.4
X3.2504Y-3.9987
X3.35Y-3.9987
X3.3504Y-3.4
X3.85Y-3.4441
X3.85Y-3.5441
X3.85Y-3.6441
X3.85Y-3.7441
X3.85Y-3.8441
X3.85Y-3.9441
T0
M30
