G04 #@! TF.FileFunction,Copper,L2,Bot,Signal*
%FSLAX46Y46*%
G04 Gerber Fmt 4.6, Leading zero omitted, Abs format (unit mm)*
G04 Created by KiCad (PCBNEW 4.0.6-e0-6349~53~ubuntu16.04.1) date Mon Jul  3 21:18:37 2017*
%MOMM*%
%LPD*%
G01*
G04 APERTURE LIST*
%ADD10C,0.100000*%
%ADD11R,1.600000X1.600000*%
%ADD12C,1.600000*%
%ADD13R,1.700000X1.700000*%
%ADD14O,1.800860X3.500120*%
%ADD15O,1.510000X3.010000*%
%ADD16C,1.700000*%
%ADD17R,1.524000X1.524000*%
%ADD18C,1.524000*%
%ADD19C,2.500000*%
%ADD20C,1.000000*%
%ADD21C,0.600000*%
%ADD22C,0.290000*%
%ADD23C,1.000000*%
%ADD24C,0.450000*%
G04 APERTURE END LIST*
D10*
D11*
X143764000Y-96774000D03*
D12*
X140264000Y-96774000D03*
X112014000Y-141224000D03*
X117014000Y-141224000D03*
D13*
X122682000Y-143510000D03*
X152654000Y-143510000D03*
X139446000Y-143510000D03*
D12*
X112014000Y-135128000D03*
X117014000Y-135128000D03*
D14*
X90932000Y-124460000D03*
X88392000Y-124460000D03*
D15*
X113030000Y-117602000D03*
X110490000Y-117602000D03*
D16*
X85100000Y-86360000D03*
X85090000Y-101566000D03*
X82560000Y-86360000D03*
X80020000Y-86360000D03*
D13*
X77480000Y-86370000D03*
D16*
X82560000Y-101566000D03*
X80020000Y-101566000D03*
D13*
X77480000Y-101566000D03*
D16*
X97790000Y-87480000D03*
X97790000Y-90020000D03*
X97790000Y-92560000D03*
X97790000Y-95100000D03*
X97790000Y-97640000D03*
D13*
X97790000Y-100180000D03*
D17*
X124968000Y-92964000D03*
D18*
X127508000Y-92964000D03*
X130048000Y-92964000D03*
X132588000Y-92964000D03*
D19*
X61214000Y-127000000D03*
X78994000Y-127000000D03*
X78994000Y-117094000D03*
X61214000Y-143256000D03*
X78994000Y-143256000D03*
X78994000Y-133350000D03*
D12*
X65800000Y-110000000D03*
X63500000Y-112500000D03*
X65500000Y-105900000D03*
D19*
X161036000Y-131064000D03*
X157226000Y-131064000D03*
X153416000Y-131064000D03*
D17*
X124841000Y-101219000D03*
D18*
X127381000Y-101219000D03*
X129921000Y-101219000D03*
X132461000Y-101219000D03*
X164084000Y-106934000D03*
X169164000Y-106934000D03*
X164084000Y-104394000D03*
X164084000Y-101854000D03*
X169164000Y-101854000D03*
X170434000Y-90932000D03*
X167894000Y-90932000D03*
X165354000Y-90932000D03*
X165354000Y-88392000D03*
X167894000Y-88392000D03*
X170434000Y-88392000D03*
D12*
X112014000Y-129032000D03*
X117014000Y-129032000D03*
D13*
X146050000Y-143510000D03*
X159258000Y-143510000D03*
X129286000Y-143510000D03*
D20*
X143659100Y-121666000D03*
X101454500Y-100709600D03*
X101051900Y-118827300D03*
X115769800Y-103616700D03*
X88248700Y-141358400D03*
X155795800Y-94589300D03*
X161822100Y-120919800D03*
X164019400Y-113127200D03*
X158477900Y-114535000D03*
X151601900Y-122691700D03*
X146050000Y-104995100D03*
D21*
X124841000Y-94433300D02*
X124968000Y-94306300D01*
X124841000Y-101219000D02*
X124841000Y-94433300D01*
X124968000Y-92964000D02*
X124968000Y-94306300D01*
X124841000Y-101219000D02*
X123498700Y-101219000D01*
X95328500Y-100101500D02*
X97790000Y-97640000D01*
X140264000Y-121666000D02*
X140264000Y-96774000D01*
X139446000Y-122484000D02*
X140264000Y-121666000D01*
X139446000Y-143510000D02*
X139446000Y-122484000D01*
X140264000Y-121666000D02*
X143659100Y-121666000D01*
X103925100Y-101219000D02*
X123498700Y-101219000D01*
X102658900Y-102485200D02*
X103925100Y-101219000D01*
X97517900Y-102485200D02*
X102658900Y-102485200D01*
X95328500Y-100295800D02*
X97517900Y-102485200D01*
X95328500Y-100101500D02*
X95328500Y-100295800D01*
X78944500Y-100101500D02*
X77480000Y-101566000D01*
X95328500Y-100101500D02*
X78944500Y-100101500D01*
X65294500Y-112500000D02*
X63500000Y-112500000D01*
X76049700Y-101744800D02*
X65294500Y-112500000D01*
X76049700Y-101566000D02*
X76049700Y-101744800D01*
X77480000Y-101566000D02*
X76049700Y-101566000D01*
D22*
X101454500Y-98764500D02*
X101454500Y-100709600D01*
X97790000Y-95100000D02*
X101454500Y-98764500D01*
D23*
X117014000Y-129032000D02*
X117014000Y-135128000D01*
X117014000Y-135128000D02*
X117014000Y-141224000D01*
X108716900Y-118827300D02*
X101051900Y-118827300D01*
X108716900Y-120734900D02*
X108716900Y-118827300D01*
X117014000Y-129032000D02*
X108716900Y-120734900D01*
X116196400Y-114943600D02*
X129921000Y-101219000D01*
X109879800Y-114943600D02*
X116196400Y-114943600D01*
X108716900Y-116106500D02*
X109879800Y-114943600D01*
X108716900Y-118827300D02*
X108716900Y-116106500D01*
D24*
X71120000Y-133350000D02*
X78994000Y-133350000D01*
X61214000Y-143256000D02*
X71120000Y-133350000D01*
X85248400Y-133350000D02*
X78994000Y-133350000D01*
X93018000Y-125580400D02*
X85248400Y-133350000D01*
X93018000Y-124821100D02*
X93018000Y-125580400D01*
X99131300Y-118707800D02*
X93018000Y-124821100D01*
X99131300Y-118031800D02*
X99131300Y-118707800D01*
X100256400Y-116906700D02*
X99131300Y-118031800D01*
X100932400Y-116906700D02*
X100256400Y-116906700D01*
X115195400Y-102643700D02*
X100932400Y-116906700D01*
X125656300Y-102643700D02*
X115195400Y-102643700D01*
X126108300Y-102191700D02*
X125656300Y-102643700D01*
X126108300Y-98084100D02*
X126108300Y-102191700D01*
X126235400Y-97957000D02*
X126108300Y-98084100D01*
X126235400Y-92412000D02*
X126235400Y-97957000D01*
X126984700Y-91662700D02*
X126235400Y-92412000D01*
X131286700Y-91662700D02*
X126984700Y-91662700D01*
X132588000Y-92964000D02*
X131286700Y-91662700D01*
X97897500Y-131709600D02*
X88248700Y-141358400D01*
X97897500Y-120946600D02*
X97897500Y-131709600D01*
X99826600Y-119017500D02*
X97897500Y-120946600D01*
X99826600Y-118319800D02*
X99826600Y-119017500D01*
X100544400Y-117602000D02*
X99826600Y-118319800D01*
X101242100Y-117602000D02*
X100544400Y-117602000D01*
X115227400Y-103616700D02*
X101242100Y-117602000D01*
X115769800Y-103616700D02*
X115227400Y-103616700D01*
X97790000Y-100180000D02*
X99110300Y-100180000D01*
X157226000Y-107905400D02*
X157226000Y-131064000D01*
X140287900Y-90967300D02*
X157226000Y-107905400D01*
X113037900Y-90967300D02*
X140287900Y-90967300D01*
X102325300Y-101679900D02*
X113037900Y-90967300D01*
X100610200Y-101679900D02*
X102325300Y-101679900D01*
X99110300Y-100180000D02*
X100610200Y-101679900D01*
D23*
X116078000Y-117602000D02*
X113030000Y-117602000D01*
X132461000Y-101219000D02*
X116078000Y-117602000D01*
X112014000Y-135128000D02*
X112014000Y-129032000D01*
X112014000Y-141224000D02*
X112014000Y-135128000D01*
D24*
X100095500Y-90254500D02*
X97790000Y-92560000D01*
X152844300Y-90254500D02*
X100095500Y-90254500D01*
X164084000Y-101494200D02*
X152844300Y-90254500D01*
X164084000Y-101854000D02*
X164084000Y-101494200D01*
X160851800Y-99645300D02*
X155795800Y-94589300D01*
X160851800Y-130879800D02*
X160851800Y-99645300D01*
X161036000Y-131064000D02*
X160851800Y-130879800D01*
D22*
X164019400Y-118722500D02*
X161822100Y-120919800D01*
X164019400Y-113127200D02*
X164019400Y-118722500D01*
D24*
X159258000Y-115315100D02*
X159258000Y-143510000D01*
X158477900Y-114535000D02*
X159258000Y-115315100D01*
D21*
X127381000Y-97950400D02*
X127381000Y-101219000D01*
X129937700Y-95393700D02*
X127381000Y-97950400D01*
X127508000Y-92964000D02*
X129937700Y-95393700D01*
X141003400Y-95393700D02*
X142383700Y-96774000D01*
X129937700Y-95393700D02*
X141003400Y-95393700D01*
X143073900Y-96774000D02*
X142383700Y-96774000D01*
X143073900Y-96774000D02*
X143764000Y-96774000D01*
X151601900Y-122691700D02*
X146050000Y-122691700D01*
X146050000Y-122691700D02*
X146050000Y-143510000D01*
X143764000Y-96774000D02*
X143764000Y-98154300D01*
X146050000Y-100440300D02*
X146050000Y-104995100D01*
X143764000Y-98154300D02*
X146050000Y-100440300D01*
X146050000Y-104995100D02*
X146050000Y-122691700D01*
M02*
