G04 #@! TF.FileFunction,Soldermask,Top*
%FSLAX46Y46*%
G04 Gerber Fmt 4.6, Leading zero omitted, Abs format (unit mm)*
G04 Created by KiCad (PCBNEW 4.0.6-e0-6349~53~ubuntu16.04.1) date Mon Jul  3 21:18:37 2017*
%MOMM*%
%LPD*%
G01*
G04 APERTURE LIST*
%ADD10C,0.100000*%
%ADD11C,2.000000*%
%ADD12R,2.800000X2.100000*%
%ADD13R,2.800000X2.600000*%
%ADD14R,1.900000X1.900000*%
%ADD15C,1.900000*%
%ADD16R,0.950000X0.700000*%
%ADD17R,1.700000X0.600000*%
%ADD18R,2.090000X3.730000*%
%ADD19R,1.200000X2.000000*%
%ADD20R,1.200000X1.500000*%
%ADD21R,1.300000X1.550000*%
%ADD22R,1.300000X3.500000*%
%ADD23C,2.800000*%
%ADD24R,2.000000X2.000000*%
%ADD25O,2.100860X3.800120*%
%ADD26O,1.810000X3.310000*%
%ADD27C,2.300000*%
%ADD28R,1.824000X1.824000*%
%ADD29C,1.824000*%
%ADD30C,3.550000*%
%ADD31R,2.000000X1.200000*%
%ADD32C,2.100000*%
%ADD33R,1.360000X0.950000*%
%ADD34R,4.900000X1.400000*%
%ADD35R,9.700000X11.100000*%
%ADD36R,1.950000X0.950000*%
G04 APERTURE END LIST*
D10*
D11*
X168148000Y-139000000D03*
D10*
G36*
X167573000Y-137732500D02*
X167513000Y-137487500D01*
X168783000Y-137487500D01*
X168723000Y-137732500D01*
X167573000Y-137732500D01*
X167573000Y-137732500D01*
G37*
G36*
X166845156Y-138510329D02*
X166629489Y-138379514D01*
X167527514Y-137481489D01*
X167658329Y-137697156D01*
X166845156Y-138510329D01*
X166845156Y-138510329D01*
G37*
G36*
X166880500Y-139575000D02*
X166635500Y-139635000D01*
X166635500Y-138365000D01*
X166880500Y-138425000D01*
X166880500Y-139575000D01*
X166880500Y-139575000D01*
G37*
G36*
X167658329Y-140302844D02*
X167527514Y-140518511D01*
X166629489Y-139620486D01*
X166845156Y-139489671D01*
X167658329Y-140302844D01*
X167658329Y-140302844D01*
G37*
G36*
X168723000Y-140267500D02*
X168783000Y-140512500D01*
X167513000Y-140512500D01*
X167573000Y-140267500D01*
X168723000Y-140267500D01*
X168723000Y-140267500D01*
G37*
G36*
X169450844Y-139489671D02*
X169666511Y-139620486D01*
X168768486Y-140518511D01*
X168637671Y-140302844D01*
X169450844Y-139489671D01*
X169450844Y-139489671D01*
G37*
G36*
X169415500Y-138425000D02*
X169660500Y-138365000D01*
X169660500Y-139635000D01*
X169415500Y-139575000D01*
X169415500Y-138425000D01*
X169415500Y-138425000D01*
G37*
G36*
X168637671Y-137697156D02*
X168768486Y-137481489D01*
X169666511Y-138379514D01*
X169450844Y-138510329D01*
X168637671Y-137697156D01*
X168637671Y-137697156D01*
G37*
D11*
X68000000Y-94000000D03*
D10*
G36*
X67425000Y-92732500D02*
X67365000Y-92487500D01*
X68635000Y-92487500D01*
X68575000Y-92732500D01*
X67425000Y-92732500D01*
X67425000Y-92732500D01*
G37*
G36*
X66697156Y-93510329D02*
X66481489Y-93379514D01*
X67379514Y-92481489D01*
X67510329Y-92697156D01*
X66697156Y-93510329D01*
X66697156Y-93510329D01*
G37*
G36*
X66732500Y-94575000D02*
X66487500Y-94635000D01*
X66487500Y-93365000D01*
X66732500Y-93425000D01*
X66732500Y-94575000D01*
X66732500Y-94575000D01*
G37*
G36*
X67510329Y-95302844D02*
X67379514Y-95518511D01*
X66481489Y-94620486D01*
X66697156Y-94489671D01*
X67510329Y-95302844D01*
X67510329Y-95302844D01*
G37*
G36*
X68575000Y-95267500D02*
X68635000Y-95512500D01*
X67365000Y-95512500D01*
X67425000Y-95267500D01*
X68575000Y-95267500D01*
X68575000Y-95267500D01*
G37*
G36*
X69302844Y-94489671D02*
X69518511Y-94620486D01*
X68620486Y-95518511D01*
X68489671Y-95302844D01*
X69302844Y-94489671D01*
X69302844Y-94489671D01*
G37*
G36*
X69267500Y-93425000D02*
X69512500Y-93365000D01*
X69512500Y-94635000D01*
X69267500Y-94575000D01*
X69267500Y-93425000D01*
X69267500Y-93425000D01*
G37*
G36*
X68489671Y-92697156D02*
X68620486Y-92481489D01*
X69518511Y-93379514D01*
X69302844Y-93510329D01*
X68489671Y-92697156D01*
X68489671Y-92697156D01*
G37*
D12*
X103918000Y-124206000D03*
X107918000Y-124206000D03*
X112300000Y-124206000D03*
X116300000Y-124206000D03*
D13*
X87766000Y-110744000D03*
X92066000Y-110744000D03*
X78876000Y-110744000D03*
X83176000Y-110744000D03*
D14*
X143764000Y-96774000D03*
D15*
X140264000Y-96774000D03*
D16*
X161102000Y-111491000D03*
X161102000Y-112791000D03*
X161102000Y-112141000D03*
X163002000Y-112791000D03*
X163002000Y-111491000D03*
D17*
X159217000Y-121301000D03*
X159217000Y-121801000D03*
X159217000Y-122301000D03*
X159217000Y-122801000D03*
X159217000Y-123301000D03*
X163617000Y-123301000D03*
X163617000Y-122801000D03*
X163617000Y-122301000D03*
X163617000Y-121801000D03*
X163617000Y-121301000D03*
D18*
X124052000Y-131412000D03*
X126552000Y-131412000D03*
X129052000Y-131412000D03*
X131552000Y-131412000D03*
X134052000Y-131412000D03*
X136552000Y-131412000D03*
X136552000Y-111102000D03*
X134052000Y-111102000D03*
X131552000Y-111102000D03*
X129052000Y-111102000D03*
X126552000Y-111102000D03*
X124052000Y-111102000D03*
D15*
X112014000Y-141224000D03*
X117014000Y-141224000D03*
D19*
X152961000Y-121666000D03*
X150061000Y-121666000D03*
D20*
X117755000Y-89382600D03*
X121055000Y-89382600D03*
D21*
X158480000Y-91694000D03*
X156480000Y-91694000D03*
D19*
X121084000Y-93218000D03*
X118184000Y-93218000D03*
D22*
X108660000Y-109220000D03*
X114860000Y-109220000D03*
D23*
X170180000Y-148590000D03*
X170180000Y-81026000D03*
X60960000Y-148590000D03*
X60960000Y-81026000D03*
D24*
X122682000Y-143510000D03*
X152654000Y-143510000D03*
X139446000Y-143510000D03*
D19*
X152453000Y-100965000D03*
X149553000Y-100965000D03*
D15*
X112014000Y-135128000D03*
X117014000Y-135128000D03*
D25*
X90932000Y-124460000D03*
X88392000Y-124460000D03*
D26*
X113030000Y-117602000D03*
X110490000Y-117602000D03*
D27*
X66080000Y-86320000D03*
X66080000Y-101570000D03*
D11*
X85100000Y-86360000D03*
X85090000Y-101566000D03*
X82560000Y-86360000D03*
X80020000Y-86360000D03*
D24*
X77480000Y-86370000D03*
D11*
X82560000Y-101566000D03*
X80020000Y-101566000D03*
D24*
X77480000Y-101566000D03*
D11*
X97790000Y-87480000D03*
X97790000Y-90020000D03*
X97790000Y-92560000D03*
X97790000Y-95100000D03*
X97790000Y-97640000D03*
D24*
X97790000Y-100180000D03*
D28*
X124968000Y-92964000D03*
D29*
X127508000Y-92964000D03*
X130048000Y-92964000D03*
X132588000Y-92964000D03*
D21*
X86376000Y-116078000D03*
X88376000Y-116078000D03*
D30*
X61214000Y-122174000D03*
X73914000Y-122174000D03*
X78994000Y-122174000D03*
D23*
X61214000Y-127000000D03*
X78994000Y-127000000D03*
X78994000Y-117094000D03*
D30*
X61214000Y-138430000D03*
X73914000Y-138430000D03*
X78994000Y-138430000D03*
D23*
X61214000Y-143256000D03*
X78994000Y-143256000D03*
X78994000Y-133350000D03*
D15*
X60000000Y-107000000D03*
X60000000Y-112000000D03*
X65800000Y-110000000D03*
X63500000Y-112500000D03*
X65500000Y-105900000D03*
D31*
X170942000Y-94054000D03*
X170942000Y-96954000D03*
D19*
X85672000Y-143002000D03*
X88572000Y-143002000D03*
X121740000Y-137414000D03*
X124640000Y-137414000D03*
X101018000Y-130302000D03*
X98118000Y-130302000D03*
X149680000Y-95758000D03*
X152580000Y-95758000D03*
D32*
X173736000Y-133604000D03*
X173736000Y-128524000D03*
D23*
X161036000Y-131064000D03*
X157226000Y-131064000D03*
X153416000Y-131064000D03*
D28*
X124841000Y-101219000D03*
D29*
X127381000Y-101219000D03*
X129921000Y-101219000D03*
X132461000Y-101219000D03*
D19*
X90752000Y-116078000D03*
X93652000Y-116078000D03*
X142314000Y-121666000D03*
X145214000Y-121666000D03*
X142314000Y-125857000D03*
X145214000Y-125857000D03*
X142187000Y-131445000D03*
X145087000Y-131445000D03*
X163650000Y-118364000D03*
X166550000Y-118364000D03*
D31*
X165354000Y-96954000D03*
X165354000Y-94054000D03*
X168148000Y-94054000D03*
X168148000Y-96954000D03*
D33*
X152230000Y-92390000D03*
X152230000Y-91440000D03*
X152230000Y-90490000D03*
X150030000Y-90490000D03*
X150030000Y-92390000D03*
X150030000Y-91440000D03*
D29*
X164084000Y-106934000D03*
X169164000Y-106934000D03*
X164084000Y-104394000D03*
X164084000Y-101854000D03*
X169164000Y-101854000D03*
X170434000Y-90932000D03*
X167894000Y-90932000D03*
X165354000Y-90932000D03*
X165354000Y-88392000D03*
X167894000Y-88392000D03*
X170434000Y-88392000D03*
D34*
X143577000Y-109220000D03*
X143577000Y-111760000D03*
X143577000Y-114300000D03*
D35*
X152727000Y-111760000D03*
D15*
X112014000Y-129032000D03*
X117014000Y-129032000D03*
D21*
X164354000Y-115570000D03*
X166354000Y-115570000D03*
D36*
X100970000Y-141224000D03*
X100970000Y-138684000D03*
X100970000Y-136144000D03*
X92070000Y-136144000D03*
X92070000Y-138684000D03*
X92070000Y-141224000D03*
X114178000Y-103124000D03*
X114178000Y-100584000D03*
X114178000Y-98044000D03*
X105278000Y-98044000D03*
X105278000Y-100584000D03*
X105278000Y-103124000D03*
X114178000Y-91948000D03*
X114178000Y-89408000D03*
X114178000Y-86868000D03*
X105278000Y-86868000D03*
X105278000Y-89408000D03*
X105278000Y-91948000D03*
D24*
X146050000Y-143510000D03*
X159258000Y-143510000D03*
X129286000Y-143510000D03*
D11*
X68000000Y-139000000D03*
D10*
G36*
X67425000Y-137732500D02*
X67365000Y-137487500D01*
X68635000Y-137487500D01*
X68575000Y-137732500D01*
X67425000Y-137732500D01*
X67425000Y-137732500D01*
G37*
G36*
X66697156Y-138510329D02*
X66481489Y-138379514D01*
X67379514Y-137481489D01*
X67510329Y-137697156D01*
X66697156Y-138510329D01*
X66697156Y-138510329D01*
G37*
G36*
X66732500Y-139575000D02*
X66487500Y-139635000D01*
X66487500Y-138365000D01*
X66732500Y-138425000D01*
X66732500Y-139575000D01*
X66732500Y-139575000D01*
G37*
G36*
X67510329Y-140302844D02*
X67379514Y-140518511D01*
X66481489Y-139620486D01*
X66697156Y-139489671D01*
X67510329Y-140302844D01*
X67510329Y-140302844D01*
G37*
G36*
X68575000Y-140267500D02*
X68635000Y-140512500D01*
X67365000Y-140512500D01*
X67425000Y-140267500D01*
X68575000Y-140267500D01*
X68575000Y-140267500D01*
G37*
G36*
X69302844Y-139489671D02*
X69518511Y-139620486D01*
X68620486Y-140518511D01*
X68489671Y-140302844D01*
X69302844Y-139489671D01*
X69302844Y-139489671D01*
G37*
G36*
X69267500Y-138425000D02*
X69512500Y-138365000D01*
X69512500Y-139635000D01*
X69267500Y-139575000D01*
X69267500Y-138425000D01*
X69267500Y-138425000D01*
G37*
G36*
X68489671Y-137697156D02*
X68620486Y-137481489D01*
X69518511Y-138379514D01*
X69302844Y-138510329D01*
X68489671Y-137697156D01*
X68489671Y-137697156D01*
G37*
M02*
