G04 #@! TF.FileFunction,Copper,L2,Bot,Signal*
%FSLAX46Y46*%
G04 Gerber Fmt 4.6, Leading zero omitted, Abs format (unit mm)*
G04 Created by KiCad (PCBNEW 4.0.5-e0-6337~49~ubuntu14.04.1) date Sun Feb  5 22:26:14 2017*
%MOMM*%
%LPD*%
G01*
G04 APERTURE LIST*
%ADD10C,0.100000*%
%ADD11C,1.524000*%
%ADD12C,1.143000*%
%ADD13R,1.524000X1.524000*%
%ADD14R,1.600000X1.600000*%
%ADD15O,1.600000X1.600000*%
%ADD16C,2.500000*%
%ADD17C,1.600000*%
%ADD18C,1.300000*%
%ADD19R,1.300000X1.300000*%
%ADD20C,1.700000*%
%ADD21R,1.700000X1.700000*%
%ADD22O,1.506220X3.014980*%
%ADD23O,1.800860X3.500120*%
%ADD24C,0.600000*%
%ADD25C,1.000000*%
%ADD26C,0.450000*%
G04 APERTURE END LIST*
D10*
D11*
X170434000Y-90932000D03*
X167894000Y-90932000D03*
X165354000Y-90932000D03*
X165354000Y-88392000D03*
X167894000Y-88392000D03*
X170434000Y-88392000D03*
X164084000Y-106934000D03*
X169164000Y-106934000D03*
X164084000Y-104394000D03*
X164084000Y-101854000D03*
X169164000Y-101854000D03*
D12*
X112014000Y-144018000D03*
X157734000Y-136906000D03*
X140970000Y-144272000D03*
D13*
X124968000Y-106934000D03*
D11*
X127508000Y-106934000D03*
X130048000Y-106934000D03*
X132588000Y-106934000D03*
D14*
X106426000Y-89154000D03*
D15*
X114046000Y-94234000D03*
X106426000Y-91694000D03*
X114046000Y-91694000D03*
X106426000Y-94234000D03*
X114046000Y-89154000D03*
D16*
X161036000Y-131064000D03*
X157226000Y-131064000D03*
X153416000Y-131064000D03*
D17*
X65800000Y-110000000D03*
X63500000Y-112500000D03*
X65500000Y-105900000D03*
D16*
X61214000Y-143256000D03*
X78994000Y-143256000D03*
X78994000Y-133350000D03*
X61214000Y-127000000D03*
X78994000Y-127000000D03*
X78994000Y-117094000D03*
D18*
X155646000Y-104902000D03*
D19*
X152146000Y-104902000D03*
D14*
X99060000Y-143510000D03*
D15*
X91440000Y-138430000D03*
X99060000Y-140970000D03*
X91440000Y-140970000D03*
X99060000Y-138430000D03*
X91440000Y-143510000D03*
D13*
X124968000Y-92964000D03*
D11*
X127508000Y-92964000D03*
X130048000Y-92964000D03*
X132588000Y-92964000D03*
D14*
X106426000Y-100330000D03*
D15*
X114046000Y-105410000D03*
X106426000Y-102870000D03*
X114046000Y-102870000D03*
X106426000Y-105410000D03*
X114046000Y-100330000D03*
D20*
X85100000Y-86360000D03*
X85090000Y-101566000D03*
X82560000Y-86360000D03*
X80020000Y-86360000D03*
D21*
X77480000Y-86370000D03*
D20*
X82560000Y-101566000D03*
X80020000Y-101566000D03*
D21*
X77480000Y-101566000D03*
D20*
X97790000Y-87480000D03*
X97790000Y-90020000D03*
X97790000Y-92560000D03*
X97790000Y-95100000D03*
X97790000Y-97640000D03*
D21*
X97790000Y-100180000D03*
D22*
X114300000Y-117602000D03*
X111760000Y-117602000D03*
D23*
X90932000Y-124460000D03*
X88392000Y-124460000D03*
D12*
X135128000Y-144272000D03*
D24*
X149165400Y-115594800D03*
X108014000Y-136398000D03*
X128524600Y-100431600D03*
X90159300Y-95923000D03*
X107927200Y-122051700D03*
X131513200Y-133716900D03*
X114903700Y-136876000D03*
X152794200Y-96820500D03*
X137466400Y-105315800D03*
X123875200Y-97518300D03*
X97302400Y-121280500D03*
X160922600Y-142303200D03*
X152352000Y-92202000D03*
X156512000Y-93152000D03*
D25*
X155646000Y-109114200D02*
X149165400Y-115594800D01*
X155646000Y-104902000D02*
X155646000Y-109114200D01*
X124968000Y-106934000D02*
X124968000Y-108421000D01*
X118226600Y-87709600D02*
X123481000Y-92964000D01*
X111935400Y-87709600D02*
X118226600Y-87709600D01*
X107951000Y-91694000D02*
X111935400Y-87709600D01*
X106426000Y-91694000D02*
X107951000Y-91694000D01*
X124644800Y-92964000D02*
X123481000Y-92964000D01*
X124644800Y-92964000D02*
X124891800Y-92964000D01*
X124968000Y-92964000D02*
X124891800Y-92964000D01*
X124891800Y-105370800D02*
X124968000Y-105447000D01*
X124891800Y-92964000D02*
X124891800Y-105370800D01*
X124968000Y-106934000D02*
X124968000Y-105447000D01*
X106426000Y-91694000D02*
X104901000Y-91694000D01*
X132181900Y-141325900D02*
X132181900Y-140970000D01*
X135128000Y-144272000D02*
X132181900Y-141325900D01*
X132181900Y-140970000D02*
X99060000Y-140970000D01*
X98955000Y-97640000D02*
X104901000Y-91694000D01*
X97790000Y-97640000D02*
X98955000Y-97640000D01*
X132453500Y-115906500D02*
X124968000Y-108421000D01*
X132453500Y-140698400D02*
X132453500Y-115906500D01*
X132181900Y-140970000D02*
X132453500Y-140698400D01*
X93240300Y-143510000D02*
X93240300Y-138430000D01*
X91440000Y-143510000D02*
X93240300Y-143510000D01*
X91440000Y-138430000D02*
X93240300Y-138430000D01*
X114046000Y-94234000D02*
X114046000Y-95759000D01*
X112601800Y-97203200D02*
X114046000Y-95759000D01*
X112601800Y-101425800D02*
X112601800Y-97203200D01*
X114046000Y-102870000D02*
X112601800Y-101425800D01*
X127508000Y-92964000D02*
X127508000Y-106934000D01*
X152146000Y-104902000D02*
X150771000Y-104902000D01*
X140970000Y-108739700D02*
X140970000Y-144272000D01*
X129313700Y-108739700D02*
X140970000Y-108739700D01*
X127508000Y-106934000D02*
X129313700Y-108739700D01*
X146933300Y-108739700D02*
X150771000Y-104902000D01*
X140970000Y-108739700D02*
X146933300Y-108739700D01*
D26*
X96560800Y-124944800D02*
X108014000Y-136398000D01*
X96560800Y-96329200D02*
X96560800Y-124944800D01*
X97790000Y-95100000D02*
X96560800Y-96329200D01*
X114429600Y-104160000D02*
X114046000Y-104160000D01*
X115248700Y-103340900D02*
X114429600Y-104160000D01*
X115248700Y-102421500D02*
X115248700Y-103340900D01*
X114407200Y-101580000D02*
X115248700Y-102421500D01*
X114046000Y-101580000D02*
X114407200Y-101580000D01*
X114046000Y-100330000D02*
X114046000Y-101580000D01*
X114046000Y-105410000D02*
X114046000Y-104160000D01*
X128524600Y-94487400D02*
X128524600Y-100431600D01*
X130048000Y-92964000D02*
X128524600Y-94487400D01*
X88203000Y-95923000D02*
X90159300Y-95923000D01*
X82560000Y-101566000D02*
X88203000Y-95923000D01*
D25*
X111760000Y-117602000D02*
X110006600Y-117602000D01*
X110006600Y-119972300D02*
X107927200Y-122051700D01*
X110006600Y-117602000D02*
X110006600Y-119972300D01*
D26*
X118062800Y-133716900D02*
X114903700Y-136876000D01*
X131513200Y-133716900D02*
X118062800Y-133716900D01*
D25*
X142680700Y-106934000D02*
X152794200Y-96820500D01*
X132588000Y-106934000D02*
X142680700Y-106934000D01*
X154305300Y-88392000D02*
X165354000Y-88392000D01*
X137466400Y-105230900D02*
X154305300Y-88392000D01*
X137466400Y-105315800D02*
X137466400Y-105230900D01*
D26*
X71120000Y-133350000D02*
X61214000Y-143256000D01*
X78994000Y-133350000D02*
X71120000Y-133350000D01*
X126462200Y-86838200D02*
X132588000Y-92964000D01*
X106025400Y-86838200D02*
X126462200Y-86838200D01*
X99033600Y-93830000D02*
X106025400Y-86838200D01*
X97313500Y-93830000D02*
X99033600Y-93830000D01*
X86169000Y-104974500D02*
X97313500Y-93830000D01*
X86169000Y-126175000D02*
X86169000Y-104974500D01*
X78994000Y-133350000D02*
X86169000Y-126175000D01*
X118050900Y-91694000D02*
X123875200Y-97518300D01*
X114046000Y-91694000D02*
X118050900Y-91694000D01*
D25*
X89639700Y-136975500D02*
X89639700Y-140970000D01*
X90932000Y-135683200D02*
X89639700Y-136975500D01*
X90932000Y-124460000D02*
X90932000Y-135683200D01*
X91440000Y-140970000D02*
X89639700Y-140970000D01*
D26*
X106426000Y-100330000D02*
X106426000Y-101580000D01*
X97302400Y-110313000D02*
X97302400Y-121280500D01*
X106035400Y-101580000D02*
X97302400Y-110313000D01*
X106426000Y-101580000D02*
X106035400Y-101580000D01*
X159409200Y-99259200D02*
X152352000Y-92202000D01*
X159409200Y-140789800D02*
X159409200Y-99259200D01*
X160922600Y-142303200D02*
X159409200Y-140789800D01*
X161036000Y-97676000D02*
X156512000Y-93152000D01*
X161036000Y-131064000D02*
X161036000Y-97676000D01*
M02*
