G04 #@! TF.FileFunction,Soldermask,Top*
%FSLAX46Y46*%
G04 Gerber Fmt 4.6, Leading zero omitted, Abs format (unit mm)*
G04 Created by KiCad (PCBNEW 4.0.6-e0-6349~53~ubuntu14.04.1) date Tue Apr 11 14:29:56 2017*
%MOMM*%
%LPD*%
G01*
G04 APERTURE LIST*
%ADD10C,0.100000*%
%ADD11C,1.924000*%
%ADD12R,1.460000X1.050000*%
%ADD13R,2.100000X1.050000*%
%ADD14R,2.430000X1.670000*%
%ADD15R,2.100000X1.300000*%
%ADD16R,1.300000X2.100000*%
%ADD17R,2.900000X2.200000*%
%ADD18R,1.400000X1.650000*%
%ADD19R,1.950000X1.000000*%
%ADD20R,1.924000X1.924000*%
%ADD21R,2.000000X2.000000*%
%ADD22O,2.000000X2.000000*%
%ADD23C,2.200000*%
%ADD24C,2.900000*%
%ADD25R,2.180000X1.420000*%
%ADD26C,2.000000*%
%ADD27C,3.650000*%
%ADD28R,2.900000X2.700000*%
%ADD29C,1.700000*%
%ADD30R,1.700000X1.700000*%
%ADD31C,2.400000*%
%ADD32C,2.100000*%
%ADD33R,2.100000X2.100000*%
%ADD34O,1.906220X3.414980*%
%ADD35R,1.000000X0.850000*%
%ADD36O,2.200860X3.900120*%
%ADD37R,1.400000X3.600000*%
G04 APERTURE END LIST*
D10*
D11*
X170434000Y-90932000D03*
X167894000Y-90932000D03*
X165354000Y-90932000D03*
X165354000Y-88392000D03*
X167894000Y-88392000D03*
X170434000Y-88392000D03*
X164084000Y-106934000D03*
X169164000Y-106934000D03*
X164084000Y-104394000D03*
X164084000Y-101854000D03*
X169164000Y-101854000D03*
D12*
X154262000Y-93152000D03*
X154262000Y-92202000D03*
X154262000Y-91252000D03*
X152062000Y-91252000D03*
X152062000Y-93152000D03*
X152062000Y-92202000D03*
D13*
X157574000Y-143891000D03*
X157574000Y-142621000D03*
X157574000Y-141351000D03*
X157574000Y-140081000D03*
X150274000Y-140081000D03*
X150274000Y-141351000D03*
X150274000Y-142621000D03*
X150274000Y-143891000D03*
D14*
X124333000Y-123444000D03*
X135763000Y-123444000D03*
X124333000Y-125944000D03*
X135763000Y-125944000D03*
X135763000Y-120944000D03*
X124333000Y-120944000D03*
D15*
X168148000Y-94054000D03*
X168148000Y-96954000D03*
X165354000Y-96954000D03*
X165354000Y-94054000D03*
D16*
X115242000Y-137160000D03*
X112342000Y-137160000D03*
X144092000Y-141732000D03*
X146992000Y-141732000D03*
X144600000Y-133350000D03*
X147500000Y-133350000D03*
X162634000Y-138684000D03*
X165534000Y-138684000D03*
X162634000Y-141732000D03*
X165534000Y-141732000D03*
X90752000Y-116078000D03*
X93652000Y-116078000D03*
D17*
X103918000Y-123952000D03*
X107918000Y-123952000D03*
X111538000Y-123952000D03*
X115538000Y-123952000D03*
X111538000Y-128270000D03*
X115538000Y-128270000D03*
D18*
X153654000Y-120904000D03*
X151654000Y-120904000D03*
X128508000Y-131826000D03*
X126508000Y-131826000D03*
X98900000Y-127100000D03*
X96900000Y-127100000D03*
X159274000Y-115062000D03*
X161274000Y-115062000D03*
D19*
X126586000Y-134747000D03*
X126586000Y-136017000D03*
X126586000Y-137287000D03*
X126586000Y-138557000D03*
X131986000Y-138557000D03*
X131986000Y-137287000D03*
X131986000Y-136017000D03*
X131986000Y-134747000D03*
D20*
X124968000Y-106934000D03*
D11*
X127508000Y-106934000D03*
X130048000Y-106934000D03*
X132588000Y-106934000D03*
D21*
X106426000Y-89154000D03*
D22*
X114046000Y-94234000D03*
X106426000Y-91694000D03*
X114046000Y-91694000D03*
X106426000Y-94234000D03*
X114046000Y-89154000D03*
D23*
X173736000Y-133604000D03*
X173736000Y-128524000D03*
D24*
X161036000Y-131064000D03*
X157226000Y-131064000D03*
X153416000Y-131064000D03*
D15*
X148336000Y-94308000D03*
X148336000Y-97208000D03*
D16*
X106246000Y-137160000D03*
X109146000Y-137160000D03*
X118438000Y-137160000D03*
X121338000Y-137160000D03*
X85672000Y-143002000D03*
X88572000Y-143002000D03*
D15*
X170942000Y-94054000D03*
X170942000Y-96954000D03*
D25*
X153416000Y-114680000D03*
X153416000Y-116460000D03*
D26*
X60000000Y-107000000D03*
X60000000Y-112000000D03*
X65800000Y-110000000D03*
X63500000Y-112500000D03*
X65500000Y-105900000D03*
D27*
X61214000Y-138430000D03*
X73914000Y-138430000D03*
X78994000Y-138430000D03*
D24*
X61214000Y-143256000D03*
X78994000Y-143256000D03*
X78994000Y-133350000D03*
D27*
X61214000Y-122174000D03*
X73914000Y-122174000D03*
X78994000Y-122174000D03*
D24*
X61214000Y-127000000D03*
X78994000Y-127000000D03*
X78994000Y-117094000D03*
D28*
X91304000Y-110744000D03*
X87004000Y-110744000D03*
X78876000Y-110744000D03*
X83176000Y-110744000D03*
X117484000Y-143764000D03*
X121784000Y-143764000D03*
D29*
X155646000Y-104902000D03*
D30*
X152146000Y-104902000D03*
D18*
X142986000Y-137414000D03*
X140986000Y-137414000D03*
X86376000Y-116078000D03*
X88376000Y-116078000D03*
X138160000Y-137414000D03*
X136160000Y-137414000D03*
D21*
X99060000Y-143510000D03*
D22*
X91440000Y-138430000D03*
X99060000Y-140970000D03*
X91440000Y-140970000D03*
X99060000Y-138430000D03*
X91440000Y-143510000D03*
D20*
X124968000Y-92964000D03*
D11*
X127508000Y-92964000D03*
X130048000Y-92964000D03*
X132588000Y-92964000D03*
D21*
X106426000Y-100330000D03*
D22*
X114046000Y-105410000D03*
X106426000Y-102870000D03*
X114046000Y-102870000D03*
X106426000Y-105410000D03*
X114046000Y-100330000D03*
D31*
X66080000Y-86320000D03*
X66080000Y-101570000D03*
D32*
X85100000Y-86360000D03*
X85090000Y-101566000D03*
X82560000Y-86360000D03*
X80020000Y-86360000D03*
D33*
X77480000Y-86370000D03*
D32*
X82560000Y-101566000D03*
X80020000Y-101566000D03*
D33*
X77480000Y-101566000D03*
D32*
X97790000Y-87480000D03*
X97790000Y-90020000D03*
X97790000Y-92560000D03*
X97790000Y-95100000D03*
X97790000Y-97640000D03*
D33*
X97790000Y-100180000D03*
D34*
X114300000Y-117602000D03*
X111760000Y-117602000D03*
D35*
X140174000Y-130048000D03*
X142274000Y-130048000D03*
X140174000Y-133096000D03*
X142274000Y-133096000D03*
D36*
X90932000Y-124460000D03*
X88392000Y-124460000D03*
D26*
X113538000Y-132080000D03*
X118538000Y-132080000D03*
D16*
X146992000Y-114554000D03*
X144092000Y-114554000D03*
D33*
X140208000Y-143764000D03*
X157734000Y-136906000D03*
X111760000Y-143764000D03*
X134620000Y-143764000D03*
X127254000Y-143764000D03*
D24*
X60960000Y-81026000D03*
X60960000Y-148590000D03*
X170180000Y-81026000D03*
X170180000Y-148590000D03*
D37*
X109930000Y-111506000D03*
X116130000Y-111506000D03*
D16*
X111686000Y-85852000D03*
X108786000Y-85852000D03*
M02*
