G04 #@! TF.FileFunction,Soldermask,Bot*
%FSLAX46Y46*%
G04 Gerber Fmt 4.6, Leading zero omitted, Abs format (unit mm)*
G04 Created by KiCad (PCBNEW 4.0.6-e0-6349~53~ubuntu16.04.1) date Mon May 15 14:01:16 2017*
%MOMM*%
%LPD*%
G01*
G04 APERTURE LIST*
%ADD10C,0.100000*%
%ADD11C,1.924000*%
%ADD12R,1.924000X1.924000*%
%ADD13R,2.000000X2.000000*%
%ADD14O,2.000000X2.000000*%
%ADD15C,2.200000*%
%ADD16C,2.900000*%
%ADD17C,2.000000*%
%ADD18C,3.650000*%
%ADD19C,2.400000*%
%ADD20C,2.100000*%
%ADD21R,2.100000X2.100000*%
%ADD22O,1.906220X3.414980*%
%ADD23O,2.200860X3.900120*%
%ADD24R,2.400000X2.400000*%
G04 APERTURE END LIST*
D10*
D11*
X170434000Y-90932000D03*
X167894000Y-90932000D03*
X165354000Y-90932000D03*
X165354000Y-88392000D03*
X167894000Y-88392000D03*
X170434000Y-88392000D03*
X164084000Y-106934000D03*
X169164000Y-106934000D03*
X164084000Y-104394000D03*
X164084000Y-101854000D03*
X169164000Y-101854000D03*
D12*
X124968000Y-106934000D03*
D11*
X127508000Y-106934000D03*
X130048000Y-106934000D03*
X132588000Y-106934000D03*
D13*
X106426000Y-89154000D03*
D14*
X114046000Y-94234000D03*
X106426000Y-91694000D03*
X114046000Y-91694000D03*
X106426000Y-94234000D03*
X114046000Y-89154000D03*
D15*
X173736000Y-133604000D03*
X173736000Y-128524000D03*
D16*
X161036000Y-131064000D03*
X157226000Y-131064000D03*
X153416000Y-131064000D03*
D17*
X60000000Y-107000000D03*
X60000000Y-112000000D03*
X65800000Y-110000000D03*
X63500000Y-112500000D03*
X65500000Y-105900000D03*
D18*
X61214000Y-138430000D03*
X73914000Y-138430000D03*
X78994000Y-138430000D03*
D16*
X61214000Y-143256000D03*
X78994000Y-143256000D03*
X78994000Y-133350000D03*
D18*
X61214000Y-122174000D03*
X73914000Y-122174000D03*
X78994000Y-122174000D03*
D16*
X61214000Y-127000000D03*
X78994000Y-127000000D03*
X78994000Y-117094000D03*
D13*
X92456000Y-137922000D03*
D14*
X100076000Y-143002000D03*
X92456000Y-140462000D03*
X100076000Y-140462000D03*
X92456000Y-143002000D03*
X100076000Y-137922000D03*
D12*
X124968000Y-92964000D03*
D11*
X127508000Y-92964000D03*
X130048000Y-92964000D03*
X132588000Y-92964000D03*
D13*
X106426000Y-100330000D03*
D14*
X114046000Y-105410000D03*
X106426000Y-102870000D03*
X114046000Y-102870000D03*
X106426000Y-105410000D03*
X114046000Y-100330000D03*
D19*
X66080000Y-86320000D03*
X66080000Y-101570000D03*
D20*
X85100000Y-86360000D03*
X85090000Y-101566000D03*
X82560000Y-86360000D03*
X80020000Y-86360000D03*
D21*
X77480000Y-86370000D03*
D20*
X82560000Y-101566000D03*
X80020000Y-101566000D03*
D21*
X77480000Y-101566000D03*
D20*
X97790000Y-87480000D03*
X97790000Y-90020000D03*
X97790000Y-92560000D03*
X97790000Y-95100000D03*
X97790000Y-97640000D03*
D21*
X97790000Y-100180000D03*
D22*
X114300000Y-117602000D03*
X111760000Y-117602000D03*
D23*
X90932000Y-124460000D03*
X88392000Y-124460000D03*
D17*
X112268000Y-131064000D03*
X117268000Y-131064000D03*
D21*
X139446000Y-143764000D03*
X145542000Y-143764000D03*
X111760000Y-143764000D03*
X133350000Y-143764000D03*
X127254000Y-143764000D03*
D16*
X60960000Y-81026000D03*
X60960000Y-148590000D03*
X170180000Y-81026000D03*
X170180000Y-148590000D03*
D24*
X152146000Y-104902000D03*
D19*
X157146000Y-104902000D03*
D17*
X103378000Y-131064000D03*
X108378000Y-131064000D03*
D24*
X140716000Y-104902000D03*
D19*
X145716000Y-104902000D03*
M02*
