G04 #@! TF.FileFunction,Copper,L1,Top,Signal*
%FSLAX46Y46*%
G04 Gerber Fmt 4.6, Leading zero omitted, Abs format (unit mm)*
G04 Created by KiCad (PCBNEW 4.0.6-e0-6349~53~ubuntu16.04.1) date Mon Jul  3 21:18:37 2017*
%MOMM*%
%LPD*%
G01*
G04 APERTURE LIST*
%ADD10C,0.100000*%
%ADD11C,0.290000*%
%ADD12R,0.290000X0.290000*%
%ADD13R,0.450000X0.450000*%
%ADD14C,1.000000*%
%ADD15R,2.500000X1.800000*%
%ADD16R,2.500000X2.300000*%
%ADD17R,1.600000X1.600000*%
%ADD18C,1.600000*%
%ADD19R,0.650000X0.400000*%
%ADD20R,1.400000X0.300000*%
%ADD21R,1.790000X3.430000*%
%ADD22R,0.900000X1.700000*%
%ADD23R,0.900000X1.200000*%
%ADD24R,1.000000X1.250000*%
%ADD25R,1.000000X3.200000*%
%ADD26R,1.700000X1.700000*%
%ADD27O,1.800860X3.500120*%
%ADD28O,1.510000X3.010000*%
%ADD29C,1.700000*%
%ADD30R,1.524000X1.524000*%
%ADD31C,1.524000*%
%ADD32C,2.500000*%
%ADD33R,1.700000X0.900000*%
%ADD34R,1.060000X0.650000*%
%ADD35R,4.600000X1.100000*%
%ADD36R,9.400000X10.800000*%
%ADD37R,4.550000X5.250000*%
%ADD38R,1.650000X0.650000*%
%ADD39C,0.600000*%
%ADD40C,0.449800*%
%ADD41C,0.450000*%
%ADD42C,1.000000*%
G04 APERTURE END LIST*
D10*
D11*
X164188000Y-111506000D02*
X164638000Y-111506000D01*
X157757000Y-123698000D02*
X157307000Y-123698000D01*
X157757000Y-122809000D02*
X157307000Y-122809000D01*
X157884000Y-121285000D02*
X157434000Y-121285000D01*
X165077000Y-123825000D02*
X165527000Y-123825000D01*
X159916000Y-112776000D02*
X159466000Y-112776000D01*
D12*
X164088000Y-111506000D03*
D13*
X164788000Y-111506000D03*
D14*
X168148000Y-139000000D03*
D10*
G36*
X167583000Y-137722500D02*
X167523000Y-137497500D01*
X168773000Y-137497500D01*
X168713000Y-137722500D01*
X167583000Y-137722500D01*
X167583000Y-137722500D01*
G37*
G36*
X166845156Y-138496187D02*
X166643631Y-138379514D01*
X167527514Y-137495631D01*
X167644187Y-137697156D01*
X166845156Y-138496187D01*
X166845156Y-138496187D01*
G37*
G36*
X166870500Y-139565000D02*
X166645500Y-139625000D01*
X166645500Y-138375000D01*
X166870500Y-138435000D01*
X166870500Y-139565000D01*
X166870500Y-139565000D01*
G37*
G36*
X167644187Y-140302844D02*
X167527514Y-140504369D01*
X166643631Y-139620486D01*
X166845156Y-139503813D01*
X167644187Y-140302844D01*
X167644187Y-140302844D01*
G37*
G36*
X168713000Y-140277500D02*
X168773000Y-140502500D01*
X167523000Y-140502500D01*
X167583000Y-140277500D01*
X168713000Y-140277500D01*
X168713000Y-140277500D01*
G37*
G36*
X169450844Y-139503813D02*
X169652369Y-139620486D01*
X168768486Y-140504369D01*
X168651813Y-140302844D01*
X169450844Y-139503813D01*
X169450844Y-139503813D01*
G37*
G36*
X169425500Y-138435000D02*
X169650500Y-138375000D01*
X169650500Y-139625000D01*
X169425500Y-139565000D01*
X169425500Y-138435000D01*
X169425500Y-138435000D01*
G37*
G36*
X168651813Y-137697156D02*
X168768486Y-137495631D01*
X169652369Y-138379514D01*
X169450844Y-138496187D01*
X168651813Y-137697156D01*
X168651813Y-137697156D01*
G37*
D14*
X68000000Y-94000000D03*
D10*
G36*
X67435000Y-92722500D02*
X67375000Y-92497500D01*
X68625000Y-92497500D01*
X68565000Y-92722500D01*
X67435000Y-92722500D01*
X67435000Y-92722500D01*
G37*
G36*
X66697156Y-93496187D02*
X66495631Y-93379514D01*
X67379514Y-92495631D01*
X67496187Y-92697156D01*
X66697156Y-93496187D01*
X66697156Y-93496187D01*
G37*
G36*
X66722500Y-94565000D02*
X66497500Y-94625000D01*
X66497500Y-93375000D01*
X66722500Y-93435000D01*
X66722500Y-94565000D01*
X66722500Y-94565000D01*
G37*
G36*
X67496187Y-95302844D02*
X67379514Y-95504369D01*
X66495631Y-94620486D01*
X66697156Y-94503813D01*
X67496187Y-95302844D01*
X67496187Y-95302844D01*
G37*
G36*
X68565000Y-95277500D02*
X68625000Y-95502500D01*
X67375000Y-95502500D01*
X67435000Y-95277500D01*
X68565000Y-95277500D01*
X68565000Y-95277500D01*
G37*
G36*
X69302844Y-94503813D02*
X69504369Y-94620486D01*
X68620486Y-95504369D01*
X68503813Y-95302844D01*
X69302844Y-94503813D01*
X69302844Y-94503813D01*
G37*
G36*
X69277500Y-93435000D02*
X69502500Y-93375000D01*
X69502500Y-94625000D01*
X69277500Y-94565000D01*
X69277500Y-93435000D01*
X69277500Y-93435000D01*
G37*
G36*
X68503813Y-92697156D02*
X68620486Y-92495631D01*
X69504369Y-93379514D01*
X69302844Y-93496187D01*
X68503813Y-92697156D01*
X68503813Y-92697156D01*
G37*
D15*
X103918000Y-124206000D03*
X107918000Y-124206000D03*
X112300000Y-124206000D03*
X116300000Y-124206000D03*
D16*
X87766000Y-110744000D03*
X92066000Y-110744000D03*
X78876000Y-110744000D03*
X83176000Y-110744000D03*
D17*
X143764000Y-96774000D03*
D18*
X140264000Y-96774000D03*
D19*
X161102000Y-111491000D03*
X161102000Y-112791000D03*
X161102000Y-112141000D03*
X163002000Y-112791000D03*
X163002000Y-111491000D03*
D20*
X159217000Y-121301000D03*
X159217000Y-121801000D03*
X159217000Y-122301000D03*
X159217000Y-122801000D03*
X159217000Y-123301000D03*
X163617000Y-123301000D03*
X163617000Y-122801000D03*
X163617000Y-122301000D03*
X163617000Y-121801000D03*
X163617000Y-121301000D03*
D21*
X124052000Y-131412000D03*
X126552000Y-131412000D03*
X129052000Y-131412000D03*
X131552000Y-131412000D03*
X134052000Y-131412000D03*
X136552000Y-131412000D03*
X136552000Y-111102000D03*
X134052000Y-111102000D03*
X131552000Y-111102000D03*
X129052000Y-111102000D03*
X126552000Y-111102000D03*
X124052000Y-111102000D03*
D18*
X112014000Y-141224000D03*
X117014000Y-141224000D03*
D22*
X152961000Y-121666000D03*
X150061000Y-121666000D03*
D23*
X117755000Y-89382600D03*
X121055000Y-89382600D03*
D24*
X158480000Y-91694000D03*
X156480000Y-91694000D03*
D22*
X121084000Y-93218000D03*
X118184000Y-93218000D03*
D25*
X108660000Y-109220000D03*
X114860000Y-109220000D03*
D26*
X122682000Y-143510000D03*
X152654000Y-143510000D03*
X139446000Y-143510000D03*
D22*
X152453000Y-100965000D03*
X149553000Y-100965000D03*
D18*
X112014000Y-135128000D03*
X117014000Y-135128000D03*
D27*
X90932000Y-124460000D03*
X88392000Y-124460000D03*
D28*
X113030000Y-117602000D03*
X110490000Y-117602000D03*
D29*
X85100000Y-86360000D03*
X85090000Y-101566000D03*
X82560000Y-86360000D03*
X80020000Y-86360000D03*
D26*
X77480000Y-86370000D03*
D29*
X82560000Y-101566000D03*
X80020000Y-101566000D03*
D26*
X77480000Y-101566000D03*
D29*
X97790000Y-87480000D03*
X97790000Y-90020000D03*
X97790000Y-92560000D03*
X97790000Y-95100000D03*
X97790000Y-97640000D03*
D26*
X97790000Y-100180000D03*
D30*
X124968000Y-92964000D03*
D31*
X127508000Y-92964000D03*
X130048000Y-92964000D03*
X132588000Y-92964000D03*
D24*
X86376000Y-116078000D03*
X88376000Y-116078000D03*
D32*
X61214000Y-127000000D03*
X78994000Y-127000000D03*
X78994000Y-117094000D03*
X61214000Y-143256000D03*
X78994000Y-143256000D03*
X78994000Y-133350000D03*
D18*
X65800000Y-110000000D03*
X63500000Y-112500000D03*
X65500000Y-105900000D03*
D33*
X170942000Y-94054000D03*
X170942000Y-96954000D03*
D22*
X85672000Y-143002000D03*
X88572000Y-143002000D03*
X121740000Y-137414000D03*
X124640000Y-137414000D03*
X101018000Y-130302000D03*
X98118000Y-130302000D03*
X149680000Y-95758000D03*
X152580000Y-95758000D03*
D32*
X161036000Y-131064000D03*
X157226000Y-131064000D03*
X153416000Y-131064000D03*
D30*
X124841000Y-101219000D03*
D31*
X127381000Y-101219000D03*
X129921000Y-101219000D03*
X132461000Y-101219000D03*
D22*
X90752000Y-116078000D03*
X93652000Y-116078000D03*
X142314000Y-121666000D03*
X145214000Y-121666000D03*
X142314000Y-125857000D03*
X145214000Y-125857000D03*
X142187000Y-131445000D03*
X145087000Y-131445000D03*
X163650000Y-118364000D03*
X166550000Y-118364000D03*
D33*
X165354000Y-96954000D03*
X165354000Y-94054000D03*
X168148000Y-94054000D03*
X168148000Y-96954000D03*
D34*
X152230000Y-92390000D03*
X152230000Y-91440000D03*
X152230000Y-90490000D03*
X150030000Y-90490000D03*
X150030000Y-92390000D03*
X150030000Y-91440000D03*
D31*
X164084000Y-106934000D03*
X169164000Y-106934000D03*
X164084000Y-104394000D03*
X164084000Y-101854000D03*
X169164000Y-101854000D03*
X170434000Y-90932000D03*
X167894000Y-90932000D03*
X165354000Y-90932000D03*
X165354000Y-88392000D03*
X167894000Y-88392000D03*
X170434000Y-88392000D03*
D35*
X143577000Y-109220000D03*
X143577000Y-111760000D03*
X143577000Y-114300000D03*
D36*
X152727000Y-111760000D03*
D37*
X155152000Y-114535000D03*
X150302000Y-108985000D03*
X155152000Y-108985000D03*
X150302000Y-114535000D03*
D18*
X112014000Y-129032000D03*
X117014000Y-129032000D03*
D24*
X164354000Y-115570000D03*
X166354000Y-115570000D03*
D38*
X100970000Y-141224000D03*
X100970000Y-138684000D03*
X100970000Y-136144000D03*
X92070000Y-136144000D03*
X92070000Y-138684000D03*
X92070000Y-141224000D03*
X114178000Y-103124000D03*
X114178000Y-100584000D03*
X114178000Y-98044000D03*
X105278000Y-98044000D03*
X105278000Y-100584000D03*
X105278000Y-103124000D03*
X114178000Y-91948000D03*
X114178000Y-89408000D03*
X114178000Y-86868000D03*
X105278000Y-86868000D03*
X105278000Y-89408000D03*
X105278000Y-91948000D03*
D26*
X146050000Y-143510000D03*
X159258000Y-143510000D03*
X129286000Y-143510000D03*
D12*
X157857000Y-123698000D03*
D13*
X157157000Y-123698000D03*
D12*
X157857000Y-122809000D03*
D13*
X157157000Y-122809000D03*
D12*
X157984000Y-121285000D03*
D13*
X157284000Y-121285000D03*
D12*
X164977000Y-123825000D03*
D13*
X165677000Y-123825000D03*
D12*
X160016000Y-112776000D03*
D13*
X159316000Y-112776000D03*
D14*
X68000000Y-139000000D03*
D10*
G36*
X67435000Y-137722500D02*
X67375000Y-137497500D01*
X68625000Y-137497500D01*
X68565000Y-137722500D01*
X67435000Y-137722500D01*
X67435000Y-137722500D01*
G37*
G36*
X66697156Y-138496187D02*
X66495631Y-138379514D01*
X67379514Y-137495631D01*
X67496187Y-137697156D01*
X66697156Y-138496187D01*
X66697156Y-138496187D01*
G37*
G36*
X66722500Y-139565000D02*
X66497500Y-139625000D01*
X66497500Y-138375000D01*
X66722500Y-138435000D01*
X66722500Y-139565000D01*
X66722500Y-139565000D01*
G37*
G36*
X67496187Y-140302844D02*
X67379514Y-140504369D01*
X66495631Y-139620486D01*
X66697156Y-139503813D01*
X67496187Y-140302844D01*
X67496187Y-140302844D01*
G37*
G36*
X68565000Y-140277500D02*
X68625000Y-140502500D01*
X67375000Y-140502500D01*
X67435000Y-140277500D01*
X68565000Y-140277500D01*
X68565000Y-140277500D01*
G37*
G36*
X69302844Y-139503813D02*
X69504369Y-139620486D01*
X68620486Y-140504369D01*
X68503813Y-140302844D01*
X69302844Y-139503813D01*
X69302844Y-139503813D01*
G37*
G36*
X69277500Y-138435000D02*
X69502500Y-138375000D01*
X69502500Y-139625000D01*
X69277500Y-139565000D01*
X69277500Y-138435000D01*
X69277500Y-138435000D01*
G37*
G36*
X68503813Y-137697156D02*
X68620486Y-137495631D01*
X69504369Y-138379514D01*
X69302844Y-138496187D01*
X68503813Y-137697156D01*
X68503813Y-137697156D01*
G37*
D14*
X143659100Y-121666000D03*
X101454500Y-100709600D03*
X101051900Y-118827300D03*
X115769800Y-103616700D03*
X88248700Y-141358400D03*
X155795800Y-94589300D03*
X161822100Y-120919800D03*
X164019400Y-113127200D03*
X158477900Y-114535000D03*
X151601900Y-122691700D03*
X146050000Y-104995100D03*
D39*
X133570000Y-139064300D02*
X138015700Y-143510000D01*
X102755600Y-139064300D02*
X133570000Y-139064300D01*
X102375300Y-138684000D02*
X102755600Y-139064300D01*
X100970000Y-138684000D02*
X102375300Y-138684000D01*
X139446000Y-143510000D02*
X138015700Y-143510000D01*
X170434000Y-88392000D02*
X167894000Y-88392000D01*
X167894000Y-88392000D02*
X165354000Y-88392000D01*
X155145700Y-91440000D02*
X155399700Y-91694000D01*
X152230000Y-91440000D02*
X155145700Y-91440000D01*
X156480000Y-91694000D02*
X155399700Y-91694000D01*
X162050900Y-88392000D02*
X159634100Y-90808800D01*
X165354000Y-88392000D02*
X162050900Y-88392000D01*
X159279500Y-90454200D02*
X159634100Y-90808800D01*
X157719800Y-90454200D02*
X159279500Y-90454200D01*
X156480000Y-91694000D02*
X157719800Y-90454200D01*
D40*
X159290600Y-112801400D02*
X159316000Y-112776000D01*
D39*
X159290600Y-113610200D02*
X159290600Y-112801400D01*
X160000300Y-114319900D02*
X159290600Y-113610200D01*
X145214000Y-121666000D02*
X146244300Y-121666000D01*
X152580000Y-95758000D02*
X152580000Y-97188300D01*
X150233600Y-99534700D02*
X149553000Y-99534700D01*
X152580000Y-97188300D02*
X150233600Y-99534700D01*
X149553000Y-100965000D02*
X149553000Y-99534700D01*
D40*
X156951500Y-123903500D02*
X157157000Y-123698000D01*
D39*
X147879300Y-121666000D02*
X147905800Y-121692500D01*
X146244300Y-121666000D02*
X147879300Y-121666000D01*
X156829000Y-124026000D02*
X156951500Y-123903500D01*
X150239300Y-124026000D02*
X156829000Y-124026000D01*
X147905800Y-121692500D02*
X150239300Y-124026000D01*
X160000300Y-115425700D02*
X160000300Y-114319900D01*
X157630300Y-117795700D02*
X160000300Y-115425700D01*
X151802600Y-117795700D02*
X157630300Y-117795700D01*
X147905800Y-121692500D02*
X151802600Y-117795700D01*
X166550000Y-118364000D02*
X166550000Y-116933700D01*
X165103900Y-114319900D02*
X166354000Y-115570000D01*
X160000300Y-114319900D02*
X165103900Y-114319900D01*
X166391600Y-116775300D02*
X166550000Y-116933700D01*
X166354000Y-116775300D02*
X166391600Y-116775300D01*
X166354000Y-115570000D02*
X166354000Y-116775300D01*
X140264000Y-96774000D02*
X140264000Y-98053900D01*
X141744800Y-99534700D02*
X140264000Y-98053900D01*
X149553000Y-99534700D02*
X141744800Y-99534700D01*
X128006100Y-98053900D02*
X124841000Y-101219000D01*
X140264000Y-98053900D02*
X128006100Y-98053900D01*
X145214000Y-121666000D02*
X144183700Y-121666000D01*
X144183700Y-121666000D02*
X143659100Y-121666000D01*
X152580000Y-95758000D02*
X153610300Y-95758000D01*
X159634100Y-92487900D02*
X159634100Y-90808800D01*
X156364000Y-95758000D02*
X159634100Y-92487900D01*
X153610300Y-95758000D02*
X156364000Y-95758000D01*
D11*
X98118000Y-130302000D02*
X98938000Y-130302000D01*
X98938000Y-130302000D02*
X101673100Y-127566900D01*
X101454500Y-117610200D02*
X101454500Y-100709600D01*
X101454600Y-117610200D02*
X101454500Y-117610200D01*
X102197200Y-118352800D02*
X101454600Y-117610200D01*
X102197200Y-119301800D02*
X102197200Y-118352800D01*
X101673100Y-119825900D02*
X102197200Y-119301800D01*
X101673100Y-127566900D02*
X101673100Y-119825900D01*
X159966400Y-111700400D02*
X160407000Y-112141000D01*
X159966400Y-108345600D02*
X159966400Y-111700400D01*
X157590400Y-105969600D02*
X159966400Y-108345600D01*
X143445300Y-105969600D02*
X157590400Y-105969600D01*
X140058200Y-109356700D02*
X143445300Y-105969600D01*
X140058200Y-110850700D02*
X140058200Y-109356700D01*
X120389400Y-130519500D02*
X140058200Y-110850700D01*
X104625700Y-130519500D02*
X120389400Y-130519500D01*
X101673100Y-127566900D02*
X104625700Y-130519500D01*
X161102000Y-112141000D02*
X160407000Y-112141000D01*
X161911600Y-112255600D02*
X161797000Y-112141000D01*
X165128700Y-112255600D02*
X161911600Y-112255600D01*
X167279600Y-110104700D02*
X165128700Y-112255600D01*
X167279600Y-106679300D02*
X167279600Y-110104700D01*
X172217500Y-101741400D02*
X167279600Y-106679300D01*
X172217500Y-96297100D02*
X172217500Y-101741400D01*
X171995500Y-96075100D02*
X172217500Y-96297100D01*
X166555100Y-96075100D02*
X171995500Y-96075100D01*
X165354000Y-94874000D02*
X166555100Y-96075100D01*
X165354000Y-94054000D02*
X165354000Y-94874000D01*
X161102000Y-112141000D02*
X161797000Y-112141000D01*
D41*
X105278000Y-100584000D02*
X106573300Y-100584000D01*
X163471600Y-103781600D02*
X164084000Y-104394000D01*
X124174900Y-103781600D02*
X163471600Y-103781600D01*
X122467900Y-102074600D02*
X124174900Y-103781600D01*
X108063900Y-102074600D02*
X122467900Y-102074600D01*
X106573300Y-100584000D02*
X108063900Y-102074600D01*
X122428000Y-100584000D02*
X130048000Y-92964000D01*
X114178000Y-100584000D02*
X122428000Y-100584000D01*
D42*
X118545700Y-141224000D02*
X120831700Y-143510000D01*
X117014000Y-141224000D02*
X118545700Y-141224000D01*
X122682000Y-143510000D02*
X120831700Y-143510000D01*
X97851600Y-118827300D02*
X95102300Y-116078000D01*
X101051900Y-118827300D02*
X97851600Y-118827300D01*
X124052000Y-131412000D02*
X124052000Y-134127300D01*
X123487000Y-135563700D02*
X123051300Y-135128000D01*
X124640000Y-135563700D02*
X123487000Y-135563700D01*
X117014000Y-135128000D02*
X123051300Y-135128000D01*
X123051300Y-135128000D02*
X124052000Y-134127300D01*
X124640000Y-137414000D02*
X124640000Y-135563700D01*
X76625700Y-111588300D02*
X76625700Y-110744000D01*
X61214000Y-127000000D02*
X76625700Y-111588300D01*
X78876000Y-110744000D02*
X76625700Y-110744000D01*
X93652000Y-116078000D02*
X94377200Y-116078000D01*
X94377200Y-116078000D02*
X95102300Y-116078000D01*
X80399300Y-107070400D02*
X78876000Y-108593700D01*
X92241500Y-107070400D02*
X80399300Y-107070400D01*
X94377200Y-109206100D02*
X92241500Y-107070400D01*
X94377200Y-116078000D02*
X94377200Y-109206100D01*
X78876000Y-110744000D02*
X78876000Y-108593700D01*
X87766000Y-110744000D02*
X87766000Y-112894300D01*
X86376000Y-114284300D02*
X87766000Y-112894300D01*
X86376000Y-116078000D02*
X86376000Y-114284300D01*
X86491300Y-117818600D02*
X86376000Y-117703300D01*
X86491300Y-124460000D02*
X86491300Y-117818600D01*
X88392000Y-124460000D02*
X86491300Y-124460000D01*
X86376000Y-116078000D02*
X86376000Y-117703300D01*
X81534000Y-124460000D02*
X86491300Y-124460000D01*
X78994000Y-127000000D02*
X81534000Y-124460000D01*
D41*
X76125400Y-95131400D02*
X82560000Y-101566000D01*
X76125400Y-85358100D02*
X76125400Y-95131400D01*
X76521400Y-84962100D02*
X76125400Y-85358100D01*
X146099400Y-84962100D02*
X76521400Y-84962100D01*
X151229700Y-90092400D02*
X146099400Y-84962100D01*
X151229700Y-90490000D02*
X151229700Y-90092400D01*
X152230000Y-90490000D02*
X151229700Y-90490000D01*
X88376000Y-116078000D02*
X90752000Y-116078000D01*
D42*
X116300000Y-121569300D02*
X116300000Y-124206000D01*
X124052000Y-113817300D02*
X116300000Y-121569300D01*
X124052000Y-111102000D02*
X124052000Y-113817300D01*
X108734700Y-121489000D02*
X107918000Y-122305700D01*
X108734700Y-117602000D02*
X108734700Y-121489000D01*
X110490000Y-117602000D02*
X108734700Y-117602000D01*
X107918000Y-124206000D02*
X107918000Y-122305700D01*
X108734700Y-111895000D02*
X108734700Y-117602000D01*
X108660000Y-111820300D02*
X108734700Y-111895000D01*
X108660000Y-109220000D02*
X108660000Y-111820300D01*
X85426300Y-109269100D02*
X85426300Y-110744000D01*
X86101700Y-108593700D02*
X85426300Y-109269100D01*
X89915700Y-108593700D02*
X86101700Y-108593700D01*
X92066000Y-110744000D02*
X89915700Y-108593700D01*
X83176000Y-110744000D02*
X85426300Y-110744000D01*
D41*
X170942000Y-91440000D02*
X170942000Y-94054000D01*
X170434000Y-90932000D02*
X170942000Y-91440000D01*
X167894000Y-92879700D02*
X168148000Y-93133700D01*
X167894000Y-90932000D02*
X167894000Y-92879700D01*
X168148000Y-94054000D02*
X168148000Y-93133700D01*
X164033600Y-94713300D02*
X165354000Y-96033700D01*
X164033600Y-92252400D02*
X164033600Y-94713300D01*
X165354000Y-90932000D02*
X164033600Y-92252400D01*
X165354000Y-96954000D02*
X165354000Y-96033700D01*
X84497700Y-143256000D02*
X84751700Y-143002000D01*
X78994000Y-143256000D02*
X84497700Y-143256000D01*
X85672000Y-143002000D02*
X84751700Y-143002000D01*
X105278000Y-89408000D02*
X103982700Y-89408000D01*
X168148000Y-96954000D02*
X168148000Y-97874300D01*
X103908200Y-89482500D02*
X103982700Y-89408000D01*
X103908200Y-99008400D02*
X103908200Y-89482500D01*
X101597700Y-99008400D02*
X103908200Y-99008400D01*
X97565700Y-103040400D02*
X101597700Y-99008400D01*
X68359600Y-103040400D02*
X97565700Y-103040400D01*
X65500000Y-105900000D02*
X68359600Y-103040400D01*
X153552700Y-97874300D02*
X168148000Y-97874300D01*
X151262700Y-100164300D02*
X153552700Y-97874300D01*
X151262700Y-101307600D02*
X151262700Y-100164300D01*
X149831500Y-102738800D02*
X151262700Y-101307600D01*
X124115400Y-102738800D02*
X149831500Y-102738800D01*
X122755900Y-101379300D02*
X124115400Y-102738800D01*
X112472000Y-101379300D02*
X122755900Y-101379300D01*
X110101100Y-99008400D02*
X112472000Y-101379300D01*
X103908200Y-99008400D02*
X110101100Y-99008400D01*
D42*
X93895300Y-125522600D02*
X92832700Y-124460000D01*
X93895300Y-138684000D02*
X93895300Y-125522600D01*
X92070000Y-138684000D02*
X93895300Y-138684000D01*
X90932000Y-124460000D02*
X92832700Y-124460000D01*
D41*
X88572000Y-143002000D02*
X88572000Y-141681700D01*
X88248700Y-141358400D02*
X88572000Y-141681700D01*
X115473300Y-103320200D02*
X115769800Y-103616700D01*
X115473300Y-103124000D02*
X115473300Y-103320200D01*
X114178000Y-103124000D02*
X115473300Y-103124000D01*
X99639600Y-130760100D02*
X100097700Y-130302000D01*
X99639600Y-141188900D02*
X99639600Y-130760100D01*
X99674700Y-141224000D02*
X99639600Y-141188900D01*
X100970000Y-141224000D02*
X99674700Y-141224000D01*
X101018000Y-130302000D02*
X100097700Y-130302000D01*
X148994600Y-93752300D02*
X149680000Y-94437700D01*
X148994600Y-91475100D02*
X148994600Y-93752300D01*
X149029700Y-91440000D02*
X148994600Y-91475100D01*
X150030000Y-91440000D02*
X149029700Y-91440000D01*
X149680000Y-95758000D02*
X149680000Y-94437700D01*
X99197300Y-88612700D02*
X97790000Y-90020000D01*
X112087400Y-88612700D02*
X99197300Y-88612700D01*
X112882700Y-89408000D02*
X112087400Y-88612700D01*
X114178000Y-89408000D02*
X112882700Y-89408000D01*
D42*
X114785300Y-111895000D02*
X114860000Y-111820300D01*
X114785300Y-117602000D02*
X114785300Y-111895000D01*
X113030000Y-117602000D02*
X114785300Y-117602000D01*
X114860000Y-109220000D02*
X114860000Y-111820300D01*
X114300000Y-137414000D02*
X112014000Y-135128000D01*
X121740000Y-137414000D02*
X114300000Y-137414000D01*
X112300000Y-124206000D02*
X112300000Y-126106300D01*
X103918000Y-124206000D02*
X103918000Y-126106300D01*
X90244700Y-141224000D02*
X90244700Y-136144000D01*
X92070000Y-136144000D02*
X90244700Y-136144000D01*
X91157400Y-141224000D02*
X90244700Y-141224000D01*
X91157400Y-141224000D02*
X92070000Y-141224000D01*
X92070000Y-141224000D02*
X93895300Y-141224000D01*
X112300000Y-126106300D02*
X103918000Y-126106300D01*
X129286000Y-143510000D02*
X127435700Y-143510000D01*
X110688700Y-142549300D02*
X112014000Y-141224000D01*
X95220600Y-142549300D02*
X110688700Y-142549300D01*
X93895300Y-141224000D02*
X95220600Y-142549300D01*
X125585400Y-145360300D02*
X127435700Y-143510000D01*
X116150300Y-145360300D02*
X125585400Y-145360300D01*
X112014000Y-141224000D02*
X116150300Y-145360300D01*
X112300000Y-128746000D02*
X112300000Y-126106300D01*
X112014000Y-129032000D02*
X112300000Y-128746000D01*
D41*
X116743300Y-93218000D02*
X118184000Y-93218000D01*
X115473300Y-91948000D02*
X116743300Y-93218000D01*
X114178000Y-91948000D02*
X115473300Y-91948000D01*
X154262300Y-101854000D02*
X153373300Y-100965000D01*
X164084000Y-101854000D02*
X154262300Y-101854000D01*
X152453000Y-100965000D02*
X153373300Y-100965000D01*
X152230000Y-92390000D02*
X153230300Y-92390000D01*
X155795800Y-94589300D02*
X155795800Y-92824400D01*
X153664700Y-92824400D02*
X155795800Y-92824400D01*
X153230300Y-92390000D02*
X153664700Y-92824400D01*
X157349600Y-92824400D02*
X158480000Y-91694000D01*
X155795800Y-92824400D02*
X157349600Y-92824400D01*
X121084000Y-93218000D02*
X121084000Y-91897700D01*
X121055000Y-91868700D02*
X121055000Y-89382600D01*
X121084000Y-91897700D02*
X121055000Y-91868700D01*
X118500400Y-87748300D02*
X120134700Y-89382600D01*
X98058300Y-87748300D02*
X118500400Y-87748300D01*
X97790000Y-87480000D02*
X98058300Y-87748300D01*
X121055000Y-89382600D02*
X120134700Y-89382600D01*
X143229600Y-132765300D02*
X142187000Y-132765300D01*
X152654000Y-142189700D02*
X143229600Y-132765300D01*
X152654000Y-143510000D02*
X152654000Y-142189700D01*
X142187000Y-131445000D02*
X142187000Y-132765300D01*
X131552000Y-131412000D02*
X131552000Y-132504600D01*
X130459300Y-133597300D02*
X129052000Y-133597300D01*
X131552000Y-132504600D02*
X130459300Y-133597300D01*
X129052000Y-131412000D02*
X129052000Y-133597300D01*
X134052000Y-132504600D02*
X131552000Y-132504600D01*
X134052000Y-131412000D02*
X134052000Y-132504600D01*
X136552000Y-131412000D02*
X136552000Y-130319300D01*
X135459400Y-129226700D02*
X134052000Y-129226700D01*
X136552000Y-130319300D02*
X135459400Y-129226700D01*
X134052000Y-131412000D02*
X134052000Y-129226700D01*
X142314000Y-125857000D02*
X141853900Y-125857000D01*
X142187000Y-131445000D02*
X142187000Y-130124700D01*
X137079700Y-129791600D02*
X136552000Y-130319300D01*
X141853900Y-129791600D02*
X137079700Y-129791600D01*
X141853900Y-125857000D02*
X141853900Y-129791600D01*
X141853900Y-129791600D02*
X142187000Y-130124700D01*
X140806700Y-124809800D02*
X141853900Y-125857000D01*
X140806700Y-114300000D02*
X140806700Y-124809800D01*
X143577000Y-114300000D02*
X140806700Y-114300000D01*
D11*
X160287000Y-121022900D02*
X160287000Y-121801000D01*
X159886400Y-120622300D02*
X160287000Y-121022900D01*
X154824700Y-120622300D02*
X159886400Y-120622300D01*
X153781000Y-121666000D02*
X154824700Y-120622300D01*
X152961000Y-121666000D02*
X153781000Y-121666000D01*
X159217000Y-121801000D02*
X160287000Y-121801000D01*
X145214000Y-125857000D02*
X146034000Y-125857000D01*
X158087600Y-125857000D02*
X146034000Y-125857000D01*
X162143600Y-121801000D02*
X158087600Y-125857000D01*
X163617000Y-121801000D02*
X162143600Y-121801000D01*
X165184200Y-122301000D02*
X163617000Y-122301000D01*
X166292400Y-123409200D02*
X165184200Y-122301000D01*
X166292400Y-127233600D02*
X166292400Y-123409200D01*
X162676400Y-130849600D02*
X166292400Y-127233600D01*
X162676400Y-142354600D02*
X162676400Y-130849600D01*
X160249200Y-144781800D02*
X162676400Y-142354600D01*
X157203800Y-144781800D02*
X160249200Y-144781800D01*
X145087000Y-132665000D02*
X157203800Y-144781800D01*
X145087000Y-131445000D02*
X145087000Y-132665000D01*
X163002000Y-112791000D02*
X163697000Y-112791000D01*
X163697000Y-112804800D02*
X163697000Y-112791000D01*
X164019400Y-113127200D02*
X163697000Y-112804800D01*
X161822100Y-121012100D02*
X161822100Y-120919800D01*
X160533200Y-122301000D02*
X161822100Y-121012100D01*
X159217000Y-122301000D02*
X160533200Y-122301000D01*
D41*
X159258000Y-143510000D02*
X159258000Y-142189700D01*
X165677000Y-123825000D02*
X165677000Y-124520300D01*
X165133200Y-124520300D02*
X165677000Y-124520300D01*
X159258000Y-130395500D02*
X165133200Y-124520300D01*
X159258000Y-142189700D02*
X159258000Y-130395500D01*
X155152000Y-114535000D02*
X157897300Y-114535000D01*
X157897300Y-114535000D02*
X158477900Y-114535000D01*
X142314000Y-121666000D02*
X142314000Y-120345700D01*
X149615700Y-114535000D02*
X149952000Y-114535000D01*
X149615700Y-114535000D02*
X148929400Y-114535000D01*
X150302000Y-114535000D02*
X150127000Y-114535000D01*
X150127000Y-114535000D02*
X149952000Y-114535000D01*
X155152000Y-114535000D02*
X152406700Y-114535000D01*
X151266900Y-113395100D02*
X152406700Y-114535000D01*
X150127000Y-114535000D02*
X151266900Y-113395100D01*
X152727000Y-111935000D02*
X152727000Y-111760000D01*
X151266900Y-113395100D02*
X152727000Y-111935000D01*
X150302000Y-108985000D02*
X153047300Y-108985000D01*
X153222300Y-111264700D02*
X153222300Y-109160000D01*
X152727000Y-111760000D02*
X153222300Y-111264700D01*
X154977000Y-109160000D02*
X153222300Y-109160000D01*
X155152000Y-108985000D02*
X154977000Y-109160000D01*
X153222300Y-109160000D02*
X153047300Y-108985000D01*
X143577000Y-111760000D02*
X146347300Y-111760000D01*
X148929400Y-114535000D02*
X147527900Y-114535000D01*
X147527900Y-115131800D02*
X147527900Y-114535000D01*
X142314000Y-120345700D02*
X147527900Y-115131800D01*
X147527900Y-112940600D02*
X146347300Y-111760000D01*
X147527900Y-114535000D02*
X147527900Y-112940600D01*
D11*
X158515000Y-121301000D02*
X158499000Y-121285000D01*
X159217000Y-121301000D02*
X158515000Y-121301000D01*
X157984000Y-121285000D02*
X158499000Y-121285000D01*
X158380000Y-122801000D02*
X158372000Y-122809000D01*
X159217000Y-122801000D02*
X158380000Y-122801000D01*
X157857000Y-122809000D02*
X158372000Y-122809000D01*
X164696000Y-123310000D02*
X164977000Y-123310000D01*
X164687000Y-123301000D02*
X164696000Y-123310000D01*
X163617000Y-123301000D02*
X164687000Y-123301000D01*
X164977000Y-123825000D02*
X164977000Y-123310000D01*
X163558000Y-111491000D02*
X163573000Y-111506000D01*
X163002000Y-111491000D02*
X163558000Y-111491000D01*
X164088000Y-111506000D02*
X163573000Y-111506000D01*
X158147000Y-123408000D02*
X157857000Y-123698000D01*
X158147000Y-123301000D02*
X158147000Y-123408000D01*
X159217000Y-123301000D02*
X158147000Y-123301000D01*
X160546000Y-112791000D02*
X160531000Y-112776000D01*
X161102000Y-112791000D02*
X160546000Y-112791000D01*
X160016000Y-112776000D02*
X160531000Y-112776000D01*
X163775000Y-117144000D02*
X163650000Y-117144000D01*
X164354000Y-116565000D02*
X163775000Y-117144000D01*
X164354000Y-115570000D02*
X164354000Y-116565000D01*
X163650000Y-117754000D02*
X163650000Y-117144000D01*
X163650000Y-117754000D02*
X163650000Y-118364000D01*
X164687000Y-118581000D02*
X164687000Y-121301000D01*
X164470000Y-118364000D02*
X164687000Y-118581000D01*
X163617000Y-121301000D02*
X164687000Y-121301000D01*
X163650000Y-118364000D02*
X164470000Y-118364000D01*
X162039700Y-122801000D02*
X163617000Y-122801000D01*
X157798300Y-127042400D02*
X162039700Y-122801000D01*
X144568000Y-127042400D02*
X157798300Y-127042400D01*
X143154400Y-125628800D02*
X144568000Y-127042400D01*
X143154400Y-124381400D02*
X143154400Y-125628800D01*
X141473600Y-122700600D02*
X143154400Y-124381400D01*
X141473600Y-119832200D02*
X141473600Y-122700600D01*
X146267400Y-115038400D02*
X141473600Y-119832200D01*
X146267400Y-113562700D02*
X146267400Y-115038400D01*
X145405100Y-112700400D02*
X146267400Y-113562700D01*
X141112400Y-112700400D02*
X145405100Y-112700400D01*
X140877000Y-112465000D02*
X141112400Y-112700400D01*
X140877000Y-109250000D02*
X140877000Y-112465000D01*
X140907000Y-109220000D02*
X140877000Y-109250000D01*
X143577000Y-109220000D02*
X140907000Y-109220000D01*
D39*
X145580900Y-97210600D02*
X145144300Y-96774000D01*
X150352500Y-97210600D02*
X145580900Y-97210600D01*
X150710400Y-96852700D02*
X150352500Y-97210600D01*
X150710400Y-93070400D02*
X150710400Y-96852700D01*
X150030000Y-92390000D02*
X150710400Y-93070400D01*
X143764000Y-96774000D02*
X145144300Y-96774000D01*
D40*
X157220400Y-122078800D02*
X157284000Y-122015200D01*
X157157000Y-122078800D02*
X157220400Y-122078800D01*
X157284000Y-121285000D02*
X157284000Y-122015200D01*
X157157000Y-122809000D02*
X157157000Y-122078800D01*
D39*
X134052000Y-110528100D02*
X131552000Y-110528100D01*
X134052000Y-110815000D02*
X136552000Y-110815000D01*
X134052000Y-111102000D02*
X134052000Y-110815000D01*
X134052000Y-110815000D02*
X134052000Y-110528100D01*
X136552000Y-111102000D02*
X136552000Y-110815000D01*
X150061000Y-121666000D02*
X150576200Y-121666000D01*
D40*
X157073400Y-122892600D02*
X157157000Y-122809000D01*
D39*
X131552000Y-111102000D02*
X131552000Y-110815000D01*
X129052000Y-111102000D02*
X129052000Y-108806700D01*
X131552000Y-110815000D02*
X131552000Y-110528100D01*
X130202700Y-108806700D02*
X129052000Y-108806700D01*
X131552000Y-110156000D02*
X130202700Y-108806700D01*
X131552000Y-110528100D02*
X131552000Y-110156000D01*
X124942300Y-104697000D02*
X129052000Y-108806700D01*
X108256300Y-104697000D02*
X124942300Y-104697000D01*
X106683300Y-103124000D02*
X108256300Y-104697000D01*
X150576200Y-121666000D02*
X151601900Y-122691700D01*
X154506400Y-122892600D02*
X157073400Y-122892600D01*
X154265800Y-123133200D02*
X154506400Y-122892600D01*
X152043400Y-123133200D02*
X154265800Y-123133200D01*
X151601900Y-122691700D02*
X152043400Y-123133200D01*
X105278000Y-103124000D02*
X106683300Y-103124000D01*
D40*
X164813400Y-111480600D02*
X164788000Y-111506000D01*
D39*
X142124600Y-105242400D02*
X146050000Y-105242400D01*
X136552000Y-110815000D02*
X142124600Y-105242400D01*
X146050000Y-105242400D02*
X146050000Y-104995100D01*
X170942000Y-96954000D02*
X170942000Y-97984300D01*
X165879900Y-107053200D02*
X163333300Y-109599800D01*
X165879900Y-103046400D02*
X165879900Y-107053200D01*
X170942000Y-97984300D02*
X165879900Y-103046400D01*
X158975800Y-105242400D02*
X163333300Y-109599800D01*
X146050000Y-105242400D02*
X158975800Y-105242400D01*
X164813400Y-111080000D02*
X164813400Y-111480600D01*
X163333300Y-109599800D02*
X164813400Y-111080000D01*
X105278000Y-91948000D02*
X105278000Y-98044000D01*
X105278000Y-91948000D02*
X106683300Y-91948000D01*
X107588600Y-91042700D02*
X106683300Y-91948000D01*
X115064600Y-91042700D02*
X107588600Y-91042700D01*
X116724700Y-89382600D02*
X115064600Y-91042700D01*
X117755000Y-89382600D02*
X117239900Y-89382600D01*
X117239900Y-89382600D02*
X116724700Y-89382600D01*
X85470300Y-85989700D02*
X85100000Y-86360000D01*
X102994400Y-85989700D02*
X85470300Y-85989700D01*
X103872700Y-86868000D02*
X102994400Y-85989700D01*
X105278000Y-86868000D02*
X103872700Y-86868000D01*
X105278000Y-86868000D02*
X106683300Y-86868000D01*
X126139400Y-94332600D02*
X127508000Y-92964000D01*
X122870000Y-94332600D02*
X126139400Y-94332600D01*
X122554200Y-94648400D02*
X122870000Y-94332600D01*
X120367300Y-94648400D02*
X122554200Y-94648400D01*
X119214400Y-93495500D02*
X120367300Y-94648400D01*
X119214400Y-91357100D02*
X119214400Y-93495500D01*
X117239900Y-89382600D02*
X119214400Y-91357100D01*
X107588600Y-85962700D02*
X106683300Y-86868000D01*
X119554700Y-85962700D02*
X107588600Y-85962700D01*
X122870000Y-89278000D02*
X119554700Y-85962700D01*
X122870000Y-94332600D02*
X122870000Y-89278000D01*
M02*
