G04 #@! TF.FileFunction,Copper,L2,Bot,Signal*
%FSLAX46Y46*%
G04 Gerber Fmt 4.6, Leading zero omitted, Abs format (unit mm)*
G04 Created by KiCad (PCBNEW 4.0.5-e0-6337~49~ubuntu14.04.1) date Mon Feb  6 21:45:33 2017*
%MOMM*%
%LPD*%
G01*
G04 APERTURE LIST*
%ADD10C,0.100000*%
%ADD11C,1.524000*%
%ADD12C,1.143000*%
%ADD13R,1.524000X1.524000*%
%ADD14R,1.600000X1.600000*%
%ADD15O,1.600000X1.600000*%
%ADD16C,2.500000*%
%ADD17C,1.600000*%
%ADD18C,1.300000*%
%ADD19R,1.300000X1.300000*%
%ADD20C,1.700000*%
%ADD21R,1.700000X1.700000*%
%ADD22O,1.506220X3.014980*%
%ADD23O,1.800860X3.500120*%
%ADD24C,0.600000*%
%ADD25C,1.000000*%
%ADD26C,0.450000*%
G04 APERTURE END LIST*
D10*
D11*
X170434000Y-90932000D03*
X167894000Y-90932000D03*
X165354000Y-90932000D03*
X165354000Y-88392000D03*
X167894000Y-88392000D03*
X170434000Y-88392000D03*
X164084000Y-106934000D03*
X169164000Y-106934000D03*
X164084000Y-104394000D03*
X164084000Y-101854000D03*
X169164000Y-101854000D03*
D12*
X111760000Y-143764000D03*
X157734000Y-136906000D03*
X140208000Y-143764000D03*
D13*
X124968000Y-106934000D03*
D11*
X127508000Y-106934000D03*
X130048000Y-106934000D03*
X132588000Y-106934000D03*
D14*
X106426000Y-89154000D03*
D15*
X114046000Y-94234000D03*
X106426000Y-91694000D03*
X114046000Y-91694000D03*
X106426000Y-94234000D03*
X114046000Y-89154000D03*
D16*
X161036000Y-131064000D03*
X157226000Y-131064000D03*
X153416000Y-131064000D03*
D17*
X65800000Y-110000000D03*
X63500000Y-112500000D03*
X65500000Y-105900000D03*
D16*
X61214000Y-143256000D03*
X78994000Y-143256000D03*
X78994000Y-133350000D03*
X61214000Y-127000000D03*
X78994000Y-127000000D03*
X78994000Y-117094000D03*
D18*
X155646000Y-104902000D03*
D19*
X152146000Y-104902000D03*
D14*
X99060000Y-143510000D03*
D15*
X91440000Y-138430000D03*
X99060000Y-140970000D03*
X91440000Y-140970000D03*
X99060000Y-138430000D03*
X91440000Y-143510000D03*
D13*
X124968000Y-92964000D03*
D11*
X127508000Y-92964000D03*
X130048000Y-92964000D03*
X132588000Y-92964000D03*
D14*
X106426000Y-100330000D03*
D15*
X114046000Y-105410000D03*
X106426000Y-102870000D03*
X114046000Y-102870000D03*
X106426000Y-105410000D03*
X114046000Y-100330000D03*
D20*
X85100000Y-86360000D03*
X85090000Y-101566000D03*
X82560000Y-86360000D03*
X80020000Y-86360000D03*
D21*
X77480000Y-86370000D03*
D20*
X82560000Y-101566000D03*
X80020000Y-101566000D03*
D21*
X77480000Y-101566000D03*
D20*
X97790000Y-87480000D03*
X97790000Y-90020000D03*
X97790000Y-92560000D03*
X97790000Y-95100000D03*
X97790000Y-97640000D03*
D21*
X97790000Y-100180000D03*
D22*
X114300000Y-117602000D03*
X111760000Y-117602000D03*
D23*
X90932000Y-124460000D03*
X88392000Y-124460000D03*
D12*
X134620000Y-143764000D03*
D24*
X108865300Y-135860000D03*
X153752400Y-90221500D03*
X108096300Y-125795900D03*
X153651800Y-142516600D03*
X141491800Y-133260800D03*
X130517900Y-133968100D03*
X116575800Y-136845800D03*
X146857000Y-98885200D03*
X129351200Y-113008300D03*
X135503200Y-92841600D03*
X144475500Y-136175400D03*
X143058800Y-141725800D03*
X96725900Y-121855300D03*
X161756000Y-143764000D03*
X155342900Y-94030700D03*
X156512000Y-93152000D03*
D25*
X98955000Y-97640000D02*
X104901000Y-91694000D01*
X97790000Y-97640000D02*
X98955000Y-97640000D01*
X131826000Y-140970000D02*
X99060000Y-140970000D01*
X134620000Y-143764000D02*
X131826000Y-140970000D01*
X124968000Y-106934000D02*
X124968000Y-105447000D01*
X105663500Y-91694000D02*
X104901000Y-91694000D01*
X126385800Y-91546200D02*
X124968000Y-92964000D01*
X133174700Y-91546200D02*
X126385800Y-91546200D01*
X134009800Y-92381300D02*
X133174700Y-91546200D01*
X134009800Y-96405200D02*
X134009800Y-92381300D01*
X147149200Y-96405200D02*
X134009800Y-96405200D01*
X155646000Y-104902000D02*
X147149200Y-96405200D01*
X134009800Y-96405200D02*
X124968000Y-105447000D01*
X105663500Y-91694000D02*
X106426000Y-91694000D01*
X118195100Y-87678100D02*
X123481000Y-92964000D01*
X111966900Y-87678100D02*
X118195100Y-87678100D01*
X107951000Y-91694000D02*
X111966900Y-87678100D01*
X106426000Y-91694000D02*
X107951000Y-91694000D01*
X124968000Y-92964000D02*
X123481000Y-92964000D01*
X65364700Y-112500000D02*
X63500000Y-112500000D01*
X75905000Y-101959700D02*
X65364700Y-112500000D01*
X75905000Y-101566000D02*
X75905000Y-101959700D01*
X77480000Y-101566000D02*
X75905000Y-101566000D01*
X93240300Y-143510000D02*
X93240300Y-138430000D01*
X91440000Y-143510000D02*
X93240300Y-143510000D01*
X91440000Y-138430000D02*
X93240300Y-138430000D01*
X114046000Y-94234000D02*
X114046000Y-95759000D01*
X114046000Y-102870000D02*
X115571000Y-102870000D01*
X115571000Y-97284000D02*
X115571000Y-102870000D01*
X114046000Y-95759000D02*
X115571000Y-97284000D01*
X121037400Y-108336400D02*
X115571000Y-102870000D01*
X126105600Y-108336400D02*
X121037400Y-108336400D01*
X127508000Y-106934000D02*
X126105600Y-108336400D01*
D26*
X95984300Y-122979000D02*
X108865300Y-135860000D01*
X95984300Y-96905700D02*
X95984300Y-122979000D01*
X97790000Y-95100000D02*
X95984300Y-96905700D01*
X113662400Y-104160000D02*
X114046000Y-104160000D01*
X112843300Y-103340900D02*
X113662400Y-104160000D01*
X112843300Y-102421500D02*
X112843300Y-103340900D01*
X113684800Y-101580000D02*
X112843300Y-102421500D01*
X114046000Y-101580000D02*
X113684800Y-101580000D01*
X114046000Y-100330000D02*
X114046000Y-101580000D01*
X114046000Y-105410000D02*
X114046000Y-104160000D01*
X128909500Y-94102500D02*
X130048000Y-92964000D01*
X119049100Y-94102500D02*
X128909500Y-94102500D01*
X118006500Y-93059900D02*
X119049100Y-94102500D01*
X113521900Y-93059900D02*
X118006500Y-93059900D01*
X107676000Y-98905800D02*
X113521900Y-93059900D01*
X107676000Y-101229400D02*
X107676000Y-98905800D01*
X107285400Y-101620000D02*
X107676000Y-101229400D01*
X106426000Y-101620000D02*
X107285400Y-101620000D01*
X106426000Y-102870000D02*
X106426000Y-101620000D01*
X92836000Y-91290000D02*
X82560000Y-101566000D01*
X98778700Y-91290000D02*
X92836000Y-91290000D01*
X103881900Y-86186800D02*
X98778700Y-91290000D01*
X149717700Y-86186800D02*
X103881900Y-86186800D01*
X153752400Y-90221500D02*
X149717700Y-86186800D01*
D25*
X111760000Y-122132200D02*
X108096300Y-125795900D01*
X111760000Y-117602000D02*
X111760000Y-122132200D01*
D26*
X144396000Y-133260800D02*
X141491800Y-133260800D01*
X153651800Y-142516600D02*
X144396000Y-133260800D01*
X127640200Y-136845800D02*
X130517900Y-133968100D01*
X116575800Y-136845800D02*
X127640200Y-136845800D01*
D25*
X138808200Y-106934000D02*
X146857000Y-98885200D01*
X132588000Y-106934000D02*
X138808200Y-106934000D01*
X159090500Y-88392000D02*
X165354000Y-88392000D01*
X154018900Y-93463600D02*
X159090500Y-88392000D01*
X154018900Y-95291800D02*
X154018900Y-93463600D01*
X157304100Y-98577000D02*
X154018900Y-95291800D01*
X157304100Y-105604800D02*
X157304100Y-98577000D01*
X149900600Y-113008300D02*
X157304100Y-105604800D01*
X129351200Y-113008300D02*
X149900600Y-113008300D01*
D26*
X71120000Y-133350000D02*
X61214000Y-143256000D01*
X78994000Y-133350000D02*
X71120000Y-133350000D01*
X135503200Y-92650900D02*
X135503200Y-92841600D01*
X129629500Y-86777200D02*
X135503200Y-92650900D01*
X105311800Y-86777200D02*
X129629500Y-86777200D01*
X98259000Y-93830000D02*
X105311800Y-86777200D01*
X97316900Y-93830000D02*
X98259000Y-93830000D01*
X86169000Y-104977900D02*
X97316900Y-93830000D01*
X86169000Y-126175000D02*
X86169000Y-104977900D01*
X78994000Y-133350000D02*
X86169000Y-126175000D01*
X82595400Y-88804600D02*
X65500000Y-105900000D01*
X96465400Y-88804600D02*
X82595400Y-88804600D01*
X97790000Y-87480000D02*
X96465400Y-88804600D01*
D25*
X89639700Y-136391100D02*
X89639700Y-140970000D01*
X90932000Y-135098800D02*
X89639700Y-136391100D01*
X90932000Y-124460000D02*
X90932000Y-135098800D01*
X91440000Y-140970000D02*
X89639700Y-140970000D01*
D26*
X143058800Y-137592100D02*
X143058800Y-141725800D01*
X144475500Y-136175400D02*
X143058800Y-137592100D01*
X106426000Y-100330000D02*
X105176000Y-100330000D01*
X96574700Y-121704100D02*
X96725900Y-121855300D01*
X96574700Y-99103300D02*
X96574700Y-121704100D01*
X96713400Y-98964600D02*
X96574700Y-99103300D01*
X103810600Y-98964600D02*
X96713400Y-98964600D01*
X105176000Y-100330000D02*
X103810600Y-98964600D01*
X159408500Y-141416500D02*
X161756000Y-143764000D01*
X159408500Y-98096300D02*
X159408500Y-141416500D01*
X155342900Y-94030700D02*
X159408500Y-98096300D01*
X161036000Y-97676000D02*
X156512000Y-93152000D01*
X161036000Y-131064000D02*
X161036000Y-97676000D01*
X97790000Y-100180000D02*
X99090000Y-100180000D01*
X140395600Y-114233600D02*
X157226000Y-131064000D01*
X113143600Y-114233600D02*
X140395600Y-114233600D01*
X99090000Y-100180000D02*
X113143600Y-114233600D01*
M02*
