G04 #@! TF.FileFunction,Copper,L1,Top,Signal*
%FSLAX46Y46*%
G04 Gerber Fmt 4.6, Leading zero omitted, Abs format (unit mm)*
G04 Created by KiCad (PCBNEW 4.0.5-e0-6337~49~ubuntu14.04.1) date Sun Feb  5 22:26:14 2017*
%MOMM*%
%LPD*%
G01*
G04 APERTURE LIST*
%ADD10C,0.100000*%
%ADD11C,1.524000*%
%ADD12R,1.060000X0.650000*%
%ADD13R,1.700000X0.650000*%
%ADD14R,2.030000X1.270000*%
%ADD15R,1.700000X0.900000*%
%ADD16R,0.900000X1.700000*%
%ADD17R,2.500000X1.800000*%
%ADD18R,1.000000X1.250000*%
%ADD19C,1.143000*%
%ADD20R,1.550000X0.600000*%
%ADD21R,1.524000X1.524000*%
%ADD22R,1.600000X1.600000*%
%ADD23O,1.600000X1.600000*%
%ADD24C,2.500000*%
%ADD25R,1.780000X1.020000*%
%ADD26C,1.600000*%
%ADD27R,0.900000X1.200000*%
%ADD28R,2.500000X2.300000*%
%ADD29C,1.300000*%
%ADD30R,1.300000X1.300000*%
%ADD31C,1.700000*%
%ADD32R,1.700000X1.700000*%
%ADD33O,1.506220X3.014980*%
%ADD34R,0.600000X0.450000*%
%ADD35O,1.800860X3.500120*%
%ADD36C,0.600000*%
%ADD37C,0.450000*%
%ADD38C,1.000000*%
%ADD39C,0.649800*%
G04 APERTURE END LIST*
D10*
D11*
X170434000Y-90932000D03*
X167894000Y-90932000D03*
X165354000Y-90932000D03*
X165354000Y-88392000D03*
X167894000Y-88392000D03*
X170434000Y-88392000D03*
X164084000Y-106934000D03*
X169164000Y-106934000D03*
X164084000Y-104394000D03*
X164084000Y-101854000D03*
X169164000Y-101854000D03*
D12*
X155532000Y-93152000D03*
X155532000Y-92202000D03*
X155532000Y-91252000D03*
X153332000Y-91252000D03*
X153332000Y-93152000D03*
X153332000Y-92202000D03*
D13*
X157574000Y-143891000D03*
X157574000Y-142621000D03*
X157574000Y-141351000D03*
X157574000Y-140081000D03*
X150274000Y-140081000D03*
X150274000Y-141351000D03*
X150274000Y-142621000D03*
X150274000Y-143891000D03*
D14*
X121539000Y-127254000D03*
X132969000Y-127254000D03*
X121539000Y-129754000D03*
X132969000Y-129754000D03*
X132969000Y-124754000D03*
X121539000Y-124754000D03*
D15*
X168148000Y-94054000D03*
X168148000Y-96954000D03*
X165354000Y-96954000D03*
X165354000Y-94054000D03*
D16*
X111580000Y-112014000D03*
X114480000Y-112014000D03*
X114734000Y-138176000D03*
X111834000Y-138176000D03*
X144092000Y-141732000D03*
X146992000Y-141732000D03*
X144600000Y-133350000D03*
X147500000Y-133350000D03*
X116914000Y-112014000D03*
X119814000Y-112014000D03*
X161364000Y-138938000D03*
X164264000Y-138938000D03*
X167460000Y-139954000D03*
X170360000Y-139954000D03*
X90752000Y-116078000D03*
X93652000Y-116078000D03*
D17*
X103918000Y-123952000D03*
X107918000Y-123952000D03*
X111538000Y-123952000D03*
X115538000Y-123952000D03*
X111538000Y-128270000D03*
X115538000Y-128270000D03*
D18*
X153654000Y-120904000D03*
X151654000Y-120904000D03*
X135620000Y-114808000D03*
X133620000Y-114808000D03*
X98900000Y-127100000D03*
X96900000Y-127100000D03*
X114538000Y-132080000D03*
X112538000Y-132080000D03*
X159274000Y-115062000D03*
X161274000Y-115062000D03*
D19*
X112014000Y-144018000D03*
X157734000Y-136906000D03*
X140970000Y-144272000D03*
D20*
X126332000Y-137795000D03*
X126332000Y-139065000D03*
X126332000Y-140335000D03*
X126332000Y-141605000D03*
X131732000Y-141605000D03*
X131732000Y-140335000D03*
X131732000Y-139065000D03*
X131732000Y-137795000D03*
D21*
X124968000Y-106934000D03*
D11*
X127508000Y-106934000D03*
X130048000Y-106934000D03*
X132588000Y-106934000D03*
D22*
X106426000Y-89154000D03*
D23*
X114046000Y-94234000D03*
X106426000Y-91694000D03*
X114046000Y-91694000D03*
X106426000Y-94234000D03*
X114046000Y-89154000D03*
D24*
X161036000Y-131064000D03*
X157226000Y-131064000D03*
X153416000Y-131064000D03*
D16*
X160856000Y-143764000D03*
X163756000Y-143764000D03*
X104214000Y-136398000D03*
X107114000Y-136398000D03*
X118438000Y-137414000D03*
X121338000Y-137414000D03*
X85672000Y-143002000D03*
X88572000Y-143002000D03*
D15*
X170688000Y-94054000D03*
X170688000Y-96954000D03*
D25*
X153416000Y-114680000D03*
X153416000Y-116460000D03*
D26*
X65800000Y-110000000D03*
X63500000Y-112500000D03*
X65500000Y-105900000D03*
D24*
X61214000Y-143256000D03*
X78994000Y-143256000D03*
X78994000Y-133350000D03*
X61214000Y-127000000D03*
X78994000Y-127000000D03*
X78994000Y-117094000D03*
D27*
X125856000Y-112014000D03*
X122556000Y-112014000D03*
D28*
X91304000Y-110744000D03*
X87004000Y-110744000D03*
X78876000Y-110744000D03*
X83176000Y-110744000D03*
X117484000Y-143764000D03*
X121784000Y-143764000D03*
D29*
X155646000Y-104902000D03*
D30*
X152146000Y-104902000D03*
D18*
X142986000Y-137414000D03*
X140986000Y-137414000D03*
X86376000Y-116078000D03*
X88376000Y-116078000D03*
X138160000Y-137414000D03*
X136160000Y-137414000D03*
D22*
X99060000Y-143510000D03*
D23*
X91440000Y-138430000D03*
X99060000Y-140970000D03*
X91440000Y-140970000D03*
X99060000Y-138430000D03*
X91440000Y-143510000D03*
D21*
X124968000Y-92964000D03*
D11*
X127508000Y-92964000D03*
X130048000Y-92964000D03*
X132588000Y-92964000D03*
D22*
X106426000Y-100330000D03*
D23*
X114046000Y-105410000D03*
X106426000Y-102870000D03*
X114046000Y-102870000D03*
X106426000Y-105410000D03*
X114046000Y-100330000D03*
D31*
X85100000Y-86360000D03*
X85090000Y-101566000D03*
X82560000Y-86360000D03*
X80020000Y-86360000D03*
D32*
X77480000Y-86370000D03*
D31*
X82560000Y-101566000D03*
X80020000Y-101566000D03*
D32*
X77480000Y-101566000D03*
D31*
X97790000Y-87480000D03*
X97790000Y-90020000D03*
X97790000Y-92560000D03*
X97790000Y-95100000D03*
X97790000Y-97640000D03*
D32*
X97790000Y-100180000D03*
D33*
X114300000Y-117602000D03*
X111760000Y-117602000D03*
D34*
X140174000Y-130048000D03*
X142274000Y-130048000D03*
X140174000Y-133096000D03*
X142274000Y-133096000D03*
D35*
X90932000Y-124460000D03*
X88392000Y-124460000D03*
D19*
X135128000Y-144272000D03*
D36*
X149165400Y-115594800D03*
X108014000Y-136398000D03*
X128524600Y-100431600D03*
X90159300Y-95923000D03*
X107927200Y-122051700D03*
X131513200Y-133716900D03*
X114903700Y-136876000D03*
X152794200Y-96820500D03*
X137466400Y-105315800D03*
X123875200Y-97518300D03*
X97302400Y-121280500D03*
X160922600Y-142303200D03*
X152352000Y-92202000D03*
X156512000Y-93152000D03*
D37*
X132969000Y-129754000D02*
X131504000Y-129754000D01*
X131504000Y-118924000D02*
X131504000Y-129754000D01*
X134670000Y-115758000D02*
X131504000Y-118924000D01*
X134670000Y-114808000D02*
X134670000Y-115758000D01*
X135620000Y-114808000D02*
X134670000Y-114808000D01*
X132957000Y-137795000D02*
X132957000Y-139065000D01*
X131732000Y-139065000D02*
X132957000Y-139065000D01*
X131732000Y-137795000D02*
X132344500Y-137795000D01*
X132344500Y-137795000D02*
X132957000Y-137795000D01*
X130833600Y-130424400D02*
X131504000Y-129754000D01*
X130833600Y-136284100D02*
X130833600Y-130424400D01*
X132344500Y-137795000D02*
X130833600Y-136284100D01*
D38*
X136160000Y-137414000D02*
X136160000Y-138436500D01*
X136160000Y-138436500D02*
X136160000Y-138679400D01*
X136160000Y-138679400D02*
X136160000Y-138764000D01*
X139761000Y-137873400D02*
X139761000Y-137414000D01*
X138955000Y-138679400D02*
X139761000Y-137873400D01*
X136160000Y-138679400D02*
X138955000Y-138679400D01*
X140986000Y-137414000D02*
X139761000Y-137414000D01*
X161274000Y-110530000D02*
X161274000Y-115062000D01*
X155646000Y-104902000D02*
X161274000Y-110530000D01*
X151654000Y-120904000D02*
X150429000Y-120904000D01*
X149165400Y-119640400D02*
X150429000Y-120904000D01*
X149165400Y-115594800D02*
X149165400Y-119640400D01*
X134589000Y-140335000D02*
X136160000Y-138764000D01*
X133232000Y-140335000D02*
X134589000Y-140335000D01*
X157574000Y-143891000D02*
X155999000Y-143891000D01*
X157574000Y-143891000D02*
X159149000Y-143891000D01*
X159149000Y-144284800D02*
X159149000Y-143891000D01*
X160148200Y-145284000D02*
X159149000Y-144284800D01*
X161575100Y-145284000D02*
X160148200Y-145284000D01*
X162581000Y-144278100D02*
X161575100Y-145284000D01*
X162581000Y-143764000D02*
X162581000Y-144278100D01*
X96900000Y-138810000D02*
X96900000Y-127100000D01*
X99060000Y-140970000D02*
X96900000Y-138810000D01*
X126332000Y-140335000D02*
X127039700Y-140335000D01*
X127039700Y-140335000D02*
X127747400Y-140335000D01*
X127832000Y-141075200D02*
X127832000Y-141605000D01*
X127091800Y-140335000D02*
X127832000Y-141075200D01*
X127039700Y-140335000D02*
X127091800Y-140335000D01*
X126332000Y-141605000D02*
X127832000Y-141605000D01*
X81406000Y-97640000D02*
X77480000Y-101566000D01*
X97790000Y-97640000D02*
X81406000Y-97640000D01*
X65364700Y-112500000D02*
X63500000Y-112500000D01*
X75905000Y-101959700D02*
X65364700Y-112500000D01*
X75905000Y-101566000D02*
X75905000Y-101959700D01*
X77480000Y-101566000D02*
X75905000Y-101566000D01*
X132482000Y-140335000D02*
X132482000Y-141605000D01*
X131732000Y-141605000D02*
X132482000Y-141605000D01*
X131732000Y-140335000D02*
X132482000Y-140335000D01*
X132482000Y-140335000D02*
X133232000Y-140335000D01*
X136357600Y-145501600D02*
X135128000Y-144272000D01*
X154388400Y-145501600D02*
X136357600Y-145501600D01*
X155999000Y-143891000D02*
X154388400Y-145501600D01*
X132482000Y-141626000D02*
X132482000Y-141605000D01*
X135128000Y-144272000D02*
X132482000Y-141626000D01*
X147028600Y-113458000D02*
X133620000Y-113458000D01*
X149165400Y-115594800D02*
X147028600Y-113458000D01*
X170434000Y-88392000D02*
X167894000Y-88392000D01*
X163168500Y-143764000D02*
X162581000Y-143764000D01*
X163168500Y-143764000D02*
X163756000Y-143764000D01*
X164264000Y-138938000D02*
X164264000Y-140513000D01*
X163756000Y-141021000D02*
X164264000Y-140513000D01*
X163756000Y-143764000D02*
X163756000Y-141021000D01*
X126332000Y-137795000D02*
X127832000Y-137795000D01*
X127832000Y-140335000D02*
X127832000Y-137795000D01*
X131732000Y-140335000D02*
X127832000Y-140335000D01*
X127832000Y-140335000D02*
X127747400Y-140335000D01*
X133620000Y-114700700D02*
X133620000Y-113458000D01*
X133620000Y-114700700D02*
X133620000Y-114808000D01*
X127832000Y-119371000D02*
X127832000Y-137795000D01*
X132395000Y-114808000D02*
X127832000Y-119371000D01*
X133620000Y-114808000D02*
X132395000Y-114808000D01*
D39*
X156702400Y-92202000D02*
X155532000Y-92202000D01*
D38*
X127682600Y-90249400D02*
X124968000Y-92964000D01*
X156702400Y-90249400D02*
X127682600Y-90249400D01*
X156702400Y-92202000D02*
X156702400Y-90249400D01*
X166106500Y-86604500D02*
X167894000Y-88392000D01*
X160347300Y-86604500D02*
X166106500Y-86604500D01*
X156702400Y-90249400D02*
X160347300Y-86604500D01*
D37*
X153416000Y-116460000D02*
X153416000Y-117420000D01*
X153654000Y-117658000D02*
X153654000Y-120904000D01*
X153416000Y-117420000D02*
X153654000Y-117658000D01*
X149447700Y-124754000D02*
X132969000Y-124754000D01*
X152704000Y-121497700D02*
X149447700Y-124754000D01*
X152704000Y-120904000D02*
X152704000Y-121497700D01*
X153654000Y-120904000D02*
X152704000Y-120904000D01*
D38*
X109637700Y-125852300D02*
X111538000Y-123952000D01*
X103918000Y-125852300D02*
X109637700Y-125852300D01*
X103918000Y-123952000D02*
X103918000Y-125852300D01*
X97508400Y-123952000D02*
X103918000Y-123952000D01*
X91440000Y-130020400D02*
X97508400Y-123952000D01*
X91440000Y-138430000D02*
X91440000Y-130020400D01*
X153416000Y-114680000D02*
X153416000Y-114062500D01*
X153416000Y-107547000D02*
X152146000Y-106277000D01*
X153416000Y-114062500D02*
X153416000Y-107547000D01*
X159274000Y-115062000D02*
X158049000Y-115062000D01*
X157049500Y-114062500D02*
X158049000Y-115062000D01*
X153416000Y-114062500D02*
X157049500Y-114062500D01*
X152146000Y-104902000D02*
X152146000Y-106277000D01*
X114046000Y-94234000D02*
X115571000Y-94234000D01*
X161960100Y-116412000D02*
X159274000Y-116412000D01*
X170688000Y-107684100D02*
X161960100Y-116412000D01*
X170688000Y-96954000D02*
X170688000Y-107684100D01*
X159274000Y-115062000D02*
X159274000Y-116412000D01*
D39*
X153051400Y-93432600D02*
X153332000Y-93152000D01*
D38*
X128930500Y-94386500D02*
X127508000Y-92964000D01*
X152097500Y-94386500D02*
X128930500Y-94386500D01*
X153051400Y-93432600D02*
X152097500Y-94386500D01*
X109319900Y-85952900D02*
X112521000Y-89154000D01*
X85507100Y-85952900D02*
X109319900Y-85952900D01*
X85100000Y-86360000D02*
X85507100Y-85952900D01*
X114046000Y-89154000D02*
X112521000Y-89154000D01*
X114046000Y-89154000D02*
X115571000Y-89154000D01*
X115703400Y-94366400D02*
X115571000Y-94234000D01*
X126105600Y-94366400D02*
X115703400Y-94366400D01*
X127508000Y-92964000D02*
X126105600Y-94366400D01*
X115571000Y-94234000D02*
X115571000Y-89154000D01*
X157574000Y-140081000D02*
X155999000Y-140081000D01*
X151849000Y-143145800D02*
X154572400Y-140422400D01*
X151849000Y-143891000D02*
X151849000Y-143145800D01*
X155657600Y-140422400D02*
X155999000Y-140081000D01*
X154572400Y-140422400D02*
X155657600Y-140422400D01*
X150274000Y-143891000D02*
X151849000Y-143891000D01*
X147500000Y-133350000D02*
X148675000Y-133350000D01*
X148318000Y-144272000D02*
X148699000Y-143891000D01*
X140970000Y-144272000D02*
X148318000Y-144272000D01*
X150274000Y-143891000D02*
X148699000Y-143891000D01*
X148675000Y-134525000D02*
X148675000Y-133350000D01*
X154572400Y-140422400D02*
X148675000Y-134525000D01*
D37*
X112570000Y-126920000D02*
X115538000Y-123952000D01*
X111538000Y-126920000D02*
X112570000Y-126920000D01*
X111538000Y-128270000D02*
X111538000Y-126920000D01*
X118438000Y-137414000D02*
X117538000Y-137414000D01*
X112268000Y-143764000D02*
X112014000Y-144018000D01*
X117484000Y-143764000D02*
X112268000Y-143764000D01*
X111538000Y-128270000D02*
X111538000Y-129620000D01*
X117484000Y-137468000D02*
X117538000Y-137414000D01*
X117484000Y-143764000D02*
X117484000Y-137468000D01*
X111312600Y-129845400D02*
X111538000Y-129620000D01*
X111312600Y-133023100D02*
X111312600Y-129845400D01*
X111726700Y-133437200D02*
X111312600Y-133023100D01*
X114538000Y-133437200D02*
X111726700Y-133437200D01*
X114538000Y-132080000D02*
X114538000Y-133437200D01*
X114538000Y-134414000D02*
X117538000Y-137414000D01*
X114538000Y-133437200D02*
X114538000Y-134414000D01*
X111834000Y-138176000D02*
X110934000Y-138176000D01*
X107114000Y-136398000D02*
X108014000Y-136398000D01*
X109156000Y-136398000D02*
X110934000Y-138176000D01*
X108014000Y-136398000D02*
X109156000Y-136398000D01*
X114046000Y-105410000D02*
X115296000Y-105410000D01*
X117154500Y-103551500D02*
X115296000Y-105410000D01*
X136663100Y-103551500D02*
X117154500Y-103551500D01*
X136714400Y-103500200D02*
X136663100Y-103551500D01*
X138722600Y-103500200D02*
X136714400Y-103500200D01*
X138773900Y-103551500D02*
X138722600Y-103500200D01*
X163241500Y-103551500D02*
X138773900Y-103551500D01*
X164084000Y-104394000D02*
X163241500Y-103551500D01*
X127336200Y-101620000D02*
X128524600Y-100431600D01*
X108926000Y-101620000D02*
X127336200Y-101620000D01*
X107676000Y-102870000D02*
X108926000Y-101620000D01*
X106426000Y-102870000D02*
X107676000Y-102870000D01*
D38*
X121784000Y-143764000D02*
X121784000Y-141613700D01*
X76625700Y-111588300D02*
X76625700Y-110744000D01*
X61214000Y-127000000D02*
X76625700Y-111588300D01*
X121338000Y-141167700D02*
X121338000Y-137414000D01*
X121784000Y-141613700D02*
X121338000Y-141167700D01*
X121539000Y-129754000D02*
X119523700Y-129754000D01*
X121539000Y-129754000D02*
X123554300Y-129754000D01*
X77750900Y-110744000D02*
X78528900Y-110744000D01*
X77750900Y-110744000D02*
X76625700Y-110744000D01*
X93652000Y-116078000D02*
X95102300Y-116078000D01*
X78876000Y-110744000D02*
X78702500Y-110744000D01*
X78702500Y-110744000D02*
X78528900Y-110744000D01*
X97306300Y-112920500D02*
X97306300Y-113067200D01*
X92972100Y-108586300D02*
X97306300Y-112920500D01*
X80860200Y-108586300D02*
X92972100Y-108586300D01*
X78702500Y-110744000D02*
X80860200Y-108586300D01*
X95102300Y-115271200D02*
X95102300Y-116078000D01*
X97306300Y-113067200D02*
X95102300Y-115271200D01*
X109997700Y-113067200D02*
X97306300Y-113067200D01*
X109997700Y-119107300D02*
X109997700Y-113067200D01*
X112501600Y-121611200D02*
X109997700Y-119107300D01*
X121514500Y-121611200D02*
X112501600Y-121611200D01*
X123554300Y-123651000D02*
X121514500Y-121611200D01*
X123554300Y-129754000D02*
X123554300Y-123651000D01*
X126824000Y-110158000D02*
X130048000Y-106934000D01*
X110709800Y-110158000D02*
X126824000Y-110158000D01*
X109997700Y-110870100D02*
X110709800Y-110158000D01*
X109997700Y-113067200D02*
X109997700Y-110870100D01*
X112538000Y-132080000D02*
X112538000Y-130454700D01*
X119523700Y-130454700D02*
X112538000Y-130454700D01*
X119523700Y-135599700D02*
X119523700Y-130454700D01*
X121338000Y-137414000D02*
X119523700Y-135599700D01*
X119523700Y-130454700D02*
X119523700Y-129754000D01*
X91304000Y-110744000D02*
X91304000Y-112894300D01*
X87934400Y-112894300D02*
X91304000Y-112894300D01*
X86376000Y-114452700D02*
X87934400Y-112894300D01*
X86376000Y-116078000D02*
X86376000Y-114452700D01*
X86491300Y-117818600D02*
X86376000Y-117703300D01*
X86491300Y-124460000D02*
X86491300Y-117818600D01*
X86376000Y-116078000D02*
X86376000Y-117703300D01*
X88392000Y-124460000D02*
X87294100Y-124460000D01*
X87294100Y-124460000D02*
X86491300Y-124460000D01*
X84754100Y-127000000D02*
X78994000Y-127000000D01*
X87294100Y-124460000D02*
X84754100Y-127000000D01*
D37*
X157574000Y-141351000D02*
X158874000Y-141351000D01*
X170360000Y-139954000D02*
X169460000Y-139954000D01*
X160454200Y-136465800D02*
X158874000Y-138046000D01*
X166646800Y-136465800D02*
X160454200Y-136465800D01*
X169460000Y-139279000D02*
X166646800Y-136465800D01*
X169460000Y-139954000D02*
X169460000Y-139279000D01*
X157734000Y-136906000D02*
X158874000Y-138046000D01*
X158874000Y-138046000D02*
X158874000Y-141351000D01*
X154552000Y-93376500D02*
X154552000Y-91252000D01*
X152511000Y-95417500D02*
X154552000Y-93376500D01*
X103426600Y-95417500D02*
X152511000Y-95417500D01*
X99299100Y-91290000D02*
X103426600Y-95417500D01*
X94792300Y-91290000D02*
X99299100Y-91290000D01*
X90159300Y-95923000D02*
X94792300Y-91290000D01*
X155532000Y-91252000D02*
X154552000Y-91252000D01*
X167460000Y-139954000D02*
X166560000Y-139954000D01*
X163499800Y-137702200D02*
X162264000Y-138938000D01*
X164860700Y-137702200D02*
X163499800Y-137702200D01*
X166560000Y-139401500D02*
X164860700Y-137702200D01*
X166560000Y-139954000D02*
X166560000Y-139401500D01*
X161364000Y-138938000D02*
X162264000Y-138938000D01*
X126332000Y-139065000D02*
X125107000Y-139065000D01*
X98900000Y-127100000D02*
X99850000Y-127100000D01*
X166560000Y-142786500D02*
X166560000Y-139954000D01*
X162921500Y-146425000D02*
X166560000Y-142786500D01*
X127643500Y-146425000D02*
X162921500Y-146425000D01*
X125107000Y-143888500D02*
X127643500Y-146425000D01*
X125107000Y-139065000D02*
X125107000Y-143888500D01*
X106298600Y-133548600D02*
X99850000Y-127100000D01*
X106298600Y-139676200D02*
X106298600Y-133548600D01*
X112261800Y-145639400D02*
X106298600Y-139676200D01*
X123356100Y-145639400D02*
X112261800Y-145639400D01*
X125107000Y-143888500D02*
X123356100Y-145639400D01*
X143954100Y-140081000D02*
X150274000Y-140081000D01*
X141851400Y-137978300D02*
X143954100Y-140081000D01*
X141851400Y-136634300D02*
X141851400Y-137978300D01*
X141640700Y-136423600D02*
X141851400Y-136634300D01*
X139150400Y-136423600D02*
X141640700Y-136423600D01*
X138160000Y-137414000D02*
X139150400Y-136423600D01*
X88376000Y-116078000D02*
X90752000Y-116078000D01*
X142274000Y-130048000D02*
X142274000Y-130723000D01*
X142986000Y-131435000D02*
X142274000Y-130723000D01*
X142986000Y-136339000D02*
X142986000Y-131435000D01*
X146992000Y-141732000D02*
X147892000Y-141732000D01*
X148273000Y-141351000D02*
X147892000Y-141732000D01*
X149164000Y-141351000D02*
X148273000Y-141351000D01*
X142986000Y-137414000D02*
X142986000Y-136339000D01*
X149814000Y-141351000D02*
X149164000Y-141351000D01*
X149814000Y-141351000D02*
X150274000Y-141351000D01*
X142986000Y-137414000D02*
X143936000Y-137414000D01*
X145802000Y-139280000D02*
X143936000Y-137414000D01*
X151221300Y-139280000D02*
X145802000Y-139280000D01*
X151516600Y-139575300D02*
X151221300Y-139280000D01*
X151516600Y-140586100D02*
X151516600Y-139575300D01*
X150751700Y-141351000D02*
X151516600Y-140586100D01*
X150274000Y-141351000D02*
X150751700Y-141351000D01*
D38*
X119054000Y-124754000D02*
X121539000Y-124754000D01*
X117438300Y-126369700D02*
X119054000Y-124754000D01*
X115538000Y-126369700D02*
X117438300Y-126369700D01*
X115538000Y-128270000D02*
X115538000Y-126369700D01*
X111580000Y-114914200D02*
X111580000Y-112014000D01*
X111760000Y-115094200D02*
X111580000Y-114914200D01*
X111760000Y-117602000D02*
X111760000Y-115094200D01*
X107918000Y-123952000D02*
X107918000Y-122051700D01*
X107927200Y-122051700D02*
X107918000Y-122051700D01*
D37*
X140174000Y-133096000D02*
X140174000Y-130048000D01*
X140174000Y-130048000D02*
X140174000Y-129373000D01*
X157574000Y-142621000D02*
X158874000Y-142621000D01*
X148183000Y-129373000D02*
X140174000Y-129373000D01*
X153134200Y-134324200D02*
X148183000Y-129373000D01*
X166576300Y-134324200D02*
X153134200Y-134324200D01*
X171175400Y-138923300D02*
X166576300Y-134324200D01*
X171175400Y-141002500D02*
X171175400Y-138923300D01*
X171008500Y-141169400D02*
X171175400Y-141002500D01*
X169723000Y-141169400D02*
X171008500Y-141169400D01*
X168730300Y-140176700D02*
X169723000Y-141169400D01*
X168730300Y-139406900D02*
X168730300Y-140176700D01*
X166388800Y-137065400D02*
X168730300Y-139406900D01*
X161337200Y-137065400D02*
X166388800Y-137065400D01*
X159837400Y-138565200D02*
X161337200Y-137065400D01*
X159837400Y-141657600D02*
X159837400Y-138565200D01*
X158874000Y-142621000D02*
X159837400Y-141657600D01*
X140903100Y-133716900D02*
X131513200Y-133716900D01*
X141524000Y-133096000D02*
X140903100Y-133716900D01*
X114734000Y-138176000D02*
X114734000Y-136876000D01*
X142274000Y-133096000D02*
X141524000Y-133096000D01*
X114903700Y-136876000D02*
X114734000Y-136876000D01*
D38*
X83176000Y-110744000D02*
X87004000Y-110744000D01*
X127508000Y-112014000D02*
X132588000Y-106934000D01*
X125856000Y-112014000D02*
X127508000Y-112014000D01*
X160737200Y-96820500D02*
X163503700Y-94054000D01*
X152794200Y-96820500D02*
X160737200Y-96820500D01*
X165354000Y-94054000D02*
X163503700Y-94054000D01*
X119814000Y-112014000D02*
X122556000Y-112014000D01*
X129118800Y-113663400D02*
X137466400Y-105315800D01*
X125021200Y-113663400D02*
X129118800Y-113663400D01*
X124006300Y-112648500D02*
X125021200Y-113663400D01*
X124006300Y-112014000D02*
X124006300Y-112648500D01*
X122556000Y-112014000D02*
X124006300Y-112014000D01*
D37*
X170688000Y-91186000D02*
X170434000Y-90932000D01*
X170688000Y-94054000D02*
X170688000Y-91186000D01*
X168148000Y-91186000D02*
X167894000Y-90932000D01*
X168148000Y-94054000D02*
X168148000Y-91186000D01*
X166929300Y-92507300D02*
X165354000Y-90932000D01*
X166929300Y-94816200D02*
X166929300Y-92507300D01*
X165691500Y-96054000D02*
X166929300Y-94816200D01*
X165354000Y-96054000D02*
X165691500Y-96054000D01*
X165354000Y-96954000D02*
X165354000Y-96054000D01*
X84518000Y-143256000D02*
X84772000Y-143002000D01*
X78994000Y-143256000D02*
X84518000Y-143256000D01*
X85672000Y-143002000D02*
X84772000Y-143002000D01*
X168148000Y-96954000D02*
X168148000Y-97854000D01*
X167956200Y-98045800D02*
X168148000Y-97854000D01*
X124402700Y-98045800D02*
X167956200Y-98045800D01*
X123875200Y-97518300D02*
X124402700Y-98045800D01*
X87143700Y-87480000D02*
X97790000Y-87480000D01*
X68723700Y-105900000D02*
X87143700Y-87480000D01*
X65500000Y-105900000D02*
X68723700Y-105900000D01*
X108582000Y-87480000D02*
X112796000Y-91694000D01*
X97790000Y-87480000D02*
X108582000Y-87480000D01*
X114046000Y-91694000D02*
X112796000Y-91694000D01*
X144600000Y-133350000D02*
X145500000Y-133350000D01*
X150727700Y-142621000D02*
X150274000Y-142621000D01*
X152106900Y-141241800D02*
X150727700Y-142621000D01*
X152106900Y-139330800D02*
X152106900Y-141241800D01*
X151257000Y-138480900D02*
X152106900Y-139330800D01*
X150630900Y-138480900D02*
X151257000Y-138480900D01*
X145500000Y-133350000D02*
X150630900Y-138480900D01*
X146207400Y-142947400D02*
X144992000Y-141732000D01*
X148647600Y-142947400D02*
X146207400Y-142947400D01*
X148974000Y-142621000D02*
X148647600Y-142947400D01*
X150274000Y-142621000D02*
X148974000Y-142621000D01*
X144092000Y-141732000D02*
X144992000Y-141732000D01*
X88572000Y-130010900D02*
X88572000Y-143002000D01*
X97302400Y-121280500D02*
X88572000Y-130010900D01*
X99652000Y-142260000D02*
X104214000Y-137698000D01*
X99060000Y-142260000D02*
X99652000Y-142260000D01*
X99060000Y-143510000D02*
X99060000Y-142260000D01*
X104214000Y-136398000D02*
X104214000Y-137698000D01*
X153332000Y-92202000D02*
X152352000Y-92202000D01*
X160856000Y-143764000D02*
X160856000Y-142464000D01*
X160922600Y-142397400D02*
X160922600Y-142303200D01*
X160856000Y-142464000D02*
X160922600Y-142397400D01*
X155532000Y-93152000D02*
X156512000Y-93152000D01*
X97790000Y-100180000D02*
X99090000Y-100180000D01*
X105525200Y-106615200D02*
X99090000Y-100180000D01*
X121544500Y-106615200D02*
X105525200Y-106615200D01*
X124017900Y-104141800D02*
X121544500Y-106615200D01*
X136907600Y-104141800D02*
X124017900Y-104141800D01*
X136958900Y-104090500D02*
X136907600Y-104141800D01*
X138478200Y-104090500D02*
X136958900Y-104090500D01*
X138529500Y-104141800D02*
X138478200Y-104090500D01*
X139669700Y-104141800D02*
X138529500Y-104141800D01*
X151083300Y-115555400D02*
X139669700Y-104141800D01*
X154501200Y-115555400D02*
X151083300Y-115555400D01*
X157226000Y-118280200D02*
X154501200Y-115555400D01*
X157226000Y-131064000D02*
X157226000Y-118280200D01*
X104310000Y-90020000D02*
X105176000Y-89154000D01*
X97790000Y-90020000D02*
X104310000Y-90020000D01*
X106426000Y-89154000D02*
X105176000Y-89154000D01*
X161320600Y-99090600D02*
X164084000Y-101854000D01*
X104320600Y-99090600D02*
X161320600Y-99090600D01*
X97790000Y-92560000D02*
X104320600Y-99090600D01*
D38*
X114300000Y-117602000D02*
X114300000Y-115094200D01*
X116914000Y-112014000D02*
X115463700Y-112014000D01*
X114480000Y-114914200D02*
X114480000Y-112014000D01*
X114300000Y-115094200D02*
X114480000Y-114914200D01*
X114480000Y-112014000D02*
X115463700Y-112014000D01*
M02*
