G04 #@! TF.FileFunction,Copper,L2,Bot,Signal*
%FSLAX46Y46*%
G04 Gerber Fmt 4.6, Leading zero omitted, Abs format (unit mm)*
G04 Created by KiCad (PCBNEW 4.0.6-e0-6349~53~ubuntu14.04.1) date Tue Apr 11 14:29:56 2017*
%MOMM*%
%LPD*%
G01*
G04 APERTURE LIST*
%ADD10C,0.100000*%
%ADD11C,1.524000*%
%ADD12R,1.524000X1.524000*%
%ADD13R,1.600000X1.600000*%
%ADD14O,1.600000X1.600000*%
%ADD15C,2.500000*%
%ADD16C,1.600000*%
%ADD17C,1.300000*%
%ADD18R,1.300000X1.300000*%
%ADD19C,1.700000*%
%ADD20R,1.700000X1.700000*%
%ADD21O,1.506220X3.014980*%
%ADD22O,1.800860X3.500120*%
%ADD23C,1.000000*%
%ADD24C,0.600000*%
%ADD25C,1.000000*%
%ADD26C,0.450000*%
G04 APERTURE END LIST*
D10*
D11*
X170434000Y-90932000D03*
X167894000Y-90932000D03*
X165354000Y-90932000D03*
X165354000Y-88392000D03*
X167894000Y-88392000D03*
X170434000Y-88392000D03*
X164084000Y-106934000D03*
X169164000Y-106934000D03*
X164084000Y-104394000D03*
X164084000Y-101854000D03*
X169164000Y-101854000D03*
D12*
X124968000Y-106934000D03*
D11*
X127508000Y-106934000D03*
X130048000Y-106934000D03*
X132588000Y-106934000D03*
D13*
X106426000Y-89154000D03*
D14*
X114046000Y-94234000D03*
X106426000Y-91694000D03*
X114046000Y-91694000D03*
X106426000Y-94234000D03*
X114046000Y-89154000D03*
D15*
X161036000Y-131064000D03*
X157226000Y-131064000D03*
X153416000Y-131064000D03*
D16*
X65800000Y-110000000D03*
X63500000Y-112500000D03*
X65500000Y-105900000D03*
D15*
X61214000Y-143256000D03*
X78994000Y-143256000D03*
X78994000Y-133350000D03*
X61214000Y-127000000D03*
X78994000Y-127000000D03*
X78994000Y-117094000D03*
D17*
X155646000Y-104902000D03*
D18*
X152146000Y-104902000D03*
D13*
X99060000Y-143510000D03*
D14*
X91440000Y-138430000D03*
X99060000Y-140970000D03*
X91440000Y-140970000D03*
X99060000Y-138430000D03*
X91440000Y-143510000D03*
D12*
X124968000Y-92964000D03*
D11*
X127508000Y-92964000D03*
X130048000Y-92964000D03*
X132588000Y-92964000D03*
D13*
X106426000Y-100330000D03*
D14*
X114046000Y-105410000D03*
X106426000Y-102870000D03*
X114046000Y-102870000D03*
X106426000Y-105410000D03*
X114046000Y-100330000D03*
D19*
X85100000Y-86360000D03*
X85090000Y-101566000D03*
X82560000Y-86360000D03*
X80020000Y-86360000D03*
D20*
X77480000Y-86370000D03*
D19*
X82560000Y-101566000D03*
X80020000Y-101566000D03*
D20*
X77480000Y-101566000D03*
D19*
X97790000Y-87480000D03*
X97790000Y-90020000D03*
X97790000Y-92560000D03*
X97790000Y-95100000D03*
X97790000Y-97640000D03*
D20*
X97790000Y-100180000D03*
D21*
X114300000Y-117602000D03*
X111760000Y-117602000D03*
D22*
X90932000Y-124460000D03*
X88392000Y-124460000D03*
D16*
X113538000Y-132080000D03*
X118538000Y-132080000D03*
D20*
X140208000Y-143764000D03*
X157734000Y-136906000D03*
X111760000Y-143764000D03*
X134620000Y-143764000D03*
X127254000Y-143764000D03*
D23*
X100024800Y-132274000D03*
X107918100Y-125984400D03*
X133254200Y-133826300D03*
X124513300Y-137026200D03*
X150290000Y-97909300D03*
X97859300Y-128373200D03*
X159012500Y-94546700D03*
X146655000Y-131737200D03*
D24*
X65294500Y-112500000D02*
X63500000Y-112500000D01*
X76049700Y-101744800D02*
X65294500Y-112500000D01*
X76049700Y-101566000D02*
X76049700Y-101744800D01*
X77480000Y-101566000D02*
X76049700Y-101566000D01*
X124968000Y-92964000D02*
X123625700Y-92964000D01*
X98140900Y-97289100D02*
X97790000Y-97640000D01*
X119300600Y-97289100D02*
X98140900Y-97289100D01*
X123625700Y-92964000D02*
X119300600Y-97289100D01*
X163639400Y-88392000D02*
X165354000Y-88392000D01*
X156879500Y-95151900D02*
X163639400Y-88392000D01*
X156879500Y-103668500D02*
X156879500Y-95151900D01*
X155646000Y-104902000D02*
X156879500Y-103668500D01*
D25*
X111760000Y-143764000D02*
X111760000Y-141913700D01*
X113538000Y-140135700D02*
X111760000Y-141913700D01*
X113538000Y-132080000D02*
X113538000Y-140135700D01*
D26*
X96423300Y-128672500D02*
X100024800Y-132274000D01*
X96423300Y-96466700D02*
X96423300Y-128672500D01*
X97790000Y-95100000D02*
X96423300Y-96466700D01*
X124004700Y-99007300D02*
X130048000Y-92964000D01*
X111594000Y-99007300D02*
X124004700Y-99007300D01*
X107731300Y-102870000D02*
X111594000Y-99007300D01*
X106426000Y-102870000D02*
X107731300Y-102870000D01*
D25*
X127254000Y-143764000D02*
X127254000Y-141913700D01*
X118538000Y-133197700D02*
X118538000Y-132080000D01*
X127254000Y-141913700D02*
X118538000Y-133197700D01*
X118538000Y-118444000D02*
X130048000Y-106934000D01*
X118538000Y-132080000D02*
X118538000Y-118444000D01*
X110006600Y-123895900D02*
X107918100Y-125984400D01*
X110006600Y-117602000D02*
X110006600Y-123895900D01*
X111760000Y-117602000D02*
X110006600Y-117602000D01*
D26*
X127713200Y-133826300D02*
X133254200Y-133826300D01*
X124513300Y-137026200D02*
X127713200Y-133826300D01*
X71120000Y-133350000D02*
X61214000Y-143256000D01*
X78994000Y-133350000D02*
X71120000Y-133350000D01*
X101030100Y-124521900D02*
X132588000Y-92964000D01*
X101030100Y-132690500D02*
X101030100Y-124521900D01*
X97319600Y-136401000D02*
X101030100Y-132690500D01*
X97319600Y-139788600D02*
X97319600Y-136401000D01*
X92068500Y-145039700D02*
X97319600Y-139788600D01*
X90683700Y-145039700D02*
X92068500Y-145039700D01*
X78994000Y-133350000D02*
X90683700Y-145039700D01*
X141852800Y-89472100D02*
X150290000Y-97909300D01*
X117573200Y-89472100D02*
X141852800Y-89472100D01*
X115351300Y-91694000D02*
X117573200Y-89472100D01*
X114046000Y-91694000D02*
X115351300Y-91694000D01*
X87299100Y-87480000D02*
X97790000Y-87480000D01*
X68879100Y-105900000D02*
X87299100Y-87480000D01*
X65500000Y-105900000D02*
X68879100Y-105900000D01*
X108526700Y-87480000D02*
X112740700Y-91694000D01*
X97790000Y-87480000D02*
X108526700Y-87480000D01*
X114046000Y-91694000D02*
X112740700Y-91694000D01*
D25*
X89639700Y-136391100D02*
X89639700Y-140970000D01*
X90932000Y-135098800D02*
X89639700Y-136391100D01*
X90932000Y-124460000D02*
X90932000Y-135098800D01*
X91440000Y-140970000D02*
X89639700Y-140970000D01*
D26*
X97859300Y-108896700D02*
X97859300Y-128373200D01*
X106426000Y-100330000D02*
X97859300Y-108896700D01*
X165376800Y-100911000D02*
X159012500Y-94546700D01*
X165376800Y-126723200D02*
X165376800Y-100911000D01*
X161036000Y-131064000D02*
X165376800Y-126723200D01*
X97790000Y-100180000D02*
X99145300Y-100180000D01*
X101048400Y-98276900D02*
X99145300Y-100180000D01*
X121919000Y-98276900D02*
X101048400Y-98276900D01*
X126235400Y-93960500D02*
X121919000Y-98276900D01*
X126235400Y-92435800D02*
X126235400Y-93960500D01*
X127734900Y-90936300D02*
X126235400Y-92435800D01*
X133430500Y-90936300D02*
X127734900Y-90936300D01*
X157226000Y-114731800D02*
X133430500Y-90936300D01*
X157226000Y-131064000D02*
X157226000Y-114731800D01*
X115357100Y-104098900D02*
X114046000Y-105410000D01*
X115357100Y-101641100D02*
X115357100Y-104098900D01*
X114046000Y-100330000D02*
X115357100Y-101641100D01*
X146655000Y-131737200D02*
X140208000Y-131737200D01*
X140208000Y-131737200D02*
X140208000Y-143764000D01*
X133864500Y-104672700D02*
X133172500Y-105364700D01*
X133864500Y-92403200D02*
X133864500Y-104672700D01*
X133128000Y-91666700D02*
X133864500Y-92403200D01*
X128805300Y-91666700D02*
X133128000Y-91666700D01*
X127508000Y-92964000D02*
X128805300Y-91666700D01*
X140208000Y-112400200D02*
X133172500Y-105364700D01*
X140208000Y-131737200D02*
X140208000Y-112400200D01*
X129077300Y-105364700D02*
X127508000Y-106934000D01*
X133172500Y-105364700D02*
X129077300Y-105364700D01*
X85350800Y-86109200D02*
X85100000Y-86360000D01*
X109695900Y-86109200D02*
X85350800Y-86109200D01*
X112740700Y-89154000D02*
X109695900Y-86109200D01*
X114046000Y-89154000D02*
X112740700Y-89154000D01*
X159835100Y-106102900D02*
X164084000Y-101854000D01*
X151201000Y-106102900D02*
X159835100Y-106102900D01*
X135300600Y-90202500D02*
X151201000Y-106102900D01*
X122951200Y-90202500D02*
X135300600Y-90202500D01*
X117558900Y-95594800D02*
X122951200Y-90202500D01*
X100824800Y-95594800D02*
X117558900Y-95594800D01*
X97790000Y-92560000D02*
X100824800Y-95594800D01*
M02*
