M48
;DRILL file {KiCad 4.0.6-e0-6349~53~ubuntu14.04.1} date Tue Apr 11 14:30:02 2017
;FORMAT={-:-/ absolute / metric / decimal}
FMAT,2
METRIC,TZ
T1C0.400
T2C0.500
T3C0.800
T4C0.998
T5C1.000
T6C1.100
T7C1.199
T8C1.200
T9C1.450
T10C1.800
%
G90
G05
M71
T1
X97.859Y-128.373
X100.025Y-132.274
X107.918Y-125.984
X124.513Y-137.026
X133.254Y-133.826
X146.655Y-131.737
X150.29Y-97.909
X159.012Y-94.547
T2
X124.968Y-92.964
X124.968Y-106.934
X127.508Y-92.964
X127.508Y-106.934
X130.048Y-92.964
X130.048Y-106.934
X132.588Y-92.964
X132.588Y-106.934
T3
X91.44Y-138.43
X91.44Y-140.97
X91.44Y-143.51
X99.06Y-138.43
X99.06Y-140.97
X99.06Y-143.51
X106.426Y-89.154
X106.426Y-91.694
X106.426Y-94.234
X106.426Y-100.33
X106.426Y-102.87
X106.426Y-105.41
X113.538Y-132.08
X114.046Y-89.154
X114.046Y-91.694
X114.046Y-94.234
X114.046Y-100.33
X114.046Y-102.87
X114.046Y-105.41
X118.538Y-132.08
X152.146Y-104.902
X155.646Y-104.902
X164.084Y-101.854
X164.084Y-104.394
X164.084Y-106.934
T4
X111.76Y-117.602
X114.3Y-117.602
T5
X111.76Y-143.764
X127.254Y-143.764
X134.62Y-143.764
X140.208Y-143.764
X157.734Y-136.906
T6
X63.5Y-112.5
X65.5Y-105.9
X65.8Y-110.
X165.354Y-88.392
X165.354Y-90.932
X167.894Y-88.392
X167.894Y-90.932
X170.434Y-88.392
X170.434Y-90.932
T7
X88.392Y-124.46
X90.932Y-124.46
T8
X77.48Y-86.37
X77.48Y-101.566
X80.02Y-86.36
X80.02Y-101.566
X82.56Y-86.36
X82.56Y-101.566
X85.09Y-101.566
X85.1Y-86.36
X97.79Y-87.48
X97.79Y-90.02
X97.79Y-92.56
X97.79Y-95.1
X97.79Y-97.64
X97.79Y-100.18
T9
X61.214Y-127.
X61.214Y-143.256
X78.994Y-117.094
X78.994Y-127.
X78.994Y-133.35
X78.994Y-143.256
T10
X153.416Y-131.064
X157.226Y-131.064
X161.036Y-131.064
T0
M30
