G04 #@! TF.FileFunction,Copper,L2,Bot,Signal*
%FSLAX46Y46*%
G04 Gerber Fmt 4.6, Leading zero omitted, Abs format (unit mm)*
G04 Created by KiCad (PCBNEW 4.0.6-e0-6349~53~ubuntu16.04.1) date Mon Apr 24 12:36:15 2017*
%MOMM*%
%LPD*%
G01*
G04 APERTURE LIST*
%ADD10C,0.100000*%
%ADD11C,1.524000*%
%ADD12R,1.524000X1.524000*%
%ADD13R,1.600000X1.600000*%
%ADD14O,1.600000X1.600000*%
%ADD15C,2.500000*%
%ADD16C,1.600000*%
%ADD17C,1.300000*%
%ADD18R,1.300000X1.300000*%
%ADD19C,1.700000*%
%ADD20R,1.700000X1.700000*%
%ADD21O,1.506220X3.014980*%
%ADD22O,1.800860X3.500120*%
%ADD23C,1.000000*%
%ADD24C,0.600000*%
%ADD25C,1.000000*%
%ADD26C,0.450000*%
G04 APERTURE END LIST*
D10*
D11*
X170434000Y-90932000D03*
X167894000Y-90932000D03*
X165354000Y-90932000D03*
X165354000Y-88392000D03*
X167894000Y-88392000D03*
X170434000Y-88392000D03*
X164084000Y-106934000D03*
X169164000Y-106934000D03*
X164084000Y-104394000D03*
X164084000Y-101854000D03*
X169164000Y-101854000D03*
D12*
X124968000Y-106934000D03*
D11*
X127508000Y-106934000D03*
X130048000Y-106934000D03*
X132588000Y-106934000D03*
D13*
X106426000Y-89154000D03*
D14*
X114046000Y-94234000D03*
X106426000Y-91694000D03*
X114046000Y-91694000D03*
X106426000Y-94234000D03*
X114046000Y-89154000D03*
D15*
X161036000Y-131064000D03*
X157226000Y-131064000D03*
X153416000Y-131064000D03*
D16*
X65800000Y-110000000D03*
X63500000Y-112500000D03*
X65500000Y-105900000D03*
D15*
X61214000Y-143256000D03*
X78994000Y-143256000D03*
X78994000Y-133350000D03*
X61214000Y-127000000D03*
X78994000Y-127000000D03*
X78994000Y-117094000D03*
D17*
X155646000Y-104902000D03*
D18*
X152146000Y-104902000D03*
D13*
X99060000Y-143510000D03*
D14*
X91440000Y-138430000D03*
X99060000Y-140970000D03*
X91440000Y-140970000D03*
X99060000Y-138430000D03*
X91440000Y-143510000D03*
D12*
X124968000Y-92964000D03*
D11*
X127508000Y-92964000D03*
X130048000Y-92964000D03*
X132588000Y-92964000D03*
D13*
X106426000Y-100330000D03*
D14*
X114046000Y-105410000D03*
X106426000Y-102870000D03*
X114046000Y-102870000D03*
X106426000Y-105410000D03*
X114046000Y-100330000D03*
D19*
X85100000Y-86360000D03*
X85090000Y-101566000D03*
X82560000Y-86360000D03*
X80020000Y-86360000D03*
D20*
X77480000Y-86370000D03*
D19*
X82560000Y-101566000D03*
X80020000Y-101566000D03*
D20*
X77480000Y-101566000D03*
D19*
X97790000Y-87480000D03*
X97790000Y-90020000D03*
X97790000Y-92560000D03*
X97790000Y-95100000D03*
X97790000Y-97640000D03*
D20*
X97790000Y-100180000D03*
D21*
X114300000Y-117602000D03*
X111760000Y-117602000D03*
D22*
X90932000Y-124460000D03*
X88392000Y-124460000D03*
D16*
X113538000Y-132080000D03*
X118538000Y-132080000D03*
D20*
X139446000Y-143764000D03*
X145542000Y-143764000D03*
X111760000Y-143764000D03*
X133350000Y-143764000D03*
X127254000Y-143764000D03*
D23*
X128416300Y-120040600D03*
X101731700Y-127752400D03*
X97458900Y-121398700D03*
X147500000Y-131635200D03*
X157187300Y-91734700D03*
X149144200Y-137269200D03*
X156186400Y-94056100D03*
D24*
X124968000Y-106934000D02*
X124968000Y-108276300D01*
X104892400Y-145422100D02*
X100440300Y-140970000D01*
X130261600Y-145422100D02*
X104892400Y-145422100D01*
X131919700Y-143764000D02*
X130261600Y-145422100D01*
X133350000Y-143764000D02*
X131919700Y-143764000D01*
X99060000Y-140970000D02*
X100440300Y-140970000D01*
X124893000Y-116517300D02*
X100440300Y-140970000D01*
X124968000Y-116442300D02*
X124893000Y-116517300D01*
X124968000Y-108276300D02*
X124968000Y-116442300D01*
X124893000Y-116517300D02*
X128416300Y-120040600D01*
X120351800Y-96237900D02*
X123625700Y-92964000D01*
X99192100Y-96237900D02*
X120351800Y-96237900D01*
X97790000Y-97640000D02*
X99192100Y-96237900D01*
X124968000Y-92964000D02*
X124296900Y-92964000D01*
X124296900Y-92964000D02*
X123625700Y-92964000D01*
X152912600Y-90083000D02*
X155106000Y-92276400D01*
X127177900Y-90083000D02*
X152912600Y-90083000D01*
X124296900Y-92964000D02*
X127177900Y-90083000D01*
X155106000Y-104362000D02*
X155106000Y-92276400D01*
X155646000Y-104902000D02*
X155106000Y-104362000D01*
X158990400Y-88392000D02*
X165354000Y-88392000D01*
X155106000Y-92276400D02*
X158990400Y-88392000D01*
D25*
X93240300Y-143510000D02*
X93240300Y-138430000D01*
X91440000Y-143510000D02*
X93240300Y-143510000D01*
X91440000Y-138430000D02*
X93240300Y-138430000D01*
X111760000Y-143764000D02*
X111760000Y-141913700D01*
X113538000Y-140135700D02*
X111760000Y-141913700D01*
X113538000Y-132080000D02*
X113538000Y-140135700D01*
D26*
X96383400Y-122404100D02*
X101731700Y-127752400D01*
X96383400Y-96506600D02*
X96383400Y-122404100D01*
X97790000Y-95100000D02*
X96383400Y-96506600D01*
X123987300Y-99024700D02*
X130048000Y-92964000D01*
X111576600Y-99024700D02*
X123987300Y-99024700D01*
X107731300Y-102870000D02*
X111576600Y-99024700D01*
X106426000Y-102870000D02*
X107731300Y-102870000D01*
D25*
X127254000Y-143764000D02*
X127254000Y-141913700D01*
X118538000Y-133197700D02*
X118538000Y-132080000D01*
X127254000Y-141913700D02*
X118538000Y-133197700D01*
X130048000Y-120570000D02*
X130048000Y-106934000D01*
X118538000Y-132080000D02*
X130048000Y-120570000D01*
D26*
X71120000Y-133350000D02*
X61214000Y-143256000D01*
X78994000Y-133350000D02*
X71120000Y-133350000D01*
X102830700Y-122721300D02*
X132588000Y-92964000D01*
X102830700Y-128092700D02*
X102830700Y-122721300D01*
X102154000Y-128769400D02*
X102830700Y-128092700D01*
X101187100Y-128769400D02*
X102154000Y-128769400D01*
X94394000Y-121976300D02*
X101187100Y-128769400D01*
X87703500Y-121976300D02*
X94394000Y-121976300D01*
X78994000Y-130685800D02*
X87703500Y-121976300D01*
X78994000Y-133350000D02*
X78994000Y-130685800D01*
X114046000Y-91694000D02*
X112740700Y-91694000D01*
X107159100Y-86112400D02*
X112740700Y-91694000D01*
X91747300Y-86112400D02*
X107159100Y-86112400D01*
X89754900Y-88104800D02*
X91747300Y-86112400D01*
X83295200Y-88104800D02*
X89754900Y-88104800D01*
X65500000Y-105900000D02*
X83295200Y-88104800D01*
D25*
X89639700Y-136391100D02*
X89639700Y-140970000D01*
X90932000Y-135098800D02*
X89639700Y-136391100D01*
X90932000Y-124460000D02*
X90932000Y-135098800D01*
X91440000Y-140970000D02*
X89639700Y-140970000D01*
D26*
X97458900Y-109297100D02*
X97458900Y-121398700D01*
X106426000Y-100330000D02*
X97458900Y-109297100D01*
X97790000Y-100180000D02*
X99145300Y-100180000D01*
X101031000Y-98294300D02*
X99145300Y-100180000D01*
X121901600Y-98294300D02*
X101031000Y-98294300D01*
X126235400Y-93960500D02*
X121901600Y-98294300D01*
X126235400Y-92403700D02*
X126235400Y-93960500D01*
X127748600Y-90890500D02*
X126235400Y-92403700D01*
X140159900Y-90890500D02*
X127748600Y-90890500D01*
X153301400Y-104032000D02*
X140159900Y-90890500D01*
X153301400Y-127139400D02*
X153301400Y-104032000D01*
X157226000Y-131064000D02*
X153301400Y-127139400D01*
X115357100Y-104098900D02*
X114046000Y-105410000D01*
X115357100Y-101641100D02*
X115357100Y-104098900D01*
X114046000Y-100330000D02*
X115357100Y-101641100D01*
X139446000Y-143764000D02*
X139446000Y-142408700D01*
X152146000Y-104902000D02*
X150990700Y-104902000D01*
X139446000Y-139689200D02*
X139446000Y-142408700D01*
X147500000Y-131635200D02*
X139446000Y-139689200D01*
X115357400Y-90465400D02*
X114046000Y-89154000D01*
X115357400Y-92922600D02*
X115357400Y-90465400D01*
X114046000Y-94234000D02*
X115357400Y-92922600D01*
X86142300Y-85317700D02*
X85100000Y-86360000D01*
X108904400Y-85317700D02*
X86142300Y-85317700D01*
X112740700Y-89154000D02*
X108904400Y-85317700D01*
X114046000Y-89154000D02*
X112740700Y-89154000D01*
X147500000Y-131635200D02*
X147500000Y-108392700D01*
X147500000Y-108392700D02*
X150990700Y-104902000D01*
X141736100Y-108392700D02*
X133892700Y-100549300D01*
X147500000Y-108392700D02*
X141736100Y-108392700D01*
X133892700Y-92472300D02*
X133892700Y-100549300D01*
X133116800Y-91696400D02*
X133892700Y-92472300D01*
X128775600Y-91696400D02*
X133116800Y-91696400D01*
X127508000Y-92964000D02*
X128775600Y-91696400D01*
X133892700Y-100549300D02*
X127508000Y-106934000D01*
X164084000Y-98631400D02*
X157187300Y-91734700D01*
X164084000Y-101854000D02*
X164084000Y-98631400D01*
X159317600Y-97187300D02*
X156186400Y-94056100D01*
X159317600Y-131064000D02*
X159317600Y-97187300D01*
X161036000Y-131064000D02*
X159317600Y-131064000D01*
X153544000Y-137269200D02*
X149144200Y-137269200D01*
X159317600Y-131495600D02*
X153544000Y-137269200D01*
X159317600Y-131064000D02*
X159317600Y-131495600D01*
M02*
