G04 #@! TF.FileFunction,Legend,Top*
%FSLAX46Y46*%
G04 Gerber Fmt 4.6, Leading zero omitted, Abs format (unit mm)*
G04 Created by KiCad (PCBNEW 4.0.5-e0-6337~49~ubuntu14.04.1) date Sun Feb  5 22:26:14 2017*
%MOMM*%
%LPD*%
G01*
G04 APERTURE LIST*
%ADD10C,0.100000*%
%ADD11C,0.300000*%
%ADD12C,0.250000*%
%ADD13C,0.700000*%
%ADD14C,0.120000*%
%ADD15C,0.150000*%
%ADD16C,0.400000*%
G04 APERTURE END LIST*
D10*
D11*
X92453144Y-148617714D02*
X92381715Y-148689143D01*
X92167429Y-148760571D01*
X92024572Y-148760571D01*
X91810287Y-148689143D01*
X91667429Y-148546286D01*
X91596001Y-148403429D01*
X91524572Y-148117714D01*
X91524572Y-147903429D01*
X91596001Y-147617714D01*
X91667429Y-147474857D01*
X91810287Y-147332000D01*
X92024572Y-147260571D01*
X92167429Y-147260571D01*
X92381715Y-147332000D01*
X92453144Y-147403429D01*
X93024572Y-148332000D02*
X93738858Y-148332000D01*
X92881715Y-148760571D02*
X93381715Y-147260571D01*
X93881715Y-148760571D01*
X94381715Y-147260571D02*
X94381715Y-148474857D01*
X94453143Y-148617714D01*
X94524572Y-148689143D01*
X94667429Y-148760571D01*
X94953143Y-148760571D01*
X95096001Y-148689143D01*
X95167429Y-148617714D01*
X95238858Y-148474857D01*
X95238858Y-147260571D01*
X95738858Y-147260571D02*
X96596001Y-147260571D01*
X96167430Y-148760571D02*
X96167430Y-147260571D01*
X97096001Y-148760571D02*
X97096001Y-147260571D01*
X98096001Y-147260571D02*
X98381715Y-147260571D01*
X98524573Y-147332000D01*
X98667430Y-147474857D01*
X98738858Y-147760571D01*
X98738858Y-148260571D01*
X98667430Y-148546286D01*
X98524573Y-148689143D01*
X98381715Y-148760571D01*
X98096001Y-148760571D01*
X97953144Y-148689143D01*
X97810287Y-148546286D01*
X97738858Y-148260571D01*
X97738858Y-147760571D01*
X97810287Y-147474857D01*
X97953144Y-147332000D01*
X98096001Y-147260571D01*
X99381716Y-148760571D02*
X99381716Y-147260571D01*
X100238859Y-148760571D01*
X100238859Y-147260571D01*
X104024573Y-148760571D02*
X103167430Y-148760571D01*
X103596002Y-148760571D02*
X103596002Y-147260571D01*
X103453145Y-147474857D01*
X103310287Y-147617714D01*
X103167430Y-147689143D01*
X104596001Y-147403429D02*
X104667430Y-147332000D01*
X104810287Y-147260571D01*
X105167430Y-147260571D01*
X105310287Y-147332000D01*
X105381716Y-147403429D01*
X105453144Y-147546286D01*
X105453144Y-147689143D01*
X105381716Y-147903429D01*
X104524573Y-148760571D01*
X105453144Y-148760571D01*
X106381715Y-147260571D02*
X106524572Y-147260571D01*
X106667429Y-147332000D01*
X106738858Y-147403429D01*
X106810287Y-147546286D01*
X106881715Y-147832000D01*
X106881715Y-148189143D01*
X106810287Y-148474857D01*
X106738858Y-148617714D01*
X106667429Y-148689143D01*
X106524572Y-148760571D01*
X106381715Y-148760571D01*
X106238858Y-148689143D01*
X106167429Y-148617714D01*
X106096001Y-148474857D01*
X106024572Y-148189143D01*
X106024572Y-147832000D01*
X106096001Y-147546286D01*
X106167429Y-147403429D01*
X106238858Y-147332000D01*
X106381715Y-147260571D01*
X107310286Y-147260571D02*
X107810286Y-148760571D01*
X108310286Y-147260571D01*
X108810286Y-148760571D02*
X108810286Y-147260571D01*
X109167429Y-147260571D01*
X109381714Y-147332000D01*
X109524572Y-147474857D01*
X109596000Y-147617714D01*
X109667429Y-147903429D01*
X109667429Y-148117714D01*
X109596000Y-148403429D01*
X109524572Y-148546286D01*
X109381714Y-148689143D01*
X109167429Y-148760571D01*
X108810286Y-148760571D01*
X111167429Y-148617714D02*
X111096000Y-148689143D01*
X110881714Y-148760571D01*
X110738857Y-148760571D01*
X110524572Y-148689143D01*
X110381714Y-148546286D01*
X110310286Y-148403429D01*
X110238857Y-148117714D01*
X110238857Y-147903429D01*
X110310286Y-147617714D01*
X110381714Y-147474857D01*
X110524572Y-147332000D01*
X110738857Y-147260571D01*
X110881714Y-147260571D01*
X111096000Y-147332000D01*
X111167429Y-147403429D01*
D12*
X128716380Y-82905381D02*
X129287809Y-82905381D01*
X129002094Y-83905381D02*
X129002094Y-82905381D01*
X129621142Y-83905381D02*
X129621142Y-82905381D01*
X130049714Y-83905381D02*
X130049714Y-83381571D01*
X130002095Y-83286333D01*
X129906857Y-83238714D01*
X129763999Y-83238714D01*
X129668761Y-83286333D01*
X129621142Y-83333952D01*
X130906857Y-83857762D02*
X130811619Y-83905381D01*
X130621142Y-83905381D01*
X130525904Y-83857762D01*
X130478285Y-83762524D01*
X130478285Y-83381571D01*
X130525904Y-83286333D01*
X130621142Y-83238714D01*
X130811619Y-83238714D01*
X130906857Y-83286333D01*
X130954476Y-83381571D01*
X130954476Y-83476810D01*
X130478285Y-83572048D01*
X132097333Y-83619667D02*
X132573524Y-83619667D01*
X132002095Y-83905381D02*
X132335428Y-82905381D01*
X132668762Y-83905381D01*
X133383048Y-83857762D02*
X133287810Y-83905381D01*
X133097333Y-83905381D01*
X133002095Y-83857762D01*
X132954476Y-83762524D01*
X132954476Y-83381571D01*
X133002095Y-83286333D01*
X133097333Y-83238714D01*
X133287810Y-83238714D01*
X133383048Y-83286333D01*
X133430667Y-83381571D01*
X133430667Y-83476810D01*
X132954476Y-83572048D01*
X133716381Y-83238714D02*
X134097333Y-83238714D01*
X133859238Y-82905381D02*
X133859238Y-83762524D01*
X133906857Y-83857762D01*
X134002095Y-83905381D01*
X134097333Y-83905381D01*
X134430667Y-83905381D02*
X134430667Y-82905381D01*
X134859239Y-83905381D02*
X134859239Y-83381571D01*
X134811620Y-83286333D01*
X134716382Y-83238714D01*
X134573524Y-83238714D01*
X134478286Y-83286333D01*
X134430667Y-83333952D01*
X135716382Y-83857762D02*
X135621144Y-83905381D01*
X135430667Y-83905381D01*
X135335429Y-83857762D01*
X135287810Y-83762524D01*
X135287810Y-83381571D01*
X135335429Y-83286333D01*
X135430667Y-83238714D01*
X135621144Y-83238714D01*
X135716382Y-83286333D01*
X135764001Y-83381571D01*
X135764001Y-83476810D01*
X135287810Y-83572048D01*
X136192572Y-83905381D02*
X136192572Y-83238714D01*
X136192572Y-83429190D02*
X136240191Y-83333952D01*
X136287810Y-83286333D01*
X136383048Y-83238714D01*
X136478287Y-83238714D01*
X136811620Y-83905381D02*
X136811620Y-83238714D01*
X136811620Y-82905381D02*
X136764001Y-82953000D01*
X136811620Y-83000619D01*
X136859239Y-82953000D01*
X136811620Y-82905381D01*
X136811620Y-83000619D01*
X137716382Y-83857762D02*
X137621144Y-83905381D01*
X137430667Y-83905381D01*
X137335429Y-83857762D01*
X137287810Y-83810143D01*
X137240191Y-83714905D01*
X137240191Y-83429190D01*
X137287810Y-83333952D01*
X137335429Y-83286333D01*
X137430667Y-83238714D01*
X137621144Y-83238714D01*
X137716382Y-83286333D01*
X138906858Y-83905381D02*
X138906858Y-82905381D01*
X139240192Y-83619667D01*
X139573525Y-82905381D01*
X139573525Y-83905381D01*
X140430668Y-83857762D02*
X140335430Y-83905381D01*
X140144953Y-83905381D01*
X140049715Y-83857762D01*
X140002096Y-83762524D01*
X140002096Y-83381571D01*
X140049715Y-83286333D01*
X140144953Y-83238714D01*
X140335430Y-83238714D01*
X140430668Y-83286333D01*
X140478287Y-83381571D01*
X140478287Y-83476810D01*
X140002096Y-83572048D01*
X140859239Y-83857762D02*
X140954477Y-83905381D01*
X141144953Y-83905381D01*
X141240192Y-83857762D01*
X141287811Y-83762524D01*
X141287811Y-83714905D01*
X141240192Y-83619667D01*
X141144953Y-83572048D01*
X141002096Y-83572048D01*
X140906858Y-83524429D01*
X140859239Y-83429190D01*
X140859239Y-83381571D01*
X140906858Y-83286333D01*
X141002096Y-83238714D01*
X141144953Y-83238714D01*
X141240192Y-83286333D01*
X141668763Y-83857762D02*
X141764001Y-83905381D01*
X141954477Y-83905381D01*
X142049716Y-83857762D01*
X142097335Y-83762524D01*
X142097335Y-83714905D01*
X142049716Y-83619667D01*
X141954477Y-83572048D01*
X141811620Y-83572048D01*
X141716382Y-83524429D01*
X141668763Y-83429190D01*
X141668763Y-83381571D01*
X141716382Y-83286333D01*
X141811620Y-83238714D01*
X141954477Y-83238714D01*
X142049716Y-83286333D01*
X142954478Y-83905381D02*
X142954478Y-83381571D01*
X142906859Y-83286333D01*
X142811621Y-83238714D01*
X142621144Y-83238714D01*
X142525906Y-83286333D01*
X142954478Y-83857762D02*
X142859240Y-83905381D01*
X142621144Y-83905381D01*
X142525906Y-83857762D01*
X142478287Y-83762524D01*
X142478287Y-83667286D01*
X142525906Y-83572048D01*
X142621144Y-83524429D01*
X142859240Y-83524429D01*
X142954478Y-83476810D01*
X143859240Y-83238714D02*
X143859240Y-84048238D01*
X143811621Y-84143476D01*
X143764002Y-84191095D01*
X143668763Y-84238714D01*
X143525906Y-84238714D01*
X143430668Y-84191095D01*
X143859240Y-83857762D02*
X143764002Y-83905381D01*
X143573525Y-83905381D01*
X143478287Y-83857762D01*
X143430668Y-83810143D01*
X143383049Y-83714905D01*
X143383049Y-83429190D01*
X143430668Y-83333952D01*
X143478287Y-83286333D01*
X143573525Y-83238714D01*
X143764002Y-83238714D01*
X143859240Y-83286333D01*
X144716383Y-83857762D02*
X144621145Y-83905381D01*
X144430668Y-83905381D01*
X144335430Y-83857762D01*
X144287811Y-83762524D01*
X144287811Y-83381571D01*
X144335430Y-83286333D01*
X144430668Y-83238714D01*
X144621145Y-83238714D01*
X144716383Y-83286333D01*
X144764002Y-83381571D01*
X144764002Y-83476810D01*
X144287811Y-83572048D01*
X145954478Y-83905381D02*
X145954478Y-82905381D01*
X146287812Y-83619667D01*
X146621145Y-82905381D01*
X146621145Y-83905381D01*
X147525907Y-83905381D02*
X147525907Y-83381571D01*
X147478288Y-83286333D01*
X147383050Y-83238714D01*
X147192573Y-83238714D01*
X147097335Y-83286333D01*
X147525907Y-83857762D02*
X147430669Y-83905381D01*
X147192573Y-83905381D01*
X147097335Y-83857762D01*
X147049716Y-83762524D01*
X147049716Y-83667286D01*
X147097335Y-83572048D01*
X147192573Y-83524429D01*
X147430669Y-83524429D01*
X147525907Y-83476810D01*
X148430669Y-83857762D02*
X148335431Y-83905381D01*
X148144954Y-83905381D01*
X148049716Y-83857762D01*
X148002097Y-83810143D01*
X147954478Y-83714905D01*
X147954478Y-83429190D01*
X148002097Y-83333952D01*
X148049716Y-83286333D01*
X148144954Y-83238714D01*
X148335431Y-83238714D01*
X148430669Y-83286333D01*
X148859240Y-83905381D02*
X148859240Y-82905381D01*
X149287812Y-83905381D02*
X149287812Y-83381571D01*
X149240193Y-83286333D01*
X149144955Y-83238714D01*
X149002097Y-83238714D01*
X148906859Y-83286333D01*
X148859240Y-83333952D01*
X149764002Y-83905381D02*
X149764002Y-83238714D01*
X149764002Y-82905381D02*
X149716383Y-82953000D01*
X149764002Y-83000619D01*
X149811621Y-82953000D01*
X149764002Y-82905381D01*
X149764002Y-83000619D01*
X150240192Y-83238714D02*
X150240192Y-83905381D01*
X150240192Y-83333952D02*
X150287811Y-83286333D01*
X150383049Y-83238714D01*
X150525907Y-83238714D01*
X150621145Y-83286333D01*
X150668764Y-83381571D01*
X150668764Y-83905381D01*
X151525907Y-83857762D02*
X151430669Y-83905381D01*
X151240192Y-83905381D01*
X151144954Y-83857762D01*
X151097335Y-83762524D01*
X151097335Y-83381571D01*
X151144954Y-83286333D01*
X151240192Y-83238714D01*
X151430669Y-83238714D01*
X151525907Y-83286333D01*
X151573526Y-83381571D01*
X151573526Y-83476810D01*
X151097335Y-83572048D01*
X153335431Y-83810143D02*
X153287812Y-83857762D01*
X153144955Y-83905381D01*
X153049717Y-83905381D01*
X152906859Y-83857762D01*
X152811621Y-83762524D01*
X152764002Y-83667286D01*
X152716383Y-83476810D01*
X152716383Y-83333952D01*
X152764002Y-83143476D01*
X152811621Y-83048238D01*
X152906859Y-82953000D01*
X153049717Y-82905381D01*
X153144955Y-82905381D01*
X153287812Y-82953000D01*
X153335431Y-83000619D01*
X153906859Y-83905381D02*
X153811621Y-83857762D01*
X153764002Y-83810143D01*
X153716383Y-83714905D01*
X153716383Y-83429190D01*
X153764002Y-83333952D01*
X153811621Y-83286333D01*
X153906859Y-83238714D01*
X154049717Y-83238714D01*
X154144955Y-83286333D01*
X154192574Y-83333952D01*
X154240193Y-83429190D01*
X154240193Y-83714905D01*
X154192574Y-83810143D01*
X154144955Y-83857762D01*
X154049717Y-83905381D01*
X153906859Y-83905381D01*
X154668764Y-83810143D02*
X154716383Y-83857762D01*
X154668764Y-83905381D01*
X154621145Y-83857762D01*
X154668764Y-83810143D01*
X154668764Y-83905381D01*
X155192573Y-83857762D02*
X155192573Y-83905381D01*
X155144954Y-84000619D01*
X155097335Y-84048238D01*
X156859240Y-83905381D02*
X156383049Y-83905381D01*
X156383049Y-82905381D01*
X157049716Y-83238714D02*
X157430668Y-83238714D01*
X157192573Y-82905381D02*
X157192573Y-83762524D01*
X157240192Y-83857762D01*
X157335430Y-83905381D01*
X157430668Y-83905381D01*
X158192574Y-83905381D02*
X158192574Y-82905381D01*
X158192574Y-83857762D02*
X158097336Y-83905381D01*
X157906859Y-83905381D01*
X157811621Y-83857762D01*
X157764002Y-83810143D01*
X157716383Y-83714905D01*
X157716383Y-83429190D01*
X157764002Y-83333952D01*
X157811621Y-83286333D01*
X157906859Y-83238714D01*
X158097336Y-83238714D01*
X158192574Y-83286333D01*
X158668764Y-83810143D02*
X158716383Y-83857762D01*
X158668764Y-83905381D01*
X158621145Y-83857762D01*
X158668764Y-83810143D01*
X158668764Y-83905381D01*
X125597330Y-84655381D02*
X125597330Y-85464905D01*
X125644949Y-85560143D01*
X125692568Y-85607762D01*
X125787806Y-85655381D01*
X125978283Y-85655381D01*
X126073521Y-85607762D01*
X126121140Y-85560143D01*
X126168759Y-85464905D01*
X126168759Y-84655381D01*
X126597330Y-85607762D02*
X126740187Y-85655381D01*
X126978283Y-85655381D01*
X127073521Y-85607762D01*
X127121140Y-85560143D01*
X127168759Y-85464905D01*
X127168759Y-85369667D01*
X127121140Y-85274429D01*
X127073521Y-85226810D01*
X126978283Y-85179190D01*
X126787806Y-85131571D01*
X126692568Y-85083952D01*
X126644949Y-85036333D01*
X126597330Y-84941095D01*
X126597330Y-84845857D01*
X126644949Y-84750619D01*
X126692568Y-84703000D01*
X126787806Y-84655381D01*
X127025902Y-84655381D01*
X127168759Y-84703000D01*
X127930664Y-85131571D02*
X128073521Y-85179190D01*
X128121140Y-85226810D01*
X128168759Y-85322048D01*
X128168759Y-85464905D01*
X128121140Y-85560143D01*
X128073521Y-85607762D01*
X127978283Y-85655381D01*
X127597330Y-85655381D01*
X127597330Y-84655381D01*
X127930664Y-84655381D01*
X128025902Y-84703000D01*
X128073521Y-84750619D01*
X128121140Y-84845857D01*
X128121140Y-84941095D01*
X128073521Y-85036333D01*
X128025902Y-85083952D01*
X127930664Y-85131571D01*
X127597330Y-85131571D01*
X129216378Y-84988714D02*
X129597330Y-84988714D01*
X129359235Y-84655381D02*
X129359235Y-85512524D01*
X129406854Y-85607762D01*
X129502092Y-85655381D01*
X129597330Y-85655381D01*
X130073521Y-85655381D02*
X129978283Y-85607762D01*
X129930664Y-85560143D01*
X129883045Y-85464905D01*
X129883045Y-85179190D01*
X129930664Y-85083952D01*
X129978283Y-85036333D01*
X130073521Y-84988714D01*
X130216379Y-84988714D01*
X130311617Y-85036333D01*
X130359236Y-85083952D01*
X130406855Y-85179190D01*
X130406855Y-85464905D01*
X130359236Y-85560143D01*
X130311617Y-85607762D01*
X130216379Y-85655381D01*
X130073521Y-85655381D01*
X132025903Y-84655381D02*
X131835426Y-84655381D01*
X131740188Y-84703000D01*
X131692569Y-84750619D01*
X131597331Y-84893476D01*
X131549712Y-85083952D01*
X131549712Y-85464905D01*
X131597331Y-85560143D01*
X131644950Y-85607762D01*
X131740188Y-85655381D01*
X131930665Y-85655381D01*
X132025903Y-85607762D01*
X132073522Y-85560143D01*
X132121141Y-85464905D01*
X132121141Y-85226810D01*
X132073522Y-85131571D01*
X132025903Y-85083952D01*
X131930665Y-85036333D01*
X131740188Y-85036333D01*
X131644950Y-85083952D01*
X131597331Y-85131571D01*
X131549712Y-85226810D01*
X132740188Y-84655381D02*
X132835427Y-84655381D01*
X132930665Y-84703000D01*
X132978284Y-84750619D01*
X133025903Y-84845857D01*
X133073522Y-85036333D01*
X133073522Y-85274429D01*
X133025903Y-85464905D01*
X132978284Y-85560143D01*
X132930665Y-85607762D01*
X132835427Y-85655381D01*
X132740188Y-85655381D01*
X132644950Y-85607762D01*
X132597331Y-85560143D01*
X132549712Y-85464905D01*
X132502093Y-85274429D01*
X132502093Y-85036333D01*
X132549712Y-84845857D01*
X132597331Y-84750619D01*
X132644950Y-84703000D01*
X132740188Y-84655381D01*
X133502093Y-85655381D02*
X133502093Y-84988714D01*
X133502093Y-85083952D02*
X133549712Y-85036333D01*
X133644950Y-84988714D01*
X133787808Y-84988714D01*
X133883046Y-85036333D01*
X133930665Y-85131571D01*
X133930665Y-85655381D01*
X133930665Y-85131571D02*
X133978284Y-85036333D01*
X134073522Y-84988714D01*
X134216379Y-84988714D01*
X134311617Y-85036333D01*
X134359236Y-85131571D01*
X134359236Y-85655381D01*
X134787807Y-85369667D02*
X135263998Y-85369667D01*
X134692569Y-85655381D02*
X135025902Y-84655381D01*
X135359236Y-85655381D01*
X136883046Y-85607762D02*
X136787808Y-85655381D01*
X136597331Y-85655381D01*
X136502093Y-85607762D01*
X136454474Y-85560143D01*
X136406855Y-85464905D01*
X136406855Y-85179190D01*
X136454474Y-85083952D01*
X136502093Y-85036333D01*
X136597331Y-84988714D01*
X136787808Y-84988714D01*
X136883046Y-85036333D01*
X137740189Y-84988714D02*
X137740189Y-85655381D01*
X137311617Y-84988714D02*
X137311617Y-85512524D01*
X137359236Y-85607762D01*
X137454474Y-85655381D01*
X137597332Y-85655381D01*
X137692570Y-85607762D01*
X137740189Y-85560143D01*
X138216379Y-85655381D02*
X138216379Y-84988714D01*
X138216379Y-85179190D02*
X138263998Y-85083952D01*
X138311617Y-85036333D01*
X138406855Y-84988714D01*
X138502094Y-84988714D01*
X138835427Y-85655381D02*
X138835427Y-84988714D01*
X138835427Y-85179190D02*
X138883046Y-85083952D01*
X138930665Y-85036333D01*
X139025903Y-84988714D01*
X139121142Y-84988714D01*
X139835428Y-85607762D02*
X139740190Y-85655381D01*
X139549713Y-85655381D01*
X139454475Y-85607762D01*
X139406856Y-85512524D01*
X139406856Y-85131571D01*
X139454475Y-85036333D01*
X139549713Y-84988714D01*
X139740190Y-84988714D01*
X139835428Y-85036333D01*
X139883047Y-85131571D01*
X139883047Y-85226810D01*
X139406856Y-85322048D01*
X140311618Y-84988714D02*
X140311618Y-85655381D01*
X140311618Y-85083952D02*
X140359237Y-85036333D01*
X140454475Y-84988714D01*
X140597333Y-84988714D01*
X140692571Y-85036333D01*
X140740190Y-85131571D01*
X140740190Y-85655381D01*
X141073523Y-84988714D02*
X141454475Y-84988714D01*
X141216380Y-84655381D02*
X141216380Y-85512524D01*
X141263999Y-85607762D01*
X141359237Y-85655381D01*
X141454475Y-85655381D01*
X142692571Y-85655381D02*
X142597333Y-85607762D01*
X142549714Y-85512524D01*
X142549714Y-84655381D01*
X143216381Y-85655381D02*
X143121143Y-85607762D01*
X143073524Y-85560143D01*
X143025905Y-85464905D01*
X143025905Y-85179190D01*
X143073524Y-85083952D01*
X143121143Y-85036333D01*
X143216381Y-84988714D01*
X143359239Y-84988714D01*
X143454477Y-85036333D01*
X143502096Y-85083952D01*
X143549715Y-85179190D01*
X143549715Y-85464905D01*
X143502096Y-85560143D01*
X143454477Y-85607762D01*
X143359239Y-85655381D01*
X143216381Y-85655381D01*
X144121143Y-85655381D02*
X144025905Y-85607762D01*
X143978286Y-85560143D01*
X143930667Y-85464905D01*
X143930667Y-85179190D01*
X143978286Y-85083952D01*
X144025905Y-85036333D01*
X144121143Y-84988714D01*
X144264001Y-84988714D01*
X144359239Y-85036333D01*
X144406858Y-85083952D01*
X144454477Y-85179190D01*
X144454477Y-85464905D01*
X144406858Y-85560143D01*
X144359239Y-85607762D01*
X144264001Y-85655381D01*
X144121143Y-85655381D01*
X144883048Y-84988714D02*
X144883048Y-85988714D01*
X144883048Y-85036333D02*
X144978286Y-84988714D01*
X145168763Y-84988714D01*
X145264001Y-85036333D01*
X145311620Y-85083952D01*
X145359239Y-85179190D01*
X145359239Y-85464905D01*
X145311620Y-85560143D01*
X145264001Y-85607762D01*
X145168763Y-85655381D01*
X144978286Y-85655381D01*
X144883048Y-85607762D01*
X146406858Y-84655381D02*
X146978287Y-84655381D01*
X146692572Y-85655381D02*
X146692572Y-84655381D01*
X147692573Y-85607762D02*
X147597335Y-85655381D01*
X147406858Y-85655381D01*
X147311620Y-85607762D01*
X147264001Y-85512524D01*
X147264001Y-85131571D01*
X147311620Y-85036333D01*
X147406858Y-84988714D01*
X147597335Y-84988714D01*
X147692573Y-85036333D01*
X147740192Y-85131571D01*
X147740192Y-85226810D01*
X147264001Y-85322048D01*
X148311620Y-85655381D02*
X148216382Y-85607762D01*
X148168763Y-85512524D01*
X148168763Y-84655381D01*
X149073526Y-85607762D02*
X148978288Y-85655381D01*
X148787811Y-85655381D01*
X148692573Y-85607762D01*
X148644954Y-85512524D01*
X148644954Y-85131571D01*
X148692573Y-85036333D01*
X148787811Y-84988714D01*
X148978288Y-84988714D01*
X149073526Y-85036333D01*
X149121145Y-85131571D01*
X149121145Y-85226810D01*
X148644954Y-85322048D01*
X149406859Y-84988714D02*
X149787811Y-84988714D01*
X149549716Y-84655381D02*
X149549716Y-85512524D01*
X149597335Y-85607762D01*
X149692573Y-85655381D01*
X149787811Y-85655381D01*
X150025907Y-84988714D02*
X150264002Y-85655381D01*
X150502098Y-84988714D02*
X150264002Y-85655381D01*
X150168764Y-85893476D01*
X150121145Y-85941095D01*
X150025907Y-85988714D01*
X150883050Y-84988714D02*
X150883050Y-85988714D01*
X150883050Y-85036333D02*
X150978288Y-84988714D01*
X151168765Y-84988714D01*
X151264003Y-85036333D01*
X151311622Y-85083952D01*
X151359241Y-85179190D01*
X151359241Y-85464905D01*
X151311622Y-85560143D01*
X151264003Y-85607762D01*
X151168765Y-85655381D01*
X150978288Y-85655381D01*
X150883050Y-85607762D01*
X152168765Y-85607762D02*
X152073527Y-85655381D01*
X151883050Y-85655381D01*
X151787812Y-85607762D01*
X151740193Y-85512524D01*
X151740193Y-85131571D01*
X151787812Y-85036333D01*
X151883050Y-84988714D01*
X152073527Y-84988714D01*
X152168765Y-85036333D01*
X152216384Y-85131571D01*
X152216384Y-85226810D01*
X151740193Y-85322048D01*
X153835432Y-85655381D02*
X153835432Y-84655381D01*
X153835432Y-85607762D02*
X153740194Y-85655381D01*
X153549717Y-85655381D01*
X153454479Y-85607762D01*
X153406860Y-85560143D01*
X153359241Y-85464905D01*
X153359241Y-85179190D01*
X153406860Y-85083952D01*
X153454479Y-85036333D01*
X153549717Y-84988714D01*
X153740194Y-84988714D01*
X153835432Y-85036333D01*
X154311622Y-85655381D02*
X154311622Y-84988714D01*
X154311622Y-85179190D02*
X154359241Y-85083952D01*
X154406860Y-85036333D01*
X154502098Y-84988714D01*
X154597337Y-84988714D01*
X154930670Y-85655381D02*
X154930670Y-84988714D01*
X154930670Y-84655381D02*
X154883051Y-84703000D01*
X154930670Y-84750619D01*
X154978289Y-84703000D01*
X154930670Y-84655381D01*
X154930670Y-84750619D01*
X155311622Y-84988714D02*
X155549717Y-85655381D01*
X155787813Y-84988714D01*
X156549718Y-85607762D02*
X156454480Y-85655381D01*
X156264003Y-85655381D01*
X156168765Y-85607762D01*
X156121146Y-85512524D01*
X156121146Y-85131571D01*
X156168765Y-85036333D01*
X156264003Y-84988714D01*
X156454480Y-84988714D01*
X156549718Y-85036333D01*
X156597337Y-85131571D01*
X156597337Y-85226810D01*
X156121146Y-85322048D01*
X157025908Y-85655381D02*
X157025908Y-84988714D01*
X157025908Y-85179190D02*
X157073527Y-85083952D01*
X157121146Y-85036333D01*
X157216384Y-84988714D01*
X157311623Y-84988714D01*
X159025909Y-84655381D02*
X159359242Y-85655381D01*
X159692576Y-84655381D01*
X159978290Y-84750619D02*
X160025909Y-84703000D01*
X160121147Y-84655381D01*
X160359243Y-84655381D01*
X160454481Y-84703000D01*
X160502100Y-84750619D01*
X160549719Y-84845857D01*
X160549719Y-84941095D01*
X160502100Y-85083952D01*
X159930671Y-85655381D01*
X160549719Y-85655381D01*
X160978290Y-85560143D02*
X161025909Y-85607762D01*
X160978290Y-85655381D01*
X160930671Y-85607762D01*
X160978290Y-85560143D01*
X160978290Y-85655381D01*
X161644956Y-84655381D02*
X161740195Y-84655381D01*
X161835433Y-84703000D01*
X161883052Y-84750619D01*
X161930671Y-84845857D01*
X161978290Y-85036333D01*
X161978290Y-85274429D01*
X161930671Y-85464905D01*
X161883052Y-85560143D01*
X161835433Y-85607762D01*
X161740195Y-85655381D01*
X161644956Y-85655381D01*
X161549718Y-85607762D01*
X161502099Y-85560143D01*
X161454480Y-85464905D01*
X161406861Y-85274429D01*
X161406861Y-85036333D01*
X161454480Y-84845857D01*
X161502099Y-84750619D01*
X161549718Y-84703000D01*
X161644956Y-84655381D01*
D13*
X163322000Y-87376000D02*
X163322000Y-91948000D01*
X175006000Y-91948000D02*
X175006000Y-87376000D01*
X175006000Y-91948000D02*
X163322000Y-91948000D01*
X175006000Y-87376000D02*
X163322000Y-87376000D01*
X162814000Y-108839000D02*
X174244000Y-108839000D01*
X162814000Y-99949000D02*
X174244000Y-99949000D01*
X174244000Y-99949000D02*
X174244000Y-108839000D01*
X162814000Y-108839000D02*
X162814000Y-99949000D01*
D14*
X155332000Y-90592000D02*
X153532000Y-90592000D01*
X153532000Y-93812000D02*
X155982000Y-93812000D01*
D15*
X156674000Y-144741000D02*
X156674000Y-144536000D01*
X151174000Y-144741000D02*
X151174000Y-144441000D01*
X151174000Y-139231000D02*
X151174000Y-139531000D01*
X156674000Y-139231000D02*
X156674000Y-139531000D01*
X156674000Y-144741000D02*
X151174000Y-144741000D01*
X156674000Y-139231000D02*
X151174000Y-139231000D01*
X156674000Y-144536000D02*
X158424000Y-144536000D01*
D13*
X123254000Y-121754000D02*
X123254000Y-132754000D01*
X131254000Y-121654000D02*
X123254000Y-121654000D01*
X131254000Y-132754000D02*
X123254000Y-132754000D01*
X130111905Y-124654000D02*
G75*
G03X130111905Y-124654000I-457905J0D01*
G01*
X131254000Y-121654000D02*
X131254000Y-132654000D01*
D15*
X167073000Y-96504000D02*
X167073000Y-94504000D01*
X169223000Y-94504000D02*
X169223000Y-96504000D01*
X166429000Y-94504000D02*
X166429000Y-96504000D01*
X164279000Y-96504000D02*
X164279000Y-94504000D01*
X114030000Y-113089000D02*
X112030000Y-113089000D01*
X112030000Y-110939000D02*
X114030000Y-110939000D01*
X112284000Y-137101000D02*
X114284000Y-137101000D01*
X114284000Y-139251000D02*
X112284000Y-139251000D01*
X146542000Y-142807000D02*
X144542000Y-142807000D01*
X144542000Y-140657000D02*
X146542000Y-140657000D01*
X147050000Y-134425000D02*
X145050000Y-134425000D01*
X145050000Y-132275000D02*
X147050000Y-132275000D01*
X119364000Y-113089000D02*
X117364000Y-113089000D01*
X117364000Y-110939000D02*
X119364000Y-110939000D01*
X163814000Y-140013000D02*
X161814000Y-140013000D01*
X161814000Y-137863000D02*
X163814000Y-137863000D01*
X169910000Y-141029000D02*
X167910000Y-141029000D01*
X167910000Y-138879000D02*
X169910000Y-138879000D01*
X93202000Y-117153000D02*
X91202000Y-117153000D01*
X91202000Y-115003000D02*
X93202000Y-115003000D01*
D14*
X102518000Y-122302000D02*
X102518000Y-125602000D01*
X102518000Y-125602000D02*
X107918000Y-125602000D01*
X102518000Y-122302000D02*
X107918000Y-122302000D01*
X110138000Y-122302000D02*
X110138000Y-125602000D01*
X110138000Y-125602000D02*
X115538000Y-125602000D01*
X110138000Y-122302000D02*
X115538000Y-122302000D01*
X110138000Y-126620000D02*
X110138000Y-129920000D01*
X110138000Y-129920000D02*
X115538000Y-129920000D01*
X110138000Y-126620000D02*
X115538000Y-126620000D01*
D15*
X152154000Y-121754000D02*
X153154000Y-121754000D01*
X153154000Y-120054000D02*
X152154000Y-120054000D01*
X134120000Y-115658000D02*
X135120000Y-115658000D01*
X135120000Y-113958000D02*
X134120000Y-113958000D01*
X97400000Y-127950000D02*
X98400000Y-127950000D01*
X98400000Y-126250000D02*
X97400000Y-126250000D01*
X113038000Y-132930000D02*
X114038000Y-132930000D01*
X114038000Y-131230000D02*
X113038000Y-131230000D01*
X160774000Y-114212000D02*
X159774000Y-114212000D01*
X159774000Y-115912000D02*
X160774000Y-115912000D01*
D14*
X112817219Y-144018000D02*
G75*
G03X112817219Y-144018000I-803219J0D01*
G01*
X158537219Y-136906000D02*
G75*
G03X158537219Y-136906000I-803219J0D01*
G01*
X141773219Y-144272000D02*
G75*
G03X141773219Y-144272000I-803219J0D01*
G01*
D15*
X126957000Y-137125000D02*
X126957000Y-137175000D01*
X131107000Y-137125000D02*
X131107000Y-137270000D01*
X131107000Y-142275000D02*
X131107000Y-142130000D01*
X126957000Y-142275000D02*
X126957000Y-142130000D01*
X126957000Y-137125000D02*
X131107000Y-137125000D01*
X126957000Y-142275000D02*
X131107000Y-142275000D01*
X126957000Y-137175000D02*
X125557000Y-137175000D01*
X134620000Y-102362000D02*
X122936000Y-102362000D01*
X122936000Y-102362000D02*
X122936000Y-108458000D01*
X134620000Y-102362000D02*
X134620000Y-108458000D01*
X134620000Y-108458000D02*
X122936000Y-108458000D01*
D14*
X111236000Y-87764000D02*
G75*
G02X109236000Y-87764000I-1000000J0D01*
G01*
X109236000Y-87764000D02*
X107466000Y-87764000D01*
X107466000Y-87764000D02*
X107466000Y-95624000D01*
X107466000Y-95624000D02*
X113006000Y-95624000D01*
X113006000Y-95624000D02*
X113006000Y-87764000D01*
X113006000Y-87764000D02*
X111236000Y-87764000D01*
D13*
X150876000Y-127254000D02*
X175006000Y-127254000D01*
X150876000Y-134874000D02*
X150876000Y-127254000D01*
X175006000Y-134874000D02*
X150876000Y-134874000D01*
X175006000Y-127254000D02*
X175006000Y-134874000D01*
D15*
X163306000Y-144839000D02*
X161306000Y-144839000D01*
X161306000Y-142689000D02*
X163306000Y-142689000D01*
X106664000Y-137473000D02*
X104664000Y-137473000D01*
X104664000Y-135323000D02*
X106664000Y-135323000D01*
X120888000Y-138489000D02*
X118888000Y-138489000D01*
X118888000Y-136339000D02*
X120888000Y-136339000D01*
X88122000Y-144077000D02*
X86122000Y-144077000D01*
X86122000Y-141927000D02*
X88122000Y-141927000D01*
X169613000Y-96504000D02*
X169613000Y-94504000D01*
X171763000Y-94504000D02*
X171763000Y-96504000D01*
D16*
X151916000Y-113820000D02*
X151916000Y-117320000D01*
X154916000Y-113820000D02*
X151916000Y-113820000D01*
X154916000Y-117320000D02*
X154916000Y-113820000D01*
X151916000Y-117320000D02*
X154916000Y-117320000D01*
D13*
X56000000Y-113400000D02*
X66000000Y-113400000D01*
X66000000Y-105000000D02*
X66000000Y-113400000D01*
X56000000Y-105000000D02*
X66000000Y-105000000D01*
X56000000Y-113400000D02*
X56000000Y-105000000D01*
D15*
X56388000Y-135382000D02*
X55880000Y-135382000D01*
X56388000Y-141478000D02*
X56388000Y-135382000D01*
X55880000Y-141478000D02*
X56388000Y-141478000D01*
X83312000Y-130556000D02*
X83312000Y-146304000D01*
X55880000Y-146304000D02*
X55880000Y-130556000D01*
X83312000Y-146304000D02*
X55880000Y-146304000D01*
X83312000Y-130556000D02*
X55880000Y-130556000D01*
X56388000Y-119126000D02*
X55880000Y-119126000D01*
X56388000Y-125222000D02*
X56388000Y-119126000D01*
X55880000Y-125222000D02*
X56388000Y-125222000D01*
X83312000Y-114300000D02*
X83312000Y-130048000D01*
X55880000Y-130048000D02*
X55880000Y-114300000D01*
X83312000Y-130048000D02*
X55880000Y-130048000D01*
X83312000Y-114300000D02*
X55880000Y-114300000D01*
D14*
X126456000Y-113014000D02*
X126456000Y-111014000D01*
X126456000Y-111014000D02*
X122556000Y-111014000D01*
X126456000Y-113014000D02*
X122556000Y-113014000D01*
X92704000Y-112894000D02*
X92704000Y-108594000D01*
X92704000Y-108594000D02*
X87004000Y-108594000D01*
X92704000Y-112894000D02*
X87004000Y-112894000D01*
X77476000Y-108594000D02*
X77476000Y-112894000D01*
X77476000Y-112894000D02*
X83176000Y-112894000D01*
X77476000Y-108594000D02*
X83176000Y-108594000D01*
X116084000Y-141614000D02*
X116084000Y-145914000D01*
X116084000Y-145914000D02*
X121784000Y-145914000D01*
X116084000Y-141614000D02*
X121784000Y-141614000D01*
D15*
X153971000Y-100903000D02*
X153971000Y-108901000D01*
X154111000Y-100908000D02*
X154111000Y-108896000D01*
X154251000Y-100918000D02*
X154251000Y-108886000D01*
X154391000Y-100933000D02*
X154391000Y-108871000D01*
X154531000Y-100953000D02*
X154531000Y-108851000D01*
X154671000Y-100978000D02*
X154671000Y-104680000D01*
X154671000Y-105124000D02*
X154671000Y-108826000D01*
X154811000Y-101008000D02*
X154811000Y-104352000D01*
X154811000Y-105452000D02*
X154811000Y-108796000D01*
X154951000Y-101044000D02*
X154951000Y-104183000D01*
X154951000Y-105621000D02*
X154951000Y-108760000D01*
X155091000Y-101085000D02*
X155091000Y-104070000D01*
X155091000Y-105734000D02*
X155091000Y-108719000D01*
X155231000Y-101131000D02*
X155231000Y-103992000D01*
X155231000Y-105812000D02*
X155231000Y-108673000D01*
X155371000Y-101184000D02*
X155371000Y-103941000D01*
X155371000Y-105863000D02*
X155371000Y-108620000D01*
X155511000Y-101243000D02*
X155511000Y-103911000D01*
X155511000Y-105893000D02*
X155511000Y-108561000D01*
X155651000Y-101308000D02*
X155651000Y-103902000D01*
X155651000Y-105902000D02*
X155651000Y-108496000D01*
X155791000Y-101379000D02*
X155791000Y-103913000D01*
X155791000Y-105891000D02*
X155791000Y-108425000D01*
X155931000Y-101458000D02*
X155931000Y-103943000D01*
X155931000Y-105861000D02*
X155931000Y-108346000D01*
X156071000Y-101545000D02*
X156071000Y-103997000D01*
X156071000Y-105807000D02*
X156071000Y-108259000D01*
X156211000Y-101640000D02*
X156211000Y-104077000D01*
X156211000Y-105727000D02*
X156211000Y-108164000D01*
X156351000Y-101744000D02*
X156351000Y-104193000D01*
X156351000Y-105611000D02*
X156351000Y-108060000D01*
X156491000Y-101858000D02*
X156491000Y-104367000D01*
X156491000Y-105437000D02*
X156491000Y-107946000D01*
X156631000Y-101983000D02*
X156631000Y-104729000D01*
X156631000Y-105075000D02*
X156631000Y-107821000D01*
X156771000Y-102121000D02*
X156771000Y-107683000D01*
X156911000Y-102273000D02*
X156911000Y-107531000D01*
X157051000Y-102443000D02*
X157051000Y-107361000D01*
X157191000Y-102634000D02*
X157191000Y-107170000D01*
X157331000Y-102852000D02*
X157331000Y-106952000D01*
X157471000Y-103108000D02*
X157471000Y-106696000D01*
X157611000Y-103419000D02*
X157611000Y-106385000D01*
X157751000Y-103835000D02*
X157751000Y-105969000D01*
X157891000Y-104702000D02*
X157891000Y-105102000D01*
X156646000Y-104902000D02*
G75*
G03X156646000Y-104902000I-1000000J0D01*
G01*
X157933500Y-104902000D02*
G75*
G03X157933500Y-104902000I-4037500J0D01*
G01*
X141486000Y-138264000D02*
X142486000Y-138264000D01*
X142486000Y-136564000D02*
X141486000Y-136564000D01*
X87876000Y-115228000D02*
X86876000Y-115228000D01*
X86876000Y-116928000D02*
X87876000Y-116928000D01*
X136660000Y-138264000D02*
X137660000Y-138264000D01*
X137660000Y-136564000D02*
X136660000Y-136564000D01*
D14*
X94250000Y-144900000D02*
G75*
G02X96250000Y-144900000I1000000J0D01*
G01*
X96250000Y-144900000D02*
X98020000Y-144900000D01*
X98020000Y-144900000D02*
X98020000Y-137040000D01*
X98020000Y-137040000D02*
X92480000Y-137040000D01*
X92480000Y-137040000D02*
X92480000Y-144900000D01*
X92480000Y-144900000D02*
X94250000Y-144900000D01*
D15*
X134620000Y-88392000D02*
X122936000Y-88392000D01*
X122936000Y-88392000D02*
X122936000Y-94488000D01*
X134620000Y-88392000D02*
X134620000Y-94488000D01*
X134620000Y-94488000D02*
X122936000Y-94488000D01*
D14*
X111236000Y-98940000D02*
G75*
G02X109236000Y-98940000I-1000000J0D01*
G01*
X109236000Y-98940000D02*
X107466000Y-98940000D01*
X107466000Y-98940000D02*
X107466000Y-106800000D01*
X107466000Y-106800000D02*
X113006000Y-106800000D01*
X113006000Y-106800000D02*
X113006000Y-98940000D01*
X113006000Y-98940000D02*
X111236000Y-98940000D01*
D15*
X56080000Y-104140000D02*
X56080000Y-83820000D01*
X100330000Y-104140000D02*
X56080000Y-104140000D01*
X100330000Y-83820000D02*
X100330000Y-104140000D01*
X56080000Y-83820000D02*
X100330000Y-83820000D01*
X110490000Y-118872000D02*
X115570000Y-118872000D01*
X110490000Y-114427000D02*
X115570000Y-114427000D01*
X115570000Y-120777000D02*
X110490000Y-120777000D01*
X115570000Y-120777000D02*
X115570000Y-114427000D01*
X110490000Y-120777000D02*
X110490000Y-114427000D01*
D14*
X139724000Y-129198000D02*
X139724000Y-130898000D01*
X139724000Y-130898000D02*
X142274000Y-130898000D01*
X139724000Y-129198000D02*
X142274000Y-129198000D01*
X139724000Y-132246000D02*
X139724000Y-133946000D01*
X139724000Y-133946000D02*
X142274000Y-133946000D01*
X139724000Y-132246000D02*
X142274000Y-132246000D01*
D15*
X92202000Y-127000000D02*
X87122000Y-127000000D01*
X87122000Y-121285000D02*
X87122000Y-122555000D01*
X87122000Y-127000000D02*
X87122000Y-126365000D01*
X92202000Y-121920000D02*
X92202000Y-122555000D01*
X92202000Y-127000000D02*
X92202000Y-126365000D01*
X92202000Y-127000000D02*
X92202000Y-127635000D01*
X92202000Y-127635000D02*
X87122000Y-127635000D01*
X87122000Y-127635000D02*
X87122000Y-127000000D01*
X87122000Y-121285000D02*
X92202000Y-121285000D01*
X92202000Y-121285000D02*
X92202000Y-121920000D01*
D14*
X135931219Y-144272000D02*
G75*
G03X135931219Y-144272000I-803219J0D01*
G01*
D15*
X67586860Y-80264000D02*
X70589140Y-80264000D01*
X69088000Y-78762860D02*
X69088000Y-81765140D01*
X70589140Y-80264000D02*
G75*
G03X70589140Y-80264000I-1501140J0D01*
G01*
X159821714Y-89606381D02*
X159821714Y-88606381D01*
X160059809Y-88606381D01*
X160202667Y-88654000D01*
X160297905Y-88749238D01*
X160345524Y-88844476D01*
X160393143Y-89034952D01*
X160393143Y-89177810D01*
X160345524Y-89368286D01*
X160297905Y-89463524D01*
X160202667Y-89558762D01*
X160059809Y-89606381D01*
X159821714Y-89606381D01*
X161345524Y-89606381D02*
X160774095Y-89606381D01*
X161059809Y-89606381D02*
X161059809Y-88606381D01*
X160964571Y-88749238D01*
X160869333Y-88844476D01*
X160774095Y-88892095D01*
X161678857Y-88606381D02*
X162297905Y-88606381D01*
X161964571Y-88987333D01*
X162107429Y-88987333D01*
X162202667Y-89034952D01*
X162250286Y-89082571D01*
X162297905Y-89177810D01*
X162297905Y-89415905D01*
X162250286Y-89511143D01*
X162202667Y-89558762D01*
X162107429Y-89606381D01*
X161821714Y-89606381D01*
X161726476Y-89558762D01*
X161678857Y-89511143D01*
X161948762Y-105727333D02*
X161996381Y-105584476D01*
X161996381Y-105346380D01*
X161948762Y-105251142D01*
X161901143Y-105203523D01*
X161805905Y-105155904D01*
X161710667Y-105155904D01*
X161615429Y-105203523D01*
X161567810Y-105251142D01*
X161520190Y-105346380D01*
X161472571Y-105536857D01*
X161424952Y-105632095D01*
X161377333Y-105679714D01*
X161282095Y-105727333D01*
X161186857Y-105727333D01*
X161091619Y-105679714D01*
X161044000Y-105632095D01*
X160996381Y-105536857D01*
X160996381Y-105298761D01*
X161044000Y-105155904D01*
X160996381Y-104822571D02*
X161996381Y-104584476D01*
X161282095Y-104393999D01*
X161996381Y-104203523D01*
X160996381Y-103965428D01*
X161091619Y-103632095D02*
X161044000Y-103584476D01*
X160996381Y-103489238D01*
X160996381Y-103251142D01*
X161044000Y-103155904D01*
X161091619Y-103108285D01*
X161186857Y-103060666D01*
X161282095Y-103060666D01*
X161424952Y-103108285D01*
X161996381Y-103679714D01*
X161996381Y-103060666D01*
X156972095Y-91400381D02*
X156972095Y-92209905D01*
X157019714Y-92305143D01*
X157067333Y-92352762D01*
X157162571Y-92400381D01*
X157353048Y-92400381D01*
X157448286Y-92352762D01*
X157495905Y-92305143D01*
X157543524Y-92209905D01*
X157543524Y-91400381D01*
X157972095Y-91495619D02*
X158019714Y-91448000D01*
X158114952Y-91400381D01*
X158353048Y-91400381D01*
X158448286Y-91448000D01*
X158495905Y-91495619D01*
X158543524Y-91590857D01*
X158543524Y-91686095D01*
X158495905Y-91828952D01*
X157924476Y-92400381D01*
X158543524Y-92400381D01*
X153162095Y-145118381D02*
X153162095Y-145927905D01*
X153209714Y-146023143D01*
X153257333Y-146070762D01*
X153352571Y-146118381D01*
X153543048Y-146118381D01*
X153638286Y-146070762D01*
X153685905Y-146023143D01*
X153733524Y-145927905D01*
X153733524Y-145118381D01*
X154733524Y-146118381D02*
X154162095Y-146118381D01*
X154447809Y-146118381D02*
X154447809Y-145118381D01*
X154352571Y-145261238D01*
X154257333Y-145356476D01*
X154162095Y-145404095D01*
X126492095Y-133706381D02*
X127063524Y-133706381D01*
X126777809Y-134706381D02*
X126777809Y-133706381D01*
X127920667Y-134706381D02*
X127349238Y-134706381D01*
X127634952Y-134706381D02*
X127634952Y-133706381D01*
X127539714Y-133849238D01*
X127444476Y-133944476D01*
X127349238Y-133992095D01*
X167505143Y-99004381D02*
X167171809Y-98528190D01*
X166933714Y-99004381D02*
X166933714Y-98004381D01*
X167314667Y-98004381D01*
X167409905Y-98052000D01*
X167457524Y-98099619D01*
X167505143Y-98194857D01*
X167505143Y-98337714D01*
X167457524Y-98432952D01*
X167409905Y-98480571D01*
X167314667Y-98528190D01*
X166933714Y-98528190D01*
X168457524Y-99004381D02*
X167886095Y-99004381D01*
X168171809Y-99004381D02*
X168171809Y-98004381D01*
X168076571Y-98147238D01*
X167981333Y-98242476D01*
X167886095Y-98290095D01*
X169409905Y-99004381D02*
X168838476Y-99004381D01*
X169124190Y-99004381D02*
X169124190Y-98004381D01*
X169028952Y-98147238D01*
X168933714Y-98242476D01*
X168838476Y-98290095D01*
X163506381Y-96146857D02*
X163030190Y-96480191D01*
X163506381Y-96718286D02*
X162506381Y-96718286D01*
X162506381Y-96337333D01*
X162554000Y-96242095D01*
X162601619Y-96194476D01*
X162696857Y-96146857D01*
X162839714Y-96146857D01*
X162934952Y-96194476D01*
X162982571Y-96242095D01*
X163030190Y-96337333D01*
X163030190Y-96718286D01*
X163506381Y-95194476D02*
X163506381Y-95765905D01*
X163506381Y-95480191D02*
X162506381Y-95480191D01*
X162649238Y-95575429D01*
X162744476Y-95670667D01*
X162792095Y-95765905D01*
X162506381Y-94575429D02*
X162506381Y-94480190D01*
X162554000Y-94384952D01*
X162601619Y-94337333D01*
X162696857Y-94289714D01*
X162887333Y-94242095D01*
X163125429Y-94242095D01*
X163315905Y-94289714D01*
X163411143Y-94337333D01*
X163458762Y-94384952D01*
X163506381Y-94480190D01*
X163506381Y-94575429D01*
X163458762Y-94670667D01*
X163411143Y-94718286D01*
X163315905Y-94765905D01*
X163125429Y-94813524D01*
X162887333Y-94813524D01*
X162696857Y-94765905D01*
X162601619Y-94718286D01*
X162554000Y-94670667D01*
X162506381Y-94575429D01*
X112863334Y-110166381D02*
X112530000Y-109690190D01*
X112291905Y-110166381D02*
X112291905Y-109166381D01*
X112672858Y-109166381D01*
X112768096Y-109214000D01*
X112815715Y-109261619D01*
X112863334Y-109356857D01*
X112863334Y-109499714D01*
X112815715Y-109594952D01*
X112768096Y-109642571D01*
X112672858Y-109690190D01*
X112291905Y-109690190D01*
X113339524Y-110166381D02*
X113530000Y-110166381D01*
X113625239Y-110118762D01*
X113672858Y-110071143D01*
X113768096Y-109928286D01*
X113815715Y-109737810D01*
X113815715Y-109356857D01*
X113768096Y-109261619D01*
X113720477Y-109214000D01*
X113625239Y-109166381D01*
X113434762Y-109166381D01*
X113339524Y-109214000D01*
X113291905Y-109261619D01*
X113244286Y-109356857D01*
X113244286Y-109594952D01*
X113291905Y-109690190D01*
X113339524Y-109737810D01*
X113434762Y-109785429D01*
X113625239Y-109785429D01*
X113720477Y-109737810D01*
X113768096Y-109690190D01*
X113815715Y-109594952D01*
X113117334Y-140928381D02*
X112784000Y-140452190D01*
X112545905Y-140928381D02*
X112545905Y-139928381D01*
X112926858Y-139928381D01*
X113022096Y-139976000D01*
X113069715Y-140023619D01*
X113117334Y-140118857D01*
X113117334Y-140261714D01*
X113069715Y-140356952D01*
X113022096Y-140404571D01*
X112926858Y-140452190D01*
X112545905Y-140452190D01*
X113688762Y-140356952D02*
X113593524Y-140309333D01*
X113545905Y-140261714D01*
X113498286Y-140166476D01*
X113498286Y-140118857D01*
X113545905Y-140023619D01*
X113593524Y-139976000D01*
X113688762Y-139928381D01*
X113879239Y-139928381D01*
X113974477Y-139976000D01*
X114022096Y-140023619D01*
X114069715Y-140118857D01*
X114069715Y-140166476D01*
X114022096Y-140261714D01*
X113974477Y-140309333D01*
X113879239Y-140356952D01*
X113688762Y-140356952D01*
X113593524Y-140404571D01*
X113545905Y-140452190D01*
X113498286Y-140547429D01*
X113498286Y-140737905D01*
X113545905Y-140833143D01*
X113593524Y-140880762D01*
X113688762Y-140928381D01*
X113879239Y-140928381D01*
X113974477Y-140880762D01*
X114022096Y-140833143D01*
X114069715Y-140737905D01*
X114069715Y-140547429D01*
X114022096Y-140452190D01*
X113974477Y-140404571D01*
X113879239Y-140356952D01*
X145375334Y-139884381D02*
X145042000Y-139408190D01*
X144803905Y-139884381D02*
X144803905Y-138884381D01*
X145184858Y-138884381D01*
X145280096Y-138932000D01*
X145327715Y-138979619D01*
X145375334Y-139074857D01*
X145375334Y-139217714D01*
X145327715Y-139312952D01*
X145280096Y-139360571D01*
X145184858Y-139408190D01*
X144803905Y-139408190D01*
X145708667Y-138884381D02*
X146375334Y-138884381D01*
X145946762Y-139884381D01*
X145883334Y-131502381D02*
X145550000Y-131026190D01*
X145311905Y-131502381D02*
X145311905Y-130502381D01*
X145692858Y-130502381D01*
X145788096Y-130550000D01*
X145835715Y-130597619D01*
X145883334Y-130692857D01*
X145883334Y-130835714D01*
X145835715Y-130930952D01*
X145788096Y-130978571D01*
X145692858Y-131026190D01*
X145311905Y-131026190D01*
X146740477Y-130502381D02*
X146550000Y-130502381D01*
X146454762Y-130550000D01*
X146407143Y-130597619D01*
X146311905Y-130740476D01*
X146264286Y-130930952D01*
X146264286Y-131311905D01*
X146311905Y-131407143D01*
X146359524Y-131454762D01*
X146454762Y-131502381D01*
X146645239Y-131502381D01*
X146740477Y-131454762D01*
X146788096Y-131407143D01*
X146835715Y-131311905D01*
X146835715Y-131073810D01*
X146788096Y-130978571D01*
X146740477Y-130930952D01*
X146645239Y-130883333D01*
X146454762Y-130883333D01*
X146359524Y-130930952D01*
X146311905Y-130978571D01*
X146264286Y-131073810D01*
X118197334Y-110166381D02*
X117864000Y-109690190D01*
X117625905Y-110166381D02*
X117625905Y-109166381D01*
X118006858Y-109166381D01*
X118102096Y-109214000D01*
X118149715Y-109261619D01*
X118197334Y-109356857D01*
X118197334Y-109499714D01*
X118149715Y-109594952D01*
X118102096Y-109642571D01*
X118006858Y-109690190D01*
X117625905Y-109690190D01*
X119102096Y-109166381D02*
X118625905Y-109166381D01*
X118578286Y-109642571D01*
X118625905Y-109594952D01*
X118721143Y-109547333D01*
X118959239Y-109547333D01*
X119054477Y-109594952D01*
X119102096Y-109642571D01*
X119149715Y-109737810D01*
X119149715Y-109975905D01*
X119102096Y-110071143D01*
X119054477Y-110118762D01*
X118959239Y-110166381D01*
X118721143Y-110166381D01*
X118625905Y-110118762D01*
X118578286Y-110071143D01*
X162647334Y-137090381D02*
X162314000Y-136614190D01*
X162075905Y-137090381D02*
X162075905Y-136090381D01*
X162456858Y-136090381D01*
X162552096Y-136138000D01*
X162599715Y-136185619D01*
X162647334Y-136280857D01*
X162647334Y-136423714D01*
X162599715Y-136518952D01*
X162552096Y-136566571D01*
X162456858Y-136614190D01*
X162075905Y-136614190D01*
X163504477Y-136423714D02*
X163504477Y-137090381D01*
X163266381Y-136042762D02*
X163028286Y-136757048D01*
X163647334Y-136757048D01*
X168743334Y-138106381D02*
X168410000Y-137630190D01*
X168171905Y-138106381D02*
X168171905Y-137106381D01*
X168552858Y-137106381D01*
X168648096Y-137154000D01*
X168695715Y-137201619D01*
X168743334Y-137296857D01*
X168743334Y-137439714D01*
X168695715Y-137534952D01*
X168648096Y-137582571D01*
X168552858Y-137630190D01*
X168171905Y-137630190D01*
X169076667Y-137106381D02*
X169695715Y-137106381D01*
X169362381Y-137487333D01*
X169505239Y-137487333D01*
X169600477Y-137534952D01*
X169648096Y-137582571D01*
X169695715Y-137677810D01*
X169695715Y-137915905D01*
X169648096Y-138011143D01*
X169600477Y-138058762D01*
X169505239Y-138106381D01*
X169219524Y-138106381D01*
X169124286Y-138058762D01*
X169076667Y-138011143D01*
X92035334Y-114230381D02*
X91702000Y-113754190D01*
X91463905Y-114230381D02*
X91463905Y-113230381D01*
X91844858Y-113230381D01*
X91940096Y-113278000D01*
X91987715Y-113325619D01*
X92035334Y-113420857D01*
X92035334Y-113563714D01*
X91987715Y-113658952D01*
X91940096Y-113706571D01*
X91844858Y-113754190D01*
X91463905Y-113754190D01*
X92987715Y-114230381D02*
X92416286Y-114230381D01*
X92702000Y-114230381D02*
X92702000Y-113230381D01*
X92606762Y-113373238D01*
X92511524Y-113468476D01*
X92416286Y-113516095D01*
X105179905Y-120594381D02*
X105179905Y-119594381D01*
X105418000Y-119594381D01*
X105560858Y-119642000D01*
X105656096Y-119737238D01*
X105703715Y-119832476D01*
X105751334Y-120022952D01*
X105751334Y-120165810D01*
X105703715Y-120356286D01*
X105656096Y-120451524D01*
X105560858Y-120546762D01*
X105418000Y-120594381D01*
X105179905Y-120594381D01*
X106608477Y-119594381D02*
X106418000Y-119594381D01*
X106322762Y-119642000D01*
X106275143Y-119689619D01*
X106179905Y-119832476D01*
X106132286Y-120022952D01*
X106132286Y-120403905D01*
X106179905Y-120499143D01*
X106227524Y-120546762D01*
X106322762Y-120594381D01*
X106513239Y-120594381D01*
X106608477Y-120546762D01*
X106656096Y-120499143D01*
X106703715Y-120403905D01*
X106703715Y-120165810D01*
X106656096Y-120070571D01*
X106608477Y-120022952D01*
X106513239Y-119975333D01*
X106322762Y-119975333D01*
X106227524Y-120022952D01*
X106179905Y-120070571D01*
X106132286Y-120165810D01*
X112799905Y-120594381D02*
X112799905Y-119594381D01*
X113038000Y-119594381D01*
X113180858Y-119642000D01*
X113276096Y-119737238D01*
X113323715Y-119832476D01*
X113371334Y-120022952D01*
X113371334Y-120165810D01*
X113323715Y-120356286D01*
X113276096Y-120451524D01*
X113180858Y-120546762D01*
X113038000Y-120594381D01*
X112799905Y-120594381D01*
X114276096Y-119594381D02*
X113799905Y-119594381D01*
X113752286Y-120070571D01*
X113799905Y-120022952D01*
X113895143Y-119975333D01*
X114133239Y-119975333D01*
X114228477Y-120022952D01*
X114276096Y-120070571D01*
X114323715Y-120165810D01*
X114323715Y-120403905D01*
X114276096Y-120499143D01*
X114228477Y-120546762D01*
X114133239Y-120594381D01*
X113895143Y-120594381D01*
X113799905Y-120546762D01*
X113752286Y-120499143D01*
X112799905Y-124912381D02*
X112799905Y-123912381D01*
X113038000Y-123912381D01*
X113180858Y-123960000D01*
X113276096Y-124055238D01*
X113323715Y-124150476D01*
X113371334Y-124340952D01*
X113371334Y-124483810D01*
X113323715Y-124674286D01*
X113276096Y-124769524D01*
X113180858Y-124864762D01*
X113038000Y-124912381D01*
X112799905Y-124912381D01*
X114323715Y-124912381D02*
X113752286Y-124912381D01*
X114038000Y-124912381D02*
X114038000Y-123912381D01*
X113942762Y-124055238D01*
X113847524Y-124150476D01*
X113752286Y-124198095D01*
X152487334Y-123361143D02*
X152439715Y-123408762D01*
X152296858Y-123456381D01*
X152201620Y-123456381D01*
X152058762Y-123408762D01*
X151963524Y-123313524D01*
X151915905Y-123218286D01*
X151868286Y-123027810D01*
X151868286Y-122884952D01*
X151915905Y-122694476D01*
X151963524Y-122599238D01*
X152058762Y-122504000D01*
X152201620Y-122456381D01*
X152296858Y-122456381D01*
X152439715Y-122504000D01*
X152487334Y-122551619D01*
X153392096Y-122456381D02*
X152915905Y-122456381D01*
X152868286Y-122932571D01*
X152915905Y-122884952D01*
X153011143Y-122837333D01*
X153249239Y-122837333D01*
X153344477Y-122884952D01*
X153392096Y-122932571D01*
X153439715Y-123027810D01*
X153439715Y-123265905D01*
X153392096Y-123361143D01*
X153344477Y-123408762D01*
X153249239Y-123456381D01*
X153011143Y-123456381D01*
X152915905Y-123408762D01*
X152868286Y-123361143D01*
X134453334Y-117265143D02*
X134405715Y-117312762D01*
X134262858Y-117360381D01*
X134167620Y-117360381D01*
X134024762Y-117312762D01*
X133929524Y-117217524D01*
X133881905Y-117122286D01*
X133834286Y-116931810D01*
X133834286Y-116788952D01*
X133881905Y-116598476D01*
X133929524Y-116503238D01*
X134024762Y-116408000D01*
X134167620Y-116360381D01*
X134262858Y-116360381D01*
X134405715Y-116408000D01*
X134453334Y-116455619D01*
X135310477Y-116693714D02*
X135310477Y-117360381D01*
X135072381Y-116312762D02*
X134834286Y-117027048D01*
X135453334Y-117027048D01*
X97733334Y-129557143D02*
X97685715Y-129604762D01*
X97542858Y-129652381D01*
X97447620Y-129652381D01*
X97304762Y-129604762D01*
X97209524Y-129509524D01*
X97161905Y-129414286D01*
X97114286Y-129223810D01*
X97114286Y-129080952D01*
X97161905Y-128890476D01*
X97209524Y-128795238D01*
X97304762Y-128700000D01*
X97447620Y-128652381D01*
X97542858Y-128652381D01*
X97685715Y-128700000D01*
X97733334Y-128747619D01*
X98066667Y-128652381D02*
X98685715Y-128652381D01*
X98352381Y-129033333D01*
X98495239Y-129033333D01*
X98590477Y-129080952D01*
X98638096Y-129128571D01*
X98685715Y-129223810D01*
X98685715Y-129461905D01*
X98638096Y-129557143D01*
X98590477Y-129604762D01*
X98495239Y-129652381D01*
X98209524Y-129652381D01*
X98114286Y-129604762D01*
X98066667Y-129557143D01*
X113371334Y-134537143D02*
X113323715Y-134584762D01*
X113180858Y-134632381D01*
X113085620Y-134632381D01*
X112942762Y-134584762D01*
X112847524Y-134489524D01*
X112799905Y-134394286D01*
X112752286Y-134203810D01*
X112752286Y-134060952D01*
X112799905Y-133870476D01*
X112847524Y-133775238D01*
X112942762Y-133680000D01*
X113085620Y-133632381D01*
X113180858Y-133632381D01*
X113323715Y-133680000D01*
X113371334Y-133727619D01*
X113752286Y-133727619D02*
X113799905Y-133680000D01*
X113895143Y-133632381D01*
X114133239Y-133632381D01*
X114228477Y-133680000D01*
X114276096Y-133727619D01*
X114323715Y-133822857D01*
X114323715Y-133918095D01*
X114276096Y-134060952D01*
X113704667Y-134632381D01*
X114323715Y-134632381D01*
X160107334Y-113319143D02*
X160059715Y-113366762D01*
X159916858Y-113414381D01*
X159821620Y-113414381D01*
X159678762Y-113366762D01*
X159583524Y-113271524D01*
X159535905Y-113176286D01*
X159488286Y-112985810D01*
X159488286Y-112842952D01*
X159535905Y-112652476D01*
X159583524Y-112557238D01*
X159678762Y-112462000D01*
X159821620Y-112414381D01*
X159916858Y-112414381D01*
X160059715Y-112462000D01*
X160107334Y-112509619D01*
X161059715Y-113414381D02*
X160488286Y-113414381D01*
X160774000Y-113414381D02*
X160774000Y-112414381D01*
X160678762Y-112557238D01*
X160583524Y-112652476D01*
X160488286Y-112700095D01*
X111109238Y-141870381D02*
X111347333Y-142870381D01*
X111537810Y-142156095D01*
X111728286Y-142870381D01*
X111966381Y-141870381D01*
X112252095Y-141870381D02*
X112871143Y-141870381D01*
X112537809Y-142251333D01*
X112680667Y-142251333D01*
X112775905Y-142298952D01*
X112823524Y-142346571D01*
X112871143Y-142441810D01*
X112871143Y-142679905D01*
X112823524Y-142775143D01*
X112775905Y-142822762D01*
X112680667Y-142870381D01*
X112394952Y-142870381D01*
X112299714Y-142822762D01*
X112252095Y-142775143D01*
X154035238Y-136358381D02*
X154273333Y-137358381D01*
X154463810Y-136644095D01*
X154654286Y-137358381D01*
X154892381Y-136358381D01*
X155225714Y-136453619D02*
X155273333Y-136406000D01*
X155368571Y-136358381D01*
X155606667Y-136358381D01*
X155701905Y-136406000D01*
X155749524Y-136453619D01*
X155797143Y-136548857D01*
X155797143Y-136644095D01*
X155749524Y-136786952D01*
X155178095Y-137358381D01*
X155797143Y-137358381D01*
X140065238Y-141692381D02*
X140303333Y-142692381D01*
X140493810Y-141978095D01*
X140684286Y-142692381D01*
X140922381Y-141692381D01*
X141827143Y-142692381D02*
X141255714Y-142692381D01*
X141541428Y-142692381D02*
X141541428Y-141692381D01*
X141446190Y-141835238D01*
X141350952Y-141930476D01*
X141255714Y-141978095D01*
X128270095Y-135652381D02*
X128270095Y-136461905D01*
X128317714Y-136557143D01*
X128365333Y-136604762D01*
X128460571Y-136652381D01*
X128651048Y-136652381D01*
X128746286Y-136604762D01*
X128793905Y-136557143D01*
X128841524Y-136461905D01*
X128841524Y-135652381D01*
X129365333Y-136652381D02*
X129555809Y-136652381D01*
X129651048Y-136604762D01*
X129698667Y-136557143D01*
X129793905Y-136414286D01*
X129841524Y-136223810D01*
X129841524Y-135842857D01*
X129793905Y-135747619D01*
X129746286Y-135700000D01*
X129651048Y-135652381D01*
X129460571Y-135652381D01*
X129365333Y-135700000D01*
X129317714Y-135747619D01*
X129270095Y-135842857D01*
X129270095Y-136080952D01*
X129317714Y-136176190D01*
X129365333Y-136223810D01*
X129460571Y-136271429D01*
X129651048Y-136271429D01*
X129746286Y-136223810D01*
X129793905Y-136176190D01*
X129841524Y-136080952D01*
X128016095Y-110386381D02*
X128016095Y-111195905D01*
X128063714Y-111291143D01*
X128111333Y-111338762D01*
X128206571Y-111386381D01*
X128397048Y-111386381D01*
X128492286Y-111338762D01*
X128539905Y-111291143D01*
X128587524Y-111195905D01*
X128587524Y-110386381D01*
X129206571Y-110814952D02*
X129111333Y-110767333D01*
X129063714Y-110719714D01*
X129016095Y-110624476D01*
X129016095Y-110576857D01*
X129063714Y-110481619D01*
X129111333Y-110434000D01*
X129206571Y-110386381D01*
X129397048Y-110386381D01*
X129492286Y-110434000D01*
X129539905Y-110481619D01*
X129587524Y-110576857D01*
X129587524Y-110624476D01*
X129539905Y-110719714D01*
X129492286Y-110767333D01*
X129397048Y-110814952D01*
X129206571Y-110814952D01*
X129111333Y-110862571D01*
X129063714Y-110910190D01*
X129016095Y-111005429D01*
X129016095Y-111195905D01*
X129063714Y-111291143D01*
X129111333Y-111338762D01*
X129206571Y-111386381D01*
X129397048Y-111386381D01*
X129492286Y-111338762D01*
X129539905Y-111291143D01*
X129587524Y-111195905D01*
X129587524Y-111005429D01*
X129539905Y-110910190D01*
X129492286Y-110862571D01*
X129397048Y-110814952D01*
X109474095Y-86216381D02*
X109474095Y-87025905D01*
X109521714Y-87121143D01*
X109569333Y-87168762D01*
X109664571Y-87216381D01*
X109855048Y-87216381D01*
X109950286Y-87168762D01*
X109997905Y-87121143D01*
X110045524Y-87025905D01*
X110045524Y-86216381D01*
X110426476Y-86216381D02*
X111093143Y-86216381D01*
X110664571Y-87216381D01*
X171132667Y-125118762D02*
X171275524Y-125166381D01*
X171513620Y-125166381D01*
X171608858Y-125118762D01*
X171656477Y-125071143D01*
X171704096Y-124975905D01*
X171704096Y-124880667D01*
X171656477Y-124785429D01*
X171608858Y-124737810D01*
X171513620Y-124690190D01*
X171323143Y-124642571D01*
X171227905Y-124594952D01*
X171180286Y-124547333D01*
X171132667Y-124452095D01*
X171132667Y-124356857D01*
X171180286Y-124261619D01*
X171227905Y-124214000D01*
X171323143Y-124166381D01*
X171561239Y-124166381D01*
X171704096Y-124214000D01*
X172037429Y-124166381D02*
X172275524Y-125166381D01*
X172466001Y-124452095D01*
X172656477Y-125166381D01*
X172894572Y-124166381D01*
X173799334Y-125166381D02*
X173227905Y-125166381D01*
X173513619Y-125166381D02*
X173513619Y-124166381D01*
X173418381Y-124309238D01*
X173323143Y-124404476D01*
X173227905Y-124452095D01*
X161663143Y-141916381D02*
X161329809Y-141440190D01*
X161091714Y-141916381D02*
X161091714Y-140916381D01*
X161472667Y-140916381D01*
X161567905Y-140964000D01*
X161615524Y-141011619D01*
X161663143Y-141106857D01*
X161663143Y-141249714D01*
X161615524Y-141344952D01*
X161567905Y-141392571D01*
X161472667Y-141440190D01*
X161091714Y-141440190D01*
X162615524Y-141916381D02*
X162044095Y-141916381D01*
X162329809Y-141916381D02*
X162329809Y-140916381D01*
X162234571Y-141059238D01*
X162139333Y-141154476D01*
X162044095Y-141202095D01*
X163472667Y-140916381D02*
X163282190Y-140916381D01*
X163186952Y-140964000D01*
X163139333Y-141011619D01*
X163044095Y-141154476D01*
X162996476Y-141344952D01*
X162996476Y-141725905D01*
X163044095Y-141821143D01*
X163091714Y-141868762D01*
X163186952Y-141916381D01*
X163377429Y-141916381D01*
X163472667Y-141868762D01*
X163520286Y-141821143D01*
X163567905Y-141725905D01*
X163567905Y-141487810D01*
X163520286Y-141392571D01*
X163472667Y-141344952D01*
X163377429Y-141297333D01*
X163186952Y-141297333D01*
X163091714Y-141344952D01*
X163044095Y-141392571D01*
X162996476Y-141487810D01*
X105021143Y-134550381D02*
X104687809Y-134074190D01*
X104449714Y-134550381D02*
X104449714Y-133550381D01*
X104830667Y-133550381D01*
X104925905Y-133598000D01*
X104973524Y-133645619D01*
X105021143Y-133740857D01*
X105021143Y-133883714D01*
X104973524Y-133978952D01*
X104925905Y-134026571D01*
X104830667Y-134074190D01*
X104449714Y-134074190D01*
X105973524Y-134550381D02*
X105402095Y-134550381D01*
X105687809Y-134550381D02*
X105687809Y-133550381D01*
X105592571Y-133693238D01*
X105497333Y-133788476D01*
X105402095Y-133836095D01*
X106878286Y-133550381D02*
X106402095Y-133550381D01*
X106354476Y-134026571D01*
X106402095Y-133978952D01*
X106497333Y-133931333D01*
X106735429Y-133931333D01*
X106830667Y-133978952D01*
X106878286Y-134026571D01*
X106925905Y-134121810D01*
X106925905Y-134359905D01*
X106878286Y-134455143D01*
X106830667Y-134502762D01*
X106735429Y-134550381D01*
X106497333Y-134550381D01*
X106402095Y-134502762D01*
X106354476Y-134455143D01*
X119245143Y-135566381D02*
X118911809Y-135090190D01*
X118673714Y-135566381D02*
X118673714Y-134566381D01*
X119054667Y-134566381D01*
X119149905Y-134614000D01*
X119197524Y-134661619D01*
X119245143Y-134756857D01*
X119245143Y-134899714D01*
X119197524Y-134994952D01*
X119149905Y-135042571D01*
X119054667Y-135090190D01*
X118673714Y-135090190D01*
X120197524Y-135566381D02*
X119626095Y-135566381D01*
X119911809Y-135566381D02*
X119911809Y-134566381D01*
X119816571Y-134709238D01*
X119721333Y-134804476D01*
X119626095Y-134852095D01*
X121054667Y-134899714D02*
X121054667Y-135566381D01*
X120816571Y-134518762D02*
X120578476Y-135233048D01*
X121197524Y-135233048D01*
X86479143Y-141154381D02*
X86145809Y-140678190D01*
X85907714Y-141154381D02*
X85907714Y-140154381D01*
X86288667Y-140154381D01*
X86383905Y-140202000D01*
X86431524Y-140249619D01*
X86479143Y-140344857D01*
X86479143Y-140487714D01*
X86431524Y-140582952D01*
X86383905Y-140630571D01*
X86288667Y-140678190D01*
X85907714Y-140678190D01*
X87431524Y-141154381D02*
X86860095Y-141154381D01*
X87145809Y-141154381D02*
X87145809Y-140154381D01*
X87050571Y-140297238D01*
X86955333Y-140392476D01*
X86860095Y-140440095D01*
X87764857Y-140154381D02*
X88383905Y-140154381D01*
X88050571Y-140535333D01*
X88193429Y-140535333D01*
X88288667Y-140582952D01*
X88336286Y-140630571D01*
X88383905Y-140725810D01*
X88383905Y-140963905D01*
X88336286Y-141059143D01*
X88288667Y-141106762D01*
X88193429Y-141154381D01*
X87907714Y-141154381D01*
X87812476Y-141106762D01*
X87764857Y-141059143D01*
X173440381Y-96146857D02*
X172964190Y-96480191D01*
X173440381Y-96718286D02*
X172440381Y-96718286D01*
X172440381Y-96337333D01*
X172488000Y-96242095D01*
X172535619Y-96194476D01*
X172630857Y-96146857D01*
X172773714Y-96146857D01*
X172868952Y-96194476D01*
X172916571Y-96242095D01*
X172964190Y-96337333D01*
X172964190Y-96718286D01*
X173440381Y-95194476D02*
X173440381Y-95765905D01*
X173440381Y-95480191D02*
X172440381Y-95480191D01*
X172583238Y-95575429D01*
X172678476Y-95670667D01*
X172726095Y-95765905D01*
X172535619Y-94813524D02*
X172488000Y-94765905D01*
X172440381Y-94670667D01*
X172440381Y-94432571D01*
X172488000Y-94337333D01*
X172535619Y-94289714D01*
X172630857Y-94242095D01*
X172726095Y-94242095D01*
X172868952Y-94289714D01*
X173440381Y-94861143D01*
X173440381Y-94242095D01*
X156249334Y-116022381D02*
X155773143Y-116022381D01*
X155773143Y-115022381D01*
X156487429Y-115022381D02*
X157106477Y-115022381D01*
X156773143Y-115403333D01*
X156916001Y-115403333D01*
X157011239Y-115450952D01*
X157058858Y-115498571D01*
X157106477Y-115593810D01*
X157106477Y-115831905D01*
X157058858Y-115927143D01*
X157011239Y-115974762D01*
X156916001Y-116022381D01*
X156630286Y-116022381D01*
X156535048Y-115974762D01*
X156487429Y-115927143D01*
X69262667Y-109180381D02*
X69262667Y-109894667D01*
X69215047Y-110037524D01*
X69119809Y-110132762D01*
X68976952Y-110180381D01*
X68881714Y-110180381D01*
X69643619Y-109180381D02*
X70262667Y-109180381D01*
X69929333Y-109561333D01*
X70072191Y-109561333D01*
X70167429Y-109608952D01*
X70215048Y-109656571D01*
X70262667Y-109751810D01*
X70262667Y-109989905D01*
X70215048Y-110085143D01*
X70167429Y-110132762D01*
X70072191Y-110180381D01*
X69786476Y-110180381D01*
X69691238Y-110132762D01*
X69643619Y-110085143D01*
X84502667Y-136612381D02*
X84502667Y-137326667D01*
X84455047Y-137469524D01*
X84359809Y-137564762D01*
X84216952Y-137612381D01*
X84121714Y-137612381D01*
X84931238Y-136707619D02*
X84978857Y-136660000D01*
X85074095Y-136612381D01*
X85312191Y-136612381D01*
X85407429Y-136660000D01*
X85455048Y-136707619D01*
X85502667Y-136802857D01*
X85502667Y-136898095D01*
X85455048Y-137040952D01*
X84883619Y-137612381D01*
X85502667Y-137612381D01*
X84756667Y-122388381D02*
X84756667Y-123102667D01*
X84709047Y-123245524D01*
X84613809Y-123340762D01*
X84470952Y-123388381D01*
X84375714Y-123388381D01*
X85756667Y-123388381D02*
X85185238Y-123388381D01*
X85470952Y-123388381D02*
X85470952Y-122388381D01*
X85375714Y-122531238D01*
X85280476Y-122626476D01*
X85185238Y-122674095D01*
X122991714Y-114466381D02*
X122991714Y-113466381D01*
X123229809Y-113466381D01*
X123372667Y-113514000D01*
X123467905Y-113609238D01*
X123515524Y-113704476D01*
X123563143Y-113894952D01*
X123563143Y-114037810D01*
X123515524Y-114228286D01*
X123467905Y-114323524D01*
X123372667Y-114418762D01*
X123229809Y-114466381D01*
X122991714Y-114466381D01*
X124515524Y-114466381D02*
X123944095Y-114466381D01*
X124229809Y-114466381D02*
X124229809Y-113466381D01*
X124134571Y-113609238D01*
X124039333Y-113704476D01*
X123944095Y-113752095D01*
X124896476Y-113561619D02*
X124944095Y-113514000D01*
X125039333Y-113466381D01*
X125277429Y-113466381D01*
X125372667Y-113514000D01*
X125420286Y-113561619D01*
X125467905Y-113656857D01*
X125467905Y-113752095D01*
X125420286Y-113894952D01*
X124848857Y-114466381D01*
X125467905Y-114466381D01*
X87889714Y-114296381D02*
X87889714Y-113296381D01*
X88127809Y-113296381D01*
X88270667Y-113344000D01*
X88365905Y-113439238D01*
X88413524Y-113534476D01*
X88461143Y-113724952D01*
X88461143Y-113867810D01*
X88413524Y-114058286D01*
X88365905Y-114153524D01*
X88270667Y-114248762D01*
X88127809Y-114296381D01*
X87889714Y-114296381D01*
X89413524Y-114296381D02*
X88842095Y-114296381D01*
X89127809Y-114296381D02*
X89127809Y-113296381D01*
X89032571Y-113439238D01*
X88937333Y-113534476D01*
X88842095Y-113582095D01*
X90365905Y-114296381D02*
X89794476Y-114296381D01*
X90080190Y-114296381D02*
X90080190Y-113296381D01*
X89984952Y-113439238D01*
X89889714Y-113534476D01*
X89794476Y-113582095D01*
X79861714Y-108096381D02*
X79861714Y-107096381D01*
X80099809Y-107096381D01*
X80242667Y-107144000D01*
X80337905Y-107239238D01*
X80385524Y-107334476D01*
X80433143Y-107524952D01*
X80433143Y-107667810D01*
X80385524Y-107858286D01*
X80337905Y-107953524D01*
X80242667Y-108048762D01*
X80099809Y-108096381D01*
X79861714Y-108096381D01*
X81385524Y-108096381D02*
X80814095Y-108096381D01*
X81099809Y-108096381D02*
X81099809Y-107096381D01*
X81004571Y-107239238D01*
X80909333Y-107334476D01*
X80814095Y-107382095D01*
X82004571Y-107096381D02*
X82099810Y-107096381D01*
X82195048Y-107144000D01*
X82242667Y-107191619D01*
X82290286Y-107286857D01*
X82337905Y-107477333D01*
X82337905Y-107715429D01*
X82290286Y-107905905D01*
X82242667Y-108001143D01*
X82195048Y-108048762D01*
X82099810Y-108096381D01*
X82004571Y-108096381D01*
X81909333Y-108048762D01*
X81861714Y-108001143D01*
X81814095Y-107905905D01*
X81766476Y-107715429D01*
X81766476Y-107477333D01*
X81814095Y-107286857D01*
X81861714Y-107191619D01*
X81909333Y-107144000D01*
X82004571Y-107096381D01*
X118945905Y-141116381D02*
X118945905Y-140116381D01*
X119184000Y-140116381D01*
X119326858Y-140164000D01*
X119422096Y-140259238D01*
X119469715Y-140354476D01*
X119517334Y-140544952D01*
X119517334Y-140687810D01*
X119469715Y-140878286D01*
X119422096Y-140973524D01*
X119326858Y-141068762D01*
X119184000Y-141116381D01*
X118945905Y-141116381D01*
X119850667Y-140116381D02*
X120517334Y-140116381D01*
X120088762Y-141116381D01*
X153729334Y-99959143D02*
X153681715Y-100006762D01*
X153538858Y-100054381D01*
X153443620Y-100054381D01*
X153300762Y-100006762D01*
X153205524Y-99911524D01*
X153157905Y-99816286D01*
X153110286Y-99625810D01*
X153110286Y-99482952D01*
X153157905Y-99292476D01*
X153205524Y-99197238D01*
X153300762Y-99102000D01*
X153443620Y-99054381D01*
X153538858Y-99054381D01*
X153681715Y-99102000D01*
X153729334Y-99149619D01*
X154205524Y-100054381D02*
X154396000Y-100054381D01*
X154491239Y-100006762D01*
X154538858Y-99959143D01*
X154634096Y-99816286D01*
X154681715Y-99625810D01*
X154681715Y-99244857D01*
X154634096Y-99149619D01*
X154586477Y-99102000D01*
X154491239Y-99054381D01*
X154300762Y-99054381D01*
X154205524Y-99102000D01*
X154157905Y-99149619D01*
X154110286Y-99244857D01*
X154110286Y-99482952D01*
X154157905Y-99578190D01*
X154205524Y-99625810D01*
X154300762Y-99673429D01*
X154491239Y-99673429D01*
X154586477Y-99625810D01*
X154634096Y-99578190D01*
X154681715Y-99482952D01*
X141819334Y-139871143D02*
X141771715Y-139918762D01*
X141628858Y-139966381D01*
X141533620Y-139966381D01*
X141390762Y-139918762D01*
X141295524Y-139823524D01*
X141247905Y-139728286D01*
X141200286Y-139537810D01*
X141200286Y-139394952D01*
X141247905Y-139204476D01*
X141295524Y-139109238D01*
X141390762Y-139014000D01*
X141533620Y-138966381D01*
X141628858Y-138966381D01*
X141771715Y-139014000D01*
X141819334Y-139061619D01*
X142390762Y-139394952D02*
X142295524Y-139347333D01*
X142247905Y-139299714D01*
X142200286Y-139204476D01*
X142200286Y-139156857D01*
X142247905Y-139061619D01*
X142295524Y-139014000D01*
X142390762Y-138966381D01*
X142581239Y-138966381D01*
X142676477Y-139014000D01*
X142724096Y-139061619D01*
X142771715Y-139156857D01*
X142771715Y-139204476D01*
X142724096Y-139299714D01*
X142676477Y-139347333D01*
X142581239Y-139394952D01*
X142390762Y-139394952D01*
X142295524Y-139442571D01*
X142247905Y-139490190D01*
X142200286Y-139585429D01*
X142200286Y-139775905D01*
X142247905Y-139871143D01*
X142295524Y-139918762D01*
X142390762Y-139966381D01*
X142581239Y-139966381D01*
X142676477Y-139918762D01*
X142724096Y-139871143D01*
X142771715Y-139775905D01*
X142771715Y-139585429D01*
X142724096Y-139490190D01*
X142676477Y-139442571D01*
X142581239Y-139394952D01*
X87209334Y-114335143D02*
X87161715Y-114382762D01*
X87018858Y-114430381D01*
X86923620Y-114430381D01*
X86780762Y-114382762D01*
X86685524Y-114287524D01*
X86637905Y-114192286D01*
X86590286Y-114001810D01*
X86590286Y-113858952D01*
X86637905Y-113668476D01*
X86685524Y-113573238D01*
X86780762Y-113478000D01*
X86923620Y-113430381D01*
X87018858Y-113430381D01*
X87161715Y-113478000D01*
X87209334Y-113525619D01*
X87542667Y-113430381D02*
X88209334Y-113430381D01*
X87780762Y-114430381D01*
X136993334Y-139871143D02*
X136945715Y-139918762D01*
X136802858Y-139966381D01*
X136707620Y-139966381D01*
X136564762Y-139918762D01*
X136469524Y-139823524D01*
X136421905Y-139728286D01*
X136374286Y-139537810D01*
X136374286Y-139394952D01*
X136421905Y-139204476D01*
X136469524Y-139109238D01*
X136564762Y-139014000D01*
X136707620Y-138966381D01*
X136802858Y-138966381D01*
X136945715Y-139014000D01*
X136993334Y-139061619D01*
X137850477Y-138966381D02*
X137660000Y-138966381D01*
X137564762Y-139014000D01*
X137517143Y-139061619D01*
X137421905Y-139204476D01*
X137374286Y-139394952D01*
X137374286Y-139775905D01*
X137421905Y-139871143D01*
X137469524Y-139918762D01*
X137564762Y-139966381D01*
X137755239Y-139966381D01*
X137850477Y-139918762D01*
X137898096Y-139871143D01*
X137945715Y-139775905D01*
X137945715Y-139537810D01*
X137898096Y-139442571D01*
X137850477Y-139394952D01*
X137755239Y-139347333D01*
X137564762Y-139347333D01*
X137469524Y-139394952D01*
X137421905Y-139442571D01*
X137374286Y-139537810D01*
X94488095Y-145352381D02*
X94488095Y-146161905D01*
X94535714Y-146257143D01*
X94583333Y-146304762D01*
X94678571Y-146352381D01*
X94869048Y-146352381D01*
X94964286Y-146304762D01*
X95011905Y-146257143D01*
X95059524Y-146161905D01*
X95059524Y-145352381D01*
X95964286Y-145685714D02*
X95964286Y-146352381D01*
X95726190Y-145304762D02*
X95488095Y-146019048D01*
X96107143Y-146019048D01*
X128016095Y-96416381D02*
X128016095Y-97225905D01*
X128063714Y-97321143D01*
X128111333Y-97368762D01*
X128206571Y-97416381D01*
X128397048Y-97416381D01*
X128492286Y-97368762D01*
X128539905Y-97321143D01*
X128587524Y-97225905D01*
X128587524Y-96416381D01*
X129539905Y-96416381D02*
X129063714Y-96416381D01*
X129016095Y-96892571D01*
X129063714Y-96844952D01*
X129158952Y-96797333D01*
X129397048Y-96797333D01*
X129492286Y-96844952D01*
X129539905Y-96892571D01*
X129587524Y-96987810D01*
X129587524Y-97225905D01*
X129539905Y-97321143D01*
X129492286Y-97368762D01*
X129397048Y-97416381D01*
X129158952Y-97416381D01*
X129063714Y-97368762D01*
X129016095Y-97321143D01*
X109474095Y-97392381D02*
X109474095Y-98201905D01*
X109521714Y-98297143D01*
X109569333Y-98344762D01*
X109664571Y-98392381D01*
X109855048Y-98392381D01*
X109950286Y-98344762D01*
X109997905Y-98297143D01*
X110045524Y-98201905D01*
X110045524Y-97392381D01*
X110950286Y-97392381D02*
X110759809Y-97392381D01*
X110664571Y-97440000D01*
X110616952Y-97487619D01*
X110521714Y-97630476D01*
X110474095Y-97820952D01*
X110474095Y-98201905D01*
X110521714Y-98297143D01*
X110569333Y-98344762D01*
X110664571Y-98392381D01*
X110855048Y-98392381D01*
X110950286Y-98344762D01*
X110997905Y-98297143D01*
X111045524Y-98201905D01*
X111045524Y-97963810D01*
X110997905Y-97868571D01*
X110950286Y-97820952D01*
X110855048Y-97773333D01*
X110664571Y-97773333D01*
X110569333Y-97820952D01*
X110521714Y-97868571D01*
X110474095Y-97963810D01*
X99568095Y-81522381D02*
X99568095Y-82331905D01*
X99615714Y-82427143D01*
X99663333Y-82474762D01*
X99758571Y-82522381D01*
X99949048Y-82522381D01*
X100044286Y-82474762D01*
X100091905Y-82427143D01*
X100139524Y-82331905D01*
X100139524Y-81522381D01*
X100520476Y-81522381D02*
X101139524Y-81522381D01*
X100806190Y-81903333D01*
X100949048Y-81903333D01*
X101044286Y-81950952D01*
X101091905Y-81998571D01*
X101139524Y-82093810D01*
X101139524Y-82331905D01*
X101091905Y-82427143D01*
X101044286Y-82474762D01*
X100949048Y-82522381D01*
X100663333Y-82522381D01*
X100568095Y-82474762D01*
X100520476Y-82427143D01*
X74115713Y-94427143D02*
X74068094Y-94474762D01*
X73925237Y-94522381D01*
X73829999Y-94522381D01*
X73687141Y-94474762D01*
X73591903Y-94379524D01*
X73544284Y-94284286D01*
X73496665Y-94093810D01*
X73496665Y-93950952D01*
X73544284Y-93760476D01*
X73591903Y-93665238D01*
X73687141Y-93570000D01*
X73829999Y-93522381D01*
X73925237Y-93522381D01*
X74068094Y-93570000D01*
X74115713Y-93617619D01*
X74544284Y-94522381D02*
X74544284Y-93522381D01*
X74925237Y-93522381D01*
X75020475Y-93570000D01*
X75068094Y-93617619D01*
X75115713Y-93712857D01*
X75115713Y-93855714D01*
X75068094Y-93950952D01*
X75020475Y-93998571D01*
X74925237Y-94046190D01*
X74544284Y-94046190D01*
X75496665Y-93617619D02*
X75544284Y-93570000D01*
X75639522Y-93522381D01*
X75877618Y-93522381D01*
X75972856Y-93570000D01*
X76020475Y-93617619D01*
X76068094Y-93712857D01*
X76068094Y-93808095D01*
X76020475Y-93950952D01*
X75449046Y-94522381D01*
X76068094Y-94522381D01*
X77020475Y-94522381D02*
X76449046Y-94522381D01*
X76734760Y-94522381D02*
X76734760Y-93522381D01*
X76639522Y-93665238D01*
X76544284Y-93760476D01*
X76449046Y-93808095D01*
X77639522Y-93522381D02*
X77734761Y-93522381D01*
X77829999Y-93570000D01*
X77877618Y-93617619D01*
X77925237Y-93712857D01*
X77972856Y-93903333D01*
X77972856Y-94141429D01*
X77925237Y-94331905D01*
X77877618Y-94427143D01*
X77829999Y-94474762D01*
X77734761Y-94522381D01*
X77639522Y-94522381D01*
X77544284Y-94474762D01*
X77496665Y-94427143D01*
X77449046Y-94331905D01*
X77401427Y-94141429D01*
X77401427Y-93903333D01*
X77449046Y-93712857D01*
X77496665Y-93617619D01*
X77544284Y-93570000D01*
X77639522Y-93522381D01*
X78353808Y-93617619D02*
X78401427Y-93570000D01*
X78496665Y-93522381D01*
X78734761Y-93522381D01*
X78829999Y-93570000D01*
X78877618Y-93617619D01*
X78925237Y-93712857D01*
X78925237Y-93808095D01*
X78877618Y-93950952D01*
X78306189Y-94522381D01*
X78925237Y-94522381D01*
X80115713Y-94522381D02*
X80115713Y-93522381D01*
X80115713Y-93903333D02*
X80210951Y-93855714D01*
X80401428Y-93855714D01*
X80496666Y-93903333D01*
X80544285Y-93950952D01*
X80591904Y-94046190D01*
X80591904Y-94331905D01*
X80544285Y-94427143D01*
X80496666Y-94474762D01*
X80401428Y-94522381D01*
X80210951Y-94522381D01*
X80115713Y-94474762D01*
X81020475Y-94522381D02*
X81020475Y-93855714D01*
X81020475Y-94046190D02*
X81068094Y-93950952D01*
X81115713Y-93903333D01*
X81210951Y-93855714D01*
X81306190Y-93855714D01*
X82020476Y-94474762D02*
X81925238Y-94522381D01*
X81734761Y-94522381D01*
X81639523Y-94474762D01*
X81591904Y-94379524D01*
X81591904Y-93998571D01*
X81639523Y-93903333D01*
X81734761Y-93855714D01*
X81925238Y-93855714D01*
X82020476Y-93903333D01*
X82068095Y-93998571D01*
X82068095Y-94093810D01*
X81591904Y-94189048D01*
X82925238Y-94522381D02*
X82925238Y-93998571D01*
X82877619Y-93903333D01*
X82782381Y-93855714D01*
X82591904Y-93855714D01*
X82496666Y-93903333D01*
X82925238Y-94474762D02*
X82830000Y-94522381D01*
X82591904Y-94522381D01*
X82496666Y-94474762D01*
X82449047Y-94379524D01*
X82449047Y-94284286D01*
X82496666Y-94189048D01*
X82591904Y-94141429D01*
X82830000Y-94141429D01*
X82925238Y-94093810D01*
X83401428Y-94522381D02*
X83401428Y-93522381D01*
X83496666Y-94141429D02*
X83782381Y-94522381D01*
X83782381Y-93855714D02*
X83401428Y-94236667D01*
X84353809Y-94522381D02*
X84258571Y-94474762D01*
X84210952Y-94427143D01*
X84163333Y-94331905D01*
X84163333Y-94046190D01*
X84210952Y-93950952D01*
X84258571Y-93903333D01*
X84353809Y-93855714D01*
X84496667Y-93855714D01*
X84591905Y-93903333D01*
X84639524Y-93950952D01*
X84687143Y-94046190D01*
X84687143Y-94331905D01*
X84639524Y-94427143D01*
X84591905Y-94474762D01*
X84496667Y-94522381D01*
X84353809Y-94522381D01*
X85544286Y-93855714D02*
X85544286Y-94522381D01*
X85115714Y-93855714D02*
X85115714Y-94379524D01*
X85163333Y-94474762D01*
X85258571Y-94522381D01*
X85401429Y-94522381D01*
X85496667Y-94474762D01*
X85544286Y-94427143D01*
X85877619Y-93855714D02*
X86258571Y-93855714D01*
X86020476Y-93522381D02*
X86020476Y-94379524D01*
X86068095Y-94474762D01*
X86163333Y-94522381D01*
X86258571Y-94522381D01*
X87353810Y-94522381D02*
X87353810Y-93522381D01*
X87353810Y-93903333D02*
X87449048Y-93855714D01*
X87639525Y-93855714D01*
X87734763Y-93903333D01*
X87782382Y-93950952D01*
X87830001Y-94046190D01*
X87830001Y-94331905D01*
X87782382Y-94427143D01*
X87734763Y-94474762D01*
X87639525Y-94522381D01*
X87449048Y-94522381D01*
X87353810Y-94474762D01*
X88401429Y-94522381D02*
X88306191Y-94474762D01*
X88258572Y-94427143D01*
X88210953Y-94331905D01*
X88210953Y-94046190D01*
X88258572Y-93950952D01*
X88306191Y-93903333D01*
X88401429Y-93855714D01*
X88544287Y-93855714D01*
X88639525Y-93903333D01*
X88687144Y-93950952D01*
X88734763Y-94046190D01*
X88734763Y-94331905D01*
X88687144Y-94427143D01*
X88639525Y-94474762D01*
X88544287Y-94522381D01*
X88401429Y-94522381D01*
X89591906Y-94522381D02*
X89591906Y-93998571D01*
X89544287Y-93903333D01*
X89449049Y-93855714D01*
X89258572Y-93855714D01*
X89163334Y-93903333D01*
X89591906Y-94474762D02*
X89496668Y-94522381D01*
X89258572Y-94522381D01*
X89163334Y-94474762D01*
X89115715Y-94379524D01*
X89115715Y-94284286D01*
X89163334Y-94189048D01*
X89258572Y-94141429D01*
X89496668Y-94141429D01*
X89591906Y-94093810D01*
X90068096Y-94522381D02*
X90068096Y-93855714D01*
X90068096Y-94046190D02*
X90115715Y-93950952D01*
X90163334Y-93903333D01*
X90258572Y-93855714D01*
X90353811Y-93855714D01*
X91115716Y-94522381D02*
X91115716Y-93522381D01*
X91115716Y-94474762D02*
X91020478Y-94522381D01*
X90830001Y-94522381D01*
X90734763Y-94474762D01*
X90687144Y-94427143D01*
X90639525Y-94331905D01*
X90639525Y-94046190D01*
X90687144Y-93950952D01*
X90734763Y-93903333D01*
X90830001Y-93855714D01*
X91020478Y-93855714D01*
X91115716Y-93903333D01*
X112196667Y-120954381D02*
X112196667Y-121668667D01*
X112149047Y-121811524D01*
X112053809Y-121906762D01*
X111910952Y-121954381D01*
X111815714Y-121954381D01*
X112672857Y-121954381D02*
X112672857Y-120954381D01*
X113053810Y-120954381D01*
X113149048Y-121002000D01*
X113196667Y-121049619D01*
X113244286Y-121144857D01*
X113244286Y-121287714D01*
X113196667Y-121382952D01*
X113149048Y-121430571D01*
X113053810Y-121478190D01*
X112672857Y-121478190D01*
X114196667Y-121954381D02*
X113625238Y-121954381D01*
X113910952Y-121954381D02*
X113910952Y-120954381D01*
X113815714Y-121097238D01*
X113720476Y-121192476D01*
X113625238Y-121240095D01*
X140485905Y-128650381D02*
X140485905Y-127650381D01*
X140724000Y-127650381D01*
X140866858Y-127698000D01*
X140962096Y-127793238D01*
X141009715Y-127888476D01*
X141057334Y-128078952D01*
X141057334Y-128221810D01*
X141009715Y-128412286D01*
X140962096Y-128507524D01*
X140866858Y-128602762D01*
X140724000Y-128650381D01*
X140485905Y-128650381D01*
X141628762Y-128078952D02*
X141533524Y-128031333D01*
X141485905Y-127983714D01*
X141438286Y-127888476D01*
X141438286Y-127840857D01*
X141485905Y-127745619D01*
X141533524Y-127698000D01*
X141628762Y-127650381D01*
X141819239Y-127650381D01*
X141914477Y-127698000D01*
X141962096Y-127745619D01*
X142009715Y-127840857D01*
X142009715Y-127888476D01*
X141962096Y-127983714D01*
X141914477Y-128031333D01*
X141819239Y-128078952D01*
X141628762Y-128078952D01*
X141533524Y-128126571D01*
X141485905Y-128174190D01*
X141438286Y-128269429D01*
X141438286Y-128459905D01*
X141485905Y-128555143D01*
X141533524Y-128602762D01*
X141628762Y-128650381D01*
X141819239Y-128650381D01*
X141914477Y-128602762D01*
X141962096Y-128555143D01*
X142009715Y-128459905D01*
X142009715Y-128269429D01*
X141962096Y-128174190D01*
X141914477Y-128126571D01*
X141819239Y-128078952D01*
X140485905Y-131698381D02*
X140485905Y-130698381D01*
X140724000Y-130698381D01*
X140866858Y-130746000D01*
X140962096Y-130841238D01*
X141009715Y-130936476D01*
X141057334Y-131126952D01*
X141057334Y-131269810D01*
X141009715Y-131460286D01*
X140962096Y-131555524D01*
X140866858Y-131650762D01*
X140724000Y-131698381D01*
X140485905Y-131698381D01*
X141533524Y-131698381D02*
X141724000Y-131698381D01*
X141819239Y-131650762D01*
X141866858Y-131603143D01*
X141962096Y-131460286D01*
X142009715Y-131269810D01*
X142009715Y-130888857D01*
X141962096Y-130793619D01*
X141914477Y-130746000D01*
X141819239Y-130698381D01*
X141628762Y-130698381D01*
X141533524Y-130746000D01*
X141485905Y-130793619D01*
X141438286Y-130888857D01*
X141438286Y-131126952D01*
X141485905Y-131222190D01*
X141533524Y-131269810D01*
X141628762Y-131317429D01*
X141819239Y-131317429D01*
X141914477Y-131269810D01*
X141962096Y-131222190D01*
X142009715Y-131126952D01*
X88923905Y-129357381D02*
X88923905Y-128357381D01*
X89304858Y-128357381D01*
X89400096Y-128405000D01*
X89447715Y-128452619D01*
X89495334Y-128547857D01*
X89495334Y-128690714D01*
X89447715Y-128785952D01*
X89400096Y-128833571D01*
X89304858Y-128881190D01*
X88923905Y-128881190D01*
X90447715Y-129357381D02*
X89876286Y-129357381D01*
X90162000Y-129357381D02*
X90162000Y-128357381D01*
X90066762Y-128500238D01*
X89971524Y-128595476D01*
X89876286Y-128643095D01*
X134223238Y-141692381D02*
X134461333Y-142692381D01*
X134651810Y-141978095D01*
X134842286Y-142692381D01*
X135080381Y-141692381D01*
X135889905Y-142025714D02*
X135889905Y-142692381D01*
X135651809Y-141644762D02*
X135413714Y-142359048D01*
X136032762Y-142359048D01*
M02*
