G04 #@! TF.FileFunction,Copper,L1,Top,Signal*
%FSLAX46Y46*%
G04 Gerber Fmt 4.6, Leading zero omitted, Abs format (unit mm)*
G04 Created by KiCad (PCBNEW 4.0.6-e0-6349~53~ubuntu16.04.1) date Mon May 15 14:01:16 2017*
%MOMM*%
%LPD*%
G01*
G04 APERTURE LIST*
%ADD10C,0.100000*%
%ADD11C,1.524000*%
%ADD12R,1.060000X0.650000*%
%ADD13R,1.700000X0.650000*%
%ADD14R,2.030000X1.270000*%
%ADD15R,1.700000X0.900000*%
%ADD16R,0.900000X1.700000*%
%ADD17R,2.500000X1.800000*%
%ADD18R,1.000000X1.250000*%
%ADD19R,1.550000X0.600000*%
%ADD20R,1.524000X1.524000*%
%ADD21R,1.600000X1.600000*%
%ADD22O,1.600000X1.600000*%
%ADD23C,2.500000*%
%ADD24R,1.780000X1.020000*%
%ADD25C,1.600000*%
%ADD26R,2.500000X2.300000*%
%ADD27C,1.700000*%
%ADD28R,1.700000X1.700000*%
%ADD29O,1.506220X3.014980*%
%ADD30R,0.600000X0.450000*%
%ADD31O,1.800860X3.500120*%
%ADD32R,1.000000X3.200000*%
%ADD33R,0.900000X1.200000*%
%ADD34R,2.000000X2.000000*%
%ADD35C,2.000000*%
%ADD36C,1.000000*%
%ADD37C,0.450000*%
%ADD38C,0.600000*%
%ADD39C,1.000000*%
G04 APERTURE END LIST*
D10*
D11*
X170434000Y-90932000D03*
X167894000Y-90932000D03*
X165354000Y-90932000D03*
X165354000Y-88392000D03*
X167894000Y-88392000D03*
X170434000Y-88392000D03*
X164084000Y-106934000D03*
X169164000Y-106934000D03*
X164084000Y-104394000D03*
X164084000Y-101854000D03*
X169164000Y-101854000D03*
D12*
X152230000Y-92390000D03*
X152230000Y-91440000D03*
X152230000Y-90490000D03*
X150030000Y-90490000D03*
X150030000Y-92390000D03*
X150030000Y-91440000D03*
D13*
X159098000Y-141351000D03*
X159098000Y-140081000D03*
X159098000Y-138811000D03*
X159098000Y-137541000D03*
X151798000Y-137541000D03*
X151798000Y-138811000D03*
X151798000Y-140081000D03*
X151798000Y-141351000D03*
D14*
X124333000Y-123444000D03*
X135763000Y-123444000D03*
X124333000Y-125944000D03*
X135763000Y-125944000D03*
X135763000Y-120944000D03*
X124333000Y-120944000D03*
D15*
X168148000Y-94054000D03*
X168148000Y-96954000D03*
X165354000Y-96954000D03*
X165354000Y-94054000D03*
D16*
X115242000Y-137160000D03*
X112342000Y-137160000D03*
X153088000Y-144018000D03*
X150188000Y-144018000D03*
X144600000Y-133350000D03*
X147500000Y-133350000D03*
X162550000Y-138000000D03*
X165450000Y-138000000D03*
X162550000Y-141000000D03*
X165450000Y-141000000D03*
X90752000Y-116078000D03*
X93652000Y-116078000D03*
D17*
X103918000Y-124206000D03*
X107918000Y-124206000D03*
X112300000Y-124206000D03*
X116300000Y-124206000D03*
D18*
X149336000Y-120777000D03*
X147336000Y-120777000D03*
X128381000Y-131318000D03*
X126381000Y-131318000D03*
X98900000Y-127100000D03*
X96900000Y-127100000D03*
X154956000Y-114935000D03*
X156956000Y-114935000D03*
D19*
X126586000Y-134747000D03*
X126586000Y-136017000D03*
X126586000Y-137287000D03*
X126586000Y-138557000D03*
X131986000Y-138557000D03*
X131986000Y-137287000D03*
X131986000Y-136017000D03*
X131986000Y-134747000D03*
D20*
X124968000Y-106934000D03*
D11*
X127508000Y-106934000D03*
X130048000Y-106934000D03*
X132588000Y-106934000D03*
D21*
X106426000Y-89154000D03*
D22*
X114046000Y-94234000D03*
X106426000Y-91694000D03*
X114046000Y-91694000D03*
X106426000Y-94234000D03*
X114046000Y-89154000D03*
D23*
X161036000Y-131064000D03*
X157226000Y-131064000D03*
X153416000Y-131064000D03*
D16*
X149680000Y-95758000D03*
X152580000Y-95758000D03*
X104976000Y-137160000D03*
X107876000Y-137160000D03*
X118438000Y-137160000D03*
X121338000Y-137160000D03*
X85672000Y-143002000D03*
X88572000Y-143002000D03*
D15*
X170942000Y-94054000D03*
X170942000Y-96954000D03*
D24*
X149098000Y-114553000D03*
X149098000Y-116333000D03*
D25*
X65800000Y-110000000D03*
X63500000Y-112500000D03*
X65500000Y-105900000D03*
D23*
X61214000Y-143256000D03*
X78994000Y-143256000D03*
X78994000Y-133350000D03*
X61214000Y-127000000D03*
X78994000Y-127000000D03*
X78994000Y-117094000D03*
D26*
X87766000Y-110744000D03*
X92066000Y-110744000D03*
X78876000Y-110744000D03*
X83176000Y-110744000D03*
X117484000Y-142748000D03*
X121784000Y-142748000D03*
D18*
X142986000Y-137414000D03*
X140986000Y-137414000D03*
X86376000Y-116078000D03*
X88376000Y-116078000D03*
X138160000Y-137414000D03*
X136160000Y-137414000D03*
D21*
X92456000Y-137922000D03*
D22*
X100076000Y-143002000D03*
X92456000Y-140462000D03*
X100076000Y-140462000D03*
X92456000Y-143002000D03*
X100076000Y-137922000D03*
D20*
X124968000Y-92964000D03*
D11*
X127508000Y-92964000D03*
X130048000Y-92964000D03*
X132588000Y-92964000D03*
D21*
X106426000Y-100330000D03*
D22*
X114046000Y-105410000D03*
X106426000Y-102870000D03*
X114046000Y-102870000D03*
X106426000Y-105410000D03*
X114046000Y-100330000D03*
D27*
X85100000Y-86360000D03*
X85090000Y-101566000D03*
X82560000Y-86360000D03*
X80020000Y-86360000D03*
D28*
X77480000Y-86370000D03*
D27*
X82560000Y-101566000D03*
X80020000Y-101566000D03*
D28*
X77480000Y-101566000D03*
D27*
X97790000Y-87480000D03*
X97790000Y-90020000D03*
X97790000Y-92560000D03*
X97790000Y-95100000D03*
X97790000Y-97640000D03*
D28*
X97790000Y-100180000D03*
D29*
X114300000Y-117602000D03*
X111760000Y-117602000D03*
D30*
X140174000Y-133096000D03*
X142274000Y-133096000D03*
D31*
X90932000Y-124460000D03*
X88392000Y-124460000D03*
D25*
X112268000Y-131064000D03*
X117268000Y-131064000D03*
D16*
X157406000Y-120777000D03*
X154506000Y-120777000D03*
D28*
X139446000Y-143764000D03*
X145542000Y-143764000D03*
X111760000Y-143764000D03*
X133350000Y-143764000D03*
X127254000Y-143764000D03*
D32*
X109930000Y-111506000D03*
X116130000Y-111506000D03*
D16*
X111686000Y-85852000D03*
X108786000Y-85852000D03*
D18*
X157718000Y-90932000D03*
X155718000Y-90932000D03*
D33*
X115444000Y-85852000D03*
X118744000Y-85852000D03*
D34*
X152146000Y-104902000D03*
D35*
X157146000Y-104902000D03*
D25*
X103378000Y-131064000D03*
X108378000Y-131064000D03*
D18*
X147304000Y-129032000D03*
X145304000Y-129032000D03*
D34*
X140716000Y-104902000D03*
D35*
X145716000Y-104902000D03*
D16*
X143182000Y-115697000D03*
X140282000Y-115697000D03*
X143182000Y-121031000D03*
X140282000Y-121031000D03*
D36*
X67437000Y-122174000D03*
D10*
G36*
X66872000Y-120896500D02*
X66812000Y-120671500D01*
X68062000Y-120671500D01*
X68002000Y-120896500D01*
X66872000Y-120896500D01*
X66872000Y-120896500D01*
G37*
G36*
X66134156Y-121670187D02*
X65932631Y-121553514D01*
X66816514Y-120669631D01*
X66933187Y-120871156D01*
X66134156Y-121670187D01*
X66134156Y-121670187D01*
G37*
G36*
X66159500Y-122739000D02*
X65934500Y-122799000D01*
X65934500Y-121549000D01*
X66159500Y-121609000D01*
X66159500Y-122739000D01*
X66159500Y-122739000D01*
G37*
G36*
X66933187Y-123476844D02*
X66816514Y-123678369D01*
X65932631Y-122794486D01*
X66134156Y-122677813D01*
X66933187Y-123476844D01*
X66933187Y-123476844D01*
G37*
G36*
X68002000Y-123451500D02*
X68062000Y-123676500D01*
X66812000Y-123676500D01*
X66872000Y-123451500D01*
X68002000Y-123451500D01*
X68002000Y-123451500D01*
G37*
G36*
X68739844Y-122677813D02*
X68941369Y-122794486D01*
X68057486Y-123678369D01*
X67940813Y-123476844D01*
X68739844Y-122677813D01*
X68739844Y-122677813D01*
G37*
G36*
X68714500Y-121609000D02*
X68939500Y-121549000D01*
X68939500Y-122799000D01*
X68714500Y-122739000D01*
X68714500Y-121609000D01*
X68714500Y-121609000D01*
G37*
G36*
X67940813Y-120871156D02*
X68057486Y-120669631D01*
X68941369Y-121553514D01*
X68739844Y-121670187D01*
X67940813Y-120871156D01*
X67940813Y-120871156D01*
G37*
D36*
X163000000Y-84000000D03*
D10*
G36*
X162435000Y-82722500D02*
X162375000Y-82497500D01*
X163625000Y-82497500D01*
X163565000Y-82722500D01*
X162435000Y-82722500D01*
X162435000Y-82722500D01*
G37*
G36*
X161697156Y-83496187D02*
X161495631Y-83379514D01*
X162379514Y-82495631D01*
X162496187Y-82697156D01*
X161697156Y-83496187D01*
X161697156Y-83496187D01*
G37*
G36*
X161722500Y-84565000D02*
X161497500Y-84625000D01*
X161497500Y-83375000D01*
X161722500Y-83435000D01*
X161722500Y-84565000D01*
X161722500Y-84565000D01*
G37*
G36*
X162496187Y-85302844D02*
X162379514Y-85504369D01*
X161495631Y-84620486D01*
X161697156Y-84503813D01*
X162496187Y-85302844D01*
X162496187Y-85302844D01*
G37*
G36*
X163565000Y-85277500D02*
X163625000Y-85502500D01*
X162375000Y-85502500D01*
X162435000Y-85277500D01*
X163565000Y-85277500D01*
X163565000Y-85277500D01*
G37*
G36*
X164302844Y-84503813D02*
X164504369Y-84620486D01*
X163620486Y-85504369D01*
X163503813Y-85302844D01*
X164302844Y-84503813D01*
X164302844Y-84503813D01*
G37*
G36*
X164277500Y-83435000D02*
X164502500Y-83375000D01*
X164502500Y-84625000D01*
X164277500Y-84565000D01*
X164277500Y-83435000D01*
X164277500Y-83435000D01*
G37*
G36*
X163503813Y-82697156D02*
X163620486Y-82495631D01*
X164504369Y-83379514D01*
X164302844Y-83496187D01*
X163503813Y-82697156D01*
X163503813Y-82697156D01*
G37*
D36*
X163000000Y-122174000D03*
D10*
G36*
X162435000Y-120896500D02*
X162375000Y-120671500D01*
X163625000Y-120671500D01*
X163565000Y-120896500D01*
X162435000Y-120896500D01*
X162435000Y-120896500D01*
G37*
G36*
X161697156Y-121670187D02*
X161495631Y-121553514D01*
X162379514Y-120669631D01*
X162496187Y-120871156D01*
X161697156Y-121670187D01*
X161697156Y-121670187D01*
G37*
G36*
X161722500Y-122739000D02*
X161497500Y-122799000D01*
X161497500Y-121549000D01*
X161722500Y-121609000D01*
X161722500Y-122739000D01*
X161722500Y-122739000D01*
G37*
G36*
X162496187Y-123476844D02*
X162379514Y-123678369D01*
X161495631Y-122794486D01*
X161697156Y-122677813D01*
X162496187Y-123476844D01*
X162496187Y-123476844D01*
G37*
G36*
X163565000Y-123451500D02*
X163625000Y-123676500D01*
X162375000Y-123676500D01*
X162435000Y-123451500D01*
X163565000Y-123451500D01*
X163565000Y-123451500D01*
G37*
G36*
X164302844Y-122677813D02*
X164504369Y-122794486D01*
X163620486Y-123678369D01*
X163503813Y-123476844D01*
X164302844Y-122677813D01*
X164302844Y-122677813D01*
G37*
G36*
X164277500Y-121609000D02*
X164502500Y-121549000D01*
X164502500Y-122799000D01*
X164277500Y-122739000D01*
X164277500Y-121609000D01*
X164277500Y-121609000D01*
G37*
G36*
X163503813Y-120871156D02*
X163620486Y-120669631D01*
X164504369Y-121553514D01*
X164302844Y-121670187D01*
X163503813Y-120871156D01*
X163503813Y-120871156D01*
G37*
D36*
X103580800Y-103430800D03*
X156752300Y-138780700D03*
X164126400Y-140760700D03*
X93606900Y-122070800D03*
X154715100Y-92390000D03*
D37*
X131986000Y-134747000D02*
X131345900Y-134747000D01*
X131986000Y-136017000D02*
X130705700Y-136017000D01*
X128381000Y-131318000D02*
X129386300Y-131318000D01*
X131345900Y-134747000D02*
X131025800Y-134747000D01*
X130705700Y-135067100D02*
X131025800Y-134747000D01*
X130705700Y-136017000D02*
X130705700Y-135067100D01*
X131025800Y-132957500D02*
X129386300Y-131318000D01*
X131025800Y-134747000D02*
X131025800Y-132957500D01*
X135763000Y-125944000D02*
X134242700Y-125944000D01*
X134242700Y-126461600D02*
X134242700Y-125944000D01*
X129386300Y-131318000D02*
X134242700Y-126461600D01*
D38*
X131986000Y-138557000D02*
X131308400Y-138557000D01*
X131986000Y-137287000D02*
X130630700Y-137287000D01*
X154129700Y-91440000D02*
X152230000Y-91440000D01*
X154637700Y-90932000D02*
X154129700Y-91440000D01*
X155718000Y-90932000D02*
X154637700Y-90932000D01*
X154886700Y-95758000D02*
X152580000Y-95758000D01*
X158817500Y-91827200D02*
X154886700Y-95758000D01*
X158817500Y-89707500D02*
X158817500Y-91827200D01*
X156942500Y-89707500D02*
X155718000Y-90932000D01*
X158817500Y-89707500D02*
X156942500Y-89707500D01*
X130630700Y-137879300D02*
X130630700Y-137287000D01*
X131308400Y-138557000D02*
X130630700Y-137879300D01*
X126586000Y-137287000D02*
X127263700Y-137287000D01*
X127263700Y-137287000D02*
X127941300Y-137287000D01*
X127941300Y-137964600D02*
X127941300Y-138557000D01*
X127263700Y-137287000D02*
X127941300Y-137964600D01*
X126586000Y-138557000D02*
X127941300Y-138557000D01*
X160133000Y-88392000D02*
X165354000Y-88392000D01*
X158817500Y-89707500D02*
X160133000Y-88392000D01*
X165354000Y-88392000D02*
X167894000Y-88392000D01*
X167894000Y-88392000D02*
X170434000Y-88392000D01*
X139905700Y-137684100D02*
X139905700Y-137414000D01*
X138970400Y-138619400D02*
X139905700Y-137684100D01*
X137365400Y-138619400D02*
X138970400Y-138619400D01*
X136160000Y-137414000D02*
X137365400Y-138619400D01*
X140986000Y-137414000D02*
X139905700Y-137414000D01*
X130630700Y-137287000D02*
X127941300Y-137287000D01*
X127941300Y-137287000D02*
X127941300Y-134747000D01*
X126586000Y-134747000D02*
X127163500Y-134747000D01*
X127163500Y-134747000D02*
X127941300Y-134747000D01*
X126381000Y-133964500D02*
X126381000Y-131318000D01*
X127163500Y-134747000D02*
X126381000Y-133964500D01*
X126569700Y-108535700D02*
X124968000Y-106934000D01*
X134238900Y-108535700D02*
X126569700Y-108535700D01*
X139453000Y-103321600D02*
X134238900Y-108535700D01*
X144135600Y-103321600D02*
X139453000Y-103321600D01*
X145716000Y-104902000D02*
X144135600Y-103321600D01*
X156956000Y-114935000D02*
X156956000Y-113729700D01*
X156956000Y-104902000D02*
X156956000Y-113729700D01*
X155375600Y-103321600D02*
X156956000Y-104902000D01*
X147296400Y-103321600D02*
X155375600Y-103321600D01*
X145716000Y-104902000D02*
X147296400Y-103321600D01*
X156956000Y-104902000D02*
X157146000Y-104902000D01*
X133350000Y-143764000D02*
X133350000Y-142333700D01*
X131986000Y-138557000D02*
X133121200Y-138557000D01*
X136160000Y-137414000D02*
X135079700Y-137414000D01*
X133350000Y-142333700D02*
X133350000Y-138557000D01*
X133121200Y-138557000D02*
X133350000Y-138557000D01*
X133936700Y-138557000D02*
X135079700Y-137414000D01*
X133350000Y-138557000D02*
X133936700Y-138557000D01*
X154506000Y-117385000D02*
X154506000Y-120777000D01*
X156956000Y-114935000D02*
X154506000Y-117385000D01*
X154506000Y-120777000D02*
X153475700Y-120777000D01*
X152270300Y-121982400D02*
X150848500Y-121982400D01*
X153475700Y-120777000D02*
X152270300Y-121982400D01*
X148541400Y-121982400D02*
X147336000Y-120777000D01*
X150848500Y-121982400D02*
X148541400Y-121982400D01*
X76049700Y-101744800D02*
X76049700Y-101566000D01*
X65294500Y-112500000D02*
X76049700Y-101744800D01*
X63500000Y-112500000D02*
X65294500Y-112500000D01*
X77480000Y-101566000D02*
X76049700Y-101566000D01*
X91075600Y-131844100D02*
X95819700Y-127100000D01*
X91075600Y-139081600D02*
X91075600Y-131844100D01*
X92456000Y-140462000D02*
X91075600Y-139081600D01*
X96900000Y-127100000D02*
X95819700Y-127100000D01*
X147592700Y-126743300D02*
X150848500Y-126743300D01*
X145304000Y-129032000D02*
X147592700Y-126743300D01*
X150848500Y-126743300D02*
X150848500Y-121982400D01*
X159098000Y-141351000D02*
X160528300Y-141351000D01*
X160927400Y-136557700D02*
X160528300Y-136956800D01*
X163235000Y-136557700D02*
X160927400Y-136557700D01*
X164419700Y-137742400D02*
X163235000Y-136557700D01*
X164419700Y-138000000D02*
X164419700Y-137742400D01*
X155321000Y-131749500D02*
X160528300Y-136956800D01*
X155321000Y-130324000D02*
X155321000Y-131749500D01*
X151740300Y-126743300D02*
X155321000Y-130324000D01*
X150848500Y-126743300D02*
X151740300Y-126743300D01*
X160528300Y-136956800D02*
X160528300Y-141351000D01*
X165450000Y-138000000D02*
X164419700Y-138000000D01*
X103580800Y-103430800D02*
X97790000Y-97640000D01*
X149098000Y-116333000D02*
X149098000Y-117423300D01*
X149098000Y-117423300D02*
X149098000Y-119564200D01*
X149105500Y-119571700D02*
X149098000Y-119564200D01*
X149336000Y-119571700D02*
X149105500Y-119571700D01*
X138875700Y-122461400D02*
X137358300Y-120944000D01*
X143873900Y-122461400D02*
X138875700Y-122461400D01*
X144406500Y-121928800D02*
X143873900Y-122461400D01*
X144406500Y-121751100D02*
X144406500Y-121928800D01*
X146593400Y-119564200D02*
X144406500Y-121751100D01*
X149098000Y-119564200D02*
X146593400Y-119564200D01*
X149336000Y-120777000D02*
X149336000Y-119571700D01*
X135763000Y-120944000D02*
X137358300Y-120944000D01*
D37*
X107876000Y-137160000D02*
X108831300Y-137160000D01*
X112103200Y-137160000D02*
X108831300Y-137160000D01*
X112342000Y-137160000D02*
X112222600Y-137160000D01*
X112222600Y-137160000D02*
X112103200Y-137160000D01*
X112708500Y-105953600D02*
X112708500Y-98649600D01*
X113811000Y-107056100D02*
X112708500Y-105953600D01*
X114881400Y-107056100D02*
X113811000Y-107056100D01*
X117370200Y-109544900D02*
X114881400Y-107056100D01*
X117370200Y-118106800D02*
X117370200Y-109544900D01*
X114275400Y-121201600D02*
X117370200Y-118106800D01*
X114275400Y-135107200D02*
X114275400Y-121201600D01*
X112222600Y-137160000D02*
X114275400Y-135107200D01*
X101339600Y-98649600D02*
X97790000Y-95100000D01*
X112708500Y-98649600D02*
X101339600Y-98649600D01*
X168303500Y-95009300D02*
X165354000Y-95009300D01*
X169503400Y-96209200D02*
X168303500Y-95009300D01*
X169503400Y-97683900D02*
X169503400Y-96209200D01*
X168537700Y-98649600D02*
X169503400Y-97683900D01*
X112708500Y-98649600D02*
X168537700Y-98649600D01*
X165354000Y-94054000D02*
X165354000Y-95009300D01*
X162206200Y-102516200D02*
X164084000Y-104394000D01*
X115705100Y-102516200D02*
X162206200Y-102516200D01*
X115351300Y-102870000D02*
X115705100Y-102516200D01*
X114046000Y-102870000D02*
X115351300Y-102870000D01*
D39*
X124333000Y-125944000D02*
X122317700Y-125944000D01*
X122317700Y-126014300D02*
X117268000Y-131064000D01*
X122317700Y-125944000D02*
X122317700Y-126014300D01*
X121338000Y-140151700D02*
X121784000Y-140597700D01*
X121338000Y-137160000D02*
X121338000Y-140151700D01*
X121784000Y-142748000D02*
X121784000Y-140597700D01*
X70589000Y-121181300D02*
X78876000Y-112894300D01*
X70589000Y-122633800D02*
X70589000Y-121181300D01*
X66222800Y-127000000D02*
X70589000Y-122633800D01*
X61214000Y-127000000D02*
X66222800Y-127000000D01*
X100645500Y-121621200D02*
X95102300Y-116078000D01*
X100645500Y-130911400D02*
X100645500Y-121621200D01*
X102606600Y-132872500D02*
X100645500Y-130911400D01*
X106569500Y-132872500D02*
X102606600Y-132872500D01*
X108378000Y-131064000D02*
X106569500Y-132872500D01*
X93652000Y-116078000D02*
X95102300Y-116078000D01*
X78876000Y-111288400D02*
X78876000Y-112894300D01*
X78876000Y-111288400D02*
X78876000Y-110744000D01*
X94348400Y-113531300D02*
X93652000Y-114227700D01*
X94348400Y-109185900D02*
X94348400Y-113531300D01*
X92235400Y-107072900D02*
X94348400Y-109185900D01*
X80396800Y-107072900D02*
X92235400Y-107072900D01*
X78876000Y-108593700D02*
X80396800Y-107072900D01*
X78876000Y-110744000D02*
X78876000Y-108593700D01*
X93652000Y-116078000D02*
X93652000Y-114227700D01*
X125050300Y-143764000D02*
X124034300Y-142748000D01*
X127254000Y-143764000D02*
X125050300Y-143764000D01*
X121784000Y-142748000D02*
X124034300Y-142748000D01*
X87766000Y-110744000D02*
X87766000Y-112894300D01*
X86376000Y-114284300D02*
X86376000Y-116078000D01*
X87766000Y-112894300D02*
X86376000Y-114284300D01*
X88392000Y-124460000D02*
X87294100Y-124460000D01*
X86376000Y-116078000D02*
X86376000Y-117703300D01*
X86376000Y-124460000D02*
X86376000Y-117703300D01*
X87294100Y-124460000D02*
X86376000Y-124460000D01*
X83836000Y-127000000D02*
X78994000Y-127000000D01*
X86376000Y-124460000D02*
X83836000Y-127000000D01*
D37*
X157712400Y-138780700D02*
X157742700Y-138811000D01*
X156752300Y-138780700D02*
X157712400Y-138780700D01*
X159098000Y-138811000D02*
X157742700Y-138811000D01*
X164255400Y-140760700D02*
X164494700Y-141000000D01*
X164126400Y-140760700D02*
X164255400Y-140760700D01*
X165450000Y-141000000D02*
X164494700Y-141000000D01*
X151194700Y-90074900D02*
X151194700Y-90490000D01*
X144854600Y-83734800D02*
X151194700Y-90074900D01*
X99588700Y-83734800D02*
X144854600Y-83734800D01*
X82560000Y-100763500D02*
X99588700Y-83734800D01*
X82560000Y-101566000D02*
X82560000Y-100763500D01*
X152230000Y-90490000D02*
X151194700Y-90490000D01*
X162550000Y-141000000D02*
X162072400Y-141000000D01*
X162072400Y-139832900D02*
X162550000Y-139355300D01*
X162072400Y-141000000D02*
X162072400Y-139832900D01*
X162550000Y-138000000D02*
X162550000Y-139355300D01*
X98900000Y-130971400D02*
X98900000Y-127100000D01*
X103067800Y-135139200D02*
X98900000Y-130971400D01*
X104970900Y-135139200D02*
X103067800Y-135139200D01*
X105996900Y-136165200D02*
X104970900Y-135139200D01*
X105996900Y-137298500D02*
X105996900Y-136165200D01*
X107213800Y-138515400D02*
X105996900Y-137298500D01*
X115902800Y-138515400D02*
X107213800Y-138515400D01*
X117212600Y-137205600D02*
X115902800Y-138515400D01*
X117212600Y-136049800D02*
X117212600Y-137205600D01*
X117697300Y-135565100D02*
X117212600Y-136049800D01*
X124853800Y-135565100D02*
X117697300Y-135565100D01*
X125305700Y-136017000D02*
X124853800Y-135565100D01*
X126586000Y-136017000D02*
X125488300Y-136017000D01*
X125488300Y-136017000D02*
X125305700Y-136017000D01*
X156925400Y-146147000D02*
X162072400Y-141000000D01*
X132373600Y-146147000D02*
X156925400Y-146147000D01*
X125305700Y-139079100D02*
X132373600Y-146147000D01*
X125305700Y-136017000D02*
X125305700Y-139079100D01*
X145434000Y-137541000D02*
X151798000Y-137541000D01*
X141362500Y-133469500D02*
X145434000Y-137541000D01*
X141362500Y-133024700D02*
X141362500Y-133469500D01*
X140659500Y-132321700D02*
X141362500Y-133024700D01*
X139644800Y-132321700D02*
X140659500Y-132321700D01*
X138160000Y-133806500D02*
X139644800Y-132321700D01*
X138160000Y-137414000D02*
X138160000Y-133806500D01*
X88376000Y-116078000D02*
X90752000Y-116078000D01*
X142986000Y-137414000D02*
X143991300Y-137414000D01*
X151798000Y-138811000D02*
X150442700Y-138811000D01*
X142631400Y-136283700D02*
X142986000Y-136283700D01*
X140174000Y-133826300D02*
X142631400Y-136283700D01*
X140174000Y-133096000D02*
X140174000Y-133826300D01*
X142986000Y-137414000D02*
X142986000Y-136283700D01*
X150442700Y-138811000D02*
X149712300Y-138811000D01*
X145388300Y-138811000D02*
X143991300Y-137414000D01*
X149712300Y-138811000D02*
X145388300Y-138811000D01*
X149712300Y-143542300D02*
X150188000Y-144018000D01*
X149712300Y-138811000D02*
X149712300Y-143542300D01*
X151143300Y-144137400D02*
X151143300Y-144018000D01*
X152379300Y-145373400D02*
X151143300Y-144137400D01*
X153779200Y-145373400D02*
X152379300Y-145373400D01*
X157742700Y-141409900D02*
X153779200Y-145373400D01*
X157742700Y-140081000D02*
X157742700Y-141409900D01*
X159098000Y-140081000D02*
X157742700Y-140081000D01*
X150188000Y-144018000D02*
X151143300Y-144018000D01*
D39*
X117661700Y-120944000D02*
X124333000Y-120944000D01*
X116300000Y-122305700D02*
X117661700Y-120944000D01*
X116300000Y-124206000D02*
X116300000Y-122305700D01*
X110917900Y-115094200D02*
X111760000Y-115094200D01*
X109930000Y-114106300D02*
X110917900Y-115094200D01*
X109930000Y-111506000D02*
X109930000Y-114106300D01*
X111760000Y-116348100D02*
X111760000Y-116733400D01*
X111760000Y-117602000D02*
X111760000Y-116733400D01*
X111760000Y-116348100D02*
X111760000Y-115094200D01*
X107918000Y-120575400D02*
X107918000Y-124206000D01*
X111760000Y-116733400D02*
X107918000Y-120575400D01*
D37*
X115242000Y-137160000D02*
X115242000Y-135804700D01*
X116231400Y-134815300D02*
X115242000Y-135804700D01*
X118215100Y-134815300D02*
X116231400Y-134815300D01*
X128226800Y-124803600D02*
X118215100Y-134815300D01*
X137035500Y-124803600D02*
X128226800Y-124803600D01*
X142274000Y-130042100D02*
X137035500Y-124803600D01*
X142274000Y-133096000D02*
X142274000Y-130042100D01*
D39*
X89915700Y-108593700D02*
X92066000Y-110744000D01*
X83176000Y-108593700D02*
X89915700Y-108593700D01*
X83176000Y-110744000D02*
X83176000Y-108593700D01*
D37*
X170942000Y-91440000D02*
X170434000Y-90932000D01*
X170942000Y-94054000D02*
X170942000Y-91440000D01*
X168148000Y-91186000D02*
X167894000Y-90932000D01*
X168148000Y-94054000D02*
X168148000Y-91186000D01*
X163950000Y-92336000D02*
X165354000Y-90932000D01*
X163950000Y-94714100D02*
X163950000Y-92336000D01*
X165234600Y-95998700D02*
X163950000Y-94714100D01*
X165354000Y-95998700D02*
X165234600Y-95998700D01*
X165354000Y-96954000D02*
X165354000Y-95998700D01*
X84462700Y-143256000D02*
X84716700Y-143002000D01*
X78994000Y-143256000D02*
X84462700Y-143256000D01*
X85672000Y-143002000D02*
X84716700Y-143002000D01*
X115832800Y-97909300D02*
X168148000Y-97909300D01*
X112712700Y-94789200D02*
X115832800Y-97909300D01*
X112712700Y-93027300D02*
X112712700Y-94789200D01*
X114046000Y-91694000D02*
X112712700Y-93027300D01*
X168148000Y-96954000D02*
X168148000Y-97909300D01*
X152132700Y-143628500D02*
X152132700Y-144018000D01*
X150442700Y-141938500D02*
X152132700Y-143628500D01*
X150442700Y-140081000D02*
X150442700Y-141938500D01*
X151798000Y-140081000D02*
X150442700Y-140081000D01*
X153088000Y-144018000D02*
X152132700Y-144018000D01*
X153153300Y-136972000D02*
X153153300Y-140081000D01*
X152824300Y-136643000D02*
X153153300Y-136972000D01*
X148728900Y-136643000D02*
X152824300Y-136643000D01*
X145555300Y-133469400D02*
X148728900Y-136643000D01*
X145555300Y-133350000D02*
X145555300Y-133469400D01*
X144600000Y-133350000D02*
X145555300Y-133350000D01*
X151798000Y-140081000D02*
X153153300Y-140081000D01*
X88572000Y-129978200D02*
X88572000Y-143002000D01*
X93606900Y-124943300D02*
X88572000Y-129978200D01*
X93606900Y-122070800D02*
X93606900Y-124943300D01*
X103255000Y-136394300D02*
X104020700Y-137160000D01*
X95289000Y-136394300D02*
X103255000Y-136394300D01*
X93761300Y-137922000D02*
X95289000Y-136394300D01*
X92456000Y-137922000D02*
X93761300Y-137922000D01*
X104976000Y-137160000D02*
X104020700Y-137160000D01*
X151065300Y-95328000D02*
X151065300Y-91440000D01*
X150635300Y-95758000D02*
X151065300Y-95328000D01*
X149680000Y-95758000D02*
X150635300Y-95758000D01*
X150030000Y-91440000D02*
X151065300Y-91440000D01*
X103446700Y-90020000D02*
X105120700Y-91694000D01*
X97790000Y-90020000D02*
X103446700Y-90020000D01*
X106426000Y-91694000D02*
X105120700Y-91694000D01*
D39*
X115142100Y-115094200D02*
X114300000Y-115094200D01*
X116130000Y-114106300D02*
X115142100Y-115094200D01*
X116130000Y-111506000D02*
X116130000Y-114106300D01*
X114300000Y-117602000D02*
X114300000Y-115094200D01*
D38*
X153493700Y-114553000D02*
X153875700Y-114935000D01*
X149098000Y-114553000D02*
X153493700Y-114553000D01*
X154956000Y-114935000D02*
X153875700Y-114935000D01*
X147627700Y-115155000D02*
X147627700Y-114553000D01*
X143182000Y-119600700D02*
X147627700Y-115155000D01*
X143182000Y-121031000D02*
X143182000Y-119600700D01*
X149098000Y-114553000D02*
X147627700Y-114553000D01*
D37*
X107830700Y-86444000D02*
X106426000Y-87848700D01*
X107830700Y-85852000D02*
X107830700Y-86444000D01*
X108786000Y-85852000D02*
X107830700Y-85852000D01*
X106426000Y-89154000D02*
X106426000Y-87848700D01*
X165356600Y-103126600D02*
X164084000Y-101854000D01*
X165356600Y-113781700D02*
X165356600Y-103126600D01*
X158361300Y-120777000D02*
X165356600Y-113781700D01*
X157406000Y-120777000D02*
X158361300Y-120777000D01*
X156260000Y-92390000D02*
X154715100Y-92390000D01*
X157718000Y-90932000D02*
X156260000Y-92390000D01*
X154715100Y-92390000D02*
X152230000Y-92390000D01*
X100785500Y-84484500D02*
X97790000Y-87480000D01*
X109482600Y-84484500D02*
X100785500Y-84484500D01*
X110730700Y-85732600D02*
X109482600Y-84484500D01*
X110730700Y-85852000D02*
X110730700Y-85732600D01*
X111686000Y-85852000D02*
X110730700Y-85852000D01*
X113746700Y-84746600D02*
X112641300Y-85852000D01*
X116683300Y-84746600D02*
X113746700Y-84746600D01*
X117788700Y-85852000D02*
X116683300Y-84746600D01*
X118744000Y-85852000D02*
X117788700Y-85852000D01*
X111686000Y-85852000D02*
X112641300Y-85852000D01*
D39*
X117078200Y-142748000D02*
X117205800Y-142748000D01*
X117078200Y-142748000D02*
X115233700Y-142748000D01*
X117484000Y-142748000D02*
X117205800Y-142748000D01*
X118438000Y-141515800D02*
X118438000Y-137160000D01*
X117205800Y-142748000D02*
X118438000Y-141515800D01*
X114217700Y-143764000D02*
X111760000Y-143764000D01*
X115233700Y-142748000D02*
X114217700Y-143764000D01*
X100076000Y-143002000D02*
X101876300Y-143002000D01*
X100076000Y-137922000D02*
X101876300Y-137922000D01*
X109147700Y-143002000D02*
X109909700Y-143764000D01*
X101876300Y-143002000D02*
X109147700Y-143002000D01*
X101876300Y-137922000D02*
X101876300Y-143002000D01*
X111760000Y-143764000D02*
X109909700Y-143764000D01*
X103918000Y-124206000D02*
X103918000Y-126106300D01*
X106126900Y-128315100D02*
X103918000Y-126106300D01*
X103378000Y-131064000D02*
X106126900Y-128315100D01*
X112300000Y-124206000D02*
X112300000Y-126106300D01*
X109805200Y-128601100D02*
X112300000Y-126106300D01*
X109519100Y-128315100D02*
X109805200Y-128601100D01*
X106126900Y-128315100D02*
X109519100Y-128315100D01*
X109805200Y-128601100D02*
X112268000Y-131064000D01*
D38*
X144361600Y-114266700D02*
X143182000Y-114266700D01*
X152146000Y-106482300D02*
X144361600Y-114266700D01*
X152146000Y-104902000D02*
X152146000Y-106482300D01*
X143182000Y-115697000D02*
X143182000Y-114266700D01*
X141312300Y-116536400D02*
X142151700Y-115697000D01*
X141312300Y-121031000D02*
X141312300Y-116536400D01*
X140282000Y-121031000D02*
X141312300Y-121031000D01*
X143182000Y-115697000D02*
X142151700Y-115697000D01*
X147304000Y-129032000D02*
X147304000Y-130237300D01*
X114046000Y-94234000D02*
X115426300Y-94234000D01*
X125984000Y-105410000D02*
X114046000Y-105410000D01*
X127508000Y-106934000D02*
X125984000Y-105410000D01*
X140716000Y-113832700D02*
X140282000Y-114266700D01*
X140716000Y-104902000D02*
X140716000Y-113832700D01*
X114046000Y-100330000D02*
X115426300Y-100330000D01*
X170942000Y-96954000D02*
X170942000Y-97984300D01*
X168596300Y-100330000D02*
X115426300Y-100330000D01*
X170942000Y-97984300D02*
X168596300Y-100330000D01*
X140282000Y-115697000D02*
X140282000Y-114981800D01*
X140282000Y-114981800D02*
X140282000Y-114266700D01*
X147304000Y-131723700D02*
X147304000Y-130237300D01*
X147500000Y-131919700D02*
X147304000Y-131723700D01*
X144520100Y-130237300D02*
X147304000Y-130237300D01*
X143636700Y-129353900D02*
X144520100Y-130237300D01*
X143636700Y-128823600D02*
X143636700Y-129353900D01*
X137002300Y-122189200D02*
X143636700Y-128823600D01*
X134466900Y-122189200D02*
X137002300Y-122189200D01*
X134167600Y-121889900D02*
X134466900Y-122189200D01*
X134167600Y-120003000D02*
X134167600Y-121889900D01*
X139188800Y-114981800D02*
X134167600Y-120003000D01*
X140282000Y-114981800D02*
X139188800Y-114981800D01*
X147500000Y-133350000D02*
X147500000Y-132634800D01*
X147500000Y-132634800D02*
X147500000Y-131919700D01*
X159098000Y-137541000D02*
X157667700Y-137541000D01*
X151798000Y-141351000D02*
X153228300Y-141351000D01*
X150284200Y-132634800D02*
X155555000Y-137905600D01*
X147500000Y-132634800D02*
X150284200Y-132634800D01*
X155555000Y-139024300D02*
X155555000Y-137905600D01*
X153228300Y-141351000D02*
X155555000Y-139024300D01*
X155919600Y-137541000D02*
X157667700Y-137541000D01*
X155555000Y-137905600D02*
X155919600Y-137541000D01*
X114787400Y-87032300D02*
X115444000Y-87032300D01*
X114046000Y-87773700D02*
X114787400Y-87032300D01*
X114046000Y-89154000D02*
X114046000Y-87773700D01*
X115444000Y-85852000D02*
X115444000Y-87032300D01*
X114046000Y-89154000D02*
X115426300Y-89154000D01*
X115426300Y-94234000D02*
X115426300Y-91597300D01*
X115426300Y-91597300D02*
X115426300Y-89154000D01*
X126141300Y-91597300D02*
X115426300Y-91597300D01*
X127508000Y-92964000D02*
X126141300Y-91597300D01*
X141383900Y-92390000D02*
X150030000Y-92390000D01*
X140609100Y-91615200D02*
X141383900Y-92390000D01*
X128856800Y-91615200D02*
X140609100Y-91615200D01*
X127508000Y-92964000D02*
X128856800Y-91615200D01*
M02*
