G04 #@! TF.FileFunction,Soldermask,Top*
%FSLAX46Y46*%
G04 Gerber Fmt 4.6, Leading zero omitted, Abs format (unit mm)*
G04 Created by KiCad (PCBNEW 4.0.6-e0-6349~53~ubuntu16.04.1) date Mon May 15 14:01:16 2017*
%MOMM*%
%LPD*%
G01*
G04 APERTURE LIST*
%ADD10C,0.100000*%
%ADD11C,1.924000*%
%ADD12R,1.460000X1.050000*%
%ADD13R,2.100000X1.050000*%
%ADD14R,2.430000X1.670000*%
%ADD15R,2.100000X1.300000*%
%ADD16R,1.300000X2.100000*%
%ADD17R,2.900000X2.200000*%
%ADD18R,1.400000X1.650000*%
%ADD19R,1.950000X1.000000*%
%ADD20R,1.924000X1.924000*%
%ADD21R,2.000000X2.000000*%
%ADD22O,2.000000X2.000000*%
%ADD23C,2.200000*%
%ADD24C,2.900000*%
%ADD25R,2.180000X1.420000*%
%ADD26C,2.000000*%
%ADD27C,3.650000*%
%ADD28R,2.900000X2.700000*%
%ADD29C,2.400000*%
%ADD30C,2.100000*%
%ADD31R,2.100000X2.100000*%
%ADD32O,1.906220X3.414980*%
%ADD33R,1.000000X0.850000*%
%ADD34O,2.200860X3.900120*%
%ADD35R,1.400000X3.600000*%
%ADD36R,1.300000X1.600000*%
%ADD37R,2.400000X2.400000*%
G04 APERTURE END LIST*
D10*
D11*
X170434000Y-90932000D03*
X167894000Y-90932000D03*
X165354000Y-90932000D03*
X165354000Y-88392000D03*
X167894000Y-88392000D03*
X170434000Y-88392000D03*
X164084000Y-106934000D03*
X169164000Y-106934000D03*
X164084000Y-104394000D03*
X164084000Y-101854000D03*
X169164000Y-101854000D03*
D12*
X152230000Y-92390000D03*
X152230000Y-91440000D03*
X152230000Y-90490000D03*
X150030000Y-90490000D03*
X150030000Y-92390000D03*
X150030000Y-91440000D03*
D13*
X159098000Y-141351000D03*
X159098000Y-140081000D03*
X159098000Y-138811000D03*
X159098000Y-137541000D03*
X151798000Y-137541000D03*
X151798000Y-138811000D03*
X151798000Y-140081000D03*
X151798000Y-141351000D03*
D14*
X124333000Y-123444000D03*
X135763000Y-123444000D03*
X124333000Y-125944000D03*
X135763000Y-125944000D03*
X135763000Y-120944000D03*
X124333000Y-120944000D03*
D15*
X168148000Y-94054000D03*
X168148000Y-96954000D03*
X165354000Y-96954000D03*
X165354000Y-94054000D03*
D16*
X115242000Y-137160000D03*
X112342000Y-137160000D03*
X153088000Y-144018000D03*
X150188000Y-144018000D03*
X144600000Y-133350000D03*
X147500000Y-133350000D03*
X162550000Y-138000000D03*
X165450000Y-138000000D03*
X162550000Y-141000000D03*
X165450000Y-141000000D03*
X90752000Y-116078000D03*
X93652000Y-116078000D03*
D17*
X103918000Y-124206000D03*
X107918000Y-124206000D03*
X112300000Y-124206000D03*
X116300000Y-124206000D03*
D18*
X149336000Y-120777000D03*
X147336000Y-120777000D03*
X128381000Y-131318000D03*
X126381000Y-131318000D03*
X98900000Y-127100000D03*
X96900000Y-127100000D03*
X154956000Y-114935000D03*
X156956000Y-114935000D03*
D19*
X126586000Y-134747000D03*
X126586000Y-136017000D03*
X126586000Y-137287000D03*
X126586000Y-138557000D03*
X131986000Y-138557000D03*
X131986000Y-137287000D03*
X131986000Y-136017000D03*
X131986000Y-134747000D03*
D20*
X124968000Y-106934000D03*
D11*
X127508000Y-106934000D03*
X130048000Y-106934000D03*
X132588000Y-106934000D03*
D21*
X106426000Y-89154000D03*
D22*
X114046000Y-94234000D03*
X106426000Y-91694000D03*
X114046000Y-91694000D03*
X106426000Y-94234000D03*
X114046000Y-89154000D03*
D23*
X173736000Y-133604000D03*
X173736000Y-128524000D03*
D24*
X161036000Y-131064000D03*
X157226000Y-131064000D03*
X153416000Y-131064000D03*
D16*
X149680000Y-95758000D03*
X152580000Y-95758000D03*
X104976000Y-137160000D03*
X107876000Y-137160000D03*
X118438000Y-137160000D03*
X121338000Y-137160000D03*
X85672000Y-143002000D03*
X88572000Y-143002000D03*
D15*
X170942000Y-94054000D03*
X170942000Y-96954000D03*
D25*
X149098000Y-114553000D03*
X149098000Y-116333000D03*
D26*
X60000000Y-107000000D03*
X60000000Y-112000000D03*
X65800000Y-110000000D03*
X63500000Y-112500000D03*
X65500000Y-105900000D03*
D27*
X61214000Y-138430000D03*
X73914000Y-138430000D03*
X78994000Y-138430000D03*
D24*
X61214000Y-143256000D03*
X78994000Y-143256000D03*
X78994000Y-133350000D03*
D27*
X61214000Y-122174000D03*
X73914000Y-122174000D03*
X78994000Y-122174000D03*
D24*
X61214000Y-127000000D03*
X78994000Y-127000000D03*
X78994000Y-117094000D03*
D28*
X87766000Y-110744000D03*
X92066000Y-110744000D03*
X78876000Y-110744000D03*
X83176000Y-110744000D03*
X117484000Y-142748000D03*
X121784000Y-142748000D03*
D18*
X142986000Y-137414000D03*
X140986000Y-137414000D03*
X86376000Y-116078000D03*
X88376000Y-116078000D03*
X138160000Y-137414000D03*
X136160000Y-137414000D03*
D21*
X92456000Y-137922000D03*
D22*
X100076000Y-143002000D03*
X92456000Y-140462000D03*
X100076000Y-140462000D03*
X92456000Y-143002000D03*
X100076000Y-137922000D03*
D20*
X124968000Y-92964000D03*
D11*
X127508000Y-92964000D03*
X130048000Y-92964000D03*
X132588000Y-92964000D03*
D21*
X106426000Y-100330000D03*
D22*
X114046000Y-105410000D03*
X106426000Y-102870000D03*
X114046000Y-102870000D03*
X106426000Y-105410000D03*
X114046000Y-100330000D03*
D29*
X66080000Y-86320000D03*
X66080000Y-101570000D03*
D30*
X85100000Y-86360000D03*
X85090000Y-101566000D03*
X82560000Y-86360000D03*
X80020000Y-86360000D03*
D31*
X77480000Y-86370000D03*
D30*
X82560000Y-101566000D03*
X80020000Y-101566000D03*
D31*
X77480000Y-101566000D03*
D30*
X97790000Y-87480000D03*
X97790000Y-90020000D03*
X97790000Y-92560000D03*
X97790000Y-95100000D03*
X97790000Y-97640000D03*
D31*
X97790000Y-100180000D03*
D32*
X114300000Y-117602000D03*
X111760000Y-117602000D03*
D33*
X140174000Y-133096000D03*
X142274000Y-133096000D03*
D34*
X90932000Y-124460000D03*
X88392000Y-124460000D03*
D26*
X112268000Y-131064000D03*
X117268000Y-131064000D03*
D16*
X157406000Y-120777000D03*
X154506000Y-120777000D03*
D31*
X139446000Y-143764000D03*
X145542000Y-143764000D03*
X111760000Y-143764000D03*
X133350000Y-143764000D03*
X127254000Y-143764000D03*
D24*
X60960000Y-81026000D03*
X60960000Y-148590000D03*
X170180000Y-81026000D03*
X170180000Y-148590000D03*
D35*
X109930000Y-111506000D03*
X116130000Y-111506000D03*
D16*
X111686000Y-85852000D03*
X108786000Y-85852000D03*
D18*
X157718000Y-90932000D03*
X155718000Y-90932000D03*
D36*
X115444000Y-85852000D03*
X118744000Y-85852000D03*
D37*
X152146000Y-104902000D03*
D29*
X157146000Y-104902000D03*
D26*
X103378000Y-131064000D03*
X108378000Y-131064000D03*
D18*
X147304000Y-129032000D03*
X145304000Y-129032000D03*
D37*
X140716000Y-104902000D03*
D29*
X145716000Y-104902000D03*
D16*
X143182000Y-115697000D03*
X140282000Y-115697000D03*
X143182000Y-121031000D03*
X140282000Y-121031000D03*
D26*
X67437000Y-122174000D03*
D10*
G36*
X66862000Y-120906500D02*
X66802000Y-120661500D01*
X68072000Y-120661500D01*
X68012000Y-120906500D01*
X66862000Y-120906500D01*
X66862000Y-120906500D01*
G37*
G36*
X66134156Y-121684329D02*
X65918489Y-121553514D01*
X66816514Y-120655489D01*
X66947329Y-120871156D01*
X66134156Y-121684329D01*
X66134156Y-121684329D01*
G37*
G36*
X66169500Y-122749000D02*
X65924500Y-122809000D01*
X65924500Y-121539000D01*
X66169500Y-121599000D01*
X66169500Y-122749000D01*
X66169500Y-122749000D01*
G37*
G36*
X66947329Y-123476844D02*
X66816514Y-123692511D01*
X65918489Y-122794486D01*
X66134156Y-122663671D01*
X66947329Y-123476844D01*
X66947329Y-123476844D01*
G37*
G36*
X68012000Y-123441500D02*
X68072000Y-123686500D01*
X66802000Y-123686500D01*
X66862000Y-123441500D01*
X68012000Y-123441500D01*
X68012000Y-123441500D01*
G37*
G36*
X68739844Y-122663671D02*
X68955511Y-122794486D01*
X68057486Y-123692511D01*
X67926671Y-123476844D01*
X68739844Y-122663671D01*
X68739844Y-122663671D01*
G37*
G36*
X68704500Y-121599000D02*
X68949500Y-121539000D01*
X68949500Y-122809000D01*
X68704500Y-122749000D01*
X68704500Y-121599000D01*
X68704500Y-121599000D01*
G37*
G36*
X67926671Y-120871156D02*
X68057486Y-120655489D01*
X68955511Y-121553514D01*
X68739844Y-121684329D01*
X67926671Y-120871156D01*
X67926671Y-120871156D01*
G37*
D26*
X163000000Y-84000000D03*
D10*
G36*
X162425000Y-82732500D02*
X162365000Y-82487500D01*
X163635000Y-82487500D01*
X163575000Y-82732500D01*
X162425000Y-82732500D01*
X162425000Y-82732500D01*
G37*
G36*
X161697156Y-83510329D02*
X161481489Y-83379514D01*
X162379514Y-82481489D01*
X162510329Y-82697156D01*
X161697156Y-83510329D01*
X161697156Y-83510329D01*
G37*
G36*
X161732500Y-84575000D02*
X161487500Y-84635000D01*
X161487500Y-83365000D01*
X161732500Y-83425000D01*
X161732500Y-84575000D01*
X161732500Y-84575000D01*
G37*
G36*
X162510329Y-85302844D02*
X162379514Y-85518511D01*
X161481489Y-84620486D01*
X161697156Y-84489671D01*
X162510329Y-85302844D01*
X162510329Y-85302844D01*
G37*
G36*
X163575000Y-85267500D02*
X163635000Y-85512500D01*
X162365000Y-85512500D01*
X162425000Y-85267500D01*
X163575000Y-85267500D01*
X163575000Y-85267500D01*
G37*
G36*
X164302844Y-84489671D02*
X164518511Y-84620486D01*
X163620486Y-85518511D01*
X163489671Y-85302844D01*
X164302844Y-84489671D01*
X164302844Y-84489671D01*
G37*
G36*
X164267500Y-83425000D02*
X164512500Y-83365000D01*
X164512500Y-84635000D01*
X164267500Y-84575000D01*
X164267500Y-83425000D01*
X164267500Y-83425000D01*
G37*
G36*
X163489671Y-82697156D02*
X163620486Y-82481489D01*
X164518511Y-83379514D01*
X164302844Y-83510329D01*
X163489671Y-82697156D01*
X163489671Y-82697156D01*
G37*
D26*
X163000000Y-122174000D03*
D10*
G36*
X162425000Y-120906500D02*
X162365000Y-120661500D01*
X163635000Y-120661500D01*
X163575000Y-120906500D01*
X162425000Y-120906500D01*
X162425000Y-120906500D01*
G37*
G36*
X161697156Y-121684329D02*
X161481489Y-121553514D01*
X162379514Y-120655489D01*
X162510329Y-120871156D01*
X161697156Y-121684329D01*
X161697156Y-121684329D01*
G37*
G36*
X161732500Y-122749000D02*
X161487500Y-122809000D01*
X161487500Y-121539000D01*
X161732500Y-121599000D01*
X161732500Y-122749000D01*
X161732500Y-122749000D01*
G37*
G36*
X162510329Y-123476844D02*
X162379514Y-123692511D01*
X161481489Y-122794486D01*
X161697156Y-122663671D01*
X162510329Y-123476844D01*
X162510329Y-123476844D01*
G37*
G36*
X163575000Y-123441500D02*
X163635000Y-123686500D01*
X162365000Y-123686500D01*
X162425000Y-123441500D01*
X163575000Y-123441500D01*
X163575000Y-123441500D01*
G37*
G36*
X164302844Y-122663671D02*
X164518511Y-122794486D01*
X163620486Y-123692511D01*
X163489671Y-123476844D01*
X164302844Y-122663671D01*
X164302844Y-122663671D01*
G37*
G36*
X164267500Y-121599000D02*
X164512500Y-121539000D01*
X164512500Y-122809000D01*
X164267500Y-122749000D01*
X164267500Y-121599000D01*
X164267500Y-121599000D01*
G37*
G36*
X163489671Y-120871156D02*
X163620486Y-120655489D01*
X164518511Y-121553514D01*
X164302844Y-121684329D01*
X163489671Y-120871156D01*
X163489671Y-120871156D01*
G37*
M02*
