G04 #@! TF.FileFunction,Copper,L2,Bot,Signal*
%FSLAX46Y46*%
G04 Gerber Fmt 4.6, Leading zero omitted, Abs format (unit mm)*
G04 Created by KiCad (PCBNEW 4.0.7-e1-6374~58~ubuntu16.04.1) date Mon Sep  4 16:08:18 2017*
%MOMM*%
%LPD*%
G01*
G04 APERTURE LIST*
%ADD10C,0.100000*%
%ADD11R,1.600000X1.600000*%
%ADD12C,1.600000*%
%ADD13R,1.700000X1.700000*%
%ADD14O,1.800860X3.500120*%
%ADD15C,1.700000*%
%ADD16R,1.524000X1.524000*%
%ADD17C,1.524000*%
%ADD18C,2.500000*%
%ADD19C,1.000000*%
%ADD20C,1.000000*%
%ADD21C,0.290000*%
%ADD22C,0.450000*%
%ADD23C,0.600000*%
G04 APERTURE END LIST*
D10*
D11*
X143764000Y-96774000D03*
D12*
X140264000Y-96774000D03*
X106500000Y-141250000D03*
X111500000Y-141250000D03*
D13*
X122682000Y-143510000D03*
X152654000Y-143510000D03*
X139446000Y-143510000D03*
D12*
X106514000Y-135128000D03*
X111514000Y-135128000D03*
D14*
X90932000Y-124460000D03*
X88392000Y-124460000D03*
D15*
X85100000Y-86360000D03*
X85090000Y-101566000D03*
X82560000Y-86360000D03*
X80020000Y-86360000D03*
D13*
X77480000Y-86370000D03*
D15*
X82560000Y-101566000D03*
X80020000Y-101566000D03*
D13*
X77480000Y-101566000D03*
D15*
X97790000Y-87480000D03*
X97790000Y-90020000D03*
X97790000Y-92560000D03*
X97790000Y-95100000D03*
X97790000Y-97640000D03*
D13*
X97790000Y-100180000D03*
D16*
X124968000Y-92964000D03*
D17*
X127508000Y-92964000D03*
X130048000Y-92964000D03*
X132588000Y-92964000D03*
D18*
X61214000Y-127000000D03*
X78994000Y-127000000D03*
X78994000Y-117094000D03*
X61214000Y-143256000D03*
X78994000Y-143256000D03*
X78994000Y-133350000D03*
D12*
X65800000Y-110000000D03*
X63500000Y-112500000D03*
X65500000Y-105900000D03*
D18*
X161036000Y-131064000D03*
X157226000Y-131064000D03*
X153416000Y-131064000D03*
D16*
X124841000Y-101219000D03*
D17*
X127381000Y-101219000D03*
X129921000Y-101219000D03*
X132461000Y-101219000D03*
X164084000Y-106934000D03*
X169164000Y-106934000D03*
X164084000Y-104394000D03*
X164084000Y-101854000D03*
X169164000Y-101854000D03*
X170434000Y-90932000D03*
X167894000Y-90932000D03*
X165354000Y-90932000D03*
X165354000Y-88392000D03*
X167894000Y-88392000D03*
X170434000Y-88392000D03*
D12*
X106514000Y-129032000D03*
X111514000Y-129032000D03*
D13*
X146050000Y-143510000D03*
X138800000Y-121700000D03*
X129286000Y-143510000D03*
D19*
X148322700Y-100965000D03*
X162932200Y-108967300D03*
X96654000Y-130086700D03*
X166325100Y-95214300D03*
X92815700Y-118279000D03*
X86775500Y-117716900D03*
X112453700Y-121226300D03*
X109310400Y-103124000D03*
X96786900Y-118905600D03*
X146624600Y-94773400D03*
X153548700Y-92630400D03*
X147250600Y-125900000D03*
X152961000Y-121823900D03*
X142372400Y-129600000D03*
X134000000Y-127135700D03*
D20*
X75849700Y-102190100D02*
X75849700Y-101566000D01*
X65539800Y-112500000D02*
X75849700Y-102190100D01*
X63500000Y-112500000D02*
X65539800Y-112500000D01*
X77480000Y-101566000D02*
X75849700Y-101566000D01*
X124841000Y-101219000D02*
X124841000Y-99676700D01*
X124968000Y-92964000D02*
X124968000Y-94506300D01*
X127489700Y-97028000D02*
X124968000Y-94506300D01*
X127489700Y-97028000D02*
X124841000Y-99676700D01*
X122804300Y-97640000D02*
X124841000Y-99676700D01*
X97790000Y-97640000D02*
X122804300Y-97640000D01*
X127743700Y-96774000D02*
X127489700Y-97028000D01*
X140264000Y-96774000D02*
X127743700Y-96774000D01*
X144789600Y-94797300D02*
X144789600Y-95079400D01*
X151194900Y-88392000D02*
X144789600Y-94797300D01*
X165354000Y-88392000D02*
X151194900Y-88392000D01*
X141958600Y-95079400D02*
X144789600Y-95079400D01*
X140264000Y-96774000D02*
X141958600Y-95079400D01*
X148322600Y-100965000D02*
X148322700Y-100965000D01*
X148322600Y-98612400D02*
X148322600Y-100965000D01*
X144789600Y-95079400D02*
X148322600Y-98612400D01*
D21*
X96654000Y-125729000D02*
X96654000Y-130086700D01*
X91661500Y-120736500D02*
X96654000Y-125729000D01*
X91661500Y-101228500D02*
X91661500Y-120736500D01*
X97790000Y-95100000D02*
X91661500Y-101228500D01*
X96654000Y-133517100D02*
X96654000Y-130086700D01*
X108842100Y-145705200D02*
X96654000Y-133517100D01*
X154021200Y-145705200D02*
X108842100Y-145705200D01*
X162932200Y-136794200D02*
X154021200Y-145705200D01*
X162932200Y-108967300D02*
X162932200Y-136794200D01*
X162872500Y-98666900D02*
X166325100Y-95214300D01*
X162872500Y-108907600D02*
X162872500Y-98666900D01*
X162932200Y-108967300D02*
X162872500Y-108907600D01*
D20*
X111514000Y-129032000D02*
X111514000Y-135128000D01*
X111500000Y-135142000D02*
X111500000Y-141250000D01*
X111514000Y-135128000D02*
X111500000Y-135142000D01*
X94944100Y-120407400D02*
X92815700Y-118279000D01*
X110732600Y-120407400D02*
X94944100Y-120407400D01*
X129921000Y-101219000D02*
X110732600Y-120407400D01*
X110732600Y-128250600D02*
X111514000Y-129032000D01*
X110732600Y-120407400D02*
X110732600Y-128250600D01*
X86775500Y-120093100D02*
X86775500Y-117716900D01*
X88392000Y-121709600D02*
X86775500Y-120093100D01*
X88392000Y-124460000D02*
X88392000Y-121709600D01*
X132461000Y-101219000D02*
X112453700Y-121226300D01*
D22*
X71120000Y-133350000D02*
X61214000Y-143256000D01*
X78994000Y-133350000D02*
X71120000Y-133350000D01*
X125777400Y-86153400D02*
X132588000Y-92964000D01*
X97140600Y-86153400D02*
X125777400Y-86153400D01*
X96089700Y-87204300D02*
X97140600Y-86153400D01*
X96089700Y-94290300D02*
X96089700Y-87204300D01*
X83389300Y-106990700D02*
X96089700Y-94290300D01*
X83389300Y-128954700D02*
X83389300Y-106990700D01*
X78994000Y-133350000D02*
X83389300Y-128954700D01*
X96786900Y-115647500D02*
X109310400Y-103124000D01*
X96786900Y-118905600D02*
X96786900Y-115647500D01*
X108806800Y-100180000D02*
X97790000Y-100180000D01*
X111113200Y-102486400D02*
X108806800Y-100180000D01*
X125881100Y-102486400D02*
X111113200Y-102486400D01*
X126108400Y-102259100D02*
X125881100Y-102486400D01*
X126108400Y-100668200D02*
X126108400Y-102259100D01*
X127060700Y-99715900D02*
X126108400Y-100668200D01*
X133087000Y-99715900D02*
X127060700Y-99715900D01*
X157226000Y-123854900D02*
X133087000Y-99715900D01*
X157226000Y-131064000D02*
X157226000Y-123854900D01*
D20*
X106514000Y-129032000D02*
X106514000Y-135128000D01*
X106514000Y-141236000D02*
X106514000Y-135128000D01*
X106500000Y-141250000D02*
X106514000Y-141236000D01*
D22*
X153548700Y-94773400D02*
X153548700Y-92630400D01*
X161036000Y-102260700D02*
X153548700Y-94773400D01*
X161036000Y-131064000D02*
X161036000Y-102260700D01*
X153548700Y-94773400D02*
X146624600Y-94773400D01*
D21*
X148884900Y-125900000D02*
X147250600Y-125900000D01*
X152961000Y-121823900D02*
X148884900Y-125900000D01*
D23*
X146050000Y-143510000D02*
X147480300Y-143510000D01*
X143764000Y-96774000D02*
X143764000Y-98154300D01*
X154109800Y-141337400D02*
X151830200Y-139057700D01*
X154109800Y-144582900D02*
X154109800Y-141337400D01*
X153727800Y-144964900D02*
X154109800Y-144582900D01*
X148935200Y-144964900D02*
X153727800Y-144964900D01*
X147480300Y-143510000D02*
X148935200Y-144964900D01*
X151830200Y-139057700D02*
X142372400Y-129600000D01*
X159080300Y-131807600D02*
X151830200Y-139057700D01*
X159080300Y-113470600D02*
X159080300Y-131807600D01*
X143764000Y-98154300D02*
X159080300Y-113470600D01*
X134849400Y-127135700D02*
X134000000Y-127135700D01*
X151223700Y-143510000D02*
X134849400Y-127135700D01*
X152654000Y-143510000D02*
X151223700Y-143510000D01*
M02*
