G04 #@! TF.FileFunction,Legend,Top*
%FSLAX46Y46*%
G04 Gerber Fmt 4.6, Leading zero omitted, Abs format (unit mm)*
G04 Created by KiCad (PCBNEW 4.0.7-e1-6374~58~ubuntu16.04.1) date Fri Aug  4 12:19:56 2017*
%MOMM*%
%LPD*%
G01*
G04 APERTURE LIST*
%ADD10C,0.100000*%
%ADD11C,0.250000*%
%ADD12C,0.300000*%
%ADD13C,0.120000*%
%ADD14C,0.150000*%
%ADD15C,0.700000*%
G04 APERTURE END LIST*
D10*
D11*
X95123810Y-114702381D02*
X95123810Y-115416667D01*
X95076190Y-115559524D01*
X94980952Y-115654762D01*
X94838095Y-115702381D01*
X94742857Y-115702381D01*
X96028572Y-115035714D02*
X96028572Y-115702381D01*
X95600000Y-115035714D02*
X95600000Y-115559524D01*
X95647619Y-115654762D01*
X95742857Y-115702381D01*
X95885715Y-115702381D01*
X95980953Y-115654762D01*
X96028572Y-115607143D01*
X96504762Y-115702381D02*
X96504762Y-115035714D01*
X96504762Y-115130952D02*
X96552381Y-115083333D01*
X96647619Y-115035714D01*
X96790477Y-115035714D01*
X96885715Y-115083333D01*
X96933334Y-115178571D01*
X96933334Y-115702381D01*
X96933334Y-115178571D02*
X96980953Y-115083333D01*
X97076191Y-115035714D01*
X97219048Y-115035714D01*
X97314286Y-115083333D01*
X97361905Y-115178571D01*
X97361905Y-115702381D01*
X97838095Y-115035714D02*
X97838095Y-116035714D01*
X97838095Y-115083333D02*
X97933333Y-115035714D01*
X98123810Y-115035714D01*
X98219048Y-115083333D01*
X98266667Y-115130952D01*
X98314286Y-115226190D01*
X98314286Y-115511905D01*
X98266667Y-115607143D01*
X98219048Y-115654762D01*
X98123810Y-115702381D01*
X97933333Y-115702381D01*
X97838095Y-115654762D01*
X99123810Y-115654762D02*
X99028572Y-115702381D01*
X98838095Y-115702381D01*
X98742857Y-115654762D01*
X98695238Y-115559524D01*
X98695238Y-115178571D01*
X98742857Y-115083333D01*
X98838095Y-115035714D01*
X99028572Y-115035714D01*
X99123810Y-115083333D01*
X99171429Y-115178571D01*
X99171429Y-115273810D01*
X98695238Y-115369048D01*
X99600000Y-115702381D02*
X99600000Y-115035714D01*
X99600000Y-115226190D02*
X99647619Y-115130952D01*
X99695238Y-115083333D01*
X99790476Y-115035714D01*
X99885715Y-115035714D01*
X101171429Y-114702381D02*
X101361906Y-114702381D01*
X101457144Y-114750000D01*
X101552382Y-114845238D01*
X101600001Y-115035714D01*
X101600001Y-115369048D01*
X101552382Y-115559524D01*
X101457144Y-115654762D01*
X101361906Y-115702381D01*
X101171429Y-115702381D01*
X101076191Y-115654762D01*
X100980953Y-115559524D01*
X100933334Y-115369048D01*
X100933334Y-115035714D01*
X100980953Y-114845238D01*
X101076191Y-114750000D01*
X101171429Y-114702381D01*
X102028572Y-114702381D02*
X102028572Y-115511905D01*
X102076191Y-115607143D01*
X102123810Y-115654762D01*
X102219048Y-115702381D01*
X102409525Y-115702381D01*
X102504763Y-115654762D01*
X102552382Y-115607143D01*
X102600001Y-115511905D01*
X102600001Y-114702381D01*
X102933334Y-114702381D02*
X103504763Y-114702381D01*
X103219048Y-115702381D02*
X103219048Y-114702381D01*
X94861904Y-116785714D02*
X95242856Y-116785714D01*
X95004761Y-117452381D02*
X95004761Y-116595238D01*
X95052380Y-116500000D01*
X95147618Y-116452381D01*
X95242856Y-116452381D01*
X95719047Y-117452381D02*
X95623809Y-117404762D01*
X95576190Y-117357143D01*
X95528571Y-117261905D01*
X95528571Y-116976190D01*
X95576190Y-116880952D01*
X95623809Y-116833333D01*
X95719047Y-116785714D01*
X95861905Y-116785714D01*
X95957143Y-116833333D01*
X96004762Y-116880952D01*
X96052381Y-116976190D01*
X96052381Y-117261905D01*
X96004762Y-117357143D01*
X95957143Y-117404762D01*
X95861905Y-117452381D01*
X95719047Y-117452381D01*
X96480952Y-117452381D02*
X96480952Y-116785714D01*
X96480952Y-116976190D02*
X96528571Y-116880952D01*
X96576190Y-116833333D01*
X96671428Y-116785714D01*
X96766667Y-116785714D01*
X98338096Y-116452381D02*
X97861905Y-116452381D01*
X97814286Y-116928571D01*
X97861905Y-116880952D01*
X97957143Y-116833333D01*
X98195239Y-116833333D01*
X98290477Y-116880952D01*
X98338096Y-116928571D01*
X98385715Y-117023810D01*
X98385715Y-117261905D01*
X98338096Y-117357143D01*
X98290477Y-117404762D01*
X98195239Y-117452381D01*
X97957143Y-117452381D01*
X97861905Y-117404762D01*
X97814286Y-117357143D01*
X99290477Y-116452381D02*
X98814286Y-116452381D01*
X98766667Y-116928571D01*
X98814286Y-116880952D01*
X98909524Y-116833333D01*
X99147620Y-116833333D01*
X99242858Y-116880952D01*
X99290477Y-116928571D01*
X99338096Y-117023810D01*
X99338096Y-117261905D01*
X99290477Y-117357143D01*
X99242858Y-117404762D01*
X99147620Y-117452381D01*
X98909524Y-117452381D01*
X98814286Y-117404762D01*
X98766667Y-117357143D01*
X100671429Y-117452381D02*
X100576191Y-117404762D01*
X100528572Y-117357143D01*
X100480953Y-117261905D01*
X100480953Y-116976190D01*
X100528572Y-116880952D01*
X100576191Y-116833333D01*
X100671429Y-116785714D01*
X100814287Y-116785714D01*
X100909525Y-116833333D01*
X100957144Y-116880952D01*
X101004763Y-116976190D01*
X101004763Y-117261905D01*
X100957144Y-117357143D01*
X100909525Y-117404762D01*
X100814287Y-117452381D01*
X100671429Y-117452381D01*
X101433334Y-117452381D02*
X101433334Y-116452381D01*
X101861906Y-117452381D02*
X101861906Y-116928571D01*
X101814287Y-116833333D01*
X101719049Y-116785714D01*
X101576191Y-116785714D01*
X101480953Y-116833333D01*
X101433334Y-116880952D01*
X102338096Y-117452381D02*
X102338096Y-116785714D01*
X102338096Y-116880952D02*
X102385715Y-116833333D01*
X102480953Y-116785714D01*
X102623811Y-116785714D01*
X102719049Y-116833333D01*
X102766668Y-116928571D01*
X102766668Y-117452381D01*
X102766668Y-116928571D02*
X102814287Y-116833333D01*
X102909525Y-116785714D01*
X103052382Y-116785714D01*
X103147620Y-116833333D01*
X103195239Y-116928571D01*
X103195239Y-117452381D01*
X96290475Y-119154762D02*
X96385713Y-119202381D01*
X96576189Y-119202381D01*
X96671428Y-119154762D01*
X96719047Y-119059524D01*
X96719047Y-119011905D01*
X96671428Y-118916667D01*
X96576189Y-118869048D01*
X96433332Y-118869048D01*
X96338094Y-118821429D01*
X96290475Y-118726190D01*
X96290475Y-118678571D01*
X96338094Y-118583333D01*
X96433332Y-118535714D01*
X96576189Y-118535714D01*
X96671428Y-118583333D01*
X97528571Y-119154762D02*
X97433333Y-119202381D01*
X97242856Y-119202381D01*
X97147618Y-119154762D01*
X97099999Y-119059524D01*
X97099999Y-118678571D01*
X97147618Y-118583333D01*
X97242856Y-118535714D01*
X97433333Y-118535714D01*
X97528571Y-118583333D01*
X97576190Y-118678571D01*
X97576190Y-118773810D01*
X97099999Y-118869048D01*
X98147618Y-119202381D02*
X98052380Y-119154762D01*
X98004761Y-119059524D01*
X98004761Y-118202381D01*
X98909524Y-119154762D02*
X98814286Y-119202381D01*
X98623809Y-119202381D01*
X98528571Y-119154762D01*
X98480952Y-119059524D01*
X98480952Y-118678571D01*
X98528571Y-118583333D01*
X98623809Y-118535714D01*
X98814286Y-118535714D01*
X98909524Y-118583333D01*
X98957143Y-118678571D01*
X98957143Y-118773810D01*
X98480952Y-118869048D01*
X99814286Y-119154762D02*
X99719048Y-119202381D01*
X99528571Y-119202381D01*
X99433333Y-119154762D01*
X99385714Y-119107143D01*
X99338095Y-119011905D01*
X99338095Y-118726190D01*
X99385714Y-118630952D01*
X99433333Y-118583333D01*
X99528571Y-118535714D01*
X99719048Y-118535714D01*
X99814286Y-118583333D01*
X100100000Y-118535714D02*
X100480952Y-118535714D01*
X100242857Y-118202381D02*
X100242857Y-119059524D01*
X100290476Y-119154762D01*
X100385714Y-119202381D01*
X100480952Y-119202381D01*
X100957143Y-119202381D02*
X100861905Y-119154762D01*
X100814286Y-119107143D01*
X100766667Y-119011905D01*
X100766667Y-118726190D01*
X100814286Y-118630952D01*
X100861905Y-118583333D01*
X100957143Y-118535714D01*
X101100001Y-118535714D01*
X101195239Y-118583333D01*
X101242858Y-118630952D01*
X101290477Y-118726190D01*
X101290477Y-119011905D01*
X101242858Y-119107143D01*
X101195239Y-119154762D01*
X101100001Y-119202381D01*
X100957143Y-119202381D01*
X101719048Y-119202381D02*
X101719048Y-118535714D01*
X101719048Y-118726190D02*
X101766667Y-118630952D01*
X101814286Y-118583333D01*
X101909524Y-118535714D01*
X102004763Y-118535714D01*
X85820761Y-130641381D02*
X85344570Y-130641381D01*
X85344570Y-129641381D01*
X86296951Y-130641381D02*
X86201713Y-130593762D01*
X86154094Y-130546143D01*
X86106475Y-130450905D01*
X86106475Y-130165190D01*
X86154094Y-130069952D01*
X86201713Y-130022333D01*
X86296951Y-129974714D01*
X86439809Y-129974714D01*
X86535047Y-130022333D01*
X86582666Y-130069952D01*
X86630285Y-130165190D01*
X86630285Y-130450905D01*
X86582666Y-130546143D01*
X86535047Y-130593762D01*
X86439809Y-130641381D01*
X86296951Y-130641381D01*
X87201713Y-130641381D02*
X87106475Y-130593762D01*
X87058856Y-130546143D01*
X87011237Y-130450905D01*
X87011237Y-130165190D01*
X87058856Y-130069952D01*
X87106475Y-130022333D01*
X87201713Y-129974714D01*
X87344571Y-129974714D01*
X87439809Y-130022333D01*
X87487428Y-130069952D01*
X87535047Y-130165190D01*
X87535047Y-130450905D01*
X87487428Y-130546143D01*
X87439809Y-130593762D01*
X87344571Y-130641381D01*
X87201713Y-130641381D01*
X87963618Y-129974714D02*
X87963618Y-130974714D01*
X87963618Y-130022333D02*
X88058856Y-129974714D01*
X88249333Y-129974714D01*
X88344571Y-130022333D01*
X88392190Y-130069952D01*
X88439809Y-130165190D01*
X88439809Y-130450905D01*
X88392190Y-130546143D01*
X88344571Y-130593762D01*
X88249333Y-130641381D01*
X88058856Y-130641381D01*
X87963618Y-130593762D01*
X90058857Y-130593762D02*
X89963619Y-130641381D01*
X89773142Y-130641381D01*
X89677904Y-130593762D01*
X89630285Y-130546143D01*
X89582666Y-130450905D01*
X89582666Y-130165190D01*
X89630285Y-130069952D01*
X89677904Y-130022333D01*
X89773142Y-129974714D01*
X89963619Y-129974714D01*
X90058857Y-130022333D01*
X90916000Y-129974714D02*
X90916000Y-130641381D01*
X90487428Y-129974714D02*
X90487428Y-130498524D01*
X90535047Y-130593762D01*
X90630285Y-130641381D01*
X90773143Y-130641381D01*
X90868381Y-130593762D01*
X90916000Y-130546143D01*
X91392190Y-130641381D02*
X91392190Y-129974714D01*
X91392190Y-130165190D02*
X91439809Y-130069952D01*
X91487428Y-130022333D01*
X91582666Y-129974714D01*
X91677905Y-129974714D01*
X92011238Y-130641381D02*
X92011238Y-129974714D01*
X92011238Y-130165190D02*
X92058857Y-130069952D01*
X92106476Y-130022333D01*
X92201714Y-129974714D01*
X92296953Y-129974714D01*
X93011239Y-130593762D02*
X92916001Y-130641381D01*
X92725524Y-130641381D01*
X92630286Y-130593762D01*
X92582667Y-130498524D01*
X92582667Y-130117571D01*
X92630286Y-130022333D01*
X92725524Y-129974714D01*
X92916001Y-129974714D01*
X93011239Y-130022333D01*
X93058858Y-130117571D01*
X93058858Y-130212810D01*
X92582667Y-130308048D01*
X93487429Y-129974714D02*
X93487429Y-130641381D01*
X93487429Y-130069952D02*
X93535048Y-130022333D01*
X93630286Y-129974714D01*
X93773144Y-129974714D01*
X93868382Y-130022333D01*
X93916001Y-130117571D01*
X93916001Y-130641381D01*
X94249334Y-129974714D02*
X94630286Y-129974714D01*
X94392191Y-129641381D02*
X94392191Y-130498524D01*
X94439810Y-130593762D01*
X94535048Y-130641381D01*
X94630286Y-130641381D01*
X83963618Y-132391381D02*
X83963618Y-131724714D01*
X83963618Y-131819952D02*
X84011237Y-131772333D01*
X84106475Y-131724714D01*
X84249333Y-131724714D01*
X84344571Y-131772333D01*
X84392190Y-131867571D01*
X84392190Y-132391381D01*
X84392190Y-131867571D02*
X84439809Y-131772333D01*
X84535047Y-131724714D01*
X84677904Y-131724714D01*
X84773142Y-131772333D01*
X84820761Y-131867571D01*
X84820761Y-132391381D01*
X85677904Y-132343762D02*
X85582666Y-132391381D01*
X85392189Y-132391381D01*
X85296951Y-132343762D01*
X85249332Y-132248524D01*
X85249332Y-131867571D01*
X85296951Y-131772333D01*
X85392189Y-131724714D01*
X85582666Y-131724714D01*
X85677904Y-131772333D01*
X85725523Y-131867571D01*
X85725523Y-131962810D01*
X85249332Y-132058048D01*
X86011237Y-131724714D02*
X86392189Y-131724714D01*
X86154094Y-131391381D02*
X86154094Y-132248524D01*
X86201713Y-132343762D01*
X86296951Y-132391381D01*
X86392189Y-132391381D01*
X87106476Y-132343762D02*
X87011238Y-132391381D01*
X86820761Y-132391381D01*
X86725523Y-132343762D01*
X86677904Y-132248524D01*
X86677904Y-131867571D01*
X86725523Y-131772333D01*
X86820761Y-131724714D01*
X87011238Y-131724714D01*
X87106476Y-131772333D01*
X87154095Y-131867571D01*
X87154095Y-131962810D01*
X86677904Y-132058048D01*
X87582666Y-132391381D02*
X87582666Y-131724714D01*
X87582666Y-131915190D02*
X87630285Y-131819952D01*
X87677904Y-131772333D01*
X87773142Y-131724714D01*
X87868381Y-131724714D01*
X89106476Y-132391381D02*
X89011238Y-132343762D01*
X88963619Y-132296143D01*
X88916000Y-132200905D01*
X88916000Y-131915190D01*
X88963619Y-131819952D01*
X89011238Y-131772333D01*
X89106476Y-131724714D01*
X89249334Y-131724714D01*
X89344572Y-131772333D01*
X89392191Y-131819952D01*
X89439810Y-131915190D01*
X89439810Y-132200905D01*
X89392191Y-132296143D01*
X89344572Y-132343762D01*
X89249334Y-132391381D01*
X89106476Y-132391381D01*
X89868381Y-132391381D02*
X89868381Y-131724714D01*
X89868381Y-131915190D02*
X89916000Y-131819952D01*
X89963619Y-131772333D01*
X90058857Y-131724714D01*
X90154096Y-131724714D01*
X91249334Y-131724714D02*
X91249334Y-132581857D01*
X91201715Y-132677095D01*
X91106477Y-132724714D01*
X91058858Y-132724714D01*
X91249334Y-131391381D02*
X91201715Y-131439000D01*
X91249334Y-131486619D01*
X91296953Y-131439000D01*
X91249334Y-131391381D01*
X91249334Y-131486619D01*
X92154096Y-131724714D02*
X92154096Y-132391381D01*
X91725524Y-131724714D02*
X91725524Y-132248524D01*
X91773143Y-132343762D01*
X91868381Y-132391381D01*
X92011239Y-132391381D01*
X92106477Y-132343762D01*
X92154096Y-132296143D01*
X92630286Y-132391381D02*
X92630286Y-131724714D01*
X92630286Y-131819952D02*
X92677905Y-131772333D01*
X92773143Y-131724714D01*
X92916001Y-131724714D01*
X93011239Y-131772333D01*
X93058858Y-131867571D01*
X93058858Y-132391381D01*
X93058858Y-131867571D02*
X93106477Y-131772333D01*
X93201715Y-131724714D01*
X93344572Y-131724714D01*
X93439810Y-131772333D01*
X93487429Y-131867571D01*
X93487429Y-132391381D01*
X93963619Y-131724714D02*
X93963619Y-132724714D01*
X93963619Y-131772333D02*
X94058857Y-131724714D01*
X94249334Y-131724714D01*
X94344572Y-131772333D01*
X94392191Y-131819952D01*
X94439810Y-131915190D01*
X94439810Y-132200905D01*
X94392191Y-132296143D01*
X94344572Y-132343762D01*
X94249334Y-132391381D01*
X94058857Y-132391381D01*
X93963619Y-132343762D01*
X95249334Y-132343762D02*
X95154096Y-132391381D01*
X94963619Y-132391381D01*
X94868381Y-132343762D01*
X94820762Y-132248524D01*
X94820762Y-131867571D01*
X94868381Y-131772333D01*
X94963619Y-131724714D01*
X95154096Y-131724714D01*
X95249334Y-131772333D01*
X95296953Y-131867571D01*
X95296953Y-131962810D01*
X94820762Y-132058048D01*
X95725524Y-132391381D02*
X95725524Y-131724714D01*
X95725524Y-131915190D02*
X95773143Y-131819952D01*
X95820762Y-131772333D01*
X95916000Y-131724714D01*
X96011239Y-131724714D01*
D12*
X92453144Y-148617714D02*
X92381715Y-148689143D01*
X92167429Y-148760571D01*
X92024572Y-148760571D01*
X91810287Y-148689143D01*
X91667429Y-148546286D01*
X91596001Y-148403429D01*
X91524572Y-148117714D01*
X91524572Y-147903429D01*
X91596001Y-147617714D01*
X91667429Y-147474857D01*
X91810287Y-147332000D01*
X92024572Y-147260571D01*
X92167429Y-147260571D01*
X92381715Y-147332000D01*
X92453144Y-147403429D01*
X93024572Y-148332000D02*
X93738858Y-148332000D01*
X92881715Y-148760571D02*
X93381715Y-147260571D01*
X93881715Y-148760571D01*
X94381715Y-147260571D02*
X94381715Y-148474857D01*
X94453143Y-148617714D01*
X94524572Y-148689143D01*
X94667429Y-148760571D01*
X94953143Y-148760571D01*
X95096001Y-148689143D01*
X95167429Y-148617714D01*
X95238858Y-148474857D01*
X95238858Y-147260571D01*
X95738858Y-147260571D02*
X96596001Y-147260571D01*
X96167430Y-148760571D02*
X96167430Y-147260571D01*
X97096001Y-148760571D02*
X97096001Y-147260571D01*
X98096001Y-147260571D02*
X98381715Y-147260571D01*
X98524573Y-147332000D01*
X98667430Y-147474857D01*
X98738858Y-147760571D01*
X98738858Y-148260571D01*
X98667430Y-148546286D01*
X98524573Y-148689143D01*
X98381715Y-148760571D01*
X98096001Y-148760571D01*
X97953144Y-148689143D01*
X97810287Y-148546286D01*
X97738858Y-148260571D01*
X97738858Y-147760571D01*
X97810287Y-147474857D01*
X97953144Y-147332000D01*
X98096001Y-147260571D01*
X99381716Y-148760571D02*
X99381716Y-147260571D01*
X100238859Y-148760571D01*
X100238859Y-147260571D01*
X104024573Y-148760571D02*
X103167430Y-148760571D01*
X103596002Y-148760571D02*
X103596002Y-147260571D01*
X103453145Y-147474857D01*
X103310287Y-147617714D01*
X103167430Y-147689143D01*
X104596001Y-147403429D02*
X104667430Y-147332000D01*
X104810287Y-147260571D01*
X105167430Y-147260571D01*
X105310287Y-147332000D01*
X105381716Y-147403429D01*
X105453144Y-147546286D01*
X105453144Y-147689143D01*
X105381716Y-147903429D01*
X104524573Y-148760571D01*
X105453144Y-148760571D01*
X106381715Y-147260571D02*
X106524572Y-147260571D01*
X106667429Y-147332000D01*
X106738858Y-147403429D01*
X106810287Y-147546286D01*
X106881715Y-147832000D01*
X106881715Y-148189143D01*
X106810287Y-148474857D01*
X106738858Y-148617714D01*
X106667429Y-148689143D01*
X106524572Y-148760571D01*
X106381715Y-148760571D01*
X106238858Y-148689143D01*
X106167429Y-148617714D01*
X106096001Y-148474857D01*
X106024572Y-148189143D01*
X106024572Y-147832000D01*
X106096001Y-147546286D01*
X106167429Y-147403429D01*
X106238858Y-147332000D01*
X106381715Y-147260571D01*
X107310286Y-147260571D02*
X107810286Y-148760571D01*
X108310286Y-147260571D01*
X108810286Y-148760571D02*
X108810286Y-147260571D01*
X109167429Y-147260571D01*
X109381714Y-147332000D01*
X109524572Y-147474857D01*
X109596000Y-147617714D01*
X109667429Y-147903429D01*
X109667429Y-148117714D01*
X109596000Y-148403429D01*
X109524572Y-148546286D01*
X109381714Y-148689143D01*
X109167429Y-148760571D01*
X108810286Y-148760571D01*
X111167429Y-148617714D02*
X111096000Y-148689143D01*
X110881714Y-148760571D01*
X110738857Y-148760571D01*
X110524572Y-148689143D01*
X110381714Y-148546286D01*
X110310286Y-148403429D01*
X110238857Y-148117714D01*
X110238857Y-147903429D01*
X110310286Y-147617714D01*
X110381714Y-147474857D01*
X110524572Y-147332000D01*
X110738857Y-147260571D01*
X110881714Y-147260571D01*
X111096000Y-147332000D01*
X111167429Y-147403429D01*
D11*
X126684380Y-84276981D02*
X127255809Y-84276981D01*
X126970094Y-85276981D02*
X126970094Y-84276981D01*
X127589142Y-85276981D02*
X127589142Y-84276981D01*
X128017714Y-85276981D02*
X128017714Y-84753171D01*
X127970095Y-84657933D01*
X127874857Y-84610314D01*
X127731999Y-84610314D01*
X127636761Y-84657933D01*
X127589142Y-84705552D01*
X128874857Y-85229362D02*
X128779619Y-85276981D01*
X128589142Y-85276981D01*
X128493904Y-85229362D01*
X128446285Y-85134124D01*
X128446285Y-84753171D01*
X128493904Y-84657933D01*
X128589142Y-84610314D01*
X128779619Y-84610314D01*
X128874857Y-84657933D01*
X128922476Y-84753171D01*
X128922476Y-84848410D01*
X128446285Y-84943648D01*
X130065333Y-84991267D02*
X130541524Y-84991267D01*
X129970095Y-85276981D02*
X130303428Y-84276981D01*
X130636762Y-85276981D01*
X131351048Y-85229362D02*
X131255810Y-85276981D01*
X131065333Y-85276981D01*
X130970095Y-85229362D01*
X130922476Y-85134124D01*
X130922476Y-84753171D01*
X130970095Y-84657933D01*
X131065333Y-84610314D01*
X131255810Y-84610314D01*
X131351048Y-84657933D01*
X131398667Y-84753171D01*
X131398667Y-84848410D01*
X130922476Y-84943648D01*
X131684381Y-84610314D02*
X132065333Y-84610314D01*
X131827238Y-84276981D02*
X131827238Y-85134124D01*
X131874857Y-85229362D01*
X131970095Y-85276981D01*
X132065333Y-85276981D01*
X132398667Y-85276981D02*
X132398667Y-84276981D01*
X132827239Y-85276981D02*
X132827239Y-84753171D01*
X132779620Y-84657933D01*
X132684382Y-84610314D01*
X132541524Y-84610314D01*
X132446286Y-84657933D01*
X132398667Y-84705552D01*
X133684382Y-85229362D02*
X133589144Y-85276981D01*
X133398667Y-85276981D01*
X133303429Y-85229362D01*
X133255810Y-85134124D01*
X133255810Y-84753171D01*
X133303429Y-84657933D01*
X133398667Y-84610314D01*
X133589144Y-84610314D01*
X133684382Y-84657933D01*
X133732001Y-84753171D01*
X133732001Y-84848410D01*
X133255810Y-84943648D01*
X134160572Y-85276981D02*
X134160572Y-84610314D01*
X134160572Y-84800790D02*
X134208191Y-84705552D01*
X134255810Y-84657933D01*
X134351048Y-84610314D01*
X134446287Y-84610314D01*
X134779620Y-85276981D02*
X134779620Y-84610314D01*
X134779620Y-84276981D02*
X134732001Y-84324600D01*
X134779620Y-84372219D01*
X134827239Y-84324600D01*
X134779620Y-84276981D01*
X134779620Y-84372219D01*
X135684382Y-85229362D02*
X135589144Y-85276981D01*
X135398667Y-85276981D01*
X135303429Y-85229362D01*
X135255810Y-85181743D01*
X135208191Y-85086505D01*
X135208191Y-84800790D01*
X135255810Y-84705552D01*
X135303429Y-84657933D01*
X135398667Y-84610314D01*
X135589144Y-84610314D01*
X135684382Y-84657933D01*
X136874858Y-85276981D02*
X136874858Y-84276981D01*
X137208192Y-84991267D01*
X137541525Y-84276981D01*
X137541525Y-85276981D01*
X138398668Y-85229362D02*
X138303430Y-85276981D01*
X138112953Y-85276981D01*
X138017715Y-85229362D01*
X137970096Y-85134124D01*
X137970096Y-84753171D01*
X138017715Y-84657933D01*
X138112953Y-84610314D01*
X138303430Y-84610314D01*
X138398668Y-84657933D01*
X138446287Y-84753171D01*
X138446287Y-84848410D01*
X137970096Y-84943648D01*
X138827239Y-85229362D02*
X138922477Y-85276981D01*
X139112953Y-85276981D01*
X139208192Y-85229362D01*
X139255811Y-85134124D01*
X139255811Y-85086505D01*
X139208192Y-84991267D01*
X139112953Y-84943648D01*
X138970096Y-84943648D01*
X138874858Y-84896029D01*
X138827239Y-84800790D01*
X138827239Y-84753171D01*
X138874858Y-84657933D01*
X138970096Y-84610314D01*
X139112953Y-84610314D01*
X139208192Y-84657933D01*
X139636763Y-85229362D02*
X139732001Y-85276981D01*
X139922477Y-85276981D01*
X140017716Y-85229362D01*
X140065335Y-85134124D01*
X140065335Y-85086505D01*
X140017716Y-84991267D01*
X139922477Y-84943648D01*
X139779620Y-84943648D01*
X139684382Y-84896029D01*
X139636763Y-84800790D01*
X139636763Y-84753171D01*
X139684382Y-84657933D01*
X139779620Y-84610314D01*
X139922477Y-84610314D01*
X140017716Y-84657933D01*
X140922478Y-85276981D02*
X140922478Y-84753171D01*
X140874859Y-84657933D01*
X140779621Y-84610314D01*
X140589144Y-84610314D01*
X140493906Y-84657933D01*
X140922478Y-85229362D02*
X140827240Y-85276981D01*
X140589144Y-85276981D01*
X140493906Y-85229362D01*
X140446287Y-85134124D01*
X140446287Y-85038886D01*
X140493906Y-84943648D01*
X140589144Y-84896029D01*
X140827240Y-84896029D01*
X140922478Y-84848410D01*
X141827240Y-84610314D02*
X141827240Y-85419838D01*
X141779621Y-85515076D01*
X141732002Y-85562695D01*
X141636763Y-85610314D01*
X141493906Y-85610314D01*
X141398668Y-85562695D01*
X141827240Y-85229362D02*
X141732002Y-85276981D01*
X141541525Y-85276981D01*
X141446287Y-85229362D01*
X141398668Y-85181743D01*
X141351049Y-85086505D01*
X141351049Y-84800790D01*
X141398668Y-84705552D01*
X141446287Y-84657933D01*
X141541525Y-84610314D01*
X141732002Y-84610314D01*
X141827240Y-84657933D01*
X142684383Y-85229362D02*
X142589145Y-85276981D01*
X142398668Y-85276981D01*
X142303430Y-85229362D01*
X142255811Y-85134124D01*
X142255811Y-84753171D01*
X142303430Y-84657933D01*
X142398668Y-84610314D01*
X142589145Y-84610314D01*
X142684383Y-84657933D01*
X142732002Y-84753171D01*
X142732002Y-84848410D01*
X142255811Y-84943648D01*
X143922478Y-85276981D02*
X143922478Y-84276981D01*
X144255812Y-84991267D01*
X144589145Y-84276981D01*
X144589145Y-85276981D01*
X145493907Y-85276981D02*
X145493907Y-84753171D01*
X145446288Y-84657933D01*
X145351050Y-84610314D01*
X145160573Y-84610314D01*
X145065335Y-84657933D01*
X145493907Y-85229362D02*
X145398669Y-85276981D01*
X145160573Y-85276981D01*
X145065335Y-85229362D01*
X145017716Y-85134124D01*
X145017716Y-85038886D01*
X145065335Y-84943648D01*
X145160573Y-84896029D01*
X145398669Y-84896029D01*
X145493907Y-84848410D01*
X146398669Y-85229362D02*
X146303431Y-85276981D01*
X146112954Y-85276981D01*
X146017716Y-85229362D01*
X145970097Y-85181743D01*
X145922478Y-85086505D01*
X145922478Y-84800790D01*
X145970097Y-84705552D01*
X146017716Y-84657933D01*
X146112954Y-84610314D01*
X146303431Y-84610314D01*
X146398669Y-84657933D01*
X146827240Y-85276981D02*
X146827240Y-84276981D01*
X147255812Y-85276981D02*
X147255812Y-84753171D01*
X147208193Y-84657933D01*
X147112955Y-84610314D01*
X146970097Y-84610314D01*
X146874859Y-84657933D01*
X146827240Y-84705552D01*
X147732002Y-85276981D02*
X147732002Y-84610314D01*
X147732002Y-84276981D02*
X147684383Y-84324600D01*
X147732002Y-84372219D01*
X147779621Y-84324600D01*
X147732002Y-84276981D01*
X147732002Y-84372219D01*
X148208192Y-84610314D02*
X148208192Y-85276981D01*
X148208192Y-84705552D02*
X148255811Y-84657933D01*
X148351049Y-84610314D01*
X148493907Y-84610314D01*
X148589145Y-84657933D01*
X148636764Y-84753171D01*
X148636764Y-85276981D01*
X149493907Y-85229362D02*
X149398669Y-85276981D01*
X149208192Y-85276981D01*
X149112954Y-85229362D01*
X149065335Y-85134124D01*
X149065335Y-84753171D01*
X149112954Y-84657933D01*
X149208192Y-84610314D01*
X149398669Y-84610314D01*
X149493907Y-84657933D01*
X149541526Y-84753171D01*
X149541526Y-84848410D01*
X149065335Y-84943648D01*
X151303431Y-85181743D02*
X151255812Y-85229362D01*
X151112955Y-85276981D01*
X151017717Y-85276981D01*
X150874859Y-85229362D01*
X150779621Y-85134124D01*
X150732002Y-85038886D01*
X150684383Y-84848410D01*
X150684383Y-84705552D01*
X150732002Y-84515076D01*
X150779621Y-84419838D01*
X150874859Y-84324600D01*
X151017717Y-84276981D01*
X151112955Y-84276981D01*
X151255812Y-84324600D01*
X151303431Y-84372219D01*
X151874859Y-85276981D02*
X151779621Y-85229362D01*
X151732002Y-85181743D01*
X151684383Y-85086505D01*
X151684383Y-84800790D01*
X151732002Y-84705552D01*
X151779621Y-84657933D01*
X151874859Y-84610314D01*
X152017717Y-84610314D01*
X152112955Y-84657933D01*
X152160574Y-84705552D01*
X152208193Y-84800790D01*
X152208193Y-85086505D01*
X152160574Y-85181743D01*
X152112955Y-85229362D01*
X152017717Y-85276981D01*
X151874859Y-85276981D01*
X152636764Y-85181743D02*
X152684383Y-85229362D01*
X152636764Y-85276981D01*
X152589145Y-85229362D01*
X152636764Y-85181743D01*
X152636764Y-85276981D01*
X153160573Y-85229362D02*
X153160573Y-85276981D01*
X153112954Y-85372219D01*
X153065335Y-85419838D01*
X154827240Y-85276981D02*
X154351049Y-85276981D01*
X154351049Y-84276981D01*
X155017716Y-84610314D02*
X155398668Y-84610314D01*
X155160573Y-84276981D02*
X155160573Y-85134124D01*
X155208192Y-85229362D01*
X155303430Y-85276981D01*
X155398668Y-85276981D01*
X156160574Y-85276981D02*
X156160574Y-84276981D01*
X156160574Y-85229362D02*
X156065336Y-85276981D01*
X155874859Y-85276981D01*
X155779621Y-85229362D01*
X155732002Y-85181743D01*
X155684383Y-85086505D01*
X155684383Y-84800790D01*
X155732002Y-84705552D01*
X155779621Y-84657933D01*
X155874859Y-84610314D01*
X156065336Y-84610314D01*
X156160574Y-84657933D01*
X156636764Y-85181743D02*
X156684383Y-85229362D01*
X156636764Y-85276981D01*
X156589145Y-85229362D01*
X156636764Y-85181743D01*
X156636764Y-85276981D01*
X123565330Y-86026981D02*
X123565330Y-86836505D01*
X123612949Y-86931743D01*
X123660568Y-86979362D01*
X123755806Y-87026981D01*
X123946283Y-87026981D01*
X124041521Y-86979362D01*
X124089140Y-86931743D01*
X124136759Y-86836505D01*
X124136759Y-86026981D01*
X124565330Y-86979362D02*
X124708187Y-87026981D01*
X124946283Y-87026981D01*
X125041521Y-86979362D01*
X125089140Y-86931743D01*
X125136759Y-86836505D01*
X125136759Y-86741267D01*
X125089140Y-86646029D01*
X125041521Y-86598410D01*
X124946283Y-86550790D01*
X124755806Y-86503171D01*
X124660568Y-86455552D01*
X124612949Y-86407933D01*
X124565330Y-86312695D01*
X124565330Y-86217457D01*
X124612949Y-86122219D01*
X124660568Y-86074600D01*
X124755806Y-86026981D01*
X124993902Y-86026981D01*
X125136759Y-86074600D01*
X125898664Y-86503171D02*
X126041521Y-86550790D01*
X126089140Y-86598410D01*
X126136759Y-86693648D01*
X126136759Y-86836505D01*
X126089140Y-86931743D01*
X126041521Y-86979362D01*
X125946283Y-87026981D01*
X125565330Y-87026981D01*
X125565330Y-86026981D01*
X125898664Y-86026981D01*
X125993902Y-86074600D01*
X126041521Y-86122219D01*
X126089140Y-86217457D01*
X126089140Y-86312695D01*
X126041521Y-86407933D01*
X125993902Y-86455552D01*
X125898664Y-86503171D01*
X125565330Y-86503171D01*
X127184378Y-86360314D02*
X127565330Y-86360314D01*
X127327235Y-86026981D02*
X127327235Y-86884124D01*
X127374854Y-86979362D01*
X127470092Y-87026981D01*
X127565330Y-87026981D01*
X128041521Y-87026981D02*
X127946283Y-86979362D01*
X127898664Y-86931743D01*
X127851045Y-86836505D01*
X127851045Y-86550790D01*
X127898664Y-86455552D01*
X127946283Y-86407933D01*
X128041521Y-86360314D01*
X128184379Y-86360314D01*
X128279617Y-86407933D01*
X128327236Y-86455552D01*
X128374855Y-86550790D01*
X128374855Y-86836505D01*
X128327236Y-86931743D01*
X128279617Y-86979362D01*
X128184379Y-87026981D01*
X128041521Y-87026981D01*
X129993903Y-86026981D02*
X129803426Y-86026981D01*
X129708188Y-86074600D01*
X129660569Y-86122219D01*
X129565331Y-86265076D01*
X129517712Y-86455552D01*
X129517712Y-86836505D01*
X129565331Y-86931743D01*
X129612950Y-86979362D01*
X129708188Y-87026981D01*
X129898665Y-87026981D01*
X129993903Y-86979362D01*
X130041522Y-86931743D01*
X130089141Y-86836505D01*
X130089141Y-86598410D01*
X130041522Y-86503171D01*
X129993903Y-86455552D01*
X129898665Y-86407933D01*
X129708188Y-86407933D01*
X129612950Y-86455552D01*
X129565331Y-86503171D01*
X129517712Y-86598410D01*
X130708188Y-86026981D02*
X130803427Y-86026981D01*
X130898665Y-86074600D01*
X130946284Y-86122219D01*
X130993903Y-86217457D01*
X131041522Y-86407933D01*
X131041522Y-86646029D01*
X130993903Y-86836505D01*
X130946284Y-86931743D01*
X130898665Y-86979362D01*
X130803427Y-87026981D01*
X130708188Y-87026981D01*
X130612950Y-86979362D01*
X130565331Y-86931743D01*
X130517712Y-86836505D01*
X130470093Y-86646029D01*
X130470093Y-86407933D01*
X130517712Y-86217457D01*
X130565331Y-86122219D01*
X130612950Y-86074600D01*
X130708188Y-86026981D01*
X131470093Y-87026981D02*
X131470093Y-86360314D01*
X131470093Y-86455552D02*
X131517712Y-86407933D01*
X131612950Y-86360314D01*
X131755808Y-86360314D01*
X131851046Y-86407933D01*
X131898665Y-86503171D01*
X131898665Y-87026981D01*
X131898665Y-86503171D02*
X131946284Y-86407933D01*
X132041522Y-86360314D01*
X132184379Y-86360314D01*
X132279617Y-86407933D01*
X132327236Y-86503171D01*
X132327236Y-87026981D01*
X132755807Y-86741267D02*
X133231998Y-86741267D01*
X132660569Y-87026981D02*
X132993902Y-86026981D01*
X133327236Y-87026981D01*
X134851046Y-86979362D02*
X134755808Y-87026981D01*
X134565331Y-87026981D01*
X134470093Y-86979362D01*
X134422474Y-86931743D01*
X134374855Y-86836505D01*
X134374855Y-86550790D01*
X134422474Y-86455552D01*
X134470093Y-86407933D01*
X134565331Y-86360314D01*
X134755808Y-86360314D01*
X134851046Y-86407933D01*
X135708189Y-86360314D02*
X135708189Y-87026981D01*
X135279617Y-86360314D02*
X135279617Y-86884124D01*
X135327236Y-86979362D01*
X135422474Y-87026981D01*
X135565332Y-87026981D01*
X135660570Y-86979362D01*
X135708189Y-86931743D01*
X136184379Y-87026981D02*
X136184379Y-86360314D01*
X136184379Y-86550790D02*
X136231998Y-86455552D01*
X136279617Y-86407933D01*
X136374855Y-86360314D01*
X136470094Y-86360314D01*
X136803427Y-87026981D02*
X136803427Y-86360314D01*
X136803427Y-86550790D02*
X136851046Y-86455552D01*
X136898665Y-86407933D01*
X136993903Y-86360314D01*
X137089142Y-86360314D01*
X137803428Y-86979362D02*
X137708190Y-87026981D01*
X137517713Y-87026981D01*
X137422475Y-86979362D01*
X137374856Y-86884124D01*
X137374856Y-86503171D01*
X137422475Y-86407933D01*
X137517713Y-86360314D01*
X137708190Y-86360314D01*
X137803428Y-86407933D01*
X137851047Y-86503171D01*
X137851047Y-86598410D01*
X137374856Y-86693648D01*
X138279618Y-86360314D02*
X138279618Y-87026981D01*
X138279618Y-86455552D02*
X138327237Y-86407933D01*
X138422475Y-86360314D01*
X138565333Y-86360314D01*
X138660571Y-86407933D01*
X138708190Y-86503171D01*
X138708190Y-87026981D01*
X139041523Y-86360314D02*
X139422475Y-86360314D01*
X139184380Y-86026981D02*
X139184380Y-86884124D01*
X139231999Y-86979362D01*
X139327237Y-87026981D01*
X139422475Y-87026981D01*
X140660571Y-87026981D02*
X140565333Y-86979362D01*
X140517714Y-86884124D01*
X140517714Y-86026981D01*
X141184381Y-87026981D02*
X141089143Y-86979362D01*
X141041524Y-86931743D01*
X140993905Y-86836505D01*
X140993905Y-86550790D01*
X141041524Y-86455552D01*
X141089143Y-86407933D01*
X141184381Y-86360314D01*
X141327239Y-86360314D01*
X141422477Y-86407933D01*
X141470096Y-86455552D01*
X141517715Y-86550790D01*
X141517715Y-86836505D01*
X141470096Y-86931743D01*
X141422477Y-86979362D01*
X141327239Y-87026981D01*
X141184381Y-87026981D01*
X142089143Y-87026981D02*
X141993905Y-86979362D01*
X141946286Y-86931743D01*
X141898667Y-86836505D01*
X141898667Y-86550790D01*
X141946286Y-86455552D01*
X141993905Y-86407933D01*
X142089143Y-86360314D01*
X142232001Y-86360314D01*
X142327239Y-86407933D01*
X142374858Y-86455552D01*
X142422477Y-86550790D01*
X142422477Y-86836505D01*
X142374858Y-86931743D01*
X142327239Y-86979362D01*
X142232001Y-87026981D01*
X142089143Y-87026981D01*
X142851048Y-86360314D02*
X142851048Y-87360314D01*
X142851048Y-86407933D02*
X142946286Y-86360314D01*
X143136763Y-86360314D01*
X143232001Y-86407933D01*
X143279620Y-86455552D01*
X143327239Y-86550790D01*
X143327239Y-86836505D01*
X143279620Y-86931743D01*
X143232001Y-86979362D01*
X143136763Y-87026981D01*
X142946286Y-87026981D01*
X142851048Y-86979362D01*
X144374858Y-86026981D02*
X144946287Y-86026981D01*
X144660572Y-87026981D02*
X144660572Y-86026981D01*
X145660573Y-86979362D02*
X145565335Y-87026981D01*
X145374858Y-87026981D01*
X145279620Y-86979362D01*
X145232001Y-86884124D01*
X145232001Y-86503171D01*
X145279620Y-86407933D01*
X145374858Y-86360314D01*
X145565335Y-86360314D01*
X145660573Y-86407933D01*
X145708192Y-86503171D01*
X145708192Y-86598410D01*
X145232001Y-86693648D01*
X146279620Y-87026981D02*
X146184382Y-86979362D01*
X146136763Y-86884124D01*
X146136763Y-86026981D01*
X147041526Y-86979362D02*
X146946288Y-87026981D01*
X146755811Y-87026981D01*
X146660573Y-86979362D01*
X146612954Y-86884124D01*
X146612954Y-86503171D01*
X146660573Y-86407933D01*
X146755811Y-86360314D01*
X146946288Y-86360314D01*
X147041526Y-86407933D01*
X147089145Y-86503171D01*
X147089145Y-86598410D01*
X146612954Y-86693648D01*
X147374859Y-86360314D02*
X147755811Y-86360314D01*
X147517716Y-86026981D02*
X147517716Y-86884124D01*
X147565335Y-86979362D01*
X147660573Y-87026981D01*
X147755811Y-87026981D01*
X147993907Y-86360314D02*
X148232002Y-87026981D01*
X148470098Y-86360314D02*
X148232002Y-87026981D01*
X148136764Y-87265076D01*
X148089145Y-87312695D01*
X147993907Y-87360314D01*
X148851050Y-86360314D02*
X148851050Y-87360314D01*
X148851050Y-86407933D02*
X148946288Y-86360314D01*
X149136765Y-86360314D01*
X149232003Y-86407933D01*
X149279622Y-86455552D01*
X149327241Y-86550790D01*
X149327241Y-86836505D01*
X149279622Y-86931743D01*
X149232003Y-86979362D01*
X149136765Y-87026981D01*
X148946288Y-87026981D01*
X148851050Y-86979362D01*
X150136765Y-86979362D02*
X150041527Y-87026981D01*
X149851050Y-87026981D01*
X149755812Y-86979362D01*
X149708193Y-86884124D01*
X149708193Y-86503171D01*
X149755812Y-86407933D01*
X149851050Y-86360314D01*
X150041527Y-86360314D01*
X150136765Y-86407933D01*
X150184384Y-86503171D01*
X150184384Y-86598410D01*
X149708193Y-86693648D01*
X151803432Y-87026981D02*
X151803432Y-86026981D01*
X151803432Y-86979362D02*
X151708194Y-87026981D01*
X151517717Y-87026981D01*
X151422479Y-86979362D01*
X151374860Y-86931743D01*
X151327241Y-86836505D01*
X151327241Y-86550790D01*
X151374860Y-86455552D01*
X151422479Y-86407933D01*
X151517717Y-86360314D01*
X151708194Y-86360314D01*
X151803432Y-86407933D01*
X152279622Y-87026981D02*
X152279622Y-86360314D01*
X152279622Y-86550790D02*
X152327241Y-86455552D01*
X152374860Y-86407933D01*
X152470098Y-86360314D01*
X152565337Y-86360314D01*
X152898670Y-87026981D02*
X152898670Y-86360314D01*
X152898670Y-86026981D02*
X152851051Y-86074600D01*
X152898670Y-86122219D01*
X152946289Y-86074600D01*
X152898670Y-86026981D01*
X152898670Y-86122219D01*
X153279622Y-86360314D02*
X153517717Y-87026981D01*
X153755813Y-86360314D01*
X154517718Y-86979362D02*
X154422480Y-87026981D01*
X154232003Y-87026981D01*
X154136765Y-86979362D01*
X154089146Y-86884124D01*
X154089146Y-86503171D01*
X154136765Y-86407933D01*
X154232003Y-86360314D01*
X154422480Y-86360314D01*
X154517718Y-86407933D01*
X154565337Y-86503171D01*
X154565337Y-86598410D01*
X154089146Y-86693648D01*
X154993908Y-87026981D02*
X154993908Y-86360314D01*
X154993908Y-86550790D02*
X155041527Y-86455552D01*
X155089146Y-86407933D01*
X155184384Y-86360314D01*
X155279623Y-86360314D01*
X156993909Y-86026981D02*
X157327242Y-87026981D01*
X157660576Y-86026981D01*
X157898671Y-86026981D02*
X158517719Y-86026981D01*
X158184385Y-86407933D01*
X158327243Y-86407933D01*
X158422481Y-86455552D01*
X158470100Y-86503171D01*
X158517719Y-86598410D01*
X158517719Y-86836505D01*
X158470100Y-86931743D01*
X158422481Y-86979362D01*
X158327243Y-87026981D01*
X158041528Y-87026981D01*
X157946290Y-86979362D01*
X157898671Y-86931743D01*
X158946290Y-86931743D02*
X158993909Y-86979362D01*
X158946290Y-87026981D01*
X158898671Y-86979362D01*
X158946290Y-86931743D01*
X158946290Y-87026981D01*
X159946290Y-87026981D02*
X159374861Y-87026981D01*
X159660575Y-87026981D02*
X159660575Y-86026981D01*
X159565337Y-86169838D01*
X159470099Y-86265076D01*
X159374861Y-86312695D01*
D13*
X97600000Y-122350000D02*
X97600000Y-125650000D01*
X97600000Y-125650000D02*
X103000000Y-125650000D01*
X97600000Y-122350000D02*
X103000000Y-122350000D01*
X86366000Y-108594000D02*
X86366000Y-112894000D01*
X86366000Y-112894000D02*
X92066000Y-112894000D01*
X86366000Y-108594000D02*
X92066000Y-108594000D01*
X77476000Y-108594000D02*
X77476000Y-112894000D01*
X77476000Y-112894000D02*
X83176000Y-112894000D01*
X77476000Y-108594000D02*
X83176000Y-108594000D01*
X142014000Y-100824000D02*
X142014000Y-92724000D01*
X141974000Y-100824000D02*
X141974000Y-92724000D01*
X141934000Y-100824000D02*
X141934000Y-92724000D01*
X141894000Y-100823000D02*
X141894000Y-92725000D01*
X141854000Y-100821000D02*
X141854000Y-92727000D01*
X141814000Y-100820000D02*
X141814000Y-92728000D01*
X141774000Y-100817000D02*
X141774000Y-92731000D01*
X141734000Y-100815000D02*
X141734000Y-92733000D01*
X141694000Y-100812000D02*
X141694000Y-92736000D01*
X141654000Y-100809000D02*
X141654000Y-92739000D01*
X141614000Y-100805000D02*
X141614000Y-92743000D01*
X141574000Y-100801000D02*
X141574000Y-92747000D01*
X141534000Y-100796000D02*
X141534000Y-92752000D01*
X141494000Y-100791000D02*
X141494000Y-92757000D01*
X141454000Y-100786000D02*
X141454000Y-92762000D01*
X141414000Y-100780000D02*
X141414000Y-92768000D01*
X141374000Y-100774000D02*
X141374000Y-92774000D01*
X141334000Y-100768000D02*
X141334000Y-92780000D01*
X141293000Y-100761000D02*
X141293000Y-92787000D01*
X141253000Y-100753000D02*
X141253000Y-92795000D01*
X141213000Y-100745000D02*
X141213000Y-97754000D01*
X141213000Y-95794000D02*
X141213000Y-92803000D01*
X141173000Y-100737000D02*
X141173000Y-97754000D01*
X141173000Y-95794000D02*
X141173000Y-92811000D01*
X141133000Y-100729000D02*
X141133000Y-97754000D01*
X141133000Y-95794000D02*
X141133000Y-92819000D01*
X141093000Y-100720000D02*
X141093000Y-97754000D01*
X141093000Y-95794000D02*
X141093000Y-92828000D01*
X141053000Y-100710000D02*
X141053000Y-97754000D01*
X141053000Y-95794000D02*
X141053000Y-92838000D01*
X141013000Y-100700000D02*
X141013000Y-97754000D01*
X141013000Y-95794000D02*
X141013000Y-92848000D01*
X140973000Y-100690000D02*
X140973000Y-97754000D01*
X140973000Y-95794000D02*
X140973000Y-92858000D01*
X140933000Y-100679000D02*
X140933000Y-97754000D01*
X140933000Y-95794000D02*
X140933000Y-92869000D01*
X140893000Y-100668000D02*
X140893000Y-97754000D01*
X140893000Y-95794000D02*
X140893000Y-92880000D01*
X140853000Y-100657000D02*
X140853000Y-97754000D01*
X140853000Y-95794000D02*
X140853000Y-92891000D01*
X140813000Y-100644000D02*
X140813000Y-97754000D01*
X140813000Y-95794000D02*
X140813000Y-92904000D01*
X140773000Y-100632000D02*
X140773000Y-97754000D01*
X140773000Y-95794000D02*
X140773000Y-92916000D01*
X140733000Y-100619000D02*
X140733000Y-97754000D01*
X140733000Y-95794000D02*
X140733000Y-92929000D01*
X140693000Y-100606000D02*
X140693000Y-97754000D01*
X140693000Y-95794000D02*
X140693000Y-92942000D01*
X140653000Y-100592000D02*
X140653000Y-97754000D01*
X140653000Y-95794000D02*
X140653000Y-92956000D01*
X140613000Y-100577000D02*
X140613000Y-97754000D01*
X140613000Y-95794000D02*
X140613000Y-92971000D01*
X140573000Y-100563000D02*
X140573000Y-97754000D01*
X140573000Y-95794000D02*
X140573000Y-92985000D01*
X140533000Y-100547000D02*
X140533000Y-97754000D01*
X140533000Y-95794000D02*
X140533000Y-93001000D01*
X140493000Y-100532000D02*
X140493000Y-97754000D01*
X140493000Y-95794000D02*
X140493000Y-93016000D01*
X140453000Y-100515000D02*
X140453000Y-97754000D01*
X140453000Y-95794000D02*
X140453000Y-93033000D01*
X140413000Y-100499000D02*
X140413000Y-97754000D01*
X140413000Y-95794000D02*
X140413000Y-93049000D01*
X140373000Y-100481000D02*
X140373000Y-97754000D01*
X140373000Y-95794000D02*
X140373000Y-93067000D01*
X140333000Y-100464000D02*
X140333000Y-97754000D01*
X140333000Y-95794000D02*
X140333000Y-93084000D01*
X140293000Y-100445000D02*
X140293000Y-97754000D01*
X140293000Y-95794000D02*
X140293000Y-93103000D01*
X140253000Y-100426000D02*
X140253000Y-97754000D01*
X140253000Y-95794000D02*
X140253000Y-93122000D01*
X140213000Y-100407000D02*
X140213000Y-97754000D01*
X140213000Y-95794000D02*
X140213000Y-93141000D01*
X140173000Y-100387000D02*
X140173000Y-97754000D01*
X140173000Y-95794000D02*
X140173000Y-93161000D01*
X140133000Y-100367000D02*
X140133000Y-97754000D01*
X140133000Y-95794000D02*
X140133000Y-93181000D01*
X140093000Y-100346000D02*
X140093000Y-97754000D01*
X140093000Y-95794000D02*
X140093000Y-93202000D01*
X140053000Y-100324000D02*
X140053000Y-97754000D01*
X140053000Y-95794000D02*
X140053000Y-93224000D01*
X140013000Y-100302000D02*
X140013000Y-97754000D01*
X140013000Y-95794000D02*
X140013000Y-93246000D01*
X139973000Y-100279000D02*
X139973000Y-97754000D01*
X139973000Y-95794000D02*
X139973000Y-93269000D01*
X139933000Y-100256000D02*
X139933000Y-97754000D01*
X139933000Y-95794000D02*
X139933000Y-93292000D01*
X139893000Y-100232000D02*
X139893000Y-97754000D01*
X139893000Y-95794000D02*
X139893000Y-93316000D01*
X139853000Y-100208000D02*
X139853000Y-97754000D01*
X139853000Y-95794000D02*
X139853000Y-93340000D01*
X139813000Y-100182000D02*
X139813000Y-97754000D01*
X139813000Y-95794000D02*
X139813000Y-93366000D01*
X139773000Y-100157000D02*
X139773000Y-97754000D01*
X139773000Y-95794000D02*
X139773000Y-93391000D01*
X139733000Y-100130000D02*
X139733000Y-97754000D01*
X139733000Y-95794000D02*
X139733000Y-93418000D01*
X139693000Y-100103000D02*
X139693000Y-97754000D01*
X139693000Y-95794000D02*
X139693000Y-93445000D01*
X139653000Y-100075000D02*
X139653000Y-97754000D01*
X139653000Y-95794000D02*
X139653000Y-93473000D01*
X139613000Y-100046000D02*
X139613000Y-97754000D01*
X139613000Y-95794000D02*
X139613000Y-93502000D01*
X139573000Y-100017000D02*
X139573000Y-97754000D01*
X139573000Y-95794000D02*
X139573000Y-93531000D01*
X139533000Y-99987000D02*
X139533000Y-97754000D01*
X139533000Y-95794000D02*
X139533000Y-93561000D01*
X139493000Y-99956000D02*
X139493000Y-97754000D01*
X139493000Y-95794000D02*
X139493000Y-93592000D01*
X139453000Y-99924000D02*
X139453000Y-97754000D01*
X139453000Y-95794000D02*
X139453000Y-93624000D01*
X139413000Y-99892000D02*
X139413000Y-97754000D01*
X139413000Y-95794000D02*
X139413000Y-93656000D01*
X139373000Y-99858000D02*
X139373000Y-97754000D01*
X139373000Y-95794000D02*
X139373000Y-93690000D01*
X139333000Y-99824000D02*
X139333000Y-97754000D01*
X139333000Y-95794000D02*
X139333000Y-93724000D01*
X139293000Y-99789000D02*
X139293000Y-97754000D01*
X139293000Y-95794000D02*
X139293000Y-93759000D01*
X139253000Y-99753000D02*
X139253000Y-93795000D01*
X139213000Y-99716000D02*
X139213000Y-93832000D01*
X139173000Y-99678000D02*
X139173000Y-93870000D01*
X139133000Y-99639000D02*
X139133000Y-93909000D01*
X139093000Y-99598000D02*
X139093000Y-93950000D01*
X139053000Y-99557000D02*
X139053000Y-93991000D01*
X139013000Y-99514000D02*
X139013000Y-94034000D01*
X138973000Y-99471000D02*
X138973000Y-94077000D01*
X138933000Y-99426000D02*
X138933000Y-94122000D01*
X138893000Y-99379000D02*
X138893000Y-94169000D01*
X138853000Y-99331000D02*
X138853000Y-94217000D01*
X138813000Y-99282000D02*
X138813000Y-94266000D01*
X138773000Y-99231000D02*
X138773000Y-94317000D01*
X138733000Y-99178000D02*
X138733000Y-94370000D01*
X138693000Y-99123000D02*
X138693000Y-94425000D01*
X138653000Y-99067000D02*
X138653000Y-94481000D01*
X138613000Y-99008000D02*
X138613000Y-94540000D01*
X138573000Y-98947000D02*
X138573000Y-94601000D01*
X138533000Y-98883000D02*
X138533000Y-94665000D01*
X138493000Y-98817000D02*
X138493000Y-94731000D01*
X138453000Y-98748000D02*
X138453000Y-94800000D01*
X138413000Y-98676000D02*
X138413000Y-94872000D01*
X138373000Y-98600000D02*
X138373000Y-94948000D01*
X138333000Y-98519000D02*
X138333000Y-95029000D01*
X138293000Y-98434000D02*
X138293000Y-95114000D01*
X138253000Y-98344000D02*
X138253000Y-95204000D01*
X138213000Y-98247000D02*
X138213000Y-95301000D01*
X138173000Y-98143000D02*
X138173000Y-95405000D01*
X138133000Y-98028000D02*
X138133000Y-95520000D01*
X138093000Y-97901000D02*
X138093000Y-95647000D01*
X138053000Y-97757000D02*
X138053000Y-95791000D01*
X138013000Y-97588000D02*
X138013000Y-95960000D01*
X137973000Y-97372000D02*
X137973000Y-96176000D01*
X137933000Y-97020000D02*
X137933000Y-96528000D01*
X145964000Y-96774000D02*
X144764000Y-96774000D01*
X145364000Y-97424000D02*
X145364000Y-96124000D01*
X146104000Y-96774000D02*
G75*
G03X146104000Y-96774000I-4090000J0D01*
G01*
X162752000Y-110981000D02*
X160852000Y-110981000D01*
X161352000Y-113301000D02*
X162752000Y-113301000D01*
D14*
X116957107Y-125600000D02*
G75*
G03X116957107Y-125600000I-707107J0D01*
G01*
X131250000Y-131100000D02*
X131250000Y-107100000D01*
X131250000Y-107100000D02*
X113750000Y-107100000D01*
X113750000Y-107100000D02*
X113750000Y-131100000D01*
X113750000Y-131100000D02*
X131250000Y-131100000D01*
D13*
X105940000Y-138990000D02*
X112060000Y-138990000D01*
X105940000Y-143510000D02*
X112060000Y-143510000D01*
X105940000Y-138990000D02*
X105940000Y-140254000D01*
X105940000Y-142246000D02*
X105940000Y-143510000D01*
X112060000Y-138990000D02*
X112060000Y-140254000D01*
X112060000Y-142246000D02*
X112060000Y-143510000D01*
X147900000Y-128470000D02*
X145900000Y-128470000D01*
X145900000Y-126330000D02*
X147900000Y-126330000D01*
X117155000Y-88382600D02*
X117155000Y-90382600D01*
X117155000Y-90382600D02*
X121055000Y-90382600D01*
X117155000Y-88382600D02*
X121055000Y-88382600D01*
X156900000Y-92350000D02*
X157900000Y-92350000D01*
X157900000Y-90650000D02*
X156900000Y-90650000D01*
X118634000Y-92148000D02*
X120634000Y-92148000D01*
X120634000Y-94288000D02*
X118634000Y-94288000D01*
X108860000Y-111040000D02*
X103660000Y-111040000D01*
X103660000Y-107400000D02*
X108860000Y-107400000D01*
X121352000Y-144780000D02*
X121352000Y-144840000D01*
X121352000Y-144840000D02*
X124012000Y-144840000D01*
X124012000Y-144840000D02*
X124012000Y-144780000D01*
X124012000Y-144780000D02*
X121352000Y-144780000D01*
X121352000Y-143510000D02*
X121352000Y-142180000D01*
X121352000Y-142180000D02*
X122682000Y-142180000D01*
X151324000Y-144780000D02*
X151324000Y-144840000D01*
X151324000Y-144840000D02*
X153984000Y-144840000D01*
X153984000Y-144840000D02*
X153984000Y-144780000D01*
X153984000Y-144780000D02*
X151324000Y-144780000D01*
X151324000Y-143510000D02*
X151324000Y-142180000D01*
X151324000Y-142180000D02*
X152654000Y-142180000D01*
X138116000Y-144780000D02*
X138116000Y-144840000D01*
X138116000Y-144840000D02*
X140776000Y-144840000D01*
X140776000Y-144840000D02*
X140776000Y-144780000D01*
X140776000Y-144780000D02*
X138116000Y-144780000D01*
X138116000Y-143510000D02*
X138116000Y-142180000D01*
X138116000Y-142180000D02*
X139446000Y-142180000D01*
X150003000Y-99895000D02*
X152003000Y-99895000D01*
X152003000Y-102035000D02*
X150003000Y-102035000D01*
X105954000Y-132868000D02*
X112074000Y-132868000D01*
X105954000Y-137388000D02*
X112074000Y-137388000D01*
X105954000Y-132868000D02*
X105954000Y-134132000D01*
X105954000Y-136124000D02*
X105954000Y-137388000D01*
X112074000Y-132868000D02*
X112074000Y-134132000D01*
X112074000Y-136124000D02*
X112074000Y-137388000D01*
D14*
X92202000Y-127000000D02*
X87122000Y-127000000D01*
X87122000Y-121285000D02*
X87122000Y-122555000D01*
X87122000Y-127000000D02*
X87122000Y-126365000D01*
X92202000Y-121920000D02*
X92202000Y-122555000D01*
X92202000Y-127000000D02*
X92202000Y-126365000D01*
X92202000Y-127000000D02*
X92202000Y-127635000D01*
X92202000Y-127635000D02*
X87122000Y-127635000D01*
X87122000Y-127635000D02*
X87122000Y-127000000D01*
X87122000Y-121285000D02*
X92202000Y-121285000D01*
X92202000Y-121285000D02*
X92202000Y-121920000D01*
D13*
X103720000Y-118872000D02*
X108800000Y-118872000D01*
X103720000Y-114432000D02*
X108800000Y-114432000D01*
X108800000Y-120772000D02*
X103720000Y-120772000D01*
X108800000Y-120772000D02*
X108800000Y-114432000D01*
X103720000Y-120772000D02*
X103720000Y-114432000D01*
D14*
X56080000Y-104140000D02*
X56080000Y-83820000D01*
X100330000Y-104140000D02*
X56080000Y-104140000D01*
X100330000Y-83820000D02*
X100330000Y-104140000D01*
X56080000Y-83820000D02*
X100330000Y-83820000D01*
X134620000Y-88392000D02*
X122936000Y-88392000D01*
X122936000Y-88392000D02*
X122936000Y-94488000D01*
X134620000Y-88392000D02*
X134620000Y-94488000D01*
X134620000Y-94488000D02*
X122936000Y-94488000D01*
D13*
X87876000Y-115228000D02*
X86876000Y-115228000D01*
X86876000Y-116928000D02*
X87876000Y-116928000D01*
D14*
X56388000Y-119126000D02*
X55880000Y-119126000D01*
X56388000Y-125222000D02*
X56388000Y-119126000D01*
X55880000Y-125222000D02*
X56388000Y-125222000D01*
X83312000Y-114300000D02*
X83312000Y-130048000D01*
X55880000Y-130048000D02*
X55880000Y-114300000D01*
X83312000Y-130048000D02*
X55880000Y-130048000D01*
X83312000Y-114300000D02*
X55880000Y-114300000D01*
X56388000Y-135382000D02*
X55880000Y-135382000D01*
X56388000Y-141478000D02*
X56388000Y-135382000D01*
X55880000Y-141478000D02*
X56388000Y-141478000D01*
X83312000Y-130556000D02*
X83312000Y-146304000D01*
X55880000Y-146304000D02*
X55880000Y-130556000D01*
X83312000Y-146304000D02*
X55880000Y-146304000D01*
X83312000Y-130556000D02*
X55880000Y-130556000D01*
D15*
X56000000Y-113400000D02*
X66000000Y-113400000D01*
X66000000Y-105000000D02*
X66000000Y-113400000D01*
X56000000Y-105000000D02*
X66000000Y-105000000D01*
X56000000Y-113400000D02*
X56000000Y-105000000D01*
D13*
X169872000Y-96504000D02*
X169872000Y-94504000D01*
X172012000Y-94504000D02*
X172012000Y-96504000D01*
X88122000Y-144072000D02*
X86122000Y-144072000D01*
X86122000Y-141932000D02*
X88122000Y-141932000D01*
X118690000Y-138484000D02*
X116690000Y-138484000D01*
X116690000Y-136344000D02*
X118690000Y-136344000D01*
X98568000Y-129232000D02*
X100568000Y-129232000D01*
X100568000Y-131372000D02*
X98568000Y-131372000D01*
X152130000Y-96828000D02*
X150130000Y-96828000D01*
X150130000Y-94688000D02*
X152130000Y-94688000D01*
D15*
X150876000Y-127254000D02*
X175006000Y-127254000D01*
X150876000Y-134874000D02*
X150876000Y-127254000D01*
X175006000Y-134874000D02*
X150876000Y-134874000D01*
X175006000Y-127254000D02*
X175006000Y-134874000D01*
D14*
X134493000Y-96647000D02*
X122809000Y-96647000D01*
X122809000Y-96647000D02*
X122809000Y-102743000D01*
X134493000Y-96647000D02*
X134493000Y-102743000D01*
X134493000Y-102743000D02*
X122809000Y-102743000D01*
D13*
X93202000Y-117148000D02*
X91202000Y-117148000D01*
X91202000Y-115008000D02*
X93202000Y-115008000D01*
X144000000Y-122570000D02*
X142000000Y-122570000D01*
X142000000Y-120430000D02*
X144000000Y-120430000D01*
X135000000Y-128470000D02*
X133000000Y-128470000D01*
X133000000Y-126330000D02*
X135000000Y-126330000D01*
X135000000Y-125670000D02*
X133000000Y-125670000D01*
X133000000Y-123530000D02*
X135000000Y-123530000D01*
X140100000Y-133070000D02*
X138100000Y-133070000D01*
X138100000Y-130930000D02*
X140100000Y-130930000D01*
X166424000Y-94504000D02*
X166424000Y-96504000D01*
X164284000Y-96504000D02*
X164284000Y-94504000D01*
X167078000Y-96504000D02*
X167078000Y-94504000D01*
X169218000Y-94504000D02*
X169218000Y-96504000D01*
X152030000Y-89830000D02*
X150230000Y-89830000D01*
X150230000Y-93050000D02*
X152680000Y-93050000D01*
D15*
X162814000Y-108839000D02*
X174244000Y-108839000D01*
X162814000Y-99949000D02*
X174244000Y-99949000D01*
X174244000Y-99949000D02*
X174244000Y-108839000D01*
X162814000Y-108839000D02*
X162814000Y-99949000D01*
X163322000Y-87376000D02*
X163322000Y-91948000D01*
X175006000Y-91948000D02*
X175006000Y-87376000D01*
X175006000Y-91948000D02*
X163322000Y-91948000D01*
X175006000Y-87376000D02*
X163322000Y-87376000D01*
D13*
X133700000Y-112850000D02*
X133700000Y-114350000D01*
X133700000Y-114350000D02*
X135510000Y-114350000D01*
X135510000Y-114350000D02*
X135510000Y-119475000D01*
X144100000Y-112850000D02*
X144100000Y-114350000D01*
X144100000Y-114350000D02*
X142290000Y-114350000D01*
X142290000Y-114350000D02*
X142290000Y-115450000D01*
X105954000Y-126772000D02*
X112074000Y-126772000D01*
X105954000Y-131292000D02*
X112074000Y-131292000D01*
X105954000Y-126772000D02*
X105954000Y-128036000D01*
X105954000Y-130028000D02*
X105954000Y-131292000D01*
X112074000Y-126772000D02*
X112074000Y-128036000D01*
X112074000Y-130028000D02*
X112074000Y-131292000D01*
X139200000Y-128650000D02*
X138200000Y-128650000D01*
X138200000Y-130350000D02*
X139200000Y-130350000D01*
D14*
X99822000Y-143002000D02*
X99822000Y-134366000D01*
X93218000Y-143002000D02*
X93218000Y-134366000D01*
X98933000Y-141986000D02*
G75*
G03X98933000Y-141986000I-254000J0D01*
G01*
X97536000Y-143002000D02*
X99822000Y-143002000D01*
X93218000Y-143002000D02*
X95504000Y-143002000D01*
X97536000Y-143002000D02*
G75*
G03X96520000Y-141986000I-1016000J0D01*
G01*
X96520000Y-141986000D02*
G75*
G03X95504000Y-143002000I0J-1016000D01*
G01*
X93218000Y-134366000D02*
X99822000Y-134366000D01*
X113030000Y-104902000D02*
X113030000Y-96266000D01*
X106426000Y-104902000D02*
X106426000Y-96266000D01*
X112141000Y-103886000D02*
G75*
G03X112141000Y-103886000I-254000J0D01*
G01*
X110744000Y-104902000D02*
X113030000Y-104902000D01*
X106426000Y-104902000D02*
X108712000Y-104902000D01*
X110744000Y-104902000D02*
G75*
G03X109728000Y-103886000I-1016000J0D01*
G01*
X109728000Y-103886000D02*
G75*
G03X108712000Y-104902000I0J-1016000D01*
G01*
X106426000Y-96266000D02*
X113030000Y-96266000D01*
X113030000Y-93726000D02*
X113030000Y-85090000D01*
X106426000Y-93726000D02*
X106426000Y-85090000D01*
X112141000Y-92710000D02*
G75*
G03X112141000Y-92710000I-254000J0D01*
G01*
X110744000Y-93726000D02*
X113030000Y-93726000D01*
X106426000Y-93726000D02*
X108712000Y-93726000D01*
X110744000Y-93726000D02*
G75*
G03X109728000Y-92710000I-1016000J0D01*
G01*
X109728000Y-92710000D02*
G75*
G03X108712000Y-93726000I0J-1016000D01*
G01*
X106426000Y-85090000D02*
X113030000Y-85090000D01*
D13*
X144720000Y-144780000D02*
X144720000Y-144840000D01*
X144720000Y-144840000D02*
X147380000Y-144840000D01*
X147380000Y-144840000D02*
X147380000Y-144780000D01*
X147380000Y-144780000D02*
X144720000Y-144780000D01*
X144720000Y-143510000D02*
X144720000Y-142180000D01*
X144720000Y-142180000D02*
X146050000Y-142180000D01*
X137470000Y-122970000D02*
X137470000Y-123030000D01*
X137470000Y-123030000D02*
X140130000Y-123030000D01*
X140130000Y-123030000D02*
X140130000Y-122970000D01*
X140130000Y-122970000D02*
X137470000Y-122970000D01*
X137470000Y-121700000D02*
X137470000Y-120370000D01*
X137470000Y-120370000D02*
X138800000Y-120370000D01*
X127956000Y-144780000D02*
X127956000Y-144840000D01*
X127956000Y-144840000D02*
X130616000Y-144840000D01*
X130616000Y-144840000D02*
X130616000Y-144780000D01*
X130616000Y-144780000D02*
X127956000Y-144780000D01*
X127956000Y-143510000D02*
X127956000Y-142180000D01*
X127956000Y-142180000D02*
X129286000Y-142180000D01*
D14*
X141825000Y-127575000D02*
X141825000Y-127350000D01*
X138475000Y-127575000D02*
X138475000Y-127275000D01*
X138475000Y-124225000D02*
X138475000Y-124525000D01*
X141825000Y-124225000D02*
X141825000Y-124525000D01*
X141825000Y-127575000D02*
X138475000Y-127575000D01*
X141825000Y-124225000D02*
X138475000Y-124225000D01*
X141825000Y-127350000D02*
X143050000Y-127350000D01*
D13*
X125500000Y-103980000D02*
X123500000Y-103980000D01*
X123500000Y-106020000D02*
X125500000Y-106020000D01*
X144200000Y-130450000D02*
X145200000Y-130450000D01*
X145200000Y-128750000D02*
X144200000Y-128750000D01*
X149800000Y-122950000D02*
X148800000Y-122950000D01*
X148800000Y-124650000D02*
X149800000Y-124650000D01*
X105250000Y-122056000D02*
X105250000Y-126356000D01*
X105250000Y-126356000D02*
X110950000Y-126356000D01*
X105250000Y-122056000D02*
X110950000Y-122056000D01*
D14*
X167100381Y-142500381D02*
X166767047Y-142024190D01*
X166528952Y-142500381D02*
X166528952Y-141500381D01*
X166909905Y-141500381D01*
X167005143Y-141548000D01*
X167052762Y-141595619D01*
X167100381Y-141690857D01*
X167100381Y-141833714D01*
X167052762Y-141928952D01*
X167005143Y-141976571D01*
X166909905Y-142024190D01*
X166528952Y-142024190D01*
X167528952Y-141976571D02*
X167862286Y-141976571D01*
X168005143Y-142500381D02*
X167528952Y-142500381D01*
X167528952Y-141500381D01*
X168005143Y-141500381D01*
X168767048Y-141976571D02*
X168433714Y-141976571D01*
X168433714Y-142500381D02*
X168433714Y-141500381D01*
X168909905Y-141500381D01*
X169195619Y-141500381D02*
X169814667Y-141500381D01*
X169481333Y-141881333D01*
X169624191Y-141881333D01*
X169719429Y-141928952D01*
X169767048Y-141976571D01*
X169814667Y-142071810D01*
X169814667Y-142309905D01*
X169767048Y-142405143D01*
X169719429Y-142452762D01*
X169624191Y-142500381D01*
X169338476Y-142500381D01*
X169243238Y-142452762D01*
X169195619Y-142405143D01*
X66952381Y-97500381D02*
X66619047Y-97024190D01*
X66380952Y-97500381D02*
X66380952Y-96500381D01*
X66761905Y-96500381D01*
X66857143Y-96548000D01*
X66904762Y-96595619D01*
X66952381Y-96690857D01*
X66952381Y-96833714D01*
X66904762Y-96928952D01*
X66857143Y-96976571D01*
X66761905Y-97024190D01*
X66380952Y-97024190D01*
X67380952Y-96976571D02*
X67714286Y-96976571D01*
X67857143Y-97500381D02*
X67380952Y-97500381D01*
X67380952Y-96500381D01*
X67857143Y-96500381D01*
X68619048Y-96976571D02*
X68285714Y-96976571D01*
X68285714Y-97500381D02*
X68285714Y-96500381D01*
X68761905Y-96500381D01*
X69095238Y-96595619D02*
X69142857Y-96548000D01*
X69238095Y-96500381D01*
X69476191Y-96500381D01*
X69571429Y-96548000D01*
X69619048Y-96595619D01*
X69666667Y-96690857D01*
X69666667Y-96786095D01*
X69619048Y-96928952D01*
X69047619Y-97500381D01*
X69666667Y-97500381D01*
X100261905Y-121912381D02*
X100261905Y-120912381D01*
X100500000Y-120912381D01*
X100642858Y-120960000D01*
X100738096Y-121055238D01*
X100785715Y-121150476D01*
X100833334Y-121340952D01*
X100833334Y-121483810D01*
X100785715Y-121674286D01*
X100738096Y-121769524D01*
X100642858Y-121864762D01*
X100500000Y-121912381D01*
X100261905Y-121912381D01*
X101690477Y-120912381D02*
X101500000Y-120912381D01*
X101404762Y-120960000D01*
X101357143Y-121007619D01*
X101261905Y-121150476D01*
X101214286Y-121340952D01*
X101214286Y-121721905D01*
X101261905Y-121817143D01*
X101309524Y-121864762D01*
X101404762Y-121912381D01*
X101595239Y-121912381D01*
X101690477Y-121864762D01*
X101738096Y-121817143D01*
X101785715Y-121721905D01*
X101785715Y-121483810D01*
X101738096Y-121388571D01*
X101690477Y-121340952D01*
X101595239Y-121293333D01*
X101404762Y-121293333D01*
X101309524Y-121340952D01*
X101261905Y-121388571D01*
X101214286Y-121483810D01*
X88955714Y-107894381D02*
X88955714Y-106894381D01*
X89193809Y-106894381D01*
X89336667Y-106942000D01*
X89431905Y-107037238D01*
X89479524Y-107132476D01*
X89527143Y-107322952D01*
X89527143Y-107465810D01*
X89479524Y-107656286D01*
X89431905Y-107751524D01*
X89336667Y-107846762D01*
X89193809Y-107894381D01*
X88955714Y-107894381D01*
X90479524Y-107894381D02*
X89908095Y-107894381D01*
X90193809Y-107894381D02*
X90193809Y-106894381D01*
X90098571Y-107037238D01*
X90003333Y-107132476D01*
X89908095Y-107180095D01*
X91431905Y-107894381D02*
X90860476Y-107894381D01*
X91146190Y-107894381D02*
X91146190Y-106894381D01*
X91050952Y-107037238D01*
X90955714Y-107132476D01*
X90860476Y-107180095D01*
X79861714Y-108096381D02*
X79861714Y-107096381D01*
X80099809Y-107096381D01*
X80242667Y-107144000D01*
X80337905Y-107239238D01*
X80385524Y-107334476D01*
X80433143Y-107524952D01*
X80433143Y-107667810D01*
X80385524Y-107858286D01*
X80337905Y-107953524D01*
X80242667Y-108048762D01*
X80099809Y-108096381D01*
X79861714Y-108096381D01*
X81385524Y-108096381D02*
X80814095Y-108096381D01*
X81099809Y-108096381D02*
X81099809Y-107096381D01*
X81004571Y-107239238D01*
X80909333Y-107334476D01*
X80814095Y-107382095D01*
X82004571Y-107096381D02*
X82099810Y-107096381D01*
X82195048Y-107144000D01*
X82242667Y-107191619D01*
X82290286Y-107286857D01*
X82337905Y-107477333D01*
X82337905Y-107715429D01*
X82290286Y-107905905D01*
X82242667Y-108001143D01*
X82195048Y-108048762D01*
X82099810Y-108096381D01*
X82004571Y-108096381D01*
X81909333Y-108048762D01*
X81861714Y-108001143D01*
X81814095Y-107905905D01*
X81766476Y-107715429D01*
X81766476Y-107477333D01*
X81814095Y-107286857D01*
X81861714Y-107191619D01*
X81909333Y-107144000D01*
X82004571Y-107096381D01*
X141847334Y-102191143D02*
X141799715Y-102238762D01*
X141656858Y-102286381D01*
X141561620Y-102286381D01*
X141418762Y-102238762D01*
X141323524Y-102143524D01*
X141275905Y-102048286D01*
X141228286Y-101857810D01*
X141228286Y-101714952D01*
X141275905Y-101524476D01*
X141323524Y-101429238D01*
X141418762Y-101334000D01*
X141561620Y-101286381D01*
X141656858Y-101286381D01*
X141799715Y-101334000D01*
X141847334Y-101381619D01*
X142704477Y-101619714D02*
X142704477Y-102286381D01*
X142466381Y-101238762D02*
X142228286Y-101953048D01*
X142847334Y-101953048D01*
X161290095Y-109593381D02*
X161290095Y-110402905D01*
X161337714Y-110498143D01*
X161385333Y-110545762D01*
X161480571Y-110593381D01*
X161671048Y-110593381D01*
X161766286Y-110545762D01*
X161813905Y-110498143D01*
X161861524Y-110402905D01*
X161861524Y-109593381D01*
X162385333Y-110593381D02*
X162575809Y-110593381D01*
X162671048Y-110545762D01*
X162718667Y-110498143D01*
X162813905Y-110355286D01*
X162861524Y-110164810D01*
X162861524Y-109783857D01*
X162813905Y-109688619D01*
X162766286Y-109641000D01*
X162671048Y-109593381D01*
X162480571Y-109593381D01*
X162385333Y-109641000D01*
X162337714Y-109688619D01*
X162290095Y-109783857D01*
X162290095Y-110021952D01*
X162337714Y-110117190D01*
X162385333Y-110164810D01*
X162480571Y-110212429D01*
X162671048Y-110212429D01*
X162766286Y-110164810D01*
X162813905Y-110117190D01*
X162861524Y-110021952D01*
X131952381Y-119861905D02*
X131952381Y-119290476D01*
X132952381Y-119576191D02*
X131952381Y-119576191D01*
X132952381Y-118433333D02*
X132952381Y-119004762D01*
X132952381Y-118719048D02*
X131952381Y-118719048D01*
X132095238Y-118814286D01*
X132190476Y-118909524D01*
X132238095Y-119004762D01*
X104047334Y-141353143D02*
X103999715Y-141400762D01*
X103856858Y-141448381D01*
X103761620Y-141448381D01*
X103618762Y-141400762D01*
X103523524Y-141305524D01*
X103475905Y-141210286D01*
X103428286Y-141019810D01*
X103428286Y-140876952D01*
X103475905Y-140686476D01*
X103523524Y-140591238D01*
X103618762Y-140496000D01*
X103761620Y-140448381D01*
X103856858Y-140448381D01*
X103999715Y-140496000D01*
X104047334Y-140543619D01*
X104999715Y-141448381D02*
X104428286Y-141448381D01*
X104714000Y-141448381D02*
X104714000Y-140448381D01*
X104618762Y-140591238D01*
X104523524Y-140686476D01*
X104428286Y-140734095D01*
X148133334Y-129752381D02*
X147800000Y-129276190D01*
X147561905Y-129752381D02*
X147561905Y-128752381D01*
X147942858Y-128752381D01*
X148038096Y-128800000D01*
X148085715Y-128847619D01*
X148133334Y-128942857D01*
X148133334Y-129085714D01*
X148085715Y-129180952D01*
X148038096Y-129228571D01*
X147942858Y-129276190D01*
X147561905Y-129276190D01*
X148514286Y-128847619D02*
X148561905Y-128800000D01*
X148657143Y-128752381D01*
X148895239Y-128752381D01*
X148990477Y-128800000D01*
X149038096Y-128847619D01*
X149085715Y-128942857D01*
X149085715Y-129038095D01*
X149038096Y-129180952D01*
X148466667Y-129752381D01*
X149085715Y-129752381D01*
X118666905Y-87834981D02*
X118666905Y-86834981D01*
X118905000Y-86834981D01*
X119047858Y-86882600D01*
X119143096Y-86977838D01*
X119190715Y-87073076D01*
X119238334Y-87263552D01*
X119238334Y-87406410D01*
X119190715Y-87596886D01*
X119143096Y-87692124D01*
X119047858Y-87787362D01*
X118905000Y-87834981D01*
X118666905Y-87834981D01*
X119619286Y-86930219D02*
X119666905Y-86882600D01*
X119762143Y-86834981D01*
X120000239Y-86834981D01*
X120095477Y-86882600D01*
X120143096Y-86930219D01*
X120190715Y-87025457D01*
X120190715Y-87120695D01*
X120143096Y-87263552D01*
X119571667Y-87834981D01*
X120190715Y-87834981D01*
X155233143Y-93889143D02*
X155185524Y-93936762D01*
X155042667Y-93984381D01*
X154947429Y-93984381D01*
X154804571Y-93936762D01*
X154709333Y-93841524D01*
X154661714Y-93746286D01*
X154614095Y-93555810D01*
X154614095Y-93412952D01*
X154661714Y-93222476D01*
X154709333Y-93127238D01*
X154804571Y-93032000D01*
X154947429Y-92984381D01*
X155042667Y-92984381D01*
X155185524Y-93032000D01*
X155233143Y-93079619D01*
X156185524Y-93984381D02*
X155614095Y-93984381D01*
X155899809Y-93984381D02*
X155899809Y-92984381D01*
X155804571Y-93127238D01*
X155709333Y-93222476D01*
X155614095Y-93270095D01*
X156804571Y-92984381D02*
X156899810Y-92984381D01*
X156995048Y-93032000D01*
X157042667Y-93079619D01*
X157090286Y-93174857D01*
X157137905Y-93365333D01*
X157137905Y-93603429D01*
X157090286Y-93793905D01*
X157042667Y-93889143D01*
X156995048Y-93936762D01*
X156899810Y-93984381D01*
X156804571Y-93984381D01*
X156709333Y-93936762D01*
X156661714Y-93889143D01*
X156614095Y-93793905D01*
X156566476Y-93603429D01*
X156566476Y-93365333D01*
X156614095Y-93174857D01*
X156661714Y-93079619D01*
X156709333Y-93032000D01*
X156804571Y-92984381D01*
X118991143Y-95520381D02*
X118657809Y-95044190D01*
X118419714Y-95520381D02*
X118419714Y-94520381D01*
X118800667Y-94520381D01*
X118895905Y-94568000D01*
X118943524Y-94615619D01*
X118991143Y-94710857D01*
X118991143Y-94853714D01*
X118943524Y-94948952D01*
X118895905Y-94996571D01*
X118800667Y-95044190D01*
X118419714Y-95044190D01*
X119943524Y-95520381D02*
X119372095Y-95520381D01*
X119657809Y-95520381D02*
X119657809Y-94520381D01*
X119562571Y-94663238D01*
X119467333Y-94758476D01*
X119372095Y-94806095D01*
X120276857Y-94520381D02*
X120943524Y-94520381D01*
X120514952Y-95520381D01*
X100759334Y-109672381D02*
X100426000Y-109196190D01*
X100187905Y-109672381D02*
X100187905Y-108672381D01*
X100568858Y-108672381D01*
X100664096Y-108720000D01*
X100711715Y-108767619D01*
X100759334Y-108862857D01*
X100759334Y-109005714D01*
X100711715Y-109100952D01*
X100664096Y-109148571D01*
X100568858Y-109196190D01*
X100187905Y-109196190D01*
X101664096Y-108672381D02*
X101187905Y-108672381D01*
X101140286Y-109148571D01*
X101187905Y-109100952D01*
X101283143Y-109053333D01*
X101521239Y-109053333D01*
X101616477Y-109100952D01*
X101664096Y-109148571D01*
X101711715Y-109243810D01*
X101711715Y-109481905D01*
X101664096Y-109577143D01*
X101616477Y-109624762D01*
X101521239Y-109672381D01*
X101283143Y-109672381D01*
X101187905Y-109624762D01*
X101140286Y-109577143D01*
X121777238Y-140632381D02*
X122015333Y-141632381D01*
X122205810Y-140918095D01*
X122396286Y-141632381D01*
X122634381Y-140632381D01*
X123491524Y-140632381D02*
X123015333Y-140632381D01*
X122967714Y-141108571D01*
X123015333Y-141060952D01*
X123110571Y-141013333D01*
X123348667Y-141013333D01*
X123443905Y-141060952D01*
X123491524Y-141108571D01*
X123539143Y-141203810D01*
X123539143Y-141441905D01*
X123491524Y-141537143D01*
X123443905Y-141584762D01*
X123348667Y-141632381D01*
X123110571Y-141632381D01*
X123015333Y-141584762D01*
X122967714Y-141537143D01*
X151749238Y-140632381D02*
X151987333Y-141632381D01*
X152177810Y-140918095D01*
X152368286Y-141632381D01*
X152606381Y-140632381D01*
X152892095Y-140632381D02*
X153511143Y-140632381D01*
X153177809Y-141013333D01*
X153320667Y-141013333D01*
X153415905Y-141060952D01*
X153463524Y-141108571D01*
X153511143Y-141203810D01*
X153511143Y-141441905D01*
X153463524Y-141537143D01*
X153415905Y-141584762D01*
X153320667Y-141632381D01*
X153034952Y-141632381D01*
X152939714Y-141584762D01*
X152892095Y-141537143D01*
X138541238Y-140632381D02*
X138779333Y-141632381D01*
X138969810Y-140918095D01*
X139160286Y-141632381D01*
X139398381Y-140632381D01*
X140303143Y-141632381D02*
X139731714Y-141632381D01*
X140017428Y-141632381D02*
X140017428Y-140632381D01*
X139922190Y-140775238D01*
X139826952Y-140870476D01*
X139731714Y-140918095D01*
X150836334Y-103267381D02*
X150503000Y-102791190D01*
X150264905Y-103267381D02*
X150264905Y-102267381D01*
X150645858Y-102267381D01*
X150741096Y-102315000D01*
X150788715Y-102362619D01*
X150836334Y-102457857D01*
X150836334Y-102600714D01*
X150788715Y-102695952D01*
X150741096Y-102743571D01*
X150645858Y-102791190D01*
X150264905Y-102791190D01*
X151312524Y-103267381D02*
X151503000Y-103267381D01*
X151598239Y-103219762D01*
X151645858Y-103172143D01*
X151741096Y-103029286D01*
X151788715Y-102838810D01*
X151788715Y-102457857D01*
X151741096Y-102362619D01*
X151693477Y-102315000D01*
X151598239Y-102267381D01*
X151407762Y-102267381D01*
X151312524Y-102315000D01*
X151264905Y-102362619D01*
X151217286Y-102457857D01*
X151217286Y-102695952D01*
X151264905Y-102791190D01*
X151312524Y-102838810D01*
X151407762Y-102886429D01*
X151598239Y-102886429D01*
X151693477Y-102838810D01*
X151741096Y-102791190D01*
X151788715Y-102695952D01*
X104061334Y-135739143D02*
X104013715Y-135786762D01*
X103870858Y-135834381D01*
X103775620Y-135834381D01*
X103632762Y-135786762D01*
X103537524Y-135691524D01*
X103489905Y-135596286D01*
X103442286Y-135405810D01*
X103442286Y-135262952D01*
X103489905Y-135072476D01*
X103537524Y-134977238D01*
X103632762Y-134882000D01*
X103775620Y-134834381D01*
X103870858Y-134834381D01*
X104013715Y-134882000D01*
X104061334Y-134929619D01*
X104442286Y-134929619D02*
X104489905Y-134882000D01*
X104585143Y-134834381D01*
X104823239Y-134834381D01*
X104918477Y-134882000D01*
X104966096Y-134929619D01*
X105013715Y-135024857D01*
X105013715Y-135120095D01*
X104966096Y-135262952D01*
X104394667Y-135834381D01*
X105013715Y-135834381D01*
X88923905Y-129357381D02*
X88923905Y-128357381D01*
X89304858Y-128357381D01*
X89400096Y-128405000D01*
X89447715Y-128452619D01*
X89495334Y-128547857D01*
X89495334Y-128690714D01*
X89447715Y-128785952D01*
X89400096Y-128833571D01*
X89304858Y-128881190D01*
X88923905Y-128881190D01*
X90447715Y-129357381D02*
X89876286Y-129357381D01*
X90162000Y-129357381D02*
X90162000Y-128357381D01*
X90066762Y-128500238D01*
X89971524Y-128595476D01*
X89876286Y-128643095D01*
X105466667Y-113052381D02*
X105466667Y-113766667D01*
X105419047Y-113909524D01*
X105323809Y-114004762D01*
X105180952Y-114052381D01*
X105085714Y-114052381D01*
X105942857Y-114052381D02*
X105942857Y-113052381D01*
X106323810Y-113052381D01*
X106419048Y-113100000D01*
X106466667Y-113147619D01*
X106514286Y-113242857D01*
X106514286Y-113385714D01*
X106466667Y-113480952D01*
X106419048Y-113528571D01*
X106323810Y-113576190D01*
X105942857Y-113576190D01*
X107466667Y-114052381D02*
X106895238Y-114052381D01*
X107180952Y-114052381D02*
X107180952Y-113052381D01*
X107085714Y-113195238D01*
X106990476Y-113290476D01*
X106895238Y-113338095D01*
X99568095Y-81522381D02*
X99568095Y-82331905D01*
X99615714Y-82427143D01*
X99663333Y-82474762D01*
X99758571Y-82522381D01*
X99949048Y-82522381D01*
X100044286Y-82474762D01*
X100091905Y-82427143D01*
X100139524Y-82331905D01*
X100139524Y-81522381D01*
X100520476Y-81522381D02*
X101139524Y-81522381D01*
X100806190Y-81903333D01*
X100949048Y-81903333D01*
X101044286Y-81950952D01*
X101091905Y-81998571D01*
X101139524Y-82093810D01*
X101139524Y-82331905D01*
X101091905Y-82427143D01*
X101044286Y-82474762D01*
X100949048Y-82522381D01*
X100663333Y-82522381D01*
X100568095Y-82474762D01*
X100520476Y-82427143D01*
X74115713Y-94427143D02*
X74068094Y-94474762D01*
X73925237Y-94522381D01*
X73829999Y-94522381D01*
X73687141Y-94474762D01*
X73591903Y-94379524D01*
X73544284Y-94284286D01*
X73496665Y-94093810D01*
X73496665Y-93950952D01*
X73544284Y-93760476D01*
X73591903Y-93665238D01*
X73687141Y-93570000D01*
X73829999Y-93522381D01*
X73925237Y-93522381D01*
X74068094Y-93570000D01*
X74115713Y-93617619D01*
X74544284Y-94522381D02*
X74544284Y-93522381D01*
X74925237Y-93522381D01*
X75020475Y-93570000D01*
X75068094Y-93617619D01*
X75115713Y-93712857D01*
X75115713Y-93855714D01*
X75068094Y-93950952D01*
X75020475Y-93998571D01*
X74925237Y-94046190D01*
X74544284Y-94046190D01*
X75496665Y-93617619D02*
X75544284Y-93570000D01*
X75639522Y-93522381D01*
X75877618Y-93522381D01*
X75972856Y-93570000D01*
X76020475Y-93617619D01*
X76068094Y-93712857D01*
X76068094Y-93808095D01*
X76020475Y-93950952D01*
X75449046Y-94522381D01*
X76068094Y-94522381D01*
X77020475Y-94522381D02*
X76449046Y-94522381D01*
X76734760Y-94522381D02*
X76734760Y-93522381D01*
X76639522Y-93665238D01*
X76544284Y-93760476D01*
X76449046Y-93808095D01*
X77639522Y-93522381D02*
X77734761Y-93522381D01*
X77829999Y-93570000D01*
X77877618Y-93617619D01*
X77925237Y-93712857D01*
X77972856Y-93903333D01*
X77972856Y-94141429D01*
X77925237Y-94331905D01*
X77877618Y-94427143D01*
X77829999Y-94474762D01*
X77734761Y-94522381D01*
X77639522Y-94522381D01*
X77544284Y-94474762D01*
X77496665Y-94427143D01*
X77449046Y-94331905D01*
X77401427Y-94141429D01*
X77401427Y-93903333D01*
X77449046Y-93712857D01*
X77496665Y-93617619D01*
X77544284Y-93570000D01*
X77639522Y-93522381D01*
X78353808Y-93617619D02*
X78401427Y-93570000D01*
X78496665Y-93522381D01*
X78734761Y-93522381D01*
X78829999Y-93570000D01*
X78877618Y-93617619D01*
X78925237Y-93712857D01*
X78925237Y-93808095D01*
X78877618Y-93950952D01*
X78306189Y-94522381D01*
X78925237Y-94522381D01*
X80115713Y-94522381D02*
X80115713Y-93522381D01*
X80115713Y-93903333D02*
X80210951Y-93855714D01*
X80401428Y-93855714D01*
X80496666Y-93903333D01*
X80544285Y-93950952D01*
X80591904Y-94046190D01*
X80591904Y-94331905D01*
X80544285Y-94427143D01*
X80496666Y-94474762D01*
X80401428Y-94522381D01*
X80210951Y-94522381D01*
X80115713Y-94474762D01*
X81020475Y-94522381D02*
X81020475Y-93855714D01*
X81020475Y-94046190D02*
X81068094Y-93950952D01*
X81115713Y-93903333D01*
X81210951Y-93855714D01*
X81306190Y-93855714D01*
X82020476Y-94474762D02*
X81925238Y-94522381D01*
X81734761Y-94522381D01*
X81639523Y-94474762D01*
X81591904Y-94379524D01*
X81591904Y-93998571D01*
X81639523Y-93903333D01*
X81734761Y-93855714D01*
X81925238Y-93855714D01*
X82020476Y-93903333D01*
X82068095Y-93998571D01*
X82068095Y-94093810D01*
X81591904Y-94189048D01*
X82925238Y-94522381D02*
X82925238Y-93998571D01*
X82877619Y-93903333D01*
X82782381Y-93855714D01*
X82591904Y-93855714D01*
X82496666Y-93903333D01*
X82925238Y-94474762D02*
X82830000Y-94522381D01*
X82591904Y-94522381D01*
X82496666Y-94474762D01*
X82449047Y-94379524D01*
X82449047Y-94284286D01*
X82496666Y-94189048D01*
X82591904Y-94141429D01*
X82830000Y-94141429D01*
X82925238Y-94093810D01*
X83401428Y-94522381D02*
X83401428Y-93522381D01*
X83496666Y-94141429D02*
X83782381Y-94522381D01*
X83782381Y-93855714D02*
X83401428Y-94236667D01*
X84353809Y-94522381D02*
X84258571Y-94474762D01*
X84210952Y-94427143D01*
X84163333Y-94331905D01*
X84163333Y-94046190D01*
X84210952Y-93950952D01*
X84258571Y-93903333D01*
X84353809Y-93855714D01*
X84496667Y-93855714D01*
X84591905Y-93903333D01*
X84639524Y-93950952D01*
X84687143Y-94046190D01*
X84687143Y-94331905D01*
X84639524Y-94427143D01*
X84591905Y-94474762D01*
X84496667Y-94522381D01*
X84353809Y-94522381D01*
X85544286Y-93855714D02*
X85544286Y-94522381D01*
X85115714Y-93855714D02*
X85115714Y-94379524D01*
X85163333Y-94474762D01*
X85258571Y-94522381D01*
X85401429Y-94522381D01*
X85496667Y-94474762D01*
X85544286Y-94427143D01*
X85877619Y-93855714D02*
X86258571Y-93855714D01*
X86020476Y-93522381D02*
X86020476Y-94379524D01*
X86068095Y-94474762D01*
X86163333Y-94522381D01*
X86258571Y-94522381D01*
X87353810Y-94522381D02*
X87353810Y-93522381D01*
X87353810Y-93903333D02*
X87449048Y-93855714D01*
X87639525Y-93855714D01*
X87734763Y-93903333D01*
X87782382Y-93950952D01*
X87830001Y-94046190D01*
X87830001Y-94331905D01*
X87782382Y-94427143D01*
X87734763Y-94474762D01*
X87639525Y-94522381D01*
X87449048Y-94522381D01*
X87353810Y-94474762D01*
X88401429Y-94522381D02*
X88306191Y-94474762D01*
X88258572Y-94427143D01*
X88210953Y-94331905D01*
X88210953Y-94046190D01*
X88258572Y-93950952D01*
X88306191Y-93903333D01*
X88401429Y-93855714D01*
X88544287Y-93855714D01*
X88639525Y-93903333D01*
X88687144Y-93950952D01*
X88734763Y-94046190D01*
X88734763Y-94331905D01*
X88687144Y-94427143D01*
X88639525Y-94474762D01*
X88544287Y-94522381D01*
X88401429Y-94522381D01*
X89591906Y-94522381D02*
X89591906Y-93998571D01*
X89544287Y-93903333D01*
X89449049Y-93855714D01*
X89258572Y-93855714D01*
X89163334Y-93903333D01*
X89591906Y-94474762D02*
X89496668Y-94522381D01*
X89258572Y-94522381D01*
X89163334Y-94474762D01*
X89115715Y-94379524D01*
X89115715Y-94284286D01*
X89163334Y-94189048D01*
X89258572Y-94141429D01*
X89496668Y-94141429D01*
X89591906Y-94093810D01*
X90068096Y-94522381D02*
X90068096Y-93855714D01*
X90068096Y-94046190D02*
X90115715Y-93950952D01*
X90163334Y-93903333D01*
X90258572Y-93855714D01*
X90353811Y-93855714D01*
X91115716Y-94522381D02*
X91115716Y-93522381D01*
X91115716Y-94474762D02*
X91020478Y-94522381D01*
X90830001Y-94522381D01*
X90734763Y-94474762D01*
X90687144Y-94427143D01*
X90639525Y-94331905D01*
X90639525Y-94046190D01*
X90687144Y-93950952D01*
X90734763Y-93903333D01*
X90830001Y-93855714D01*
X91020478Y-93855714D01*
X91115716Y-93903333D01*
X128016095Y-96416381D02*
X128016095Y-97225905D01*
X128063714Y-97321143D01*
X128111333Y-97368762D01*
X128206571Y-97416381D01*
X128397048Y-97416381D01*
X128492286Y-97368762D01*
X128539905Y-97321143D01*
X128587524Y-97225905D01*
X128587524Y-96416381D01*
X129539905Y-96416381D02*
X129063714Y-96416381D01*
X129016095Y-96892571D01*
X129063714Y-96844952D01*
X129158952Y-96797333D01*
X129397048Y-96797333D01*
X129492286Y-96844952D01*
X129539905Y-96892571D01*
X129587524Y-96987810D01*
X129587524Y-97225905D01*
X129539905Y-97321143D01*
X129492286Y-97368762D01*
X129397048Y-97416381D01*
X129158952Y-97416381D01*
X129063714Y-97368762D01*
X129016095Y-97321143D01*
X87209334Y-114935143D02*
X87161715Y-114982762D01*
X87018858Y-115030381D01*
X86923620Y-115030381D01*
X86780762Y-114982762D01*
X86685524Y-114887524D01*
X86637905Y-114792286D01*
X86590286Y-114601810D01*
X86590286Y-114458952D01*
X86637905Y-114268476D01*
X86685524Y-114173238D01*
X86780762Y-114078000D01*
X86923620Y-114030381D01*
X87018858Y-114030381D01*
X87161715Y-114078000D01*
X87209334Y-114125619D01*
X87542667Y-114030381D02*
X88209334Y-114030381D01*
X87780762Y-115030381D01*
X84502667Y-122134381D02*
X84502667Y-122848667D01*
X84455047Y-122991524D01*
X84359809Y-123086762D01*
X84216952Y-123134381D01*
X84121714Y-123134381D01*
X85502667Y-123134381D02*
X84931238Y-123134381D01*
X85216952Y-123134381D02*
X85216952Y-122134381D01*
X85121714Y-122277238D01*
X85026476Y-122372476D01*
X84931238Y-122420095D01*
X84248667Y-137374381D02*
X84248667Y-138088667D01*
X84201047Y-138231524D01*
X84105809Y-138326762D01*
X83962952Y-138374381D01*
X83867714Y-138374381D01*
X84677238Y-137469619D02*
X84724857Y-137422000D01*
X84820095Y-137374381D01*
X85058191Y-137374381D01*
X85153429Y-137422000D01*
X85201048Y-137469619D01*
X85248667Y-137564857D01*
X85248667Y-137660095D01*
X85201048Y-137802952D01*
X84629619Y-138374381D01*
X85248667Y-138374381D01*
X67992667Y-109688381D02*
X67992667Y-110402667D01*
X67945047Y-110545524D01*
X67849809Y-110640762D01*
X67706952Y-110688381D01*
X67611714Y-110688381D01*
X68373619Y-109688381D02*
X68992667Y-109688381D01*
X68659333Y-110069333D01*
X68802191Y-110069333D01*
X68897429Y-110116952D01*
X68945048Y-110164571D01*
X68992667Y-110259810D01*
X68992667Y-110497905D01*
X68945048Y-110593143D01*
X68897429Y-110640762D01*
X68802191Y-110688381D01*
X68516476Y-110688381D01*
X68421238Y-110640762D01*
X68373619Y-110593143D01*
X173244381Y-96146857D02*
X172768190Y-96480191D01*
X173244381Y-96718286D02*
X172244381Y-96718286D01*
X172244381Y-96337333D01*
X172292000Y-96242095D01*
X172339619Y-96194476D01*
X172434857Y-96146857D01*
X172577714Y-96146857D01*
X172672952Y-96194476D01*
X172720571Y-96242095D01*
X172768190Y-96337333D01*
X172768190Y-96718286D01*
X173244381Y-95194476D02*
X173244381Y-95765905D01*
X173244381Y-95480191D02*
X172244381Y-95480191D01*
X172387238Y-95575429D01*
X172482476Y-95670667D01*
X172530095Y-95765905D01*
X172339619Y-94813524D02*
X172292000Y-94765905D01*
X172244381Y-94670667D01*
X172244381Y-94432571D01*
X172292000Y-94337333D01*
X172339619Y-94289714D01*
X172434857Y-94242095D01*
X172530095Y-94242095D01*
X172672952Y-94289714D01*
X173244381Y-94861143D01*
X173244381Y-94242095D01*
X86479143Y-141604381D02*
X86145809Y-141128190D01*
X85907714Y-141604381D02*
X85907714Y-140604381D01*
X86288667Y-140604381D01*
X86383905Y-140652000D01*
X86431524Y-140699619D01*
X86479143Y-140794857D01*
X86479143Y-140937714D01*
X86431524Y-141032952D01*
X86383905Y-141080571D01*
X86288667Y-141128190D01*
X85907714Y-141128190D01*
X87431524Y-141604381D02*
X86860095Y-141604381D01*
X87145809Y-141604381D02*
X87145809Y-140604381D01*
X87050571Y-140747238D01*
X86955333Y-140842476D01*
X86860095Y-140890095D01*
X87764857Y-140604381D02*
X88383905Y-140604381D01*
X88050571Y-140985333D01*
X88193429Y-140985333D01*
X88288667Y-141032952D01*
X88336286Y-141080571D01*
X88383905Y-141175810D01*
X88383905Y-141413905D01*
X88336286Y-141509143D01*
X88288667Y-141556762D01*
X88193429Y-141604381D01*
X87907714Y-141604381D01*
X87812476Y-141556762D01*
X87764857Y-141509143D01*
X117047143Y-136016381D02*
X116713809Y-135540190D01*
X116475714Y-136016381D02*
X116475714Y-135016381D01*
X116856667Y-135016381D01*
X116951905Y-135064000D01*
X116999524Y-135111619D01*
X117047143Y-135206857D01*
X117047143Y-135349714D01*
X116999524Y-135444952D01*
X116951905Y-135492571D01*
X116856667Y-135540190D01*
X116475714Y-135540190D01*
X117999524Y-136016381D02*
X117428095Y-136016381D01*
X117713809Y-136016381D02*
X117713809Y-135016381D01*
X117618571Y-135159238D01*
X117523333Y-135254476D01*
X117428095Y-135302095D01*
X118856667Y-135349714D02*
X118856667Y-136016381D01*
X118618571Y-134968762D02*
X118380476Y-135683048D01*
X118999524Y-135683048D01*
X98925143Y-132604381D02*
X98591809Y-132128190D01*
X98353714Y-132604381D02*
X98353714Y-131604381D01*
X98734667Y-131604381D01*
X98829905Y-131652000D01*
X98877524Y-131699619D01*
X98925143Y-131794857D01*
X98925143Y-131937714D01*
X98877524Y-132032952D01*
X98829905Y-132080571D01*
X98734667Y-132128190D01*
X98353714Y-132128190D01*
X99877524Y-132604381D02*
X99306095Y-132604381D01*
X99591809Y-132604381D02*
X99591809Y-131604381D01*
X99496571Y-131747238D01*
X99401333Y-131842476D01*
X99306095Y-131890095D01*
X100782286Y-131604381D02*
X100306095Y-131604381D01*
X100258476Y-132080571D01*
X100306095Y-132032952D01*
X100401333Y-131985333D01*
X100639429Y-131985333D01*
X100734667Y-132032952D01*
X100782286Y-132080571D01*
X100829905Y-132175810D01*
X100829905Y-132413905D01*
X100782286Y-132509143D01*
X100734667Y-132556762D01*
X100639429Y-132604381D01*
X100401333Y-132604381D01*
X100306095Y-132556762D01*
X100258476Y-132509143D01*
X150487143Y-98242381D02*
X150153809Y-97766190D01*
X149915714Y-98242381D02*
X149915714Y-97242381D01*
X150296667Y-97242381D01*
X150391905Y-97290000D01*
X150439524Y-97337619D01*
X150487143Y-97432857D01*
X150487143Y-97575714D01*
X150439524Y-97670952D01*
X150391905Y-97718571D01*
X150296667Y-97766190D01*
X149915714Y-97766190D01*
X151439524Y-98242381D02*
X150868095Y-98242381D01*
X151153809Y-98242381D02*
X151153809Y-97242381D01*
X151058571Y-97385238D01*
X150963333Y-97480476D01*
X150868095Y-97528095D01*
X152296667Y-97242381D02*
X152106190Y-97242381D01*
X152010952Y-97290000D01*
X151963333Y-97337619D01*
X151868095Y-97480476D01*
X151820476Y-97670952D01*
X151820476Y-98051905D01*
X151868095Y-98147143D01*
X151915714Y-98194762D01*
X152010952Y-98242381D01*
X152201429Y-98242381D01*
X152296667Y-98194762D01*
X152344286Y-98147143D01*
X152391905Y-98051905D01*
X152391905Y-97813810D01*
X152344286Y-97718571D01*
X152296667Y-97670952D01*
X152201429Y-97623333D01*
X152010952Y-97623333D01*
X151915714Y-97670952D01*
X151868095Y-97718571D01*
X151820476Y-97813810D01*
X171132667Y-125118762D02*
X171275524Y-125166381D01*
X171513620Y-125166381D01*
X171608858Y-125118762D01*
X171656477Y-125071143D01*
X171704096Y-124975905D01*
X171704096Y-124880667D01*
X171656477Y-124785429D01*
X171608858Y-124737810D01*
X171513620Y-124690190D01*
X171323143Y-124642571D01*
X171227905Y-124594952D01*
X171180286Y-124547333D01*
X171132667Y-124452095D01*
X171132667Y-124356857D01*
X171180286Y-124261619D01*
X171227905Y-124214000D01*
X171323143Y-124166381D01*
X171561239Y-124166381D01*
X171704096Y-124214000D01*
X172037429Y-124166381D02*
X172275524Y-125166381D01*
X172466001Y-124452095D01*
X172656477Y-125166381D01*
X172894572Y-124166381D01*
X173799334Y-125166381D02*
X173227905Y-125166381D01*
X173513619Y-125166381D02*
X173513619Y-124166381D01*
X173418381Y-124309238D01*
X173323143Y-124404476D01*
X173227905Y-124452095D01*
X127889095Y-104671381D02*
X127889095Y-105480905D01*
X127936714Y-105576143D01*
X127984333Y-105623762D01*
X128079571Y-105671381D01*
X128270048Y-105671381D01*
X128365286Y-105623762D01*
X128412905Y-105576143D01*
X128460524Y-105480905D01*
X128460524Y-104671381D01*
X129079571Y-105099952D02*
X128984333Y-105052333D01*
X128936714Y-105004714D01*
X128889095Y-104909476D01*
X128889095Y-104861857D01*
X128936714Y-104766619D01*
X128984333Y-104719000D01*
X129079571Y-104671381D01*
X129270048Y-104671381D01*
X129365286Y-104719000D01*
X129412905Y-104766619D01*
X129460524Y-104861857D01*
X129460524Y-104909476D01*
X129412905Y-105004714D01*
X129365286Y-105052333D01*
X129270048Y-105099952D01*
X129079571Y-105099952D01*
X128984333Y-105147571D01*
X128936714Y-105195190D01*
X128889095Y-105290429D01*
X128889095Y-105480905D01*
X128936714Y-105576143D01*
X128984333Y-105623762D01*
X129079571Y-105671381D01*
X129270048Y-105671381D01*
X129365286Y-105623762D01*
X129412905Y-105576143D01*
X129460524Y-105480905D01*
X129460524Y-105290429D01*
X129412905Y-105195190D01*
X129365286Y-105147571D01*
X129270048Y-105099952D01*
X92035334Y-114680381D02*
X91702000Y-114204190D01*
X91463905Y-114680381D02*
X91463905Y-113680381D01*
X91844858Y-113680381D01*
X91940096Y-113728000D01*
X91987715Y-113775619D01*
X92035334Y-113870857D01*
X92035334Y-114013714D01*
X91987715Y-114108952D01*
X91940096Y-114156571D01*
X91844858Y-114204190D01*
X91463905Y-114204190D01*
X92987715Y-114680381D02*
X92416286Y-114680381D01*
X92702000Y-114680381D02*
X92702000Y-113680381D01*
X92606762Y-113823238D01*
X92511524Y-113918476D01*
X92416286Y-113966095D01*
X146233334Y-121952381D02*
X145900000Y-121476190D01*
X145661905Y-121952381D02*
X145661905Y-120952381D01*
X146042858Y-120952381D01*
X146138096Y-121000000D01*
X146185715Y-121047619D01*
X146233334Y-121142857D01*
X146233334Y-121285714D01*
X146185715Y-121380952D01*
X146138096Y-121428571D01*
X146042858Y-121476190D01*
X145661905Y-121476190D01*
X146566667Y-120952381D02*
X147185715Y-120952381D01*
X146852381Y-121333333D01*
X146995239Y-121333333D01*
X147090477Y-121380952D01*
X147138096Y-121428571D01*
X147185715Y-121523810D01*
X147185715Y-121761905D01*
X147138096Y-121857143D01*
X147090477Y-121904762D01*
X146995239Y-121952381D01*
X146709524Y-121952381D01*
X146614286Y-121904762D01*
X146566667Y-121857143D01*
X134033334Y-130152381D02*
X133700000Y-129676190D01*
X133461905Y-130152381D02*
X133461905Y-129152381D01*
X133842858Y-129152381D01*
X133938096Y-129200000D01*
X133985715Y-129247619D01*
X134033334Y-129342857D01*
X134033334Y-129485714D01*
X133985715Y-129580952D01*
X133938096Y-129628571D01*
X133842858Y-129676190D01*
X133461905Y-129676190D01*
X134890477Y-129485714D02*
X134890477Y-130152381D01*
X134652381Y-129104762D02*
X134414286Y-129819048D01*
X135033334Y-129819048D01*
X133833334Y-123202381D02*
X133500000Y-122726190D01*
X133261905Y-123202381D02*
X133261905Y-122202381D01*
X133642858Y-122202381D01*
X133738096Y-122250000D01*
X133785715Y-122297619D01*
X133833334Y-122392857D01*
X133833334Y-122535714D01*
X133785715Y-122630952D01*
X133738096Y-122678571D01*
X133642858Y-122726190D01*
X133261905Y-122726190D01*
X134690477Y-122202381D02*
X134500000Y-122202381D01*
X134404762Y-122250000D01*
X134357143Y-122297619D01*
X134261905Y-122440476D01*
X134214286Y-122630952D01*
X134214286Y-123011905D01*
X134261905Y-123107143D01*
X134309524Y-123154762D01*
X134404762Y-123202381D01*
X134595239Y-123202381D01*
X134690477Y-123154762D01*
X134738096Y-123107143D01*
X134785715Y-123011905D01*
X134785715Y-122773810D01*
X134738096Y-122678571D01*
X134690477Y-122630952D01*
X134595239Y-122583333D01*
X134404762Y-122583333D01*
X134309524Y-122630952D01*
X134261905Y-122678571D01*
X134214286Y-122773810D01*
X142235334Y-132198381D02*
X141902000Y-131722190D01*
X141663905Y-132198381D02*
X141663905Y-131198381D01*
X142044858Y-131198381D01*
X142140096Y-131246000D01*
X142187715Y-131293619D01*
X142235334Y-131388857D01*
X142235334Y-131531714D01*
X142187715Y-131626952D01*
X142140096Y-131674571D01*
X142044858Y-131722190D01*
X141663905Y-131722190D01*
X142568667Y-131198381D02*
X143235334Y-131198381D01*
X142806762Y-132198381D01*
X163956381Y-96146857D02*
X163480190Y-96480191D01*
X163956381Y-96718286D02*
X162956381Y-96718286D01*
X162956381Y-96337333D01*
X163004000Y-96242095D01*
X163051619Y-96194476D01*
X163146857Y-96146857D01*
X163289714Y-96146857D01*
X163384952Y-96194476D01*
X163432571Y-96242095D01*
X163480190Y-96337333D01*
X163480190Y-96718286D01*
X163956381Y-95194476D02*
X163956381Y-95765905D01*
X163956381Y-95480191D02*
X162956381Y-95480191D01*
X163099238Y-95575429D01*
X163194476Y-95670667D01*
X163242095Y-95765905D01*
X162956381Y-94575429D02*
X162956381Y-94480190D01*
X163004000Y-94384952D01*
X163051619Y-94337333D01*
X163146857Y-94289714D01*
X163337333Y-94242095D01*
X163575429Y-94242095D01*
X163765905Y-94289714D01*
X163861143Y-94337333D01*
X163908762Y-94384952D01*
X163956381Y-94480190D01*
X163956381Y-94575429D01*
X163908762Y-94670667D01*
X163861143Y-94718286D01*
X163765905Y-94765905D01*
X163575429Y-94813524D01*
X163337333Y-94813524D01*
X163146857Y-94765905D01*
X163051619Y-94718286D01*
X163004000Y-94670667D01*
X162956381Y-94575429D01*
X167505143Y-99004381D02*
X167171809Y-98528190D01*
X166933714Y-99004381D02*
X166933714Y-98004381D01*
X167314667Y-98004381D01*
X167409905Y-98052000D01*
X167457524Y-98099619D01*
X167505143Y-98194857D01*
X167505143Y-98337714D01*
X167457524Y-98432952D01*
X167409905Y-98480571D01*
X167314667Y-98528190D01*
X166933714Y-98528190D01*
X168457524Y-99004381D02*
X167886095Y-99004381D01*
X168171809Y-99004381D02*
X168171809Y-98004381D01*
X168076571Y-98147238D01*
X167981333Y-98242476D01*
X167886095Y-98290095D01*
X169409905Y-99004381D02*
X168838476Y-99004381D01*
X169124190Y-99004381D02*
X169124190Y-98004381D01*
X169028952Y-98147238D01*
X168933714Y-98242476D01*
X168838476Y-98290095D01*
X150368095Y-93432381D02*
X150368095Y-94241905D01*
X150415714Y-94337143D01*
X150463333Y-94384762D01*
X150558571Y-94432381D01*
X150749048Y-94432381D01*
X150844286Y-94384762D01*
X150891905Y-94337143D01*
X150939524Y-94241905D01*
X150939524Y-93432381D01*
X151368095Y-93527619D02*
X151415714Y-93480000D01*
X151510952Y-93432381D01*
X151749048Y-93432381D01*
X151844286Y-93480000D01*
X151891905Y-93527619D01*
X151939524Y-93622857D01*
X151939524Y-93718095D01*
X151891905Y-93860952D01*
X151320476Y-94432381D01*
X151939524Y-94432381D01*
X161948762Y-105727333D02*
X161996381Y-105584476D01*
X161996381Y-105346380D01*
X161948762Y-105251142D01*
X161901143Y-105203523D01*
X161805905Y-105155904D01*
X161710667Y-105155904D01*
X161615429Y-105203523D01*
X161567810Y-105251142D01*
X161520190Y-105346380D01*
X161472571Y-105536857D01*
X161424952Y-105632095D01*
X161377333Y-105679714D01*
X161282095Y-105727333D01*
X161186857Y-105727333D01*
X161091619Y-105679714D01*
X161044000Y-105632095D01*
X160996381Y-105536857D01*
X160996381Y-105298761D01*
X161044000Y-105155904D01*
X160996381Y-104822571D02*
X161996381Y-104584476D01*
X161282095Y-104393999D01*
X161996381Y-104203523D01*
X160996381Y-103965428D01*
X161091619Y-103632095D02*
X161044000Y-103584476D01*
X160996381Y-103489238D01*
X160996381Y-103251142D01*
X161044000Y-103155904D01*
X161091619Y-103108285D01*
X161186857Y-103060666D01*
X161282095Y-103060666D01*
X161424952Y-103108285D01*
X161996381Y-103679714D01*
X161996381Y-103060666D01*
X166379714Y-86414381D02*
X166379714Y-85414381D01*
X166617809Y-85414381D01*
X166760667Y-85462000D01*
X166855905Y-85557238D01*
X166903524Y-85652476D01*
X166951143Y-85842952D01*
X166951143Y-85985810D01*
X166903524Y-86176286D01*
X166855905Y-86271524D01*
X166760667Y-86366762D01*
X166617809Y-86414381D01*
X166379714Y-86414381D01*
X167903524Y-86414381D02*
X167332095Y-86414381D01*
X167617809Y-86414381D02*
X167617809Y-85414381D01*
X167522571Y-85557238D01*
X167427333Y-85652476D01*
X167332095Y-85700095D01*
X168236857Y-85414381D02*
X168855905Y-85414381D01*
X168522571Y-85795333D01*
X168665429Y-85795333D01*
X168760667Y-85842952D01*
X168808286Y-85890571D01*
X168855905Y-85985810D01*
X168855905Y-86223905D01*
X168808286Y-86319143D01*
X168760667Y-86366762D01*
X168665429Y-86414381D01*
X168379714Y-86414381D01*
X168284476Y-86366762D01*
X168236857Y-86319143D01*
X145604762Y-106847619D02*
X145509524Y-106800000D01*
X145414286Y-106704762D01*
X145271429Y-106561905D01*
X145176190Y-106514286D01*
X145080952Y-106514286D01*
X145128571Y-106752381D02*
X145033333Y-106704762D01*
X144938095Y-106609524D01*
X144890476Y-106419048D01*
X144890476Y-106085714D01*
X144938095Y-105895238D01*
X145033333Y-105800000D01*
X145128571Y-105752381D01*
X145319048Y-105752381D01*
X145414286Y-105800000D01*
X145509524Y-105895238D01*
X145557143Y-106085714D01*
X145557143Y-106419048D01*
X145509524Y-106609524D01*
X145414286Y-106704762D01*
X145319048Y-106752381D01*
X145128571Y-106752381D01*
X146509524Y-106752381D02*
X145938095Y-106752381D01*
X146223809Y-106752381D02*
X146223809Y-105752381D01*
X146128571Y-105895238D01*
X146033333Y-105990476D01*
X145938095Y-106038095D01*
X104061334Y-129389143D02*
X104013715Y-129436762D01*
X103870858Y-129484381D01*
X103775620Y-129484381D01*
X103632762Y-129436762D01*
X103537524Y-129341524D01*
X103489905Y-129246286D01*
X103442286Y-129055810D01*
X103442286Y-128912952D01*
X103489905Y-128722476D01*
X103537524Y-128627238D01*
X103632762Y-128532000D01*
X103775620Y-128484381D01*
X103870858Y-128484381D01*
X104013715Y-128532000D01*
X104061334Y-128579619D01*
X104394667Y-128484381D02*
X105013715Y-128484381D01*
X104680381Y-128865333D01*
X104823239Y-128865333D01*
X104918477Y-128912952D01*
X104966096Y-128960571D01*
X105013715Y-129055810D01*
X105013715Y-129293905D01*
X104966096Y-129389143D01*
X104918477Y-129436762D01*
X104823239Y-129484381D01*
X104537524Y-129484381D01*
X104442286Y-129436762D01*
X104394667Y-129389143D01*
X141581334Y-129857143D02*
X141533715Y-129904762D01*
X141390858Y-129952381D01*
X141295620Y-129952381D01*
X141152762Y-129904762D01*
X141057524Y-129809524D01*
X141009905Y-129714286D01*
X140962286Y-129523810D01*
X140962286Y-129380952D01*
X141009905Y-129190476D01*
X141057524Y-129095238D01*
X141152762Y-129000000D01*
X141295620Y-128952381D01*
X141390858Y-128952381D01*
X141533715Y-129000000D01*
X141581334Y-129047619D01*
X142486096Y-128952381D02*
X142009905Y-128952381D01*
X141962286Y-129428571D01*
X142009905Y-129380952D01*
X142105143Y-129333333D01*
X142343239Y-129333333D01*
X142438477Y-129380952D01*
X142486096Y-129428571D01*
X142533715Y-129523810D01*
X142533715Y-129761905D01*
X142486096Y-129857143D01*
X142438477Y-129904762D01*
X142343239Y-129952381D01*
X142105143Y-129952381D01*
X142009905Y-129904762D01*
X141962286Y-129857143D01*
X95504095Y-143470381D02*
X95504095Y-144279905D01*
X95551714Y-144375143D01*
X95599333Y-144422762D01*
X95694571Y-144470381D01*
X95885048Y-144470381D01*
X95980286Y-144422762D01*
X96027905Y-144375143D01*
X96075524Y-144279905D01*
X96075524Y-143470381D01*
X96980286Y-143803714D02*
X96980286Y-144470381D01*
X96742190Y-143422762D02*
X96504095Y-144137048D01*
X97123143Y-144137048D01*
X108966095Y-105370381D02*
X108966095Y-106179905D01*
X109013714Y-106275143D01*
X109061333Y-106322762D01*
X109156571Y-106370381D01*
X109347048Y-106370381D01*
X109442286Y-106322762D01*
X109489905Y-106275143D01*
X109537524Y-106179905D01*
X109537524Y-105370381D01*
X110442286Y-105370381D02*
X110251809Y-105370381D01*
X110156571Y-105418000D01*
X110108952Y-105465619D01*
X110013714Y-105608476D01*
X109966095Y-105798952D01*
X109966095Y-106179905D01*
X110013714Y-106275143D01*
X110061333Y-106322762D01*
X110156571Y-106370381D01*
X110347048Y-106370381D01*
X110442286Y-106322762D01*
X110489905Y-106275143D01*
X110537524Y-106179905D01*
X110537524Y-105941810D01*
X110489905Y-105846571D01*
X110442286Y-105798952D01*
X110347048Y-105751333D01*
X110156571Y-105751333D01*
X110061333Y-105798952D01*
X110013714Y-105846571D01*
X109966095Y-105941810D01*
X108966095Y-94194381D02*
X108966095Y-95003905D01*
X109013714Y-95099143D01*
X109061333Y-95146762D01*
X109156571Y-95194381D01*
X109347048Y-95194381D01*
X109442286Y-95146762D01*
X109489905Y-95099143D01*
X109537524Y-95003905D01*
X109537524Y-94194381D01*
X109918476Y-94194381D02*
X110585143Y-94194381D01*
X110156571Y-95194381D01*
X145145238Y-140632381D02*
X145383333Y-141632381D01*
X145573810Y-140918095D01*
X145764286Y-141632381D01*
X146002381Y-140632381D01*
X146335714Y-140727619D02*
X146383333Y-140680000D01*
X146478571Y-140632381D01*
X146716667Y-140632381D01*
X146811905Y-140680000D01*
X146859524Y-140727619D01*
X146907143Y-140822857D01*
X146907143Y-140918095D01*
X146859524Y-141060952D01*
X146288095Y-141632381D01*
X146907143Y-141632381D01*
X135095238Y-121152381D02*
X135333333Y-122152381D01*
X135523810Y-121438095D01*
X135714286Y-122152381D01*
X135952381Y-121152381D01*
X136761905Y-121485714D02*
X136761905Y-122152381D01*
X136523809Y-121104762D02*
X136285714Y-121819048D01*
X136904762Y-121819048D01*
X128381238Y-140632381D02*
X128619333Y-141632381D01*
X128809810Y-140918095D01*
X129000286Y-141632381D01*
X129238381Y-140632381D01*
X130047905Y-140632381D02*
X129857428Y-140632381D01*
X129762190Y-140680000D01*
X129714571Y-140727619D01*
X129619333Y-140870476D01*
X129571714Y-141060952D01*
X129571714Y-141441905D01*
X129619333Y-141537143D01*
X129666952Y-141584762D01*
X129762190Y-141632381D01*
X129952667Y-141632381D01*
X130047905Y-141584762D01*
X130095524Y-141537143D01*
X130143143Y-141441905D01*
X130143143Y-141203810D01*
X130095524Y-141108571D01*
X130047905Y-141060952D01*
X129952667Y-141013333D01*
X129762190Y-141013333D01*
X129666952Y-141060952D01*
X129619333Y-141108571D01*
X129571714Y-141203810D01*
X66952381Y-142500381D02*
X66619047Y-142024190D01*
X66380952Y-142500381D02*
X66380952Y-141500381D01*
X66761905Y-141500381D01*
X66857143Y-141548000D01*
X66904762Y-141595619D01*
X66952381Y-141690857D01*
X66952381Y-141833714D01*
X66904762Y-141928952D01*
X66857143Y-141976571D01*
X66761905Y-142024190D01*
X66380952Y-142024190D01*
X67380952Y-141976571D02*
X67714286Y-141976571D01*
X67857143Y-142500381D02*
X67380952Y-142500381D01*
X67380952Y-141500381D01*
X67857143Y-141500381D01*
X68619048Y-141976571D02*
X68285714Y-141976571D01*
X68285714Y-142500381D02*
X68285714Y-141500381D01*
X68761905Y-141500381D01*
X69666667Y-142500381D02*
X69095238Y-142500381D01*
X69380952Y-142500381D02*
X69380952Y-141500381D01*
X69285714Y-141643238D01*
X69190476Y-141738476D01*
X69095238Y-141786095D01*
X144038095Y-125252381D02*
X144038095Y-126061905D01*
X144085714Y-126157143D01*
X144133333Y-126204762D01*
X144228571Y-126252381D01*
X144419048Y-126252381D01*
X144514286Y-126204762D01*
X144561905Y-126157143D01*
X144609524Y-126061905D01*
X144609524Y-125252381D01*
X145609524Y-126252381D02*
X145038095Y-126252381D01*
X145323809Y-126252381D02*
X145323809Y-125252381D01*
X145228571Y-125395238D01*
X145133333Y-125490476D01*
X145038095Y-125538095D01*
X124333334Y-103607143D02*
X124285715Y-103654762D01*
X124142858Y-103702381D01*
X124047620Y-103702381D01*
X123904762Y-103654762D01*
X123809524Y-103559524D01*
X123761905Y-103464286D01*
X123714286Y-103273810D01*
X123714286Y-103130952D01*
X123761905Y-102940476D01*
X123809524Y-102845238D01*
X123904762Y-102750000D01*
X124047620Y-102702381D01*
X124142858Y-102702381D01*
X124285715Y-102750000D01*
X124333334Y-102797619D01*
X124904762Y-103130952D02*
X124809524Y-103083333D01*
X124761905Y-103035714D01*
X124714286Y-102940476D01*
X124714286Y-102892857D01*
X124761905Y-102797619D01*
X124809524Y-102750000D01*
X124904762Y-102702381D01*
X125095239Y-102702381D01*
X125190477Y-102750000D01*
X125238096Y-102797619D01*
X125285715Y-102892857D01*
X125285715Y-102940476D01*
X125238096Y-103035714D01*
X125190477Y-103083333D01*
X125095239Y-103130952D01*
X124904762Y-103130952D01*
X124809524Y-103178571D01*
X124761905Y-103226190D01*
X124714286Y-103321429D01*
X124714286Y-103511905D01*
X124761905Y-103607143D01*
X124809524Y-103654762D01*
X124904762Y-103702381D01*
X125095239Y-103702381D01*
X125190477Y-103654762D01*
X125238096Y-103607143D01*
X125285715Y-103511905D01*
X125285715Y-103321429D01*
X125238096Y-103226190D01*
X125190477Y-103178571D01*
X125095239Y-103130952D01*
X144533334Y-131457143D02*
X144485715Y-131504762D01*
X144342858Y-131552381D01*
X144247620Y-131552381D01*
X144104762Y-131504762D01*
X144009524Y-131409524D01*
X143961905Y-131314286D01*
X143914286Y-131123810D01*
X143914286Y-130980952D01*
X143961905Y-130790476D01*
X144009524Y-130695238D01*
X144104762Y-130600000D01*
X144247620Y-130552381D01*
X144342858Y-130552381D01*
X144485715Y-130600000D01*
X144533334Y-130647619D01*
X145009524Y-131552381D02*
X145200000Y-131552381D01*
X145295239Y-131504762D01*
X145342858Y-131457143D01*
X145438096Y-131314286D01*
X145485715Y-131123810D01*
X145485715Y-130742857D01*
X145438096Y-130647619D01*
X145390477Y-130600000D01*
X145295239Y-130552381D01*
X145104762Y-130552381D01*
X145009524Y-130600000D01*
X144961905Y-130647619D01*
X144914286Y-130742857D01*
X144914286Y-130980952D01*
X144961905Y-131076190D01*
X145009524Y-131123810D01*
X145104762Y-131171429D01*
X145295239Y-131171429D01*
X145390477Y-131123810D01*
X145438096Y-131076190D01*
X145485715Y-130980952D01*
X148657143Y-122657143D02*
X148609524Y-122704762D01*
X148466667Y-122752381D01*
X148371429Y-122752381D01*
X148228571Y-122704762D01*
X148133333Y-122609524D01*
X148085714Y-122514286D01*
X148038095Y-122323810D01*
X148038095Y-122180952D01*
X148085714Y-121990476D01*
X148133333Y-121895238D01*
X148228571Y-121800000D01*
X148371429Y-121752381D01*
X148466667Y-121752381D01*
X148609524Y-121800000D01*
X148657143Y-121847619D01*
X149609524Y-122752381D02*
X149038095Y-122752381D01*
X149323809Y-122752381D02*
X149323809Y-121752381D01*
X149228571Y-121895238D01*
X149133333Y-121990476D01*
X149038095Y-122038095D01*
X150561905Y-122752381D02*
X149990476Y-122752381D01*
X150276190Y-122752381D02*
X150276190Y-121752381D01*
X150180952Y-121895238D01*
X150085714Y-121990476D01*
X149990476Y-122038095D01*
X109761905Y-121752381D02*
X109761905Y-120752381D01*
X110000000Y-120752381D01*
X110142858Y-120800000D01*
X110238096Y-120895238D01*
X110285715Y-120990476D01*
X110333334Y-121180952D01*
X110333334Y-121323810D01*
X110285715Y-121514286D01*
X110238096Y-121609524D01*
X110142858Y-121704762D01*
X110000000Y-121752381D01*
X109761905Y-121752381D01*
X111285715Y-121752381D02*
X110714286Y-121752381D01*
X111000000Y-121752381D02*
X111000000Y-120752381D01*
X110904762Y-120895238D01*
X110809524Y-120990476D01*
X110714286Y-121038095D01*
M02*
