G04 #@! TF.FileFunction,Legend,Top*
%FSLAX46Y46*%
G04 Gerber Fmt 4.6, Leading zero omitted, Abs format (unit mm)*
G04 Created by KiCad (PCBNEW 4.0.5-e0-6337~49~ubuntu14.04.1) date Fri Dec 30 21:11:23 2016*
%MOMM*%
%LPD*%
G01*
G04 APERTURE LIST*
%ADD10C,0.100000*%
%ADD11C,0.300000*%
%ADD12C,0.250000*%
%ADD13C,0.150000*%
G04 APERTURE END LIST*
D10*
D11*
X65402144Y-144045714D02*
X65330715Y-144117143D01*
X65116429Y-144188571D01*
X64973572Y-144188571D01*
X64759287Y-144117143D01*
X64616429Y-143974286D01*
X64545001Y-143831429D01*
X64473572Y-143545714D01*
X64473572Y-143331429D01*
X64545001Y-143045714D01*
X64616429Y-142902857D01*
X64759287Y-142760000D01*
X64973572Y-142688571D01*
X65116429Y-142688571D01*
X65330715Y-142760000D01*
X65402144Y-142831429D01*
X65973572Y-143760000D02*
X66687858Y-143760000D01*
X65830715Y-144188571D02*
X66330715Y-142688571D01*
X66830715Y-144188571D01*
X67330715Y-142688571D02*
X67330715Y-143902857D01*
X67402143Y-144045714D01*
X67473572Y-144117143D01*
X67616429Y-144188571D01*
X67902143Y-144188571D01*
X68045001Y-144117143D01*
X68116429Y-144045714D01*
X68187858Y-143902857D01*
X68187858Y-142688571D01*
X68687858Y-142688571D02*
X69545001Y-142688571D01*
X69116430Y-144188571D02*
X69116430Y-142688571D01*
X70045001Y-144188571D02*
X70045001Y-142688571D01*
X71045001Y-142688571D02*
X71330715Y-142688571D01*
X71473573Y-142760000D01*
X71616430Y-142902857D01*
X71687858Y-143188571D01*
X71687858Y-143688571D01*
X71616430Y-143974286D01*
X71473573Y-144117143D01*
X71330715Y-144188571D01*
X71045001Y-144188571D01*
X70902144Y-144117143D01*
X70759287Y-143974286D01*
X70687858Y-143688571D01*
X70687858Y-143188571D01*
X70759287Y-142902857D01*
X70902144Y-142760000D01*
X71045001Y-142688571D01*
X72330716Y-144188571D02*
X72330716Y-142688571D01*
X73187859Y-144188571D01*
X73187859Y-142688571D01*
X76973573Y-144188571D02*
X76116430Y-144188571D01*
X76545002Y-144188571D02*
X76545002Y-142688571D01*
X76402145Y-142902857D01*
X76259287Y-143045714D01*
X76116430Y-143117143D01*
X77545001Y-142831429D02*
X77616430Y-142760000D01*
X77759287Y-142688571D01*
X78116430Y-142688571D01*
X78259287Y-142760000D01*
X78330716Y-142831429D01*
X78402144Y-142974286D01*
X78402144Y-143117143D01*
X78330716Y-143331429D01*
X77473573Y-144188571D01*
X78402144Y-144188571D01*
X79330715Y-142688571D02*
X79473572Y-142688571D01*
X79616429Y-142760000D01*
X79687858Y-142831429D01*
X79759287Y-142974286D01*
X79830715Y-143260000D01*
X79830715Y-143617143D01*
X79759287Y-143902857D01*
X79687858Y-144045714D01*
X79616429Y-144117143D01*
X79473572Y-144188571D01*
X79330715Y-144188571D01*
X79187858Y-144117143D01*
X79116429Y-144045714D01*
X79045001Y-143902857D01*
X78973572Y-143617143D01*
X78973572Y-143260000D01*
X79045001Y-142974286D01*
X79116429Y-142831429D01*
X79187858Y-142760000D01*
X79330715Y-142688571D01*
X80259286Y-142688571D02*
X80759286Y-144188571D01*
X81259286Y-142688571D01*
X81759286Y-144188571D02*
X81759286Y-142688571D01*
X82116429Y-142688571D01*
X82330714Y-142760000D01*
X82473572Y-142902857D01*
X82545000Y-143045714D01*
X82616429Y-143331429D01*
X82616429Y-143545714D01*
X82545000Y-143831429D01*
X82473572Y-143974286D01*
X82330714Y-144117143D01*
X82116429Y-144188571D01*
X81759286Y-144188571D01*
X84116429Y-144045714D02*
X84045000Y-144117143D01*
X83830714Y-144188571D01*
X83687857Y-144188571D01*
X83473572Y-144117143D01*
X83330714Y-143974286D01*
X83259286Y-143831429D01*
X83187857Y-143545714D01*
X83187857Y-143331429D01*
X83259286Y-143045714D01*
X83330714Y-142902857D01*
X83473572Y-142760000D01*
X83687857Y-142688571D01*
X83830714Y-142688571D01*
X84045000Y-142760000D01*
X84116429Y-142831429D01*
D12*
X120842380Y-83032381D02*
X121413809Y-83032381D01*
X121128094Y-84032381D02*
X121128094Y-83032381D01*
X121747142Y-84032381D02*
X121747142Y-83032381D01*
X122175714Y-84032381D02*
X122175714Y-83508571D01*
X122128095Y-83413333D01*
X122032857Y-83365714D01*
X121889999Y-83365714D01*
X121794761Y-83413333D01*
X121747142Y-83460952D01*
X123032857Y-83984762D02*
X122937619Y-84032381D01*
X122747142Y-84032381D01*
X122651904Y-83984762D01*
X122604285Y-83889524D01*
X122604285Y-83508571D01*
X122651904Y-83413333D01*
X122747142Y-83365714D01*
X122937619Y-83365714D01*
X123032857Y-83413333D01*
X123080476Y-83508571D01*
X123080476Y-83603810D01*
X122604285Y-83699048D01*
X124223333Y-83746667D02*
X124699524Y-83746667D01*
X124128095Y-84032381D02*
X124461428Y-83032381D01*
X124794762Y-84032381D01*
X125509048Y-83984762D02*
X125413810Y-84032381D01*
X125223333Y-84032381D01*
X125128095Y-83984762D01*
X125080476Y-83889524D01*
X125080476Y-83508571D01*
X125128095Y-83413333D01*
X125223333Y-83365714D01*
X125413810Y-83365714D01*
X125509048Y-83413333D01*
X125556667Y-83508571D01*
X125556667Y-83603810D01*
X125080476Y-83699048D01*
X125842381Y-83365714D02*
X126223333Y-83365714D01*
X125985238Y-83032381D02*
X125985238Y-83889524D01*
X126032857Y-83984762D01*
X126128095Y-84032381D01*
X126223333Y-84032381D01*
X126556667Y-84032381D02*
X126556667Y-83032381D01*
X126985239Y-84032381D02*
X126985239Y-83508571D01*
X126937620Y-83413333D01*
X126842382Y-83365714D01*
X126699524Y-83365714D01*
X126604286Y-83413333D01*
X126556667Y-83460952D01*
X127842382Y-83984762D02*
X127747144Y-84032381D01*
X127556667Y-84032381D01*
X127461429Y-83984762D01*
X127413810Y-83889524D01*
X127413810Y-83508571D01*
X127461429Y-83413333D01*
X127556667Y-83365714D01*
X127747144Y-83365714D01*
X127842382Y-83413333D01*
X127890001Y-83508571D01*
X127890001Y-83603810D01*
X127413810Y-83699048D01*
X128318572Y-84032381D02*
X128318572Y-83365714D01*
X128318572Y-83556190D02*
X128366191Y-83460952D01*
X128413810Y-83413333D01*
X128509048Y-83365714D01*
X128604287Y-83365714D01*
X128937620Y-84032381D02*
X128937620Y-83365714D01*
X128937620Y-83032381D02*
X128890001Y-83080000D01*
X128937620Y-83127619D01*
X128985239Y-83080000D01*
X128937620Y-83032381D01*
X128937620Y-83127619D01*
X129842382Y-83984762D02*
X129747144Y-84032381D01*
X129556667Y-84032381D01*
X129461429Y-83984762D01*
X129413810Y-83937143D01*
X129366191Y-83841905D01*
X129366191Y-83556190D01*
X129413810Y-83460952D01*
X129461429Y-83413333D01*
X129556667Y-83365714D01*
X129747144Y-83365714D01*
X129842382Y-83413333D01*
X131032858Y-84032381D02*
X131032858Y-83032381D01*
X131366192Y-83746667D01*
X131699525Y-83032381D01*
X131699525Y-84032381D01*
X132556668Y-83984762D02*
X132461430Y-84032381D01*
X132270953Y-84032381D01*
X132175715Y-83984762D01*
X132128096Y-83889524D01*
X132128096Y-83508571D01*
X132175715Y-83413333D01*
X132270953Y-83365714D01*
X132461430Y-83365714D01*
X132556668Y-83413333D01*
X132604287Y-83508571D01*
X132604287Y-83603810D01*
X132128096Y-83699048D01*
X132985239Y-83984762D02*
X133080477Y-84032381D01*
X133270953Y-84032381D01*
X133366192Y-83984762D01*
X133413811Y-83889524D01*
X133413811Y-83841905D01*
X133366192Y-83746667D01*
X133270953Y-83699048D01*
X133128096Y-83699048D01*
X133032858Y-83651429D01*
X132985239Y-83556190D01*
X132985239Y-83508571D01*
X133032858Y-83413333D01*
X133128096Y-83365714D01*
X133270953Y-83365714D01*
X133366192Y-83413333D01*
X133794763Y-83984762D02*
X133890001Y-84032381D01*
X134080477Y-84032381D01*
X134175716Y-83984762D01*
X134223335Y-83889524D01*
X134223335Y-83841905D01*
X134175716Y-83746667D01*
X134080477Y-83699048D01*
X133937620Y-83699048D01*
X133842382Y-83651429D01*
X133794763Y-83556190D01*
X133794763Y-83508571D01*
X133842382Y-83413333D01*
X133937620Y-83365714D01*
X134080477Y-83365714D01*
X134175716Y-83413333D01*
X135080478Y-84032381D02*
X135080478Y-83508571D01*
X135032859Y-83413333D01*
X134937621Y-83365714D01*
X134747144Y-83365714D01*
X134651906Y-83413333D01*
X135080478Y-83984762D02*
X134985240Y-84032381D01*
X134747144Y-84032381D01*
X134651906Y-83984762D01*
X134604287Y-83889524D01*
X134604287Y-83794286D01*
X134651906Y-83699048D01*
X134747144Y-83651429D01*
X134985240Y-83651429D01*
X135080478Y-83603810D01*
X135985240Y-83365714D02*
X135985240Y-84175238D01*
X135937621Y-84270476D01*
X135890002Y-84318095D01*
X135794763Y-84365714D01*
X135651906Y-84365714D01*
X135556668Y-84318095D01*
X135985240Y-83984762D02*
X135890002Y-84032381D01*
X135699525Y-84032381D01*
X135604287Y-83984762D01*
X135556668Y-83937143D01*
X135509049Y-83841905D01*
X135509049Y-83556190D01*
X135556668Y-83460952D01*
X135604287Y-83413333D01*
X135699525Y-83365714D01*
X135890002Y-83365714D01*
X135985240Y-83413333D01*
X136842383Y-83984762D02*
X136747145Y-84032381D01*
X136556668Y-84032381D01*
X136461430Y-83984762D01*
X136413811Y-83889524D01*
X136413811Y-83508571D01*
X136461430Y-83413333D01*
X136556668Y-83365714D01*
X136747145Y-83365714D01*
X136842383Y-83413333D01*
X136890002Y-83508571D01*
X136890002Y-83603810D01*
X136413811Y-83699048D01*
X138080478Y-84032381D02*
X138080478Y-83032381D01*
X138413812Y-83746667D01*
X138747145Y-83032381D01*
X138747145Y-84032381D01*
X139651907Y-84032381D02*
X139651907Y-83508571D01*
X139604288Y-83413333D01*
X139509050Y-83365714D01*
X139318573Y-83365714D01*
X139223335Y-83413333D01*
X139651907Y-83984762D02*
X139556669Y-84032381D01*
X139318573Y-84032381D01*
X139223335Y-83984762D01*
X139175716Y-83889524D01*
X139175716Y-83794286D01*
X139223335Y-83699048D01*
X139318573Y-83651429D01*
X139556669Y-83651429D01*
X139651907Y-83603810D01*
X140556669Y-83984762D02*
X140461431Y-84032381D01*
X140270954Y-84032381D01*
X140175716Y-83984762D01*
X140128097Y-83937143D01*
X140080478Y-83841905D01*
X140080478Y-83556190D01*
X140128097Y-83460952D01*
X140175716Y-83413333D01*
X140270954Y-83365714D01*
X140461431Y-83365714D01*
X140556669Y-83413333D01*
X140985240Y-84032381D02*
X140985240Y-83032381D01*
X141413812Y-84032381D02*
X141413812Y-83508571D01*
X141366193Y-83413333D01*
X141270955Y-83365714D01*
X141128097Y-83365714D01*
X141032859Y-83413333D01*
X140985240Y-83460952D01*
X141890002Y-84032381D02*
X141890002Y-83365714D01*
X141890002Y-83032381D02*
X141842383Y-83080000D01*
X141890002Y-83127619D01*
X141937621Y-83080000D01*
X141890002Y-83032381D01*
X141890002Y-83127619D01*
X142366192Y-83365714D02*
X142366192Y-84032381D01*
X142366192Y-83460952D02*
X142413811Y-83413333D01*
X142509049Y-83365714D01*
X142651907Y-83365714D01*
X142747145Y-83413333D01*
X142794764Y-83508571D01*
X142794764Y-84032381D01*
X143651907Y-83984762D02*
X143556669Y-84032381D01*
X143366192Y-84032381D01*
X143270954Y-83984762D01*
X143223335Y-83889524D01*
X143223335Y-83508571D01*
X143270954Y-83413333D01*
X143366192Y-83365714D01*
X143556669Y-83365714D01*
X143651907Y-83413333D01*
X143699526Y-83508571D01*
X143699526Y-83603810D01*
X143223335Y-83699048D01*
X145461431Y-83937143D02*
X145413812Y-83984762D01*
X145270955Y-84032381D01*
X145175717Y-84032381D01*
X145032859Y-83984762D01*
X144937621Y-83889524D01*
X144890002Y-83794286D01*
X144842383Y-83603810D01*
X144842383Y-83460952D01*
X144890002Y-83270476D01*
X144937621Y-83175238D01*
X145032859Y-83080000D01*
X145175717Y-83032381D01*
X145270955Y-83032381D01*
X145413812Y-83080000D01*
X145461431Y-83127619D01*
X146032859Y-84032381D02*
X145937621Y-83984762D01*
X145890002Y-83937143D01*
X145842383Y-83841905D01*
X145842383Y-83556190D01*
X145890002Y-83460952D01*
X145937621Y-83413333D01*
X146032859Y-83365714D01*
X146175717Y-83365714D01*
X146270955Y-83413333D01*
X146318574Y-83460952D01*
X146366193Y-83556190D01*
X146366193Y-83841905D01*
X146318574Y-83937143D01*
X146270955Y-83984762D01*
X146175717Y-84032381D01*
X146032859Y-84032381D01*
X146794764Y-83937143D02*
X146842383Y-83984762D01*
X146794764Y-84032381D01*
X146747145Y-83984762D01*
X146794764Y-83937143D01*
X146794764Y-84032381D01*
X147318573Y-83984762D02*
X147318573Y-84032381D01*
X147270954Y-84127619D01*
X147223335Y-84175238D01*
X148985240Y-84032381D02*
X148509049Y-84032381D01*
X148509049Y-83032381D01*
X149175716Y-83365714D02*
X149556668Y-83365714D01*
X149318573Y-83032381D02*
X149318573Y-83889524D01*
X149366192Y-83984762D01*
X149461430Y-84032381D01*
X149556668Y-84032381D01*
X150318574Y-84032381D02*
X150318574Y-83032381D01*
X150318574Y-83984762D02*
X150223336Y-84032381D01*
X150032859Y-84032381D01*
X149937621Y-83984762D01*
X149890002Y-83937143D01*
X149842383Y-83841905D01*
X149842383Y-83556190D01*
X149890002Y-83460952D01*
X149937621Y-83413333D01*
X150032859Y-83365714D01*
X150223336Y-83365714D01*
X150318574Y-83413333D01*
X150794764Y-83937143D02*
X150842383Y-83984762D01*
X150794764Y-84032381D01*
X150747145Y-83984762D01*
X150794764Y-83937143D01*
X150794764Y-84032381D01*
X117723330Y-84782381D02*
X117723330Y-85591905D01*
X117770949Y-85687143D01*
X117818568Y-85734762D01*
X117913806Y-85782381D01*
X118104283Y-85782381D01*
X118199521Y-85734762D01*
X118247140Y-85687143D01*
X118294759Y-85591905D01*
X118294759Y-84782381D01*
X118723330Y-85734762D02*
X118866187Y-85782381D01*
X119104283Y-85782381D01*
X119199521Y-85734762D01*
X119247140Y-85687143D01*
X119294759Y-85591905D01*
X119294759Y-85496667D01*
X119247140Y-85401429D01*
X119199521Y-85353810D01*
X119104283Y-85306190D01*
X118913806Y-85258571D01*
X118818568Y-85210952D01*
X118770949Y-85163333D01*
X118723330Y-85068095D01*
X118723330Y-84972857D01*
X118770949Y-84877619D01*
X118818568Y-84830000D01*
X118913806Y-84782381D01*
X119151902Y-84782381D01*
X119294759Y-84830000D01*
X120056664Y-85258571D02*
X120199521Y-85306190D01*
X120247140Y-85353810D01*
X120294759Y-85449048D01*
X120294759Y-85591905D01*
X120247140Y-85687143D01*
X120199521Y-85734762D01*
X120104283Y-85782381D01*
X119723330Y-85782381D01*
X119723330Y-84782381D01*
X120056664Y-84782381D01*
X120151902Y-84830000D01*
X120199521Y-84877619D01*
X120247140Y-84972857D01*
X120247140Y-85068095D01*
X120199521Y-85163333D01*
X120151902Y-85210952D01*
X120056664Y-85258571D01*
X119723330Y-85258571D01*
X121342378Y-85115714D02*
X121723330Y-85115714D01*
X121485235Y-84782381D02*
X121485235Y-85639524D01*
X121532854Y-85734762D01*
X121628092Y-85782381D01*
X121723330Y-85782381D01*
X122199521Y-85782381D02*
X122104283Y-85734762D01*
X122056664Y-85687143D01*
X122009045Y-85591905D01*
X122009045Y-85306190D01*
X122056664Y-85210952D01*
X122104283Y-85163333D01*
X122199521Y-85115714D01*
X122342379Y-85115714D01*
X122437617Y-85163333D01*
X122485236Y-85210952D01*
X122532855Y-85306190D01*
X122532855Y-85591905D01*
X122485236Y-85687143D01*
X122437617Y-85734762D01*
X122342379Y-85782381D01*
X122199521Y-85782381D01*
X124151903Y-84782381D02*
X123961426Y-84782381D01*
X123866188Y-84830000D01*
X123818569Y-84877619D01*
X123723331Y-85020476D01*
X123675712Y-85210952D01*
X123675712Y-85591905D01*
X123723331Y-85687143D01*
X123770950Y-85734762D01*
X123866188Y-85782381D01*
X124056665Y-85782381D01*
X124151903Y-85734762D01*
X124199522Y-85687143D01*
X124247141Y-85591905D01*
X124247141Y-85353810D01*
X124199522Y-85258571D01*
X124151903Y-85210952D01*
X124056665Y-85163333D01*
X123866188Y-85163333D01*
X123770950Y-85210952D01*
X123723331Y-85258571D01*
X123675712Y-85353810D01*
X124866188Y-84782381D02*
X124961427Y-84782381D01*
X125056665Y-84830000D01*
X125104284Y-84877619D01*
X125151903Y-84972857D01*
X125199522Y-85163333D01*
X125199522Y-85401429D01*
X125151903Y-85591905D01*
X125104284Y-85687143D01*
X125056665Y-85734762D01*
X124961427Y-85782381D01*
X124866188Y-85782381D01*
X124770950Y-85734762D01*
X124723331Y-85687143D01*
X124675712Y-85591905D01*
X124628093Y-85401429D01*
X124628093Y-85163333D01*
X124675712Y-84972857D01*
X124723331Y-84877619D01*
X124770950Y-84830000D01*
X124866188Y-84782381D01*
X125628093Y-85782381D02*
X125628093Y-85115714D01*
X125628093Y-85210952D02*
X125675712Y-85163333D01*
X125770950Y-85115714D01*
X125913808Y-85115714D01*
X126009046Y-85163333D01*
X126056665Y-85258571D01*
X126056665Y-85782381D01*
X126056665Y-85258571D02*
X126104284Y-85163333D01*
X126199522Y-85115714D01*
X126342379Y-85115714D01*
X126437617Y-85163333D01*
X126485236Y-85258571D01*
X126485236Y-85782381D01*
X126913807Y-85496667D02*
X127389998Y-85496667D01*
X126818569Y-85782381D02*
X127151902Y-84782381D01*
X127485236Y-85782381D01*
X129009046Y-85734762D02*
X128913808Y-85782381D01*
X128723331Y-85782381D01*
X128628093Y-85734762D01*
X128580474Y-85687143D01*
X128532855Y-85591905D01*
X128532855Y-85306190D01*
X128580474Y-85210952D01*
X128628093Y-85163333D01*
X128723331Y-85115714D01*
X128913808Y-85115714D01*
X129009046Y-85163333D01*
X129866189Y-85115714D02*
X129866189Y-85782381D01*
X129437617Y-85115714D02*
X129437617Y-85639524D01*
X129485236Y-85734762D01*
X129580474Y-85782381D01*
X129723332Y-85782381D01*
X129818570Y-85734762D01*
X129866189Y-85687143D01*
X130342379Y-85782381D02*
X130342379Y-85115714D01*
X130342379Y-85306190D02*
X130389998Y-85210952D01*
X130437617Y-85163333D01*
X130532855Y-85115714D01*
X130628094Y-85115714D01*
X130961427Y-85782381D02*
X130961427Y-85115714D01*
X130961427Y-85306190D02*
X131009046Y-85210952D01*
X131056665Y-85163333D01*
X131151903Y-85115714D01*
X131247142Y-85115714D01*
X131961428Y-85734762D02*
X131866190Y-85782381D01*
X131675713Y-85782381D01*
X131580475Y-85734762D01*
X131532856Y-85639524D01*
X131532856Y-85258571D01*
X131580475Y-85163333D01*
X131675713Y-85115714D01*
X131866190Y-85115714D01*
X131961428Y-85163333D01*
X132009047Y-85258571D01*
X132009047Y-85353810D01*
X131532856Y-85449048D01*
X132437618Y-85115714D02*
X132437618Y-85782381D01*
X132437618Y-85210952D02*
X132485237Y-85163333D01*
X132580475Y-85115714D01*
X132723333Y-85115714D01*
X132818571Y-85163333D01*
X132866190Y-85258571D01*
X132866190Y-85782381D01*
X133199523Y-85115714D02*
X133580475Y-85115714D01*
X133342380Y-84782381D02*
X133342380Y-85639524D01*
X133389999Y-85734762D01*
X133485237Y-85782381D01*
X133580475Y-85782381D01*
X134818571Y-85782381D02*
X134723333Y-85734762D01*
X134675714Y-85639524D01*
X134675714Y-84782381D01*
X135342381Y-85782381D02*
X135247143Y-85734762D01*
X135199524Y-85687143D01*
X135151905Y-85591905D01*
X135151905Y-85306190D01*
X135199524Y-85210952D01*
X135247143Y-85163333D01*
X135342381Y-85115714D01*
X135485239Y-85115714D01*
X135580477Y-85163333D01*
X135628096Y-85210952D01*
X135675715Y-85306190D01*
X135675715Y-85591905D01*
X135628096Y-85687143D01*
X135580477Y-85734762D01*
X135485239Y-85782381D01*
X135342381Y-85782381D01*
X136247143Y-85782381D02*
X136151905Y-85734762D01*
X136104286Y-85687143D01*
X136056667Y-85591905D01*
X136056667Y-85306190D01*
X136104286Y-85210952D01*
X136151905Y-85163333D01*
X136247143Y-85115714D01*
X136390001Y-85115714D01*
X136485239Y-85163333D01*
X136532858Y-85210952D01*
X136580477Y-85306190D01*
X136580477Y-85591905D01*
X136532858Y-85687143D01*
X136485239Y-85734762D01*
X136390001Y-85782381D01*
X136247143Y-85782381D01*
X137009048Y-85115714D02*
X137009048Y-86115714D01*
X137009048Y-85163333D02*
X137104286Y-85115714D01*
X137294763Y-85115714D01*
X137390001Y-85163333D01*
X137437620Y-85210952D01*
X137485239Y-85306190D01*
X137485239Y-85591905D01*
X137437620Y-85687143D01*
X137390001Y-85734762D01*
X137294763Y-85782381D01*
X137104286Y-85782381D01*
X137009048Y-85734762D01*
X138532858Y-84782381D02*
X139104287Y-84782381D01*
X138818572Y-85782381D02*
X138818572Y-84782381D01*
X139818573Y-85734762D02*
X139723335Y-85782381D01*
X139532858Y-85782381D01*
X139437620Y-85734762D01*
X139390001Y-85639524D01*
X139390001Y-85258571D01*
X139437620Y-85163333D01*
X139532858Y-85115714D01*
X139723335Y-85115714D01*
X139818573Y-85163333D01*
X139866192Y-85258571D01*
X139866192Y-85353810D01*
X139390001Y-85449048D01*
X140437620Y-85782381D02*
X140342382Y-85734762D01*
X140294763Y-85639524D01*
X140294763Y-84782381D01*
X141199526Y-85734762D02*
X141104288Y-85782381D01*
X140913811Y-85782381D01*
X140818573Y-85734762D01*
X140770954Y-85639524D01*
X140770954Y-85258571D01*
X140818573Y-85163333D01*
X140913811Y-85115714D01*
X141104288Y-85115714D01*
X141199526Y-85163333D01*
X141247145Y-85258571D01*
X141247145Y-85353810D01*
X140770954Y-85449048D01*
X141532859Y-85115714D02*
X141913811Y-85115714D01*
X141675716Y-84782381D02*
X141675716Y-85639524D01*
X141723335Y-85734762D01*
X141818573Y-85782381D01*
X141913811Y-85782381D01*
X142151907Y-85115714D02*
X142390002Y-85782381D01*
X142628098Y-85115714D02*
X142390002Y-85782381D01*
X142294764Y-86020476D01*
X142247145Y-86068095D01*
X142151907Y-86115714D01*
X143009050Y-85115714D02*
X143009050Y-86115714D01*
X143009050Y-85163333D02*
X143104288Y-85115714D01*
X143294765Y-85115714D01*
X143390003Y-85163333D01*
X143437622Y-85210952D01*
X143485241Y-85306190D01*
X143485241Y-85591905D01*
X143437622Y-85687143D01*
X143390003Y-85734762D01*
X143294765Y-85782381D01*
X143104288Y-85782381D01*
X143009050Y-85734762D01*
X144294765Y-85734762D02*
X144199527Y-85782381D01*
X144009050Y-85782381D01*
X143913812Y-85734762D01*
X143866193Y-85639524D01*
X143866193Y-85258571D01*
X143913812Y-85163333D01*
X144009050Y-85115714D01*
X144199527Y-85115714D01*
X144294765Y-85163333D01*
X144342384Y-85258571D01*
X144342384Y-85353810D01*
X143866193Y-85449048D01*
X145961432Y-85782381D02*
X145961432Y-84782381D01*
X145961432Y-85734762D02*
X145866194Y-85782381D01*
X145675717Y-85782381D01*
X145580479Y-85734762D01*
X145532860Y-85687143D01*
X145485241Y-85591905D01*
X145485241Y-85306190D01*
X145532860Y-85210952D01*
X145580479Y-85163333D01*
X145675717Y-85115714D01*
X145866194Y-85115714D01*
X145961432Y-85163333D01*
X146437622Y-85782381D02*
X146437622Y-85115714D01*
X146437622Y-85306190D02*
X146485241Y-85210952D01*
X146532860Y-85163333D01*
X146628098Y-85115714D01*
X146723337Y-85115714D01*
X147056670Y-85782381D02*
X147056670Y-85115714D01*
X147056670Y-84782381D02*
X147009051Y-84830000D01*
X147056670Y-84877619D01*
X147104289Y-84830000D01*
X147056670Y-84782381D01*
X147056670Y-84877619D01*
X147437622Y-85115714D02*
X147675717Y-85782381D01*
X147913813Y-85115714D01*
X148675718Y-85734762D02*
X148580480Y-85782381D01*
X148390003Y-85782381D01*
X148294765Y-85734762D01*
X148247146Y-85639524D01*
X148247146Y-85258571D01*
X148294765Y-85163333D01*
X148390003Y-85115714D01*
X148580480Y-85115714D01*
X148675718Y-85163333D01*
X148723337Y-85258571D01*
X148723337Y-85353810D01*
X148247146Y-85449048D01*
X149151908Y-85782381D02*
X149151908Y-85115714D01*
X149151908Y-85306190D02*
X149199527Y-85210952D01*
X149247146Y-85163333D01*
X149342384Y-85115714D01*
X149437623Y-85115714D01*
X151151909Y-84782381D02*
X151485242Y-85782381D01*
X151818576Y-84782381D01*
X152675719Y-85782381D02*
X152104290Y-85782381D01*
X152390004Y-85782381D02*
X152390004Y-84782381D01*
X152294766Y-84925238D01*
X152199528Y-85020476D01*
X152104290Y-85068095D01*
X153104290Y-85687143D02*
X153151909Y-85734762D01*
X153104290Y-85782381D01*
X153056671Y-85734762D01*
X153104290Y-85687143D01*
X153104290Y-85782381D01*
X154104290Y-85782381D02*
X153532861Y-85782381D01*
X153818575Y-85782381D02*
X153818575Y-84782381D01*
X153723337Y-84925238D01*
X153628099Y-85020476D01*
X153532861Y-85068095D01*
D13*
X56080000Y-104140000D02*
X56080000Y-83820000D01*
X100330000Y-104140000D02*
X56080000Y-104140000D01*
X100330000Y-83820000D02*
X100330000Y-104140000D01*
X56080000Y-83820000D02*
X100330000Y-83820000D01*
X144645000Y-97545000D02*
X144645000Y-96275000D01*
X137295000Y-97545000D02*
X137295000Y-96275000D01*
X137295000Y-87875000D02*
X137295000Y-89145000D01*
X144645000Y-87875000D02*
X144645000Y-89145000D01*
X144645000Y-97545000D02*
X137295000Y-97545000D01*
X144645000Y-87875000D02*
X137295000Y-87875000D01*
X144645000Y-96275000D02*
X145580000Y-96275000D01*
X60325000Y-110490000D02*
X65405000Y-110490000D01*
X60325000Y-106045000D02*
X65405000Y-106045000D01*
X65405000Y-112395000D02*
X60325000Y-112395000D01*
X65405000Y-112395000D02*
X65405000Y-106045000D01*
X60325000Y-112395000D02*
X60325000Y-106045000D01*
X82591000Y-109165000D02*
X87589000Y-109165000D01*
X82599000Y-109025000D02*
X87581000Y-109025000D01*
X82615000Y-108885000D02*
X84995000Y-108885000D01*
X85185000Y-108885000D02*
X87565000Y-108885000D01*
X82639000Y-108745000D02*
X84600000Y-108745000D01*
X85580000Y-108745000D02*
X87541000Y-108745000D01*
X82672000Y-108605000D02*
X84433000Y-108605000D01*
X85747000Y-108605000D02*
X87508000Y-108605000D01*
X82713000Y-108465000D02*
X84326000Y-108465000D01*
X85854000Y-108465000D02*
X87467000Y-108465000D01*
X82763000Y-108325000D02*
X84255000Y-108325000D01*
X85925000Y-108325000D02*
X87417000Y-108325000D01*
X82824000Y-108185000D02*
X84211000Y-108185000D01*
X85969000Y-108185000D02*
X87356000Y-108185000D01*
X82894000Y-108045000D02*
X84192000Y-108045000D01*
X85988000Y-108045000D02*
X87286000Y-108045000D01*
X82976000Y-107905000D02*
X84194000Y-107905000D01*
X85986000Y-107905000D02*
X87204000Y-107905000D01*
X83071000Y-107765000D02*
X84219000Y-107765000D01*
X85961000Y-107765000D02*
X87109000Y-107765000D01*
X83182000Y-107625000D02*
X84267000Y-107625000D01*
X85913000Y-107625000D02*
X86998000Y-107625000D01*
X83310000Y-107485000D02*
X84345000Y-107485000D01*
X85835000Y-107485000D02*
X86870000Y-107485000D01*
X83459000Y-107345000D02*
X84462000Y-107345000D01*
X85718000Y-107345000D02*
X86721000Y-107345000D01*
X83638000Y-107205000D02*
X84650000Y-107205000D01*
X85530000Y-107205000D02*
X86542000Y-107205000D01*
X83857000Y-107065000D02*
X86323000Y-107065000D01*
X84146000Y-106925000D02*
X86034000Y-106925000D01*
X84618000Y-106785000D02*
X85562000Y-106785000D01*
X85990000Y-107990000D02*
G75*
G03X85990000Y-107990000I-900000J0D01*
G01*
X87627500Y-109240000D02*
G75*
G03X87627500Y-109240000I-2537500J0D01*
G01*
X131060000Y-123170000D02*
X128060000Y-123170000D01*
X128060000Y-120670000D02*
X131060000Y-120670000D01*
X131060000Y-128250000D02*
X128060000Y-128250000D01*
X128060000Y-125750000D02*
X131060000Y-125750000D01*
X128016520Y-144777460D02*
X129413520Y-144777460D01*
X123571520Y-144777460D02*
X122047520Y-144777460D01*
X123952520Y-144015460D02*
X123952520Y-145539460D01*
X123698520Y-144015460D02*
X123698520Y-145539460D01*
X123444520Y-144777460D02*
X123444520Y-145539460D01*
X123444520Y-145539460D02*
X128016520Y-145539460D01*
X128016520Y-145539460D02*
X128016520Y-144015460D01*
X128016520Y-144015460D02*
X123444520Y-144015460D01*
X123444520Y-144015460D02*
X123444520Y-144777460D01*
X66293480Y-119382540D02*
X64896480Y-119382540D01*
X70738480Y-119382540D02*
X72262480Y-119382540D01*
X70357480Y-120144540D02*
X70357480Y-118620540D01*
X70611480Y-120144540D02*
X70611480Y-118620540D01*
X70865480Y-119382540D02*
X70865480Y-118620540D01*
X70865480Y-118620540D02*
X66293480Y-118620540D01*
X66293480Y-118620540D02*
X66293480Y-120144540D01*
X66293480Y-120144540D02*
X70865480Y-120144540D01*
X70865480Y-120144540D02*
X70865480Y-119382540D01*
X138683480Y-140972540D02*
X137286480Y-140972540D01*
X143128480Y-140972540D02*
X144652480Y-140972540D01*
X142747480Y-141734540D02*
X142747480Y-140210540D01*
X143001480Y-141734540D02*
X143001480Y-140210540D01*
X143255480Y-140972540D02*
X143255480Y-140210540D01*
X143255480Y-140210540D02*
X138683480Y-140210540D01*
X138683480Y-140210540D02*
X138683480Y-141734540D01*
X138683480Y-141734540D02*
X143255480Y-141734540D01*
X143255480Y-141734540D02*
X143255480Y-140972540D01*
X66293480Y-123192540D02*
X64896480Y-123192540D01*
X70738480Y-123192540D02*
X72262480Y-123192540D01*
X70357480Y-123954540D02*
X70357480Y-122430540D01*
X70611480Y-123954540D02*
X70611480Y-122430540D01*
X70865480Y-123192540D02*
X70865480Y-122430540D01*
X70865480Y-122430540D02*
X66293480Y-122430540D01*
X66293480Y-122430540D02*
X66293480Y-123954540D01*
X66293480Y-123954540D02*
X70865480Y-123954540D01*
X70865480Y-123954540D02*
X70865480Y-123192540D01*
X138683480Y-125732540D02*
X137286480Y-125732540D01*
X143128480Y-125732540D02*
X144652480Y-125732540D01*
X142747480Y-126494540D02*
X142747480Y-124970540D01*
X143001480Y-126494540D02*
X143001480Y-124970540D01*
X143255480Y-125732540D02*
X143255480Y-124970540D01*
X143255480Y-124970540D02*
X138683480Y-124970540D01*
X138683480Y-124970540D02*
X138683480Y-126494540D01*
X138683480Y-126494540D02*
X143255480Y-126494540D01*
X143255480Y-126494540D02*
X143255480Y-125732540D01*
X66293480Y-127002540D02*
X64896480Y-127002540D01*
X70738480Y-127002540D02*
X72262480Y-127002540D01*
X70357480Y-127764540D02*
X70357480Y-126240540D01*
X70611480Y-127764540D02*
X70611480Y-126240540D01*
X70865480Y-127002540D02*
X70865480Y-126240540D01*
X70865480Y-126240540D02*
X66293480Y-126240540D01*
X66293480Y-126240540D02*
X66293480Y-127764540D01*
X66293480Y-127764540D02*
X70865480Y-127764540D01*
X70865480Y-127764540D02*
X70865480Y-127002540D01*
X71120000Y-135890000D02*
X66040000Y-135890000D01*
X66040000Y-135890000D02*
X66040000Y-133350000D01*
X66040000Y-133350000D02*
X71120000Y-133350000D01*
X71120000Y-133350000D02*
X71120000Y-135890000D01*
X71120000Y-134620000D02*
X72390000Y-134620000D01*
X66040000Y-134620000D02*
X64770000Y-134620000D01*
X138430000Y-143510000D02*
X143510000Y-143510000D01*
X143510000Y-143510000D02*
X143510000Y-146050000D01*
X143510000Y-146050000D02*
X138430000Y-146050000D01*
X138430000Y-146050000D02*
X138430000Y-143510000D01*
X138430000Y-144780000D02*
X137160000Y-144780000D01*
X143510000Y-144780000D02*
X144780000Y-144780000D01*
X138430000Y-120650000D02*
X143510000Y-120650000D01*
X143510000Y-120650000D02*
X143510000Y-123190000D01*
X143510000Y-123190000D02*
X138430000Y-123190000D01*
X138430000Y-123190000D02*
X138430000Y-120650000D01*
X138430000Y-121920000D02*
X137160000Y-121920000D01*
X143510000Y-121920000D02*
X144780000Y-121920000D01*
X138430000Y-135890000D02*
X143510000Y-135890000D01*
X143510000Y-135890000D02*
X143510000Y-138430000D01*
X143510000Y-138430000D02*
X138430000Y-138430000D01*
X138430000Y-138430000D02*
X138430000Y-135890000D01*
X138430000Y-137160000D02*
X137160000Y-137160000D01*
X143510000Y-137160000D02*
X144780000Y-137160000D01*
X138430000Y-128270000D02*
X143510000Y-128270000D01*
X143510000Y-128270000D02*
X143510000Y-130810000D01*
X143510000Y-130810000D02*
X138430000Y-130810000D01*
X138430000Y-130810000D02*
X138430000Y-128270000D01*
X138430000Y-129540000D02*
X137160000Y-129540000D01*
X143510000Y-129540000D02*
X144780000Y-129540000D01*
X143510000Y-134620000D02*
X138430000Y-134620000D01*
X138430000Y-134620000D02*
X138430000Y-132080000D01*
X138430000Y-132080000D02*
X143510000Y-132080000D01*
X143510000Y-132080000D02*
X143510000Y-134620000D01*
X143510000Y-133350000D02*
X144780000Y-133350000D01*
X138430000Y-133350000D02*
X137160000Y-133350000D01*
X157480000Y-96520000D02*
X162560000Y-96520000D01*
X162560000Y-96520000D02*
X162560000Y-99060000D01*
X162560000Y-99060000D02*
X157480000Y-99060000D01*
X157480000Y-99060000D02*
X157480000Y-96520000D01*
X157480000Y-97790000D02*
X156210000Y-97790000D01*
X162560000Y-97790000D02*
X163830000Y-97790000D01*
X106680000Y-143510000D02*
X111760000Y-143510000D01*
X111760000Y-143510000D02*
X111760000Y-146050000D01*
X111760000Y-146050000D02*
X106680000Y-146050000D01*
X106680000Y-146050000D02*
X106680000Y-143510000D01*
X106680000Y-144780000D02*
X105410000Y-144780000D01*
X111760000Y-144780000D02*
X113030000Y-144780000D01*
X93517107Y-127150000D02*
G75*
G03X93517107Y-127150000I-707107J0D01*
G01*
X107810000Y-132650000D02*
X107810000Y-108650000D01*
X107810000Y-108650000D02*
X90310000Y-108650000D01*
X90310000Y-108650000D02*
X90310000Y-132650000D01*
X90310000Y-132650000D02*
X107810000Y-132650000D01*
X130675000Y-141995000D02*
X130675000Y-140725000D01*
X123325000Y-141995000D02*
X123325000Y-140725000D01*
X123325000Y-129785000D02*
X123325000Y-131055000D01*
X130675000Y-129785000D02*
X130675000Y-131055000D01*
X130675000Y-141995000D02*
X123325000Y-141995000D01*
X130675000Y-129785000D02*
X123325000Y-129785000D01*
X130675000Y-140725000D02*
X131610000Y-140725000D01*
X125960000Y-101411000D02*
X125960000Y-109409000D01*
X126100000Y-101416000D02*
X126100000Y-109404000D01*
X126240000Y-101426000D02*
X126240000Y-109394000D01*
X126380000Y-101441000D02*
X126380000Y-109379000D01*
X126520000Y-101461000D02*
X126520000Y-109359000D01*
X126660000Y-101486000D02*
X126660000Y-105188000D01*
X126660000Y-105632000D02*
X126660000Y-109334000D01*
X126800000Y-101516000D02*
X126800000Y-104860000D01*
X126800000Y-105960000D02*
X126800000Y-109304000D01*
X126940000Y-101552000D02*
X126940000Y-104691000D01*
X126940000Y-106129000D02*
X126940000Y-109268000D01*
X127080000Y-101593000D02*
X127080000Y-104578000D01*
X127080000Y-106242000D02*
X127080000Y-109227000D01*
X127220000Y-101639000D02*
X127220000Y-104500000D01*
X127220000Y-106320000D02*
X127220000Y-109181000D01*
X127360000Y-101692000D02*
X127360000Y-104449000D01*
X127360000Y-106371000D02*
X127360000Y-109128000D01*
X127500000Y-101751000D02*
X127500000Y-104419000D01*
X127500000Y-106401000D02*
X127500000Y-109069000D01*
X127640000Y-101816000D02*
X127640000Y-104410000D01*
X127640000Y-106410000D02*
X127640000Y-109004000D01*
X127780000Y-101887000D02*
X127780000Y-104421000D01*
X127780000Y-106399000D02*
X127780000Y-108933000D01*
X127920000Y-101966000D02*
X127920000Y-104451000D01*
X127920000Y-106369000D02*
X127920000Y-108854000D01*
X128060000Y-102053000D02*
X128060000Y-104505000D01*
X128060000Y-106315000D02*
X128060000Y-108767000D01*
X128200000Y-102148000D02*
X128200000Y-104585000D01*
X128200000Y-106235000D02*
X128200000Y-108672000D01*
X128340000Y-102252000D02*
X128340000Y-104701000D01*
X128340000Y-106119000D02*
X128340000Y-108568000D01*
X128480000Y-102366000D02*
X128480000Y-104875000D01*
X128480000Y-105945000D02*
X128480000Y-108454000D01*
X128620000Y-102491000D02*
X128620000Y-105237000D01*
X128620000Y-105583000D02*
X128620000Y-108329000D01*
X128760000Y-102629000D02*
X128760000Y-108191000D01*
X128900000Y-102781000D02*
X128900000Y-108039000D01*
X129040000Y-102951000D02*
X129040000Y-107869000D01*
X129180000Y-103142000D02*
X129180000Y-107678000D01*
X129320000Y-103360000D02*
X129320000Y-107460000D01*
X129460000Y-103616000D02*
X129460000Y-107204000D01*
X129600000Y-103927000D02*
X129600000Y-106893000D01*
X129740000Y-104343000D02*
X129740000Y-106477000D01*
X129880000Y-105210000D02*
X129880000Y-105610000D01*
X128635000Y-105410000D02*
G75*
G03X128635000Y-105410000I-1000000J0D01*
G01*
X129922500Y-105410000D02*
G75*
G03X129922500Y-105410000I-4037500J0D01*
G01*
X144645000Y-112785000D02*
X144645000Y-111515000D01*
X137295000Y-112785000D02*
X137295000Y-111515000D01*
X137295000Y-100575000D02*
X137295000Y-101845000D01*
X144645000Y-100575000D02*
X144645000Y-101845000D01*
X144645000Y-112785000D02*
X137295000Y-112785000D01*
X144645000Y-100575000D02*
X137295000Y-100575000D01*
X144645000Y-111515000D02*
X145580000Y-111515000D01*
X132842000Y-88138000D02*
X121158000Y-88138000D01*
X121158000Y-88138000D02*
X121158000Y-94234000D01*
X132842000Y-88138000D02*
X132842000Y-94234000D01*
X132842000Y-94234000D02*
X121158000Y-94234000D01*
X98925000Y-145805000D02*
X98925000Y-144535000D01*
X91575000Y-145805000D02*
X91575000Y-144535000D01*
X91575000Y-136135000D02*
X91575000Y-137405000D01*
X98925000Y-136135000D02*
X98925000Y-137405000D01*
X98925000Y-145805000D02*
X91575000Y-145805000D01*
X98925000Y-136135000D02*
X91575000Y-136135000D01*
X98925000Y-144535000D02*
X99860000Y-144535000D01*
X157480000Y-104140000D02*
X162560000Y-104140000D01*
X162560000Y-104140000D02*
X162560000Y-106680000D01*
X162560000Y-106680000D02*
X157480000Y-106680000D01*
X157480000Y-106680000D02*
X157480000Y-104140000D01*
X157480000Y-105410000D02*
X156210000Y-105410000D01*
X162560000Y-105410000D02*
X163830000Y-105410000D01*
X157480000Y-100330000D02*
X162560000Y-100330000D01*
X162560000Y-100330000D02*
X162560000Y-102870000D01*
X162560000Y-102870000D02*
X157480000Y-102870000D01*
X157480000Y-102870000D02*
X157480000Y-100330000D01*
X157480000Y-101600000D02*
X156210000Y-101600000D01*
X162560000Y-101600000D02*
X163830000Y-101600000D01*
X71120000Y-112395000D02*
X68580000Y-112395000D01*
X71120000Y-106045000D02*
X68580000Y-106045000D01*
X71120000Y-110490000D02*
X68580000Y-110490000D01*
X78740000Y-112395000D02*
X78740000Y-106045000D01*
X68580000Y-112395000D02*
X68580000Y-106045000D01*
X71120000Y-110490000D02*
X78740000Y-110490000D01*
X78740000Y-112395000D02*
X71120000Y-112395000D01*
X71120000Y-106045000D02*
X78740000Y-106045000D01*
X83185000Y-135890000D02*
X88265000Y-135890000D01*
X83185000Y-131445000D02*
X88265000Y-131445000D01*
X88265000Y-137795000D02*
X83185000Y-137795000D01*
X88265000Y-137795000D02*
X88265000Y-131445000D01*
X83185000Y-137795000D02*
X83185000Y-131445000D01*
X156972000Y-135890000D02*
X156972000Y-120650000D01*
X163322000Y-135890000D02*
X163322000Y-120650000D01*
X156972000Y-138430000D02*
X156972000Y-135890000D01*
X163322000Y-138430000D02*
X163322000Y-135890000D01*
X158877000Y-138430000D02*
X158877000Y-135890000D01*
X156972000Y-146050000D02*
X163322000Y-146050000D01*
X156972000Y-120650000D02*
X163322000Y-120650000D01*
X158877000Y-138430000D02*
X158877000Y-146050000D01*
X156972000Y-146050000D02*
X156972000Y-138430000D01*
X163322000Y-138430000D02*
X163322000Y-146050000D01*
X158877000Y-128270000D02*
X158877000Y-135890000D01*
X158877000Y-128270000D02*
X158877000Y-123190000D01*
X158877000Y-123190000D02*
X158877000Y-120650000D01*
X110744000Y-125984000D02*
X114173000Y-125984000D01*
X110744000Y-135636000D02*
X114173000Y-135636000D01*
X109601000Y-125476000D02*
X109601000Y-136144000D01*
X110617000Y-129032000D02*
X109347000Y-129032000D01*
X110617000Y-132588000D02*
X109347000Y-132588000D01*
X110744000Y-136144000D02*
X110744000Y-125476000D01*
X114173000Y-125476000D02*
X114173000Y-136144000D01*
X109347000Y-136144000D02*
X114173000Y-136144000D01*
X109347000Y-125476000D02*
X114173000Y-125476000D01*
X109347000Y-125476000D02*
X109347000Y-136144000D01*
X74160000Y-140680000D02*
X68160000Y-140680000D01*
X68160000Y-136180000D02*
X74160000Y-136180000D01*
X71120000Y-132080000D02*
X66040000Y-132080000D01*
X66040000Y-132080000D02*
X66040000Y-129540000D01*
X66040000Y-129540000D02*
X71120000Y-129540000D01*
X71120000Y-129540000D02*
X71120000Y-132080000D01*
X71120000Y-130810000D02*
X72390000Y-130810000D01*
X66040000Y-130810000D02*
X64770000Y-130810000D01*
X105283095Y-83272381D02*
X105283095Y-84081905D01*
X105330714Y-84177143D01*
X105378333Y-84224762D01*
X105473571Y-84272381D01*
X105664048Y-84272381D01*
X105759286Y-84224762D01*
X105806905Y-84177143D01*
X105854524Y-84081905D01*
X105854524Y-83272381D01*
X106235476Y-83272381D02*
X106854524Y-83272381D01*
X106521190Y-83653333D01*
X106664048Y-83653333D01*
X106759286Y-83700952D01*
X106806905Y-83748571D01*
X106854524Y-83843810D01*
X106854524Y-84081905D01*
X106806905Y-84177143D01*
X106759286Y-84224762D01*
X106664048Y-84272381D01*
X106378333Y-84272381D01*
X106283095Y-84224762D01*
X106235476Y-84177143D01*
X74115713Y-94427143D02*
X74068094Y-94474762D01*
X73925237Y-94522381D01*
X73829999Y-94522381D01*
X73687141Y-94474762D01*
X73591903Y-94379524D01*
X73544284Y-94284286D01*
X73496665Y-94093810D01*
X73496665Y-93950952D01*
X73544284Y-93760476D01*
X73591903Y-93665238D01*
X73687141Y-93570000D01*
X73829999Y-93522381D01*
X73925237Y-93522381D01*
X74068094Y-93570000D01*
X74115713Y-93617619D01*
X74544284Y-94522381D02*
X74544284Y-93522381D01*
X74925237Y-93522381D01*
X75020475Y-93570000D01*
X75068094Y-93617619D01*
X75115713Y-93712857D01*
X75115713Y-93855714D01*
X75068094Y-93950952D01*
X75020475Y-93998571D01*
X74925237Y-94046190D01*
X74544284Y-94046190D01*
X75496665Y-93617619D02*
X75544284Y-93570000D01*
X75639522Y-93522381D01*
X75877618Y-93522381D01*
X75972856Y-93570000D01*
X76020475Y-93617619D01*
X76068094Y-93712857D01*
X76068094Y-93808095D01*
X76020475Y-93950952D01*
X75449046Y-94522381D01*
X76068094Y-94522381D01*
X77020475Y-94522381D02*
X76449046Y-94522381D01*
X76734760Y-94522381D02*
X76734760Y-93522381D01*
X76639522Y-93665238D01*
X76544284Y-93760476D01*
X76449046Y-93808095D01*
X77639522Y-93522381D02*
X77734761Y-93522381D01*
X77829999Y-93570000D01*
X77877618Y-93617619D01*
X77925237Y-93712857D01*
X77972856Y-93903333D01*
X77972856Y-94141429D01*
X77925237Y-94331905D01*
X77877618Y-94427143D01*
X77829999Y-94474762D01*
X77734761Y-94522381D01*
X77639522Y-94522381D01*
X77544284Y-94474762D01*
X77496665Y-94427143D01*
X77449046Y-94331905D01*
X77401427Y-94141429D01*
X77401427Y-93903333D01*
X77449046Y-93712857D01*
X77496665Y-93617619D01*
X77544284Y-93570000D01*
X77639522Y-93522381D01*
X78353808Y-93617619D02*
X78401427Y-93570000D01*
X78496665Y-93522381D01*
X78734761Y-93522381D01*
X78829999Y-93570000D01*
X78877618Y-93617619D01*
X78925237Y-93712857D01*
X78925237Y-93808095D01*
X78877618Y-93950952D01*
X78306189Y-94522381D01*
X78925237Y-94522381D01*
X80115713Y-94522381D02*
X80115713Y-93522381D01*
X80115713Y-93903333D02*
X80210951Y-93855714D01*
X80401428Y-93855714D01*
X80496666Y-93903333D01*
X80544285Y-93950952D01*
X80591904Y-94046190D01*
X80591904Y-94331905D01*
X80544285Y-94427143D01*
X80496666Y-94474762D01*
X80401428Y-94522381D01*
X80210951Y-94522381D01*
X80115713Y-94474762D01*
X81020475Y-94522381D02*
X81020475Y-93855714D01*
X81020475Y-94046190D02*
X81068094Y-93950952D01*
X81115713Y-93903333D01*
X81210951Y-93855714D01*
X81306190Y-93855714D01*
X82020476Y-94474762D02*
X81925238Y-94522381D01*
X81734761Y-94522381D01*
X81639523Y-94474762D01*
X81591904Y-94379524D01*
X81591904Y-93998571D01*
X81639523Y-93903333D01*
X81734761Y-93855714D01*
X81925238Y-93855714D01*
X82020476Y-93903333D01*
X82068095Y-93998571D01*
X82068095Y-94093810D01*
X81591904Y-94189048D01*
X82925238Y-94522381D02*
X82925238Y-93998571D01*
X82877619Y-93903333D01*
X82782381Y-93855714D01*
X82591904Y-93855714D01*
X82496666Y-93903333D01*
X82925238Y-94474762D02*
X82830000Y-94522381D01*
X82591904Y-94522381D01*
X82496666Y-94474762D01*
X82449047Y-94379524D01*
X82449047Y-94284286D01*
X82496666Y-94189048D01*
X82591904Y-94141429D01*
X82830000Y-94141429D01*
X82925238Y-94093810D01*
X83401428Y-94522381D02*
X83401428Y-93522381D01*
X83496666Y-94141429D02*
X83782381Y-94522381D01*
X83782381Y-93855714D02*
X83401428Y-94236667D01*
X84353809Y-94522381D02*
X84258571Y-94474762D01*
X84210952Y-94427143D01*
X84163333Y-94331905D01*
X84163333Y-94046190D01*
X84210952Y-93950952D01*
X84258571Y-93903333D01*
X84353809Y-93855714D01*
X84496667Y-93855714D01*
X84591905Y-93903333D01*
X84639524Y-93950952D01*
X84687143Y-94046190D01*
X84687143Y-94331905D01*
X84639524Y-94427143D01*
X84591905Y-94474762D01*
X84496667Y-94522381D01*
X84353809Y-94522381D01*
X85544286Y-93855714D02*
X85544286Y-94522381D01*
X85115714Y-93855714D02*
X85115714Y-94379524D01*
X85163333Y-94474762D01*
X85258571Y-94522381D01*
X85401429Y-94522381D01*
X85496667Y-94474762D01*
X85544286Y-94427143D01*
X85877619Y-93855714D02*
X86258571Y-93855714D01*
X86020476Y-93522381D02*
X86020476Y-94379524D01*
X86068095Y-94474762D01*
X86163333Y-94522381D01*
X86258571Y-94522381D01*
X87353810Y-94522381D02*
X87353810Y-93522381D01*
X87353810Y-93903333D02*
X87449048Y-93855714D01*
X87639525Y-93855714D01*
X87734763Y-93903333D01*
X87782382Y-93950952D01*
X87830001Y-94046190D01*
X87830001Y-94331905D01*
X87782382Y-94427143D01*
X87734763Y-94474762D01*
X87639525Y-94522381D01*
X87449048Y-94522381D01*
X87353810Y-94474762D01*
X88401429Y-94522381D02*
X88306191Y-94474762D01*
X88258572Y-94427143D01*
X88210953Y-94331905D01*
X88210953Y-94046190D01*
X88258572Y-93950952D01*
X88306191Y-93903333D01*
X88401429Y-93855714D01*
X88544287Y-93855714D01*
X88639525Y-93903333D01*
X88687144Y-93950952D01*
X88734763Y-94046190D01*
X88734763Y-94331905D01*
X88687144Y-94427143D01*
X88639525Y-94474762D01*
X88544287Y-94522381D01*
X88401429Y-94522381D01*
X89591906Y-94522381D02*
X89591906Y-93998571D01*
X89544287Y-93903333D01*
X89449049Y-93855714D01*
X89258572Y-93855714D01*
X89163334Y-93903333D01*
X89591906Y-94474762D02*
X89496668Y-94522381D01*
X89258572Y-94522381D01*
X89163334Y-94474762D01*
X89115715Y-94379524D01*
X89115715Y-94284286D01*
X89163334Y-94189048D01*
X89258572Y-94141429D01*
X89496668Y-94141429D01*
X89591906Y-94093810D01*
X90068096Y-94522381D02*
X90068096Y-93855714D01*
X90068096Y-94046190D02*
X90115715Y-93950952D01*
X90163334Y-93903333D01*
X90258572Y-93855714D01*
X90353811Y-93855714D01*
X91115716Y-94522381D02*
X91115716Y-93522381D01*
X91115716Y-94474762D02*
X91020478Y-94522381D01*
X90830001Y-94522381D01*
X90734763Y-94474762D01*
X90687144Y-94427143D01*
X90639525Y-94331905D01*
X90639525Y-94046190D01*
X90687144Y-93950952D01*
X90734763Y-93903333D01*
X90830001Y-93855714D01*
X91020478Y-93855714D01*
X91115716Y-93903333D01*
X147193095Y-90892381D02*
X147193095Y-91701905D01*
X147240714Y-91797143D01*
X147288333Y-91844762D01*
X147383571Y-91892381D01*
X147574048Y-91892381D01*
X147669286Y-91844762D01*
X147716905Y-91797143D01*
X147764524Y-91701905D01*
X147764524Y-90892381D01*
X148669286Y-90892381D02*
X148478809Y-90892381D01*
X148383571Y-90940000D01*
X148335952Y-90987619D01*
X148240714Y-91130476D01*
X148193095Y-91320952D01*
X148193095Y-91701905D01*
X148240714Y-91797143D01*
X148288333Y-91844762D01*
X148383571Y-91892381D01*
X148574048Y-91892381D01*
X148669286Y-91844762D01*
X148716905Y-91797143D01*
X148764524Y-91701905D01*
X148764524Y-91463810D01*
X148716905Y-91368571D01*
X148669286Y-91320952D01*
X148574048Y-91273333D01*
X148383571Y-91273333D01*
X148288333Y-91320952D01*
X148240714Y-91368571D01*
X148193095Y-91463810D01*
X62126905Y-113572381D02*
X62126905Y-112572381D01*
X62507858Y-112572381D01*
X62603096Y-112620000D01*
X62650715Y-112667619D01*
X62698334Y-112762857D01*
X62698334Y-112905714D01*
X62650715Y-113000952D01*
X62603096Y-113048571D01*
X62507858Y-113096190D01*
X62126905Y-113096190D01*
X63031667Y-112572381D02*
X63650715Y-112572381D01*
X63317381Y-112953333D01*
X63460239Y-112953333D01*
X63555477Y-113000952D01*
X63603096Y-113048571D01*
X63650715Y-113143810D01*
X63650715Y-113381905D01*
X63603096Y-113477143D01*
X63555477Y-113524762D01*
X63460239Y-113572381D01*
X63174524Y-113572381D01*
X63079286Y-113524762D01*
X63031667Y-113477143D01*
X81123334Y-109597143D02*
X81075715Y-109644762D01*
X80932858Y-109692381D01*
X80837620Y-109692381D01*
X80694762Y-109644762D01*
X80599524Y-109549524D01*
X80551905Y-109454286D01*
X80504286Y-109263810D01*
X80504286Y-109120952D01*
X80551905Y-108930476D01*
X80599524Y-108835238D01*
X80694762Y-108740000D01*
X80837620Y-108692381D01*
X80932858Y-108692381D01*
X81075715Y-108740000D01*
X81123334Y-108787619D01*
X81504286Y-108787619D02*
X81551905Y-108740000D01*
X81647143Y-108692381D01*
X81885239Y-108692381D01*
X81980477Y-108740000D01*
X82028096Y-108787619D01*
X82075715Y-108882857D01*
X82075715Y-108978095D01*
X82028096Y-109120952D01*
X81456667Y-109692381D01*
X82075715Y-109692381D01*
X125563334Y-122277143D02*
X125515715Y-122324762D01*
X125372858Y-122372381D01*
X125277620Y-122372381D01*
X125134762Y-122324762D01*
X125039524Y-122229524D01*
X124991905Y-122134286D01*
X124944286Y-121943810D01*
X124944286Y-121800952D01*
X124991905Y-121610476D01*
X125039524Y-121515238D01*
X125134762Y-121420000D01*
X125277620Y-121372381D01*
X125372858Y-121372381D01*
X125515715Y-121420000D01*
X125563334Y-121467619D01*
X126420477Y-121705714D02*
X126420477Y-122372381D01*
X126182381Y-121324762D02*
X125944286Y-122039048D01*
X126563334Y-122039048D01*
X125563334Y-127357143D02*
X125515715Y-127404762D01*
X125372858Y-127452381D01*
X125277620Y-127452381D01*
X125134762Y-127404762D01*
X125039524Y-127309524D01*
X124991905Y-127214286D01*
X124944286Y-127023810D01*
X124944286Y-126880952D01*
X124991905Y-126690476D01*
X125039524Y-126595238D01*
X125134762Y-126500000D01*
X125277620Y-126452381D01*
X125372858Y-126452381D01*
X125515715Y-126500000D01*
X125563334Y-126547619D01*
X126468096Y-126452381D02*
X125991905Y-126452381D01*
X125944286Y-126928571D01*
X125991905Y-126880952D01*
X126087143Y-126833333D01*
X126325239Y-126833333D01*
X126420477Y-126880952D01*
X126468096Y-126928571D01*
X126515715Y-127023810D01*
X126515715Y-127261905D01*
X126468096Y-127357143D01*
X126420477Y-127404762D01*
X126325239Y-127452381D01*
X126087143Y-127452381D01*
X125991905Y-127404762D01*
X125944286Y-127357143D01*
X124991905Y-145232381D02*
X124991905Y-144232381D01*
X125230000Y-144232381D01*
X125372858Y-144280000D01*
X125468096Y-144375238D01*
X125515715Y-144470476D01*
X125563334Y-144660952D01*
X125563334Y-144803810D01*
X125515715Y-144994286D01*
X125468096Y-145089524D01*
X125372858Y-145184762D01*
X125230000Y-145232381D01*
X124991905Y-145232381D01*
X126515715Y-145232381D02*
X125944286Y-145232381D01*
X126230000Y-145232381D02*
X126230000Y-144232381D01*
X126134762Y-144375238D01*
X126039524Y-144470476D01*
X125944286Y-144518095D01*
X76731905Y-119832381D02*
X76731905Y-118832381D01*
X76970000Y-118832381D01*
X77112858Y-118880000D01*
X77208096Y-118975238D01*
X77255715Y-119070476D01*
X77303334Y-119260952D01*
X77303334Y-119403810D01*
X77255715Y-119594286D01*
X77208096Y-119689524D01*
X77112858Y-119784762D01*
X76970000Y-119832381D01*
X76731905Y-119832381D01*
X77684286Y-118927619D02*
X77731905Y-118880000D01*
X77827143Y-118832381D01*
X78065239Y-118832381D01*
X78160477Y-118880000D01*
X78208096Y-118927619D01*
X78255715Y-119022857D01*
X78255715Y-119118095D01*
X78208096Y-119260952D01*
X77636667Y-119832381D01*
X78255715Y-119832381D01*
X149121905Y-141422381D02*
X149121905Y-140422381D01*
X149360000Y-140422381D01*
X149502858Y-140470000D01*
X149598096Y-140565238D01*
X149645715Y-140660476D01*
X149693334Y-140850952D01*
X149693334Y-140993810D01*
X149645715Y-141184286D01*
X149598096Y-141279524D01*
X149502858Y-141374762D01*
X149360000Y-141422381D01*
X149121905Y-141422381D01*
X150026667Y-140422381D02*
X150645715Y-140422381D01*
X150312381Y-140803333D01*
X150455239Y-140803333D01*
X150550477Y-140850952D01*
X150598096Y-140898571D01*
X150645715Y-140993810D01*
X150645715Y-141231905D01*
X150598096Y-141327143D01*
X150550477Y-141374762D01*
X150455239Y-141422381D01*
X150169524Y-141422381D01*
X150074286Y-141374762D01*
X150026667Y-141327143D01*
X76731905Y-123642381D02*
X76731905Y-122642381D01*
X76970000Y-122642381D01*
X77112858Y-122690000D01*
X77208096Y-122785238D01*
X77255715Y-122880476D01*
X77303334Y-123070952D01*
X77303334Y-123213810D01*
X77255715Y-123404286D01*
X77208096Y-123499524D01*
X77112858Y-123594762D01*
X76970000Y-123642381D01*
X76731905Y-123642381D01*
X78160477Y-122975714D02*
X78160477Y-123642381D01*
X77922381Y-122594762D02*
X77684286Y-123309048D01*
X78303334Y-123309048D01*
X149121905Y-126182381D02*
X149121905Y-125182381D01*
X149360000Y-125182381D01*
X149502858Y-125230000D01*
X149598096Y-125325238D01*
X149645715Y-125420476D01*
X149693334Y-125610952D01*
X149693334Y-125753810D01*
X149645715Y-125944286D01*
X149598096Y-126039524D01*
X149502858Y-126134762D01*
X149360000Y-126182381D01*
X149121905Y-126182381D01*
X150598096Y-125182381D02*
X150121905Y-125182381D01*
X150074286Y-125658571D01*
X150121905Y-125610952D01*
X150217143Y-125563333D01*
X150455239Y-125563333D01*
X150550477Y-125610952D01*
X150598096Y-125658571D01*
X150645715Y-125753810D01*
X150645715Y-125991905D01*
X150598096Y-126087143D01*
X150550477Y-126134762D01*
X150455239Y-126182381D01*
X150217143Y-126182381D01*
X150121905Y-126134762D01*
X150074286Y-126087143D01*
X76731905Y-127452381D02*
X76731905Y-126452381D01*
X76970000Y-126452381D01*
X77112858Y-126500000D01*
X77208096Y-126595238D01*
X77255715Y-126690476D01*
X77303334Y-126880952D01*
X77303334Y-127023810D01*
X77255715Y-127214286D01*
X77208096Y-127309524D01*
X77112858Y-127404762D01*
X76970000Y-127452381D01*
X76731905Y-127452381D01*
X78160477Y-126452381D02*
X77970000Y-126452381D01*
X77874762Y-126500000D01*
X77827143Y-126547619D01*
X77731905Y-126690476D01*
X77684286Y-126880952D01*
X77684286Y-127261905D01*
X77731905Y-127357143D01*
X77779524Y-127404762D01*
X77874762Y-127452381D01*
X78065239Y-127452381D01*
X78160477Y-127404762D01*
X78208096Y-127357143D01*
X78255715Y-127261905D01*
X78255715Y-127023810D01*
X78208096Y-126928571D01*
X78160477Y-126880952D01*
X78065239Y-126833333D01*
X77874762Y-126833333D01*
X77779524Y-126880952D01*
X77731905Y-126928571D01*
X77684286Y-127023810D01*
X77303334Y-135072381D02*
X76970000Y-134596190D01*
X76731905Y-135072381D02*
X76731905Y-134072381D01*
X77112858Y-134072381D01*
X77208096Y-134120000D01*
X77255715Y-134167619D01*
X77303334Y-134262857D01*
X77303334Y-134405714D01*
X77255715Y-134500952D01*
X77208096Y-134548571D01*
X77112858Y-134596190D01*
X76731905Y-134596190D01*
X78255715Y-135072381D02*
X77684286Y-135072381D01*
X77970000Y-135072381D02*
X77970000Y-134072381D01*
X77874762Y-134215238D01*
X77779524Y-134310476D01*
X77684286Y-134358095D01*
X149693334Y-145232381D02*
X149360000Y-144756190D01*
X149121905Y-145232381D02*
X149121905Y-144232381D01*
X149502858Y-144232381D01*
X149598096Y-144280000D01*
X149645715Y-144327619D01*
X149693334Y-144422857D01*
X149693334Y-144565714D01*
X149645715Y-144660952D01*
X149598096Y-144708571D01*
X149502858Y-144756190D01*
X149121905Y-144756190D01*
X150074286Y-144327619D02*
X150121905Y-144280000D01*
X150217143Y-144232381D01*
X150455239Y-144232381D01*
X150550477Y-144280000D01*
X150598096Y-144327619D01*
X150645715Y-144422857D01*
X150645715Y-144518095D01*
X150598096Y-144660952D01*
X150026667Y-145232381D01*
X150645715Y-145232381D01*
X149693334Y-122372381D02*
X149360000Y-121896190D01*
X149121905Y-122372381D02*
X149121905Y-121372381D01*
X149502858Y-121372381D01*
X149598096Y-121420000D01*
X149645715Y-121467619D01*
X149693334Y-121562857D01*
X149693334Y-121705714D01*
X149645715Y-121800952D01*
X149598096Y-121848571D01*
X149502858Y-121896190D01*
X149121905Y-121896190D01*
X150026667Y-121372381D02*
X150645715Y-121372381D01*
X150312381Y-121753333D01*
X150455239Y-121753333D01*
X150550477Y-121800952D01*
X150598096Y-121848571D01*
X150645715Y-121943810D01*
X150645715Y-122181905D01*
X150598096Y-122277143D01*
X150550477Y-122324762D01*
X150455239Y-122372381D01*
X150169524Y-122372381D01*
X150074286Y-122324762D01*
X150026667Y-122277143D01*
X149693334Y-137612381D02*
X149360000Y-137136190D01*
X149121905Y-137612381D02*
X149121905Y-136612381D01*
X149502858Y-136612381D01*
X149598096Y-136660000D01*
X149645715Y-136707619D01*
X149693334Y-136802857D01*
X149693334Y-136945714D01*
X149645715Y-137040952D01*
X149598096Y-137088571D01*
X149502858Y-137136190D01*
X149121905Y-137136190D01*
X150550477Y-136945714D02*
X150550477Y-137612381D01*
X150312381Y-136564762D02*
X150074286Y-137279048D01*
X150693334Y-137279048D01*
X149693334Y-129992381D02*
X149360000Y-129516190D01*
X149121905Y-129992381D02*
X149121905Y-128992381D01*
X149502858Y-128992381D01*
X149598096Y-129040000D01*
X149645715Y-129087619D01*
X149693334Y-129182857D01*
X149693334Y-129325714D01*
X149645715Y-129420952D01*
X149598096Y-129468571D01*
X149502858Y-129516190D01*
X149121905Y-129516190D01*
X150598096Y-128992381D02*
X150121905Y-128992381D01*
X150074286Y-129468571D01*
X150121905Y-129420952D01*
X150217143Y-129373333D01*
X150455239Y-129373333D01*
X150550477Y-129420952D01*
X150598096Y-129468571D01*
X150645715Y-129563810D01*
X150645715Y-129801905D01*
X150598096Y-129897143D01*
X150550477Y-129944762D01*
X150455239Y-129992381D01*
X150217143Y-129992381D01*
X150121905Y-129944762D01*
X150074286Y-129897143D01*
X149693334Y-133802381D02*
X149360000Y-133326190D01*
X149121905Y-133802381D02*
X149121905Y-132802381D01*
X149502858Y-132802381D01*
X149598096Y-132850000D01*
X149645715Y-132897619D01*
X149693334Y-132992857D01*
X149693334Y-133135714D01*
X149645715Y-133230952D01*
X149598096Y-133278571D01*
X149502858Y-133326190D01*
X149121905Y-133326190D01*
X150550477Y-132802381D02*
X150360000Y-132802381D01*
X150264762Y-132850000D01*
X150217143Y-132897619D01*
X150121905Y-133040476D01*
X150074286Y-133230952D01*
X150074286Y-133611905D01*
X150121905Y-133707143D01*
X150169524Y-133754762D01*
X150264762Y-133802381D01*
X150455239Y-133802381D01*
X150550477Y-133754762D01*
X150598096Y-133707143D01*
X150645715Y-133611905D01*
X150645715Y-133373810D01*
X150598096Y-133278571D01*
X150550477Y-133230952D01*
X150455239Y-133183333D01*
X150264762Y-133183333D01*
X150169524Y-133230952D01*
X150121905Y-133278571D01*
X150074286Y-133373810D01*
X152233334Y-98242381D02*
X151900000Y-97766190D01*
X151661905Y-98242381D02*
X151661905Y-97242381D01*
X152042858Y-97242381D01*
X152138096Y-97290000D01*
X152185715Y-97337619D01*
X152233334Y-97432857D01*
X152233334Y-97575714D01*
X152185715Y-97670952D01*
X152138096Y-97718571D01*
X152042858Y-97766190D01*
X151661905Y-97766190D01*
X152566667Y-97242381D02*
X153233334Y-97242381D01*
X152804762Y-98242381D01*
X109053334Y-142692381D02*
X108720000Y-142216190D01*
X108481905Y-142692381D02*
X108481905Y-141692381D01*
X108862858Y-141692381D01*
X108958096Y-141740000D01*
X109005715Y-141787619D01*
X109053334Y-141882857D01*
X109053334Y-142025714D01*
X109005715Y-142120952D01*
X108958096Y-142168571D01*
X108862858Y-142216190D01*
X108481905Y-142216190D01*
X109529524Y-142692381D02*
X109720000Y-142692381D01*
X109815239Y-142644762D01*
X109862858Y-142597143D01*
X109958096Y-142454286D01*
X110005715Y-142263810D01*
X110005715Y-141882857D01*
X109958096Y-141787619D01*
X109910477Y-141740000D01*
X109815239Y-141692381D01*
X109624762Y-141692381D01*
X109529524Y-141740000D01*
X109481905Y-141787619D01*
X109434286Y-141882857D01*
X109434286Y-142120952D01*
X109481905Y-142216190D01*
X109529524Y-142263810D01*
X109624762Y-142311429D01*
X109815239Y-142311429D01*
X109910477Y-142263810D01*
X109958096Y-142216190D01*
X110005715Y-142120952D01*
X109093095Y-120102381D02*
X109664524Y-120102381D01*
X109378809Y-121102381D02*
X109378809Y-120102381D01*
X110521667Y-121102381D02*
X109950238Y-121102381D01*
X110235952Y-121102381D02*
X110235952Y-120102381D01*
X110140714Y-120245238D01*
X110045476Y-120340476D01*
X109950238Y-120388095D01*
X119888095Y-135342381D02*
X119888095Y-136151905D01*
X119935714Y-136247143D01*
X119983333Y-136294762D01*
X120078571Y-136342381D01*
X120269048Y-136342381D01*
X120364286Y-136294762D01*
X120411905Y-136247143D01*
X120459524Y-136151905D01*
X120459524Y-135342381D01*
X121459524Y-136342381D02*
X120888095Y-136342381D01*
X121173809Y-136342381D02*
X121173809Y-135342381D01*
X121078571Y-135485238D01*
X120983333Y-135580476D01*
X120888095Y-135628095D01*
X125718334Y-100467143D02*
X125670715Y-100514762D01*
X125527858Y-100562381D01*
X125432620Y-100562381D01*
X125289762Y-100514762D01*
X125194524Y-100419524D01*
X125146905Y-100324286D01*
X125099286Y-100133810D01*
X125099286Y-99990952D01*
X125146905Y-99800476D01*
X125194524Y-99705238D01*
X125289762Y-99610000D01*
X125432620Y-99562381D01*
X125527858Y-99562381D01*
X125670715Y-99610000D01*
X125718334Y-99657619D01*
X126670715Y-100562381D02*
X126099286Y-100562381D01*
X126385000Y-100562381D02*
X126385000Y-99562381D01*
X126289762Y-99705238D01*
X126194524Y-99800476D01*
X126099286Y-99848095D01*
X147193095Y-103592381D02*
X147193095Y-104401905D01*
X147240714Y-104497143D01*
X147288333Y-104544762D01*
X147383571Y-104592381D01*
X147574048Y-104592381D01*
X147669286Y-104544762D01*
X147716905Y-104497143D01*
X147764524Y-104401905D01*
X147764524Y-103592381D01*
X148193095Y-103687619D02*
X148240714Y-103640000D01*
X148335952Y-103592381D01*
X148574048Y-103592381D01*
X148669286Y-103640000D01*
X148716905Y-103687619D01*
X148764524Y-103782857D01*
X148764524Y-103878095D01*
X148716905Y-104020952D01*
X148145476Y-104592381D01*
X148764524Y-104592381D01*
X117983095Y-92162381D02*
X117983095Y-92971905D01*
X118030714Y-93067143D01*
X118078333Y-93114762D01*
X118173571Y-93162381D01*
X118364048Y-93162381D01*
X118459286Y-93114762D01*
X118506905Y-93067143D01*
X118554524Y-92971905D01*
X118554524Y-92162381D01*
X119506905Y-92162381D02*
X119030714Y-92162381D01*
X118983095Y-92638571D01*
X119030714Y-92590952D01*
X119125952Y-92543333D01*
X119364048Y-92543333D01*
X119459286Y-92590952D01*
X119506905Y-92638571D01*
X119554524Y-92733810D01*
X119554524Y-92971905D01*
X119506905Y-93067143D01*
X119459286Y-93114762D01*
X119364048Y-93162381D01*
X119125952Y-93162381D01*
X119030714Y-93114762D01*
X118983095Y-93067143D01*
X101473095Y-140422381D02*
X101473095Y-141231905D01*
X101520714Y-141327143D01*
X101568333Y-141374762D01*
X101663571Y-141422381D01*
X101854048Y-141422381D01*
X101949286Y-141374762D01*
X101996905Y-141327143D01*
X102044524Y-141231905D01*
X102044524Y-140422381D01*
X102949286Y-140755714D02*
X102949286Y-141422381D01*
X102711190Y-140374762D02*
X102473095Y-141089048D01*
X103092143Y-141089048D01*
X151757143Y-105862381D02*
X151423809Y-105386190D01*
X151185714Y-105862381D02*
X151185714Y-104862381D01*
X151566667Y-104862381D01*
X151661905Y-104910000D01*
X151709524Y-104957619D01*
X151757143Y-105052857D01*
X151757143Y-105195714D01*
X151709524Y-105290952D01*
X151661905Y-105338571D01*
X151566667Y-105386190D01*
X151185714Y-105386190D01*
X152709524Y-105862381D02*
X152138095Y-105862381D01*
X152423809Y-105862381D02*
X152423809Y-104862381D01*
X152328571Y-105005238D01*
X152233333Y-105100476D01*
X152138095Y-105148095D01*
X153328571Y-104862381D02*
X153423810Y-104862381D01*
X153519048Y-104910000D01*
X153566667Y-104957619D01*
X153614286Y-105052857D01*
X153661905Y-105243333D01*
X153661905Y-105481429D01*
X153614286Y-105671905D01*
X153566667Y-105767143D01*
X153519048Y-105814762D01*
X153423810Y-105862381D01*
X153328571Y-105862381D01*
X153233333Y-105814762D01*
X153185714Y-105767143D01*
X153138095Y-105671905D01*
X153090476Y-105481429D01*
X153090476Y-105243333D01*
X153138095Y-105052857D01*
X153185714Y-104957619D01*
X153233333Y-104910000D01*
X153328571Y-104862381D01*
X151757143Y-102052381D02*
X151423809Y-101576190D01*
X151185714Y-102052381D02*
X151185714Y-101052381D01*
X151566667Y-101052381D01*
X151661905Y-101100000D01*
X151709524Y-101147619D01*
X151757143Y-101242857D01*
X151757143Y-101385714D01*
X151709524Y-101480952D01*
X151661905Y-101528571D01*
X151566667Y-101576190D01*
X151185714Y-101576190D01*
X152709524Y-102052381D02*
X152138095Y-102052381D01*
X152423809Y-102052381D02*
X152423809Y-101052381D01*
X152328571Y-101195238D01*
X152233333Y-101290476D01*
X152138095Y-101338095D01*
X153661905Y-102052381D02*
X153090476Y-102052381D01*
X153376190Y-102052381D02*
X153376190Y-101052381D01*
X153280952Y-101195238D01*
X153185714Y-101290476D01*
X153090476Y-101338095D01*
X72921905Y-113736381D02*
X72921905Y-112736381D01*
X73302858Y-112736381D01*
X73398096Y-112784000D01*
X73445715Y-112831619D01*
X73493334Y-112926857D01*
X73493334Y-113069714D01*
X73445715Y-113164952D01*
X73398096Y-113212571D01*
X73302858Y-113260190D01*
X72921905Y-113260190D01*
X74445715Y-113736381D02*
X73874286Y-113736381D01*
X74160000Y-113736381D02*
X74160000Y-112736381D01*
X74064762Y-112879238D01*
X73969524Y-112974476D01*
X73874286Y-113022095D01*
X84986905Y-138972381D02*
X84986905Y-137972381D01*
X85367858Y-137972381D01*
X85463096Y-138020000D01*
X85510715Y-138067619D01*
X85558334Y-138162857D01*
X85558334Y-138305714D01*
X85510715Y-138400952D01*
X85463096Y-138448571D01*
X85367858Y-138496190D01*
X84986905Y-138496190D01*
X85939286Y-138067619D02*
X85986905Y-138020000D01*
X86082143Y-137972381D01*
X86320239Y-137972381D01*
X86415477Y-138020000D01*
X86463096Y-138067619D01*
X86510715Y-138162857D01*
X86510715Y-138258095D01*
X86463096Y-138400952D01*
X85891667Y-138972381D01*
X86510715Y-138972381D01*
X156535381Y-134088095D02*
X155535381Y-134088095D01*
X155535381Y-133707142D01*
X155583000Y-133611904D01*
X155630619Y-133564285D01*
X155725857Y-133516666D01*
X155868714Y-133516666D01*
X155963952Y-133564285D01*
X156011571Y-133611904D01*
X156059190Y-133707142D01*
X156059190Y-134088095D01*
X155868714Y-132659523D02*
X156535381Y-132659523D01*
X155487762Y-132897619D02*
X156202048Y-133135714D01*
X156202048Y-132516666D01*
X116109762Y-131357619D02*
X116014524Y-131310000D01*
X115919286Y-131214762D01*
X115776429Y-131071905D01*
X115681190Y-131024286D01*
X115585952Y-131024286D01*
X115633571Y-131262381D02*
X115538333Y-131214762D01*
X115443095Y-131119524D01*
X115395476Y-130929048D01*
X115395476Y-130595714D01*
X115443095Y-130405238D01*
X115538333Y-130310000D01*
X115633571Y-130262381D01*
X115824048Y-130262381D01*
X115919286Y-130310000D01*
X116014524Y-130405238D01*
X116062143Y-130595714D01*
X116062143Y-130929048D01*
X116014524Y-131119524D01*
X115919286Y-131214762D01*
X115824048Y-131262381D01*
X115633571Y-131262381D01*
X117014524Y-131262381D02*
X116443095Y-131262381D01*
X116728809Y-131262381D02*
X116728809Y-130262381D01*
X116633571Y-130405238D01*
X116538333Y-130500476D01*
X116443095Y-130548095D01*
X76668334Y-139422143D02*
X76620715Y-139469762D01*
X76477858Y-139517381D01*
X76382620Y-139517381D01*
X76239762Y-139469762D01*
X76144524Y-139374524D01*
X76096905Y-139279286D01*
X76049286Y-139088810D01*
X76049286Y-138945952D01*
X76096905Y-138755476D01*
X76144524Y-138660238D01*
X76239762Y-138565000D01*
X76382620Y-138517381D01*
X76477858Y-138517381D01*
X76620715Y-138565000D01*
X76668334Y-138612619D01*
X77001667Y-138517381D02*
X77620715Y-138517381D01*
X77287381Y-138898333D01*
X77430239Y-138898333D01*
X77525477Y-138945952D01*
X77573096Y-138993571D01*
X77620715Y-139088810D01*
X77620715Y-139326905D01*
X77573096Y-139422143D01*
X77525477Y-139469762D01*
X77430239Y-139517381D01*
X77144524Y-139517381D01*
X77049286Y-139469762D01*
X77001667Y-139422143D01*
X77303334Y-131262381D02*
X76970000Y-130786190D01*
X76731905Y-131262381D02*
X76731905Y-130262381D01*
X77112858Y-130262381D01*
X77208096Y-130310000D01*
X77255715Y-130357619D01*
X77303334Y-130452857D01*
X77303334Y-130595714D01*
X77255715Y-130690952D01*
X77208096Y-130738571D01*
X77112858Y-130786190D01*
X76731905Y-130786190D01*
X77874762Y-130690952D02*
X77779524Y-130643333D01*
X77731905Y-130595714D01*
X77684286Y-130500476D01*
X77684286Y-130452857D01*
X77731905Y-130357619D01*
X77779524Y-130310000D01*
X77874762Y-130262381D01*
X78065239Y-130262381D01*
X78160477Y-130310000D01*
X78208096Y-130357619D01*
X78255715Y-130452857D01*
X78255715Y-130500476D01*
X78208096Y-130595714D01*
X78160477Y-130643333D01*
X78065239Y-130690952D01*
X77874762Y-130690952D01*
X77779524Y-130738571D01*
X77731905Y-130786190D01*
X77684286Y-130881429D01*
X77684286Y-131071905D01*
X77731905Y-131167143D01*
X77779524Y-131214762D01*
X77874762Y-131262381D01*
X78065239Y-131262381D01*
X78160477Y-131214762D01*
X78208096Y-131167143D01*
X78255715Y-131071905D01*
X78255715Y-130881429D01*
X78208096Y-130786190D01*
X78160477Y-130738571D01*
X78065239Y-130690952D01*
M02*
