G04 #@! TF.FileFunction,Soldermask,Bot*
%FSLAX46Y46*%
G04 Gerber Fmt 4.6, Leading zero omitted, Abs format (unit mm)*
G04 Created by KiCad (PCBNEW 4.0.7-e1-6374~58~ubuntu16.04.1) date Fri Sep 22 16:23:34 2017*
%MOMM*%
%LPD*%
G01*
G04 APERTURE LIST*
%ADD10C,0.100000*%
%ADD11R,1.900000X1.900000*%
%ADD12C,1.900000*%
%ADD13C,2.800000*%
%ADD14R,2.000000X2.000000*%
%ADD15O,2.100860X3.800120*%
%ADD16C,2.300000*%
%ADD17C,2.000000*%
%ADD18R,1.824000X1.824000*%
%ADD19C,1.824000*%
%ADD20C,3.550000*%
%ADD21C,2.100000*%
G04 APERTURE END LIST*
D10*
D11*
X143764000Y-96774000D03*
D12*
X140264000Y-96774000D03*
X106500000Y-141250000D03*
X111500000Y-141250000D03*
D13*
X170180000Y-148590000D03*
X170180000Y-81026000D03*
X60960000Y-148590000D03*
X60960000Y-81026000D03*
D14*
X122682000Y-143510000D03*
X152654000Y-143510000D03*
X139446000Y-143510000D03*
D12*
X106514000Y-135128000D03*
X111514000Y-135128000D03*
D15*
X90932000Y-124460000D03*
X88392000Y-124460000D03*
D16*
X66080000Y-86320000D03*
X66080000Y-101570000D03*
D17*
X85100000Y-86360000D03*
X85090000Y-101566000D03*
X82560000Y-86360000D03*
X80020000Y-86360000D03*
D14*
X77480000Y-86370000D03*
D17*
X82560000Y-101566000D03*
X80020000Y-101566000D03*
D14*
X77480000Y-101566000D03*
D17*
X97790000Y-87480000D03*
X97790000Y-90020000D03*
X97790000Y-92560000D03*
X97790000Y-95100000D03*
X97790000Y-97640000D03*
D14*
X97790000Y-100180000D03*
D18*
X124968000Y-92964000D03*
D19*
X127508000Y-92964000D03*
X130048000Y-92964000D03*
X132588000Y-92964000D03*
D20*
X61214000Y-122174000D03*
X73914000Y-122174000D03*
X78994000Y-122174000D03*
D13*
X61214000Y-127000000D03*
X78994000Y-127000000D03*
X78994000Y-117094000D03*
D20*
X61214000Y-138430000D03*
X73914000Y-138430000D03*
X78994000Y-138430000D03*
D13*
X61214000Y-143256000D03*
X78994000Y-143256000D03*
X78994000Y-133350000D03*
D12*
X60000000Y-107000000D03*
X60000000Y-112000000D03*
X65800000Y-110000000D03*
X63500000Y-112500000D03*
X65500000Y-105900000D03*
D21*
X173736000Y-133604000D03*
X173736000Y-128524000D03*
D13*
X161036000Y-131064000D03*
X157226000Y-131064000D03*
X153416000Y-131064000D03*
D18*
X124841000Y-101219000D03*
D19*
X127381000Y-101219000D03*
X129921000Y-101219000D03*
X132461000Y-101219000D03*
X164084000Y-106934000D03*
X169164000Y-106934000D03*
X164084000Y-104394000D03*
X164084000Y-101854000D03*
X169164000Y-101854000D03*
X170434000Y-90932000D03*
X167894000Y-90932000D03*
X165354000Y-90932000D03*
X165354000Y-88392000D03*
X167894000Y-88392000D03*
X170434000Y-88392000D03*
D14*
X146050000Y-143510000D03*
X138800000Y-121700000D03*
X129286000Y-143510000D03*
M02*
