G04 #@! TF.FileFunction,Legend,Top*
%FSLAX46Y46*%
G04 Gerber Fmt 4.6, Leading zero omitted, Abs format (unit mm)*
G04 Created by KiCad (PCBNEW 4.0.6-e0-6349~53~ubuntu16.04.1) date Mon Jul  3 21:18:37 2017*
%MOMM*%
%LPD*%
G01*
G04 APERTURE LIST*
%ADD10C,0.100000*%
%ADD11C,0.250000*%
%ADD12C,0.300000*%
%ADD13C,0.120000*%
%ADD14C,0.150000*%
%ADD15C,0.700000*%
G04 APERTURE END LIST*
D10*
D11*
X99655810Y-114796381D02*
X99655810Y-115510667D01*
X99608190Y-115653524D01*
X99512952Y-115748762D01*
X99370095Y-115796381D01*
X99274857Y-115796381D01*
X100560572Y-115129714D02*
X100560572Y-115796381D01*
X100132000Y-115129714D02*
X100132000Y-115653524D01*
X100179619Y-115748762D01*
X100274857Y-115796381D01*
X100417715Y-115796381D01*
X100512953Y-115748762D01*
X100560572Y-115701143D01*
X101036762Y-115796381D02*
X101036762Y-115129714D01*
X101036762Y-115224952D02*
X101084381Y-115177333D01*
X101179619Y-115129714D01*
X101322477Y-115129714D01*
X101417715Y-115177333D01*
X101465334Y-115272571D01*
X101465334Y-115796381D01*
X101465334Y-115272571D02*
X101512953Y-115177333D01*
X101608191Y-115129714D01*
X101751048Y-115129714D01*
X101846286Y-115177333D01*
X101893905Y-115272571D01*
X101893905Y-115796381D01*
X102370095Y-115129714D02*
X102370095Y-116129714D01*
X102370095Y-115177333D02*
X102465333Y-115129714D01*
X102655810Y-115129714D01*
X102751048Y-115177333D01*
X102798667Y-115224952D01*
X102846286Y-115320190D01*
X102846286Y-115605905D01*
X102798667Y-115701143D01*
X102751048Y-115748762D01*
X102655810Y-115796381D01*
X102465333Y-115796381D01*
X102370095Y-115748762D01*
X103655810Y-115748762D02*
X103560572Y-115796381D01*
X103370095Y-115796381D01*
X103274857Y-115748762D01*
X103227238Y-115653524D01*
X103227238Y-115272571D01*
X103274857Y-115177333D01*
X103370095Y-115129714D01*
X103560572Y-115129714D01*
X103655810Y-115177333D01*
X103703429Y-115272571D01*
X103703429Y-115367810D01*
X103227238Y-115463048D01*
X104132000Y-115796381D02*
X104132000Y-115129714D01*
X104132000Y-115320190D02*
X104179619Y-115224952D01*
X104227238Y-115177333D01*
X104322476Y-115129714D01*
X104417715Y-115129714D01*
X105703429Y-114796381D02*
X105893906Y-114796381D01*
X105989144Y-114844000D01*
X106084382Y-114939238D01*
X106132001Y-115129714D01*
X106132001Y-115463048D01*
X106084382Y-115653524D01*
X105989144Y-115748762D01*
X105893906Y-115796381D01*
X105703429Y-115796381D01*
X105608191Y-115748762D01*
X105512953Y-115653524D01*
X105465334Y-115463048D01*
X105465334Y-115129714D01*
X105512953Y-114939238D01*
X105608191Y-114844000D01*
X105703429Y-114796381D01*
X106560572Y-114796381D02*
X106560572Y-115605905D01*
X106608191Y-115701143D01*
X106655810Y-115748762D01*
X106751048Y-115796381D01*
X106941525Y-115796381D01*
X107036763Y-115748762D01*
X107084382Y-115701143D01*
X107132001Y-115605905D01*
X107132001Y-114796381D01*
X107465334Y-114796381D02*
X108036763Y-114796381D01*
X107751048Y-115796381D02*
X107751048Y-114796381D01*
X99393904Y-116879714D02*
X99774856Y-116879714D01*
X99536761Y-117546381D02*
X99536761Y-116689238D01*
X99584380Y-116594000D01*
X99679618Y-116546381D01*
X99774856Y-116546381D01*
X100251047Y-117546381D02*
X100155809Y-117498762D01*
X100108190Y-117451143D01*
X100060571Y-117355905D01*
X100060571Y-117070190D01*
X100108190Y-116974952D01*
X100155809Y-116927333D01*
X100251047Y-116879714D01*
X100393905Y-116879714D01*
X100489143Y-116927333D01*
X100536762Y-116974952D01*
X100584381Y-117070190D01*
X100584381Y-117355905D01*
X100536762Y-117451143D01*
X100489143Y-117498762D01*
X100393905Y-117546381D01*
X100251047Y-117546381D01*
X101012952Y-117546381D02*
X101012952Y-116879714D01*
X101012952Y-117070190D02*
X101060571Y-116974952D01*
X101108190Y-116927333D01*
X101203428Y-116879714D01*
X101298667Y-116879714D01*
X102870096Y-116546381D02*
X102393905Y-116546381D01*
X102346286Y-117022571D01*
X102393905Y-116974952D01*
X102489143Y-116927333D01*
X102727239Y-116927333D01*
X102822477Y-116974952D01*
X102870096Y-117022571D01*
X102917715Y-117117810D01*
X102917715Y-117355905D01*
X102870096Y-117451143D01*
X102822477Y-117498762D01*
X102727239Y-117546381D01*
X102489143Y-117546381D01*
X102393905Y-117498762D01*
X102346286Y-117451143D01*
X103822477Y-116546381D02*
X103346286Y-116546381D01*
X103298667Y-117022571D01*
X103346286Y-116974952D01*
X103441524Y-116927333D01*
X103679620Y-116927333D01*
X103774858Y-116974952D01*
X103822477Y-117022571D01*
X103870096Y-117117810D01*
X103870096Y-117355905D01*
X103822477Y-117451143D01*
X103774858Y-117498762D01*
X103679620Y-117546381D01*
X103441524Y-117546381D01*
X103346286Y-117498762D01*
X103298667Y-117451143D01*
X105203429Y-117546381D02*
X105108191Y-117498762D01*
X105060572Y-117451143D01*
X105012953Y-117355905D01*
X105012953Y-117070190D01*
X105060572Y-116974952D01*
X105108191Y-116927333D01*
X105203429Y-116879714D01*
X105346287Y-116879714D01*
X105441525Y-116927333D01*
X105489144Y-116974952D01*
X105536763Y-117070190D01*
X105536763Y-117355905D01*
X105489144Y-117451143D01*
X105441525Y-117498762D01*
X105346287Y-117546381D01*
X105203429Y-117546381D01*
X105965334Y-117546381D02*
X105965334Y-116546381D01*
X106393906Y-117546381D02*
X106393906Y-117022571D01*
X106346287Y-116927333D01*
X106251049Y-116879714D01*
X106108191Y-116879714D01*
X106012953Y-116927333D01*
X105965334Y-116974952D01*
X106870096Y-117546381D02*
X106870096Y-116879714D01*
X106870096Y-116974952D02*
X106917715Y-116927333D01*
X107012953Y-116879714D01*
X107155811Y-116879714D01*
X107251049Y-116927333D01*
X107298668Y-117022571D01*
X107298668Y-117546381D01*
X107298668Y-117022571D02*
X107346287Y-116927333D01*
X107441525Y-116879714D01*
X107584382Y-116879714D01*
X107679620Y-116927333D01*
X107727239Y-117022571D01*
X107727239Y-117546381D01*
X100822475Y-119248762D02*
X100917713Y-119296381D01*
X101108189Y-119296381D01*
X101203428Y-119248762D01*
X101251047Y-119153524D01*
X101251047Y-119105905D01*
X101203428Y-119010667D01*
X101108189Y-118963048D01*
X100965332Y-118963048D01*
X100870094Y-118915429D01*
X100822475Y-118820190D01*
X100822475Y-118772571D01*
X100870094Y-118677333D01*
X100965332Y-118629714D01*
X101108189Y-118629714D01*
X101203428Y-118677333D01*
X102060571Y-119248762D02*
X101965333Y-119296381D01*
X101774856Y-119296381D01*
X101679618Y-119248762D01*
X101631999Y-119153524D01*
X101631999Y-118772571D01*
X101679618Y-118677333D01*
X101774856Y-118629714D01*
X101965333Y-118629714D01*
X102060571Y-118677333D01*
X102108190Y-118772571D01*
X102108190Y-118867810D01*
X101631999Y-118963048D01*
X102679618Y-119296381D02*
X102584380Y-119248762D01*
X102536761Y-119153524D01*
X102536761Y-118296381D01*
X103441524Y-119248762D02*
X103346286Y-119296381D01*
X103155809Y-119296381D01*
X103060571Y-119248762D01*
X103012952Y-119153524D01*
X103012952Y-118772571D01*
X103060571Y-118677333D01*
X103155809Y-118629714D01*
X103346286Y-118629714D01*
X103441524Y-118677333D01*
X103489143Y-118772571D01*
X103489143Y-118867810D01*
X103012952Y-118963048D01*
X104346286Y-119248762D02*
X104251048Y-119296381D01*
X104060571Y-119296381D01*
X103965333Y-119248762D01*
X103917714Y-119201143D01*
X103870095Y-119105905D01*
X103870095Y-118820190D01*
X103917714Y-118724952D01*
X103965333Y-118677333D01*
X104060571Y-118629714D01*
X104251048Y-118629714D01*
X104346286Y-118677333D01*
X104632000Y-118629714D02*
X105012952Y-118629714D01*
X104774857Y-118296381D02*
X104774857Y-119153524D01*
X104822476Y-119248762D01*
X104917714Y-119296381D01*
X105012952Y-119296381D01*
X105489143Y-119296381D02*
X105393905Y-119248762D01*
X105346286Y-119201143D01*
X105298667Y-119105905D01*
X105298667Y-118820190D01*
X105346286Y-118724952D01*
X105393905Y-118677333D01*
X105489143Y-118629714D01*
X105632001Y-118629714D01*
X105727239Y-118677333D01*
X105774858Y-118724952D01*
X105822477Y-118820190D01*
X105822477Y-119105905D01*
X105774858Y-119201143D01*
X105727239Y-119248762D01*
X105632001Y-119296381D01*
X105489143Y-119296381D01*
X106251048Y-119296381D02*
X106251048Y-118629714D01*
X106251048Y-118820190D02*
X106298667Y-118724952D01*
X106346286Y-118677333D01*
X106441524Y-118629714D01*
X106536763Y-118629714D01*
X85820761Y-130641381D02*
X85344570Y-130641381D01*
X85344570Y-129641381D01*
X86296951Y-130641381D02*
X86201713Y-130593762D01*
X86154094Y-130546143D01*
X86106475Y-130450905D01*
X86106475Y-130165190D01*
X86154094Y-130069952D01*
X86201713Y-130022333D01*
X86296951Y-129974714D01*
X86439809Y-129974714D01*
X86535047Y-130022333D01*
X86582666Y-130069952D01*
X86630285Y-130165190D01*
X86630285Y-130450905D01*
X86582666Y-130546143D01*
X86535047Y-130593762D01*
X86439809Y-130641381D01*
X86296951Y-130641381D01*
X87201713Y-130641381D02*
X87106475Y-130593762D01*
X87058856Y-130546143D01*
X87011237Y-130450905D01*
X87011237Y-130165190D01*
X87058856Y-130069952D01*
X87106475Y-130022333D01*
X87201713Y-129974714D01*
X87344571Y-129974714D01*
X87439809Y-130022333D01*
X87487428Y-130069952D01*
X87535047Y-130165190D01*
X87535047Y-130450905D01*
X87487428Y-130546143D01*
X87439809Y-130593762D01*
X87344571Y-130641381D01*
X87201713Y-130641381D01*
X87963618Y-129974714D02*
X87963618Y-130974714D01*
X87963618Y-130022333D02*
X88058856Y-129974714D01*
X88249333Y-129974714D01*
X88344571Y-130022333D01*
X88392190Y-130069952D01*
X88439809Y-130165190D01*
X88439809Y-130450905D01*
X88392190Y-130546143D01*
X88344571Y-130593762D01*
X88249333Y-130641381D01*
X88058856Y-130641381D01*
X87963618Y-130593762D01*
X90058857Y-130593762D02*
X89963619Y-130641381D01*
X89773142Y-130641381D01*
X89677904Y-130593762D01*
X89630285Y-130546143D01*
X89582666Y-130450905D01*
X89582666Y-130165190D01*
X89630285Y-130069952D01*
X89677904Y-130022333D01*
X89773142Y-129974714D01*
X89963619Y-129974714D01*
X90058857Y-130022333D01*
X90916000Y-129974714D02*
X90916000Y-130641381D01*
X90487428Y-129974714D02*
X90487428Y-130498524D01*
X90535047Y-130593762D01*
X90630285Y-130641381D01*
X90773143Y-130641381D01*
X90868381Y-130593762D01*
X90916000Y-130546143D01*
X91392190Y-130641381D02*
X91392190Y-129974714D01*
X91392190Y-130165190D02*
X91439809Y-130069952D01*
X91487428Y-130022333D01*
X91582666Y-129974714D01*
X91677905Y-129974714D01*
X92011238Y-130641381D02*
X92011238Y-129974714D01*
X92011238Y-130165190D02*
X92058857Y-130069952D01*
X92106476Y-130022333D01*
X92201714Y-129974714D01*
X92296953Y-129974714D01*
X93011239Y-130593762D02*
X92916001Y-130641381D01*
X92725524Y-130641381D01*
X92630286Y-130593762D01*
X92582667Y-130498524D01*
X92582667Y-130117571D01*
X92630286Y-130022333D01*
X92725524Y-129974714D01*
X92916001Y-129974714D01*
X93011239Y-130022333D01*
X93058858Y-130117571D01*
X93058858Y-130212810D01*
X92582667Y-130308048D01*
X93487429Y-129974714D02*
X93487429Y-130641381D01*
X93487429Y-130069952D02*
X93535048Y-130022333D01*
X93630286Y-129974714D01*
X93773144Y-129974714D01*
X93868382Y-130022333D01*
X93916001Y-130117571D01*
X93916001Y-130641381D01*
X94249334Y-129974714D02*
X94630286Y-129974714D01*
X94392191Y-129641381D02*
X94392191Y-130498524D01*
X94439810Y-130593762D01*
X94535048Y-130641381D01*
X94630286Y-130641381D01*
X83963618Y-132391381D02*
X83963618Y-131724714D01*
X83963618Y-131819952D02*
X84011237Y-131772333D01*
X84106475Y-131724714D01*
X84249333Y-131724714D01*
X84344571Y-131772333D01*
X84392190Y-131867571D01*
X84392190Y-132391381D01*
X84392190Y-131867571D02*
X84439809Y-131772333D01*
X84535047Y-131724714D01*
X84677904Y-131724714D01*
X84773142Y-131772333D01*
X84820761Y-131867571D01*
X84820761Y-132391381D01*
X85677904Y-132343762D02*
X85582666Y-132391381D01*
X85392189Y-132391381D01*
X85296951Y-132343762D01*
X85249332Y-132248524D01*
X85249332Y-131867571D01*
X85296951Y-131772333D01*
X85392189Y-131724714D01*
X85582666Y-131724714D01*
X85677904Y-131772333D01*
X85725523Y-131867571D01*
X85725523Y-131962810D01*
X85249332Y-132058048D01*
X86011237Y-131724714D02*
X86392189Y-131724714D01*
X86154094Y-131391381D02*
X86154094Y-132248524D01*
X86201713Y-132343762D01*
X86296951Y-132391381D01*
X86392189Y-132391381D01*
X87106476Y-132343762D02*
X87011238Y-132391381D01*
X86820761Y-132391381D01*
X86725523Y-132343762D01*
X86677904Y-132248524D01*
X86677904Y-131867571D01*
X86725523Y-131772333D01*
X86820761Y-131724714D01*
X87011238Y-131724714D01*
X87106476Y-131772333D01*
X87154095Y-131867571D01*
X87154095Y-131962810D01*
X86677904Y-132058048D01*
X87582666Y-132391381D02*
X87582666Y-131724714D01*
X87582666Y-131915190D02*
X87630285Y-131819952D01*
X87677904Y-131772333D01*
X87773142Y-131724714D01*
X87868381Y-131724714D01*
X89106476Y-132391381D02*
X89011238Y-132343762D01*
X88963619Y-132296143D01*
X88916000Y-132200905D01*
X88916000Y-131915190D01*
X88963619Y-131819952D01*
X89011238Y-131772333D01*
X89106476Y-131724714D01*
X89249334Y-131724714D01*
X89344572Y-131772333D01*
X89392191Y-131819952D01*
X89439810Y-131915190D01*
X89439810Y-132200905D01*
X89392191Y-132296143D01*
X89344572Y-132343762D01*
X89249334Y-132391381D01*
X89106476Y-132391381D01*
X89868381Y-132391381D02*
X89868381Y-131724714D01*
X89868381Y-131915190D02*
X89916000Y-131819952D01*
X89963619Y-131772333D01*
X90058857Y-131724714D01*
X90154096Y-131724714D01*
X91249334Y-131724714D02*
X91249334Y-132581857D01*
X91201715Y-132677095D01*
X91106477Y-132724714D01*
X91058858Y-132724714D01*
X91249334Y-131391381D02*
X91201715Y-131439000D01*
X91249334Y-131486619D01*
X91296953Y-131439000D01*
X91249334Y-131391381D01*
X91249334Y-131486619D01*
X92154096Y-131724714D02*
X92154096Y-132391381D01*
X91725524Y-131724714D02*
X91725524Y-132248524D01*
X91773143Y-132343762D01*
X91868381Y-132391381D01*
X92011239Y-132391381D01*
X92106477Y-132343762D01*
X92154096Y-132296143D01*
X92630286Y-132391381D02*
X92630286Y-131724714D01*
X92630286Y-131819952D02*
X92677905Y-131772333D01*
X92773143Y-131724714D01*
X92916001Y-131724714D01*
X93011239Y-131772333D01*
X93058858Y-131867571D01*
X93058858Y-132391381D01*
X93058858Y-131867571D02*
X93106477Y-131772333D01*
X93201715Y-131724714D01*
X93344572Y-131724714D01*
X93439810Y-131772333D01*
X93487429Y-131867571D01*
X93487429Y-132391381D01*
X93963619Y-131724714D02*
X93963619Y-132724714D01*
X93963619Y-131772333D02*
X94058857Y-131724714D01*
X94249334Y-131724714D01*
X94344572Y-131772333D01*
X94392191Y-131819952D01*
X94439810Y-131915190D01*
X94439810Y-132200905D01*
X94392191Y-132296143D01*
X94344572Y-132343762D01*
X94249334Y-132391381D01*
X94058857Y-132391381D01*
X93963619Y-132343762D01*
X95249334Y-132343762D02*
X95154096Y-132391381D01*
X94963619Y-132391381D01*
X94868381Y-132343762D01*
X94820762Y-132248524D01*
X94820762Y-131867571D01*
X94868381Y-131772333D01*
X94963619Y-131724714D01*
X95154096Y-131724714D01*
X95249334Y-131772333D01*
X95296953Y-131867571D01*
X95296953Y-131962810D01*
X94820762Y-132058048D01*
X95725524Y-132391381D02*
X95725524Y-131724714D01*
X95725524Y-131915190D02*
X95773143Y-131819952D01*
X95820762Y-131772333D01*
X95916000Y-131724714D01*
X96011239Y-131724714D01*
D12*
X92453144Y-148617714D02*
X92381715Y-148689143D01*
X92167429Y-148760571D01*
X92024572Y-148760571D01*
X91810287Y-148689143D01*
X91667429Y-148546286D01*
X91596001Y-148403429D01*
X91524572Y-148117714D01*
X91524572Y-147903429D01*
X91596001Y-147617714D01*
X91667429Y-147474857D01*
X91810287Y-147332000D01*
X92024572Y-147260571D01*
X92167429Y-147260571D01*
X92381715Y-147332000D01*
X92453144Y-147403429D01*
X93024572Y-148332000D02*
X93738858Y-148332000D01*
X92881715Y-148760571D02*
X93381715Y-147260571D01*
X93881715Y-148760571D01*
X94381715Y-147260571D02*
X94381715Y-148474857D01*
X94453143Y-148617714D01*
X94524572Y-148689143D01*
X94667429Y-148760571D01*
X94953143Y-148760571D01*
X95096001Y-148689143D01*
X95167429Y-148617714D01*
X95238858Y-148474857D01*
X95238858Y-147260571D01*
X95738858Y-147260571D02*
X96596001Y-147260571D01*
X96167430Y-148760571D02*
X96167430Y-147260571D01*
X97096001Y-148760571D02*
X97096001Y-147260571D01*
X98096001Y-147260571D02*
X98381715Y-147260571D01*
X98524573Y-147332000D01*
X98667430Y-147474857D01*
X98738858Y-147760571D01*
X98738858Y-148260571D01*
X98667430Y-148546286D01*
X98524573Y-148689143D01*
X98381715Y-148760571D01*
X98096001Y-148760571D01*
X97953144Y-148689143D01*
X97810287Y-148546286D01*
X97738858Y-148260571D01*
X97738858Y-147760571D01*
X97810287Y-147474857D01*
X97953144Y-147332000D01*
X98096001Y-147260571D01*
X99381716Y-148760571D02*
X99381716Y-147260571D01*
X100238859Y-148760571D01*
X100238859Y-147260571D01*
X104024573Y-148760571D02*
X103167430Y-148760571D01*
X103596002Y-148760571D02*
X103596002Y-147260571D01*
X103453145Y-147474857D01*
X103310287Y-147617714D01*
X103167430Y-147689143D01*
X104596001Y-147403429D02*
X104667430Y-147332000D01*
X104810287Y-147260571D01*
X105167430Y-147260571D01*
X105310287Y-147332000D01*
X105381716Y-147403429D01*
X105453144Y-147546286D01*
X105453144Y-147689143D01*
X105381716Y-147903429D01*
X104524573Y-148760571D01*
X105453144Y-148760571D01*
X106381715Y-147260571D02*
X106524572Y-147260571D01*
X106667429Y-147332000D01*
X106738858Y-147403429D01*
X106810287Y-147546286D01*
X106881715Y-147832000D01*
X106881715Y-148189143D01*
X106810287Y-148474857D01*
X106738858Y-148617714D01*
X106667429Y-148689143D01*
X106524572Y-148760571D01*
X106381715Y-148760571D01*
X106238858Y-148689143D01*
X106167429Y-148617714D01*
X106096001Y-148474857D01*
X106024572Y-148189143D01*
X106024572Y-147832000D01*
X106096001Y-147546286D01*
X106167429Y-147403429D01*
X106238858Y-147332000D01*
X106381715Y-147260571D01*
X107310286Y-147260571D02*
X107810286Y-148760571D01*
X108310286Y-147260571D01*
X108810286Y-148760571D02*
X108810286Y-147260571D01*
X109167429Y-147260571D01*
X109381714Y-147332000D01*
X109524572Y-147474857D01*
X109596000Y-147617714D01*
X109667429Y-147903429D01*
X109667429Y-148117714D01*
X109596000Y-148403429D01*
X109524572Y-148546286D01*
X109381714Y-148689143D01*
X109167429Y-148760571D01*
X108810286Y-148760571D01*
X111167429Y-148617714D02*
X111096000Y-148689143D01*
X110881714Y-148760571D01*
X110738857Y-148760571D01*
X110524572Y-148689143D01*
X110381714Y-148546286D01*
X110310286Y-148403429D01*
X110238857Y-148117714D01*
X110238857Y-147903429D01*
X110310286Y-147617714D01*
X110381714Y-147474857D01*
X110524572Y-147332000D01*
X110738857Y-147260571D01*
X110881714Y-147260571D01*
X111096000Y-147332000D01*
X111167429Y-147403429D01*
D11*
X126684380Y-84276981D02*
X127255809Y-84276981D01*
X126970094Y-85276981D02*
X126970094Y-84276981D01*
X127589142Y-85276981D02*
X127589142Y-84276981D01*
X128017714Y-85276981D02*
X128017714Y-84753171D01*
X127970095Y-84657933D01*
X127874857Y-84610314D01*
X127731999Y-84610314D01*
X127636761Y-84657933D01*
X127589142Y-84705552D01*
X128874857Y-85229362D02*
X128779619Y-85276981D01*
X128589142Y-85276981D01*
X128493904Y-85229362D01*
X128446285Y-85134124D01*
X128446285Y-84753171D01*
X128493904Y-84657933D01*
X128589142Y-84610314D01*
X128779619Y-84610314D01*
X128874857Y-84657933D01*
X128922476Y-84753171D01*
X128922476Y-84848410D01*
X128446285Y-84943648D01*
X130065333Y-84991267D02*
X130541524Y-84991267D01*
X129970095Y-85276981D02*
X130303428Y-84276981D01*
X130636762Y-85276981D01*
X131351048Y-85229362D02*
X131255810Y-85276981D01*
X131065333Y-85276981D01*
X130970095Y-85229362D01*
X130922476Y-85134124D01*
X130922476Y-84753171D01*
X130970095Y-84657933D01*
X131065333Y-84610314D01*
X131255810Y-84610314D01*
X131351048Y-84657933D01*
X131398667Y-84753171D01*
X131398667Y-84848410D01*
X130922476Y-84943648D01*
X131684381Y-84610314D02*
X132065333Y-84610314D01*
X131827238Y-84276981D02*
X131827238Y-85134124D01*
X131874857Y-85229362D01*
X131970095Y-85276981D01*
X132065333Y-85276981D01*
X132398667Y-85276981D02*
X132398667Y-84276981D01*
X132827239Y-85276981D02*
X132827239Y-84753171D01*
X132779620Y-84657933D01*
X132684382Y-84610314D01*
X132541524Y-84610314D01*
X132446286Y-84657933D01*
X132398667Y-84705552D01*
X133684382Y-85229362D02*
X133589144Y-85276981D01*
X133398667Y-85276981D01*
X133303429Y-85229362D01*
X133255810Y-85134124D01*
X133255810Y-84753171D01*
X133303429Y-84657933D01*
X133398667Y-84610314D01*
X133589144Y-84610314D01*
X133684382Y-84657933D01*
X133732001Y-84753171D01*
X133732001Y-84848410D01*
X133255810Y-84943648D01*
X134160572Y-85276981D02*
X134160572Y-84610314D01*
X134160572Y-84800790D02*
X134208191Y-84705552D01*
X134255810Y-84657933D01*
X134351048Y-84610314D01*
X134446287Y-84610314D01*
X134779620Y-85276981D02*
X134779620Y-84610314D01*
X134779620Y-84276981D02*
X134732001Y-84324600D01*
X134779620Y-84372219D01*
X134827239Y-84324600D01*
X134779620Y-84276981D01*
X134779620Y-84372219D01*
X135684382Y-85229362D02*
X135589144Y-85276981D01*
X135398667Y-85276981D01*
X135303429Y-85229362D01*
X135255810Y-85181743D01*
X135208191Y-85086505D01*
X135208191Y-84800790D01*
X135255810Y-84705552D01*
X135303429Y-84657933D01*
X135398667Y-84610314D01*
X135589144Y-84610314D01*
X135684382Y-84657933D01*
X136874858Y-85276981D02*
X136874858Y-84276981D01*
X137208192Y-84991267D01*
X137541525Y-84276981D01*
X137541525Y-85276981D01*
X138398668Y-85229362D02*
X138303430Y-85276981D01*
X138112953Y-85276981D01*
X138017715Y-85229362D01*
X137970096Y-85134124D01*
X137970096Y-84753171D01*
X138017715Y-84657933D01*
X138112953Y-84610314D01*
X138303430Y-84610314D01*
X138398668Y-84657933D01*
X138446287Y-84753171D01*
X138446287Y-84848410D01*
X137970096Y-84943648D01*
X138827239Y-85229362D02*
X138922477Y-85276981D01*
X139112953Y-85276981D01*
X139208192Y-85229362D01*
X139255811Y-85134124D01*
X139255811Y-85086505D01*
X139208192Y-84991267D01*
X139112953Y-84943648D01*
X138970096Y-84943648D01*
X138874858Y-84896029D01*
X138827239Y-84800790D01*
X138827239Y-84753171D01*
X138874858Y-84657933D01*
X138970096Y-84610314D01*
X139112953Y-84610314D01*
X139208192Y-84657933D01*
X139636763Y-85229362D02*
X139732001Y-85276981D01*
X139922477Y-85276981D01*
X140017716Y-85229362D01*
X140065335Y-85134124D01*
X140065335Y-85086505D01*
X140017716Y-84991267D01*
X139922477Y-84943648D01*
X139779620Y-84943648D01*
X139684382Y-84896029D01*
X139636763Y-84800790D01*
X139636763Y-84753171D01*
X139684382Y-84657933D01*
X139779620Y-84610314D01*
X139922477Y-84610314D01*
X140017716Y-84657933D01*
X140922478Y-85276981D02*
X140922478Y-84753171D01*
X140874859Y-84657933D01*
X140779621Y-84610314D01*
X140589144Y-84610314D01*
X140493906Y-84657933D01*
X140922478Y-85229362D02*
X140827240Y-85276981D01*
X140589144Y-85276981D01*
X140493906Y-85229362D01*
X140446287Y-85134124D01*
X140446287Y-85038886D01*
X140493906Y-84943648D01*
X140589144Y-84896029D01*
X140827240Y-84896029D01*
X140922478Y-84848410D01*
X141827240Y-84610314D02*
X141827240Y-85419838D01*
X141779621Y-85515076D01*
X141732002Y-85562695D01*
X141636763Y-85610314D01*
X141493906Y-85610314D01*
X141398668Y-85562695D01*
X141827240Y-85229362D02*
X141732002Y-85276981D01*
X141541525Y-85276981D01*
X141446287Y-85229362D01*
X141398668Y-85181743D01*
X141351049Y-85086505D01*
X141351049Y-84800790D01*
X141398668Y-84705552D01*
X141446287Y-84657933D01*
X141541525Y-84610314D01*
X141732002Y-84610314D01*
X141827240Y-84657933D01*
X142684383Y-85229362D02*
X142589145Y-85276981D01*
X142398668Y-85276981D01*
X142303430Y-85229362D01*
X142255811Y-85134124D01*
X142255811Y-84753171D01*
X142303430Y-84657933D01*
X142398668Y-84610314D01*
X142589145Y-84610314D01*
X142684383Y-84657933D01*
X142732002Y-84753171D01*
X142732002Y-84848410D01*
X142255811Y-84943648D01*
X143922478Y-85276981D02*
X143922478Y-84276981D01*
X144255812Y-84991267D01*
X144589145Y-84276981D01*
X144589145Y-85276981D01*
X145493907Y-85276981D02*
X145493907Y-84753171D01*
X145446288Y-84657933D01*
X145351050Y-84610314D01*
X145160573Y-84610314D01*
X145065335Y-84657933D01*
X145493907Y-85229362D02*
X145398669Y-85276981D01*
X145160573Y-85276981D01*
X145065335Y-85229362D01*
X145017716Y-85134124D01*
X145017716Y-85038886D01*
X145065335Y-84943648D01*
X145160573Y-84896029D01*
X145398669Y-84896029D01*
X145493907Y-84848410D01*
X146398669Y-85229362D02*
X146303431Y-85276981D01*
X146112954Y-85276981D01*
X146017716Y-85229362D01*
X145970097Y-85181743D01*
X145922478Y-85086505D01*
X145922478Y-84800790D01*
X145970097Y-84705552D01*
X146017716Y-84657933D01*
X146112954Y-84610314D01*
X146303431Y-84610314D01*
X146398669Y-84657933D01*
X146827240Y-85276981D02*
X146827240Y-84276981D01*
X147255812Y-85276981D02*
X147255812Y-84753171D01*
X147208193Y-84657933D01*
X147112955Y-84610314D01*
X146970097Y-84610314D01*
X146874859Y-84657933D01*
X146827240Y-84705552D01*
X147732002Y-85276981D02*
X147732002Y-84610314D01*
X147732002Y-84276981D02*
X147684383Y-84324600D01*
X147732002Y-84372219D01*
X147779621Y-84324600D01*
X147732002Y-84276981D01*
X147732002Y-84372219D01*
X148208192Y-84610314D02*
X148208192Y-85276981D01*
X148208192Y-84705552D02*
X148255811Y-84657933D01*
X148351049Y-84610314D01*
X148493907Y-84610314D01*
X148589145Y-84657933D01*
X148636764Y-84753171D01*
X148636764Y-85276981D01*
X149493907Y-85229362D02*
X149398669Y-85276981D01*
X149208192Y-85276981D01*
X149112954Y-85229362D01*
X149065335Y-85134124D01*
X149065335Y-84753171D01*
X149112954Y-84657933D01*
X149208192Y-84610314D01*
X149398669Y-84610314D01*
X149493907Y-84657933D01*
X149541526Y-84753171D01*
X149541526Y-84848410D01*
X149065335Y-84943648D01*
X151303431Y-85181743D02*
X151255812Y-85229362D01*
X151112955Y-85276981D01*
X151017717Y-85276981D01*
X150874859Y-85229362D01*
X150779621Y-85134124D01*
X150732002Y-85038886D01*
X150684383Y-84848410D01*
X150684383Y-84705552D01*
X150732002Y-84515076D01*
X150779621Y-84419838D01*
X150874859Y-84324600D01*
X151017717Y-84276981D01*
X151112955Y-84276981D01*
X151255812Y-84324600D01*
X151303431Y-84372219D01*
X151874859Y-85276981D02*
X151779621Y-85229362D01*
X151732002Y-85181743D01*
X151684383Y-85086505D01*
X151684383Y-84800790D01*
X151732002Y-84705552D01*
X151779621Y-84657933D01*
X151874859Y-84610314D01*
X152017717Y-84610314D01*
X152112955Y-84657933D01*
X152160574Y-84705552D01*
X152208193Y-84800790D01*
X152208193Y-85086505D01*
X152160574Y-85181743D01*
X152112955Y-85229362D01*
X152017717Y-85276981D01*
X151874859Y-85276981D01*
X152636764Y-85181743D02*
X152684383Y-85229362D01*
X152636764Y-85276981D01*
X152589145Y-85229362D01*
X152636764Y-85181743D01*
X152636764Y-85276981D01*
X153160573Y-85229362D02*
X153160573Y-85276981D01*
X153112954Y-85372219D01*
X153065335Y-85419838D01*
X154827240Y-85276981D02*
X154351049Y-85276981D01*
X154351049Y-84276981D01*
X155017716Y-84610314D02*
X155398668Y-84610314D01*
X155160573Y-84276981D02*
X155160573Y-85134124D01*
X155208192Y-85229362D01*
X155303430Y-85276981D01*
X155398668Y-85276981D01*
X156160574Y-85276981D02*
X156160574Y-84276981D01*
X156160574Y-85229362D02*
X156065336Y-85276981D01*
X155874859Y-85276981D01*
X155779621Y-85229362D01*
X155732002Y-85181743D01*
X155684383Y-85086505D01*
X155684383Y-84800790D01*
X155732002Y-84705552D01*
X155779621Y-84657933D01*
X155874859Y-84610314D01*
X156065336Y-84610314D01*
X156160574Y-84657933D01*
X156636764Y-85181743D02*
X156684383Y-85229362D01*
X156636764Y-85276981D01*
X156589145Y-85229362D01*
X156636764Y-85181743D01*
X156636764Y-85276981D01*
X123565330Y-86026981D02*
X123565330Y-86836505D01*
X123612949Y-86931743D01*
X123660568Y-86979362D01*
X123755806Y-87026981D01*
X123946283Y-87026981D01*
X124041521Y-86979362D01*
X124089140Y-86931743D01*
X124136759Y-86836505D01*
X124136759Y-86026981D01*
X124565330Y-86979362D02*
X124708187Y-87026981D01*
X124946283Y-87026981D01*
X125041521Y-86979362D01*
X125089140Y-86931743D01*
X125136759Y-86836505D01*
X125136759Y-86741267D01*
X125089140Y-86646029D01*
X125041521Y-86598410D01*
X124946283Y-86550790D01*
X124755806Y-86503171D01*
X124660568Y-86455552D01*
X124612949Y-86407933D01*
X124565330Y-86312695D01*
X124565330Y-86217457D01*
X124612949Y-86122219D01*
X124660568Y-86074600D01*
X124755806Y-86026981D01*
X124993902Y-86026981D01*
X125136759Y-86074600D01*
X125898664Y-86503171D02*
X126041521Y-86550790D01*
X126089140Y-86598410D01*
X126136759Y-86693648D01*
X126136759Y-86836505D01*
X126089140Y-86931743D01*
X126041521Y-86979362D01*
X125946283Y-87026981D01*
X125565330Y-87026981D01*
X125565330Y-86026981D01*
X125898664Y-86026981D01*
X125993902Y-86074600D01*
X126041521Y-86122219D01*
X126089140Y-86217457D01*
X126089140Y-86312695D01*
X126041521Y-86407933D01*
X125993902Y-86455552D01*
X125898664Y-86503171D01*
X125565330Y-86503171D01*
X127184378Y-86360314D02*
X127565330Y-86360314D01*
X127327235Y-86026981D02*
X127327235Y-86884124D01*
X127374854Y-86979362D01*
X127470092Y-87026981D01*
X127565330Y-87026981D01*
X128041521Y-87026981D02*
X127946283Y-86979362D01*
X127898664Y-86931743D01*
X127851045Y-86836505D01*
X127851045Y-86550790D01*
X127898664Y-86455552D01*
X127946283Y-86407933D01*
X128041521Y-86360314D01*
X128184379Y-86360314D01*
X128279617Y-86407933D01*
X128327236Y-86455552D01*
X128374855Y-86550790D01*
X128374855Y-86836505D01*
X128327236Y-86931743D01*
X128279617Y-86979362D01*
X128184379Y-87026981D01*
X128041521Y-87026981D01*
X129993903Y-86026981D02*
X129803426Y-86026981D01*
X129708188Y-86074600D01*
X129660569Y-86122219D01*
X129565331Y-86265076D01*
X129517712Y-86455552D01*
X129517712Y-86836505D01*
X129565331Y-86931743D01*
X129612950Y-86979362D01*
X129708188Y-87026981D01*
X129898665Y-87026981D01*
X129993903Y-86979362D01*
X130041522Y-86931743D01*
X130089141Y-86836505D01*
X130089141Y-86598410D01*
X130041522Y-86503171D01*
X129993903Y-86455552D01*
X129898665Y-86407933D01*
X129708188Y-86407933D01*
X129612950Y-86455552D01*
X129565331Y-86503171D01*
X129517712Y-86598410D01*
X130708188Y-86026981D02*
X130803427Y-86026981D01*
X130898665Y-86074600D01*
X130946284Y-86122219D01*
X130993903Y-86217457D01*
X131041522Y-86407933D01*
X131041522Y-86646029D01*
X130993903Y-86836505D01*
X130946284Y-86931743D01*
X130898665Y-86979362D01*
X130803427Y-87026981D01*
X130708188Y-87026981D01*
X130612950Y-86979362D01*
X130565331Y-86931743D01*
X130517712Y-86836505D01*
X130470093Y-86646029D01*
X130470093Y-86407933D01*
X130517712Y-86217457D01*
X130565331Y-86122219D01*
X130612950Y-86074600D01*
X130708188Y-86026981D01*
X131470093Y-87026981D02*
X131470093Y-86360314D01*
X131470093Y-86455552D02*
X131517712Y-86407933D01*
X131612950Y-86360314D01*
X131755808Y-86360314D01*
X131851046Y-86407933D01*
X131898665Y-86503171D01*
X131898665Y-87026981D01*
X131898665Y-86503171D02*
X131946284Y-86407933D01*
X132041522Y-86360314D01*
X132184379Y-86360314D01*
X132279617Y-86407933D01*
X132327236Y-86503171D01*
X132327236Y-87026981D01*
X132755807Y-86741267D02*
X133231998Y-86741267D01*
X132660569Y-87026981D02*
X132993902Y-86026981D01*
X133327236Y-87026981D01*
X134851046Y-86979362D02*
X134755808Y-87026981D01*
X134565331Y-87026981D01*
X134470093Y-86979362D01*
X134422474Y-86931743D01*
X134374855Y-86836505D01*
X134374855Y-86550790D01*
X134422474Y-86455552D01*
X134470093Y-86407933D01*
X134565331Y-86360314D01*
X134755808Y-86360314D01*
X134851046Y-86407933D01*
X135708189Y-86360314D02*
X135708189Y-87026981D01*
X135279617Y-86360314D02*
X135279617Y-86884124D01*
X135327236Y-86979362D01*
X135422474Y-87026981D01*
X135565332Y-87026981D01*
X135660570Y-86979362D01*
X135708189Y-86931743D01*
X136184379Y-87026981D02*
X136184379Y-86360314D01*
X136184379Y-86550790D02*
X136231998Y-86455552D01*
X136279617Y-86407933D01*
X136374855Y-86360314D01*
X136470094Y-86360314D01*
X136803427Y-87026981D02*
X136803427Y-86360314D01*
X136803427Y-86550790D02*
X136851046Y-86455552D01*
X136898665Y-86407933D01*
X136993903Y-86360314D01*
X137089142Y-86360314D01*
X137803428Y-86979362D02*
X137708190Y-87026981D01*
X137517713Y-87026981D01*
X137422475Y-86979362D01*
X137374856Y-86884124D01*
X137374856Y-86503171D01*
X137422475Y-86407933D01*
X137517713Y-86360314D01*
X137708190Y-86360314D01*
X137803428Y-86407933D01*
X137851047Y-86503171D01*
X137851047Y-86598410D01*
X137374856Y-86693648D01*
X138279618Y-86360314D02*
X138279618Y-87026981D01*
X138279618Y-86455552D02*
X138327237Y-86407933D01*
X138422475Y-86360314D01*
X138565333Y-86360314D01*
X138660571Y-86407933D01*
X138708190Y-86503171D01*
X138708190Y-87026981D01*
X139041523Y-86360314D02*
X139422475Y-86360314D01*
X139184380Y-86026981D02*
X139184380Y-86884124D01*
X139231999Y-86979362D01*
X139327237Y-87026981D01*
X139422475Y-87026981D01*
X140660571Y-87026981D02*
X140565333Y-86979362D01*
X140517714Y-86884124D01*
X140517714Y-86026981D01*
X141184381Y-87026981D02*
X141089143Y-86979362D01*
X141041524Y-86931743D01*
X140993905Y-86836505D01*
X140993905Y-86550790D01*
X141041524Y-86455552D01*
X141089143Y-86407933D01*
X141184381Y-86360314D01*
X141327239Y-86360314D01*
X141422477Y-86407933D01*
X141470096Y-86455552D01*
X141517715Y-86550790D01*
X141517715Y-86836505D01*
X141470096Y-86931743D01*
X141422477Y-86979362D01*
X141327239Y-87026981D01*
X141184381Y-87026981D01*
X142089143Y-87026981D02*
X141993905Y-86979362D01*
X141946286Y-86931743D01*
X141898667Y-86836505D01*
X141898667Y-86550790D01*
X141946286Y-86455552D01*
X141993905Y-86407933D01*
X142089143Y-86360314D01*
X142232001Y-86360314D01*
X142327239Y-86407933D01*
X142374858Y-86455552D01*
X142422477Y-86550790D01*
X142422477Y-86836505D01*
X142374858Y-86931743D01*
X142327239Y-86979362D01*
X142232001Y-87026981D01*
X142089143Y-87026981D01*
X142851048Y-86360314D02*
X142851048Y-87360314D01*
X142851048Y-86407933D02*
X142946286Y-86360314D01*
X143136763Y-86360314D01*
X143232001Y-86407933D01*
X143279620Y-86455552D01*
X143327239Y-86550790D01*
X143327239Y-86836505D01*
X143279620Y-86931743D01*
X143232001Y-86979362D01*
X143136763Y-87026981D01*
X142946286Y-87026981D01*
X142851048Y-86979362D01*
X144374858Y-86026981D02*
X144946287Y-86026981D01*
X144660572Y-87026981D02*
X144660572Y-86026981D01*
X145660573Y-86979362D02*
X145565335Y-87026981D01*
X145374858Y-87026981D01*
X145279620Y-86979362D01*
X145232001Y-86884124D01*
X145232001Y-86503171D01*
X145279620Y-86407933D01*
X145374858Y-86360314D01*
X145565335Y-86360314D01*
X145660573Y-86407933D01*
X145708192Y-86503171D01*
X145708192Y-86598410D01*
X145232001Y-86693648D01*
X146279620Y-87026981D02*
X146184382Y-86979362D01*
X146136763Y-86884124D01*
X146136763Y-86026981D01*
X147041526Y-86979362D02*
X146946288Y-87026981D01*
X146755811Y-87026981D01*
X146660573Y-86979362D01*
X146612954Y-86884124D01*
X146612954Y-86503171D01*
X146660573Y-86407933D01*
X146755811Y-86360314D01*
X146946288Y-86360314D01*
X147041526Y-86407933D01*
X147089145Y-86503171D01*
X147089145Y-86598410D01*
X146612954Y-86693648D01*
X147374859Y-86360314D02*
X147755811Y-86360314D01*
X147517716Y-86026981D02*
X147517716Y-86884124D01*
X147565335Y-86979362D01*
X147660573Y-87026981D01*
X147755811Y-87026981D01*
X147993907Y-86360314D02*
X148232002Y-87026981D01*
X148470098Y-86360314D02*
X148232002Y-87026981D01*
X148136764Y-87265076D01*
X148089145Y-87312695D01*
X147993907Y-87360314D01*
X148851050Y-86360314D02*
X148851050Y-87360314D01*
X148851050Y-86407933D02*
X148946288Y-86360314D01*
X149136765Y-86360314D01*
X149232003Y-86407933D01*
X149279622Y-86455552D01*
X149327241Y-86550790D01*
X149327241Y-86836505D01*
X149279622Y-86931743D01*
X149232003Y-86979362D01*
X149136765Y-87026981D01*
X148946288Y-87026981D01*
X148851050Y-86979362D01*
X150136765Y-86979362D02*
X150041527Y-87026981D01*
X149851050Y-87026981D01*
X149755812Y-86979362D01*
X149708193Y-86884124D01*
X149708193Y-86503171D01*
X149755812Y-86407933D01*
X149851050Y-86360314D01*
X150041527Y-86360314D01*
X150136765Y-86407933D01*
X150184384Y-86503171D01*
X150184384Y-86598410D01*
X149708193Y-86693648D01*
X151803432Y-87026981D02*
X151803432Y-86026981D01*
X151803432Y-86979362D02*
X151708194Y-87026981D01*
X151517717Y-87026981D01*
X151422479Y-86979362D01*
X151374860Y-86931743D01*
X151327241Y-86836505D01*
X151327241Y-86550790D01*
X151374860Y-86455552D01*
X151422479Y-86407933D01*
X151517717Y-86360314D01*
X151708194Y-86360314D01*
X151803432Y-86407933D01*
X152279622Y-87026981D02*
X152279622Y-86360314D01*
X152279622Y-86550790D02*
X152327241Y-86455552D01*
X152374860Y-86407933D01*
X152470098Y-86360314D01*
X152565337Y-86360314D01*
X152898670Y-87026981D02*
X152898670Y-86360314D01*
X152898670Y-86026981D02*
X152851051Y-86074600D01*
X152898670Y-86122219D01*
X152946289Y-86074600D01*
X152898670Y-86026981D01*
X152898670Y-86122219D01*
X153279622Y-86360314D02*
X153517717Y-87026981D01*
X153755813Y-86360314D01*
X154517718Y-86979362D02*
X154422480Y-87026981D01*
X154232003Y-87026981D01*
X154136765Y-86979362D01*
X154089146Y-86884124D01*
X154089146Y-86503171D01*
X154136765Y-86407933D01*
X154232003Y-86360314D01*
X154422480Y-86360314D01*
X154517718Y-86407933D01*
X154565337Y-86503171D01*
X154565337Y-86598410D01*
X154089146Y-86693648D01*
X154993908Y-87026981D02*
X154993908Y-86360314D01*
X154993908Y-86550790D02*
X155041527Y-86455552D01*
X155089146Y-86407933D01*
X155184384Y-86360314D01*
X155279623Y-86360314D01*
X156993909Y-86026981D02*
X157327242Y-87026981D01*
X157660576Y-86026981D01*
X157898671Y-86026981D02*
X158517719Y-86026981D01*
X158184385Y-86407933D01*
X158327243Y-86407933D01*
X158422481Y-86455552D01*
X158470100Y-86503171D01*
X158517719Y-86598410D01*
X158517719Y-86836505D01*
X158470100Y-86931743D01*
X158422481Y-86979362D01*
X158327243Y-87026981D01*
X158041528Y-87026981D01*
X157946290Y-86979362D01*
X157898671Y-86931743D01*
X158946290Y-86931743D02*
X158993909Y-86979362D01*
X158946290Y-87026981D01*
X158898671Y-86979362D01*
X158946290Y-86931743D01*
X158946290Y-87026981D01*
X159612956Y-86026981D02*
X159708195Y-86026981D01*
X159803433Y-86074600D01*
X159851052Y-86122219D01*
X159898671Y-86217457D01*
X159946290Y-86407933D01*
X159946290Y-86646029D01*
X159898671Y-86836505D01*
X159851052Y-86931743D01*
X159803433Y-86979362D01*
X159708195Y-87026981D01*
X159612956Y-87026981D01*
X159517718Y-86979362D01*
X159470099Y-86931743D01*
X159422480Y-86836505D01*
X159374861Y-86646029D01*
X159374861Y-86407933D01*
X159422480Y-86217457D01*
X159470099Y-86122219D01*
X159517718Y-86074600D01*
X159612956Y-86026981D01*
D13*
X102518000Y-122556000D02*
X102518000Y-125856000D01*
X102518000Y-125856000D02*
X107918000Y-125856000D01*
X102518000Y-122556000D02*
X107918000Y-122556000D01*
X110900000Y-122556000D02*
X110900000Y-125856000D01*
X110900000Y-125856000D02*
X116300000Y-125856000D01*
X110900000Y-122556000D02*
X116300000Y-122556000D01*
X86366000Y-108594000D02*
X86366000Y-112894000D01*
X86366000Y-112894000D02*
X92066000Y-112894000D01*
X86366000Y-108594000D02*
X92066000Y-108594000D01*
X77476000Y-108594000D02*
X77476000Y-112894000D01*
X77476000Y-112894000D02*
X83176000Y-112894000D01*
X77476000Y-108594000D02*
X83176000Y-108594000D01*
X142014000Y-100824000D02*
X142014000Y-92724000D01*
X141974000Y-100824000D02*
X141974000Y-92724000D01*
X141934000Y-100824000D02*
X141934000Y-92724000D01*
X141894000Y-100823000D02*
X141894000Y-92725000D01*
X141854000Y-100821000D02*
X141854000Y-92727000D01*
X141814000Y-100820000D02*
X141814000Y-92728000D01*
X141774000Y-100817000D02*
X141774000Y-92731000D01*
X141734000Y-100815000D02*
X141734000Y-92733000D01*
X141694000Y-100812000D02*
X141694000Y-92736000D01*
X141654000Y-100809000D02*
X141654000Y-92739000D01*
X141614000Y-100805000D02*
X141614000Y-92743000D01*
X141574000Y-100801000D02*
X141574000Y-92747000D01*
X141534000Y-100796000D02*
X141534000Y-92752000D01*
X141494000Y-100791000D02*
X141494000Y-92757000D01*
X141454000Y-100786000D02*
X141454000Y-92762000D01*
X141414000Y-100780000D02*
X141414000Y-92768000D01*
X141374000Y-100774000D02*
X141374000Y-92774000D01*
X141334000Y-100768000D02*
X141334000Y-92780000D01*
X141293000Y-100761000D02*
X141293000Y-92787000D01*
X141253000Y-100753000D02*
X141253000Y-92795000D01*
X141213000Y-100745000D02*
X141213000Y-97754000D01*
X141213000Y-95794000D02*
X141213000Y-92803000D01*
X141173000Y-100737000D02*
X141173000Y-97754000D01*
X141173000Y-95794000D02*
X141173000Y-92811000D01*
X141133000Y-100729000D02*
X141133000Y-97754000D01*
X141133000Y-95794000D02*
X141133000Y-92819000D01*
X141093000Y-100720000D02*
X141093000Y-97754000D01*
X141093000Y-95794000D02*
X141093000Y-92828000D01*
X141053000Y-100710000D02*
X141053000Y-97754000D01*
X141053000Y-95794000D02*
X141053000Y-92838000D01*
X141013000Y-100700000D02*
X141013000Y-97754000D01*
X141013000Y-95794000D02*
X141013000Y-92848000D01*
X140973000Y-100690000D02*
X140973000Y-97754000D01*
X140973000Y-95794000D02*
X140973000Y-92858000D01*
X140933000Y-100679000D02*
X140933000Y-97754000D01*
X140933000Y-95794000D02*
X140933000Y-92869000D01*
X140893000Y-100668000D02*
X140893000Y-97754000D01*
X140893000Y-95794000D02*
X140893000Y-92880000D01*
X140853000Y-100657000D02*
X140853000Y-97754000D01*
X140853000Y-95794000D02*
X140853000Y-92891000D01*
X140813000Y-100644000D02*
X140813000Y-97754000D01*
X140813000Y-95794000D02*
X140813000Y-92904000D01*
X140773000Y-100632000D02*
X140773000Y-97754000D01*
X140773000Y-95794000D02*
X140773000Y-92916000D01*
X140733000Y-100619000D02*
X140733000Y-97754000D01*
X140733000Y-95794000D02*
X140733000Y-92929000D01*
X140693000Y-100606000D02*
X140693000Y-97754000D01*
X140693000Y-95794000D02*
X140693000Y-92942000D01*
X140653000Y-100592000D02*
X140653000Y-97754000D01*
X140653000Y-95794000D02*
X140653000Y-92956000D01*
X140613000Y-100577000D02*
X140613000Y-97754000D01*
X140613000Y-95794000D02*
X140613000Y-92971000D01*
X140573000Y-100563000D02*
X140573000Y-97754000D01*
X140573000Y-95794000D02*
X140573000Y-92985000D01*
X140533000Y-100547000D02*
X140533000Y-97754000D01*
X140533000Y-95794000D02*
X140533000Y-93001000D01*
X140493000Y-100532000D02*
X140493000Y-97754000D01*
X140493000Y-95794000D02*
X140493000Y-93016000D01*
X140453000Y-100515000D02*
X140453000Y-97754000D01*
X140453000Y-95794000D02*
X140453000Y-93033000D01*
X140413000Y-100499000D02*
X140413000Y-97754000D01*
X140413000Y-95794000D02*
X140413000Y-93049000D01*
X140373000Y-100481000D02*
X140373000Y-97754000D01*
X140373000Y-95794000D02*
X140373000Y-93067000D01*
X140333000Y-100464000D02*
X140333000Y-97754000D01*
X140333000Y-95794000D02*
X140333000Y-93084000D01*
X140293000Y-100445000D02*
X140293000Y-97754000D01*
X140293000Y-95794000D02*
X140293000Y-93103000D01*
X140253000Y-100426000D02*
X140253000Y-97754000D01*
X140253000Y-95794000D02*
X140253000Y-93122000D01*
X140213000Y-100407000D02*
X140213000Y-97754000D01*
X140213000Y-95794000D02*
X140213000Y-93141000D01*
X140173000Y-100387000D02*
X140173000Y-97754000D01*
X140173000Y-95794000D02*
X140173000Y-93161000D01*
X140133000Y-100367000D02*
X140133000Y-97754000D01*
X140133000Y-95794000D02*
X140133000Y-93181000D01*
X140093000Y-100346000D02*
X140093000Y-97754000D01*
X140093000Y-95794000D02*
X140093000Y-93202000D01*
X140053000Y-100324000D02*
X140053000Y-97754000D01*
X140053000Y-95794000D02*
X140053000Y-93224000D01*
X140013000Y-100302000D02*
X140013000Y-97754000D01*
X140013000Y-95794000D02*
X140013000Y-93246000D01*
X139973000Y-100279000D02*
X139973000Y-97754000D01*
X139973000Y-95794000D02*
X139973000Y-93269000D01*
X139933000Y-100256000D02*
X139933000Y-97754000D01*
X139933000Y-95794000D02*
X139933000Y-93292000D01*
X139893000Y-100232000D02*
X139893000Y-97754000D01*
X139893000Y-95794000D02*
X139893000Y-93316000D01*
X139853000Y-100208000D02*
X139853000Y-97754000D01*
X139853000Y-95794000D02*
X139853000Y-93340000D01*
X139813000Y-100182000D02*
X139813000Y-97754000D01*
X139813000Y-95794000D02*
X139813000Y-93366000D01*
X139773000Y-100157000D02*
X139773000Y-97754000D01*
X139773000Y-95794000D02*
X139773000Y-93391000D01*
X139733000Y-100130000D02*
X139733000Y-97754000D01*
X139733000Y-95794000D02*
X139733000Y-93418000D01*
X139693000Y-100103000D02*
X139693000Y-97754000D01*
X139693000Y-95794000D02*
X139693000Y-93445000D01*
X139653000Y-100075000D02*
X139653000Y-97754000D01*
X139653000Y-95794000D02*
X139653000Y-93473000D01*
X139613000Y-100046000D02*
X139613000Y-97754000D01*
X139613000Y-95794000D02*
X139613000Y-93502000D01*
X139573000Y-100017000D02*
X139573000Y-97754000D01*
X139573000Y-95794000D02*
X139573000Y-93531000D01*
X139533000Y-99987000D02*
X139533000Y-97754000D01*
X139533000Y-95794000D02*
X139533000Y-93561000D01*
X139493000Y-99956000D02*
X139493000Y-97754000D01*
X139493000Y-95794000D02*
X139493000Y-93592000D01*
X139453000Y-99924000D02*
X139453000Y-97754000D01*
X139453000Y-95794000D02*
X139453000Y-93624000D01*
X139413000Y-99892000D02*
X139413000Y-97754000D01*
X139413000Y-95794000D02*
X139413000Y-93656000D01*
X139373000Y-99858000D02*
X139373000Y-97754000D01*
X139373000Y-95794000D02*
X139373000Y-93690000D01*
X139333000Y-99824000D02*
X139333000Y-97754000D01*
X139333000Y-95794000D02*
X139333000Y-93724000D01*
X139293000Y-99789000D02*
X139293000Y-97754000D01*
X139293000Y-95794000D02*
X139293000Y-93759000D01*
X139253000Y-99753000D02*
X139253000Y-93795000D01*
X139213000Y-99716000D02*
X139213000Y-93832000D01*
X139173000Y-99678000D02*
X139173000Y-93870000D01*
X139133000Y-99639000D02*
X139133000Y-93909000D01*
X139093000Y-99598000D02*
X139093000Y-93950000D01*
X139053000Y-99557000D02*
X139053000Y-93991000D01*
X139013000Y-99514000D02*
X139013000Y-94034000D01*
X138973000Y-99471000D02*
X138973000Y-94077000D01*
X138933000Y-99426000D02*
X138933000Y-94122000D01*
X138893000Y-99379000D02*
X138893000Y-94169000D01*
X138853000Y-99331000D02*
X138853000Y-94217000D01*
X138813000Y-99282000D02*
X138813000Y-94266000D01*
X138773000Y-99231000D02*
X138773000Y-94317000D01*
X138733000Y-99178000D02*
X138733000Y-94370000D01*
X138693000Y-99123000D02*
X138693000Y-94425000D01*
X138653000Y-99067000D02*
X138653000Y-94481000D01*
X138613000Y-99008000D02*
X138613000Y-94540000D01*
X138573000Y-98947000D02*
X138573000Y-94601000D01*
X138533000Y-98883000D02*
X138533000Y-94665000D01*
X138493000Y-98817000D02*
X138493000Y-94731000D01*
X138453000Y-98748000D02*
X138453000Y-94800000D01*
X138413000Y-98676000D02*
X138413000Y-94872000D01*
X138373000Y-98600000D02*
X138373000Y-94948000D01*
X138333000Y-98519000D02*
X138333000Y-95029000D01*
X138293000Y-98434000D02*
X138293000Y-95114000D01*
X138253000Y-98344000D02*
X138253000Y-95204000D01*
X138213000Y-98247000D02*
X138213000Y-95301000D01*
X138173000Y-98143000D02*
X138173000Y-95405000D01*
X138133000Y-98028000D02*
X138133000Y-95520000D01*
X138093000Y-97901000D02*
X138093000Y-95647000D01*
X138053000Y-97757000D02*
X138053000Y-95791000D01*
X138013000Y-97588000D02*
X138013000Y-95960000D01*
X137973000Y-97372000D02*
X137973000Y-96176000D01*
X137933000Y-97020000D02*
X137933000Y-96528000D01*
X145964000Y-96774000D02*
X144764000Y-96774000D01*
X145364000Y-97424000D02*
X145364000Y-96124000D01*
X146104000Y-96774000D02*
G75*
G03X146104000Y-96774000I-4090000J0D01*
G01*
X162752000Y-110981000D02*
X160852000Y-110981000D01*
X161352000Y-113301000D02*
X162752000Y-113301000D01*
D14*
X159742000Y-120626000D02*
X159742000Y-120851000D01*
X163092000Y-120626000D02*
X163092000Y-120926000D01*
X163092000Y-123976000D02*
X163092000Y-123676000D01*
X159742000Y-123976000D02*
X159742000Y-123676000D01*
X159742000Y-120626000D02*
X163092000Y-120626000D01*
X159742000Y-123976000D02*
X163092000Y-123976000D01*
X159742000Y-120851000D02*
X158517000Y-120851000D01*
X124759107Y-127912000D02*
G75*
G03X124759107Y-127912000I-707107J0D01*
G01*
X139052000Y-133412000D02*
X139052000Y-109412000D01*
X139052000Y-109412000D02*
X121552000Y-109412000D01*
X121552000Y-109412000D02*
X121552000Y-133412000D01*
X121552000Y-133412000D02*
X139052000Y-133412000D01*
D13*
X111454000Y-138964000D02*
X117574000Y-138964000D01*
X111454000Y-143484000D02*
X117574000Y-143484000D01*
X111454000Y-138964000D02*
X111454000Y-140228000D01*
X111454000Y-142220000D02*
X111454000Y-143484000D01*
X117574000Y-138964000D02*
X117574000Y-140228000D01*
X117574000Y-142220000D02*
X117574000Y-143484000D01*
X150511000Y-120596000D02*
X152511000Y-120596000D01*
X152511000Y-122736000D02*
X150511000Y-122736000D01*
X117155000Y-88382600D02*
X117155000Y-90382600D01*
X117155000Y-90382600D02*
X121055000Y-90382600D01*
X117155000Y-88382600D02*
X121055000Y-88382600D01*
X156980000Y-92544000D02*
X157980000Y-92544000D01*
X157980000Y-90844000D02*
X156980000Y-90844000D01*
X118634000Y-92148000D02*
X120634000Y-92148000D01*
X120634000Y-94288000D02*
X118634000Y-94288000D01*
X114360000Y-111040000D02*
X109160000Y-111040000D01*
X109160000Y-107400000D02*
X114360000Y-107400000D01*
X121352000Y-144780000D02*
X121352000Y-144840000D01*
X121352000Y-144840000D02*
X124012000Y-144840000D01*
X124012000Y-144840000D02*
X124012000Y-144780000D01*
X124012000Y-144780000D02*
X121352000Y-144780000D01*
X121352000Y-143510000D02*
X121352000Y-142180000D01*
X121352000Y-142180000D02*
X122682000Y-142180000D01*
X151324000Y-144780000D02*
X151324000Y-144840000D01*
X151324000Y-144840000D02*
X153984000Y-144840000D01*
X153984000Y-144840000D02*
X153984000Y-144780000D01*
X153984000Y-144780000D02*
X151324000Y-144780000D01*
X151324000Y-143510000D02*
X151324000Y-142180000D01*
X151324000Y-142180000D02*
X152654000Y-142180000D01*
X138116000Y-144780000D02*
X138116000Y-144840000D01*
X138116000Y-144840000D02*
X140776000Y-144840000D01*
X140776000Y-144840000D02*
X140776000Y-144780000D01*
X140776000Y-144780000D02*
X138116000Y-144780000D01*
X138116000Y-143510000D02*
X138116000Y-142180000D01*
X138116000Y-142180000D02*
X139446000Y-142180000D01*
X150003000Y-99895000D02*
X152003000Y-99895000D01*
X152003000Y-102035000D02*
X150003000Y-102035000D01*
X111454000Y-132868000D02*
X117574000Y-132868000D01*
X111454000Y-137388000D02*
X117574000Y-137388000D01*
X111454000Y-132868000D02*
X111454000Y-134132000D01*
X111454000Y-136124000D02*
X111454000Y-137388000D01*
X117574000Y-132868000D02*
X117574000Y-134132000D01*
X117574000Y-136124000D02*
X117574000Y-137388000D01*
D14*
X92202000Y-127000000D02*
X87122000Y-127000000D01*
X87122000Y-121285000D02*
X87122000Y-122555000D01*
X87122000Y-127000000D02*
X87122000Y-126365000D01*
X92202000Y-121920000D02*
X92202000Y-122555000D01*
X92202000Y-127000000D02*
X92202000Y-126365000D01*
X92202000Y-127000000D02*
X92202000Y-127635000D01*
X92202000Y-127635000D02*
X87122000Y-127635000D01*
X87122000Y-127635000D02*
X87122000Y-127000000D01*
X87122000Y-121285000D02*
X92202000Y-121285000D01*
X92202000Y-121285000D02*
X92202000Y-121920000D01*
D13*
X109220000Y-118872000D02*
X114300000Y-118872000D01*
X109220000Y-114432000D02*
X114300000Y-114432000D01*
X114300000Y-120772000D02*
X109220000Y-120772000D01*
X114300000Y-120772000D02*
X114300000Y-114432000D01*
X109220000Y-120772000D02*
X109220000Y-114432000D01*
D14*
X56080000Y-104140000D02*
X56080000Y-83820000D01*
X100330000Y-104140000D02*
X56080000Y-104140000D01*
X100330000Y-83820000D02*
X100330000Y-104140000D01*
X56080000Y-83820000D02*
X100330000Y-83820000D01*
X134620000Y-88392000D02*
X122936000Y-88392000D01*
X122936000Y-88392000D02*
X122936000Y-94488000D01*
X134620000Y-88392000D02*
X134620000Y-94488000D01*
X134620000Y-94488000D02*
X122936000Y-94488000D01*
D13*
X87876000Y-115228000D02*
X86876000Y-115228000D01*
X86876000Y-116928000D02*
X87876000Y-116928000D01*
D14*
X56388000Y-119126000D02*
X55880000Y-119126000D01*
X56388000Y-125222000D02*
X56388000Y-119126000D01*
X55880000Y-125222000D02*
X56388000Y-125222000D01*
X83312000Y-114300000D02*
X83312000Y-130048000D01*
X55880000Y-130048000D02*
X55880000Y-114300000D01*
X83312000Y-130048000D02*
X55880000Y-130048000D01*
X83312000Y-114300000D02*
X55880000Y-114300000D01*
X56388000Y-135382000D02*
X55880000Y-135382000D01*
X56388000Y-141478000D02*
X56388000Y-135382000D01*
X55880000Y-141478000D02*
X56388000Y-141478000D01*
X83312000Y-130556000D02*
X83312000Y-146304000D01*
X55880000Y-146304000D02*
X55880000Y-130556000D01*
X83312000Y-146304000D02*
X55880000Y-146304000D01*
X83312000Y-130556000D02*
X55880000Y-130556000D01*
D15*
X56000000Y-113400000D02*
X66000000Y-113400000D01*
X66000000Y-105000000D02*
X66000000Y-113400000D01*
X56000000Y-105000000D02*
X66000000Y-105000000D01*
X56000000Y-113400000D02*
X56000000Y-105000000D01*
D13*
X169872000Y-96504000D02*
X169872000Y-94504000D01*
X172012000Y-94504000D02*
X172012000Y-96504000D01*
X88122000Y-144072000D02*
X86122000Y-144072000D01*
X86122000Y-141932000D02*
X88122000Y-141932000D01*
X124190000Y-138484000D02*
X122190000Y-138484000D01*
X122190000Y-136344000D02*
X124190000Y-136344000D01*
X98568000Y-129232000D02*
X100568000Y-129232000D01*
X100568000Y-131372000D02*
X98568000Y-131372000D01*
X152130000Y-96828000D02*
X150130000Y-96828000D01*
X150130000Y-94688000D02*
X152130000Y-94688000D01*
D15*
X150876000Y-127254000D02*
X175006000Y-127254000D01*
X150876000Y-134874000D02*
X150876000Y-127254000D01*
X175006000Y-134874000D02*
X150876000Y-134874000D01*
X175006000Y-127254000D02*
X175006000Y-134874000D01*
D14*
X134493000Y-96647000D02*
X122809000Y-96647000D01*
X122809000Y-96647000D02*
X122809000Y-102743000D01*
X134493000Y-96647000D02*
X134493000Y-102743000D01*
X134493000Y-102743000D02*
X122809000Y-102743000D01*
D13*
X93202000Y-117148000D02*
X91202000Y-117148000D01*
X91202000Y-115008000D02*
X93202000Y-115008000D01*
X144764000Y-122736000D02*
X142764000Y-122736000D01*
X142764000Y-120596000D02*
X144764000Y-120596000D01*
X144764000Y-126927000D02*
X142764000Y-126927000D01*
X142764000Y-124787000D02*
X144764000Y-124787000D01*
X144637000Y-132515000D02*
X142637000Y-132515000D01*
X142637000Y-130375000D02*
X144637000Y-130375000D01*
X166100000Y-119434000D02*
X164100000Y-119434000D01*
X164100000Y-117294000D02*
X166100000Y-117294000D01*
X166424000Y-94504000D02*
X166424000Y-96504000D01*
X164284000Y-96504000D02*
X164284000Y-94504000D01*
X167078000Y-96504000D02*
X167078000Y-94504000D01*
X169218000Y-94504000D02*
X169218000Y-96504000D01*
X152030000Y-89830000D02*
X150230000Y-89830000D01*
X150230000Y-93050000D02*
X152680000Y-93050000D01*
D15*
X162814000Y-108839000D02*
X174244000Y-108839000D01*
X162814000Y-99949000D02*
X174244000Y-99949000D01*
X174244000Y-99949000D02*
X174244000Y-108839000D01*
X162814000Y-108839000D02*
X162814000Y-99949000D01*
X163322000Y-87376000D02*
X163322000Y-91948000D01*
X175006000Y-91948000D02*
X175006000Y-87376000D01*
X175006000Y-91948000D02*
X163322000Y-91948000D01*
X175006000Y-87376000D02*
X163322000Y-87376000D01*
D13*
X147902000Y-106560000D02*
X146402000Y-106560000D01*
X146402000Y-106560000D02*
X146402000Y-108370000D01*
X146402000Y-108370000D02*
X141277000Y-108370000D01*
X147902000Y-116960000D02*
X146402000Y-116960000D01*
X146402000Y-116960000D02*
X146402000Y-115150000D01*
X146402000Y-115150000D02*
X145302000Y-115150000D01*
X111454000Y-126772000D02*
X117574000Y-126772000D01*
X111454000Y-131292000D02*
X117574000Y-131292000D01*
X111454000Y-126772000D02*
X111454000Y-128036000D01*
X111454000Y-130028000D02*
X111454000Y-131292000D01*
X117574000Y-126772000D02*
X117574000Y-128036000D01*
X117574000Y-130028000D02*
X117574000Y-131292000D01*
X165854000Y-114720000D02*
X164854000Y-114720000D01*
X164854000Y-116420000D02*
X165854000Y-116420000D01*
D14*
X99822000Y-143002000D02*
X99822000Y-134366000D01*
X93218000Y-143002000D02*
X93218000Y-134366000D01*
X98933000Y-141986000D02*
G75*
G03X98933000Y-141986000I-254000J0D01*
G01*
X97536000Y-143002000D02*
X99822000Y-143002000D01*
X93218000Y-143002000D02*
X95504000Y-143002000D01*
X97536000Y-143002000D02*
G75*
G03X96520000Y-141986000I-1016000J0D01*
G01*
X96520000Y-141986000D02*
G75*
G03X95504000Y-143002000I0J-1016000D01*
G01*
X93218000Y-134366000D02*
X99822000Y-134366000D01*
X113030000Y-104902000D02*
X113030000Y-96266000D01*
X106426000Y-104902000D02*
X106426000Y-96266000D01*
X112141000Y-103886000D02*
G75*
G03X112141000Y-103886000I-254000J0D01*
G01*
X110744000Y-104902000D02*
X113030000Y-104902000D01*
X106426000Y-104902000D02*
X108712000Y-104902000D01*
X110744000Y-104902000D02*
G75*
G03X109728000Y-103886000I-1016000J0D01*
G01*
X109728000Y-103886000D02*
G75*
G03X108712000Y-104902000I0J-1016000D01*
G01*
X106426000Y-96266000D02*
X113030000Y-96266000D01*
X113030000Y-93726000D02*
X113030000Y-85090000D01*
X106426000Y-93726000D02*
X106426000Y-85090000D01*
X112141000Y-92710000D02*
G75*
G03X112141000Y-92710000I-254000J0D01*
G01*
X110744000Y-93726000D02*
X113030000Y-93726000D01*
X106426000Y-93726000D02*
X108712000Y-93726000D01*
X110744000Y-93726000D02*
G75*
G03X109728000Y-92710000I-1016000J0D01*
G01*
X109728000Y-92710000D02*
G75*
G03X108712000Y-93726000I0J-1016000D01*
G01*
X106426000Y-85090000D02*
X113030000Y-85090000D01*
D13*
X144720000Y-144780000D02*
X144720000Y-144840000D01*
X144720000Y-144840000D02*
X147380000Y-144840000D01*
X147380000Y-144840000D02*
X147380000Y-144780000D01*
X147380000Y-144780000D02*
X144720000Y-144780000D01*
X144720000Y-143510000D02*
X144720000Y-142180000D01*
X144720000Y-142180000D02*
X146050000Y-142180000D01*
X157928000Y-144780000D02*
X157928000Y-144840000D01*
X157928000Y-144840000D02*
X160588000Y-144840000D01*
X160588000Y-144840000D02*
X160588000Y-144780000D01*
X160588000Y-144780000D02*
X157928000Y-144780000D01*
X157928000Y-143510000D02*
X157928000Y-142180000D01*
X157928000Y-142180000D02*
X159258000Y-142180000D01*
X127956000Y-144780000D02*
X127956000Y-144840000D01*
X127956000Y-144840000D02*
X130616000Y-144840000D01*
X130616000Y-144840000D02*
X130616000Y-144780000D01*
X130616000Y-144780000D02*
X127956000Y-144780000D01*
X127956000Y-143510000D02*
X127956000Y-142180000D01*
X127956000Y-142180000D02*
X129286000Y-142180000D01*
D14*
X167100381Y-142500381D02*
X166767047Y-142024190D01*
X166528952Y-142500381D02*
X166528952Y-141500381D01*
X166909905Y-141500381D01*
X167005143Y-141548000D01*
X167052762Y-141595619D01*
X167100381Y-141690857D01*
X167100381Y-141833714D01*
X167052762Y-141928952D01*
X167005143Y-141976571D01*
X166909905Y-142024190D01*
X166528952Y-142024190D01*
X167528952Y-141976571D02*
X167862286Y-141976571D01*
X168005143Y-142500381D02*
X167528952Y-142500381D01*
X167528952Y-141500381D01*
X168005143Y-141500381D01*
X168767048Y-141976571D02*
X168433714Y-141976571D01*
X168433714Y-142500381D02*
X168433714Y-141500381D01*
X168909905Y-141500381D01*
X169195619Y-141500381D02*
X169814667Y-141500381D01*
X169481333Y-141881333D01*
X169624191Y-141881333D01*
X169719429Y-141928952D01*
X169767048Y-141976571D01*
X169814667Y-142071810D01*
X169814667Y-142309905D01*
X169767048Y-142405143D01*
X169719429Y-142452762D01*
X169624191Y-142500381D01*
X169338476Y-142500381D01*
X169243238Y-142452762D01*
X169195619Y-142405143D01*
X66952381Y-97500381D02*
X66619047Y-97024190D01*
X66380952Y-97500381D02*
X66380952Y-96500381D01*
X66761905Y-96500381D01*
X66857143Y-96548000D01*
X66904762Y-96595619D01*
X66952381Y-96690857D01*
X66952381Y-96833714D01*
X66904762Y-96928952D01*
X66857143Y-96976571D01*
X66761905Y-97024190D01*
X66380952Y-97024190D01*
X67380952Y-96976571D02*
X67714286Y-96976571D01*
X67857143Y-97500381D02*
X67380952Y-97500381D01*
X67380952Y-96500381D01*
X67857143Y-96500381D01*
X68619048Y-96976571D02*
X68285714Y-96976571D01*
X68285714Y-97500381D02*
X68285714Y-96500381D01*
X68761905Y-96500381D01*
X69095238Y-96595619D02*
X69142857Y-96548000D01*
X69238095Y-96500381D01*
X69476191Y-96500381D01*
X69571429Y-96548000D01*
X69619048Y-96595619D01*
X69666667Y-96690857D01*
X69666667Y-96786095D01*
X69619048Y-96928952D01*
X69047619Y-97500381D01*
X69666667Y-97500381D01*
X105179905Y-122118381D02*
X105179905Y-121118381D01*
X105418000Y-121118381D01*
X105560858Y-121166000D01*
X105656096Y-121261238D01*
X105703715Y-121356476D01*
X105751334Y-121546952D01*
X105751334Y-121689810D01*
X105703715Y-121880286D01*
X105656096Y-121975524D01*
X105560858Y-122070762D01*
X105418000Y-122118381D01*
X105179905Y-122118381D01*
X106608477Y-121118381D02*
X106418000Y-121118381D01*
X106322762Y-121166000D01*
X106275143Y-121213619D01*
X106179905Y-121356476D01*
X106132286Y-121546952D01*
X106132286Y-121927905D01*
X106179905Y-122023143D01*
X106227524Y-122070762D01*
X106322762Y-122118381D01*
X106513239Y-122118381D01*
X106608477Y-122070762D01*
X106656096Y-122023143D01*
X106703715Y-121927905D01*
X106703715Y-121689810D01*
X106656096Y-121594571D01*
X106608477Y-121546952D01*
X106513239Y-121499333D01*
X106322762Y-121499333D01*
X106227524Y-121546952D01*
X106179905Y-121594571D01*
X106132286Y-121689810D01*
X113561905Y-122118381D02*
X113561905Y-121118381D01*
X113800000Y-121118381D01*
X113942858Y-121166000D01*
X114038096Y-121261238D01*
X114085715Y-121356476D01*
X114133334Y-121546952D01*
X114133334Y-121689810D01*
X114085715Y-121880286D01*
X114038096Y-121975524D01*
X113942858Y-122070762D01*
X113800000Y-122118381D01*
X113561905Y-122118381D01*
X115085715Y-122118381D02*
X114514286Y-122118381D01*
X114800000Y-122118381D02*
X114800000Y-121118381D01*
X114704762Y-121261238D01*
X114609524Y-121356476D01*
X114514286Y-121404095D01*
X88955714Y-107894381D02*
X88955714Y-106894381D01*
X89193809Y-106894381D01*
X89336667Y-106942000D01*
X89431905Y-107037238D01*
X89479524Y-107132476D01*
X89527143Y-107322952D01*
X89527143Y-107465810D01*
X89479524Y-107656286D01*
X89431905Y-107751524D01*
X89336667Y-107846762D01*
X89193809Y-107894381D01*
X88955714Y-107894381D01*
X90479524Y-107894381D02*
X89908095Y-107894381D01*
X90193809Y-107894381D02*
X90193809Y-106894381D01*
X90098571Y-107037238D01*
X90003333Y-107132476D01*
X89908095Y-107180095D01*
X91431905Y-107894381D02*
X90860476Y-107894381D01*
X91146190Y-107894381D02*
X91146190Y-106894381D01*
X91050952Y-107037238D01*
X90955714Y-107132476D01*
X90860476Y-107180095D01*
X79861714Y-108096381D02*
X79861714Y-107096381D01*
X80099809Y-107096381D01*
X80242667Y-107144000D01*
X80337905Y-107239238D01*
X80385524Y-107334476D01*
X80433143Y-107524952D01*
X80433143Y-107667810D01*
X80385524Y-107858286D01*
X80337905Y-107953524D01*
X80242667Y-108048762D01*
X80099809Y-108096381D01*
X79861714Y-108096381D01*
X81385524Y-108096381D02*
X80814095Y-108096381D01*
X81099809Y-108096381D02*
X81099809Y-107096381D01*
X81004571Y-107239238D01*
X80909333Y-107334476D01*
X80814095Y-107382095D01*
X82004571Y-107096381D02*
X82099810Y-107096381D01*
X82195048Y-107144000D01*
X82242667Y-107191619D01*
X82290286Y-107286857D01*
X82337905Y-107477333D01*
X82337905Y-107715429D01*
X82290286Y-107905905D01*
X82242667Y-108001143D01*
X82195048Y-108048762D01*
X82099810Y-108096381D01*
X82004571Y-108096381D01*
X81909333Y-108048762D01*
X81861714Y-108001143D01*
X81814095Y-107905905D01*
X81766476Y-107715429D01*
X81766476Y-107477333D01*
X81814095Y-107286857D01*
X81861714Y-107191619D01*
X81909333Y-107144000D01*
X82004571Y-107096381D01*
X141847334Y-102191143D02*
X141799715Y-102238762D01*
X141656858Y-102286381D01*
X141561620Y-102286381D01*
X141418762Y-102238762D01*
X141323524Y-102143524D01*
X141275905Y-102048286D01*
X141228286Y-101857810D01*
X141228286Y-101714952D01*
X141275905Y-101524476D01*
X141323524Y-101429238D01*
X141418762Y-101334000D01*
X141561620Y-101286381D01*
X141656858Y-101286381D01*
X141799715Y-101334000D01*
X141847334Y-101381619D01*
X142704477Y-101619714D02*
X142704477Y-102286381D01*
X142466381Y-101238762D02*
X142228286Y-101953048D01*
X142847334Y-101953048D01*
X161290095Y-109593381D02*
X161290095Y-110402905D01*
X161337714Y-110498143D01*
X161385333Y-110545762D01*
X161480571Y-110593381D01*
X161671048Y-110593381D01*
X161766286Y-110545762D01*
X161813905Y-110498143D01*
X161861524Y-110402905D01*
X161861524Y-109593381D01*
X162385333Y-110593381D02*
X162575809Y-110593381D01*
X162671048Y-110545762D01*
X162718667Y-110498143D01*
X162813905Y-110355286D01*
X162861524Y-110164810D01*
X162861524Y-109783857D01*
X162813905Y-109688619D01*
X162766286Y-109641000D01*
X162671048Y-109593381D01*
X162480571Y-109593381D01*
X162385333Y-109641000D01*
X162337714Y-109688619D01*
X162290095Y-109783857D01*
X162290095Y-110021952D01*
X162337714Y-110117190D01*
X162385333Y-110164810D01*
X162480571Y-110212429D01*
X162671048Y-110212429D01*
X162766286Y-110164810D01*
X162813905Y-110117190D01*
X162861524Y-110021952D01*
X160655095Y-119153381D02*
X160655095Y-119962905D01*
X160702714Y-120058143D01*
X160750333Y-120105762D01*
X160845571Y-120153381D01*
X161036048Y-120153381D01*
X161131286Y-120105762D01*
X161178905Y-120058143D01*
X161226524Y-119962905D01*
X161226524Y-119153381D01*
X162226524Y-120153381D02*
X161655095Y-120153381D01*
X161940809Y-120153381D02*
X161940809Y-119153381D01*
X161845571Y-119296238D01*
X161750333Y-119391476D01*
X161655095Y-119439095D01*
X139754381Y-122173905D02*
X139754381Y-121602476D01*
X140754381Y-121888191D02*
X139754381Y-121888191D01*
X140754381Y-120745333D02*
X140754381Y-121316762D01*
X140754381Y-121031048D02*
X139754381Y-121031048D01*
X139897238Y-121126286D01*
X139992476Y-121221524D01*
X140040095Y-121316762D01*
X109561334Y-141327143D02*
X109513715Y-141374762D01*
X109370858Y-141422381D01*
X109275620Y-141422381D01*
X109132762Y-141374762D01*
X109037524Y-141279524D01*
X108989905Y-141184286D01*
X108942286Y-140993810D01*
X108942286Y-140850952D01*
X108989905Y-140660476D01*
X109037524Y-140565238D01*
X109132762Y-140470000D01*
X109275620Y-140422381D01*
X109370858Y-140422381D01*
X109513715Y-140470000D01*
X109561334Y-140517619D01*
X110513715Y-141422381D02*
X109942286Y-141422381D01*
X110228000Y-141422381D02*
X110228000Y-140422381D01*
X110132762Y-140565238D01*
X110037524Y-140660476D01*
X109942286Y-140708095D01*
X151344334Y-123968381D02*
X151011000Y-123492190D01*
X150772905Y-123968381D02*
X150772905Y-122968381D01*
X151153858Y-122968381D01*
X151249096Y-123016000D01*
X151296715Y-123063619D01*
X151344334Y-123158857D01*
X151344334Y-123301714D01*
X151296715Y-123396952D01*
X151249096Y-123444571D01*
X151153858Y-123492190D01*
X150772905Y-123492190D01*
X151725286Y-123063619D02*
X151772905Y-123016000D01*
X151868143Y-122968381D01*
X152106239Y-122968381D01*
X152201477Y-123016000D01*
X152249096Y-123063619D01*
X152296715Y-123158857D01*
X152296715Y-123254095D01*
X152249096Y-123396952D01*
X151677667Y-123968381D01*
X152296715Y-123968381D01*
X118666905Y-87834981D02*
X118666905Y-86834981D01*
X118905000Y-86834981D01*
X119047858Y-86882600D01*
X119143096Y-86977838D01*
X119190715Y-87073076D01*
X119238334Y-87263552D01*
X119238334Y-87406410D01*
X119190715Y-87596886D01*
X119143096Y-87692124D01*
X119047858Y-87787362D01*
X118905000Y-87834981D01*
X118666905Y-87834981D01*
X119619286Y-86930219D02*
X119666905Y-86882600D01*
X119762143Y-86834981D01*
X120000239Y-86834981D01*
X120095477Y-86882600D01*
X120143096Y-86930219D01*
X120190715Y-87025457D01*
X120190715Y-87120695D01*
X120143096Y-87263552D01*
X119571667Y-87834981D01*
X120190715Y-87834981D01*
X155313143Y-94083143D02*
X155265524Y-94130762D01*
X155122667Y-94178381D01*
X155027429Y-94178381D01*
X154884571Y-94130762D01*
X154789333Y-94035524D01*
X154741714Y-93940286D01*
X154694095Y-93749810D01*
X154694095Y-93606952D01*
X154741714Y-93416476D01*
X154789333Y-93321238D01*
X154884571Y-93226000D01*
X155027429Y-93178381D01*
X155122667Y-93178381D01*
X155265524Y-93226000D01*
X155313143Y-93273619D01*
X156265524Y-94178381D02*
X155694095Y-94178381D01*
X155979809Y-94178381D02*
X155979809Y-93178381D01*
X155884571Y-93321238D01*
X155789333Y-93416476D01*
X155694095Y-93464095D01*
X156884571Y-93178381D02*
X156979810Y-93178381D01*
X157075048Y-93226000D01*
X157122667Y-93273619D01*
X157170286Y-93368857D01*
X157217905Y-93559333D01*
X157217905Y-93797429D01*
X157170286Y-93987905D01*
X157122667Y-94083143D01*
X157075048Y-94130762D01*
X156979810Y-94178381D01*
X156884571Y-94178381D01*
X156789333Y-94130762D01*
X156741714Y-94083143D01*
X156694095Y-93987905D01*
X156646476Y-93797429D01*
X156646476Y-93559333D01*
X156694095Y-93368857D01*
X156741714Y-93273619D01*
X156789333Y-93226000D01*
X156884571Y-93178381D01*
X118991143Y-95520381D02*
X118657809Y-95044190D01*
X118419714Y-95520381D02*
X118419714Y-94520381D01*
X118800667Y-94520381D01*
X118895905Y-94568000D01*
X118943524Y-94615619D01*
X118991143Y-94710857D01*
X118991143Y-94853714D01*
X118943524Y-94948952D01*
X118895905Y-94996571D01*
X118800667Y-95044190D01*
X118419714Y-95044190D01*
X119943524Y-95520381D02*
X119372095Y-95520381D01*
X119657809Y-95520381D02*
X119657809Y-94520381D01*
X119562571Y-94663238D01*
X119467333Y-94758476D01*
X119372095Y-94806095D01*
X120276857Y-94520381D02*
X120943524Y-94520381D01*
X120514952Y-95520381D01*
X106259334Y-109672381D02*
X105926000Y-109196190D01*
X105687905Y-109672381D02*
X105687905Y-108672381D01*
X106068858Y-108672381D01*
X106164096Y-108720000D01*
X106211715Y-108767619D01*
X106259334Y-108862857D01*
X106259334Y-109005714D01*
X106211715Y-109100952D01*
X106164096Y-109148571D01*
X106068858Y-109196190D01*
X105687905Y-109196190D01*
X107164096Y-108672381D02*
X106687905Y-108672381D01*
X106640286Y-109148571D01*
X106687905Y-109100952D01*
X106783143Y-109053333D01*
X107021239Y-109053333D01*
X107116477Y-109100952D01*
X107164096Y-109148571D01*
X107211715Y-109243810D01*
X107211715Y-109481905D01*
X107164096Y-109577143D01*
X107116477Y-109624762D01*
X107021239Y-109672381D01*
X106783143Y-109672381D01*
X106687905Y-109624762D01*
X106640286Y-109577143D01*
X121777238Y-140632381D02*
X122015333Y-141632381D01*
X122205810Y-140918095D01*
X122396286Y-141632381D01*
X122634381Y-140632381D01*
X123491524Y-140632381D02*
X123015333Y-140632381D01*
X122967714Y-141108571D01*
X123015333Y-141060952D01*
X123110571Y-141013333D01*
X123348667Y-141013333D01*
X123443905Y-141060952D01*
X123491524Y-141108571D01*
X123539143Y-141203810D01*
X123539143Y-141441905D01*
X123491524Y-141537143D01*
X123443905Y-141584762D01*
X123348667Y-141632381D01*
X123110571Y-141632381D01*
X123015333Y-141584762D01*
X122967714Y-141537143D01*
X151749238Y-140632381D02*
X151987333Y-141632381D01*
X152177810Y-140918095D01*
X152368286Y-141632381D01*
X152606381Y-140632381D01*
X152892095Y-140632381D02*
X153511143Y-140632381D01*
X153177809Y-141013333D01*
X153320667Y-141013333D01*
X153415905Y-141060952D01*
X153463524Y-141108571D01*
X153511143Y-141203810D01*
X153511143Y-141441905D01*
X153463524Y-141537143D01*
X153415905Y-141584762D01*
X153320667Y-141632381D01*
X153034952Y-141632381D01*
X152939714Y-141584762D01*
X152892095Y-141537143D01*
X138541238Y-140632381D02*
X138779333Y-141632381D01*
X138969810Y-140918095D01*
X139160286Y-141632381D01*
X139398381Y-140632381D01*
X140303143Y-141632381D02*
X139731714Y-141632381D01*
X140017428Y-141632381D02*
X140017428Y-140632381D01*
X139922190Y-140775238D01*
X139826952Y-140870476D01*
X139731714Y-140918095D01*
X150836334Y-103267381D02*
X150503000Y-102791190D01*
X150264905Y-103267381D02*
X150264905Y-102267381D01*
X150645858Y-102267381D01*
X150741096Y-102315000D01*
X150788715Y-102362619D01*
X150836334Y-102457857D01*
X150836334Y-102600714D01*
X150788715Y-102695952D01*
X150741096Y-102743571D01*
X150645858Y-102791190D01*
X150264905Y-102791190D01*
X151312524Y-103267381D02*
X151503000Y-103267381D01*
X151598239Y-103219762D01*
X151645858Y-103172143D01*
X151741096Y-103029286D01*
X151788715Y-102838810D01*
X151788715Y-102457857D01*
X151741096Y-102362619D01*
X151693477Y-102315000D01*
X151598239Y-102267381D01*
X151407762Y-102267381D01*
X151312524Y-102315000D01*
X151264905Y-102362619D01*
X151217286Y-102457857D01*
X151217286Y-102695952D01*
X151264905Y-102791190D01*
X151312524Y-102838810D01*
X151407762Y-102886429D01*
X151598239Y-102886429D01*
X151693477Y-102838810D01*
X151741096Y-102791190D01*
X151788715Y-102695952D01*
X109561334Y-135739143D02*
X109513715Y-135786762D01*
X109370858Y-135834381D01*
X109275620Y-135834381D01*
X109132762Y-135786762D01*
X109037524Y-135691524D01*
X108989905Y-135596286D01*
X108942286Y-135405810D01*
X108942286Y-135262952D01*
X108989905Y-135072476D01*
X109037524Y-134977238D01*
X109132762Y-134882000D01*
X109275620Y-134834381D01*
X109370858Y-134834381D01*
X109513715Y-134882000D01*
X109561334Y-134929619D01*
X109942286Y-134929619D02*
X109989905Y-134882000D01*
X110085143Y-134834381D01*
X110323239Y-134834381D01*
X110418477Y-134882000D01*
X110466096Y-134929619D01*
X110513715Y-135024857D01*
X110513715Y-135120095D01*
X110466096Y-135262952D01*
X109894667Y-135834381D01*
X110513715Y-135834381D01*
X88923905Y-129357381D02*
X88923905Y-128357381D01*
X89304858Y-128357381D01*
X89400096Y-128405000D01*
X89447715Y-128452619D01*
X89495334Y-128547857D01*
X89495334Y-128690714D01*
X89447715Y-128785952D01*
X89400096Y-128833571D01*
X89304858Y-128881190D01*
X88923905Y-128881190D01*
X90447715Y-129357381D02*
X89876286Y-129357381D01*
X90162000Y-129357381D02*
X90162000Y-128357381D01*
X90066762Y-128500238D01*
X89971524Y-128595476D01*
X89876286Y-128643095D01*
X110926667Y-120954381D02*
X110926667Y-121668667D01*
X110879047Y-121811524D01*
X110783809Y-121906762D01*
X110640952Y-121954381D01*
X110545714Y-121954381D01*
X111402857Y-121954381D02*
X111402857Y-120954381D01*
X111783810Y-120954381D01*
X111879048Y-121002000D01*
X111926667Y-121049619D01*
X111974286Y-121144857D01*
X111974286Y-121287714D01*
X111926667Y-121382952D01*
X111879048Y-121430571D01*
X111783810Y-121478190D01*
X111402857Y-121478190D01*
X112926667Y-121954381D02*
X112355238Y-121954381D01*
X112640952Y-121954381D02*
X112640952Y-120954381D01*
X112545714Y-121097238D01*
X112450476Y-121192476D01*
X112355238Y-121240095D01*
X99568095Y-81522381D02*
X99568095Y-82331905D01*
X99615714Y-82427143D01*
X99663333Y-82474762D01*
X99758571Y-82522381D01*
X99949048Y-82522381D01*
X100044286Y-82474762D01*
X100091905Y-82427143D01*
X100139524Y-82331905D01*
X100139524Y-81522381D01*
X100520476Y-81522381D02*
X101139524Y-81522381D01*
X100806190Y-81903333D01*
X100949048Y-81903333D01*
X101044286Y-81950952D01*
X101091905Y-81998571D01*
X101139524Y-82093810D01*
X101139524Y-82331905D01*
X101091905Y-82427143D01*
X101044286Y-82474762D01*
X100949048Y-82522381D01*
X100663333Y-82522381D01*
X100568095Y-82474762D01*
X100520476Y-82427143D01*
X74115713Y-94427143D02*
X74068094Y-94474762D01*
X73925237Y-94522381D01*
X73829999Y-94522381D01*
X73687141Y-94474762D01*
X73591903Y-94379524D01*
X73544284Y-94284286D01*
X73496665Y-94093810D01*
X73496665Y-93950952D01*
X73544284Y-93760476D01*
X73591903Y-93665238D01*
X73687141Y-93570000D01*
X73829999Y-93522381D01*
X73925237Y-93522381D01*
X74068094Y-93570000D01*
X74115713Y-93617619D01*
X74544284Y-94522381D02*
X74544284Y-93522381D01*
X74925237Y-93522381D01*
X75020475Y-93570000D01*
X75068094Y-93617619D01*
X75115713Y-93712857D01*
X75115713Y-93855714D01*
X75068094Y-93950952D01*
X75020475Y-93998571D01*
X74925237Y-94046190D01*
X74544284Y-94046190D01*
X75496665Y-93617619D02*
X75544284Y-93570000D01*
X75639522Y-93522381D01*
X75877618Y-93522381D01*
X75972856Y-93570000D01*
X76020475Y-93617619D01*
X76068094Y-93712857D01*
X76068094Y-93808095D01*
X76020475Y-93950952D01*
X75449046Y-94522381D01*
X76068094Y-94522381D01*
X77020475Y-94522381D02*
X76449046Y-94522381D01*
X76734760Y-94522381D02*
X76734760Y-93522381D01*
X76639522Y-93665238D01*
X76544284Y-93760476D01*
X76449046Y-93808095D01*
X77639522Y-93522381D02*
X77734761Y-93522381D01*
X77829999Y-93570000D01*
X77877618Y-93617619D01*
X77925237Y-93712857D01*
X77972856Y-93903333D01*
X77972856Y-94141429D01*
X77925237Y-94331905D01*
X77877618Y-94427143D01*
X77829999Y-94474762D01*
X77734761Y-94522381D01*
X77639522Y-94522381D01*
X77544284Y-94474762D01*
X77496665Y-94427143D01*
X77449046Y-94331905D01*
X77401427Y-94141429D01*
X77401427Y-93903333D01*
X77449046Y-93712857D01*
X77496665Y-93617619D01*
X77544284Y-93570000D01*
X77639522Y-93522381D01*
X78353808Y-93617619D02*
X78401427Y-93570000D01*
X78496665Y-93522381D01*
X78734761Y-93522381D01*
X78829999Y-93570000D01*
X78877618Y-93617619D01*
X78925237Y-93712857D01*
X78925237Y-93808095D01*
X78877618Y-93950952D01*
X78306189Y-94522381D01*
X78925237Y-94522381D01*
X80115713Y-94522381D02*
X80115713Y-93522381D01*
X80115713Y-93903333D02*
X80210951Y-93855714D01*
X80401428Y-93855714D01*
X80496666Y-93903333D01*
X80544285Y-93950952D01*
X80591904Y-94046190D01*
X80591904Y-94331905D01*
X80544285Y-94427143D01*
X80496666Y-94474762D01*
X80401428Y-94522381D01*
X80210951Y-94522381D01*
X80115713Y-94474762D01*
X81020475Y-94522381D02*
X81020475Y-93855714D01*
X81020475Y-94046190D02*
X81068094Y-93950952D01*
X81115713Y-93903333D01*
X81210951Y-93855714D01*
X81306190Y-93855714D01*
X82020476Y-94474762D02*
X81925238Y-94522381D01*
X81734761Y-94522381D01*
X81639523Y-94474762D01*
X81591904Y-94379524D01*
X81591904Y-93998571D01*
X81639523Y-93903333D01*
X81734761Y-93855714D01*
X81925238Y-93855714D01*
X82020476Y-93903333D01*
X82068095Y-93998571D01*
X82068095Y-94093810D01*
X81591904Y-94189048D01*
X82925238Y-94522381D02*
X82925238Y-93998571D01*
X82877619Y-93903333D01*
X82782381Y-93855714D01*
X82591904Y-93855714D01*
X82496666Y-93903333D01*
X82925238Y-94474762D02*
X82830000Y-94522381D01*
X82591904Y-94522381D01*
X82496666Y-94474762D01*
X82449047Y-94379524D01*
X82449047Y-94284286D01*
X82496666Y-94189048D01*
X82591904Y-94141429D01*
X82830000Y-94141429D01*
X82925238Y-94093810D01*
X83401428Y-94522381D02*
X83401428Y-93522381D01*
X83496666Y-94141429D02*
X83782381Y-94522381D01*
X83782381Y-93855714D02*
X83401428Y-94236667D01*
X84353809Y-94522381D02*
X84258571Y-94474762D01*
X84210952Y-94427143D01*
X84163333Y-94331905D01*
X84163333Y-94046190D01*
X84210952Y-93950952D01*
X84258571Y-93903333D01*
X84353809Y-93855714D01*
X84496667Y-93855714D01*
X84591905Y-93903333D01*
X84639524Y-93950952D01*
X84687143Y-94046190D01*
X84687143Y-94331905D01*
X84639524Y-94427143D01*
X84591905Y-94474762D01*
X84496667Y-94522381D01*
X84353809Y-94522381D01*
X85544286Y-93855714D02*
X85544286Y-94522381D01*
X85115714Y-93855714D02*
X85115714Y-94379524D01*
X85163333Y-94474762D01*
X85258571Y-94522381D01*
X85401429Y-94522381D01*
X85496667Y-94474762D01*
X85544286Y-94427143D01*
X85877619Y-93855714D02*
X86258571Y-93855714D01*
X86020476Y-93522381D02*
X86020476Y-94379524D01*
X86068095Y-94474762D01*
X86163333Y-94522381D01*
X86258571Y-94522381D01*
X87353810Y-94522381D02*
X87353810Y-93522381D01*
X87353810Y-93903333D02*
X87449048Y-93855714D01*
X87639525Y-93855714D01*
X87734763Y-93903333D01*
X87782382Y-93950952D01*
X87830001Y-94046190D01*
X87830001Y-94331905D01*
X87782382Y-94427143D01*
X87734763Y-94474762D01*
X87639525Y-94522381D01*
X87449048Y-94522381D01*
X87353810Y-94474762D01*
X88401429Y-94522381D02*
X88306191Y-94474762D01*
X88258572Y-94427143D01*
X88210953Y-94331905D01*
X88210953Y-94046190D01*
X88258572Y-93950952D01*
X88306191Y-93903333D01*
X88401429Y-93855714D01*
X88544287Y-93855714D01*
X88639525Y-93903333D01*
X88687144Y-93950952D01*
X88734763Y-94046190D01*
X88734763Y-94331905D01*
X88687144Y-94427143D01*
X88639525Y-94474762D01*
X88544287Y-94522381D01*
X88401429Y-94522381D01*
X89591906Y-94522381D02*
X89591906Y-93998571D01*
X89544287Y-93903333D01*
X89449049Y-93855714D01*
X89258572Y-93855714D01*
X89163334Y-93903333D01*
X89591906Y-94474762D02*
X89496668Y-94522381D01*
X89258572Y-94522381D01*
X89163334Y-94474762D01*
X89115715Y-94379524D01*
X89115715Y-94284286D01*
X89163334Y-94189048D01*
X89258572Y-94141429D01*
X89496668Y-94141429D01*
X89591906Y-94093810D01*
X90068096Y-94522381D02*
X90068096Y-93855714D01*
X90068096Y-94046190D02*
X90115715Y-93950952D01*
X90163334Y-93903333D01*
X90258572Y-93855714D01*
X90353811Y-93855714D01*
X91115716Y-94522381D02*
X91115716Y-93522381D01*
X91115716Y-94474762D02*
X91020478Y-94522381D01*
X90830001Y-94522381D01*
X90734763Y-94474762D01*
X90687144Y-94427143D01*
X90639525Y-94331905D01*
X90639525Y-94046190D01*
X90687144Y-93950952D01*
X90734763Y-93903333D01*
X90830001Y-93855714D01*
X91020478Y-93855714D01*
X91115716Y-93903333D01*
X128016095Y-96416381D02*
X128016095Y-97225905D01*
X128063714Y-97321143D01*
X128111333Y-97368762D01*
X128206571Y-97416381D01*
X128397048Y-97416381D01*
X128492286Y-97368762D01*
X128539905Y-97321143D01*
X128587524Y-97225905D01*
X128587524Y-96416381D01*
X129539905Y-96416381D02*
X129063714Y-96416381D01*
X129016095Y-96892571D01*
X129063714Y-96844952D01*
X129158952Y-96797333D01*
X129397048Y-96797333D01*
X129492286Y-96844952D01*
X129539905Y-96892571D01*
X129587524Y-96987810D01*
X129587524Y-97225905D01*
X129539905Y-97321143D01*
X129492286Y-97368762D01*
X129397048Y-97416381D01*
X129158952Y-97416381D01*
X129063714Y-97368762D01*
X129016095Y-97321143D01*
X87209334Y-114935143D02*
X87161715Y-114982762D01*
X87018858Y-115030381D01*
X86923620Y-115030381D01*
X86780762Y-114982762D01*
X86685524Y-114887524D01*
X86637905Y-114792286D01*
X86590286Y-114601810D01*
X86590286Y-114458952D01*
X86637905Y-114268476D01*
X86685524Y-114173238D01*
X86780762Y-114078000D01*
X86923620Y-114030381D01*
X87018858Y-114030381D01*
X87161715Y-114078000D01*
X87209334Y-114125619D01*
X87542667Y-114030381D02*
X88209334Y-114030381D01*
X87780762Y-115030381D01*
X84502667Y-122134381D02*
X84502667Y-122848667D01*
X84455047Y-122991524D01*
X84359809Y-123086762D01*
X84216952Y-123134381D01*
X84121714Y-123134381D01*
X85502667Y-123134381D02*
X84931238Y-123134381D01*
X85216952Y-123134381D02*
X85216952Y-122134381D01*
X85121714Y-122277238D01*
X85026476Y-122372476D01*
X84931238Y-122420095D01*
X84248667Y-137374381D02*
X84248667Y-138088667D01*
X84201047Y-138231524D01*
X84105809Y-138326762D01*
X83962952Y-138374381D01*
X83867714Y-138374381D01*
X84677238Y-137469619D02*
X84724857Y-137422000D01*
X84820095Y-137374381D01*
X85058191Y-137374381D01*
X85153429Y-137422000D01*
X85201048Y-137469619D01*
X85248667Y-137564857D01*
X85248667Y-137660095D01*
X85201048Y-137802952D01*
X84629619Y-138374381D01*
X85248667Y-138374381D01*
X67992667Y-109688381D02*
X67992667Y-110402667D01*
X67945047Y-110545524D01*
X67849809Y-110640762D01*
X67706952Y-110688381D01*
X67611714Y-110688381D01*
X68373619Y-109688381D02*
X68992667Y-109688381D01*
X68659333Y-110069333D01*
X68802191Y-110069333D01*
X68897429Y-110116952D01*
X68945048Y-110164571D01*
X68992667Y-110259810D01*
X68992667Y-110497905D01*
X68945048Y-110593143D01*
X68897429Y-110640762D01*
X68802191Y-110688381D01*
X68516476Y-110688381D01*
X68421238Y-110640762D01*
X68373619Y-110593143D01*
X173244381Y-96146857D02*
X172768190Y-96480191D01*
X173244381Y-96718286D02*
X172244381Y-96718286D01*
X172244381Y-96337333D01*
X172292000Y-96242095D01*
X172339619Y-96194476D01*
X172434857Y-96146857D01*
X172577714Y-96146857D01*
X172672952Y-96194476D01*
X172720571Y-96242095D01*
X172768190Y-96337333D01*
X172768190Y-96718286D01*
X173244381Y-95194476D02*
X173244381Y-95765905D01*
X173244381Y-95480191D02*
X172244381Y-95480191D01*
X172387238Y-95575429D01*
X172482476Y-95670667D01*
X172530095Y-95765905D01*
X172339619Y-94813524D02*
X172292000Y-94765905D01*
X172244381Y-94670667D01*
X172244381Y-94432571D01*
X172292000Y-94337333D01*
X172339619Y-94289714D01*
X172434857Y-94242095D01*
X172530095Y-94242095D01*
X172672952Y-94289714D01*
X173244381Y-94861143D01*
X173244381Y-94242095D01*
X86479143Y-141604381D02*
X86145809Y-141128190D01*
X85907714Y-141604381D02*
X85907714Y-140604381D01*
X86288667Y-140604381D01*
X86383905Y-140652000D01*
X86431524Y-140699619D01*
X86479143Y-140794857D01*
X86479143Y-140937714D01*
X86431524Y-141032952D01*
X86383905Y-141080571D01*
X86288667Y-141128190D01*
X85907714Y-141128190D01*
X87431524Y-141604381D02*
X86860095Y-141604381D01*
X87145809Y-141604381D02*
X87145809Y-140604381D01*
X87050571Y-140747238D01*
X86955333Y-140842476D01*
X86860095Y-140890095D01*
X87764857Y-140604381D02*
X88383905Y-140604381D01*
X88050571Y-140985333D01*
X88193429Y-140985333D01*
X88288667Y-141032952D01*
X88336286Y-141080571D01*
X88383905Y-141175810D01*
X88383905Y-141413905D01*
X88336286Y-141509143D01*
X88288667Y-141556762D01*
X88193429Y-141604381D01*
X87907714Y-141604381D01*
X87812476Y-141556762D01*
X87764857Y-141509143D01*
X122547143Y-136016381D02*
X122213809Y-135540190D01*
X121975714Y-136016381D02*
X121975714Y-135016381D01*
X122356667Y-135016381D01*
X122451905Y-135064000D01*
X122499524Y-135111619D01*
X122547143Y-135206857D01*
X122547143Y-135349714D01*
X122499524Y-135444952D01*
X122451905Y-135492571D01*
X122356667Y-135540190D01*
X121975714Y-135540190D01*
X123499524Y-136016381D02*
X122928095Y-136016381D01*
X123213809Y-136016381D02*
X123213809Y-135016381D01*
X123118571Y-135159238D01*
X123023333Y-135254476D01*
X122928095Y-135302095D01*
X124356667Y-135349714D02*
X124356667Y-136016381D01*
X124118571Y-134968762D02*
X123880476Y-135683048D01*
X124499524Y-135683048D01*
X98925143Y-132604381D02*
X98591809Y-132128190D01*
X98353714Y-132604381D02*
X98353714Y-131604381D01*
X98734667Y-131604381D01*
X98829905Y-131652000D01*
X98877524Y-131699619D01*
X98925143Y-131794857D01*
X98925143Y-131937714D01*
X98877524Y-132032952D01*
X98829905Y-132080571D01*
X98734667Y-132128190D01*
X98353714Y-132128190D01*
X99877524Y-132604381D02*
X99306095Y-132604381D01*
X99591809Y-132604381D02*
X99591809Y-131604381D01*
X99496571Y-131747238D01*
X99401333Y-131842476D01*
X99306095Y-131890095D01*
X100782286Y-131604381D02*
X100306095Y-131604381D01*
X100258476Y-132080571D01*
X100306095Y-132032952D01*
X100401333Y-131985333D01*
X100639429Y-131985333D01*
X100734667Y-132032952D01*
X100782286Y-132080571D01*
X100829905Y-132175810D01*
X100829905Y-132413905D01*
X100782286Y-132509143D01*
X100734667Y-132556762D01*
X100639429Y-132604381D01*
X100401333Y-132604381D01*
X100306095Y-132556762D01*
X100258476Y-132509143D01*
X150487143Y-98242381D02*
X150153809Y-97766190D01*
X149915714Y-98242381D02*
X149915714Y-97242381D01*
X150296667Y-97242381D01*
X150391905Y-97290000D01*
X150439524Y-97337619D01*
X150487143Y-97432857D01*
X150487143Y-97575714D01*
X150439524Y-97670952D01*
X150391905Y-97718571D01*
X150296667Y-97766190D01*
X149915714Y-97766190D01*
X151439524Y-98242381D02*
X150868095Y-98242381D01*
X151153809Y-98242381D02*
X151153809Y-97242381D01*
X151058571Y-97385238D01*
X150963333Y-97480476D01*
X150868095Y-97528095D01*
X152296667Y-97242381D02*
X152106190Y-97242381D01*
X152010952Y-97290000D01*
X151963333Y-97337619D01*
X151868095Y-97480476D01*
X151820476Y-97670952D01*
X151820476Y-98051905D01*
X151868095Y-98147143D01*
X151915714Y-98194762D01*
X152010952Y-98242381D01*
X152201429Y-98242381D01*
X152296667Y-98194762D01*
X152344286Y-98147143D01*
X152391905Y-98051905D01*
X152391905Y-97813810D01*
X152344286Y-97718571D01*
X152296667Y-97670952D01*
X152201429Y-97623333D01*
X152010952Y-97623333D01*
X151915714Y-97670952D01*
X151868095Y-97718571D01*
X151820476Y-97813810D01*
X171132667Y-125118762D02*
X171275524Y-125166381D01*
X171513620Y-125166381D01*
X171608858Y-125118762D01*
X171656477Y-125071143D01*
X171704096Y-124975905D01*
X171704096Y-124880667D01*
X171656477Y-124785429D01*
X171608858Y-124737810D01*
X171513620Y-124690190D01*
X171323143Y-124642571D01*
X171227905Y-124594952D01*
X171180286Y-124547333D01*
X171132667Y-124452095D01*
X171132667Y-124356857D01*
X171180286Y-124261619D01*
X171227905Y-124214000D01*
X171323143Y-124166381D01*
X171561239Y-124166381D01*
X171704096Y-124214000D01*
X172037429Y-124166381D02*
X172275524Y-125166381D01*
X172466001Y-124452095D01*
X172656477Y-125166381D01*
X172894572Y-124166381D01*
X173799334Y-125166381D02*
X173227905Y-125166381D01*
X173513619Y-125166381D02*
X173513619Y-124166381D01*
X173418381Y-124309238D01*
X173323143Y-124404476D01*
X173227905Y-124452095D01*
X127889095Y-104671381D02*
X127889095Y-105480905D01*
X127936714Y-105576143D01*
X127984333Y-105623762D01*
X128079571Y-105671381D01*
X128270048Y-105671381D01*
X128365286Y-105623762D01*
X128412905Y-105576143D01*
X128460524Y-105480905D01*
X128460524Y-104671381D01*
X129079571Y-105099952D02*
X128984333Y-105052333D01*
X128936714Y-105004714D01*
X128889095Y-104909476D01*
X128889095Y-104861857D01*
X128936714Y-104766619D01*
X128984333Y-104719000D01*
X129079571Y-104671381D01*
X129270048Y-104671381D01*
X129365286Y-104719000D01*
X129412905Y-104766619D01*
X129460524Y-104861857D01*
X129460524Y-104909476D01*
X129412905Y-105004714D01*
X129365286Y-105052333D01*
X129270048Y-105099952D01*
X129079571Y-105099952D01*
X128984333Y-105147571D01*
X128936714Y-105195190D01*
X128889095Y-105290429D01*
X128889095Y-105480905D01*
X128936714Y-105576143D01*
X128984333Y-105623762D01*
X129079571Y-105671381D01*
X129270048Y-105671381D01*
X129365286Y-105623762D01*
X129412905Y-105576143D01*
X129460524Y-105480905D01*
X129460524Y-105290429D01*
X129412905Y-105195190D01*
X129365286Y-105147571D01*
X129270048Y-105099952D01*
X92035334Y-114680381D02*
X91702000Y-114204190D01*
X91463905Y-114680381D02*
X91463905Y-113680381D01*
X91844858Y-113680381D01*
X91940096Y-113728000D01*
X91987715Y-113775619D01*
X92035334Y-113870857D01*
X92035334Y-114013714D01*
X91987715Y-114108952D01*
X91940096Y-114156571D01*
X91844858Y-114204190D01*
X91463905Y-114204190D01*
X92987715Y-114680381D02*
X92416286Y-114680381D01*
X92702000Y-114680381D02*
X92702000Y-113680381D01*
X92606762Y-113823238D01*
X92511524Y-113918476D01*
X92416286Y-113966095D01*
X143597334Y-120268381D02*
X143264000Y-119792190D01*
X143025905Y-120268381D02*
X143025905Y-119268381D01*
X143406858Y-119268381D01*
X143502096Y-119316000D01*
X143549715Y-119363619D01*
X143597334Y-119458857D01*
X143597334Y-119601714D01*
X143549715Y-119696952D01*
X143502096Y-119744571D01*
X143406858Y-119792190D01*
X143025905Y-119792190D01*
X143930667Y-119268381D02*
X144549715Y-119268381D01*
X144216381Y-119649333D01*
X144359239Y-119649333D01*
X144454477Y-119696952D01*
X144502096Y-119744571D01*
X144549715Y-119839810D01*
X144549715Y-120077905D01*
X144502096Y-120173143D01*
X144454477Y-120220762D01*
X144359239Y-120268381D01*
X144073524Y-120268381D01*
X143978286Y-120220762D01*
X143930667Y-120173143D01*
X143597334Y-124459381D02*
X143264000Y-123983190D01*
X143025905Y-124459381D02*
X143025905Y-123459381D01*
X143406858Y-123459381D01*
X143502096Y-123507000D01*
X143549715Y-123554619D01*
X143597334Y-123649857D01*
X143597334Y-123792714D01*
X143549715Y-123887952D01*
X143502096Y-123935571D01*
X143406858Y-123983190D01*
X143025905Y-123983190D01*
X144454477Y-123792714D02*
X144454477Y-124459381D01*
X144216381Y-123411762D02*
X143978286Y-124126048D01*
X144597334Y-124126048D01*
X143470334Y-130047381D02*
X143137000Y-129571190D01*
X142898905Y-130047381D02*
X142898905Y-129047381D01*
X143279858Y-129047381D01*
X143375096Y-129095000D01*
X143422715Y-129142619D01*
X143470334Y-129237857D01*
X143470334Y-129380714D01*
X143422715Y-129475952D01*
X143375096Y-129523571D01*
X143279858Y-129571190D01*
X142898905Y-129571190D01*
X144327477Y-129047381D02*
X144137000Y-129047381D01*
X144041762Y-129095000D01*
X143994143Y-129142619D01*
X143898905Y-129285476D01*
X143851286Y-129475952D01*
X143851286Y-129856905D01*
X143898905Y-129952143D01*
X143946524Y-129999762D01*
X144041762Y-130047381D01*
X144232239Y-130047381D01*
X144327477Y-129999762D01*
X144375096Y-129952143D01*
X144422715Y-129856905D01*
X144422715Y-129618810D01*
X144375096Y-129523571D01*
X144327477Y-129475952D01*
X144232239Y-129428333D01*
X144041762Y-129428333D01*
X143946524Y-129475952D01*
X143898905Y-129523571D01*
X143851286Y-129618810D01*
X168235334Y-118562381D02*
X167902000Y-118086190D01*
X167663905Y-118562381D02*
X167663905Y-117562381D01*
X168044858Y-117562381D01*
X168140096Y-117610000D01*
X168187715Y-117657619D01*
X168235334Y-117752857D01*
X168235334Y-117895714D01*
X168187715Y-117990952D01*
X168140096Y-118038571D01*
X168044858Y-118086190D01*
X167663905Y-118086190D01*
X168568667Y-117562381D02*
X169235334Y-117562381D01*
X168806762Y-118562381D01*
X163956381Y-96146857D02*
X163480190Y-96480191D01*
X163956381Y-96718286D02*
X162956381Y-96718286D01*
X162956381Y-96337333D01*
X163004000Y-96242095D01*
X163051619Y-96194476D01*
X163146857Y-96146857D01*
X163289714Y-96146857D01*
X163384952Y-96194476D01*
X163432571Y-96242095D01*
X163480190Y-96337333D01*
X163480190Y-96718286D01*
X163956381Y-95194476D02*
X163956381Y-95765905D01*
X163956381Y-95480191D02*
X162956381Y-95480191D01*
X163099238Y-95575429D01*
X163194476Y-95670667D01*
X163242095Y-95765905D01*
X162956381Y-94575429D02*
X162956381Y-94480190D01*
X163004000Y-94384952D01*
X163051619Y-94337333D01*
X163146857Y-94289714D01*
X163337333Y-94242095D01*
X163575429Y-94242095D01*
X163765905Y-94289714D01*
X163861143Y-94337333D01*
X163908762Y-94384952D01*
X163956381Y-94480190D01*
X163956381Y-94575429D01*
X163908762Y-94670667D01*
X163861143Y-94718286D01*
X163765905Y-94765905D01*
X163575429Y-94813524D01*
X163337333Y-94813524D01*
X163146857Y-94765905D01*
X163051619Y-94718286D01*
X163004000Y-94670667D01*
X162956381Y-94575429D01*
X167505143Y-99004381D02*
X167171809Y-98528190D01*
X166933714Y-99004381D02*
X166933714Y-98004381D01*
X167314667Y-98004381D01*
X167409905Y-98052000D01*
X167457524Y-98099619D01*
X167505143Y-98194857D01*
X167505143Y-98337714D01*
X167457524Y-98432952D01*
X167409905Y-98480571D01*
X167314667Y-98528190D01*
X166933714Y-98528190D01*
X168457524Y-99004381D02*
X167886095Y-99004381D01*
X168171809Y-99004381D02*
X168171809Y-98004381D01*
X168076571Y-98147238D01*
X167981333Y-98242476D01*
X167886095Y-98290095D01*
X169409905Y-99004381D02*
X168838476Y-99004381D01*
X169124190Y-99004381D02*
X169124190Y-98004381D01*
X169028952Y-98147238D01*
X168933714Y-98242476D01*
X168838476Y-98290095D01*
X150368095Y-93432381D02*
X150368095Y-94241905D01*
X150415714Y-94337143D01*
X150463333Y-94384762D01*
X150558571Y-94432381D01*
X150749048Y-94432381D01*
X150844286Y-94384762D01*
X150891905Y-94337143D01*
X150939524Y-94241905D01*
X150939524Y-93432381D01*
X151368095Y-93527619D02*
X151415714Y-93480000D01*
X151510952Y-93432381D01*
X151749048Y-93432381D01*
X151844286Y-93480000D01*
X151891905Y-93527619D01*
X151939524Y-93622857D01*
X151939524Y-93718095D01*
X151891905Y-93860952D01*
X151320476Y-94432381D01*
X151939524Y-94432381D01*
X161948762Y-105727333D02*
X161996381Y-105584476D01*
X161996381Y-105346380D01*
X161948762Y-105251142D01*
X161901143Y-105203523D01*
X161805905Y-105155904D01*
X161710667Y-105155904D01*
X161615429Y-105203523D01*
X161567810Y-105251142D01*
X161520190Y-105346380D01*
X161472571Y-105536857D01*
X161424952Y-105632095D01*
X161377333Y-105679714D01*
X161282095Y-105727333D01*
X161186857Y-105727333D01*
X161091619Y-105679714D01*
X161044000Y-105632095D01*
X160996381Y-105536857D01*
X160996381Y-105298761D01*
X161044000Y-105155904D01*
X160996381Y-104822571D02*
X161996381Y-104584476D01*
X161282095Y-104393999D01*
X161996381Y-104203523D01*
X160996381Y-103965428D01*
X161091619Y-103632095D02*
X161044000Y-103584476D01*
X160996381Y-103489238D01*
X160996381Y-103251142D01*
X161044000Y-103155904D01*
X161091619Y-103108285D01*
X161186857Y-103060666D01*
X161282095Y-103060666D01*
X161424952Y-103108285D01*
X161996381Y-103679714D01*
X161996381Y-103060666D01*
X166379714Y-86414381D02*
X166379714Y-85414381D01*
X166617809Y-85414381D01*
X166760667Y-85462000D01*
X166855905Y-85557238D01*
X166903524Y-85652476D01*
X166951143Y-85842952D01*
X166951143Y-85985810D01*
X166903524Y-86176286D01*
X166855905Y-86271524D01*
X166760667Y-86366762D01*
X166617809Y-86414381D01*
X166379714Y-86414381D01*
X167903524Y-86414381D02*
X167332095Y-86414381D01*
X167617809Y-86414381D02*
X167617809Y-85414381D01*
X167522571Y-85557238D01*
X167427333Y-85652476D01*
X167332095Y-85700095D01*
X168236857Y-85414381D02*
X168855905Y-85414381D01*
X168522571Y-85795333D01*
X168665429Y-85795333D01*
X168760667Y-85842952D01*
X168808286Y-85890571D01*
X168855905Y-85985810D01*
X168855905Y-86223905D01*
X168808286Y-86319143D01*
X168760667Y-86366762D01*
X168665429Y-86414381D01*
X168379714Y-86414381D01*
X168284476Y-86366762D01*
X168236857Y-86319143D01*
X149256762Y-105657619D02*
X149161524Y-105610000D01*
X149066286Y-105514762D01*
X148923429Y-105371905D01*
X148828190Y-105324286D01*
X148732952Y-105324286D01*
X148780571Y-105562381D02*
X148685333Y-105514762D01*
X148590095Y-105419524D01*
X148542476Y-105229048D01*
X148542476Y-104895714D01*
X148590095Y-104705238D01*
X148685333Y-104610000D01*
X148780571Y-104562381D01*
X148971048Y-104562381D01*
X149066286Y-104610000D01*
X149161524Y-104705238D01*
X149209143Y-104895714D01*
X149209143Y-105229048D01*
X149161524Y-105419524D01*
X149066286Y-105514762D01*
X148971048Y-105562381D01*
X148780571Y-105562381D01*
X150161524Y-105562381D02*
X149590095Y-105562381D01*
X149875809Y-105562381D02*
X149875809Y-104562381D01*
X149780571Y-104705238D01*
X149685333Y-104800476D01*
X149590095Y-104848095D01*
X109561334Y-129389143D02*
X109513715Y-129436762D01*
X109370858Y-129484381D01*
X109275620Y-129484381D01*
X109132762Y-129436762D01*
X109037524Y-129341524D01*
X108989905Y-129246286D01*
X108942286Y-129055810D01*
X108942286Y-128912952D01*
X108989905Y-128722476D01*
X109037524Y-128627238D01*
X109132762Y-128532000D01*
X109275620Y-128484381D01*
X109370858Y-128484381D01*
X109513715Y-128532000D01*
X109561334Y-128579619D01*
X109894667Y-128484381D02*
X110513715Y-128484381D01*
X110180381Y-128865333D01*
X110323239Y-128865333D01*
X110418477Y-128912952D01*
X110466096Y-128960571D01*
X110513715Y-129055810D01*
X110513715Y-129293905D01*
X110466096Y-129389143D01*
X110418477Y-129436762D01*
X110323239Y-129484381D01*
X110037524Y-129484381D01*
X109942286Y-129436762D01*
X109894667Y-129389143D01*
X168235334Y-115927143D02*
X168187715Y-115974762D01*
X168044858Y-116022381D01*
X167949620Y-116022381D01*
X167806762Y-115974762D01*
X167711524Y-115879524D01*
X167663905Y-115784286D01*
X167616286Y-115593810D01*
X167616286Y-115450952D01*
X167663905Y-115260476D01*
X167711524Y-115165238D01*
X167806762Y-115070000D01*
X167949620Y-115022381D01*
X168044858Y-115022381D01*
X168187715Y-115070000D01*
X168235334Y-115117619D01*
X169140096Y-115022381D02*
X168663905Y-115022381D01*
X168616286Y-115498571D01*
X168663905Y-115450952D01*
X168759143Y-115403333D01*
X168997239Y-115403333D01*
X169092477Y-115450952D01*
X169140096Y-115498571D01*
X169187715Y-115593810D01*
X169187715Y-115831905D01*
X169140096Y-115927143D01*
X169092477Y-115974762D01*
X168997239Y-116022381D01*
X168759143Y-116022381D01*
X168663905Y-115974762D01*
X168616286Y-115927143D01*
X95504095Y-143470381D02*
X95504095Y-144279905D01*
X95551714Y-144375143D01*
X95599333Y-144422762D01*
X95694571Y-144470381D01*
X95885048Y-144470381D01*
X95980286Y-144422762D01*
X96027905Y-144375143D01*
X96075524Y-144279905D01*
X96075524Y-143470381D01*
X96980286Y-143803714D02*
X96980286Y-144470381D01*
X96742190Y-143422762D02*
X96504095Y-144137048D01*
X97123143Y-144137048D01*
X108966095Y-105370381D02*
X108966095Y-106179905D01*
X109013714Y-106275143D01*
X109061333Y-106322762D01*
X109156571Y-106370381D01*
X109347048Y-106370381D01*
X109442286Y-106322762D01*
X109489905Y-106275143D01*
X109537524Y-106179905D01*
X109537524Y-105370381D01*
X110442286Y-105370381D02*
X110251809Y-105370381D01*
X110156571Y-105418000D01*
X110108952Y-105465619D01*
X110013714Y-105608476D01*
X109966095Y-105798952D01*
X109966095Y-106179905D01*
X110013714Y-106275143D01*
X110061333Y-106322762D01*
X110156571Y-106370381D01*
X110347048Y-106370381D01*
X110442286Y-106322762D01*
X110489905Y-106275143D01*
X110537524Y-106179905D01*
X110537524Y-105941810D01*
X110489905Y-105846571D01*
X110442286Y-105798952D01*
X110347048Y-105751333D01*
X110156571Y-105751333D01*
X110061333Y-105798952D01*
X110013714Y-105846571D01*
X109966095Y-105941810D01*
X108966095Y-94194381D02*
X108966095Y-95003905D01*
X109013714Y-95099143D01*
X109061333Y-95146762D01*
X109156571Y-95194381D01*
X109347048Y-95194381D01*
X109442286Y-95146762D01*
X109489905Y-95099143D01*
X109537524Y-95003905D01*
X109537524Y-94194381D01*
X109918476Y-94194381D02*
X110585143Y-94194381D01*
X110156571Y-95194381D01*
X145145238Y-140632381D02*
X145383333Y-141632381D01*
X145573810Y-140918095D01*
X145764286Y-141632381D01*
X146002381Y-140632381D01*
X146335714Y-140727619D02*
X146383333Y-140680000D01*
X146478571Y-140632381D01*
X146716667Y-140632381D01*
X146811905Y-140680000D01*
X146859524Y-140727619D01*
X146907143Y-140822857D01*
X146907143Y-140918095D01*
X146859524Y-141060952D01*
X146288095Y-141632381D01*
X146907143Y-141632381D01*
X158353238Y-140632381D02*
X158591333Y-141632381D01*
X158781810Y-140918095D01*
X158972286Y-141632381D01*
X159210381Y-140632381D01*
X160019905Y-140965714D02*
X160019905Y-141632381D01*
X159781809Y-140584762D02*
X159543714Y-141299048D01*
X160162762Y-141299048D01*
X128381238Y-140632381D02*
X128619333Y-141632381D01*
X128809810Y-140918095D01*
X129000286Y-141632381D01*
X129238381Y-140632381D01*
X130047905Y-140632381D02*
X129857428Y-140632381D01*
X129762190Y-140680000D01*
X129714571Y-140727619D01*
X129619333Y-140870476D01*
X129571714Y-141060952D01*
X129571714Y-141441905D01*
X129619333Y-141537143D01*
X129666952Y-141584762D01*
X129762190Y-141632381D01*
X129952667Y-141632381D01*
X130047905Y-141584762D01*
X130095524Y-141537143D01*
X130143143Y-141441905D01*
X130143143Y-141203810D01*
X130095524Y-141108571D01*
X130047905Y-141060952D01*
X129952667Y-141013333D01*
X129762190Y-141013333D01*
X129666952Y-141060952D01*
X129619333Y-141108571D01*
X129571714Y-141203810D01*
X66952381Y-142500381D02*
X66619047Y-142024190D01*
X66380952Y-142500381D02*
X66380952Y-141500381D01*
X66761905Y-141500381D01*
X66857143Y-141548000D01*
X66904762Y-141595619D01*
X66952381Y-141690857D01*
X66952381Y-141833714D01*
X66904762Y-141928952D01*
X66857143Y-141976571D01*
X66761905Y-142024190D01*
X66380952Y-142024190D01*
X67380952Y-141976571D02*
X67714286Y-141976571D01*
X67857143Y-142500381D02*
X67380952Y-142500381D01*
X67380952Y-141500381D01*
X67857143Y-141500381D01*
X68619048Y-141976571D02*
X68285714Y-141976571D01*
X68285714Y-142500381D02*
X68285714Y-141500381D01*
X68761905Y-141500381D01*
X69666667Y-142500381D02*
X69095238Y-142500381D01*
X69380952Y-142500381D02*
X69380952Y-141500381D01*
X69285714Y-141643238D01*
X69190476Y-141738476D01*
X69095238Y-141786095D01*
M02*
