G04 #@! TF.FileFunction,Copper,L1,Top,Signal*
%FSLAX46Y46*%
G04 Gerber Fmt 4.6, Leading zero omitted, Abs format (unit mm)*
G04 Created by KiCad (PCBNEW 4.0.7-e1-6374~58~ubuntu16.04.1) date Fri Aug  4 12:19:56 2017*
%MOMM*%
%LPD*%
G01*
G04 APERTURE LIST*
%ADD10C,0.100000*%
%ADD11C,0.290000*%
%ADD12R,0.290000X0.290000*%
%ADD13R,0.450000X0.450000*%
%ADD14C,1.000000*%
%ADD15R,2.500000X1.800000*%
%ADD16R,2.500000X2.300000*%
%ADD17R,1.600000X1.600000*%
%ADD18C,1.600000*%
%ADD19R,0.650000X0.400000*%
%ADD20R,1.790000X3.430000*%
%ADD21R,0.900000X1.700000*%
%ADD22R,0.900000X1.200000*%
%ADD23R,1.000000X1.250000*%
%ADD24R,1.000000X3.200000*%
%ADD25R,1.700000X1.700000*%
%ADD26O,1.800860X3.500120*%
%ADD27O,1.510000X3.010000*%
%ADD28C,1.700000*%
%ADD29R,1.524000X1.524000*%
%ADD30C,1.524000*%
%ADD31C,2.500000*%
%ADD32R,1.700000X0.900000*%
%ADD33R,1.060000X0.650000*%
%ADD34R,1.100000X4.600000*%
%ADD35R,10.800000X9.400000*%
%ADD36R,5.250000X4.550000*%
%ADD37R,1.650000X0.650000*%
%ADD38R,0.889000X0.305000*%
%ADD39R,1.000000X1.600000*%
%ADD40C,1.000000*%
%ADD41C,0.449800*%
%ADD42C,0.450000*%
%ADD43C,0.600000*%
G04 APERTURE END LIST*
D10*
D11*
X164350000Y-111400000D02*
X164800000Y-111400000D01*
X143700000Y-124250000D02*
X143700000Y-123800000D01*
X145250000Y-124400000D02*
X145700000Y-124400000D01*
X143700000Y-127150000D02*
X143700000Y-127600000D01*
X137500000Y-123550000D02*
X137500000Y-123100000D01*
X159916000Y-112776000D02*
X159466000Y-112776000D01*
X153850000Y-91500000D02*
X154300000Y-91500000D01*
D12*
X164250000Y-111400000D03*
D13*
X164950000Y-111400000D03*
D14*
X168148000Y-139000000D03*
D10*
G36*
X167583000Y-137722500D02*
X167523000Y-137497500D01*
X168773000Y-137497500D01*
X168713000Y-137722500D01*
X167583000Y-137722500D01*
X167583000Y-137722500D01*
G37*
G36*
X166845156Y-138496187D02*
X166643631Y-138379514D01*
X167527514Y-137495631D01*
X167644187Y-137697156D01*
X166845156Y-138496187D01*
X166845156Y-138496187D01*
G37*
G36*
X166870500Y-139565000D02*
X166645500Y-139625000D01*
X166645500Y-138375000D01*
X166870500Y-138435000D01*
X166870500Y-139565000D01*
X166870500Y-139565000D01*
G37*
G36*
X167644187Y-140302844D02*
X167527514Y-140504369D01*
X166643631Y-139620486D01*
X166845156Y-139503813D01*
X167644187Y-140302844D01*
X167644187Y-140302844D01*
G37*
G36*
X168713000Y-140277500D02*
X168773000Y-140502500D01*
X167523000Y-140502500D01*
X167583000Y-140277500D01*
X168713000Y-140277500D01*
X168713000Y-140277500D01*
G37*
G36*
X169450844Y-139503813D02*
X169652369Y-139620486D01*
X168768486Y-140504369D01*
X168651813Y-140302844D01*
X169450844Y-139503813D01*
X169450844Y-139503813D01*
G37*
G36*
X169425500Y-138435000D02*
X169650500Y-138375000D01*
X169650500Y-139625000D01*
X169425500Y-139565000D01*
X169425500Y-138435000D01*
X169425500Y-138435000D01*
G37*
G36*
X168651813Y-137697156D02*
X168768486Y-137495631D01*
X169652369Y-138379514D01*
X169450844Y-138496187D01*
X168651813Y-137697156D01*
X168651813Y-137697156D01*
G37*
D14*
X68000000Y-94000000D03*
D10*
G36*
X67435000Y-92722500D02*
X67375000Y-92497500D01*
X68625000Y-92497500D01*
X68565000Y-92722500D01*
X67435000Y-92722500D01*
X67435000Y-92722500D01*
G37*
G36*
X66697156Y-93496187D02*
X66495631Y-93379514D01*
X67379514Y-92495631D01*
X67496187Y-92697156D01*
X66697156Y-93496187D01*
X66697156Y-93496187D01*
G37*
G36*
X66722500Y-94565000D02*
X66497500Y-94625000D01*
X66497500Y-93375000D01*
X66722500Y-93435000D01*
X66722500Y-94565000D01*
X66722500Y-94565000D01*
G37*
G36*
X67496187Y-95302844D02*
X67379514Y-95504369D01*
X66495631Y-94620486D01*
X66697156Y-94503813D01*
X67496187Y-95302844D01*
X67496187Y-95302844D01*
G37*
G36*
X68565000Y-95277500D02*
X68625000Y-95502500D01*
X67375000Y-95502500D01*
X67435000Y-95277500D01*
X68565000Y-95277500D01*
X68565000Y-95277500D01*
G37*
G36*
X69302844Y-94503813D02*
X69504369Y-94620486D01*
X68620486Y-95504369D01*
X68503813Y-95302844D01*
X69302844Y-94503813D01*
X69302844Y-94503813D01*
G37*
G36*
X69277500Y-93435000D02*
X69502500Y-93375000D01*
X69502500Y-94625000D01*
X69277500Y-94565000D01*
X69277500Y-93435000D01*
X69277500Y-93435000D01*
G37*
G36*
X68503813Y-92697156D02*
X68620486Y-92495631D01*
X69504369Y-93379514D01*
X69302844Y-93496187D01*
X68503813Y-92697156D01*
X68503813Y-92697156D01*
G37*
D15*
X99000000Y-124000000D03*
X103000000Y-124000000D03*
D16*
X87766000Y-110744000D03*
X92066000Y-110744000D03*
X78876000Y-110744000D03*
X83176000Y-110744000D03*
D17*
X143764000Y-96774000D03*
D18*
X140264000Y-96774000D03*
D19*
X161102000Y-111491000D03*
X161102000Y-112791000D03*
X161102000Y-112141000D03*
X163002000Y-112791000D03*
X163002000Y-111491000D03*
D20*
X116250000Y-129100000D03*
X118750000Y-129100000D03*
X121250000Y-129100000D03*
X123750000Y-129100000D03*
X126250000Y-129100000D03*
X128750000Y-129100000D03*
X128750000Y-108790000D03*
X126250000Y-108790000D03*
X123750000Y-108790000D03*
X121250000Y-108790000D03*
X118750000Y-108790000D03*
X116250000Y-108790000D03*
D18*
X106500000Y-141250000D03*
X111500000Y-141250000D03*
D21*
X145450000Y-127400000D03*
X148350000Y-127400000D03*
D22*
X117755000Y-89382600D03*
X121055000Y-89382600D03*
D23*
X158400000Y-91500000D03*
X156400000Y-91500000D03*
D21*
X121084000Y-93218000D03*
X118184000Y-93218000D03*
D24*
X103160000Y-109220000D03*
X109360000Y-109220000D03*
D25*
X122682000Y-143510000D03*
X152654000Y-143510000D03*
X139446000Y-143510000D03*
D21*
X152453000Y-100965000D03*
X149553000Y-100965000D03*
D18*
X106514000Y-135128000D03*
X111514000Y-135128000D03*
D26*
X90932000Y-124460000D03*
X88392000Y-124460000D03*
D27*
X107530000Y-117602000D03*
X104990000Y-117602000D03*
D28*
X85100000Y-86360000D03*
X85090000Y-101566000D03*
X82560000Y-86360000D03*
X80020000Y-86360000D03*
D25*
X77480000Y-86370000D03*
D28*
X82560000Y-101566000D03*
X80020000Y-101566000D03*
D25*
X77480000Y-101566000D03*
D28*
X97790000Y-87480000D03*
X97790000Y-90020000D03*
X97790000Y-92560000D03*
X97790000Y-95100000D03*
X97790000Y-97640000D03*
D25*
X97790000Y-100180000D03*
D29*
X124968000Y-92964000D03*
D30*
X127508000Y-92964000D03*
X130048000Y-92964000D03*
X132588000Y-92964000D03*
D23*
X86376000Y-116078000D03*
X88376000Y-116078000D03*
D31*
X61214000Y-127000000D03*
X78994000Y-127000000D03*
X78994000Y-117094000D03*
X61214000Y-143256000D03*
X78994000Y-143256000D03*
X78994000Y-133350000D03*
D18*
X65800000Y-110000000D03*
X63500000Y-112500000D03*
X65500000Y-105900000D03*
D32*
X170942000Y-94054000D03*
X170942000Y-96954000D03*
D21*
X85672000Y-143002000D03*
X88572000Y-143002000D03*
X116240000Y-137414000D03*
X119140000Y-137414000D03*
X101018000Y-130302000D03*
X98118000Y-130302000D03*
X149680000Y-95758000D03*
X152580000Y-95758000D03*
D31*
X161036000Y-131064000D03*
X157226000Y-131064000D03*
X153416000Y-131064000D03*
D29*
X124841000Y-101219000D03*
D30*
X127381000Y-101219000D03*
X129921000Y-101219000D03*
X132461000Y-101219000D03*
D21*
X90752000Y-116078000D03*
X93652000Y-116078000D03*
X141550000Y-121500000D03*
X144450000Y-121500000D03*
X132550000Y-127400000D03*
X135450000Y-127400000D03*
X132550000Y-124600000D03*
X135450000Y-124600000D03*
X137650000Y-132000000D03*
X140550000Y-132000000D03*
D32*
X165354000Y-96954000D03*
X165354000Y-94054000D03*
X168148000Y-94054000D03*
X168148000Y-96954000D03*
D33*
X152230000Y-92390000D03*
X152230000Y-91440000D03*
X152230000Y-90490000D03*
X150030000Y-90490000D03*
X150030000Y-92390000D03*
X150030000Y-91440000D03*
D30*
X164084000Y-106934000D03*
X169164000Y-106934000D03*
X164084000Y-104394000D03*
X164084000Y-101854000D03*
X169164000Y-101854000D03*
X170434000Y-90932000D03*
X167894000Y-90932000D03*
X165354000Y-90932000D03*
X165354000Y-88392000D03*
X167894000Y-88392000D03*
X170434000Y-88392000D03*
D34*
X136360000Y-117175000D03*
X138900000Y-117175000D03*
X141440000Y-117175000D03*
D35*
X138900000Y-108025000D03*
D36*
X141675000Y-105600000D03*
X136125000Y-110450000D03*
X136125000Y-105600000D03*
X141675000Y-110450000D03*
D18*
X106514000Y-129032000D03*
X111514000Y-129032000D03*
D23*
X137700000Y-129500000D03*
X139700000Y-129500000D03*
D37*
X100970000Y-141224000D03*
X100970000Y-138684000D03*
X100970000Y-136144000D03*
X92070000Y-136144000D03*
X92070000Y-138684000D03*
X92070000Y-141224000D03*
X114178000Y-103124000D03*
X114178000Y-100584000D03*
X114178000Y-98044000D03*
X105278000Y-98044000D03*
X105278000Y-100584000D03*
X105278000Y-103124000D03*
X114178000Y-91948000D03*
X114178000Y-89408000D03*
X114178000Y-86868000D03*
X105278000Y-86868000D03*
X105278000Y-89408000D03*
X105278000Y-91948000D03*
D25*
X146050000Y-143510000D03*
X138800000Y-121700000D03*
X129286000Y-143510000D03*
D12*
X143700000Y-124350000D03*
D13*
X143700000Y-123650000D03*
D12*
X145150000Y-124400000D03*
D13*
X145850000Y-124400000D03*
D12*
X143700000Y-127050000D03*
D13*
X143700000Y-127750000D03*
D12*
X137500000Y-123650000D03*
D13*
X137500000Y-122950000D03*
D12*
X160016000Y-112776000D03*
D13*
X159316000Y-112776000D03*
D14*
X68000000Y-139000000D03*
D10*
G36*
X67435000Y-137722500D02*
X67375000Y-137497500D01*
X68625000Y-137497500D01*
X68565000Y-137722500D01*
X67435000Y-137722500D01*
X67435000Y-137722500D01*
G37*
G36*
X66697156Y-138496187D02*
X66495631Y-138379514D01*
X67379514Y-137495631D01*
X67496187Y-137697156D01*
X66697156Y-138496187D01*
X66697156Y-138496187D01*
G37*
G36*
X66722500Y-139565000D02*
X66497500Y-139625000D01*
X66497500Y-138375000D01*
X66722500Y-138435000D01*
X66722500Y-139565000D01*
X66722500Y-139565000D01*
G37*
G36*
X67496187Y-140302844D02*
X67379514Y-140504369D01*
X66495631Y-139620486D01*
X66697156Y-139503813D01*
X67496187Y-140302844D01*
X67496187Y-140302844D01*
G37*
G36*
X68565000Y-140277500D02*
X68625000Y-140502500D01*
X67375000Y-140502500D01*
X67435000Y-140277500D01*
X68565000Y-140277500D01*
X68565000Y-140277500D01*
G37*
G36*
X69302844Y-139503813D02*
X69504369Y-139620486D01*
X68620486Y-140504369D01*
X68503813Y-140302844D01*
X69302844Y-139503813D01*
X69302844Y-139503813D01*
G37*
G36*
X69277500Y-138435000D02*
X69502500Y-138375000D01*
X69502500Y-139625000D01*
X69277500Y-139565000D01*
X69277500Y-138435000D01*
X69277500Y-138435000D01*
G37*
G36*
X68503813Y-137697156D02*
X68620486Y-137495631D01*
X69504369Y-138379514D01*
X69302844Y-138496187D01*
X68503813Y-137697156D01*
X68503813Y-137697156D01*
G37*
D38*
X142190000Y-126900000D03*
X142190000Y-126400000D03*
X142190000Y-125900000D03*
X142190000Y-125400000D03*
X142190000Y-124900000D03*
X138110000Y-124900000D03*
X138110000Y-125400000D03*
X138110000Y-125900000D03*
X138110000Y-126400000D03*
X138110000Y-126900000D03*
D39*
X123000000Y-105000000D03*
X126000000Y-105000000D03*
D23*
X145700000Y-129600000D03*
X143700000Y-129600000D03*
X148300000Y-123800000D03*
X150300000Y-123800000D03*
D16*
X106650000Y-124206000D03*
X110950000Y-124206000D03*
D12*
X153750000Y-91500000D03*
D13*
X154450000Y-91500000D03*
D14*
X97283200Y-128837000D03*
X157351700Y-92854600D03*
X146999500Y-123800000D03*
X146999500Y-127160100D03*
X142381200Y-129596900D03*
X145122200Y-93651200D03*
X138093200Y-134275300D03*
D40*
X139446000Y-143510000D02*
X137815700Y-143510000D01*
X170434000Y-88392000D02*
X167894000Y-88392000D01*
X100970000Y-138684000D02*
X102575300Y-138684000D01*
X140550000Y-132000000D02*
X140550000Y-133630300D01*
X134902000Y-140596300D02*
X134902000Y-139334100D01*
X137815700Y-143510000D02*
X134902000Y-140596300D01*
X103225400Y-139334100D02*
X134902000Y-139334100D01*
X102575300Y-138684000D02*
X103225400Y-139334100D01*
X140550000Y-133686100D02*
X140550000Y-133630300D01*
X134902000Y-139334100D02*
X140550000Y-133686100D01*
X156400000Y-91500000D02*
X156400000Y-91148600D01*
X154801400Y-91148600D02*
X154796900Y-91153100D01*
X156400000Y-91148600D02*
X154801400Y-91148600D01*
D41*
X154796900Y-91153100D02*
X154450000Y-91500000D01*
D40*
X139700000Y-129500000D02*
X139700000Y-129716200D01*
X143699300Y-123130300D02*
X144450000Y-123130300D01*
X143439800Y-123389800D02*
X143699300Y-123130300D01*
D41*
X143353100Y-123303100D02*
X143439800Y-123389800D01*
X143439800Y-123389800D02*
X143700000Y-123650000D01*
D40*
X140771900Y-123303100D02*
X143353100Y-123303100D01*
X140268500Y-123806500D02*
X140771900Y-123303100D01*
X140268500Y-129147700D02*
X140268500Y-123806500D01*
X139700000Y-129716200D02*
X140268500Y-129147700D01*
X140353500Y-130369700D02*
X140550000Y-130369700D01*
X139700000Y-129716200D02*
X140353500Y-130369700D01*
X140550000Y-132000000D02*
X140550000Y-131184800D01*
X140550000Y-131184800D02*
X140550000Y-130369700D01*
X145520500Y-131184800D02*
X145700000Y-131005300D01*
X140550000Y-131184800D02*
X145520500Y-131184800D01*
X145700000Y-129600000D02*
X145700000Y-131005300D01*
X144450000Y-121500000D02*
X144450000Y-123130300D01*
X144450000Y-121500000D02*
X145680300Y-121500000D01*
D41*
X158969100Y-112429100D02*
X159316000Y-112776000D01*
D40*
X140264000Y-96774000D02*
X140264000Y-98501800D01*
X127558200Y-98501800D02*
X140264000Y-98501800D01*
X124841000Y-101219000D02*
X127558200Y-98501800D01*
X145680300Y-121500000D02*
X150300000Y-121500000D01*
X150300000Y-121500000D02*
X150300000Y-123800000D01*
X150300000Y-116667600D02*
X154538500Y-112429100D01*
X150300000Y-121500000D02*
X150300000Y-116667600D01*
X140611200Y-98501800D02*
X154538500Y-112429100D01*
X140264000Y-98501800D02*
X140611200Y-98501800D01*
X154538500Y-112429100D02*
X158969100Y-112429100D01*
X125341600Y-102761300D02*
X124841000Y-102761300D01*
X126000000Y-103419700D02*
X125341600Y-102761300D01*
X126000000Y-105000000D02*
X126000000Y-103419700D01*
X124841000Y-101219000D02*
X124841000Y-102761300D01*
X149553000Y-100965000D02*
X149553000Y-99334700D01*
X151499400Y-97388300D02*
X149553000Y-99334700D01*
X152580000Y-97388300D02*
X151499400Y-97388300D01*
X152580000Y-95758000D02*
X152580000Y-97388300D01*
X79112700Y-103198700D02*
X77480000Y-101566000D01*
X91392800Y-103198700D02*
X79112700Y-103198700D01*
X96951500Y-97640000D02*
X91392800Y-103198700D01*
X97790000Y-97640000D02*
X96951500Y-97640000D01*
X167894000Y-88392000D02*
X165354000Y-88392000D01*
X161834100Y-88392000D02*
X159692700Y-90533400D01*
X165354000Y-88392000D02*
X161834100Y-88392000D01*
X159253400Y-90094100D02*
X159692700Y-90533400D01*
X157454500Y-90094100D02*
X159253400Y-90094100D01*
X156400000Y-91148600D02*
X157454500Y-90094100D01*
X156382300Y-95758000D02*
X152580000Y-95758000D01*
X159692700Y-92447600D02*
X156382300Y-95758000D01*
X159692700Y-90533400D02*
X159692700Y-92447600D01*
D11*
X165354000Y-94054000D02*
X165354000Y-94874000D01*
X161102000Y-112141000D02*
X161797000Y-112141000D01*
X96525400Y-93835400D02*
X97790000Y-95100000D01*
X96525400Y-86947900D02*
X96525400Y-93835400D01*
X98094600Y-85378700D02*
X96525400Y-86947900D01*
X134575800Y-85378700D02*
X98094600Y-85378700D01*
X148127100Y-98930000D02*
X134575800Y-85378700D01*
X148127100Y-101474600D02*
X148127100Y-98930000D01*
X148929600Y-102277100D02*
X148127100Y-101474600D01*
X150144700Y-102277100D02*
X148929600Y-102277100D01*
X151552400Y-100869400D02*
X150144700Y-102277100D01*
X151552400Y-100010800D02*
X151552400Y-100869400D01*
X151852300Y-99710900D02*
X151552400Y-100010800D01*
X165272800Y-99710900D02*
X151852300Y-99710900D01*
X166594400Y-98389300D02*
X165272800Y-99710900D01*
X166594400Y-96114400D02*
X166594400Y-98389300D01*
X165354000Y-94874000D02*
X166594400Y-96114400D01*
X162079500Y-111858500D02*
X161797000Y-112141000D01*
X162079500Y-111403000D02*
X162079500Y-111858500D01*
X165272800Y-108209700D02*
X162079500Y-111403000D01*
X165272800Y-99710900D02*
X165272800Y-108209700D01*
X98118000Y-130302000D02*
X97298000Y-130302000D01*
X97283200Y-130287200D02*
X97298000Y-130302000D01*
X97283200Y-128837000D02*
X97283200Y-130287200D01*
D42*
X149061600Y-104394000D02*
X164084000Y-104394000D01*
X141768300Y-97100700D02*
X149061600Y-104394000D01*
X141768300Y-96409400D02*
X141768300Y-97100700D01*
X140825300Y-95466400D02*
X141768300Y-96409400D01*
X128529100Y-95466400D02*
X140825300Y-95466400D01*
X125579500Y-98416000D02*
X128529100Y-95466400D01*
X125087800Y-98416000D02*
X125579500Y-98416000D01*
X122124500Y-101379300D02*
X125087800Y-98416000D01*
X107368600Y-101379300D02*
X122124500Y-101379300D01*
X106573300Y-100584000D02*
X107368600Y-101379300D01*
X105278000Y-100584000D02*
X106573300Y-100584000D01*
X114178000Y-100584000D02*
X115473300Y-100584000D01*
X118376100Y-97681200D02*
X115473300Y-100584000D01*
X125330800Y-97681200D02*
X118376100Y-97681200D01*
X130048000Y-92964000D02*
X125330800Y-97681200D01*
D40*
X76625700Y-111588300D02*
X76625700Y-110744000D01*
X61214000Y-127000000D02*
X76625700Y-111588300D01*
X116854000Y-135128000D02*
X119140000Y-137414000D01*
X111514000Y-135128000D02*
X116854000Y-135128000D01*
X109704300Y-133318300D02*
X111514000Y-135128000D01*
X109704300Y-130841700D02*
X109704300Y-133318300D01*
X109704300Y-130841700D02*
X111514000Y-129032000D01*
X78876000Y-110744000D02*
X78092900Y-110744000D01*
X78092900Y-110744000D02*
X76625700Y-110744000D01*
X94316400Y-113563300D02*
X93652000Y-114227700D01*
X94316400Y-109149000D02*
X94316400Y-113563300D01*
X92212200Y-107044800D02*
X94316400Y-109149000D01*
X81792100Y-107044800D02*
X92212200Y-107044800D01*
X78092900Y-110744000D02*
X81792100Y-107044800D01*
X93652000Y-116078000D02*
X93652000Y-114227700D01*
X93652000Y-122227900D02*
X93652000Y-116078000D01*
X99416800Y-127992700D02*
X93652000Y-122227900D01*
X101924900Y-127992700D02*
X99416800Y-127992700D01*
X104773900Y-130841700D02*
X101924900Y-127992700D01*
X109704300Y-130841700D02*
X104773900Y-130841700D01*
X116250000Y-129100000D02*
X116250000Y-126759800D01*
X130645400Y-101943400D02*
X129921000Y-101219000D01*
X130645400Y-112364400D02*
X130645400Y-101943400D01*
X116250000Y-126759800D02*
X130645400Y-112364400D01*
X113786200Y-126759800D02*
X116250000Y-126759800D01*
X111514000Y-129032000D02*
X113786200Y-126759800D01*
X81534000Y-124460000D02*
X86376000Y-124460000D01*
X78994000Y-127000000D02*
X81534000Y-124460000D01*
X86376000Y-124460000D02*
X88392000Y-124460000D01*
X87766000Y-110744000D02*
X87766000Y-112894300D01*
X86376000Y-124460000D02*
X86376000Y-116078000D01*
X86376000Y-114284300D02*
X87766000Y-112894300D01*
X86376000Y-116078000D02*
X86376000Y-114284300D01*
D42*
X82560000Y-100040500D02*
X82560000Y-101566000D01*
X97838700Y-84761800D02*
X82560000Y-100040500D01*
X145899100Y-84761800D02*
X97838700Y-84761800D01*
X151229700Y-90092400D02*
X145899100Y-84761800D01*
X151229700Y-90490000D02*
X151229700Y-90092400D01*
X152230000Y-90490000D02*
X151229700Y-90490000D01*
X88376000Y-116078000D02*
X90752000Y-116078000D01*
D40*
X110950000Y-116805300D02*
X110950000Y-124206000D01*
X116250000Y-111505300D02*
X110950000Y-116805300D01*
X116250000Y-108790000D02*
X116250000Y-111505300D01*
X103234700Y-121865000D02*
X103000000Y-122099700D01*
X103234700Y-117602000D02*
X103234700Y-121865000D01*
X104990000Y-117602000D02*
X103234700Y-117602000D01*
X103000000Y-124000000D02*
X103000000Y-122099700D01*
X103234700Y-111895000D02*
X103234700Y-117602000D01*
X103160000Y-111820300D02*
X103234700Y-111895000D01*
X103160000Y-109220000D02*
X103160000Y-111820300D01*
X89915700Y-108593700D02*
X92066000Y-110744000D01*
X83176000Y-108593700D02*
X89915700Y-108593700D01*
X83176000Y-110744000D02*
X83176000Y-108593700D01*
D42*
X170942000Y-91440000D02*
X170942000Y-94054000D01*
X170434000Y-90932000D02*
X170942000Y-91440000D01*
X167894000Y-92879700D02*
X168148000Y-93133700D01*
X167894000Y-90932000D02*
X167894000Y-92879700D01*
X168148000Y-94054000D02*
X168148000Y-93133700D01*
X164033600Y-94713300D02*
X165354000Y-96033700D01*
X164033600Y-92252400D02*
X164033600Y-94713300D01*
X165354000Y-90932000D02*
X164033600Y-92252400D01*
X165354000Y-96954000D02*
X165354000Y-96033700D01*
X84497700Y-143256000D02*
X84751700Y-143002000D01*
X78994000Y-143256000D02*
X84497700Y-143256000D01*
X85672000Y-143002000D02*
X84751700Y-143002000D01*
X105278000Y-89408000D02*
X103982700Y-89408000D01*
X168148000Y-96954000D02*
X168148000Y-96033700D01*
X169468400Y-94713300D02*
X168148000Y-96033700D01*
X169468400Y-92175500D02*
X169468400Y-94713300D01*
X169201600Y-91908700D02*
X169468400Y-92175500D01*
X169201600Y-90367000D02*
X169201600Y-91908700D01*
X169881900Y-89686700D02*
X169201600Y-90367000D01*
X171016000Y-89686700D02*
X169881900Y-89686700D01*
X171740700Y-88962000D02*
X171016000Y-89686700D01*
X171740700Y-87892300D02*
X171740700Y-88962000D01*
X167867600Y-84019200D02*
X171740700Y-87892300D01*
X92528900Y-84019200D02*
X167867600Y-84019200D01*
X76062300Y-100485800D02*
X92528900Y-84019200D01*
X76062300Y-104206500D02*
X76062300Y-100485800D01*
X96155900Y-104206500D02*
X76062300Y-104206500D01*
X99981900Y-100380500D02*
X96155900Y-104206500D01*
X99981900Y-93408800D02*
X99981900Y-100380500D01*
X103982700Y-89408000D02*
X99981900Y-93408800D01*
X67193500Y-104206500D02*
X65500000Y-105900000D01*
X76062300Y-104206500D02*
X67193500Y-104206500D01*
D40*
X93895300Y-125522600D02*
X92832700Y-124460000D01*
X93895300Y-138684000D02*
X93895300Y-125522600D01*
X92070000Y-138684000D02*
X93895300Y-138684000D01*
X90932000Y-124460000D02*
X92832700Y-124460000D01*
D42*
X80274500Y-135624800D02*
X87651700Y-143002000D01*
X67042200Y-135624800D02*
X80274500Y-135624800D01*
X59220200Y-127802800D02*
X67042200Y-135624800D01*
X59220200Y-126143600D02*
X59220200Y-127802800D01*
X60716800Y-124647000D02*
X59220200Y-126143600D01*
X61720000Y-124647000D02*
X60716800Y-124647000D01*
X69600900Y-116766100D02*
X61720000Y-124647000D01*
X69600900Y-115968100D02*
X69600900Y-116766100D01*
X80631500Y-104937500D02*
X69600900Y-115968100D01*
X111069200Y-104937500D02*
X80631500Y-104937500D01*
X112882700Y-103124000D02*
X111069200Y-104937500D01*
X114178000Y-103124000D02*
X112882700Y-103124000D01*
X88572000Y-143002000D02*
X87651700Y-143002000D01*
X99639600Y-130760100D02*
X100097700Y-130302000D01*
X99639600Y-141188900D02*
X99639600Y-130760100D01*
X99674700Y-141224000D02*
X99639600Y-141188900D01*
X100970000Y-141224000D02*
X99674700Y-141224000D01*
X101018000Y-130302000D02*
X100097700Y-130302000D01*
X151065400Y-95292900D02*
X150600300Y-95758000D01*
X151065400Y-91475100D02*
X151065400Y-95292900D01*
X151030300Y-91440000D02*
X151065400Y-91475100D01*
X150030000Y-91440000D02*
X151030300Y-91440000D01*
X149680000Y-95758000D02*
X150600300Y-95758000D01*
X99197400Y-88612600D02*
X97790000Y-90020000D01*
X112087300Y-88612600D02*
X99197400Y-88612600D01*
X112882700Y-89408000D02*
X112087300Y-88612600D01*
X114178000Y-89408000D02*
X112882700Y-89408000D01*
D40*
X109285300Y-111895000D02*
X109360000Y-111820300D01*
X109285300Y-117602000D02*
X109285300Y-111895000D01*
X107530000Y-117602000D02*
X109285300Y-117602000D01*
X109360000Y-109220000D02*
X109360000Y-111820300D01*
X106650000Y-124206000D02*
X106650000Y-126356300D01*
X101492300Y-126492300D02*
X99000000Y-124000000D01*
X106514000Y-126492300D02*
X101492300Y-126492300D01*
X106514000Y-129032000D02*
X106514000Y-126492300D01*
X106514000Y-126492300D02*
X106650000Y-126356300D01*
X90244700Y-141224000D02*
X90244700Y-136144000D01*
X92070000Y-136144000D02*
X90244700Y-136144000D01*
X91157400Y-141224000D02*
X90244700Y-141224000D01*
X91157400Y-141224000D02*
X92070000Y-141224000D01*
X92070000Y-141224000D02*
X93895300Y-141224000D01*
X129286000Y-143510000D02*
X127435700Y-143510000D01*
X105200700Y-142549300D02*
X106500000Y-141250000D01*
X95220600Y-142549300D02*
X105200700Y-142549300D01*
X93895300Y-141224000D02*
X95220600Y-142549300D01*
X125585400Y-145360300D02*
X127435700Y-143510000D01*
X110610300Y-145360300D02*
X125585400Y-145360300D01*
X106500000Y-141250000D02*
X110610300Y-145360300D01*
X108800000Y-137414000D02*
X116240000Y-137414000D01*
X106514000Y-135128000D02*
X108800000Y-137414000D01*
D42*
X116743300Y-93218000D02*
X118184000Y-93218000D01*
X115473300Y-91948000D02*
X116743300Y-93218000D01*
X114178000Y-91948000D02*
X115473300Y-91948000D01*
X154262300Y-101854000D02*
X153373300Y-100965000D01*
X164084000Y-101854000D02*
X154262300Y-101854000D01*
X152453000Y-100965000D02*
X153373300Y-100965000D01*
X152230000Y-92390000D02*
X153230300Y-92390000D01*
X153470700Y-92630400D02*
X157269600Y-92630400D01*
X153230300Y-92390000D02*
X153470700Y-92630400D01*
X157269600Y-92630400D02*
X158400000Y-91500000D01*
X157269600Y-92772500D02*
X157351700Y-92854600D01*
X157269600Y-92630400D02*
X157269600Y-92772500D01*
X121055000Y-89382600D02*
X120594900Y-89382600D01*
X120594900Y-89382600D02*
X120134700Y-89382600D01*
X121084000Y-89871700D02*
X121084000Y-93218000D01*
X120594900Y-89382600D02*
X121084000Y-89871700D01*
X116774600Y-86022500D02*
X120134700Y-89382600D01*
X99247500Y-86022500D02*
X116774600Y-86022500D01*
X97790000Y-87480000D02*
X99247500Y-86022500D01*
D11*
X143835000Y-126400000D02*
X142190000Y-126400000D01*
X144630000Y-127195000D02*
X143835000Y-126400000D01*
X144630000Y-127400000D02*
X144630000Y-127195000D01*
X145450000Y-127400000D02*
X144630000Y-127400000D01*
X137065000Y-126400000D02*
X138110000Y-126400000D01*
X136270000Y-127195000D02*
X137065000Y-126400000D01*
X136270000Y-127400000D02*
X136270000Y-127195000D01*
X135450000Y-127400000D02*
X136270000Y-127400000D01*
X136750000Y-125900000D02*
X135450000Y-124600000D01*
X138110000Y-125900000D02*
X136750000Y-125900000D01*
X162307000Y-113523600D02*
X162307000Y-112791000D01*
X149930600Y-125900000D02*
X162307000Y-113523600D01*
X142190000Y-125900000D02*
X149930600Y-125900000D01*
X163002000Y-112791000D02*
X162307000Y-112791000D01*
D42*
X138195300Y-122304700D02*
X138195300Y-122950000D01*
X138800000Y-121700000D02*
X138195300Y-122304700D01*
X137500000Y-122950000D02*
X138195300Y-122950000D01*
X141440000Y-117175000D02*
X141440000Y-119945300D01*
X138800000Y-121700000D02*
X140120300Y-121700000D01*
X141550000Y-121500000D02*
X141550000Y-120179700D01*
X141440000Y-119945300D02*
X141440000Y-120179700D01*
X140873600Y-120179700D02*
X141440000Y-120179700D01*
X140120300Y-120933000D02*
X140873600Y-120179700D01*
X140120300Y-121700000D02*
X140120300Y-120933000D01*
X141440000Y-120179700D02*
X141550000Y-120179700D01*
D11*
X143035000Y-126900000D02*
X143185000Y-127050000D01*
X142190000Y-126900000D02*
X143035000Y-126900000D01*
X143700000Y-127050000D02*
X143185000Y-127050000D01*
X143635000Y-125400000D02*
X144635000Y-124400000D01*
X142190000Y-125400000D02*
X143635000Y-125400000D01*
X145150000Y-124400000D02*
X144635000Y-124400000D01*
X137497800Y-123650000D02*
X137500000Y-123650000D01*
X137136600Y-124011200D02*
X137497800Y-123650000D01*
X137136600Y-124741100D02*
X137136600Y-124011200D01*
X137295500Y-124900000D02*
X137136600Y-124741100D01*
X138110000Y-124900000D02*
X137295500Y-124900000D01*
X163697000Y-111438000D02*
X163735000Y-111400000D01*
X163697000Y-111491000D02*
X163697000Y-111438000D01*
X164250000Y-111400000D02*
X163735000Y-111400000D01*
X163002000Y-111491000D02*
X163697000Y-111491000D01*
X143150000Y-124900000D02*
X143700000Y-124350000D01*
X142190000Y-124900000D02*
X143150000Y-124900000D01*
X160546000Y-112791000D02*
X160531000Y-112776000D01*
X161102000Y-112791000D02*
X160546000Y-112791000D01*
X160016000Y-112776000D02*
X160531000Y-112776000D01*
X137290400Y-126900000D02*
X138110000Y-126900000D01*
X137100100Y-127090300D02*
X137290400Y-126900000D01*
X137100100Y-127905100D02*
X137100100Y-127090300D01*
X137700000Y-128505000D02*
X137100100Y-127905100D01*
X137700000Y-129500000D02*
X137700000Y-128505000D01*
X137650000Y-130545000D02*
X137700000Y-130495000D01*
X137650000Y-132000000D02*
X137650000Y-130545000D01*
X137700000Y-129500000D02*
X137700000Y-130495000D01*
X137077000Y-125400000D02*
X138110000Y-125400000D01*
X136360000Y-124683000D02*
X137077000Y-125400000D01*
X136360000Y-117175000D02*
X136360000Y-124683000D01*
D43*
X167315100Y-109034900D02*
X165155500Y-111194500D01*
X167315100Y-101611200D02*
X167315100Y-109034900D01*
X170942000Y-97984300D02*
X167315100Y-101611200D01*
D41*
X165155500Y-111194500D02*
X164950000Y-111400000D01*
D43*
X170942000Y-96954000D02*
X170942000Y-97984300D01*
X143700000Y-129600000D02*
X143700000Y-127775500D01*
D41*
X143700000Y-127775500D02*
X143700000Y-127750000D01*
D43*
X148300000Y-123800000D02*
X147219700Y-123800000D01*
X147219700Y-123800000D02*
X146999500Y-123800000D01*
X146450000Y-123800000D02*
X146055500Y-124194500D01*
X146999500Y-123800000D02*
X146450000Y-123800000D01*
D41*
X146055500Y-124194500D02*
X145850000Y-124400000D01*
D43*
X148350000Y-127400000D02*
X147319700Y-127400000D01*
X146999500Y-127160200D02*
X146999500Y-127160100D01*
X147079900Y-127160200D02*
X146999500Y-127160200D01*
X147319700Y-127400000D02*
X147079900Y-127160200D01*
X148350000Y-139779700D02*
X146050000Y-142079700D01*
X148350000Y-127400000D02*
X148350000Y-139779700D01*
D41*
X164975400Y-111425400D02*
X164950000Y-111400000D01*
D43*
X164975400Y-112164200D02*
X164975400Y-111425400D01*
X149739600Y-127400000D02*
X164975400Y-112164200D01*
X148350000Y-127400000D02*
X149739600Y-127400000D01*
X123000000Y-105151300D02*
X123000000Y-106380300D01*
X123000000Y-105151300D02*
X123000000Y-105000000D01*
X146050000Y-143510000D02*
X146050000Y-142079700D01*
X117755000Y-89382600D02*
X116724700Y-89382600D01*
X105278000Y-86868000D02*
X106683300Y-86868000D01*
X143700000Y-129600000D02*
X142619700Y-129600000D01*
X142384300Y-129600000D02*
X142381200Y-129596900D01*
X142619700Y-129600000D02*
X142384300Y-129600000D01*
X147658500Y-93651200D02*
X145122200Y-93651200D01*
X148919700Y-92390000D02*
X147658500Y-93651200D01*
X150030000Y-92390000D02*
X148919700Y-92390000D01*
X103872700Y-103124000D02*
X103872700Y-98044000D01*
X105278000Y-103124000D02*
X103872700Y-103124000D01*
X105278000Y-98044000D02*
X103872700Y-98044000D01*
X103872700Y-91948000D02*
X103872700Y-98044000D01*
X105278000Y-91948000D02*
X103872700Y-91948000D01*
X119515000Y-90112300D02*
X118785300Y-89382600D01*
X119515000Y-93796300D02*
X119515000Y-90112300D01*
X120392200Y-94673500D02*
X119515000Y-93796300D01*
X125798500Y-94673500D02*
X120392200Y-94673500D01*
X127508000Y-92964000D02*
X125798500Y-94673500D01*
X117755000Y-89382600D02*
X118785300Y-89382600D01*
X105278000Y-91948000D02*
X106683300Y-91948000D01*
X114516200Y-87773300D02*
X116177400Y-89434500D01*
X107588600Y-87773300D02*
X114516200Y-87773300D01*
X106683300Y-86868000D02*
X107588600Y-87773300D01*
X116229300Y-89382600D02*
X116177400Y-89434500D01*
X116724700Y-89382600D02*
X116229300Y-89382600D01*
X107588600Y-91042700D02*
X106683300Y-91948000D01*
X114569200Y-91042700D02*
X107588600Y-91042700D01*
X116177400Y-89434500D02*
X114569200Y-91042700D01*
X121250000Y-108790000D02*
X121250000Y-108216100D01*
X122540900Y-106494700D02*
X123000000Y-106494700D01*
X121250000Y-107785600D02*
X122540900Y-106494700D01*
X121250000Y-108216100D02*
X121250000Y-107785600D01*
X123000000Y-106494700D02*
X123000000Y-106380300D01*
X123000000Y-106494700D02*
X123750000Y-106494700D01*
X128750000Y-108790000D02*
X128750000Y-107642300D01*
X127381000Y-101219000D02*
X127381000Y-106494700D01*
X127602400Y-106494700D02*
X127381000Y-106494700D01*
X128750000Y-107642300D02*
X127602400Y-106494700D01*
X127381000Y-106494700D02*
X126250000Y-106494700D01*
X123750000Y-107642300D02*
X126250000Y-107642300D01*
X126250000Y-108790000D02*
X126250000Y-107642300D01*
X126250000Y-107642300D02*
X126250000Y-106494700D01*
X123750000Y-108790000D02*
X123750000Y-107642300D01*
X123750000Y-107642300D02*
X123750000Y-106494700D01*
X123750000Y-129100000D02*
X123750000Y-127952300D01*
X122602400Y-126804700D02*
X121250000Y-126804700D01*
X123750000Y-127952300D02*
X122602400Y-126804700D01*
X121250000Y-129100000D02*
X121250000Y-126804700D01*
X126250000Y-127952300D02*
X123750000Y-127952300D01*
X126250000Y-129100000D02*
X126250000Y-127952300D01*
X128750000Y-127952300D02*
X126250000Y-127952300D01*
X136125000Y-110450000D02*
X136125000Y-111877600D01*
X136125000Y-111877600D02*
X136125000Y-113305300D01*
X138542100Y-114294700D02*
X138900000Y-114294700D01*
X136125000Y-111877600D02*
X138542100Y-114294700D01*
X138900000Y-117175000D02*
X138900000Y-114294700D01*
X141675000Y-105600000D02*
X141675000Y-108455300D01*
X132550000Y-116880300D02*
X132550000Y-124600000D01*
X136125000Y-113305300D02*
X132550000Y-116880300D01*
X132550000Y-124600000D02*
X132550000Y-127400000D01*
X128750000Y-129100000D02*
X128750000Y-129083600D01*
X128750000Y-129083600D02*
X128750000Y-127952300D01*
X128769300Y-129064300D02*
X128750000Y-129083600D01*
X132550000Y-129064300D02*
X128769300Y-129064300D01*
X132550000Y-127400000D02*
X132550000Y-129064300D01*
X137761000Y-134275300D02*
X138093200Y-134275300D01*
X132550000Y-129064300D02*
X137761000Y-134275300D01*
X140746300Y-109521300D02*
X140746300Y-109384000D01*
X141675000Y-110450000D02*
X140746300Y-109521300D01*
X140746300Y-109384000D02*
X141675000Y-108455300D01*
X136125000Y-105600000D02*
X136125000Y-108455300D01*
X139828700Y-109384000D02*
X138900000Y-108455300D01*
X140746300Y-109384000D02*
X139828700Y-109384000D01*
X138900000Y-108455300D02*
X138900000Y-108025000D01*
X138900000Y-108455300D02*
X136125000Y-108455300D01*
X136125000Y-108455300D02*
X136125000Y-110450000D01*
D11*
X153175000Y-91440000D02*
X153235000Y-91500000D01*
X152230000Y-91440000D02*
X153175000Y-91440000D01*
X153750000Y-91500000D02*
X153235000Y-91500000D01*
D43*
G36*
X145900000Y-129400000D02*
X145920000Y-129400000D01*
X145920000Y-129800000D01*
X145900000Y-129800000D01*
X145900000Y-130975000D01*
X146150000Y-131225000D01*
X146398912Y-131225000D01*
X146766454Y-131072759D01*
X147047759Y-130791455D01*
X147150000Y-130544624D01*
X147150000Y-133700000D01*
X141561044Y-133700000D01*
X141566454Y-133697759D01*
X141847759Y-133416455D01*
X142000000Y-133048913D01*
X142000000Y-132450000D01*
X141750000Y-132200000D01*
X140750000Y-132200000D01*
X140750000Y-132220000D01*
X140350000Y-132220000D01*
X140350000Y-132200000D01*
X139350000Y-132200000D01*
X139100000Y-132450000D01*
X139100000Y-133048913D01*
X139252241Y-133416455D01*
X139533546Y-133697759D01*
X139538956Y-133700000D01*
X139370294Y-133700000D01*
X139280755Y-133483300D01*
X138955389Y-133157366D01*
X139017632Y-132850000D01*
X139017632Y-131150000D01*
X139012928Y-131125000D01*
X139100000Y-131125000D01*
X139100000Y-131550000D01*
X139350000Y-131800000D01*
X140350000Y-131800000D01*
X140350000Y-131780000D01*
X140750000Y-131780000D01*
X140750000Y-131800000D01*
X141750000Y-131800000D01*
X142000000Y-131550000D01*
X142000000Y-130954510D01*
X142101501Y-130996657D01*
X142658456Y-130997143D01*
X142706696Y-130977210D01*
X142842990Y-131070336D01*
X143200000Y-131142632D01*
X144200000Y-131142632D01*
X144533520Y-131079876D01*
X144598713Y-131037926D01*
X144633546Y-131072759D01*
X145001088Y-131225000D01*
X145250000Y-131225000D01*
X145500000Y-130975000D01*
X145500000Y-129800000D01*
X145480000Y-129800000D01*
X145480000Y-129400000D01*
X145500000Y-129400000D01*
X145500000Y-129380000D01*
X145900000Y-129380000D01*
X145900000Y-129400000D01*
X145900000Y-129400000D01*
G37*
X145900000Y-129400000D02*
X145920000Y-129400000D01*
X145920000Y-129800000D01*
X145900000Y-129800000D01*
X145900000Y-130975000D01*
X146150000Y-131225000D01*
X146398912Y-131225000D01*
X146766454Y-131072759D01*
X147047759Y-130791455D01*
X147150000Y-130544624D01*
X147150000Y-133700000D01*
X141561044Y-133700000D01*
X141566454Y-133697759D01*
X141847759Y-133416455D01*
X142000000Y-133048913D01*
X142000000Y-132450000D01*
X141750000Y-132200000D01*
X140750000Y-132200000D01*
X140750000Y-132220000D01*
X140350000Y-132220000D01*
X140350000Y-132200000D01*
X139350000Y-132200000D01*
X139100000Y-132450000D01*
X139100000Y-133048913D01*
X139252241Y-133416455D01*
X139533546Y-133697759D01*
X139538956Y-133700000D01*
X139370294Y-133700000D01*
X139280755Y-133483300D01*
X138955389Y-133157366D01*
X139017632Y-132850000D01*
X139017632Y-131150000D01*
X139012928Y-131125000D01*
X139100000Y-131125000D01*
X139100000Y-131550000D01*
X139350000Y-131800000D01*
X140350000Y-131800000D01*
X140350000Y-131780000D01*
X140750000Y-131780000D01*
X140750000Y-131800000D01*
X141750000Y-131800000D01*
X142000000Y-131550000D01*
X142000000Y-130954510D01*
X142101501Y-130996657D01*
X142658456Y-130997143D01*
X142706696Y-130977210D01*
X142842990Y-131070336D01*
X143200000Y-131142632D01*
X144200000Y-131142632D01*
X144533520Y-131079876D01*
X144598713Y-131037926D01*
X144633546Y-131072759D01*
X145001088Y-131225000D01*
X145250000Y-131225000D01*
X145500000Y-130975000D01*
X145500000Y-129800000D01*
X145480000Y-129800000D01*
X145480000Y-129400000D01*
X145500000Y-129400000D01*
X145500000Y-129380000D01*
X145900000Y-129380000D01*
X145900000Y-129400000D01*
G36*
X140442234Y-122989838D02*
X140742990Y-123195336D01*
X141100000Y-123267632D01*
X142000000Y-123267632D01*
X142333520Y-123204876D01*
X142538393Y-123073044D01*
X142475000Y-123226088D01*
X142475000Y-123287500D01*
X142710165Y-123522665D01*
X142655000Y-123800000D01*
X142655000Y-123832500D01*
X142653737Y-123833763D01*
X142634500Y-123829868D01*
X141745500Y-123829868D01*
X141411980Y-123892624D01*
X141105662Y-124089734D01*
X140900164Y-124390490D01*
X140827868Y-124747500D01*
X140827868Y-125052500D01*
X140846887Y-125153579D01*
X140827868Y-125247500D01*
X140827868Y-125552500D01*
X140846887Y-125653579D01*
X140827868Y-125747500D01*
X140827868Y-126052500D01*
X140846887Y-126153579D01*
X140827868Y-126247500D01*
X140827868Y-126552500D01*
X140846887Y-126653579D01*
X140827868Y-126747500D01*
X140827868Y-127052500D01*
X140890624Y-127386020D01*
X141087734Y-127692338D01*
X141388490Y-127897836D01*
X141745500Y-127970132D01*
X142500000Y-127970132D01*
X142500000Y-128197003D01*
X142103944Y-128196657D01*
X141589200Y-128409345D01*
X141200000Y-128797867D01*
X141200000Y-128676087D01*
X141047759Y-128308545D01*
X140766454Y-128027241D01*
X140398912Y-127875000D01*
X140150000Y-127875000D01*
X139900000Y-128125000D01*
X139900000Y-129300000D01*
X139920000Y-129300000D01*
X139920000Y-129700000D01*
X139900000Y-129700000D01*
X139900000Y-129720000D01*
X139500000Y-129720000D01*
X139500000Y-129700000D01*
X139480000Y-129700000D01*
X139480000Y-129300000D01*
X139500000Y-129300000D01*
X139500000Y-128125000D01*
X139250000Y-127875000D01*
X139001088Y-127875000D01*
X138633546Y-128027241D01*
X138621489Y-128039298D01*
X138575274Y-127970132D01*
X138572954Y-127966660D01*
X138888020Y-127907376D01*
X139194338Y-127710266D01*
X139399836Y-127409510D01*
X139472132Y-127052500D01*
X139472132Y-126747500D01*
X139453113Y-126646421D01*
X139472132Y-126552500D01*
X139472132Y-126247500D01*
X139453113Y-126146421D01*
X139472132Y-126052500D01*
X139472132Y-125747500D01*
X139453113Y-125646421D01*
X139472132Y-125552500D01*
X139472132Y-125247500D01*
X139453113Y-125146421D01*
X139472132Y-125052500D01*
X139472132Y-124747500D01*
X139409376Y-124413980D01*
X139212266Y-124107662D01*
X138911510Y-123902164D01*
X138792417Y-123878047D01*
X138990795Y-123745495D01*
X139176457Y-123467632D01*
X139650000Y-123467632D01*
X139983520Y-123404876D01*
X140289838Y-123207766D01*
X140440540Y-122987206D01*
X140442234Y-122989838D01*
X140442234Y-122989838D01*
G37*
X140442234Y-122989838D02*
X140742990Y-123195336D01*
X141100000Y-123267632D01*
X142000000Y-123267632D01*
X142333520Y-123204876D01*
X142538393Y-123073044D01*
X142475000Y-123226088D01*
X142475000Y-123287500D01*
X142710165Y-123522665D01*
X142655000Y-123800000D01*
X142655000Y-123832500D01*
X142653737Y-123833763D01*
X142634500Y-123829868D01*
X141745500Y-123829868D01*
X141411980Y-123892624D01*
X141105662Y-124089734D01*
X140900164Y-124390490D01*
X140827868Y-124747500D01*
X140827868Y-125052500D01*
X140846887Y-125153579D01*
X140827868Y-125247500D01*
X140827868Y-125552500D01*
X140846887Y-125653579D01*
X140827868Y-125747500D01*
X140827868Y-126052500D01*
X140846887Y-126153579D01*
X140827868Y-126247500D01*
X140827868Y-126552500D01*
X140846887Y-126653579D01*
X140827868Y-126747500D01*
X140827868Y-127052500D01*
X140890624Y-127386020D01*
X141087734Y-127692338D01*
X141388490Y-127897836D01*
X141745500Y-127970132D01*
X142500000Y-127970132D01*
X142500000Y-128197003D01*
X142103944Y-128196657D01*
X141589200Y-128409345D01*
X141200000Y-128797867D01*
X141200000Y-128676087D01*
X141047759Y-128308545D01*
X140766454Y-128027241D01*
X140398912Y-127875000D01*
X140150000Y-127875000D01*
X139900000Y-128125000D01*
X139900000Y-129300000D01*
X139920000Y-129300000D01*
X139920000Y-129700000D01*
X139900000Y-129700000D01*
X139900000Y-129720000D01*
X139500000Y-129720000D01*
X139500000Y-129700000D01*
X139480000Y-129700000D01*
X139480000Y-129300000D01*
X139500000Y-129300000D01*
X139500000Y-128125000D01*
X139250000Y-127875000D01*
X139001088Y-127875000D01*
X138633546Y-128027241D01*
X138621489Y-128039298D01*
X138575274Y-127970132D01*
X138572954Y-127966660D01*
X138888020Y-127907376D01*
X139194338Y-127710266D01*
X139399836Y-127409510D01*
X139472132Y-127052500D01*
X139472132Y-126747500D01*
X139453113Y-126646421D01*
X139472132Y-126552500D01*
X139472132Y-126247500D01*
X139453113Y-126146421D01*
X139472132Y-126052500D01*
X139472132Y-125747500D01*
X139453113Y-125646421D01*
X139472132Y-125552500D01*
X139472132Y-125247500D01*
X139453113Y-125146421D01*
X139472132Y-125052500D01*
X139472132Y-124747500D01*
X139409376Y-124413980D01*
X139212266Y-124107662D01*
X138911510Y-123902164D01*
X138792417Y-123878047D01*
X138990795Y-123745495D01*
X139176457Y-123467632D01*
X139650000Y-123467632D01*
X139983520Y-123404876D01*
X140289838Y-123207766D01*
X140440540Y-122987206D01*
X140442234Y-122989838D01*
G36*
X148266105Y-105189495D02*
X148631081Y-105433364D01*
X149061600Y-105519000D01*
X150700000Y-105519000D01*
X150700000Y-122225000D01*
X150500000Y-122425000D01*
X150500000Y-123600000D01*
X150520000Y-123600000D01*
X150520000Y-123832746D01*
X150332746Y-124020000D01*
X150100000Y-124020000D01*
X150100000Y-124000000D01*
X150080000Y-124000000D01*
X150080000Y-123600000D01*
X150100000Y-123600000D01*
X150100000Y-122425000D01*
X149850000Y-122175000D01*
X149601088Y-122175000D01*
X149233546Y-122327241D01*
X149201039Y-122359748D01*
X149157010Y-122329664D01*
X148800000Y-122257368D01*
X147800000Y-122257368D01*
X147466480Y-122320124D01*
X147317352Y-122416085D01*
X147279199Y-122400243D01*
X146722244Y-122399757D01*
X146207500Y-122612445D01*
X146162724Y-122657143D01*
X145990780Y-122691345D01*
X145783685Y-122829721D01*
X145900000Y-122548913D01*
X145900000Y-121950000D01*
X145650000Y-121700000D01*
X144650000Y-121700000D01*
X144650000Y-121720000D01*
X144250000Y-121720000D01*
X144250000Y-121700000D01*
X143250000Y-121700000D01*
X143000000Y-121950000D01*
X143000000Y-122539359D01*
X142908545Y-122577241D01*
X142862237Y-122623549D01*
X142917632Y-122350000D01*
X142917632Y-120650000D01*
X142880205Y-120451087D01*
X143000000Y-120451087D01*
X143000000Y-121050000D01*
X143250000Y-121300000D01*
X144250000Y-121300000D01*
X144250000Y-119900000D01*
X144650000Y-119900000D01*
X144650000Y-121300000D01*
X145650000Y-121300000D01*
X145900000Y-121050000D01*
X145900000Y-120451087D01*
X145747759Y-120083545D01*
X145466454Y-119802241D01*
X145098912Y-119650000D01*
X144900000Y-119650000D01*
X144650000Y-119900000D01*
X144250000Y-119900000D01*
X144000000Y-119650000D01*
X143801088Y-119650000D01*
X143433546Y-119802241D01*
X143152241Y-120083545D01*
X143000000Y-120451087D01*
X142880205Y-120451087D01*
X142854876Y-120316480D01*
X142684851Y-120052253D01*
X142835336Y-119832010D01*
X142907632Y-119475000D01*
X142907632Y-114875000D01*
X142844876Y-114541480D01*
X142647766Y-114235162D01*
X142347010Y-114029664D01*
X141990000Y-113957368D01*
X140890000Y-113957368D01*
X140556480Y-114020124D01*
X140250162Y-114217234D01*
X140170888Y-114333256D01*
X140107766Y-114235162D01*
X140085073Y-114219656D01*
X140008655Y-113835480D01*
X139879798Y-113642632D01*
X144300000Y-113642632D01*
X144633520Y-113579876D01*
X144939838Y-113382766D01*
X145145336Y-113082010D01*
X145217632Y-112725000D01*
X145217632Y-103325000D01*
X145212928Y-103300000D01*
X146376610Y-103300000D01*
X148266105Y-105189495D01*
X148266105Y-105189495D01*
G37*
X148266105Y-105189495D02*
X148631081Y-105433364D01*
X149061600Y-105519000D01*
X150700000Y-105519000D01*
X150700000Y-122225000D01*
X150500000Y-122425000D01*
X150500000Y-123600000D01*
X150520000Y-123600000D01*
X150520000Y-123832746D01*
X150332746Y-124020000D01*
X150100000Y-124020000D01*
X150100000Y-124000000D01*
X150080000Y-124000000D01*
X150080000Y-123600000D01*
X150100000Y-123600000D01*
X150100000Y-122425000D01*
X149850000Y-122175000D01*
X149601088Y-122175000D01*
X149233546Y-122327241D01*
X149201039Y-122359748D01*
X149157010Y-122329664D01*
X148800000Y-122257368D01*
X147800000Y-122257368D01*
X147466480Y-122320124D01*
X147317352Y-122416085D01*
X147279199Y-122400243D01*
X146722244Y-122399757D01*
X146207500Y-122612445D01*
X146162724Y-122657143D01*
X145990780Y-122691345D01*
X145783685Y-122829721D01*
X145900000Y-122548913D01*
X145900000Y-121950000D01*
X145650000Y-121700000D01*
X144650000Y-121700000D01*
X144650000Y-121720000D01*
X144250000Y-121720000D01*
X144250000Y-121700000D01*
X143250000Y-121700000D01*
X143000000Y-121950000D01*
X143000000Y-122539359D01*
X142908545Y-122577241D01*
X142862237Y-122623549D01*
X142917632Y-122350000D01*
X142917632Y-120650000D01*
X142880205Y-120451087D01*
X143000000Y-120451087D01*
X143000000Y-121050000D01*
X143250000Y-121300000D01*
X144250000Y-121300000D01*
X144250000Y-119900000D01*
X144650000Y-119900000D01*
X144650000Y-121300000D01*
X145650000Y-121300000D01*
X145900000Y-121050000D01*
X145900000Y-120451087D01*
X145747759Y-120083545D01*
X145466454Y-119802241D01*
X145098912Y-119650000D01*
X144900000Y-119650000D01*
X144650000Y-119900000D01*
X144250000Y-119900000D01*
X144000000Y-119650000D01*
X143801088Y-119650000D01*
X143433546Y-119802241D01*
X143152241Y-120083545D01*
X143000000Y-120451087D01*
X142880205Y-120451087D01*
X142854876Y-120316480D01*
X142684851Y-120052253D01*
X142835336Y-119832010D01*
X142907632Y-119475000D01*
X142907632Y-114875000D01*
X142844876Y-114541480D01*
X142647766Y-114235162D01*
X142347010Y-114029664D01*
X141990000Y-113957368D01*
X140890000Y-113957368D01*
X140556480Y-114020124D01*
X140250162Y-114217234D01*
X140170888Y-114333256D01*
X140107766Y-114235162D01*
X140085073Y-114219656D01*
X140008655Y-113835480D01*
X139879798Y-113642632D01*
X144300000Y-113642632D01*
X144633520Y-113579876D01*
X144939838Y-113382766D01*
X145145336Y-113082010D01*
X145217632Y-112725000D01*
X145217632Y-103325000D01*
X145212928Y-103300000D01*
X146376610Y-103300000D01*
X148266105Y-105189495D01*
G36*
X109679383Y-141018592D02*
X109729414Y-141732926D01*
X109906526Y-142160514D01*
X110246585Y-142220573D01*
X111217157Y-141250000D01*
X111203015Y-141235858D01*
X111485858Y-140953015D01*
X111500000Y-140967157D01*
X111514142Y-140953015D01*
X111796985Y-141235858D01*
X111782843Y-141250000D01*
X112753415Y-142220573D01*
X113093474Y-142160514D01*
X113320617Y-141481408D01*
X113270586Y-140767074D01*
X113256928Y-140734100D01*
X125500000Y-140734100D01*
X125500000Y-143465802D01*
X125005502Y-143960300D01*
X124532000Y-143960300D01*
X124532000Y-143960000D01*
X124282000Y-143710000D01*
X122882000Y-143710000D01*
X122882000Y-143730000D01*
X122482000Y-143730000D01*
X122482000Y-143710000D01*
X121082000Y-143710000D01*
X120832000Y-143960000D01*
X120832000Y-143960300D01*
X111190198Y-143960300D01*
X109733313Y-142503415D01*
X110529427Y-142503415D01*
X110589486Y-142843474D01*
X111268592Y-143070617D01*
X111982926Y-143020586D01*
X112410514Y-142843474D01*
X112470573Y-142503415D01*
X112428245Y-142461087D01*
X120832000Y-142461087D01*
X120832000Y-143060000D01*
X121082000Y-143310000D01*
X122482000Y-143310000D01*
X122482000Y-141910000D01*
X122882000Y-141910000D01*
X122882000Y-143310000D01*
X124282000Y-143310000D01*
X124532000Y-143060000D01*
X124532000Y-142461087D01*
X124379759Y-142093545D01*
X124098454Y-141812241D01*
X123730912Y-141660000D01*
X123132000Y-141660000D01*
X122882000Y-141910000D01*
X122482000Y-141910000D01*
X122232000Y-141660000D01*
X121633088Y-141660000D01*
X121265546Y-141812241D01*
X120984241Y-142093545D01*
X120832000Y-142461087D01*
X112428245Y-142461087D01*
X111500000Y-141532843D01*
X110529427Y-142503415D01*
X109733313Y-142503415D01*
X108200244Y-140970346D01*
X108200294Y-140913333D01*
X108126237Y-140734100D01*
X109774538Y-140734100D01*
X109679383Y-141018592D01*
X109679383Y-141018592D01*
G37*
X109679383Y-141018592D02*
X109729414Y-141732926D01*
X109906526Y-142160514D01*
X110246585Y-142220573D01*
X111217157Y-141250000D01*
X111203015Y-141235858D01*
X111485858Y-140953015D01*
X111500000Y-140967157D01*
X111514142Y-140953015D01*
X111796985Y-141235858D01*
X111782843Y-141250000D01*
X112753415Y-142220573D01*
X113093474Y-142160514D01*
X113320617Y-141481408D01*
X113270586Y-140767074D01*
X113256928Y-140734100D01*
X125500000Y-140734100D01*
X125500000Y-143465802D01*
X125005502Y-143960300D01*
X124532000Y-143960300D01*
X124532000Y-143960000D01*
X124282000Y-143710000D01*
X122882000Y-143710000D01*
X122882000Y-143730000D01*
X122482000Y-143730000D01*
X122482000Y-143710000D01*
X121082000Y-143710000D01*
X120832000Y-143960000D01*
X120832000Y-143960300D01*
X111190198Y-143960300D01*
X109733313Y-142503415D01*
X110529427Y-142503415D01*
X110589486Y-142843474D01*
X111268592Y-143070617D01*
X111982926Y-143020586D01*
X112410514Y-142843474D01*
X112470573Y-142503415D01*
X112428245Y-142461087D01*
X120832000Y-142461087D01*
X120832000Y-143060000D01*
X121082000Y-143310000D01*
X122482000Y-143310000D01*
X122482000Y-141910000D01*
X122882000Y-141910000D01*
X122882000Y-143310000D01*
X124282000Y-143310000D01*
X124532000Y-143060000D01*
X124532000Y-142461087D01*
X124379759Y-142093545D01*
X124098454Y-141812241D01*
X123730912Y-141660000D01*
X123132000Y-141660000D01*
X122882000Y-141910000D01*
X122482000Y-141910000D01*
X122232000Y-141660000D01*
X121633088Y-141660000D01*
X121265546Y-141812241D01*
X120984241Y-142093545D01*
X120832000Y-142461087D01*
X112428245Y-142461087D01*
X111500000Y-141532843D01*
X110529427Y-142503415D01*
X109733313Y-142503415D01*
X108200244Y-140970346D01*
X108200294Y-140913333D01*
X108126237Y-140734100D01*
X109774538Y-140734100D01*
X109679383Y-141018592D01*
G36*
X121582368Y-104200000D02*
X121582368Y-105756176D01*
X121181176Y-106157368D01*
X120355000Y-106157368D01*
X120021480Y-106220124D01*
X120004263Y-106231203D01*
X120002010Y-106229664D01*
X119645000Y-106157368D01*
X117855000Y-106157368D01*
X117521480Y-106220124D01*
X117504263Y-106231203D01*
X117502010Y-106229664D01*
X117145000Y-106157368D01*
X115355000Y-106157368D01*
X115021480Y-106220124D01*
X114715162Y-106417234D01*
X114509664Y-106717990D01*
X114437368Y-107075000D01*
X114437368Y-110505000D01*
X114500124Y-110838520D01*
X114671130Y-111104271D01*
X110685300Y-115090102D01*
X110685300Y-112195841D01*
X110760000Y-111820300D01*
X110760000Y-110907070D01*
X110777632Y-110820000D01*
X110777632Y-107620000D01*
X110714876Y-107286480D01*
X110517766Y-106980162D01*
X110217010Y-106774664D01*
X109860000Y-106702368D01*
X108860000Y-106702368D01*
X108526480Y-106765124D01*
X108220162Y-106962234D01*
X108014664Y-107262990D01*
X107942368Y-107620000D01*
X107942368Y-110820000D01*
X107960000Y-110913706D01*
X107960000Y-111519459D01*
X107885300Y-111895000D01*
X107885300Y-115220556D01*
X107530000Y-115149883D01*
X106896659Y-115275862D01*
X106359738Y-115634621D01*
X106260000Y-115783890D01*
X106160262Y-115634621D01*
X105623341Y-115275862D01*
X104990000Y-115149883D01*
X104634700Y-115220556D01*
X104634700Y-111895000D01*
X104560000Y-111519459D01*
X104560000Y-110907070D01*
X104577632Y-110820000D01*
X104577632Y-107620000D01*
X104514876Y-107286480D01*
X104317766Y-106980162D01*
X104017010Y-106774664D01*
X103660000Y-106702368D01*
X102660000Y-106702368D01*
X102326480Y-106765124D01*
X102020162Y-106962234D01*
X101814664Y-107262990D01*
X101742368Y-107620000D01*
X101742368Y-110820000D01*
X101760000Y-110913706D01*
X101760000Y-111820300D01*
X101834700Y-112195841D01*
X101834700Y-121372182D01*
X101706569Y-121563943D01*
X101600000Y-122099700D01*
X101600000Y-122210592D01*
X101416480Y-122245124D01*
X101110162Y-122442234D01*
X100999988Y-122603479D01*
X100907766Y-122460162D01*
X100607010Y-122254664D01*
X100250000Y-122182368D01*
X97750000Y-122182368D01*
X97416480Y-122245124D01*
X97110162Y-122442234D01*
X96904664Y-122742990D01*
X96832368Y-123100000D01*
X96832368Y-124900000D01*
X96895124Y-125233520D01*
X97092234Y-125539838D01*
X97392990Y-125745336D01*
X97750000Y-125817632D01*
X98837734Y-125817632D01*
X100502350Y-127482249D01*
X100912496Y-127756300D01*
X100956543Y-127785731D01*
X101492300Y-127892300D01*
X105114000Y-127892300D01*
X105114000Y-128027490D01*
X105073650Y-128067770D01*
X104814296Y-128692366D01*
X104813706Y-129368667D01*
X105071970Y-129993715D01*
X105549770Y-130472350D01*
X106174366Y-130731704D01*
X106850667Y-130732294D01*
X107475715Y-130474030D01*
X107664659Y-130285415D01*
X110543427Y-130285415D01*
X110603486Y-130625474D01*
X111282592Y-130852617D01*
X111996926Y-130802586D01*
X112424514Y-130625474D01*
X112484573Y-130285415D01*
X111514000Y-129314843D01*
X110543427Y-130285415D01*
X107664659Y-130285415D01*
X107954350Y-129996230D01*
X108213704Y-129371634D01*
X108214202Y-128800592D01*
X109693383Y-128800592D01*
X109743414Y-129514926D01*
X109920526Y-129942514D01*
X110260585Y-130002573D01*
X111231157Y-129032000D01*
X111796843Y-129032000D01*
X112767415Y-130002573D01*
X113107474Y-129942514D01*
X113238759Y-129550000D01*
X114355000Y-129550000D01*
X114355000Y-131013912D01*
X114507241Y-131381454D01*
X114788545Y-131662759D01*
X115156087Y-131815000D01*
X115800000Y-131815000D01*
X116050000Y-131565000D01*
X116050000Y-129300000D01*
X114605000Y-129300000D01*
X114355000Y-129550000D01*
X113238759Y-129550000D01*
X113334617Y-129263408D01*
X113284586Y-128549074D01*
X113107474Y-128121486D01*
X112767415Y-128061427D01*
X111796843Y-129032000D01*
X111231157Y-129032000D01*
X110260585Y-128061427D01*
X109920526Y-128121486D01*
X109693383Y-128800592D01*
X108214202Y-128800592D01*
X108214294Y-128695333D01*
X107956030Y-128070285D01*
X107914000Y-128028182D01*
X107914000Y-127778585D01*
X110543427Y-127778585D01*
X111514000Y-128749157D01*
X112484573Y-127778585D01*
X112424514Y-127438526D01*
X111745408Y-127211383D01*
X111031074Y-127261414D01*
X110603486Y-127438526D01*
X110543427Y-127778585D01*
X107914000Y-127778585D01*
X107914000Y-127186088D01*
X114355000Y-127186088D01*
X114355000Y-128650000D01*
X114605000Y-128900000D01*
X116050000Y-128900000D01*
X116050000Y-126635000D01*
X115800000Y-126385000D01*
X115156087Y-126385000D01*
X114788545Y-126537241D01*
X114507241Y-126818546D01*
X114355000Y-127186088D01*
X107914000Y-127186088D01*
X107914000Y-126936104D01*
X107943431Y-126892057D01*
X108050000Y-126356300D01*
X108050000Y-126245408D01*
X108233520Y-126210876D01*
X108539838Y-126013766D01*
X108745336Y-125713010D01*
X108799353Y-125446266D01*
X108845124Y-125689520D01*
X109042234Y-125995838D01*
X109342990Y-126201336D01*
X109700000Y-126273632D01*
X112200000Y-126273632D01*
X112533520Y-126210876D01*
X112839838Y-126013766D01*
X113045336Y-125713010D01*
X113117632Y-125356000D01*
X113117632Y-123056000D01*
X113054876Y-122722480D01*
X112857766Y-122416162D01*
X112557010Y-122210664D01*
X112350000Y-122168744D01*
X112350000Y-117385198D01*
X117239950Y-112495249D01*
X117421873Y-112222980D01*
X117543431Y-112041057D01*
X117650000Y-111505300D01*
X117650000Y-111381119D01*
X117855000Y-111422632D01*
X119645000Y-111422632D01*
X119978520Y-111359876D01*
X119995737Y-111348797D01*
X119997990Y-111350336D01*
X120355000Y-111422632D01*
X122145000Y-111422632D01*
X122478520Y-111359876D01*
X122495737Y-111348797D01*
X122497990Y-111350336D01*
X122855000Y-111422632D01*
X124645000Y-111422632D01*
X124978520Y-111359876D01*
X124995737Y-111348797D01*
X124997990Y-111350336D01*
X125355000Y-111422632D01*
X127145000Y-111422632D01*
X127478520Y-111359876D01*
X127495737Y-111348797D01*
X127497990Y-111350336D01*
X127855000Y-111422632D01*
X128300000Y-111422632D01*
X128300000Y-126467368D01*
X127855000Y-126467368D01*
X127521480Y-126530124D01*
X127504263Y-126541203D01*
X127502010Y-126539664D01*
X127145000Y-126467368D01*
X125355000Y-126467368D01*
X125021480Y-126530124D01*
X125004263Y-126541203D01*
X125002010Y-126539664D01*
X124645000Y-126467368D01*
X123962124Y-126467368D01*
X123450928Y-125956172D01*
X123061620Y-125696045D01*
X122602400Y-125604700D01*
X121250000Y-125604700D01*
X120790780Y-125696045D01*
X120401472Y-125956172D01*
X120141345Y-126345480D01*
X120107849Y-126513872D01*
X120021480Y-126530124D01*
X120004263Y-126541203D01*
X120002010Y-126539664D01*
X119645000Y-126467368D01*
X117855000Y-126467368D01*
X117640298Y-126507767D01*
X117343913Y-126385000D01*
X116700000Y-126385000D01*
X116450000Y-126635000D01*
X116450000Y-128900000D01*
X116470000Y-128900000D01*
X116470000Y-129300000D01*
X116450000Y-129300000D01*
X116450000Y-131565000D01*
X116700000Y-131815000D01*
X117343913Y-131815000D01*
X117645291Y-131690165D01*
X117855000Y-131732632D01*
X119645000Y-131732632D01*
X119978520Y-131669876D01*
X119995737Y-131658797D01*
X119997990Y-131660336D01*
X120355000Y-131732632D01*
X122145000Y-131732632D01*
X122478520Y-131669876D01*
X122495737Y-131658797D01*
X122497990Y-131660336D01*
X122855000Y-131732632D01*
X124645000Y-131732632D01*
X124978520Y-131669876D01*
X124995737Y-131658797D01*
X124997990Y-131660336D01*
X125355000Y-131732632D01*
X127145000Y-131732632D01*
X127478520Y-131669876D01*
X127495737Y-131658797D01*
X127497990Y-131660336D01*
X127855000Y-131732632D01*
X128300000Y-131732632D01*
X128300000Y-137400000D01*
X125800000Y-137400000D01*
X125683283Y-137423636D01*
X125584958Y-137490819D01*
X125520517Y-137590963D01*
X125500000Y-137700000D01*
X125500000Y-137934100D01*
X120590000Y-137934100D01*
X120590000Y-137864000D01*
X120340000Y-137614000D01*
X119340000Y-137614000D01*
X119340000Y-137634000D01*
X118940000Y-137634000D01*
X118940000Y-137614000D01*
X117940000Y-137614000D01*
X117690000Y-137864000D01*
X117690000Y-137934100D01*
X117607632Y-137934100D01*
X117607632Y-137576724D01*
X117640000Y-137414000D01*
X117607632Y-137251276D01*
X117607632Y-136564000D01*
X117570205Y-136365087D01*
X117690000Y-136365087D01*
X117690000Y-136964000D01*
X117940000Y-137214000D01*
X118940000Y-137214000D01*
X118940000Y-135814000D01*
X119340000Y-135814000D01*
X119340000Y-137214000D01*
X120340000Y-137214000D01*
X120590000Y-136964000D01*
X120590000Y-136365087D01*
X120437759Y-135997545D01*
X120156454Y-135716241D01*
X119788912Y-135564000D01*
X119590000Y-135564000D01*
X119340000Y-135814000D01*
X118940000Y-135814000D01*
X118690000Y-135564000D01*
X118491088Y-135564000D01*
X118123546Y-135716241D01*
X117842241Y-135997545D01*
X117690000Y-136365087D01*
X117570205Y-136365087D01*
X117544876Y-136230480D01*
X117347766Y-135924162D01*
X117047010Y-135718664D01*
X116690000Y-135646368D01*
X115790000Y-135646368D01*
X115456480Y-135709124D01*
X115150162Y-135906234D01*
X115076529Y-136014000D01*
X113115673Y-136014000D01*
X113334617Y-135359408D01*
X113284586Y-134645074D01*
X113107474Y-134217486D01*
X112767415Y-134157427D01*
X111796843Y-135128000D01*
X111810985Y-135142142D01*
X111528142Y-135424985D01*
X111514000Y-135410843D01*
X111499858Y-135424985D01*
X111217015Y-135142142D01*
X111231157Y-135128000D01*
X110260585Y-134157427D01*
X109920526Y-134217486D01*
X109693383Y-134896592D01*
X109743414Y-135610926D01*
X109910372Y-136014000D01*
X109379899Y-136014000D01*
X108214244Y-134848346D01*
X108214294Y-134791333D01*
X107956030Y-134166285D01*
X107664839Y-133874585D01*
X110543427Y-133874585D01*
X111514000Y-134845157D01*
X112484573Y-133874585D01*
X112424514Y-133534526D01*
X111745408Y-133307383D01*
X111031074Y-133357414D01*
X110603486Y-133534526D01*
X110543427Y-133874585D01*
X107664839Y-133874585D01*
X107478230Y-133687650D01*
X106853634Y-133428296D01*
X106177333Y-133427706D01*
X105552285Y-133685970D01*
X105073650Y-134163770D01*
X104814296Y-134788366D01*
X104813706Y-135464667D01*
X105071970Y-136089715D01*
X105549770Y-136568350D01*
X106174366Y-136827704D01*
X106233858Y-136827756D01*
X107340201Y-137934100D01*
X103805298Y-137934100D01*
X103565249Y-137694051D01*
X103111057Y-137390569D01*
X102575300Y-137284000D01*
X102190489Y-137284000D01*
X102434838Y-137126766D01*
X102640336Y-136826010D01*
X102712632Y-136469000D01*
X102712632Y-135819000D01*
X102649876Y-135485480D01*
X102452766Y-135179162D01*
X102152010Y-134973664D01*
X101795000Y-134901368D01*
X100764600Y-134901368D01*
X100764600Y-132069632D01*
X101468000Y-132069632D01*
X101801520Y-132006876D01*
X102107838Y-131809766D01*
X102313336Y-131509010D01*
X102385632Y-131152000D01*
X102385632Y-129452000D01*
X102322876Y-129118480D01*
X102125766Y-128812162D01*
X101825010Y-128606664D01*
X101468000Y-128534368D01*
X100568000Y-128534368D01*
X100234480Y-128597124D01*
X99928162Y-128794234D01*
X99722664Y-129094990D01*
X99689619Y-129258173D01*
X99667181Y-129262636D01*
X99474256Y-129391544D01*
X99422876Y-129118480D01*
X99225766Y-128812162D01*
X98925010Y-128606664D01*
X98682542Y-128557563D01*
X98470755Y-128045000D01*
X98077272Y-127650830D01*
X97562899Y-127437243D01*
X97005944Y-127436757D01*
X96491200Y-127649445D01*
X96097030Y-128042928D01*
X95883443Y-128557301D01*
X95882957Y-129114256D01*
X96095645Y-129629000D01*
X96238200Y-129771804D01*
X96238200Y-130287195D01*
X96238199Y-130287200D01*
X96317746Y-130687104D01*
X96544273Y-131026127D01*
X96559071Y-131040924D01*
X96559073Y-131040927D01*
X96753972Y-131171154D01*
X96813124Y-131485520D01*
X97010234Y-131791838D01*
X97310990Y-131997336D01*
X97668000Y-132069632D01*
X98514600Y-132069632D01*
X98514600Y-141149300D01*
X95800499Y-141149300D01*
X94885249Y-140234051D01*
X94811294Y-140184636D01*
X94466124Y-139954000D01*
X94885249Y-139673949D01*
X95188731Y-139219757D01*
X95295300Y-138684000D01*
X95295300Y-125522600D01*
X95188731Y-124986843D01*
X95097047Y-124849628D01*
X94885249Y-124532650D01*
X93822649Y-123470051D01*
X93707530Y-123393131D01*
X93368457Y-123166569D01*
X92832700Y-123060000D01*
X92633281Y-123060000D01*
X92595380Y-122869457D01*
X92205096Y-122285356D01*
X91620995Y-121895072D01*
X90932000Y-121758022D01*
X90243005Y-121895072D01*
X89662000Y-122283287D01*
X89080995Y-121895072D01*
X88392000Y-121758022D01*
X87776000Y-121880552D01*
X87776000Y-117600382D01*
X87876000Y-117620632D01*
X88876000Y-117620632D01*
X89209520Y-117557876D01*
X89512407Y-117362973D01*
X89644234Y-117567838D01*
X89944990Y-117773336D01*
X90302000Y-117845632D01*
X91202000Y-117845632D01*
X91535520Y-117782876D01*
X91841838Y-117585766D01*
X92047336Y-117285010D01*
X92119632Y-116928000D01*
X92119632Y-116528000D01*
X92202000Y-116528000D01*
X92202000Y-117126913D01*
X92354241Y-117494455D01*
X92635546Y-117775759D01*
X93003088Y-117928000D01*
X93202000Y-117928000D01*
X93452000Y-117678000D01*
X93452000Y-116278000D01*
X93852000Y-116278000D01*
X93852000Y-117678000D01*
X94102000Y-117928000D01*
X94300912Y-117928000D01*
X94668454Y-117775759D01*
X94949759Y-117494455D01*
X95102000Y-117126913D01*
X95102000Y-116528000D01*
X94852000Y-116278000D01*
X93852000Y-116278000D01*
X93452000Y-116278000D01*
X92452000Y-116278000D01*
X92202000Y-116528000D01*
X92119632Y-116528000D01*
X92119632Y-115228000D01*
X92082205Y-115029087D01*
X92202000Y-115029087D01*
X92202000Y-115628000D01*
X92452000Y-115878000D01*
X93452000Y-115878000D01*
X93452000Y-114478000D01*
X93852000Y-114478000D01*
X93852000Y-115878000D01*
X94852000Y-115878000D01*
X95102000Y-115628000D01*
X95102000Y-115029087D01*
X94949759Y-114661545D01*
X94668454Y-114380241D01*
X94300912Y-114228000D01*
X94102000Y-114228000D01*
X93852000Y-114478000D01*
X93452000Y-114478000D01*
X93202000Y-114228000D01*
X93003088Y-114228000D01*
X92635546Y-114380241D01*
X92354241Y-114661545D01*
X92202000Y-115029087D01*
X92082205Y-115029087D01*
X92056876Y-114894480D01*
X91859766Y-114588162D01*
X91559010Y-114382664D01*
X91202000Y-114310368D01*
X90302000Y-114310368D01*
X89968480Y-114373124D01*
X89662162Y-114570234D01*
X89508140Y-114795652D01*
X89233010Y-114607664D01*
X88876000Y-114535368D01*
X88104831Y-114535368D01*
X88755950Y-113884249D01*
X88937873Y-113611980D01*
X89059431Y-113430057D01*
X89166000Y-112894300D01*
X89166000Y-112783408D01*
X89349520Y-112748876D01*
X89655838Y-112551766D01*
X89861336Y-112251010D01*
X89915353Y-111984266D01*
X89961124Y-112227520D01*
X90158234Y-112533838D01*
X90458990Y-112739336D01*
X90816000Y-112811632D01*
X93316000Y-112811632D01*
X93649520Y-112748876D01*
X93955838Y-112551766D01*
X94161336Y-112251010D01*
X94233632Y-111894000D01*
X94233632Y-109594000D01*
X94170876Y-109260480D01*
X93973766Y-108954162D01*
X93673010Y-108748664D01*
X93316000Y-108676368D01*
X91978266Y-108676368D01*
X90905649Y-107603751D01*
X90733845Y-107488955D01*
X90451457Y-107300269D01*
X89915700Y-107193700D01*
X83176000Y-107193700D01*
X82640243Y-107300269D01*
X82186051Y-107603751D01*
X81882569Y-108057943D01*
X81776000Y-108593700D01*
X81776000Y-108704592D01*
X81592480Y-108739124D01*
X81286162Y-108936234D01*
X81080664Y-109236990D01*
X81074048Y-109269663D01*
X80973759Y-109027545D01*
X80692454Y-108746241D01*
X80324912Y-108594000D01*
X79326000Y-108594000D01*
X79076000Y-108844000D01*
X79076000Y-110544000D01*
X79096000Y-110544000D01*
X79096000Y-110944000D01*
X79076000Y-110944000D01*
X79076000Y-112644000D01*
X79326000Y-112894000D01*
X80324912Y-112894000D01*
X80692454Y-112741759D01*
X80973759Y-112460455D01*
X81070849Y-112226059D01*
X81071124Y-112227520D01*
X81268234Y-112533838D01*
X81568990Y-112739336D01*
X81926000Y-112811632D01*
X84426000Y-112811632D01*
X84759520Y-112748876D01*
X85065838Y-112551766D01*
X85271336Y-112251010D01*
X85343632Y-111894000D01*
X85343632Y-109993700D01*
X85598368Y-109993700D01*
X85598368Y-111894000D01*
X85661124Y-112227520D01*
X85858234Y-112533838D01*
X86029525Y-112650876D01*
X85386051Y-113294351D01*
X85082569Y-113748543D01*
X84976000Y-114284300D01*
X84976000Y-115365930D01*
X84958368Y-115453000D01*
X84958368Y-116703000D01*
X84976000Y-116796706D01*
X84976000Y-123060000D01*
X81534000Y-123060000D01*
X81344477Y-123097699D01*
X81518561Y-122678457D01*
X81519438Y-121673950D01*
X81135839Y-120745571D01*
X80426165Y-120034657D01*
X79498457Y-119649439D01*
X78493950Y-119648562D01*
X77565571Y-120032161D01*
X76854657Y-120741835D01*
X76469439Y-121669543D01*
X76468562Y-122674050D01*
X76852161Y-123602429D01*
X77561835Y-124313343D01*
X78489543Y-124698561D01*
X79314820Y-124699282D01*
X79163954Y-124850148D01*
X78568215Y-124849628D01*
X77777714Y-125176256D01*
X77172381Y-125780533D01*
X76844374Y-126570462D01*
X76843628Y-127425785D01*
X77170256Y-128216286D01*
X77774533Y-128821619D01*
X78564462Y-129149626D01*
X79419785Y-129150372D01*
X80210286Y-128823744D01*
X80815619Y-128219467D01*
X81143626Y-127429538D01*
X81144149Y-126829749D01*
X82113899Y-125860000D01*
X86690719Y-125860000D01*
X86728620Y-126050543D01*
X87118904Y-126634644D01*
X87703005Y-127024928D01*
X88392000Y-127161978D01*
X89080995Y-127024928D01*
X89662000Y-126636713D01*
X90243005Y-127024928D01*
X90932000Y-127161978D01*
X91620995Y-127024928D01*
X92205096Y-126634644D01*
X92495300Y-126200323D01*
X92495300Y-134828598D01*
X92070000Y-134744000D01*
X90244700Y-134744000D01*
X89708943Y-134850569D01*
X89254751Y-135154051D01*
X88951269Y-135608243D01*
X88844700Y-136144000D01*
X88844700Y-141224000D01*
X88846762Y-141234368D01*
X88122000Y-141234368D01*
X87788480Y-141297124D01*
X87635959Y-141395269D01*
X81069995Y-134829305D01*
X80942327Y-134744000D01*
X80761690Y-134623302D01*
X80815619Y-134569467D01*
X81143626Y-133779538D01*
X81144372Y-132924215D01*
X80817744Y-132133714D01*
X80213467Y-131528381D01*
X79423538Y-131200374D01*
X78568215Y-131199628D01*
X77777714Y-131526256D01*
X77172381Y-132130533D01*
X76844374Y-132920462D01*
X76843628Y-133775785D01*
X77142785Y-134499800D01*
X70500000Y-134499800D01*
X70500000Y-122674050D01*
X71388562Y-122674050D01*
X71772161Y-123602429D01*
X72481835Y-124313343D01*
X73409543Y-124698561D01*
X74414050Y-124699438D01*
X75342429Y-124315839D01*
X76053343Y-123606165D01*
X76438561Y-122678457D01*
X76439438Y-121673950D01*
X76055839Y-120745571D01*
X75346165Y-120034657D01*
X74418457Y-119649439D01*
X73413950Y-119648562D01*
X72485571Y-120032161D01*
X71774657Y-120741835D01*
X71389439Y-121669543D01*
X71388562Y-122674050D01*
X70500000Y-122674050D01*
X70500000Y-117519785D01*
X76843628Y-117519785D01*
X77170256Y-118310286D01*
X77774533Y-118915619D01*
X78564462Y-119243626D01*
X79419785Y-119244372D01*
X80210286Y-118917744D01*
X80815619Y-118313467D01*
X81143626Y-117523538D01*
X81144372Y-116668215D01*
X80817744Y-115877714D01*
X80213467Y-115272381D01*
X79423538Y-114944374D01*
X78568215Y-114943628D01*
X77777714Y-115270256D01*
X77172381Y-115874533D01*
X76844374Y-116664462D01*
X76843628Y-117519785D01*
X70500000Y-117519785D01*
X70500000Y-117406539D01*
X70640264Y-117196619D01*
X70725900Y-116766100D01*
X70725900Y-116434090D01*
X75965990Y-111194000D01*
X76626000Y-111194000D01*
X76626000Y-112092913D01*
X76778241Y-112460455D01*
X77059546Y-112741759D01*
X77427088Y-112894000D01*
X78426000Y-112894000D01*
X78676000Y-112644000D01*
X78676000Y-110944000D01*
X76876000Y-110944000D01*
X76626000Y-111194000D01*
X75965990Y-111194000D01*
X76745995Y-110413995D01*
X76876000Y-110544000D01*
X78676000Y-110544000D01*
X78676000Y-108844000D01*
X78495995Y-108663995D01*
X81097490Y-106062500D01*
X111069200Y-106062500D01*
X111499719Y-105976864D01*
X111864695Y-105732995D01*
X113251593Y-104346097D01*
X113353000Y-104366632D01*
X115003000Y-104366632D01*
X115336520Y-104303876D01*
X115642838Y-104106766D01*
X115784115Y-103900000D01*
X121643119Y-103900000D01*
X121582368Y-104200000D01*
X121582368Y-104200000D01*
G37*
X121582368Y-104200000D02*
X121582368Y-105756176D01*
X121181176Y-106157368D01*
X120355000Y-106157368D01*
X120021480Y-106220124D01*
X120004263Y-106231203D01*
X120002010Y-106229664D01*
X119645000Y-106157368D01*
X117855000Y-106157368D01*
X117521480Y-106220124D01*
X117504263Y-106231203D01*
X117502010Y-106229664D01*
X117145000Y-106157368D01*
X115355000Y-106157368D01*
X115021480Y-106220124D01*
X114715162Y-106417234D01*
X114509664Y-106717990D01*
X114437368Y-107075000D01*
X114437368Y-110505000D01*
X114500124Y-110838520D01*
X114671130Y-111104271D01*
X110685300Y-115090102D01*
X110685300Y-112195841D01*
X110760000Y-111820300D01*
X110760000Y-110907070D01*
X110777632Y-110820000D01*
X110777632Y-107620000D01*
X110714876Y-107286480D01*
X110517766Y-106980162D01*
X110217010Y-106774664D01*
X109860000Y-106702368D01*
X108860000Y-106702368D01*
X108526480Y-106765124D01*
X108220162Y-106962234D01*
X108014664Y-107262990D01*
X107942368Y-107620000D01*
X107942368Y-110820000D01*
X107960000Y-110913706D01*
X107960000Y-111519459D01*
X107885300Y-111895000D01*
X107885300Y-115220556D01*
X107530000Y-115149883D01*
X106896659Y-115275862D01*
X106359738Y-115634621D01*
X106260000Y-115783890D01*
X106160262Y-115634621D01*
X105623341Y-115275862D01*
X104990000Y-115149883D01*
X104634700Y-115220556D01*
X104634700Y-111895000D01*
X104560000Y-111519459D01*
X104560000Y-110907070D01*
X104577632Y-110820000D01*
X104577632Y-107620000D01*
X104514876Y-107286480D01*
X104317766Y-106980162D01*
X104017010Y-106774664D01*
X103660000Y-106702368D01*
X102660000Y-106702368D01*
X102326480Y-106765124D01*
X102020162Y-106962234D01*
X101814664Y-107262990D01*
X101742368Y-107620000D01*
X101742368Y-110820000D01*
X101760000Y-110913706D01*
X101760000Y-111820300D01*
X101834700Y-112195841D01*
X101834700Y-121372182D01*
X101706569Y-121563943D01*
X101600000Y-122099700D01*
X101600000Y-122210592D01*
X101416480Y-122245124D01*
X101110162Y-122442234D01*
X100999988Y-122603479D01*
X100907766Y-122460162D01*
X100607010Y-122254664D01*
X100250000Y-122182368D01*
X97750000Y-122182368D01*
X97416480Y-122245124D01*
X97110162Y-122442234D01*
X96904664Y-122742990D01*
X96832368Y-123100000D01*
X96832368Y-124900000D01*
X96895124Y-125233520D01*
X97092234Y-125539838D01*
X97392990Y-125745336D01*
X97750000Y-125817632D01*
X98837734Y-125817632D01*
X100502350Y-127482249D01*
X100912496Y-127756300D01*
X100956543Y-127785731D01*
X101492300Y-127892300D01*
X105114000Y-127892300D01*
X105114000Y-128027490D01*
X105073650Y-128067770D01*
X104814296Y-128692366D01*
X104813706Y-129368667D01*
X105071970Y-129993715D01*
X105549770Y-130472350D01*
X106174366Y-130731704D01*
X106850667Y-130732294D01*
X107475715Y-130474030D01*
X107664659Y-130285415D01*
X110543427Y-130285415D01*
X110603486Y-130625474D01*
X111282592Y-130852617D01*
X111996926Y-130802586D01*
X112424514Y-130625474D01*
X112484573Y-130285415D01*
X111514000Y-129314843D01*
X110543427Y-130285415D01*
X107664659Y-130285415D01*
X107954350Y-129996230D01*
X108213704Y-129371634D01*
X108214202Y-128800592D01*
X109693383Y-128800592D01*
X109743414Y-129514926D01*
X109920526Y-129942514D01*
X110260585Y-130002573D01*
X111231157Y-129032000D01*
X111796843Y-129032000D01*
X112767415Y-130002573D01*
X113107474Y-129942514D01*
X113238759Y-129550000D01*
X114355000Y-129550000D01*
X114355000Y-131013912D01*
X114507241Y-131381454D01*
X114788545Y-131662759D01*
X115156087Y-131815000D01*
X115800000Y-131815000D01*
X116050000Y-131565000D01*
X116050000Y-129300000D01*
X114605000Y-129300000D01*
X114355000Y-129550000D01*
X113238759Y-129550000D01*
X113334617Y-129263408D01*
X113284586Y-128549074D01*
X113107474Y-128121486D01*
X112767415Y-128061427D01*
X111796843Y-129032000D01*
X111231157Y-129032000D01*
X110260585Y-128061427D01*
X109920526Y-128121486D01*
X109693383Y-128800592D01*
X108214202Y-128800592D01*
X108214294Y-128695333D01*
X107956030Y-128070285D01*
X107914000Y-128028182D01*
X107914000Y-127778585D01*
X110543427Y-127778585D01*
X111514000Y-128749157D01*
X112484573Y-127778585D01*
X112424514Y-127438526D01*
X111745408Y-127211383D01*
X111031074Y-127261414D01*
X110603486Y-127438526D01*
X110543427Y-127778585D01*
X107914000Y-127778585D01*
X107914000Y-127186088D01*
X114355000Y-127186088D01*
X114355000Y-128650000D01*
X114605000Y-128900000D01*
X116050000Y-128900000D01*
X116050000Y-126635000D01*
X115800000Y-126385000D01*
X115156087Y-126385000D01*
X114788545Y-126537241D01*
X114507241Y-126818546D01*
X114355000Y-127186088D01*
X107914000Y-127186088D01*
X107914000Y-126936104D01*
X107943431Y-126892057D01*
X108050000Y-126356300D01*
X108050000Y-126245408D01*
X108233520Y-126210876D01*
X108539838Y-126013766D01*
X108745336Y-125713010D01*
X108799353Y-125446266D01*
X108845124Y-125689520D01*
X109042234Y-125995838D01*
X109342990Y-126201336D01*
X109700000Y-126273632D01*
X112200000Y-126273632D01*
X112533520Y-126210876D01*
X112839838Y-126013766D01*
X113045336Y-125713010D01*
X113117632Y-125356000D01*
X113117632Y-123056000D01*
X113054876Y-122722480D01*
X112857766Y-122416162D01*
X112557010Y-122210664D01*
X112350000Y-122168744D01*
X112350000Y-117385198D01*
X117239950Y-112495249D01*
X117421873Y-112222980D01*
X117543431Y-112041057D01*
X117650000Y-111505300D01*
X117650000Y-111381119D01*
X117855000Y-111422632D01*
X119645000Y-111422632D01*
X119978520Y-111359876D01*
X119995737Y-111348797D01*
X119997990Y-111350336D01*
X120355000Y-111422632D01*
X122145000Y-111422632D01*
X122478520Y-111359876D01*
X122495737Y-111348797D01*
X122497990Y-111350336D01*
X122855000Y-111422632D01*
X124645000Y-111422632D01*
X124978520Y-111359876D01*
X124995737Y-111348797D01*
X124997990Y-111350336D01*
X125355000Y-111422632D01*
X127145000Y-111422632D01*
X127478520Y-111359876D01*
X127495737Y-111348797D01*
X127497990Y-111350336D01*
X127855000Y-111422632D01*
X128300000Y-111422632D01*
X128300000Y-126467368D01*
X127855000Y-126467368D01*
X127521480Y-126530124D01*
X127504263Y-126541203D01*
X127502010Y-126539664D01*
X127145000Y-126467368D01*
X125355000Y-126467368D01*
X125021480Y-126530124D01*
X125004263Y-126541203D01*
X125002010Y-126539664D01*
X124645000Y-126467368D01*
X123962124Y-126467368D01*
X123450928Y-125956172D01*
X123061620Y-125696045D01*
X122602400Y-125604700D01*
X121250000Y-125604700D01*
X120790780Y-125696045D01*
X120401472Y-125956172D01*
X120141345Y-126345480D01*
X120107849Y-126513872D01*
X120021480Y-126530124D01*
X120004263Y-126541203D01*
X120002010Y-126539664D01*
X119645000Y-126467368D01*
X117855000Y-126467368D01*
X117640298Y-126507767D01*
X117343913Y-126385000D01*
X116700000Y-126385000D01*
X116450000Y-126635000D01*
X116450000Y-128900000D01*
X116470000Y-128900000D01*
X116470000Y-129300000D01*
X116450000Y-129300000D01*
X116450000Y-131565000D01*
X116700000Y-131815000D01*
X117343913Y-131815000D01*
X117645291Y-131690165D01*
X117855000Y-131732632D01*
X119645000Y-131732632D01*
X119978520Y-131669876D01*
X119995737Y-131658797D01*
X119997990Y-131660336D01*
X120355000Y-131732632D01*
X122145000Y-131732632D01*
X122478520Y-131669876D01*
X122495737Y-131658797D01*
X122497990Y-131660336D01*
X122855000Y-131732632D01*
X124645000Y-131732632D01*
X124978520Y-131669876D01*
X124995737Y-131658797D01*
X124997990Y-131660336D01*
X125355000Y-131732632D01*
X127145000Y-131732632D01*
X127478520Y-131669876D01*
X127495737Y-131658797D01*
X127497990Y-131660336D01*
X127855000Y-131732632D01*
X128300000Y-131732632D01*
X128300000Y-137400000D01*
X125800000Y-137400000D01*
X125683283Y-137423636D01*
X125584958Y-137490819D01*
X125520517Y-137590963D01*
X125500000Y-137700000D01*
X125500000Y-137934100D01*
X120590000Y-137934100D01*
X120590000Y-137864000D01*
X120340000Y-137614000D01*
X119340000Y-137614000D01*
X119340000Y-137634000D01*
X118940000Y-137634000D01*
X118940000Y-137614000D01*
X117940000Y-137614000D01*
X117690000Y-137864000D01*
X117690000Y-137934100D01*
X117607632Y-137934100D01*
X117607632Y-137576724D01*
X117640000Y-137414000D01*
X117607632Y-137251276D01*
X117607632Y-136564000D01*
X117570205Y-136365087D01*
X117690000Y-136365087D01*
X117690000Y-136964000D01*
X117940000Y-137214000D01*
X118940000Y-137214000D01*
X118940000Y-135814000D01*
X119340000Y-135814000D01*
X119340000Y-137214000D01*
X120340000Y-137214000D01*
X120590000Y-136964000D01*
X120590000Y-136365087D01*
X120437759Y-135997545D01*
X120156454Y-135716241D01*
X119788912Y-135564000D01*
X119590000Y-135564000D01*
X119340000Y-135814000D01*
X118940000Y-135814000D01*
X118690000Y-135564000D01*
X118491088Y-135564000D01*
X118123546Y-135716241D01*
X117842241Y-135997545D01*
X117690000Y-136365087D01*
X117570205Y-136365087D01*
X117544876Y-136230480D01*
X117347766Y-135924162D01*
X117047010Y-135718664D01*
X116690000Y-135646368D01*
X115790000Y-135646368D01*
X115456480Y-135709124D01*
X115150162Y-135906234D01*
X115076529Y-136014000D01*
X113115673Y-136014000D01*
X113334617Y-135359408D01*
X113284586Y-134645074D01*
X113107474Y-134217486D01*
X112767415Y-134157427D01*
X111796843Y-135128000D01*
X111810985Y-135142142D01*
X111528142Y-135424985D01*
X111514000Y-135410843D01*
X111499858Y-135424985D01*
X111217015Y-135142142D01*
X111231157Y-135128000D01*
X110260585Y-134157427D01*
X109920526Y-134217486D01*
X109693383Y-134896592D01*
X109743414Y-135610926D01*
X109910372Y-136014000D01*
X109379899Y-136014000D01*
X108214244Y-134848346D01*
X108214294Y-134791333D01*
X107956030Y-134166285D01*
X107664839Y-133874585D01*
X110543427Y-133874585D01*
X111514000Y-134845157D01*
X112484573Y-133874585D01*
X112424514Y-133534526D01*
X111745408Y-133307383D01*
X111031074Y-133357414D01*
X110603486Y-133534526D01*
X110543427Y-133874585D01*
X107664839Y-133874585D01*
X107478230Y-133687650D01*
X106853634Y-133428296D01*
X106177333Y-133427706D01*
X105552285Y-133685970D01*
X105073650Y-134163770D01*
X104814296Y-134788366D01*
X104813706Y-135464667D01*
X105071970Y-136089715D01*
X105549770Y-136568350D01*
X106174366Y-136827704D01*
X106233858Y-136827756D01*
X107340201Y-137934100D01*
X103805298Y-137934100D01*
X103565249Y-137694051D01*
X103111057Y-137390569D01*
X102575300Y-137284000D01*
X102190489Y-137284000D01*
X102434838Y-137126766D01*
X102640336Y-136826010D01*
X102712632Y-136469000D01*
X102712632Y-135819000D01*
X102649876Y-135485480D01*
X102452766Y-135179162D01*
X102152010Y-134973664D01*
X101795000Y-134901368D01*
X100764600Y-134901368D01*
X100764600Y-132069632D01*
X101468000Y-132069632D01*
X101801520Y-132006876D01*
X102107838Y-131809766D01*
X102313336Y-131509010D01*
X102385632Y-131152000D01*
X102385632Y-129452000D01*
X102322876Y-129118480D01*
X102125766Y-128812162D01*
X101825010Y-128606664D01*
X101468000Y-128534368D01*
X100568000Y-128534368D01*
X100234480Y-128597124D01*
X99928162Y-128794234D01*
X99722664Y-129094990D01*
X99689619Y-129258173D01*
X99667181Y-129262636D01*
X99474256Y-129391544D01*
X99422876Y-129118480D01*
X99225766Y-128812162D01*
X98925010Y-128606664D01*
X98682542Y-128557563D01*
X98470755Y-128045000D01*
X98077272Y-127650830D01*
X97562899Y-127437243D01*
X97005944Y-127436757D01*
X96491200Y-127649445D01*
X96097030Y-128042928D01*
X95883443Y-128557301D01*
X95882957Y-129114256D01*
X96095645Y-129629000D01*
X96238200Y-129771804D01*
X96238200Y-130287195D01*
X96238199Y-130287200D01*
X96317746Y-130687104D01*
X96544273Y-131026127D01*
X96559071Y-131040924D01*
X96559073Y-131040927D01*
X96753972Y-131171154D01*
X96813124Y-131485520D01*
X97010234Y-131791838D01*
X97310990Y-131997336D01*
X97668000Y-132069632D01*
X98514600Y-132069632D01*
X98514600Y-141149300D01*
X95800499Y-141149300D01*
X94885249Y-140234051D01*
X94811294Y-140184636D01*
X94466124Y-139954000D01*
X94885249Y-139673949D01*
X95188731Y-139219757D01*
X95295300Y-138684000D01*
X95295300Y-125522600D01*
X95188731Y-124986843D01*
X95097047Y-124849628D01*
X94885249Y-124532650D01*
X93822649Y-123470051D01*
X93707530Y-123393131D01*
X93368457Y-123166569D01*
X92832700Y-123060000D01*
X92633281Y-123060000D01*
X92595380Y-122869457D01*
X92205096Y-122285356D01*
X91620995Y-121895072D01*
X90932000Y-121758022D01*
X90243005Y-121895072D01*
X89662000Y-122283287D01*
X89080995Y-121895072D01*
X88392000Y-121758022D01*
X87776000Y-121880552D01*
X87776000Y-117600382D01*
X87876000Y-117620632D01*
X88876000Y-117620632D01*
X89209520Y-117557876D01*
X89512407Y-117362973D01*
X89644234Y-117567838D01*
X89944990Y-117773336D01*
X90302000Y-117845632D01*
X91202000Y-117845632D01*
X91535520Y-117782876D01*
X91841838Y-117585766D01*
X92047336Y-117285010D01*
X92119632Y-116928000D01*
X92119632Y-116528000D01*
X92202000Y-116528000D01*
X92202000Y-117126913D01*
X92354241Y-117494455D01*
X92635546Y-117775759D01*
X93003088Y-117928000D01*
X93202000Y-117928000D01*
X93452000Y-117678000D01*
X93452000Y-116278000D01*
X93852000Y-116278000D01*
X93852000Y-117678000D01*
X94102000Y-117928000D01*
X94300912Y-117928000D01*
X94668454Y-117775759D01*
X94949759Y-117494455D01*
X95102000Y-117126913D01*
X95102000Y-116528000D01*
X94852000Y-116278000D01*
X93852000Y-116278000D01*
X93452000Y-116278000D01*
X92452000Y-116278000D01*
X92202000Y-116528000D01*
X92119632Y-116528000D01*
X92119632Y-115228000D01*
X92082205Y-115029087D01*
X92202000Y-115029087D01*
X92202000Y-115628000D01*
X92452000Y-115878000D01*
X93452000Y-115878000D01*
X93452000Y-114478000D01*
X93852000Y-114478000D01*
X93852000Y-115878000D01*
X94852000Y-115878000D01*
X95102000Y-115628000D01*
X95102000Y-115029087D01*
X94949759Y-114661545D01*
X94668454Y-114380241D01*
X94300912Y-114228000D01*
X94102000Y-114228000D01*
X93852000Y-114478000D01*
X93452000Y-114478000D01*
X93202000Y-114228000D01*
X93003088Y-114228000D01*
X92635546Y-114380241D01*
X92354241Y-114661545D01*
X92202000Y-115029087D01*
X92082205Y-115029087D01*
X92056876Y-114894480D01*
X91859766Y-114588162D01*
X91559010Y-114382664D01*
X91202000Y-114310368D01*
X90302000Y-114310368D01*
X89968480Y-114373124D01*
X89662162Y-114570234D01*
X89508140Y-114795652D01*
X89233010Y-114607664D01*
X88876000Y-114535368D01*
X88104831Y-114535368D01*
X88755950Y-113884249D01*
X88937873Y-113611980D01*
X89059431Y-113430057D01*
X89166000Y-112894300D01*
X89166000Y-112783408D01*
X89349520Y-112748876D01*
X89655838Y-112551766D01*
X89861336Y-112251010D01*
X89915353Y-111984266D01*
X89961124Y-112227520D01*
X90158234Y-112533838D01*
X90458990Y-112739336D01*
X90816000Y-112811632D01*
X93316000Y-112811632D01*
X93649520Y-112748876D01*
X93955838Y-112551766D01*
X94161336Y-112251010D01*
X94233632Y-111894000D01*
X94233632Y-109594000D01*
X94170876Y-109260480D01*
X93973766Y-108954162D01*
X93673010Y-108748664D01*
X93316000Y-108676368D01*
X91978266Y-108676368D01*
X90905649Y-107603751D01*
X90733845Y-107488955D01*
X90451457Y-107300269D01*
X89915700Y-107193700D01*
X83176000Y-107193700D01*
X82640243Y-107300269D01*
X82186051Y-107603751D01*
X81882569Y-108057943D01*
X81776000Y-108593700D01*
X81776000Y-108704592D01*
X81592480Y-108739124D01*
X81286162Y-108936234D01*
X81080664Y-109236990D01*
X81074048Y-109269663D01*
X80973759Y-109027545D01*
X80692454Y-108746241D01*
X80324912Y-108594000D01*
X79326000Y-108594000D01*
X79076000Y-108844000D01*
X79076000Y-110544000D01*
X79096000Y-110544000D01*
X79096000Y-110944000D01*
X79076000Y-110944000D01*
X79076000Y-112644000D01*
X79326000Y-112894000D01*
X80324912Y-112894000D01*
X80692454Y-112741759D01*
X80973759Y-112460455D01*
X81070849Y-112226059D01*
X81071124Y-112227520D01*
X81268234Y-112533838D01*
X81568990Y-112739336D01*
X81926000Y-112811632D01*
X84426000Y-112811632D01*
X84759520Y-112748876D01*
X85065838Y-112551766D01*
X85271336Y-112251010D01*
X85343632Y-111894000D01*
X85343632Y-109993700D01*
X85598368Y-109993700D01*
X85598368Y-111894000D01*
X85661124Y-112227520D01*
X85858234Y-112533838D01*
X86029525Y-112650876D01*
X85386051Y-113294351D01*
X85082569Y-113748543D01*
X84976000Y-114284300D01*
X84976000Y-115365930D01*
X84958368Y-115453000D01*
X84958368Y-116703000D01*
X84976000Y-116796706D01*
X84976000Y-123060000D01*
X81534000Y-123060000D01*
X81344477Y-123097699D01*
X81518561Y-122678457D01*
X81519438Y-121673950D01*
X81135839Y-120745571D01*
X80426165Y-120034657D01*
X79498457Y-119649439D01*
X78493950Y-119648562D01*
X77565571Y-120032161D01*
X76854657Y-120741835D01*
X76469439Y-121669543D01*
X76468562Y-122674050D01*
X76852161Y-123602429D01*
X77561835Y-124313343D01*
X78489543Y-124698561D01*
X79314820Y-124699282D01*
X79163954Y-124850148D01*
X78568215Y-124849628D01*
X77777714Y-125176256D01*
X77172381Y-125780533D01*
X76844374Y-126570462D01*
X76843628Y-127425785D01*
X77170256Y-128216286D01*
X77774533Y-128821619D01*
X78564462Y-129149626D01*
X79419785Y-129150372D01*
X80210286Y-128823744D01*
X80815619Y-128219467D01*
X81143626Y-127429538D01*
X81144149Y-126829749D01*
X82113899Y-125860000D01*
X86690719Y-125860000D01*
X86728620Y-126050543D01*
X87118904Y-126634644D01*
X87703005Y-127024928D01*
X88392000Y-127161978D01*
X89080995Y-127024928D01*
X89662000Y-126636713D01*
X90243005Y-127024928D01*
X90932000Y-127161978D01*
X91620995Y-127024928D01*
X92205096Y-126634644D01*
X92495300Y-126200323D01*
X92495300Y-134828598D01*
X92070000Y-134744000D01*
X90244700Y-134744000D01*
X89708943Y-134850569D01*
X89254751Y-135154051D01*
X88951269Y-135608243D01*
X88844700Y-136144000D01*
X88844700Y-141224000D01*
X88846762Y-141234368D01*
X88122000Y-141234368D01*
X87788480Y-141297124D01*
X87635959Y-141395269D01*
X81069995Y-134829305D01*
X80942327Y-134744000D01*
X80761690Y-134623302D01*
X80815619Y-134569467D01*
X81143626Y-133779538D01*
X81144372Y-132924215D01*
X80817744Y-132133714D01*
X80213467Y-131528381D01*
X79423538Y-131200374D01*
X78568215Y-131199628D01*
X77777714Y-131526256D01*
X77172381Y-132130533D01*
X76844374Y-132920462D01*
X76843628Y-133775785D01*
X77142785Y-134499800D01*
X70500000Y-134499800D01*
X70500000Y-122674050D01*
X71388562Y-122674050D01*
X71772161Y-123602429D01*
X72481835Y-124313343D01*
X73409543Y-124698561D01*
X74414050Y-124699438D01*
X75342429Y-124315839D01*
X76053343Y-123606165D01*
X76438561Y-122678457D01*
X76439438Y-121673950D01*
X76055839Y-120745571D01*
X75346165Y-120034657D01*
X74418457Y-119649439D01*
X73413950Y-119648562D01*
X72485571Y-120032161D01*
X71774657Y-120741835D01*
X71389439Y-121669543D01*
X71388562Y-122674050D01*
X70500000Y-122674050D01*
X70500000Y-117519785D01*
X76843628Y-117519785D01*
X77170256Y-118310286D01*
X77774533Y-118915619D01*
X78564462Y-119243626D01*
X79419785Y-119244372D01*
X80210286Y-118917744D01*
X80815619Y-118313467D01*
X81143626Y-117523538D01*
X81144372Y-116668215D01*
X80817744Y-115877714D01*
X80213467Y-115272381D01*
X79423538Y-114944374D01*
X78568215Y-114943628D01*
X77777714Y-115270256D01*
X77172381Y-115874533D01*
X76844374Y-116664462D01*
X76843628Y-117519785D01*
X70500000Y-117519785D01*
X70500000Y-117406539D01*
X70640264Y-117196619D01*
X70725900Y-116766100D01*
X70725900Y-116434090D01*
X75965990Y-111194000D01*
X76626000Y-111194000D01*
X76626000Y-112092913D01*
X76778241Y-112460455D01*
X77059546Y-112741759D01*
X77427088Y-112894000D01*
X78426000Y-112894000D01*
X78676000Y-112644000D01*
X78676000Y-110944000D01*
X76876000Y-110944000D01*
X76626000Y-111194000D01*
X75965990Y-111194000D01*
X76745995Y-110413995D01*
X76876000Y-110544000D01*
X78676000Y-110544000D01*
X78676000Y-108844000D01*
X78495995Y-108663995D01*
X81097490Y-106062500D01*
X111069200Y-106062500D01*
X111499719Y-105976864D01*
X111864695Y-105732995D01*
X113251593Y-104346097D01*
X113353000Y-104366632D01*
X115003000Y-104366632D01*
X115336520Y-104303876D01*
X115642838Y-104106766D01*
X115784115Y-103900000D01*
X121643119Y-103900000D01*
X121582368Y-104200000D01*
M02*
