G04 #@! TF.FileFunction,Copper,L1,Top,Signal*
%FSLAX46Y46*%
G04 Gerber Fmt 4.6, Leading zero omitted, Abs format (unit mm)*
G04 Created by KiCad (PCBNEW 4.0.7-e1-6374~58~ubuntu16.04.1) date Mon Sep  4 16:08:18 2017*
%MOMM*%
%LPD*%
G01*
G04 APERTURE LIST*
%ADD10C,0.100000*%
%ADD11C,0.290000*%
%ADD12R,0.290000X0.290000*%
%ADD13R,0.450000X0.450000*%
%ADD14C,1.000000*%
%ADD15R,2.500000X1.800000*%
%ADD16R,2.500000X2.300000*%
%ADD17R,1.600000X1.600000*%
%ADD18C,1.600000*%
%ADD19R,0.650000X0.400000*%
%ADD20R,1.790000X3.430000*%
%ADD21R,0.900000X1.700000*%
%ADD22R,0.900000X1.200000*%
%ADD23R,1.000000X1.250000*%
%ADD24R,1.700000X1.700000*%
%ADD25O,1.800860X3.500120*%
%ADD26C,1.700000*%
%ADD27R,1.524000X1.524000*%
%ADD28C,1.524000*%
%ADD29C,2.500000*%
%ADD30R,1.700000X0.900000*%
%ADD31R,1.060000X0.650000*%
%ADD32R,1.100000X4.600000*%
%ADD33R,10.800000X9.400000*%
%ADD34R,5.250000X4.550000*%
%ADD35R,1.650000X0.650000*%
%ADD36R,0.889000X0.305000*%
%ADD37R,1.000000X1.600000*%
%ADD38R,0.850000X2.500000*%
%ADD39R,2.200000X1.200000*%
%ADD40R,6.400000X5.800000*%
%ADD41R,3.050000X2.750000*%
%ADD42C,1.000000*%
%ADD43C,0.449800*%
%ADD44C,0.450000*%
%ADD45C,0.600000*%
G04 APERTURE END LIST*
D10*
D11*
X164350000Y-111400000D02*
X164800000Y-111400000D01*
X143700000Y-124250000D02*
X143700000Y-123800000D01*
X145250000Y-124400000D02*
X145700000Y-124400000D01*
X143700000Y-127150000D02*
X143700000Y-127600000D01*
X137500000Y-123550000D02*
X137500000Y-123100000D01*
X159916000Y-112776000D02*
X159466000Y-112776000D01*
X153850000Y-91500000D02*
X154300000Y-91500000D01*
D12*
X164250000Y-111400000D03*
D13*
X164950000Y-111400000D03*
D14*
X168148000Y-139000000D03*
D10*
G36*
X167583000Y-137722500D02*
X167523000Y-137497500D01*
X168773000Y-137497500D01*
X168713000Y-137722500D01*
X167583000Y-137722500D01*
X167583000Y-137722500D01*
G37*
G36*
X166845156Y-138496187D02*
X166643631Y-138379514D01*
X167527514Y-137495631D01*
X167644187Y-137697156D01*
X166845156Y-138496187D01*
X166845156Y-138496187D01*
G37*
G36*
X166870500Y-139565000D02*
X166645500Y-139625000D01*
X166645500Y-138375000D01*
X166870500Y-138435000D01*
X166870500Y-139565000D01*
X166870500Y-139565000D01*
G37*
G36*
X167644187Y-140302844D02*
X167527514Y-140504369D01*
X166643631Y-139620486D01*
X166845156Y-139503813D01*
X167644187Y-140302844D01*
X167644187Y-140302844D01*
G37*
G36*
X168713000Y-140277500D02*
X168773000Y-140502500D01*
X167523000Y-140502500D01*
X167583000Y-140277500D01*
X168713000Y-140277500D01*
X168713000Y-140277500D01*
G37*
G36*
X169450844Y-139503813D02*
X169652369Y-139620486D01*
X168768486Y-140504369D01*
X168651813Y-140302844D01*
X169450844Y-139503813D01*
X169450844Y-139503813D01*
G37*
G36*
X169425500Y-138435000D02*
X169650500Y-138375000D01*
X169650500Y-139625000D01*
X169425500Y-139565000D01*
X169425500Y-138435000D01*
X169425500Y-138435000D01*
G37*
G36*
X168651813Y-137697156D02*
X168768486Y-137495631D01*
X169652369Y-138379514D01*
X169450844Y-138496187D01*
X168651813Y-137697156D01*
X168651813Y-137697156D01*
G37*
D14*
X68000000Y-94000000D03*
D10*
G36*
X67435000Y-92722500D02*
X67375000Y-92497500D01*
X68625000Y-92497500D01*
X68565000Y-92722500D01*
X67435000Y-92722500D01*
X67435000Y-92722500D01*
G37*
G36*
X66697156Y-93496187D02*
X66495631Y-93379514D01*
X67379514Y-92495631D01*
X67496187Y-92697156D01*
X66697156Y-93496187D01*
X66697156Y-93496187D01*
G37*
G36*
X66722500Y-94565000D02*
X66497500Y-94625000D01*
X66497500Y-93375000D01*
X66722500Y-93435000D01*
X66722500Y-94565000D01*
X66722500Y-94565000D01*
G37*
G36*
X67496187Y-95302844D02*
X67379514Y-95504369D01*
X66495631Y-94620486D01*
X66697156Y-94503813D01*
X67496187Y-95302844D01*
X67496187Y-95302844D01*
G37*
G36*
X68565000Y-95277500D02*
X68625000Y-95502500D01*
X67375000Y-95502500D01*
X67435000Y-95277500D01*
X68565000Y-95277500D01*
X68565000Y-95277500D01*
G37*
G36*
X69302844Y-94503813D02*
X69504369Y-94620486D01*
X68620486Y-95504369D01*
X68503813Y-95302844D01*
X69302844Y-94503813D01*
X69302844Y-94503813D01*
G37*
G36*
X69277500Y-93435000D02*
X69502500Y-93375000D01*
X69502500Y-94625000D01*
X69277500Y-94565000D01*
X69277500Y-93435000D01*
X69277500Y-93435000D01*
G37*
G36*
X68503813Y-92697156D02*
X68620486Y-92495631D01*
X69504369Y-93379514D01*
X69302844Y-93496187D01*
X68503813Y-92697156D01*
X68503813Y-92697156D01*
G37*
D15*
X99000000Y-124000000D03*
X103000000Y-124000000D03*
D16*
X87766000Y-110744000D03*
X92066000Y-110744000D03*
X78876000Y-110744000D03*
X83176000Y-110744000D03*
D17*
X143764000Y-96774000D03*
D18*
X140264000Y-96774000D03*
D19*
X161102000Y-111491000D03*
X161102000Y-112791000D03*
X161102000Y-112141000D03*
X163002000Y-112791000D03*
X163002000Y-111491000D03*
D20*
X116250000Y-129100000D03*
X118750000Y-129100000D03*
X121250000Y-129100000D03*
X123750000Y-129100000D03*
X126250000Y-129100000D03*
X128750000Y-129100000D03*
X128750000Y-108790000D03*
X126250000Y-108790000D03*
X123750000Y-108790000D03*
X121250000Y-108790000D03*
X118750000Y-108790000D03*
X116250000Y-108790000D03*
D18*
X106500000Y-141250000D03*
X111500000Y-141250000D03*
D21*
X145450000Y-127400000D03*
X148350000Y-127400000D03*
D22*
X117755000Y-89382600D03*
X121055000Y-89382600D03*
D23*
X158400000Y-91500000D03*
X156400000Y-91500000D03*
D21*
X121084000Y-93218000D03*
X118184000Y-93218000D03*
D24*
X122682000Y-143510000D03*
X152654000Y-143510000D03*
X139446000Y-143510000D03*
D21*
X152453000Y-100965000D03*
X149553000Y-100965000D03*
D18*
X106514000Y-135128000D03*
X111514000Y-135128000D03*
D25*
X90932000Y-124460000D03*
X88392000Y-124460000D03*
D26*
X85100000Y-86360000D03*
X85090000Y-101566000D03*
X82560000Y-86360000D03*
X80020000Y-86360000D03*
D24*
X77480000Y-86370000D03*
D26*
X82560000Y-101566000D03*
X80020000Y-101566000D03*
D24*
X77480000Y-101566000D03*
D26*
X97790000Y-87480000D03*
X97790000Y-90020000D03*
X97790000Y-92560000D03*
X97790000Y-95100000D03*
X97790000Y-97640000D03*
D24*
X97790000Y-100180000D03*
D27*
X124968000Y-92964000D03*
D28*
X127508000Y-92964000D03*
X130048000Y-92964000D03*
X132588000Y-92964000D03*
D23*
X86376000Y-116078000D03*
X88376000Y-116078000D03*
D29*
X61214000Y-127000000D03*
X78994000Y-127000000D03*
X78994000Y-117094000D03*
X61214000Y-143256000D03*
X78994000Y-143256000D03*
X78994000Y-133350000D03*
D18*
X65800000Y-110000000D03*
X63500000Y-112500000D03*
X65500000Y-105900000D03*
D30*
X170942000Y-94054000D03*
X170942000Y-96954000D03*
D21*
X85672000Y-143002000D03*
X88572000Y-143002000D03*
X116240000Y-137414000D03*
X119140000Y-137414000D03*
X101018000Y-130302000D03*
X98118000Y-130302000D03*
X149680000Y-95758000D03*
X152580000Y-95758000D03*
D29*
X161036000Y-131064000D03*
X157226000Y-131064000D03*
X153416000Y-131064000D03*
D27*
X124841000Y-101219000D03*
D28*
X127381000Y-101219000D03*
X129921000Y-101219000D03*
X132461000Y-101219000D03*
D21*
X90752000Y-116078000D03*
X93652000Y-116078000D03*
X141550000Y-121500000D03*
X144450000Y-121500000D03*
X132550000Y-127400000D03*
X135450000Y-127400000D03*
X132550000Y-124400000D03*
X135450000Y-124400000D03*
X137650000Y-132000000D03*
X140550000Y-132000000D03*
D30*
X165354000Y-96954000D03*
X165354000Y-94054000D03*
X168148000Y-94054000D03*
X168148000Y-96954000D03*
D31*
X152230000Y-92390000D03*
X152230000Y-91440000D03*
X152230000Y-90490000D03*
X150030000Y-90490000D03*
X150030000Y-92390000D03*
X150030000Y-91440000D03*
D28*
X164084000Y-106934000D03*
X169164000Y-106934000D03*
X164084000Y-104394000D03*
X164084000Y-101854000D03*
X169164000Y-101854000D03*
X170434000Y-90932000D03*
X167894000Y-90932000D03*
X165354000Y-90932000D03*
X165354000Y-88392000D03*
X167894000Y-88392000D03*
X170434000Y-88392000D03*
D32*
X136360000Y-117175000D03*
X138900000Y-117175000D03*
X141440000Y-117175000D03*
D33*
X138900000Y-108025000D03*
D34*
X141675000Y-105600000D03*
X136125000Y-110450000D03*
X136125000Y-105600000D03*
X141675000Y-110450000D03*
D18*
X106514000Y-129032000D03*
X111514000Y-129032000D03*
D23*
X137700000Y-129500000D03*
X139700000Y-129500000D03*
D35*
X100970000Y-141224000D03*
X100970000Y-138684000D03*
X100970000Y-136144000D03*
X92070000Y-136144000D03*
X92070000Y-138684000D03*
X92070000Y-141224000D03*
X114178000Y-103124000D03*
X114178000Y-100584000D03*
X114178000Y-98044000D03*
X105278000Y-98044000D03*
X105278000Y-100584000D03*
X105278000Y-103124000D03*
X114178000Y-91948000D03*
X114178000Y-89408000D03*
X114178000Y-86868000D03*
X105278000Y-86868000D03*
X105278000Y-89408000D03*
X105278000Y-91948000D03*
D24*
X146050000Y-143510000D03*
X138800000Y-121700000D03*
X129286000Y-143510000D03*
D12*
X143700000Y-124350000D03*
D13*
X143700000Y-123650000D03*
D12*
X145150000Y-124400000D03*
D13*
X145850000Y-124400000D03*
D12*
X143700000Y-127050000D03*
D13*
X143700000Y-127750000D03*
D12*
X137500000Y-123650000D03*
D13*
X137500000Y-122950000D03*
D12*
X160016000Y-112776000D03*
D13*
X159316000Y-112776000D03*
D14*
X68000000Y-139000000D03*
D10*
G36*
X67435000Y-137722500D02*
X67375000Y-137497500D01*
X68625000Y-137497500D01*
X68565000Y-137722500D01*
X67435000Y-137722500D01*
X67435000Y-137722500D01*
G37*
G36*
X66697156Y-138496187D02*
X66495631Y-138379514D01*
X67379514Y-137495631D01*
X67496187Y-137697156D01*
X66697156Y-138496187D01*
X66697156Y-138496187D01*
G37*
G36*
X66722500Y-139565000D02*
X66497500Y-139625000D01*
X66497500Y-138375000D01*
X66722500Y-138435000D01*
X66722500Y-139565000D01*
X66722500Y-139565000D01*
G37*
G36*
X67496187Y-140302844D02*
X67379514Y-140504369D01*
X66495631Y-139620486D01*
X66697156Y-139503813D01*
X67496187Y-140302844D01*
X67496187Y-140302844D01*
G37*
G36*
X68565000Y-140277500D02*
X68625000Y-140502500D01*
X67375000Y-140502500D01*
X67435000Y-140277500D01*
X68565000Y-140277500D01*
X68565000Y-140277500D01*
G37*
G36*
X69302844Y-139503813D02*
X69504369Y-139620486D01*
X68620486Y-140504369D01*
X68503813Y-140302844D01*
X69302844Y-139503813D01*
X69302844Y-139503813D01*
G37*
G36*
X69277500Y-138435000D02*
X69502500Y-138375000D01*
X69502500Y-139625000D01*
X69277500Y-139565000D01*
X69277500Y-138435000D01*
X69277500Y-138435000D01*
G37*
G36*
X68503813Y-137697156D02*
X68620486Y-137495631D01*
X69504369Y-138379514D01*
X69302844Y-138496187D01*
X68503813Y-137697156D01*
X68503813Y-137697156D01*
G37*
D36*
X142190000Y-126900000D03*
X142190000Y-126400000D03*
X142190000Y-125900000D03*
X142190000Y-125400000D03*
X142190000Y-124900000D03*
X138110000Y-124900000D03*
X138110000Y-125400000D03*
X138110000Y-125900000D03*
X138110000Y-126400000D03*
X138110000Y-126900000D03*
D37*
X123000000Y-105000000D03*
X126000000Y-105000000D03*
D23*
X145700000Y-129600000D03*
X143700000Y-129600000D03*
X148300000Y-123800000D03*
X150300000Y-123800000D03*
D16*
X106650000Y-124206000D03*
X110950000Y-124206000D03*
D12*
X153750000Y-91500000D03*
D13*
X154450000Y-91500000D03*
D23*
X158400000Y-95800000D03*
X156400000Y-95800000D03*
D38*
X156175000Y-101100000D03*
X158625000Y-101100000D03*
D39*
X100200000Y-112720000D03*
X100200000Y-115000000D03*
X100200000Y-117280000D03*
D40*
X106500000Y-115000000D03*
D41*
X108175000Y-116525000D03*
X104825000Y-113475000D03*
X108175000Y-113475000D03*
X104825000Y-116525000D03*
D21*
X102150000Y-109200000D03*
X99250000Y-109200000D03*
D14*
X148322700Y-100965000D03*
X162932200Y-108967300D03*
X96654000Y-130086700D03*
X166325100Y-95214300D03*
X92815700Y-118279000D03*
X86775500Y-117716900D03*
X112453700Y-121226300D03*
X109310400Y-103124000D03*
X96786900Y-118905600D03*
X146624600Y-94773400D03*
X153548700Y-92630400D03*
X147250600Y-125900000D03*
X152961000Y-121823900D03*
X142372400Y-129600000D03*
X134000000Y-127135700D03*
D42*
X125341600Y-102761300D02*
X124841000Y-102761300D01*
X126000000Y-103419700D02*
X125341600Y-102761300D01*
X126000000Y-105000000D02*
X126000000Y-103419700D01*
X124841000Y-101219000D02*
X124841000Y-102761300D01*
X139446000Y-143510000D02*
X137815700Y-143510000D01*
X170434000Y-88392000D02*
X167894000Y-88392000D01*
X100970000Y-138684000D02*
X102575300Y-138684000D01*
X140550000Y-132000000D02*
X140550000Y-133630300D01*
D43*
X143700000Y-123424500D02*
X143700000Y-123650000D01*
D42*
X143994200Y-123130300D02*
X143700000Y-123424500D01*
X144450000Y-123130300D02*
X143994200Y-123130300D01*
X134937800Y-140632100D02*
X134937800Y-139334100D01*
X137815700Y-143510000D02*
X134937800Y-140632100D01*
X103225400Y-139334100D02*
X134937800Y-139334100D01*
X102575300Y-138684000D02*
X103225400Y-139334100D01*
X139700000Y-129500000D02*
X139700000Y-130202600D01*
D43*
X143369600Y-123319600D02*
X143700000Y-123650000D01*
D42*
X139700000Y-130202600D02*
X139984300Y-129918300D01*
X140751000Y-123319600D02*
X143369600Y-123319600D01*
X139984300Y-124086300D02*
X140751000Y-123319600D01*
X139984300Y-129918300D02*
X139984300Y-124086300D01*
X140435700Y-130369700D02*
X140550000Y-130369700D01*
X139984300Y-129918300D02*
X140435700Y-130369700D01*
X152580000Y-95758000D02*
X153810300Y-95758000D01*
X140550000Y-133721900D02*
X140550000Y-133630300D01*
X134937800Y-139334100D02*
X140550000Y-133721900D01*
X156400000Y-95800000D02*
X155119700Y-95800000D01*
X167894000Y-88392000D02*
X165354000Y-88392000D01*
X144450000Y-121500000D02*
X144450000Y-122315100D01*
X144450000Y-122315100D02*
X144450000Y-123130300D01*
X150300000Y-123800000D02*
X150300000Y-122394700D01*
X144450000Y-122315100D02*
X150220400Y-122315100D01*
X150220400Y-122315100D02*
X150300000Y-122394700D01*
X158969100Y-113566400D02*
X158969100Y-113122900D01*
X150220400Y-122315100D02*
X158969100Y-113566400D01*
D43*
X158969100Y-113122900D02*
X159316000Y-112776000D01*
D42*
X149553000Y-103238500D02*
X159090500Y-112776000D01*
X149553000Y-100965000D02*
X149553000Y-103238500D01*
D43*
X159090500Y-112776000D02*
X159316000Y-112776000D01*
X154675500Y-91500000D02*
X154450000Y-91500000D01*
D42*
X156400000Y-91500000D02*
X154675500Y-91500000D01*
X155077700Y-95758000D02*
X155119700Y-95800000D01*
X153810300Y-95758000D02*
X155077700Y-95758000D01*
X79117900Y-103203900D02*
X77480000Y-101566000D01*
X91386000Y-103203900D02*
X79117900Y-103203900D01*
X96949900Y-97640000D02*
X91386000Y-103203900D01*
X97790000Y-97640000D02*
X96949900Y-97640000D01*
X156400000Y-95800000D02*
X156400000Y-94394700D01*
X156400000Y-91500000D02*
X156400000Y-90094700D01*
X159680400Y-90094700D02*
X156400000Y-90094700D01*
X163651300Y-90094700D02*
X159680400Y-90094700D01*
X165354000Y-88392000D02*
X163651300Y-90094700D01*
X157781600Y-94394700D02*
X156400000Y-94394700D01*
X159680400Y-92495900D02*
X157781600Y-94394700D01*
X159680400Y-90094700D02*
X159680400Y-92495900D01*
X140550000Y-131622700D02*
X140550000Y-130369700D01*
X140550000Y-131622700D02*
X140550000Y-131885700D01*
X140550000Y-132000000D02*
X140550000Y-131885700D01*
X144819600Y-131885700D02*
X145700000Y-131005300D01*
X140550000Y-131885700D02*
X144819600Y-131885700D01*
X145700000Y-129600000D02*
X145700000Y-131005300D01*
X149553000Y-100965000D02*
X148322700Y-100965000D01*
D11*
X161102000Y-112141000D02*
X160407000Y-112141000D01*
X97082700Y-130086700D02*
X97298000Y-130302000D01*
X96654000Y-130086700D02*
X97082700Y-130086700D01*
X98118000Y-130302000D02*
X97298000Y-130302000D01*
X162490100Y-108967300D02*
X162932200Y-108967300D01*
X160386400Y-111071000D02*
X162490100Y-108967300D01*
X160386400Y-112120400D02*
X160386400Y-111071000D01*
X160407000Y-112141000D02*
X160386400Y-112120400D01*
X165354000Y-94054000D02*
X165354000Y-94874000D01*
X165984800Y-94874000D02*
X166325100Y-95214300D01*
X165354000Y-94874000D02*
X165984800Y-94874000D01*
D44*
X153914800Y-104394000D02*
X164084000Y-104394000D01*
X151304200Y-101783400D02*
X153914800Y-104394000D01*
X151304200Y-100701600D02*
X151304200Y-101783400D01*
X150212300Y-99609700D02*
X151304200Y-100701600D01*
X148914300Y-99609700D02*
X150212300Y-99609700D01*
X144773300Y-95468700D02*
X148914300Y-99609700D01*
X139723400Y-95468700D02*
X144773300Y-95468700D01*
X139218200Y-95973900D02*
X139723400Y-95468700D01*
X124145000Y-95973900D02*
X139218200Y-95973900D01*
X118044200Y-102074700D02*
X124145000Y-95973900D01*
X108064000Y-102074700D02*
X118044200Y-102074700D01*
X106573300Y-100584000D02*
X108064000Y-102074700D01*
X105278000Y-100584000D02*
X106573300Y-100584000D01*
X114178000Y-100584000D02*
X115473300Y-100584000D01*
X116965100Y-100584000D02*
X115473300Y-100584000D01*
X123240800Y-94308300D02*
X116965100Y-100584000D01*
X128703700Y-94308300D02*
X123240800Y-94308300D01*
X130048000Y-92964000D02*
X128703700Y-94308300D01*
D42*
X116854000Y-135128000D02*
X111514000Y-135128000D01*
X119140000Y-137414000D02*
X116854000Y-135128000D01*
X114161300Y-126384700D02*
X116250000Y-126384700D01*
X111514000Y-129032000D02*
X114161300Y-126384700D01*
X116250000Y-129100000D02*
X116250000Y-126384700D01*
X118571700Y-141250000D02*
X120831700Y-143510000D01*
X111500000Y-141250000D02*
X118571700Y-141250000D01*
X122682000Y-143510000D02*
X120831700Y-143510000D01*
X93652000Y-116078000D02*
X93652000Y-117928300D01*
X93166400Y-117928300D02*
X92815700Y-118279000D01*
X93652000Y-117928300D02*
X93166400Y-117928300D01*
X85212600Y-119230900D02*
X78876000Y-112894300D01*
X91863800Y-119230900D02*
X85212600Y-119230900D01*
X92815700Y-118279000D02*
X91863800Y-119230900D01*
X78876000Y-110744000D02*
X78876000Y-112894300D01*
X75319700Y-112894300D02*
X78876000Y-112894300D01*
X61214000Y-127000000D02*
X75319700Y-112894300D01*
X86376000Y-114284300D02*
X86376000Y-116078000D01*
X87766000Y-112894300D02*
X86376000Y-114284300D01*
X87766000Y-110744000D02*
X87766000Y-112894300D01*
X88392000Y-124460000D02*
X86491300Y-124460000D01*
X81534000Y-124460000D02*
X86491300Y-124460000D01*
X78994000Y-127000000D02*
X81534000Y-124460000D01*
X86761900Y-117703300D02*
X86376000Y-117703300D01*
X86775500Y-117716900D02*
X86761900Y-117703300D01*
X86376000Y-116078000D02*
X86376000Y-117703300D01*
D44*
X152230000Y-90490000D02*
X151229700Y-90490000D01*
X82560000Y-99830200D02*
X82560000Y-101566000D01*
X97081800Y-85308400D02*
X82560000Y-99830200D01*
X146445700Y-85308400D02*
X97081800Y-85308400D01*
X151229700Y-90092400D02*
X146445700Y-85308400D01*
X151229700Y-90490000D02*
X151229700Y-90092400D01*
X88376000Y-116078000D02*
X90752000Y-116078000D01*
D42*
X116250000Y-121156300D02*
X113200300Y-124206000D01*
X116250000Y-108790000D02*
X116250000Y-121156300D01*
X110950000Y-124206000D02*
X113200300Y-124206000D01*
X103000000Y-124000000D02*
X103000000Y-122099700D01*
X103873400Y-121226300D02*
X112453700Y-121226300D01*
X103000000Y-122099700D02*
X103873400Y-121226300D01*
X83176000Y-108593700D02*
X92066000Y-108593700D01*
X83176000Y-110744000D02*
X83176000Y-108593700D01*
X92066000Y-110744000D02*
X92066000Y-108593700D01*
D44*
X170942000Y-91440000D02*
X170942000Y-94054000D01*
X170434000Y-90932000D02*
X170942000Y-91440000D01*
X167894000Y-92879700D02*
X168148000Y-93133700D01*
X167894000Y-90932000D02*
X167894000Y-92879700D01*
X168148000Y-94054000D02*
X168148000Y-93133700D01*
X164014500Y-94694200D02*
X165354000Y-96033700D01*
X164014500Y-92271500D02*
X164014500Y-94694200D01*
X165354000Y-90932000D02*
X164014500Y-92271500D01*
X165354000Y-96954000D02*
X165354000Y-96033700D01*
X84497700Y-143256000D02*
X84751700Y-143002000D01*
X78994000Y-143256000D02*
X84497700Y-143256000D01*
X85672000Y-143002000D02*
X84751700Y-143002000D01*
X105278000Y-89408000D02*
X103982700Y-89408000D01*
X168148000Y-96954000D02*
X168148000Y-96033700D01*
X96142300Y-104216900D02*
X76115300Y-104216900D01*
X100583500Y-99775700D02*
X96142300Y-104216900D01*
X100583500Y-92807200D02*
X100583500Y-99775700D01*
X103982700Y-89408000D02*
X100583500Y-92807200D01*
X67183100Y-104216900D02*
X65500000Y-105900000D01*
X76115300Y-104216900D02*
X67183100Y-104216900D01*
X76115300Y-100493400D02*
X76115300Y-104216900D01*
X92007800Y-84600900D02*
X76115300Y-100493400D01*
X168449300Y-84600900D02*
X92007800Y-84600900D01*
X171740700Y-87892300D02*
X168449300Y-84600900D01*
X171740700Y-88962000D02*
X171740700Y-87892300D01*
X171016000Y-89686700D02*
X171740700Y-88962000D01*
X169881900Y-89686700D02*
X171016000Y-89686700D01*
X169201600Y-90367000D02*
X169881900Y-89686700D01*
X169201600Y-91908700D02*
X169201600Y-90367000D01*
X169468400Y-92175500D02*
X169201600Y-91908700D01*
X169468400Y-94713300D02*
X169468400Y-92175500D01*
X168148000Y-96033700D02*
X169468400Y-94713300D01*
D42*
X101869700Y-111050300D02*
X102150000Y-111050300D01*
X100200000Y-112720000D02*
X101869700Y-111050300D01*
X102150000Y-109200000D02*
X102150000Y-111050300D01*
X95154400Y-120237600D02*
X90932000Y-124460000D01*
X95154400Y-110579800D02*
X95154400Y-120237600D01*
X98388700Y-107345500D02*
X95154400Y-110579800D01*
X100295500Y-107345500D02*
X98388700Y-107345500D01*
X102150000Y-109200000D02*
X100295500Y-107345500D01*
D44*
X109310400Y-103124000D02*
X114178000Y-103124000D01*
X88572000Y-131575600D02*
X88572000Y-143002000D01*
X92669900Y-127477700D02*
X88572000Y-131575600D01*
X92669900Y-124522500D02*
X92669900Y-127477700D01*
X96786900Y-120405500D02*
X92669900Y-124522500D01*
X96786900Y-118905600D02*
X96786900Y-120405500D01*
X99639600Y-130760100D02*
X100097700Y-130302000D01*
X99639600Y-141188900D02*
X99639600Y-130760100D01*
X99674700Y-141224000D02*
X99639600Y-141188900D01*
X100970000Y-141224000D02*
X99674700Y-141224000D01*
X101018000Y-130302000D02*
X100097700Y-130302000D01*
X148994600Y-93752300D02*
X149680000Y-94437700D01*
X148994600Y-91475100D02*
X148994600Y-93752300D01*
X149029700Y-91440000D02*
X148994600Y-91475100D01*
X150030000Y-91440000D02*
X149029700Y-91440000D01*
X149680000Y-95758000D02*
X149680000Y-94437700D01*
X114178000Y-89408000D02*
X112882700Y-89408000D01*
X98922700Y-88887300D02*
X97790000Y-90020000D01*
X98922700Y-88612700D02*
X98922700Y-88887300D01*
X112087400Y-88612700D02*
X98922700Y-88612700D01*
X112882700Y-89408000D02*
X112087400Y-88612700D01*
X98922700Y-88612700D02*
X97790000Y-87480000D01*
D42*
X90244700Y-136144000D02*
X90244700Y-141224000D01*
X92070000Y-136144000D02*
X90244700Y-136144000D01*
X92070000Y-141224000D02*
X90244700Y-141224000D01*
X92070000Y-141224000D02*
X93895300Y-141224000D01*
X99000000Y-124000000D02*
X99000000Y-125900300D01*
X106514000Y-129032000D02*
X106514000Y-127023000D01*
X106650000Y-126887000D02*
X106514000Y-127023000D01*
X106650000Y-124206000D02*
X106650000Y-126887000D01*
X100122700Y-127023000D02*
X99000000Y-125900300D01*
X106514000Y-127023000D02*
X100122700Y-127023000D01*
X108800000Y-137414000D02*
X116240000Y-137414000D01*
X106514000Y-135128000D02*
X108800000Y-137414000D01*
X105200700Y-142549300D02*
X106500000Y-141250000D01*
X95220600Y-142549300D02*
X105200700Y-142549300D01*
X93895300Y-141224000D02*
X95220600Y-142549300D01*
X129286000Y-143510000D02*
X127435700Y-143510000D01*
X125585400Y-145360300D02*
X127435700Y-143510000D01*
X110610300Y-145360300D02*
X125585400Y-145360300D01*
X106500000Y-141250000D02*
X110610300Y-145360300D01*
D44*
X115993700Y-91948000D02*
X117263700Y-93218000D01*
X114178000Y-91948000D02*
X115993700Y-91948000D01*
X118184000Y-93218000D02*
X117263700Y-93218000D01*
X152453000Y-100965000D02*
X152453000Y-99644700D01*
X155263700Y-102855400D02*
X153373300Y-100965000D01*
X163082600Y-102855400D02*
X155263700Y-102855400D01*
X164084000Y-101854000D02*
X163082600Y-102855400D01*
X152453000Y-100965000D02*
X153373300Y-100965000D01*
X96430900Y-91200900D02*
X97790000Y-92560000D01*
X96430900Y-86942800D02*
X96430900Y-91200900D01*
X97369900Y-86003800D02*
X96430900Y-86942800D01*
X139227300Y-86003800D02*
X97369900Y-86003800D01*
X147594900Y-94371400D02*
X139227300Y-86003800D01*
X147594900Y-95706900D02*
X147594900Y-94371400D01*
X151532700Y-99644700D02*
X147594900Y-95706900D01*
X152453000Y-99644700D02*
X151532700Y-99644700D01*
X152230000Y-92390000D02*
X153230300Y-92390000D01*
X158400000Y-91500000D02*
X157429700Y-91500000D01*
X121084000Y-93218000D02*
X120163700Y-93218000D01*
X153470700Y-92630400D02*
X153548700Y-92630400D01*
X153230300Y-92390000D02*
X153470700Y-92630400D01*
X157429700Y-92349000D02*
X157429700Y-91500000D01*
X157148300Y-92630400D02*
X157429700Y-92349000D01*
X153548700Y-92630400D02*
X157148300Y-92630400D01*
X139435400Y-94773400D02*
X146624600Y-94773400D01*
X139205200Y-95003600D02*
X139435400Y-94773400D01*
X123528800Y-95003600D02*
X139205200Y-95003600D01*
X117153100Y-101379300D02*
X123528800Y-95003600D01*
X113073000Y-101379300D02*
X117153100Y-101379300D01*
X112847500Y-101153800D02*
X113073000Y-101379300D01*
X112847500Y-97543900D02*
X112847500Y-101153800D01*
X115818400Y-94573000D02*
X112847500Y-97543900D01*
X118808700Y-94573000D02*
X115818400Y-94573000D01*
X120163700Y-93218000D02*
X118808700Y-94573000D01*
D11*
X143835000Y-126400000D02*
X142190000Y-126400000D01*
X144630000Y-127195000D02*
X143835000Y-126400000D01*
X144630000Y-127400000D02*
X144630000Y-127195000D01*
X145450000Y-127400000D02*
X144630000Y-127400000D01*
X137065000Y-126400000D02*
X138110000Y-126400000D01*
X136270000Y-127195000D02*
X137065000Y-126400000D01*
X136270000Y-127400000D02*
X136270000Y-127195000D01*
X135450000Y-127400000D02*
X136270000Y-127400000D01*
X135730000Y-125900000D02*
X135450000Y-125620000D01*
X138110000Y-125900000D02*
X135730000Y-125900000D01*
X135450000Y-124400000D02*
X135450000Y-125620000D01*
X153274100Y-121823900D02*
X162307000Y-112791000D01*
X152961000Y-121823900D02*
X153274100Y-121823900D01*
X163002000Y-112791000D02*
X162307000Y-112791000D01*
X142190000Y-125900000D02*
X147250600Y-125900000D01*
D44*
X138195300Y-122304700D02*
X138195300Y-122950000D01*
X138800000Y-121700000D02*
X138195300Y-122304700D01*
X137500000Y-122950000D02*
X138195300Y-122950000D01*
X141440000Y-117175000D02*
X141440000Y-119945300D01*
X138800000Y-121700000D02*
X140120300Y-121700000D01*
X141550000Y-121500000D02*
X141550000Y-120179700D01*
X141440000Y-119945300D02*
X141440000Y-120179700D01*
X140873600Y-120179700D02*
X141440000Y-120179700D01*
X140120300Y-120933000D02*
X140873600Y-120179700D01*
X140120300Y-121700000D02*
X140120300Y-120933000D01*
X141440000Y-120179700D02*
X141550000Y-120179700D01*
D11*
X143035000Y-126900000D02*
X143185000Y-127050000D01*
X142190000Y-126900000D02*
X143035000Y-126900000D01*
X143700000Y-127050000D02*
X143185000Y-127050000D01*
X143635000Y-125400000D02*
X144635000Y-124400000D01*
X142190000Y-125400000D02*
X143635000Y-125400000D01*
X145150000Y-124400000D02*
X144635000Y-124400000D01*
X137206800Y-124811300D02*
X137295500Y-124900000D01*
X137206800Y-123861800D02*
X137206800Y-124811300D01*
X137418600Y-123650000D02*
X137206800Y-123861800D01*
X137500000Y-123650000D02*
X137418600Y-123650000D01*
X138110000Y-124900000D02*
X137295500Y-124900000D01*
X163697000Y-111438000D02*
X163735000Y-111400000D01*
X163697000Y-111491000D02*
X163697000Y-111438000D01*
X164250000Y-111400000D02*
X163735000Y-111400000D01*
X163002000Y-111491000D02*
X163697000Y-111491000D01*
X143150000Y-124900000D02*
X143700000Y-124350000D01*
X142190000Y-124900000D02*
X143150000Y-124900000D01*
X160546000Y-112791000D02*
X160531000Y-112776000D01*
X161102000Y-112791000D02*
X160546000Y-112791000D01*
X160016000Y-112776000D02*
X160531000Y-112776000D01*
X137290400Y-126900000D02*
X138110000Y-126900000D01*
X137100100Y-127090300D02*
X137290400Y-126900000D01*
X137100100Y-127905100D02*
X137100100Y-127090300D01*
X137700000Y-128505000D02*
X137100100Y-127905100D01*
X137700000Y-129500000D02*
X137700000Y-128505000D01*
X137700000Y-130730000D02*
X137700000Y-129500000D01*
X137650000Y-130780000D02*
X137700000Y-130730000D01*
X137650000Y-132000000D02*
X137650000Y-130780000D01*
X136360000Y-124643800D02*
X136360000Y-117175000D01*
X137116200Y-125400000D02*
X136360000Y-124643800D01*
X138110000Y-125400000D02*
X137116200Y-125400000D01*
D45*
X123000000Y-105000000D02*
X123000000Y-106380300D01*
X120545300Y-91142600D02*
X118785300Y-89382600D01*
X125686600Y-91142600D02*
X120545300Y-91142600D01*
X127508000Y-92964000D02*
X125686600Y-91142600D01*
X117755000Y-89382600D02*
X118785300Y-89382600D01*
X128750000Y-108790000D02*
X128750000Y-107642300D01*
X121250000Y-108790000D02*
X121250000Y-107642300D01*
X123000000Y-106494700D02*
X123000000Y-106380300D01*
X123000000Y-106494700D02*
X123750000Y-106494700D01*
X123750000Y-107642300D02*
X126250000Y-107642300D01*
X123750000Y-108790000D02*
X123750000Y-107642300D01*
X123750000Y-107642300D02*
X123750000Y-106494700D01*
X126250000Y-108790000D02*
X126250000Y-107642300D01*
X126250000Y-107642300D02*
X126250000Y-106494700D01*
D43*
X143700000Y-127775500D02*
X143700000Y-127750000D01*
D45*
X143700000Y-127775500D02*
X143700000Y-129600000D01*
X103872700Y-103124000D02*
X103872700Y-98044000D01*
X105278000Y-103124000D02*
X103872700Y-103124000D01*
X105278000Y-98044000D02*
X103872700Y-98044000D01*
X105278000Y-91948000D02*
X105980700Y-91948000D01*
X105278000Y-98044000D02*
X106683300Y-98044000D01*
X122397600Y-106494700D02*
X123000000Y-106494700D01*
X121250000Y-107642300D02*
X122397600Y-106494700D01*
X105278000Y-103124000D02*
X106683300Y-103124000D01*
X109604400Y-106045100D02*
X106683300Y-103124000D01*
X119652800Y-106045100D02*
X109604400Y-106045100D01*
X121250000Y-107642300D02*
X119652800Y-106045100D01*
X117755000Y-89382600D02*
X116724700Y-89382600D01*
X115694400Y-90412900D02*
X116724700Y-89382600D01*
X108921000Y-90412900D02*
X115694400Y-90412900D01*
X106683300Y-92650600D02*
X108921000Y-90412900D01*
X105980700Y-91948000D02*
X106683300Y-92650600D01*
X106683300Y-92650600D02*
X106683300Y-98044000D01*
X115115400Y-87773300D02*
X116724700Y-89382600D01*
X107588600Y-87773300D02*
X115115400Y-87773300D01*
X106683300Y-86868000D02*
X107588600Y-87773300D01*
X105278000Y-86868000D02*
X106683300Y-86868000D01*
X130445700Y-98154300D02*
X127381000Y-101219000D01*
X141003400Y-98154300D02*
X130445700Y-98154300D01*
X142383700Y-96774000D02*
X141003400Y-98154300D01*
X143764000Y-96774000D02*
X142383700Y-96774000D01*
X127381000Y-106494700D02*
X127381000Y-101219000D01*
X127602400Y-106494700D02*
X127381000Y-106494700D01*
X128750000Y-107642300D02*
X127602400Y-106494700D01*
X127381000Y-106494700D02*
X126250000Y-106494700D01*
X146050000Y-143510000D02*
X146050000Y-142079700D01*
X148350000Y-139779700D02*
X148350000Y-127400000D01*
X146050000Y-142079700D02*
X148350000Y-139779700D01*
D43*
X164950000Y-112125500D02*
X164950000Y-111400000D01*
D45*
X148350000Y-127400000D02*
X148350000Y-125969700D01*
X148907100Y-125412600D02*
X148907100Y-125057700D01*
X148350000Y-125969700D02*
X148907100Y-125412600D01*
X164950000Y-112231800D02*
X164950000Y-112125500D01*
X152124100Y-125057700D02*
X164950000Y-112231800D01*
X148907100Y-125057700D02*
X152124100Y-125057700D01*
X148854700Y-125005300D02*
X148300000Y-125005300D01*
X148907100Y-125057700D02*
X148854700Y-125005300D01*
X148300000Y-123800000D02*
X148300000Y-123872700D01*
X148300000Y-123872700D02*
X148300000Y-125005300D01*
X146377300Y-123872700D02*
X146055500Y-124194500D01*
X148300000Y-123872700D02*
X146377300Y-123872700D01*
D43*
X146055500Y-124194500D02*
X145850000Y-124400000D01*
D45*
X143700000Y-129600000D02*
X142619700Y-129600000D01*
X142619700Y-129600000D02*
X142372400Y-129600000D01*
X158625000Y-101100000D02*
X159630300Y-101100000D01*
X170942000Y-96954000D02*
X170942000Y-97984300D01*
D43*
X165155500Y-111194500D02*
X164950000Y-111400000D01*
D45*
X160226700Y-100503600D02*
X165430800Y-100503600D01*
X159630300Y-101100000D02*
X160226700Y-100503600D01*
X167950100Y-97984300D02*
X165430800Y-100503600D01*
X170942000Y-97984300D02*
X167950100Y-97984300D01*
X165430800Y-110919200D02*
X165155500Y-111194500D01*
X165430800Y-100503600D02*
X165430800Y-110919200D01*
X123750000Y-129100000D02*
X123750000Y-127952300D01*
X122602400Y-126804700D02*
X121250000Y-126804700D01*
X123750000Y-127952300D02*
X122602400Y-126804700D01*
X121250000Y-129100000D02*
X121250000Y-126804700D01*
X126250000Y-127952300D02*
X123750000Y-127952300D01*
X126250000Y-129100000D02*
X126250000Y-127952300D01*
X136125000Y-110450000D02*
X136125000Y-111877600D01*
X136125000Y-111877600D02*
X136125000Y-113305300D01*
X138542100Y-114294700D02*
X138900000Y-114294700D01*
X136125000Y-111877600D02*
X138542100Y-114294700D01*
X138900000Y-117175000D02*
X138900000Y-114294700D01*
X141675000Y-105600000D02*
X141675000Y-108455300D01*
X133844600Y-127135700D02*
X133580300Y-127400000D01*
X134000000Y-127135700D02*
X133844600Y-127135700D01*
X132550000Y-127400000D02*
X133580300Y-127400000D01*
X128750000Y-127952300D02*
X126250000Y-127952300D01*
X128750000Y-129100000D02*
X128750000Y-127952300D01*
X132550000Y-116880300D02*
X132550000Y-124400000D01*
X136125000Y-113305300D02*
X132550000Y-116880300D01*
X132550000Y-124400000D02*
X132550000Y-127400000D01*
X129302300Y-127400000D02*
X128750000Y-127952300D01*
X132550000Y-127400000D02*
X129302300Y-127400000D01*
X140746300Y-109521300D02*
X140746300Y-109384000D01*
X141675000Y-110450000D02*
X140746300Y-109521300D01*
X140746300Y-109384000D02*
X141675000Y-108455300D01*
X136125000Y-105600000D02*
X136125000Y-108455300D01*
X139828700Y-109384000D02*
X138900000Y-108455300D01*
X140746300Y-109384000D02*
X139828700Y-109384000D01*
X138900000Y-108455300D02*
X138900000Y-108025000D01*
X138900000Y-108455300D02*
X136125000Y-108455300D01*
X136125000Y-108455300D02*
X136125000Y-110450000D01*
D11*
X153175000Y-91440000D02*
X153235000Y-91500000D01*
X152230000Y-91440000D02*
X153175000Y-91440000D01*
X153750000Y-91500000D02*
X153235000Y-91500000D01*
D45*
X158400000Y-95800000D02*
X158400000Y-97005300D01*
X153903600Y-99230300D02*
X156175000Y-99230300D01*
X151416300Y-96743000D02*
X153903600Y-99230300D01*
X151416300Y-93776300D02*
X151416300Y-96743000D01*
X150030000Y-92390000D02*
X151416300Y-93776300D01*
X156175000Y-101100000D02*
X156175000Y-99230300D01*
X156175000Y-99230300D02*
X158400000Y-97005300D01*
D44*
X82560000Y-86360000D02*
X85100000Y-86360000D01*
D42*
X93895300Y-125532400D02*
X93895300Y-138684000D01*
X100527400Y-118900300D02*
X93895300Y-125532400D01*
X104825000Y-118900300D02*
X100527400Y-118900300D01*
X104825000Y-116525000D02*
X104825000Y-118900300D01*
X92070000Y-138684000D02*
X93895300Y-138684000D01*
X104825000Y-113475000D02*
X105649700Y-113475000D01*
X108175000Y-116525000D02*
X106912400Y-116525000D01*
X106912400Y-116525000D02*
X105649700Y-116525000D01*
X106500000Y-116112600D02*
X106500000Y-115000000D01*
X106912400Y-116525000D02*
X106500000Y-116112600D01*
X108175000Y-113475000D02*
X106912400Y-113475000D01*
X106912400Y-113475000D02*
X105649700Y-113475000D01*
X106500000Y-113887400D02*
X106500000Y-115000000D01*
X106912400Y-113475000D02*
X106500000Y-113887400D01*
X100200000Y-115000000D02*
X102300300Y-115000000D01*
X104825000Y-116525000D02*
X105649700Y-116525000D01*
X102300300Y-115000100D02*
X102300300Y-115000000D01*
X103300100Y-115000100D02*
X102300300Y-115000100D01*
X104825000Y-116525000D02*
X103300100Y-115000100D01*
X98746700Y-111050300D02*
X99250000Y-111050300D01*
X98099700Y-111697300D02*
X98746700Y-111050300D01*
X98099700Y-117280000D02*
X98099700Y-111697300D01*
X100200000Y-117280000D02*
X98099700Y-117280000D01*
X99250000Y-109200000D02*
X99250000Y-111050300D01*
D45*
G36*
X172700000Y-127014828D02*
X172210924Y-127503051D01*
X171936313Y-128164387D01*
X171935688Y-128880471D01*
X172209145Y-129542286D01*
X172700000Y-130033999D01*
X172700000Y-132094828D01*
X172210924Y-132583051D01*
X172162362Y-132700000D01*
X162440358Y-132700000D01*
X162857619Y-132283467D01*
X163185626Y-131493538D01*
X163186372Y-130638215D01*
X162859744Y-129847714D01*
X162255467Y-129242381D01*
X161465538Y-128914374D01*
X160610215Y-128913628D01*
X159819714Y-129240256D01*
X159214381Y-129844533D01*
X159131200Y-130044854D01*
X159049744Y-129847714D01*
X158445467Y-129242381D01*
X157655538Y-128914374D01*
X156800215Y-128913628D01*
X156009714Y-129240256D01*
X155404381Y-129844533D01*
X155321200Y-130044854D01*
X155239744Y-129847714D01*
X154635467Y-129242381D01*
X153845538Y-128914374D01*
X152990215Y-128913628D01*
X152199714Y-129240256D01*
X151594381Y-129844533D01*
X151266374Y-130634462D01*
X151265628Y-131489785D01*
X151592256Y-132280286D01*
X152196533Y-132885619D01*
X152986462Y-133213626D01*
X153841785Y-133214372D01*
X154632286Y-132887744D01*
X155237619Y-132283467D01*
X155320800Y-132083146D01*
X155402256Y-132280286D01*
X156006533Y-132885619D01*
X156796462Y-133213626D01*
X157200000Y-133213978D01*
X157200000Y-146200000D01*
X135300000Y-146200000D01*
X135300000Y-143960000D01*
X137596000Y-143960000D01*
X137596000Y-144558913D01*
X137748241Y-144926455D01*
X138029546Y-145207759D01*
X138397088Y-145360000D01*
X138996000Y-145360000D01*
X139246000Y-145110000D01*
X139246000Y-143710000D01*
X139646000Y-143710000D01*
X139646000Y-145110000D01*
X139896000Y-145360000D01*
X140494912Y-145360000D01*
X140862454Y-145207759D01*
X141143759Y-144926455D01*
X141296000Y-144558913D01*
X141296000Y-143960000D01*
X141046000Y-143710000D01*
X139646000Y-143710000D01*
X139246000Y-143710000D01*
X137846000Y-143710000D01*
X137596000Y-143960000D01*
X135300000Y-143960000D01*
X135300000Y-142461087D01*
X137596000Y-142461087D01*
X137596000Y-143060000D01*
X137846000Y-143310000D01*
X139246000Y-143310000D01*
X139246000Y-141910000D01*
X139646000Y-141910000D01*
X139646000Y-143310000D01*
X141046000Y-143310000D01*
X141296000Y-143060000D01*
X141296000Y-142461087D01*
X141143759Y-142093545D01*
X140862454Y-141812241D01*
X140494912Y-141660000D01*
X139896000Y-141660000D01*
X139646000Y-141910000D01*
X139246000Y-141910000D01*
X138996000Y-141660000D01*
X138397088Y-141660000D01*
X138029546Y-141812241D01*
X137748241Y-142093545D01*
X137596000Y-142461087D01*
X135300000Y-142461087D01*
X135300000Y-133500000D01*
X135276364Y-133383283D01*
X135209181Y-133284958D01*
X135109037Y-133220517D01*
X135000000Y-133200000D01*
X122800000Y-133200000D01*
X122800000Y-131721494D01*
X122855000Y-131732632D01*
X124645000Y-131732632D01*
X124978520Y-131669876D01*
X124995737Y-131658797D01*
X124997990Y-131660336D01*
X125355000Y-131732632D01*
X127145000Y-131732632D01*
X127478520Y-131669876D01*
X127495737Y-131658797D01*
X127497990Y-131660336D01*
X127855000Y-131732632D01*
X129645000Y-131732632D01*
X129978520Y-131669876D01*
X130284838Y-131472766D01*
X130490336Y-131172010D01*
X130562632Y-130815000D01*
X130562632Y-128600000D01*
X131255729Y-128600000D01*
X131442234Y-128889838D01*
X131742990Y-129095336D01*
X132100000Y-129167632D01*
X133000000Y-129167632D01*
X133333520Y-129104876D01*
X133639838Y-128907766D01*
X133845336Y-128607010D01*
X133857939Y-128544774D01*
X133903972Y-128535617D01*
X134136149Y-128535820D01*
X134145124Y-128583520D01*
X134342234Y-128889838D01*
X134642990Y-129095336D01*
X135000000Y-129167632D01*
X135900000Y-129167632D01*
X136233520Y-129104876D01*
X136282368Y-129073443D01*
X136282368Y-130125000D01*
X136345124Y-130458520D01*
X136460591Y-130637961D01*
X136354664Y-130792990D01*
X136282368Y-131150000D01*
X136282368Y-132850000D01*
X136345124Y-133183520D01*
X136542234Y-133489838D01*
X136842990Y-133695336D01*
X137200000Y-133767632D01*
X138100000Y-133767632D01*
X138433520Y-133704876D01*
X138739838Y-133507766D01*
X138945336Y-133207010D01*
X139017632Y-132850000D01*
X139017632Y-132450000D01*
X139100000Y-132450000D01*
X139100000Y-133048913D01*
X139252241Y-133416455D01*
X139533546Y-133697759D01*
X139901088Y-133850000D01*
X140100000Y-133850000D01*
X140350000Y-133600000D01*
X140350000Y-132200000D01*
X140750000Y-132200000D01*
X140750000Y-133600000D01*
X141000000Y-133850000D01*
X141198912Y-133850000D01*
X141566454Y-133697759D01*
X141847759Y-133416455D01*
X142000000Y-133048913D01*
X142000000Y-132450000D01*
X141750000Y-132200000D01*
X140750000Y-132200000D01*
X140350000Y-132200000D01*
X139350000Y-132200000D01*
X139100000Y-132450000D01*
X139017632Y-132450000D01*
X139017632Y-131150000D01*
X139012928Y-131125000D01*
X139100000Y-131125000D01*
X139100000Y-131550000D01*
X139350000Y-131800000D01*
X140350000Y-131800000D01*
X140350000Y-131780000D01*
X140750000Y-131780000D01*
X140750000Y-131800000D01*
X141750000Y-131800000D01*
X142000000Y-131550000D01*
X142000000Y-130961264D01*
X142092701Y-130999757D01*
X142649656Y-131000243D01*
X142706207Y-130976876D01*
X142842990Y-131070336D01*
X143200000Y-131142632D01*
X144200000Y-131142632D01*
X144533520Y-131079876D01*
X144598713Y-131037926D01*
X144633546Y-131072759D01*
X145001088Y-131225000D01*
X145250000Y-131225000D01*
X145500000Y-130975000D01*
X145500000Y-129800000D01*
X145480000Y-129800000D01*
X145480000Y-129400000D01*
X145500000Y-129400000D01*
X145500000Y-129380000D01*
X145900000Y-129380000D01*
X145900000Y-129400000D01*
X145920000Y-129400000D01*
X145920000Y-129800000D01*
X145900000Y-129800000D01*
X145900000Y-130975000D01*
X146150000Y-131225000D01*
X146398912Y-131225000D01*
X146766454Y-131072759D01*
X147047759Y-130791455D01*
X147150000Y-130544624D01*
X147150000Y-139282644D01*
X145201472Y-141231172D01*
X144941345Y-141620480D01*
X144906100Y-141797669D01*
X144866480Y-141805124D01*
X144560162Y-142002234D01*
X144354664Y-142302990D01*
X144282368Y-142660000D01*
X144282368Y-144360000D01*
X144345124Y-144693520D01*
X144542234Y-144999838D01*
X144842990Y-145205336D01*
X145200000Y-145277632D01*
X146900000Y-145277632D01*
X147233520Y-145214876D01*
X147539838Y-145017766D01*
X147745336Y-144717010D01*
X147817632Y-144360000D01*
X147817632Y-142660000D01*
X150886368Y-142660000D01*
X150886368Y-144360000D01*
X150949124Y-144693520D01*
X151146234Y-144999838D01*
X151446990Y-145205336D01*
X151804000Y-145277632D01*
X153504000Y-145277632D01*
X153837520Y-145214876D01*
X154143838Y-145017766D01*
X154349336Y-144717010D01*
X154421632Y-144360000D01*
X154421632Y-142660000D01*
X154358876Y-142326480D01*
X154161766Y-142020162D01*
X153861010Y-141814664D01*
X153504000Y-141742368D01*
X151804000Y-141742368D01*
X151470480Y-141805124D01*
X151164162Y-142002234D01*
X150958664Y-142302990D01*
X150886368Y-142660000D01*
X147817632Y-142660000D01*
X147754876Y-142326480D01*
X147655191Y-142171565D01*
X149198528Y-140628228D01*
X149458655Y-140238920D01*
X149550000Y-139779700D01*
X149550000Y-128746539D01*
X149645336Y-128607010D01*
X149717632Y-128250000D01*
X149717632Y-126550000D01*
X149677902Y-126338854D01*
X149755628Y-126261128D01*
X149757919Y-126257700D01*
X152124100Y-126257700D01*
X152583320Y-126166355D01*
X152972628Y-125906228D01*
X165798528Y-113080328D01*
X166058655Y-112691020D01*
X166150000Y-112231800D01*
X166150000Y-112125500D01*
X166112099Y-111934957D01*
X166279328Y-111767728D01*
X166539455Y-111378420D01*
X166630800Y-110919200D01*
X166630800Y-107263142D01*
X167501712Y-107263142D01*
X167754203Y-107874218D01*
X168221323Y-108342154D01*
X168831957Y-108595711D01*
X169493142Y-108596288D01*
X170104218Y-108343797D01*
X170572154Y-107876677D01*
X170825711Y-107266043D01*
X170826288Y-106604858D01*
X170573797Y-105993782D01*
X170106677Y-105525846D01*
X169496043Y-105272289D01*
X168834858Y-105271712D01*
X168223782Y-105524203D01*
X167755846Y-105991323D01*
X167502289Y-106601957D01*
X167501712Y-107263142D01*
X166630800Y-107263142D01*
X166630800Y-102183142D01*
X167501712Y-102183142D01*
X167754203Y-102794218D01*
X168221323Y-103262154D01*
X168831957Y-103515711D01*
X169493142Y-103516288D01*
X170104218Y-103263797D01*
X170572154Y-102796677D01*
X170825711Y-102186043D01*
X170826288Y-101524858D01*
X170573797Y-100913782D01*
X170106677Y-100445846D01*
X169496043Y-100192289D01*
X168834858Y-100191712D01*
X168223782Y-100444203D01*
X167755846Y-100911323D01*
X167502289Y-101521957D01*
X167501712Y-102183142D01*
X166630800Y-102183142D01*
X166630800Y-101000656D01*
X168447156Y-99184300D01*
X170942000Y-99184300D01*
X171401220Y-99092955D01*
X171790528Y-98832828D01*
X172050655Y-98443520D01*
X172085900Y-98266331D01*
X172125520Y-98258876D01*
X172431838Y-98061766D01*
X172637336Y-97761010D01*
X172700000Y-97451564D01*
X172700000Y-127014828D01*
X172700000Y-127014828D01*
G37*
X172700000Y-127014828D02*
X172210924Y-127503051D01*
X171936313Y-128164387D01*
X171935688Y-128880471D01*
X172209145Y-129542286D01*
X172700000Y-130033999D01*
X172700000Y-132094828D01*
X172210924Y-132583051D01*
X172162362Y-132700000D01*
X162440358Y-132700000D01*
X162857619Y-132283467D01*
X163185626Y-131493538D01*
X163186372Y-130638215D01*
X162859744Y-129847714D01*
X162255467Y-129242381D01*
X161465538Y-128914374D01*
X160610215Y-128913628D01*
X159819714Y-129240256D01*
X159214381Y-129844533D01*
X159131200Y-130044854D01*
X159049744Y-129847714D01*
X158445467Y-129242381D01*
X157655538Y-128914374D01*
X156800215Y-128913628D01*
X156009714Y-129240256D01*
X155404381Y-129844533D01*
X155321200Y-130044854D01*
X155239744Y-129847714D01*
X154635467Y-129242381D01*
X153845538Y-128914374D01*
X152990215Y-128913628D01*
X152199714Y-129240256D01*
X151594381Y-129844533D01*
X151266374Y-130634462D01*
X151265628Y-131489785D01*
X151592256Y-132280286D01*
X152196533Y-132885619D01*
X152986462Y-133213626D01*
X153841785Y-133214372D01*
X154632286Y-132887744D01*
X155237619Y-132283467D01*
X155320800Y-132083146D01*
X155402256Y-132280286D01*
X156006533Y-132885619D01*
X156796462Y-133213626D01*
X157200000Y-133213978D01*
X157200000Y-146200000D01*
X135300000Y-146200000D01*
X135300000Y-143960000D01*
X137596000Y-143960000D01*
X137596000Y-144558913D01*
X137748241Y-144926455D01*
X138029546Y-145207759D01*
X138397088Y-145360000D01*
X138996000Y-145360000D01*
X139246000Y-145110000D01*
X139246000Y-143710000D01*
X139646000Y-143710000D01*
X139646000Y-145110000D01*
X139896000Y-145360000D01*
X140494912Y-145360000D01*
X140862454Y-145207759D01*
X141143759Y-144926455D01*
X141296000Y-144558913D01*
X141296000Y-143960000D01*
X141046000Y-143710000D01*
X139646000Y-143710000D01*
X139246000Y-143710000D01*
X137846000Y-143710000D01*
X137596000Y-143960000D01*
X135300000Y-143960000D01*
X135300000Y-142461087D01*
X137596000Y-142461087D01*
X137596000Y-143060000D01*
X137846000Y-143310000D01*
X139246000Y-143310000D01*
X139246000Y-141910000D01*
X139646000Y-141910000D01*
X139646000Y-143310000D01*
X141046000Y-143310000D01*
X141296000Y-143060000D01*
X141296000Y-142461087D01*
X141143759Y-142093545D01*
X140862454Y-141812241D01*
X140494912Y-141660000D01*
X139896000Y-141660000D01*
X139646000Y-141910000D01*
X139246000Y-141910000D01*
X138996000Y-141660000D01*
X138397088Y-141660000D01*
X138029546Y-141812241D01*
X137748241Y-142093545D01*
X137596000Y-142461087D01*
X135300000Y-142461087D01*
X135300000Y-133500000D01*
X135276364Y-133383283D01*
X135209181Y-133284958D01*
X135109037Y-133220517D01*
X135000000Y-133200000D01*
X122800000Y-133200000D01*
X122800000Y-131721494D01*
X122855000Y-131732632D01*
X124645000Y-131732632D01*
X124978520Y-131669876D01*
X124995737Y-131658797D01*
X124997990Y-131660336D01*
X125355000Y-131732632D01*
X127145000Y-131732632D01*
X127478520Y-131669876D01*
X127495737Y-131658797D01*
X127497990Y-131660336D01*
X127855000Y-131732632D01*
X129645000Y-131732632D01*
X129978520Y-131669876D01*
X130284838Y-131472766D01*
X130490336Y-131172010D01*
X130562632Y-130815000D01*
X130562632Y-128600000D01*
X131255729Y-128600000D01*
X131442234Y-128889838D01*
X131742990Y-129095336D01*
X132100000Y-129167632D01*
X133000000Y-129167632D01*
X133333520Y-129104876D01*
X133639838Y-128907766D01*
X133845336Y-128607010D01*
X133857939Y-128544774D01*
X133903972Y-128535617D01*
X134136149Y-128535820D01*
X134145124Y-128583520D01*
X134342234Y-128889838D01*
X134642990Y-129095336D01*
X135000000Y-129167632D01*
X135900000Y-129167632D01*
X136233520Y-129104876D01*
X136282368Y-129073443D01*
X136282368Y-130125000D01*
X136345124Y-130458520D01*
X136460591Y-130637961D01*
X136354664Y-130792990D01*
X136282368Y-131150000D01*
X136282368Y-132850000D01*
X136345124Y-133183520D01*
X136542234Y-133489838D01*
X136842990Y-133695336D01*
X137200000Y-133767632D01*
X138100000Y-133767632D01*
X138433520Y-133704876D01*
X138739838Y-133507766D01*
X138945336Y-133207010D01*
X139017632Y-132850000D01*
X139017632Y-132450000D01*
X139100000Y-132450000D01*
X139100000Y-133048913D01*
X139252241Y-133416455D01*
X139533546Y-133697759D01*
X139901088Y-133850000D01*
X140100000Y-133850000D01*
X140350000Y-133600000D01*
X140350000Y-132200000D01*
X140750000Y-132200000D01*
X140750000Y-133600000D01*
X141000000Y-133850000D01*
X141198912Y-133850000D01*
X141566454Y-133697759D01*
X141847759Y-133416455D01*
X142000000Y-133048913D01*
X142000000Y-132450000D01*
X141750000Y-132200000D01*
X140750000Y-132200000D01*
X140350000Y-132200000D01*
X139350000Y-132200000D01*
X139100000Y-132450000D01*
X139017632Y-132450000D01*
X139017632Y-131150000D01*
X139012928Y-131125000D01*
X139100000Y-131125000D01*
X139100000Y-131550000D01*
X139350000Y-131800000D01*
X140350000Y-131800000D01*
X140350000Y-131780000D01*
X140750000Y-131780000D01*
X140750000Y-131800000D01*
X141750000Y-131800000D01*
X142000000Y-131550000D01*
X142000000Y-130961264D01*
X142092701Y-130999757D01*
X142649656Y-131000243D01*
X142706207Y-130976876D01*
X142842990Y-131070336D01*
X143200000Y-131142632D01*
X144200000Y-131142632D01*
X144533520Y-131079876D01*
X144598713Y-131037926D01*
X144633546Y-131072759D01*
X145001088Y-131225000D01*
X145250000Y-131225000D01*
X145500000Y-130975000D01*
X145500000Y-129800000D01*
X145480000Y-129800000D01*
X145480000Y-129400000D01*
X145500000Y-129400000D01*
X145500000Y-129380000D01*
X145900000Y-129380000D01*
X145900000Y-129400000D01*
X145920000Y-129400000D01*
X145920000Y-129800000D01*
X145900000Y-129800000D01*
X145900000Y-130975000D01*
X146150000Y-131225000D01*
X146398912Y-131225000D01*
X146766454Y-131072759D01*
X147047759Y-130791455D01*
X147150000Y-130544624D01*
X147150000Y-139282644D01*
X145201472Y-141231172D01*
X144941345Y-141620480D01*
X144906100Y-141797669D01*
X144866480Y-141805124D01*
X144560162Y-142002234D01*
X144354664Y-142302990D01*
X144282368Y-142660000D01*
X144282368Y-144360000D01*
X144345124Y-144693520D01*
X144542234Y-144999838D01*
X144842990Y-145205336D01*
X145200000Y-145277632D01*
X146900000Y-145277632D01*
X147233520Y-145214876D01*
X147539838Y-145017766D01*
X147745336Y-144717010D01*
X147817632Y-144360000D01*
X147817632Y-142660000D01*
X150886368Y-142660000D01*
X150886368Y-144360000D01*
X150949124Y-144693520D01*
X151146234Y-144999838D01*
X151446990Y-145205336D01*
X151804000Y-145277632D01*
X153504000Y-145277632D01*
X153837520Y-145214876D01*
X154143838Y-145017766D01*
X154349336Y-144717010D01*
X154421632Y-144360000D01*
X154421632Y-142660000D01*
X154358876Y-142326480D01*
X154161766Y-142020162D01*
X153861010Y-141814664D01*
X153504000Y-141742368D01*
X151804000Y-141742368D01*
X151470480Y-141805124D01*
X151164162Y-142002234D01*
X150958664Y-142302990D01*
X150886368Y-142660000D01*
X147817632Y-142660000D01*
X147754876Y-142326480D01*
X147655191Y-142171565D01*
X149198528Y-140628228D01*
X149458655Y-140238920D01*
X149550000Y-139779700D01*
X149550000Y-128746539D01*
X149645336Y-128607010D01*
X149717632Y-128250000D01*
X149717632Y-126550000D01*
X149677902Y-126338854D01*
X149755628Y-126261128D01*
X149757919Y-126257700D01*
X152124100Y-126257700D01*
X152583320Y-126166355D01*
X152972628Y-125906228D01*
X165798528Y-113080328D01*
X166058655Y-112691020D01*
X166150000Y-112231800D01*
X166150000Y-112125500D01*
X166112099Y-111934957D01*
X166279328Y-111767728D01*
X166539455Y-111378420D01*
X166630800Y-110919200D01*
X166630800Y-107263142D01*
X167501712Y-107263142D01*
X167754203Y-107874218D01*
X168221323Y-108342154D01*
X168831957Y-108595711D01*
X169493142Y-108596288D01*
X170104218Y-108343797D01*
X170572154Y-107876677D01*
X170825711Y-107266043D01*
X170826288Y-106604858D01*
X170573797Y-105993782D01*
X170106677Y-105525846D01*
X169496043Y-105272289D01*
X168834858Y-105271712D01*
X168223782Y-105524203D01*
X167755846Y-105991323D01*
X167502289Y-106601957D01*
X167501712Y-107263142D01*
X166630800Y-107263142D01*
X166630800Y-102183142D01*
X167501712Y-102183142D01*
X167754203Y-102794218D01*
X168221323Y-103262154D01*
X168831957Y-103515711D01*
X169493142Y-103516288D01*
X170104218Y-103263797D01*
X170572154Y-102796677D01*
X170825711Y-102186043D01*
X170826288Y-101524858D01*
X170573797Y-100913782D01*
X170106677Y-100445846D01*
X169496043Y-100192289D01*
X168834858Y-100191712D01*
X168223782Y-100444203D01*
X167755846Y-100911323D01*
X167502289Y-101521957D01*
X167501712Y-102183142D01*
X166630800Y-102183142D01*
X166630800Y-101000656D01*
X168447156Y-99184300D01*
X170942000Y-99184300D01*
X171401220Y-99092955D01*
X171790528Y-98832828D01*
X172050655Y-98443520D01*
X172085900Y-98266331D01*
X172125520Y-98258876D01*
X172431838Y-98061766D01*
X172637336Y-97761010D01*
X172700000Y-97451564D01*
X172700000Y-127014828D01*
G36*
X140442234Y-122989838D02*
X140742990Y-123195336D01*
X141100000Y-123267632D01*
X142000000Y-123267632D01*
X142333520Y-123204876D01*
X142538393Y-123073044D01*
X142475000Y-123226088D01*
X142475000Y-123287500D01*
X142710165Y-123522665D01*
X142655000Y-123800000D01*
X142655000Y-123832500D01*
X142653737Y-123833763D01*
X142634500Y-123829868D01*
X141745500Y-123829868D01*
X141411980Y-123892624D01*
X141105662Y-124089734D01*
X140900164Y-124390490D01*
X140827868Y-124747500D01*
X140827868Y-125052500D01*
X140846887Y-125153579D01*
X140827868Y-125247500D01*
X140827868Y-125552500D01*
X140846887Y-125653579D01*
X140827868Y-125747500D01*
X140827868Y-126052500D01*
X140846887Y-126153579D01*
X140827868Y-126247500D01*
X140827868Y-126552500D01*
X140846887Y-126653579D01*
X140827868Y-126747500D01*
X140827868Y-127052500D01*
X140890624Y-127386020D01*
X141087734Y-127692338D01*
X141388490Y-127897836D01*
X141745500Y-127970132D01*
X142500000Y-127970132D01*
X142500000Y-128200110D01*
X142095144Y-128199757D01*
X141580400Y-128412445D01*
X141200000Y-128792182D01*
X141200000Y-128676087D01*
X141047759Y-128308545D01*
X140766454Y-128027241D01*
X140398912Y-127875000D01*
X140150000Y-127875000D01*
X139900000Y-128125000D01*
X139900000Y-129300000D01*
X139920000Y-129300000D01*
X139920000Y-129700000D01*
X139900000Y-129700000D01*
X139900000Y-129720000D01*
X139500000Y-129720000D01*
X139500000Y-129700000D01*
X139480000Y-129700000D01*
X139480000Y-129300000D01*
X139500000Y-129300000D01*
X139500000Y-128125000D01*
X139250000Y-127875000D01*
X139001088Y-127875000D01*
X138633546Y-128027241D01*
X138621489Y-128039298D01*
X138603884Y-128012950D01*
X138572954Y-127966660D01*
X138888020Y-127907376D01*
X139194338Y-127710266D01*
X139399836Y-127409510D01*
X139472132Y-127052500D01*
X139472132Y-126747500D01*
X139453113Y-126646421D01*
X139472132Y-126552500D01*
X139472132Y-126247500D01*
X139453113Y-126146421D01*
X139472132Y-126052500D01*
X139472132Y-125747500D01*
X139453113Y-125646421D01*
X139472132Y-125552500D01*
X139472132Y-125247500D01*
X139453113Y-125146421D01*
X139472132Y-125052500D01*
X139472132Y-124747500D01*
X139409376Y-124413980D01*
X139212266Y-124107662D01*
X138911510Y-123902164D01*
X138792417Y-123878047D01*
X138990795Y-123745495D01*
X139176457Y-123467632D01*
X139650000Y-123467632D01*
X139983520Y-123404876D01*
X140289838Y-123207766D01*
X140440540Y-122987206D01*
X140442234Y-122989838D01*
X140442234Y-122989838D01*
G37*
X140442234Y-122989838D02*
X140742990Y-123195336D01*
X141100000Y-123267632D01*
X142000000Y-123267632D01*
X142333520Y-123204876D01*
X142538393Y-123073044D01*
X142475000Y-123226088D01*
X142475000Y-123287500D01*
X142710165Y-123522665D01*
X142655000Y-123800000D01*
X142655000Y-123832500D01*
X142653737Y-123833763D01*
X142634500Y-123829868D01*
X141745500Y-123829868D01*
X141411980Y-123892624D01*
X141105662Y-124089734D01*
X140900164Y-124390490D01*
X140827868Y-124747500D01*
X140827868Y-125052500D01*
X140846887Y-125153579D01*
X140827868Y-125247500D01*
X140827868Y-125552500D01*
X140846887Y-125653579D01*
X140827868Y-125747500D01*
X140827868Y-126052500D01*
X140846887Y-126153579D01*
X140827868Y-126247500D01*
X140827868Y-126552500D01*
X140846887Y-126653579D01*
X140827868Y-126747500D01*
X140827868Y-127052500D01*
X140890624Y-127386020D01*
X141087734Y-127692338D01*
X141388490Y-127897836D01*
X141745500Y-127970132D01*
X142500000Y-127970132D01*
X142500000Y-128200110D01*
X142095144Y-128199757D01*
X141580400Y-128412445D01*
X141200000Y-128792182D01*
X141200000Y-128676087D01*
X141047759Y-128308545D01*
X140766454Y-128027241D01*
X140398912Y-127875000D01*
X140150000Y-127875000D01*
X139900000Y-128125000D01*
X139900000Y-129300000D01*
X139920000Y-129300000D01*
X139920000Y-129700000D01*
X139900000Y-129700000D01*
X139900000Y-129720000D01*
X139500000Y-129720000D01*
X139500000Y-129700000D01*
X139480000Y-129700000D01*
X139480000Y-129300000D01*
X139500000Y-129300000D01*
X139500000Y-128125000D01*
X139250000Y-127875000D01*
X139001088Y-127875000D01*
X138633546Y-128027241D01*
X138621489Y-128039298D01*
X138603884Y-128012950D01*
X138572954Y-127966660D01*
X138888020Y-127907376D01*
X139194338Y-127710266D01*
X139399836Y-127409510D01*
X139472132Y-127052500D01*
X139472132Y-126747500D01*
X139453113Y-126646421D01*
X139472132Y-126552500D01*
X139472132Y-126247500D01*
X139453113Y-126146421D01*
X139472132Y-126052500D01*
X139472132Y-125747500D01*
X139453113Y-125646421D01*
X139472132Y-125552500D01*
X139472132Y-125247500D01*
X139453113Y-125146421D01*
X139472132Y-125052500D01*
X139472132Y-124747500D01*
X139409376Y-124413980D01*
X139212266Y-124107662D01*
X138911510Y-123902164D01*
X138792417Y-123878047D01*
X138990795Y-123745495D01*
X139176457Y-123467632D01*
X139650000Y-123467632D01*
X139983520Y-123404876D01*
X140289838Y-123207766D01*
X140440540Y-122987206D01*
X140442234Y-122989838D01*
G36*
X148103000Y-100389390D02*
X148103000Y-100515000D01*
X148353000Y-100765000D01*
X149353000Y-100765000D01*
X149353000Y-100745000D01*
X149753000Y-100745000D01*
X149753000Y-100765000D01*
X149773000Y-100765000D01*
X149773000Y-101165000D01*
X149753000Y-101165000D01*
X149753000Y-102565000D01*
X150003000Y-102815000D01*
X150201912Y-102815000D01*
X150569454Y-102662759D01*
X150581012Y-102651202D01*
X153119305Y-105189495D01*
X153484281Y-105433364D01*
X153914800Y-105519000D01*
X162858663Y-105519000D01*
X163003575Y-105664165D01*
X162675846Y-105991323D01*
X162422289Y-106601957D01*
X162421712Y-107263142D01*
X162562987Y-107605053D01*
X162140200Y-107779745D01*
X161746030Y-108173228D01*
X161703220Y-108276326D01*
X159647473Y-110332073D01*
X159420946Y-110671096D01*
X159341399Y-111071000D01*
X159341400Y-111071005D01*
X159341400Y-111755785D01*
X159188665Y-111786165D01*
X158953500Y-111551000D01*
X158892088Y-111551000D01*
X158524546Y-111703241D01*
X158243241Y-111984545D01*
X158091000Y-112352087D01*
X158091000Y-112413500D01*
X158341000Y-112663500D01*
X158443378Y-112663500D01*
X158421000Y-112776000D01*
X158443378Y-112888500D01*
X158341000Y-112888500D01*
X158091000Y-113138500D01*
X158091000Y-113199913D01*
X158243241Y-113567455D01*
X158524546Y-113848759D01*
X158892088Y-114001000D01*
X158953500Y-114001000D01*
X159188665Y-113765835D01*
X159466000Y-113821000D01*
X159498500Y-113821000D01*
X159648823Y-113971323D01*
X153196042Y-120424104D01*
X152683744Y-120423657D01*
X152169000Y-120636345D01*
X151774830Y-121029828D01*
X151561243Y-121544201D01*
X151560757Y-122101156D01*
X151773445Y-122615900D01*
X152166928Y-123010070D01*
X152384380Y-123100364D01*
X151800000Y-123684744D01*
X151800000Y-123599998D01*
X151550002Y-123599998D01*
X151800000Y-123350000D01*
X151800000Y-122976087D01*
X151647759Y-122608545D01*
X151366454Y-122327241D01*
X150998912Y-122175000D01*
X150750000Y-122175000D01*
X150500000Y-122425000D01*
X150500000Y-123600000D01*
X150520000Y-123600000D01*
X150520000Y-123857700D01*
X150080000Y-123857700D01*
X150080000Y-123600000D01*
X150100000Y-123600000D01*
X150100000Y-122425000D01*
X149850000Y-122175000D01*
X149601088Y-122175000D01*
X149233546Y-122327241D01*
X149201039Y-122359748D01*
X149157010Y-122329664D01*
X148800000Y-122257368D01*
X147800000Y-122257368D01*
X147466480Y-122320124D01*
X147160162Y-122517234D01*
X147053937Y-122672700D01*
X146377300Y-122672700D01*
X145918080Y-122764045D01*
X145769869Y-122863076D01*
X145900000Y-122548913D01*
X145900000Y-121950000D01*
X145650000Y-121700000D01*
X144650000Y-121700000D01*
X144650000Y-121720000D01*
X144250000Y-121720000D01*
X144250000Y-121700000D01*
X143250000Y-121700000D01*
X143000000Y-121950000D01*
X143000000Y-122539359D01*
X142908545Y-122577241D01*
X142862237Y-122623549D01*
X142917632Y-122350000D01*
X142917632Y-120650000D01*
X142880205Y-120451087D01*
X143000000Y-120451087D01*
X143000000Y-121050000D01*
X143250000Y-121300000D01*
X144250000Y-121300000D01*
X144250000Y-119900000D01*
X144650000Y-119900000D01*
X144650000Y-121300000D01*
X145650000Y-121300000D01*
X145900000Y-121050000D01*
X145900000Y-120451087D01*
X145747759Y-120083545D01*
X145466454Y-119802241D01*
X145098912Y-119650000D01*
X144900000Y-119650000D01*
X144650000Y-119900000D01*
X144250000Y-119900000D01*
X144000000Y-119650000D01*
X143801088Y-119650000D01*
X143433546Y-119802241D01*
X143152241Y-120083545D01*
X143000000Y-120451087D01*
X142880205Y-120451087D01*
X142854876Y-120316480D01*
X142684851Y-120052253D01*
X142835336Y-119832010D01*
X142907632Y-119475000D01*
X142907632Y-114875000D01*
X142844876Y-114541480D01*
X142647766Y-114235162D01*
X142347010Y-114029664D01*
X141990000Y-113957368D01*
X140890000Y-113957368D01*
X140556480Y-114020124D01*
X140250162Y-114217234D01*
X140170888Y-114333256D01*
X140107766Y-114235162D01*
X140085073Y-114219656D01*
X140008655Y-113835480D01*
X139879798Y-113642632D01*
X144300000Y-113642632D01*
X144633520Y-113579876D01*
X144939838Y-113382766D01*
X145145336Y-113082010D01*
X145217632Y-112725000D01*
X145217632Y-103325000D01*
X145154876Y-102991480D01*
X144957766Y-102685162D01*
X144657010Y-102479664D01*
X144300000Y-102407368D01*
X133623034Y-102407368D01*
X133869154Y-102161677D01*
X134122711Y-101551043D01*
X134122829Y-101415000D01*
X148103000Y-101415000D01*
X148103000Y-102013913D01*
X148255241Y-102381455D01*
X148536546Y-102662759D01*
X148904088Y-102815000D01*
X149103000Y-102815000D01*
X149353000Y-102565000D01*
X149353000Y-101165000D01*
X148353000Y-101165000D01*
X148103000Y-101415000D01*
X134122829Y-101415000D01*
X134123288Y-100889858D01*
X133870797Y-100278782D01*
X133403677Y-99810846D01*
X132793043Y-99557289D01*
X132131858Y-99556712D01*
X131520782Y-99809203D01*
X131190835Y-100138575D01*
X130863677Y-99810846D01*
X130596960Y-99700096D01*
X130942756Y-99354300D01*
X141003400Y-99354300D01*
X141462620Y-99262955D01*
X141851928Y-99002828D01*
X142505063Y-98349693D01*
X142606990Y-98419336D01*
X142964000Y-98491632D01*
X144564000Y-98491632D01*
X144897520Y-98428876D01*
X145203838Y-98231766D01*
X145409336Y-97931010D01*
X145448958Y-97735348D01*
X148103000Y-100389390D01*
X148103000Y-100389390D01*
G37*
X148103000Y-100389390D02*
X148103000Y-100515000D01*
X148353000Y-100765000D01*
X149353000Y-100765000D01*
X149353000Y-100745000D01*
X149753000Y-100745000D01*
X149753000Y-100765000D01*
X149773000Y-100765000D01*
X149773000Y-101165000D01*
X149753000Y-101165000D01*
X149753000Y-102565000D01*
X150003000Y-102815000D01*
X150201912Y-102815000D01*
X150569454Y-102662759D01*
X150581012Y-102651202D01*
X153119305Y-105189495D01*
X153484281Y-105433364D01*
X153914800Y-105519000D01*
X162858663Y-105519000D01*
X163003575Y-105664165D01*
X162675846Y-105991323D01*
X162422289Y-106601957D01*
X162421712Y-107263142D01*
X162562987Y-107605053D01*
X162140200Y-107779745D01*
X161746030Y-108173228D01*
X161703220Y-108276326D01*
X159647473Y-110332073D01*
X159420946Y-110671096D01*
X159341399Y-111071000D01*
X159341400Y-111071005D01*
X159341400Y-111755785D01*
X159188665Y-111786165D01*
X158953500Y-111551000D01*
X158892088Y-111551000D01*
X158524546Y-111703241D01*
X158243241Y-111984545D01*
X158091000Y-112352087D01*
X158091000Y-112413500D01*
X158341000Y-112663500D01*
X158443378Y-112663500D01*
X158421000Y-112776000D01*
X158443378Y-112888500D01*
X158341000Y-112888500D01*
X158091000Y-113138500D01*
X158091000Y-113199913D01*
X158243241Y-113567455D01*
X158524546Y-113848759D01*
X158892088Y-114001000D01*
X158953500Y-114001000D01*
X159188665Y-113765835D01*
X159466000Y-113821000D01*
X159498500Y-113821000D01*
X159648823Y-113971323D01*
X153196042Y-120424104D01*
X152683744Y-120423657D01*
X152169000Y-120636345D01*
X151774830Y-121029828D01*
X151561243Y-121544201D01*
X151560757Y-122101156D01*
X151773445Y-122615900D01*
X152166928Y-123010070D01*
X152384380Y-123100364D01*
X151800000Y-123684744D01*
X151800000Y-123599998D01*
X151550002Y-123599998D01*
X151800000Y-123350000D01*
X151800000Y-122976087D01*
X151647759Y-122608545D01*
X151366454Y-122327241D01*
X150998912Y-122175000D01*
X150750000Y-122175000D01*
X150500000Y-122425000D01*
X150500000Y-123600000D01*
X150520000Y-123600000D01*
X150520000Y-123857700D01*
X150080000Y-123857700D01*
X150080000Y-123600000D01*
X150100000Y-123600000D01*
X150100000Y-122425000D01*
X149850000Y-122175000D01*
X149601088Y-122175000D01*
X149233546Y-122327241D01*
X149201039Y-122359748D01*
X149157010Y-122329664D01*
X148800000Y-122257368D01*
X147800000Y-122257368D01*
X147466480Y-122320124D01*
X147160162Y-122517234D01*
X147053937Y-122672700D01*
X146377300Y-122672700D01*
X145918080Y-122764045D01*
X145769869Y-122863076D01*
X145900000Y-122548913D01*
X145900000Y-121950000D01*
X145650000Y-121700000D01*
X144650000Y-121700000D01*
X144650000Y-121720000D01*
X144250000Y-121720000D01*
X144250000Y-121700000D01*
X143250000Y-121700000D01*
X143000000Y-121950000D01*
X143000000Y-122539359D01*
X142908545Y-122577241D01*
X142862237Y-122623549D01*
X142917632Y-122350000D01*
X142917632Y-120650000D01*
X142880205Y-120451087D01*
X143000000Y-120451087D01*
X143000000Y-121050000D01*
X143250000Y-121300000D01*
X144250000Y-121300000D01*
X144250000Y-119900000D01*
X144650000Y-119900000D01*
X144650000Y-121300000D01*
X145650000Y-121300000D01*
X145900000Y-121050000D01*
X145900000Y-120451087D01*
X145747759Y-120083545D01*
X145466454Y-119802241D01*
X145098912Y-119650000D01*
X144900000Y-119650000D01*
X144650000Y-119900000D01*
X144250000Y-119900000D01*
X144000000Y-119650000D01*
X143801088Y-119650000D01*
X143433546Y-119802241D01*
X143152241Y-120083545D01*
X143000000Y-120451087D01*
X142880205Y-120451087D01*
X142854876Y-120316480D01*
X142684851Y-120052253D01*
X142835336Y-119832010D01*
X142907632Y-119475000D01*
X142907632Y-114875000D01*
X142844876Y-114541480D01*
X142647766Y-114235162D01*
X142347010Y-114029664D01*
X141990000Y-113957368D01*
X140890000Y-113957368D01*
X140556480Y-114020124D01*
X140250162Y-114217234D01*
X140170888Y-114333256D01*
X140107766Y-114235162D01*
X140085073Y-114219656D01*
X140008655Y-113835480D01*
X139879798Y-113642632D01*
X144300000Y-113642632D01*
X144633520Y-113579876D01*
X144939838Y-113382766D01*
X145145336Y-113082010D01*
X145217632Y-112725000D01*
X145217632Y-103325000D01*
X145154876Y-102991480D01*
X144957766Y-102685162D01*
X144657010Y-102479664D01*
X144300000Y-102407368D01*
X133623034Y-102407368D01*
X133869154Y-102161677D01*
X134122711Y-101551043D01*
X134122829Y-101415000D01*
X148103000Y-101415000D01*
X148103000Y-102013913D01*
X148255241Y-102381455D01*
X148536546Y-102662759D01*
X148904088Y-102815000D01*
X149103000Y-102815000D01*
X149353000Y-102565000D01*
X149353000Y-101165000D01*
X148353000Y-101165000D01*
X148103000Y-101415000D01*
X134122829Y-101415000D01*
X134123288Y-100889858D01*
X133870797Y-100278782D01*
X133403677Y-99810846D01*
X132793043Y-99557289D01*
X132131858Y-99556712D01*
X131520782Y-99809203D01*
X131190835Y-100138575D01*
X130863677Y-99810846D01*
X130596960Y-99700096D01*
X130942756Y-99354300D01*
X141003400Y-99354300D01*
X141462620Y-99262955D01*
X141851928Y-99002828D01*
X142505063Y-98349693D01*
X142606990Y-98419336D01*
X142964000Y-98491632D01*
X144564000Y-98491632D01*
X144897520Y-98428876D01*
X145203838Y-98231766D01*
X145409336Y-97931010D01*
X145448958Y-97735348D01*
X148103000Y-100389390D01*
G36*
X129597172Y-97305772D02*
X127345975Y-99556969D01*
X127051858Y-99556712D01*
X126440782Y-99809203D01*
X126405068Y-99844854D01*
X126169454Y-99609241D01*
X125801912Y-99457000D01*
X125291000Y-99457000D01*
X125041000Y-99707000D01*
X125041000Y-101019000D01*
X125061000Y-101019000D01*
X125061000Y-101419000D01*
X125041000Y-101419000D01*
X125041000Y-102731000D01*
X125291000Y-102981000D01*
X125801912Y-102981000D01*
X126169454Y-102828759D01*
X126181000Y-102817213D01*
X126181000Y-105220000D01*
X125800000Y-105220000D01*
X125800000Y-105200000D01*
X124750000Y-105200000D01*
X124500000Y-105450000D01*
X124500000Y-105580338D01*
X124417632Y-105525301D01*
X124417632Y-104200000D01*
X124380205Y-104001087D01*
X124500000Y-104001087D01*
X124500000Y-104550000D01*
X124750000Y-104800000D01*
X125800000Y-104800000D01*
X125800000Y-103450000D01*
X125550000Y-103200000D01*
X125301088Y-103200000D01*
X124933546Y-103352241D01*
X124652241Y-103633545D01*
X124500000Y-104001087D01*
X124380205Y-104001087D01*
X124354876Y-103866480D01*
X124157766Y-103560162D01*
X123857010Y-103354664D01*
X123500000Y-103282368D01*
X122500000Y-103282368D01*
X122166480Y-103345124D01*
X121860162Y-103542234D01*
X121654664Y-103842990D01*
X121582368Y-104200000D01*
X121582368Y-104700000D01*
X109956356Y-104700000D01*
X109724186Y-104467830D01*
X110102400Y-104311555D01*
X110165064Y-104249000D01*
X112929639Y-104249000D01*
X112995990Y-104294336D01*
X113353000Y-104366632D01*
X115003000Y-104366632D01*
X115336520Y-104303876D01*
X115642838Y-104106766D01*
X115848336Y-103806010D01*
X115920632Y-103449000D01*
X115920632Y-103199700D01*
X118044200Y-103199700D01*
X118474719Y-103114064D01*
X118839695Y-102870195D01*
X120040890Y-101669000D01*
X123079000Y-101669000D01*
X123079000Y-102179913D01*
X123231241Y-102547455D01*
X123512546Y-102828759D01*
X123880088Y-102981000D01*
X124391000Y-102981000D01*
X124641000Y-102731000D01*
X124641000Y-101419000D01*
X123329000Y-101419000D01*
X123079000Y-101669000D01*
X120040890Y-101669000D01*
X121451803Y-100258087D01*
X123079000Y-100258087D01*
X123079000Y-100769000D01*
X123329000Y-101019000D01*
X124641000Y-101019000D01*
X124641000Y-99707000D01*
X124391000Y-99457000D01*
X123880088Y-99457000D01*
X123512546Y-99609241D01*
X123231241Y-99890545D01*
X123079000Y-100258087D01*
X121451803Y-100258087D01*
X124610990Y-97098900D01*
X129906778Y-97098900D01*
X129597172Y-97305772D01*
X129597172Y-97305772D01*
G37*
X129597172Y-97305772D02*
X127345975Y-99556969D01*
X127051858Y-99556712D01*
X126440782Y-99809203D01*
X126405068Y-99844854D01*
X126169454Y-99609241D01*
X125801912Y-99457000D01*
X125291000Y-99457000D01*
X125041000Y-99707000D01*
X125041000Y-101019000D01*
X125061000Y-101019000D01*
X125061000Y-101419000D01*
X125041000Y-101419000D01*
X125041000Y-102731000D01*
X125291000Y-102981000D01*
X125801912Y-102981000D01*
X126169454Y-102828759D01*
X126181000Y-102817213D01*
X126181000Y-105220000D01*
X125800000Y-105220000D01*
X125800000Y-105200000D01*
X124750000Y-105200000D01*
X124500000Y-105450000D01*
X124500000Y-105580338D01*
X124417632Y-105525301D01*
X124417632Y-104200000D01*
X124380205Y-104001087D01*
X124500000Y-104001087D01*
X124500000Y-104550000D01*
X124750000Y-104800000D01*
X125800000Y-104800000D01*
X125800000Y-103450000D01*
X125550000Y-103200000D01*
X125301088Y-103200000D01*
X124933546Y-103352241D01*
X124652241Y-103633545D01*
X124500000Y-104001087D01*
X124380205Y-104001087D01*
X124354876Y-103866480D01*
X124157766Y-103560162D01*
X123857010Y-103354664D01*
X123500000Y-103282368D01*
X122500000Y-103282368D01*
X122166480Y-103345124D01*
X121860162Y-103542234D01*
X121654664Y-103842990D01*
X121582368Y-104200000D01*
X121582368Y-104700000D01*
X109956356Y-104700000D01*
X109724186Y-104467830D01*
X110102400Y-104311555D01*
X110165064Y-104249000D01*
X112929639Y-104249000D01*
X112995990Y-104294336D01*
X113353000Y-104366632D01*
X115003000Y-104366632D01*
X115336520Y-104303876D01*
X115642838Y-104106766D01*
X115848336Y-103806010D01*
X115920632Y-103449000D01*
X115920632Y-103199700D01*
X118044200Y-103199700D01*
X118474719Y-103114064D01*
X118839695Y-102870195D01*
X120040890Y-101669000D01*
X123079000Y-101669000D01*
X123079000Y-102179913D01*
X123231241Y-102547455D01*
X123512546Y-102828759D01*
X123880088Y-102981000D01*
X124391000Y-102981000D01*
X124641000Y-102731000D01*
X124641000Y-101419000D01*
X123329000Y-101419000D01*
X123079000Y-101669000D01*
X120040890Y-101669000D01*
X121451803Y-100258087D01*
X123079000Y-100258087D01*
X123079000Y-100769000D01*
X123329000Y-101019000D01*
X124641000Y-101019000D01*
X124641000Y-99707000D01*
X124391000Y-99457000D01*
X123880088Y-99457000D01*
X123512546Y-99609241D01*
X123231241Y-99890545D01*
X123079000Y-100258087D01*
X121451803Y-100258087D01*
X124610990Y-97098900D01*
X129906778Y-97098900D01*
X129597172Y-97305772D01*
G36*
X95305900Y-91200900D02*
X95391536Y-91631419D01*
X95603069Y-91948000D01*
X95635405Y-91996395D01*
X96040137Y-92401127D01*
X96039696Y-92906569D01*
X96305557Y-93550001D01*
X96585125Y-93830057D01*
X96307287Y-94107410D01*
X96040304Y-94750376D01*
X96039696Y-95446569D01*
X96305557Y-96090001D01*
X96797410Y-96582713D01*
X97170460Y-96737617D01*
X97790000Y-97357157D01*
X98409715Y-96737442D01*
X98780001Y-96584443D01*
X99272713Y-96092590D01*
X99458500Y-95645166D01*
X99458500Y-96780325D01*
X99424958Y-96699347D01*
X99079745Y-96633098D01*
X98072843Y-97640000D01*
X98086985Y-97654142D01*
X97804142Y-97936985D01*
X97790000Y-97922843D01*
X97775858Y-97936985D01*
X97493015Y-97654142D01*
X97507157Y-97640000D01*
X96500255Y-96633098D01*
X96155042Y-96699347D01*
X95919524Y-97396622D01*
X95968768Y-98130948D01*
X96155042Y-98580653D01*
X96376451Y-98623143D01*
X96300162Y-98672234D01*
X96094664Y-98972990D01*
X96022368Y-99330000D01*
X96022368Y-101030000D01*
X96085124Y-101363520D01*
X96282234Y-101669838D01*
X96582990Y-101875336D01*
X96840689Y-101927521D01*
X95676310Y-103091900D01*
X85979668Y-103091900D01*
X86080001Y-103050443D01*
X86572713Y-102558590D01*
X86839696Y-101915624D01*
X86840304Y-101219431D01*
X86574443Y-100575999D01*
X86082590Y-100083287D01*
X85439624Y-99816304D01*
X84743431Y-99815696D01*
X84099999Y-100081557D01*
X83824952Y-100356125D01*
X83725096Y-100256094D01*
X95305900Y-88675290D01*
X95305900Y-91200900D01*
X95305900Y-91200900D01*
G37*
X95305900Y-91200900D02*
X95391536Y-91631419D01*
X95603069Y-91948000D01*
X95635405Y-91996395D01*
X96040137Y-92401127D01*
X96039696Y-92906569D01*
X96305557Y-93550001D01*
X96585125Y-93830057D01*
X96307287Y-94107410D01*
X96040304Y-94750376D01*
X96039696Y-95446569D01*
X96305557Y-96090001D01*
X96797410Y-96582713D01*
X97170460Y-96737617D01*
X97790000Y-97357157D01*
X98409715Y-96737442D01*
X98780001Y-96584443D01*
X99272713Y-96092590D01*
X99458500Y-95645166D01*
X99458500Y-96780325D01*
X99424958Y-96699347D01*
X99079745Y-96633098D01*
X98072843Y-97640000D01*
X98086985Y-97654142D01*
X97804142Y-97936985D01*
X97790000Y-97922843D01*
X97775858Y-97936985D01*
X97493015Y-97654142D01*
X97507157Y-97640000D01*
X96500255Y-96633098D01*
X96155042Y-96699347D01*
X95919524Y-97396622D01*
X95968768Y-98130948D01*
X96155042Y-98580653D01*
X96376451Y-98623143D01*
X96300162Y-98672234D01*
X96094664Y-98972990D01*
X96022368Y-99330000D01*
X96022368Y-101030000D01*
X96085124Y-101363520D01*
X96282234Y-101669838D01*
X96582990Y-101875336D01*
X96840689Y-101927521D01*
X95676310Y-103091900D01*
X85979668Y-103091900D01*
X86080001Y-103050443D01*
X86572713Y-102558590D01*
X86839696Y-101915624D01*
X86840304Y-101219431D01*
X86574443Y-100575999D01*
X86082590Y-100083287D01*
X85439624Y-99816304D01*
X84743431Y-99815696D01*
X84099999Y-100081557D01*
X83824952Y-100356125D01*
X83725096Y-100256094D01*
X95305900Y-88675290D01*
X95305900Y-91200900D01*
G36*
X77680000Y-101366000D02*
X77700000Y-101366000D01*
X77700000Y-101766000D01*
X77680000Y-101766000D01*
X77680000Y-101786000D01*
X77280000Y-101786000D01*
X77280000Y-101766000D01*
X77260000Y-101766000D01*
X77260000Y-101366000D01*
X77280000Y-101366000D01*
X77280000Y-101346000D01*
X77680000Y-101346000D01*
X77680000Y-101366000D01*
X77680000Y-101366000D01*
G37*
X77680000Y-101366000D02*
X77700000Y-101366000D01*
X77700000Y-101766000D01*
X77680000Y-101766000D01*
X77680000Y-101786000D01*
X77280000Y-101786000D01*
X77280000Y-101766000D01*
X77260000Y-101766000D01*
X77260000Y-101366000D01*
X77280000Y-101366000D01*
X77280000Y-101346000D01*
X77680000Y-101346000D01*
X77680000Y-101366000D01*
G36*
X170615700Y-88358290D02*
X170615700Y-88496010D01*
X170550010Y-88561700D01*
X170292573Y-88561700D01*
X170137015Y-88406142D01*
X170151157Y-88392000D01*
X169591973Y-87832816D01*
X169455937Y-87504399D01*
X169225635Y-87466478D01*
X169208207Y-87449050D01*
X169164000Y-87456329D01*
X169119793Y-87449050D01*
X169102365Y-87466478D01*
X168872063Y-87504399D01*
X168776515Y-87792328D01*
X168176843Y-88392000D01*
X168190985Y-88406142D01*
X167908142Y-88688985D01*
X167894000Y-88674843D01*
X167112024Y-89456819D01*
X166953782Y-89522203D01*
X166623835Y-89851575D01*
X166296677Y-89523846D01*
X166136486Y-89457329D01*
X165354000Y-88674843D01*
X164572024Y-89456819D01*
X164413782Y-89522203D01*
X163945846Y-89989323D01*
X163692289Y-90599957D01*
X163691937Y-91003073D01*
X163219005Y-91476005D01*
X162975136Y-91840981D01*
X162889500Y-92271500D01*
X162889500Y-94694200D01*
X162975136Y-95124719D01*
X163193583Y-95451648D01*
X163219005Y-95489695D01*
X163747007Y-96017697D01*
X163658664Y-96146990D01*
X163586368Y-96504000D01*
X163586368Y-97404000D01*
X163649124Y-97737520D01*
X163846234Y-98043838D01*
X164146990Y-98249336D01*
X164504000Y-98321632D01*
X165915712Y-98321632D01*
X164933744Y-99303600D01*
X160226700Y-99303600D01*
X159819954Y-99384507D01*
X159707766Y-99210162D01*
X159407010Y-99004664D01*
X159050000Y-98932368D01*
X158200000Y-98932368D01*
X158163032Y-98939324D01*
X159248528Y-97853828D01*
X159508655Y-97464520D01*
X159600000Y-97005300D01*
X159600000Y-96994716D01*
X159745336Y-96782010D01*
X159817632Y-96425000D01*
X159817632Y-95175000D01*
X159754876Y-94841480D01*
X159557766Y-94535162D01*
X159257010Y-94329664D01*
X158900000Y-94257368D01*
X157900000Y-94257368D01*
X157566480Y-94320124D01*
X157501287Y-94362074D01*
X157466454Y-94327241D01*
X157098912Y-94175000D01*
X156850000Y-94175000D01*
X156600000Y-94425000D01*
X156600000Y-95600000D01*
X156620000Y-95600000D01*
X156620000Y-96000000D01*
X156600000Y-96000000D01*
X156600000Y-96020000D01*
X156200000Y-96020000D01*
X156200000Y-96000000D01*
X155150000Y-96000000D01*
X154900000Y-96250000D01*
X154900000Y-96623913D01*
X155052241Y-96991455D01*
X155333546Y-97272759D01*
X155701088Y-97425000D01*
X155950000Y-97425000D01*
X156199998Y-97175002D01*
X156199998Y-97425000D01*
X156283244Y-97425000D01*
X155677944Y-98030300D01*
X154400656Y-98030300D01*
X153711285Y-97340929D01*
X153877759Y-97174455D01*
X154030000Y-96806913D01*
X154030000Y-96208000D01*
X153780000Y-95958000D01*
X152780000Y-95958000D01*
X152780000Y-95978000D01*
X152616300Y-95978000D01*
X152616300Y-95538000D01*
X152780000Y-95538000D01*
X152780000Y-95558000D01*
X153780000Y-95558000D01*
X154030000Y-95308000D01*
X154030000Y-94976087D01*
X154900000Y-94976087D01*
X154900000Y-95350000D01*
X155150000Y-95600000D01*
X156200000Y-95600000D01*
X156200000Y-94425000D01*
X155950000Y-94175000D01*
X155701088Y-94175000D01*
X155333546Y-94327241D01*
X155052241Y-94608545D01*
X154900000Y-94976087D01*
X154030000Y-94976087D01*
X154030000Y-94709087D01*
X153877759Y-94341545D01*
X153596454Y-94060241D01*
X153524363Y-94030380D01*
X153825956Y-94030643D01*
X154340700Y-93817955D01*
X154403364Y-93755400D01*
X157148300Y-93755400D01*
X157578819Y-93669764D01*
X157943795Y-93425895D01*
X158225195Y-93144495D01*
X158289323Y-93048520D01*
X158293258Y-93042632D01*
X158900000Y-93042632D01*
X159233520Y-92979876D01*
X159539838Y-92782766D01*
X159745336Y-92482010D01*
X159817632Y-92125000D01*
X159817632Y-90875000D01*
X159754876Y-90541480D01*
X159557766Y-90235162D01*
X159257010Y-90029664D01*
X158900000Y-89957368D01*
X157900000Y-89957368D01*
X157566480Y-90020124D01*
X157501287Y-90062074D01*
X157466454Y-90027241D01*
X157098912Y-89875000D01*
X156850000Y-89875000D01*
X156600000Y-90125000D01*
X156600000Y-90755696D01*
X156390336Y-91069481D01*
X156304700Y-91500000D01*
X156304700Y-91505400D01*
X156180000Y-91505400D01*
X156180000Y-91300000D01*
X156200000Y-91300000D01*
X156200000Y-90125000D01*
X155950000Y-89875000D01*
X155701088Y-89875000D01*
X155333546Y-90027241D01*
X155052241Y-90308545D01*
X155037985Y-90342961D01*
X154873912Y-90275000D01*
X154812500Y-90275000D01*
X154577335Y-90510165D01*
X154300000Y-90455000D01*
X154267500Y-90455000D01*
X154087500Y-90275000D01*
X154026088Y-90275000D01*
X153677632Y-90419335D01*
X153677632Y-90165000D01*
X153614876Y-89831480D01*
X153417766Y-89525162D01*
X153117010Y-89319664D01*
X152760000Y-89247368D01*
X151975658Y-89247368D01*
X150897981Y-88169691D01*
X163571288Y-88169691D01*
X163621914Y-88868828D01*
X163792063Y-89279601D01*
X164128207Y-89334950D01*
X165071157Y-88392000D01*
X165636843Y-88392000D01*
X166196027Y-88951184D01*
X166332063Y-89279601D01*
X166562365Y-89317522D01*
X166579793Y-89334950D01*
X166624000Y-89327671D01*
X166668207Y-89334950D01*
X166685635Y-89317522D01*
X166915937Y-89279601D01*
X167011485Y-88991672D01*
X167611157Y-88392000D01*
X167051973Y-87832816D01*
X166915937Y-87504399D01*
X166685635Y-87466478D01*
X166668207Y-87449050D01*
X166624000Y-87456329D01*
X166579793Y-87449050D01*
X166562365Y-87466478D01*
X166332063Y-87504399D01*
X166236515Y-87792328D01*
X165636843Y-88392000D01*
X165071157Y-88392000D01*
X164128207Y-87449050D01*
X163792063Y-87504399D01*
X163571288Y-88169691D01*
X150897981Y-88169691D01*
X149894497Y-87166207D01*
X164411050Y-87166207D01*
X165354000Y-88109157D01*
X166296950Y-87166207D01*
X166951050Y-87166207D01*
X167894000Y-88109157D01*
X168836950Y-87166207D01*
X168781601Y-86830063D01*
X168116309Y-86609288D01*
X167417172Y-86659914D01*
X167006399Y-86830063D01*
X166951050Y-87166207D01*
X166296950Y-87166207D01*
X166241601Y-86830063D01*
X165576309Y-86609288D01*
X164877172Y-86659914D01*
X164466399Y-86830063D01*
X164411050Y-87166207D01*
X149894497Y-87166207D01*
X148454190Y-85725900D01*
X167983310Y-85725900D01*
X170615700Y-88358290D01*
X170615700Y-88358290D01*
G37*
X170615700Y-88358290D02*
X170615700Y-88496010D01*
X170550010Y-88561700D01*
X170292573Y-88561700D01*
X170137015Y-88406142D01*
X170151157Y-88392000D01*
X169591973Y-87832816D01*
X169455937Y-87504399D01*
X169225635Y-87466478D01*
X169208207Y-87449050D01*
X169164000Y-87456329D01*
X169119793Y-87449050D01*
X169102365Y-87466478D01*
X168872063Y-87504399D01*
X168776515Y-87792328D01*
X168176843Y-88392000D01*
X168190985Y-88406142D01*
X167908142Y-88688985D01*
X167894000Y-88674843D01*
X167112024Y-89456819D01*
X166953782Y-89522203D01*
X166623835Y-89851575D01*
X166296677Y-89523846D01*
X166136486Y-89457329D01*
X165354000Y-88674843D01*
X164572024Y-89456819D01*
X164413782Y-89522203D01*
X163945846Y-89989323D01*
X163692289Y-90599957D01*
X163691937Y-91003073D01*
X163219005Y-91476005D01*
X162975136Y-91840981D01*
X162889500Y-92271500D01*
X162889500Y-94694200D01*
X162975136Y-95124719D01*
X163193583Y-95451648D01*
X163219005Y-95489695D01*
X163747007Y-96017697D01*
X163658664Y-96146990D01*
X163586368Y-96504000D01*
X163586368Y-97404000D01*
X163649124Y-97737520D01*
X163846234Y-98043838D01*
X164146990Y-98249336D01*
X164504000Y-98321632D01*
X165915712Y-98321632D01*
X164933744Y-99303600D01*
X160226700Y-99303600D01*
X159819954Y-99384507D01*
X159707766Y-99210162D01*
X159407010Y-99004664D01*
X159050000Y-98932368D01*
X158200000Y-98932368D01*
X158163032Y-98939324D01*
X159248528Y-97853828D01*
X159508655Y-97464520D01*
X159600000Y-97005300D01*
X159600000Y-96994716D01*
X159745336Y-96782010D01*
X159817632Y-96425000D01*
X159817632Y-95175000D01*
X159754876Y-94841480D01*
X159557766Y-94535162D01*
X159257010Y-94329664D01*
X158900000Y-94257368D01*
X157900000Y-94257368D01*
X157566480Y-94320124D01*
X157501287Y-94362074D01*
X157466454Y-94327241D01*
X157098912Y-94175000D01*
X156850000Y-94175000D01*
X156600000Y-94425000D01*
X156600000Y-95600000D01*
X156620000Y-95600000D01*
X156620000Y-96000000D01*
X156600000Y-96000000D01*
X156600000Y-96020000D01*
X156200000Y-96020000D01*
X156200000Y-96000000D01*
X155150000Y-96000000D01*
X154900000Y-96250000D01*
X154900000Y-96623913D01*
X155052241Y-96991455D01*
X155333546Y-97272759D01*
X155701088Y-97425000D01*
X155950000Y-97425000D01*
X156199998Y-97175002D01*
X156199998Y-97425000D01*
X156283244Y-97425000D01*
X155677944Y-98030300D01*
X154400656Y-98030300D01*
X153711285Y-97340929D01*
X153877759Y-97174455D01*
X154030000Y-96806913D01*
X154030000Y-96208000D01*
X153780000Y-95958000D01*
X152780000Y-95958000D01*
X152780000Y-95978000D01*
X152616300Y-95978000D01*
X152616300Y-95538000D01*
X152780000Y-95538000D01*
X152780000Y-95558000D01*
X153780000Y-95558000D01*
X154030000Y-95308000D01*
X154030000Y-94976087D01*
X154900000Y-94976087D01*
X154900000Y-95350000D01*
X155150000Y-95600000D01*
X156200000Y-95600000D01*
X156200000Y-94425000D01*
X155950000Y-94175000D01*
X155701088Y-94175000D01*
X155333546Y-94327241D01*
X155052241Y-94608545D01*
X154900000Y-94976087D01*
X154030000Y-94976087D01*
X154030000Y-94709087D01*
X153877759Y-94341545D01*
X153596454Y-94060241D01*
X153524363Y-94030380D01*
X153825956Y-94030643D01*
X154340700Y-93817955D01*
X154403364Y-93755400D01*
X157148300Y-93755400D01*
X157578819Y-93669764D01*
X157943795Y-93425895D01*
X158225195Y-93144495D01*
X158289323Y-93048520D01*
X158293258Y-93042632D01*
X158900000Y-93042632D01*
X159233520Y-92979876D01*
X159539838Y-92782766D01*
X159745336Y-92482010D01*
X159817632Y-92125000D01*
X159817632Y-90875000D01*
X159754876Y-90541480D01*
X159557766Y-90235162D01*
X159257010Y-90029664D01*
X158900000Y-89957368D01*
X157900000Y-89957368D01*
X157566480Y-90020124D01*
X157501287Y-90062074D01*
X157466454Y-90027241D01*
X157098912Y-89875000D01*
X156850000Y-89875000D01*
X156600000Y-90125000D01*
X156600000Y-90755696D01*
X156390336Y-91069481D01*
X156304700Y-91500000D01*
X156304700Y-91505400D01*
X156180000Y-91505400D01*
X156180000Y-91300000D01*
X156200000Y-91300000D01*
X156200000Y-90125000D01*
X155950000Y-89875000D01*
X155701088Y-89875000D01*
X155333546Y-90027241D01*
X155052241Y-90308545D01*
X155037985Y-90342961D01*
X154873912Y-90275000D01*
X154812500Y-90275000D01*
X154577335Y-90510165D01*
X154300000Y-90455000D01*
X154267500Y-90455000D01*
X154087500Y-90275000D01*
X154026088Y-90275000D01*
X153677632Y-90419335D01*
X153677632Y-90165000D01*
X153614876Y-89831480D01*
X153417766Y-89525162D01*
X153117010Y-89319664D01*
X152760000Y-89247368D01*
X151975658Y-89247368D01*
X150897981Y-88169691D01*
X163571288Y-88169691D01*
X163621914Y-88868828D01*
X163792063Y-89279601D01*
X164128207Y-89334950D01*
X165071157Y-88392000D01*
X165636843Y-88392000D01*
X166196027Y-88951184D01*
X166332063Y-89279601D01*
X166562365Y-89317522D01*
X166579793Y-89334950D01*
X166624000Y-89327671D01*
X166668207Y-89334950D01*
X166685635Y-89317522D01*
X166915937Y-89279601D01*
X167011485Y-88991672D01*
X167611157Y-88392000D01*
X167051973Y-87832816D01*
X166915937Y-87504399D01*
X166685635Y-87466478D01*
X166668207Y-87449050D01*
X166624000Y-87456329D01*
X166579793Y-87449050D01*
X166562365Y-87466478D01*
X166332063Y-87504399D01*
X166236515Y-87792328D01*
X165636843Y-88392000D01*
X165071157Y-88392000D01*
X164128207Y-87449050D01*
X163792063Y-87504399D01*
X163571288Y-88169691D01*
X150897981Y-88169691D01*
X149894497Y-87166207D01*
X164411050Y-87166207D01*
X165354000Y-88109157D01*
X166296950Y-87166207D01*
X166951050Y-87166207D01*
X167894000Y-88109157D01*
X168836950Y-87166207D01*
X168781601Y-86830063D01*
X168116309Y-86609288D01*
X167417172Y-86659914D01*
X167006399Y-86830063D01*
X166951050Y-87166207D01*
X166296950Y-87166207D01*
X166241601Y-86830063D01*
X165576309Y-86609288D01*
X164877172Y-86659914D01*
X164466399Y-86830063D01*
X164411050Y-87166207D01*
X149894497Y-87166207D01*
X148454190Y-85725900D01*
X167983310Y-85725900D01*
X170615700Y-88358290D01*
G36*
X140560985Y-96759858D02*
X140546843Y-96774000D01*
X140560985Y-96788142D01*
X140394827Y-96954300D01*
X140133173Y-96954300D01*
X139974474Y-96795601D01*
X140013695Y-96769395D01*
X140189390Y-96593700D01*
X140394827Y-96593700D01*
X140560985Y-96759858D01*
X140560985Y-96759858D01*
G37*
X140560985Y-96759858D02*
X140546843Y-96774000D01*
X140560985Y-96788142D01*
X140394827Y-96954300D01*
X140133173Y-96954300D01*
X139974474Y-96795601D01*
X140013695Y-96769395D01*
X140189390Y-96593700D01*
X140394827Y-96593700D01*
X140560985Y-96759858D01*
G36*
X123206000Y-92514000D02*
X123456000Y-92764000D01*
X124768000Y-92764000D01*
X124768000Y-92744000D01*
X125168000Y-92744000D01*
X125168000Y-92764000D01*
X125188000Y-92764000D01*
X125188000Y-93164000D01*
X125168000Y-93164000D01*
X125168000Y-93183300D01*
X124768000Y-93183300D01*
X124768000Y-93164000D01*
X123456000Y-93164000D01*
X123436700Y-93183300D01*
X123240800Y-93183300D01*
X122810281Y-93268936D01*
X122542293Y-93448000D01*
X122451632Y-93508577D01*
X122451632Y-92368000D01*
X122446853Y-92342600D01*
X123206000Y-92342600D01*
X123206000Y-92514000D01*
X123206000Y-92514000D01*
G37*
X123206000Y-92514000D02*
X123456000Y-92764000D01*
X124768000Y-92764000D01*
X124768000Y-92744000D01*
X125168000Y-92744000D01*
X125168000Y-92764000D01*
X125188000Y-92764000D01*
X125188000Y-93164000D01*
X125168000Y-93164000D01*
X125168000Y-93183300D01*
X124768000Y-93183300D01*
X124768000Y-93164000D01*
X123456000Y-93164000D01*
X123436700Y-93183300D01*
X123240800Y-93183300D01*
X122810281Y-93268936D01*
X122542293Y-93448000D01*
X122451632Y-93508577D01*
X122451632Y-92368000D01*
X122446853Y-92342600D01*
X123206000Y-92342600D01*
X123206000Y-92514000D01*
G36*
X109679383Y-141018592D02*
X109729414Y-141732926D01*
X109906526Y-142160514D01*
X110246585Y-142220573D01*
X111217157Y-141250000D01*
X111203015Y-141235858D01*
X111485858Y-140953015D01*
X111500000Y-140967157D01*
X111514142Y-140953015D01*
X111796985Y-141235858D01*
X111782843Y-141250000D01*
X112753415Y-142220573D01*
X113093474Y-142160514D01*
X113320617Y-141481408D01*
X113270586Y-140767074D01*
X113256928Y-140734100D01*
X118200000Y-140734100D01*
X118200000Y-143960300D01*
X111190198Y-143960300D01*
X109733313Y-142503415D01*
X110529427Y-142503415D01*
X110589486Y-142843474D01*
X111268592Y-143070617D01*
X111982926Y-143020586D01*
X112410514Y-142843474D01*
X112470573Y-142503415D01*
X111500000Y-141532843D01*
X110529427Y-142503415D01*
X109733313Y-142503415D01*
X108200244Y-140970346D01*
X108200294Y-140913333D01*
X108126237Y-140734100D01*
X109774538Y-140734100D01*
X109679383Y-141018592D01*
X109679383Y-141018592D01*
G37*
X109679383Y-141018592D02*
X109729414Y-141732926D01*
X109906526Y-142160514D01*
X110246585Y-142220573D01*
X111217157Y-141250000D01*
X111203015Y-141235858D01*
X111485858Y-140953015D01*
X111500000Y-140967157D01*
X111514142Y-140953015D01*
X111796985Y-141235858D01*
X111782843Y-141250000D01*
X112753415Y-142220573D01*
X113093474Y-142160514D01*
X113320617Y-141481408D01*
X113270586Y-140767074D01*
X113256928Y-140734100D01*
X118200000Y-140734100D01*
X118200000Y-143960300D01*
X111190198Y-143960300D01*
X109733313Y-142503415D01*
X110529427Y-142503415D01*
X110589486Y-142843474D01*
X111268592Y-143070617D01*
X111982926Y-143020586D01*
X112410514Y-142843474D01*
X112470573Y-142503415D01*
X111500000Y-141532843D01*
X110529427Y-142503415D01*
X109733313Y-142503415D01*
X108200244Y-140970346D01*
X108200294Y-140913333D01*
X108126237Y-140734100D01*
X109774538Y-140734100D01*
X109679383Y-141018592D01*
G36*
X117855000Y-111422632D02*
X118200000Y-111422632D01*
X118200000Y-126467368D01*
X117855000Y-126467368D01*
X117640298Y-126507767D01*
X117343913Y-126385000D01*
X116700000Y-126385000D01*
X116450000Y-126635000D01*
X116450000Y-128900000D01*
X116470000Y-128900000D01*
X116470000Y-129300000D01*
X116450000Y-129300000D01*
X116450000Y-131565000D01*
X116700000Y-131815000D01*
X117343913Y-131815000D01*
X117645291Y-131690165D01*
X117855000Y-131732632D01*
X118200000Y-131732632D01*
X118200000Y-135684573D01*
X118123546Y-135716241D01*
X117842241Y-135997545D01*
X117690000Y-136365087D01*
X117690000Y-136964000D01*
X117940000Y-137214000D01*
X118200000Y-137214000D01*
X118200000Y-137614000D01*
X117940000Y-137614000D01*
X117690000Y-137864000D01*
X117690000Y-137934100D01*
X117607632Y-137934100D01*
X117607632Y-137576724D01*
X117640000Y-137414000D01*
X117607632Y-137251276D01*
X117607632Y-136564000D01*
X117544876Y-136230480D01*
X117347766Y-135924162D01*
X117047010Y-135718664D01*
X116690000Y-135646368D01*
X115790000Y-135646368D01*
X115456480Y-135709124D01*
X115150162Y-135906234D01*
X115076529Y-136014000D01*
X113115673Y-136014000D01*
X113334617Y-135359408D01*
X113284586Y-134645074D01*
X113107474Y-134217486D01*
X112767415Y-134157427D01*
X111796843Y-135128000D01*
X111810985Y-135142142D01*
X111528142Y-135424985D01*
X111514000Y-135410843D01*
X111499858Y-135424985D01*
X111217015Y-135142142D01*
X111231157Y-135128000D01*
X110260585Y-134157427D01*
X109920526Y-134217486D01*
X109693383Y-134896592D01*
X109743414Y-135610926D01*
X109910372Y-136014000D01*
X109379899Y-136014000D01*
X108214244Y-134848346D01*
X108214294Y-134791333D01*
X107956030Y-134166285D01*
X107664839Y-133874585D01*
X110543427Y-133874585D01*
X111514000Y-134845157D01*
X112484573Y-133874585D01*
X112424514Y-133534526D01*
X111745408Y-133307383D01*
X111031074Y-133357414D01*
X110603486Y-133534526D01*
X110543427Y-133874585D01*
X107664839Y-133874585D01*
X107478230Y-133687650D01*
X106853634Y-133428296D01*
X106177333Y-133427706D01*
X105552285Y-133685970D01*
X105073650Y-134163770D01*
X104814296Y-134788366D01*
X104813706Y-135464667D01*
X105071970Y-136089715D01*
X105549770Y-136568350D01*
X106174366Y-136827704D01*
X106233858Y-136827756D01*
X107340201Y-137934100D01*
X103805298Y-137934100D01*
X103565249Y-137694051D01*
X103295281Y-137513664D01*
X103111057Y-137390569D01*
X102575300Y-137284000D01*
X102190489Y-137284000D01*
X102434838Y-137126766D01*
X102640336Y-136826010D01*
X102712632Y-136469000D01*
X102712632Y-135819000D01*
X102649876Y-135485480D01*
X102452766Y-135179162D01*
X102152010Y-134973664D01*
X101795000Y-134901368D01*
X100764600Y-134901368D01*
X100764600Y-132069632D01*
X101468000Y-132069632D01*
X101801520Y-132006876D01*
X102107838Y-131809766D01*
X102313336Y-131509010D01*
X102385632Y-131152000D01*
X102385632Y-129452000D01*
X102322876Y-129118480D01*
X102125766Y-128812162D01*
X101825010Y-128606664D01*
X101468000Y-128534368D01*
X100568000Y-128534368D01*
X100234480Y-128597124D01*
X99928162Y-128794234D01*
X99722664Y-129094990D01*
X99689619Y-129258173D01*
X99667181Y-129262636D01*
X99474256Y-129391544D01*
X99422876Y-129118480D01*
X99225766Y-128812162D01*
X98925010Y-128606664D01*
X98568000Y-128534368D01*
X97668000Y-128534368D01*
X97334480Y-128597124D01*
X97092453Y-128752864D01*
X96933699Y-128686943D01*
X96376744Y-128686457D01*
X95862000Y-128899145D01*
X95467830Y-129292628D01*
X95295300Y-129708125D01*
X95295300Y-126112298D01*
X96832368Y-124575230D01*
X96832368Y-124900000D01*
X96895124Y-125233520D01*
X97092234Y-125539838D01*
X97392990Y-125745336D01*
X97600000Y-125787256D01*
X97600000Y-125900300D01*
X97706569Y-126436057D01*
X97967008Y-126825831D01*
X98010051Y-126890249D01*
X99132751Y-128012950D01*
X99586944Y-128316432D01*
X100122700Y-128423000D01*
X104926146Y-128423000D01*
X104814296Y-128692366D01*
X104813706Y-129368667D01*
X105071970Y-129993715D01*
X105549770Y-130472350D01*
X106174366Y-130731704D01*
X106850667Y-130732294D01*
X107475715Y-130474030D01*
X107664659Y-130285415D01*
X110543427Y-130285415D01*
X110603486Y-130625474D01*
X111282592Y-130852617D01*
X111996926Y-130802586D01*
X112424514Y-130625474D01*
X112484573Y-130285415D01*
X111514000Y-129314843D01*
X110543427Y-130285415D01*
X107664659Y-130285415D01*
X107954350Y-129996230D01*
X108213704Y-129371634D01*
X108214202Y-128800592D01*
X109693383Y-128800592D01*
X109743414Y-129514926D01*
X109920526Y-129942514D01*
X110260585Y-130002573D01*
X111231157Y-129032000D01*
X111796843Y-129032000D01*
X112767415Y-130002573D01*
X113107474Y-129942514D01*
X113238759Y-129550000D01*
X114355000Y-129550000D01*
X114355000Y-131013912D01*
X114507241Y-131381454D01*
X114788545Y-131662759D01*
X115156087Y-131815000D01*
X115800000Y-131815000D01*
X116050000Y-131565000D01*
X116050000Y-129300000D01*
X114605000Y-129300000D01*
X114355000Y-129550000D01*
X113238759Y-129550000D01*
X113334617Y-129263408D01*
X113284586Y-128549074D01*
X113107474Y-128121486D01*
X112767415Y-128061427D01*
X111796843Y-129032000D01*
X111231157Y-129032000D01*
X110260585Y-128061427D01*
X109920526Y-128121486D01*
X109693383Y-128800592D01*
X108214202Y-128800592D01*
X108214294Y-128695333D01*
X107956030Y-128070285D01*
X107914000Y-128028182D01*
X107914000Y-127778585D01*
X110543427Y-127778585D01*
X111514000Y-128749157D01*
X112484573Y-127778585D01*
X112424514Y-127438526D01*
X111745408Y-127211383D01*
X111031074Y-127261414D01*
X110603486Y-127438526D01*
X110543427Y-127778585D01*
X107914000Y-127778585D01*
X107914000Y-127466804D01*
X107943431Y-127422757D01*
X107990507Y-127186088D01*
X114355000Y-127186088D01*
X114355000Y-128650000D01*
X114605000Y-128900000D01*
X116050000Y-128900000D01*
X116050000Y-126635000D01*
X115800000Y-126385000D01*
X115156087Y-126385000D01*
X114788545Y-126537241D01*
X114507241Y-126818546D01*
X114355000Y-127186088D01*
X107990507Y-127186088D01*
X108050000Y-126887000D01*
X108050000Y-126245408D01*
X108233520Y-126210876D01*
X108539838Y-126013766D01*
X108745336Y-125713010D01*
X108799353Y-125446266D01*
X108845124Y-125689520D01*
X109042234Y-125995838D01*
X109342990Y-126201336D01*
X109700000Y-126273632D01*
X112200000Y-126273632D01*
X112533520Y-126210876D01*
X112839838Y-126013766D01*
X113045336Y-125713010D01*
X113067006Y-125606000D01*
X113200300Y-125606000D01*
X113736057Y-125499431D01*
X114190249Y-125195949D01*
X117239949Y-122146250D01*
X117496658Y-121762057D01*
X117543431Y-121692057D01*
X117650000Y-121156300D01*
X117650000Y-111381119D01*
X117855000Y-111422632D01*
X117855000Y-111422632D01*
G37*
X117855000Y-111422632D02*
X118200000Y-111422632D01*
X118200000Y-126467368D01*
X117855000Y-126467368D01*
X117640298Y-126507767D01*
X117343913Y-126385000D01*
X116700000Y-126385000D01*
X116450000Y-126635000D01*
X116450000Y-128900000D01*
X116470000Y-128900000D01*
X116470000Y-129300000D01*
X116450000Y-129300000D01*
X116450000Y-131565000D01*
X116700000Y-131815000D01*
X117343913Y-131815000D01*
X117645291Y-131690165D01*
X117855000Y-131732632D01*
X118200000Y-131732632D01*
X118200000Y-135684573D01*
X118123546Y-135716241D01*
X117842241Y-135997545D01*
X117690000Y-136365087D01*
X117690000Y-136964000D01*
X117940000Y-137214000D01*
X118200000Y-137214000D01*
X118200000Y-137614000D01*
X117940000Y-137614000D01*
X117690000Y-137864000D01*
X117690000Y-137934100D01*
X117607632Y-137934100D01*
X117607632Y-137576724D01*
X117640000Y-137414000D01*
X117607632Y-137251276D01*
X117607632Y-136564000D01*
X117544876Y-136230480D01*
X117347766Y-135924162D01*
X117047010Y-135718664D01*
X116690000Y-135646368D01*
X115790000Y-135646368D01*
X115456480Y-135709124D01*
X115150162Y-135906234D01*
X115076529Y-136014000D01*
X113115673Y-136014000D01*
X113334617Y-135359408D01*
X113284586Y-134645074D01*
X113107474Y-134217486D01*
X112767415Y-134157427D01*
X111796843Y-135128000D01*
X111810985Y-135142142D01*
X111528142Y-135424985D01*
X111514000Y-135410843D01*
X111499858Y-135424985D01*
X111217015Y-135142142D01*
X111231157Y-135128000D01*
X110260585Y-134157427D01*
X109920526Y-134217486D01*
X109693383Y-134896592D01*
X109743414Y-135610926D01*
X109910372Y-136014000D01*
X109379899Y-136014000D01*
X108214244Y-134848346D01*
X108214294Y-134791333D01*
X107956030Y-134166285D01*
X107664839Y-133874585D01*
X110543427Y-133874585D01*
X111514000Y-134845157D01*
X112484573Y-133874585D01*
X112424514Y-133534526D01*
X111745408Y-133307383D01*
X111031074Y-133357414D01*
X110603486Y-133534526D01*
X110543427Y-133874585D01*
X107664839Y-133874585D01*
X107478230Y-133687650D01*
X106853634Y-133428296D01*
X106177333Y-133427706D01*
X105552285Y-133685970D01*
X105073650Y-134163770D01*
X104814296Y-134788366D01*
X104813706Y-135464667D01*
X105071970Y-136089715D01*
X105549770Y-136568350D01*
X106174366Y-136827704D01*
X106233858Y-136827756D01*
X107340201Y-137934100D01*
X103805298Y-137934100D01*
X103565249Y-137694051D01*
X103295281Y-137513664D01*
X103111057Y-137390569D01*
X102575300Y-137284000D01*
X102190489Y-137284000D01*
X102434838Y-137126766D01*
X102640336Y-136826010D01*
X102712632Y-136469000D01*
X102712632Y-135819000D01*
X102649876Y-135485480D01*
X102452766Y-135179162D01*
X102152010Y-134973664D01*
X101795000Y-134901368D01*
X100764600Y-134901368D01*
X100764600Y-132069632D01*
X101468000Y-132069632D01*
X101801520Y-132006876D01*
X102107838Y-131809766D01*
X102313336Y-131509010D01*
X102385632Y-131152000D01*
X102385632Y-129452000D01*
X102322876Y-129118480D01*
X102125766Y-128812162D01*
X101825010Y-128606664D01*
X101468000Y-128534368D01*
X100568000Y-128534368D01*
X100234480Y-128597124D01*
X99928162Y-128794234D01*
X99722664Y-129094990D01*
X99689619Y-129258173D01*
X99667181Y-129262636D01*
X99474256Y-129391544D01*
X99422876Y-129118480D01*
X99225766Y-128812162D01*
X98925010Y-128606664D01*
X98568000Y-128534368D01*
X97668000Y-128534368D01*
X97334480Y-128597124D01*
X97092453Y-128752864D01*
X96933699Y-128686943D01*
X96376744Y-128686457D01*
X95862000Y-128899145D01*
X95467830Y-129292628D01*
X95295300Y-129708125D01*
X95295300Y-126112298D01*
X96832368Y-124575230D01*
X96832368Y-124900000D01*
X96895124Y-125233520D01*
X97092234Y-125539838D01*
X97392990Y-125745336D01*
X97600000Y-125787256D01*
X97600000Y-125900300D01*
X97706569Y-126436057D01*
X97967008Y-126825831D01*
X98010051Y-126890249D01*
X99132751Y-128012950D01*
X99586944Y-128316432D01*
X100122700Y-128423000D01*
X104926146Y-128423000D01*
X104814296Y-128692366D01*
X104813706Y-129368667D01*
X105071970Y-129993715D01*
X105549770Y-130472350D01*
X106174366Y-130731704D01*
X106850667Y-130732294D01*
X107475715Y-130474030D01*
X107664659Y-130285415D01*
X110543427Y-130285415D01*
X110603486Y-130625474D01*
X111282592Y-130852617D01*
X111996926Y-130802586D01*
X112424514Y-130625474D01*
X112484573Y-130285415D01*
X111514000Y-129314843D01*
X110543427Y-130285415D01*
X107664659Y-130285415D01*
X107954350Y-129996230D01*
X108213704Y-129371634D01*
X108214202Y-128800592D01*
X109693383Y-128800592D01*
X109743414Y-129514926D01*
X109920526Y-129942514D01*
X110260585Y-130002573D01*
X111231157Y-129032000D01*
X111796843Y-129032000D01*
X112767415Y-130002573D01*
X113107474Y-129942514D01*
X113238759Y-129550000D01*
X114355000Y-129550000D01*
X114355000Y-131013912D01*
X114507241Y-131381454D01*
X114788545Y-131662759D01*
X115156087Y-131815000D01*
X115800000Y-131815000D01*
X116050000Y-131565000D01*
X116050000Y-129300000D01*
X114605000Y-129300000D01*
X114355000Y-129550000D01*
X113238759Y-129550000D01*
X113334617Y-129263408D01*
X113284586Y-128549074D01*
X113107474Y-128121486D01*
X112767415Y-128061427D01*
X111796843Y-129032000D01*
X111231157Y-129032000D01*
X110260585Y-128061427D01*
X109920526Y-128121486D01*
X109693383Y-128800592D01*
X108214202Y-128800592D01*
X108214294Y-128695333D01*
X107956030Y-128070285D01*
X107914000Y-128028182D01*
X107914000Y-127778585D01*
X110543427Y-127778585D01*
X111514000Y-128749157D01*
X112484573Y-127778585D01*
X112424514Y-127438526D01*
X111745408Y-127211383D01*
X111031074Y-127261414D01*
X110603486Y-127438526D01*
X110543427Y-127778585D01*
X107914000Y-127778585D01*
X107914000Y-127466804D01*
X107943431Y-127422757D01*
X107990507Y-127186088D01*
X114355000Y-127186088D01*
X114355000Y-128650000D01*
X114605000Y-128900000D01*
X116050000Y-128900000D01*
X116050000Y-126635000D01*
X115800000Y-126385000D01*
X115156087Y-126385000D01*
X114788545Y-126537241D01*
X114507241Y-126818546D01*
X114355000Y-127186088D01*
X107990507Y-127186088D01*
X108050000Y-126887000D01*
X108050000Y-126245408D01*
X108233520Y-126210876D01*
X108539838Y-126013766D01*
X108745336Y-125713010D01*
X108799353Y-125446266D01*
X108845124Y-125689520D01*
X109042234Y-125995838D01*
X109342990Y-126201336D01*
X109700000Y-126273632D01*
X112200000Y-126273632D01*
X112533520Y-126210876D01*
X112839838Y-126013766D01*
X113045336Y-125713010D01*
X113067006Y-125606000D01*
X113200300Y-125606000D01*
X113736057Y-125499431D01*
X114190249Y-125195949D01*
X117239949Y-122146250D01*
X117496658Y-121762057D01*
X117543431Y-121692057D01*
X117650000Y-121156300D01*
X117650000Y-111381119D01*
X117855000Y-111422632D01*
G36*
X85598368Y-111894000D02*
X85661124Y-112227520D01*
X85858234Y-112533838D01*
X86029525Y-112650876D01*
X85386051Y-113294351D01*
X85082569Y-113748543D01*
X84976000Y-114284300D01*
X84976000Y-115365930D01*
X84958368Y-115453000D01*
X84958368Y-116703000D01*
X84976000Y-116796706D01*
X84976000Y-117703300D01*
X85082569Y-118239057D01*
X85386051Y-118693249D01*
X85840243Y-118996731D01*
X86376000Y-119103300D01*
X86463634Y-119103300D01*
X86495801Y-119116657D01*
X87052756Y-119117143D01*
X87567500Y-118904455D01*
X87961670Y-118510972D01*
X88175257Y-117996599D01*
X88175585Y-117620632D01*
X88876000Y-117620632D01*
X89209520Y-117557876D01*
X89512407Y-117362973D01*
X89644234Y-117567838D01*
X89944990Y-117773336D01*
X90302000Y-117845632D01*
X91202000Y-117845632D01*
X91535520Y-117782876D01*
X91841838Y-117585766D01*
X92047336Y-117285010D01*
X92119632Y-116928000D01*
X92119632Y-116528000D01*
X92202000Y-116528000D01*
X92202000Y-117126913D01*
X92354241Y-117494455D01*
X92635546Y-117775759D01*
X93003088Y-117928000D01*
X93202000Y-117928000D01*
X93452000Y-117678000D01*
X93452000Y-116278000D01*
X92452000Y-116278000D01*
X92202000Y-116528000D01*
X92119632Y-116528000D01*
X92119632Y-115228000D01*
X92082205Y-115029087D01*
X92202000Y-115029087D01*
X92202000Y-115628000D01*
X92452000Y-115878000D01*
X93452000Y-115878000D01*
X93452000Y-114478000D01*
X93202000Y-114228000D01*
X93003088Y-114228000D01*
X92635546Y-114380241D01*
X92354241Y-114661545D01*
X92202000Y-115029087D01*
X92082205Y-115029087D01*
X92056876Y-114894480D01*
X91859766Y-114588162D01*
X91559010Y-114382664D01*
X91202000Y-114310368D01*
X90302000Y-114310368D01*
X89968480Y-114373124D01*
X89662162Y-114570234D01*
X89508140Y-114795652D01*
X89233010Y-114607664D01*
X88876000Y-114535368D01*
X88104831Y-114535368D01*
X88755950Y-113884249D01*
X88976171Y-113554664D01*
X89059431Y-113430057D01*
X89166000Y-112894300D01*
X89166000Y-112783408D01*
X89349520Y-112748876D01*
X89655838Y-112551766D01*
X89861336Y-112251010D01*
X89915353Y-111984266D01*
X89961124Y-112227520D01*
X90158234Y-112533838D01*
X90458990Y-112739336D01*
X90816000Y-112811632D01*
X93316000Y-112811632D01*
X93649520Y-112748876D01*
X93754400Y-112681388D01*
X93754400Y-119657701D01*
X91534279Y-121877823D01*
X90932000Y-121758022D01*
X90243005Y-121895072D01*
X89662000Y-122283287D01*
X89080995Y-121895072D01*
X88392000Y-121758022D01*
X87703005Y-121895072D01*
X87118904Y-122285356D01*
X86728620Y-122869457D01*
X86690719Y-123060000D01*
X84300000Y-123060000D01*
X84300000Y-112811632D01*
X84426000Y-112811632D01*
X84759520Y-112748876D01*
X85065838Y-112551766D01*
X85271336Y-112251010D01*
X85343632Y-111894000D01*
X85343632Y-109993700D01*
X85598368Y-109993700D01*
X85598368Y-111894000D01*
X85598368Y-111894000D01*
G37*
X85598368Y-111894000D02*
X85661124Y-112227520D01*
X85858234Y-112533838D01*
X86029525Y-112650876D01*
X85386051Y-113294351D01*
X85082569Y-113748543D01*
X84976000Y-114284300D01*
X84976000Y-115365930D01*
X84958368Y-115453000D01*
X84958368Y-116703000D01*
X84976000Y-116796706D01*
X84976000Y-117703300D01*
X85082569Y-118239057D01*
X85386051Y-118693249D01*
X85840243Y-118996731D01*
X86376000Y-119103300D01*
X86463634Y-119103300D01*
X86495801Y-119116657D01*
X87052756Y-119117143D01*
X87567500Y-118904455D01*
X87961670Y-118510972D01*
X88175257Y-117996599D01*
X88175585Y-117620632D01*
X88876000Y-117620632D01*
X89209520Y-117557876D01*
X89512407Y-117362973D01*
X89644234Y-117567838D01*
X89944990Y-117773336D01*
X90302000Y-117845632D01*
X91202000Y-117845632D01*
X91535520Y-117782876D01*
X91841838Y-117585766D01*
X92047336Y-117285010D01*
X92119632Y-116928000D01*
X92119632Y-116528000D01*
X92202000Y-116528000D01*
X92202000Y-117126913D01*
X92354241Y-117494455D01*
X92635546Y-117775759D01*
X93003088Y-117928000D01*
X93202000Y-117928000D01*
X93452000Y-117678000D01*
X93452000Y-116278000D01*
X92452000Y-116278000D01*
X92202000Y-116528000D01*
X92119632Y-116528000D01*
X92119632Y-115228000D01*
X92082205Y-115029087D01*
X92202000Y-115029087D01*
X92202000Y-115628000D01*
X92452000Y-115878000D01*
X93452000Y-115878000D01*
X93452000Y-114478000D01*
X93202000Y-114228000D01*
X93003088Y-114228000D01*
X92635546Y-114380241D01*
X92354241Y-114661545D01*
X92202000Y-115029087D01*
X92082205Y-115029087D01*
X92056876Y-114894480D01*
X91859766Y-114588162D01*
X91559010Y-114382664D01*
X91202000Y-114310368D01*
X90302000Y-114310368D01*
X89968480Y-114373124D01*
X89662162Y-114570234D01*
X89508140Y-114795652D01*
X89233010Y-114607664D01*
X88876000Y-114535368D01*
X88104831Y-114535368D01*
X88755950Y-113884249D01*
X88976171Y-113554664D01*
X89059431Y-113430057D01*
X89166000Y-112894300D01*
X89166000Y-112783408D01*
X89349520Y-112748876D01*
X89655838Y-112551766D01*
X89861336Y-112251010D01*
X89915353Y-111984266D01*
X89961124Y-112227520D01*
X90158234Y-112533838D01*
X90458990Y-112739336D01*
X90816000Y-112811632D01*
X93316000Y-112811632D01*
X93649520Y-112748876D01*
X93754400Y-112681388D01*
X93754400Y-119657701D01*
X91534279Y-121877823D01*
X90932000Y-121758022D01*
X90243005Y-121895072D01*
X89662000Y-122283287D01*
X89080995Y-121895072D01*
X88392000Y-121758022D01*
X87703005Y-121895072D01*
X87118904Y-122285356D01*
X86728620Y-122869457D01*
X86690719Y-123060000D01*
X84300000Y-123060000D01*
X84300000Y-112811632D01*
X84426000Y-112811632D01*
X84759520Y-112748876D01*
X85065838Y-112551766D01*
X85271336Y-112251010D01*
X85343632Y-111894000D01*
X85343632Y-109993700D01*
X85598368Y-109993700D01*
X85598368Y-111894000D01*
M02*
