G04 #@! TF.FileFunction,Copper,L1,Top,Signal*
%FSLAX46Y46*%
G04 Gerber Fmt 4.6, Leading zero omitted, Abs format (unit mm)*
G04 Created by KiCad (PCBNEW 4.0.6-e0-6349~53~ubuntu16.04.1) date Mon Apr 24 12:36:15 2017*
%MOMM*%
%LPD*%
G01*
G04 APERTURE LIST*
%ADD10C,0.100000*%
%ADD11C,1.524000*%
%ADD12R,1.060000X0.650000*%
%ADD13R,1.700000X0.650000*%
%ADD14R,2.030000X1.270000*%
%ADD15R,1.700000X0.900000*%
%ADD16R,0.900000X1.700000*%
%ADD17R,2.500000X1.800000*%
%ADD18R,1.000000X1.250000*%
%ADD19R,1.550000X0.600000*%
%ADD20R,1.524000X1.524000*%
%ADD21R,1.600000X1.600000*%
%ADD22O,1.600000X1.600000*%
%ADD23C,2.500000*%
%ADD24R,1.780000X1.020000*%
%ADD25C,1.600000*%
%ADD26R,2.500000X2.300000*%
%ADD27C,1.300000*%
%ADD28R,1.300000X1.300000*%
%ADD29C,1.700000*%
%ADD30R,1.700000X1.700000*%
%ADD31O,1.506220X3.014980*%
%ADD32R,0.600000X0.450000*%
%ADD33O,1.800860X3.500120*%
%ADD34R,1.000000X3.200000*%
%ADD35R,0.900000X1.200000*%
%ADD36C,1.000000*%
%ADD37C,0.450000*%
%ADD38C,0.600000*%
%ADD39C,1.000000*%
G04 APERTURE END LIST*
D10*
D11*
X170434000Y-90932000D03*
X167894000Y-90932000D03*
X165354000Y-90932000D03*
X165354000Y-88392000D03*
X167894000Y-88392000D03*
X170434000Y-88392000D03*
X164084000Y-106934000D03*
X169164000Y-106934000D03*
X164084000Y-104394000D03*
X164084000Y-101854000D03*
X169164000Y-101854000D03*
D12*
X154262000Y-93152000D03*
X154262000Y-92202000D03*
X154262000Y-91252000D03*
X152062000Y-91252000D03*
X152062000Y-93152000D03*
X152062000Y-92202000D03*
D13*
X159098000Y-141351000D03*
X159098000Y-140081000D03*
X159098000Y-138811000D03*
X159098000Y-137541000D03*
X151798000Y-137541000D03*
X151798000Y-138811000D03*
X151798000Y-140081000D03*
X151798000Y-141351000D03*
D14*
X124333000Y-123444000D03*
X135763000Y-123444000D03*
X124333000Y-125944000D03*
X135763000Y-125944000D03*
X135763000Y-120944000D03*
X124333000Y-120944000D03*
D15*
X168148000Y-94054000D03*
X168148000Y-96954000D03*
X165354000Y-96954000D03*
X165354000Y-94054000D03*
D16*
X115242000Y-137160000D03*
X112342000Y-137160000D03*
X153088000Y-144018000D03*
X150188000Y-144018000D03*
X144600000Y-133350000D03*
X147500000Y-133350000D03*
X162634000Y-138684000D03*
X165534000Y-138684000D03*
X162634000Y-141732000D03*
X165534000Y-141732000D03*
X90752000Y-116078000D03*
X93652000Y-116078000D03*
D17*
X103918000Y-123952000D03*
X107918000Y-123952000D03*
X111538000Y-123952000D03*
X115538000Y-123952000D03*
X111538000Y-128270000D03*
X115538000Y-128270000D03*
D18*
X153654000Y-120904000D03*
X151654000Y-120904000D03*
X128508000Y-131826000D03*
X126508000Y-131826000D03*
X98900000Y-127100000D03*
X96900000Y-127100000D03*
X159274000Y-115062000D03*
X161274000Y-115062000D03*
D19*
X126586000Y-134747000D03*
X126586000Y-136017000D03*
X126586000Y-137287000D03*
X126586000Y-138557000D03*
X131986000Y-138557000D03*
X131986000Y-137287000D03*
X131986000Y-136017000D03*
X131986000Y-134747000D03*
D20*
X124968000Y-106934000D03*
D11*
X127508000Y-106934000D03*
X130048000Y-106934000D03*
X132588000Y-106934000D03*
D21*
X106426000Y-89154000D03*
D22*
X114046000Y-94234000D03*
X106426000Y-91694000D03*
X114046000Y-91694000D03*
X106426000Y-94234000D03*
X114046000Y-89154000D03*
D23*
X161036000Y-131064000D03*
X157226000Y-131064000D03*
X153416000Y-131064000D03*
D15*
X148336000Y-94308000D03*
X148336000Y-97208000D03*
D16*
X106246000Y-137160000D03*
X109146000Y-137160000D03*
X118438000Y-137160000D03*
X121338000Y-137160000D03*
X85672000Y-143002000D03*
X88572000Y-143002000D03*
D15*
X170942000Y-94054000D03*
X170942000Y-96954000D03*
D24*
X153416000Y-114680000D03*
X153416000Y-116460000D03*
D25*
X65800000Y-110000000D03*
X63500000Y-112500000D03*
X65500000Y-105900000D03*
D23*
X61214000Y-143256000D03*
X78994000Y-143256000D03*
X78994000Y-133350000D03*
X61214000Y-127000000D03*
X78994000Y-127000000D03*
X78994000Y-117094000D03*
D26*
X91304000Y-110744000D03*
X87004000Y-110744000D03*
X78876000Y-110744000D03*
X83176000Y-110744000D03*
X117484000Y-143764000D03*
X121784000Y-143764000D03*
D27*
X155646000Y-104902000D03*
D28*
X152146000Y-104902000D03*
D18*
X142986000Y-137414000D03*
X140986000Y-137414000D03*
X86376000Y-116078000D03*
X88376000Y-116078000D03*
X138160000Y-137414000D03*
X136160000Y-137414000D03*
D21*
X99060000Y-143510000D03*
D22*
X91440000Y-138430000D03*
X99060000Y-140970000D03*
X91440000Y-140970000D03*
X99060000Y-138430000D03*
X91440000Y-143510000D03*
D20*
X124968000Y-92964000D03*
D11*
X127508000Y-92964000D03*
X130048000Y-92964000D03*
X132588000Y-92964000D03*
D21*
X106426000Y-100330000D03*
D22*
X114046000Y-105410000D03*
X106426000Y-102870000D03*
X114046000Y-102870000D03*
X106426000Y-105410000D03*
X114046000Y-100330000D03*
D29*
X85100000Y-86360000D03*
X85090000Y-101566000D03*
X82560000Y-86360000D03*
X80020000Y-86360000D03*
D30*
X77480000Y-86370000D03*
D29*
X82560000Y-101566000D03*
X80020000Y-101566000D03*
D30*
X77480000Y-101566000D03*
D29*
X97790000Y-87480000D03*
X97790000Y-90020000D03*
X97790000Y-92560000D03*
X97790000Y-95100000D03*
X97790000Y-97640000D03*
D30*
X97790000Y-100180000D03*
D31*
X114300000Y-117602000D03*
X111760000Y-117602000D03*
D32*
X140174000Y-130048000D03*
X142274000Y-130048000D03*
X140174000Y-133096000D03*
X142274000Y-133096000D03*
D33*
X90932000Y-124460000D03*
X88392000Y-124460000D03*
D25*
X113538000Y-132080000D03*
X118538000Y-132080000D03*
D16*
X146992000Y-114554000D03*
X144092000Y-114554000D03*
D30*
X139446000Y-143764000D03*
X145542000Y-143764000D03*
X111760000Y-143764000D03*
X133350000Y-143764000D03*
X127254000Y-143764000D03*
D34*
X109930000Y-111506000D03*
X116130000Y-111506000D03*
D16*
X111686000Y-85852000D03*
X108786000Y-85852000D03*
D18*
X147812000Y-137414000D03*
X145812000Y-137414000D03*
D35*
X118744000Y-85852000D03*
X115444000Y-85852000D03*
D36*
X128416300Y-120040600D03*
X101731700Y-127752400D03*
X97458900Y-121398700D03*
X147500000Y-131635200D03*
X157187300Y-91734700D03*
X149144200Y-137269200D03*
X156186400Y-94056100D03*
D37*
X128508000Y-131826000D02*
X129513300Y-131826000D01*
X130705700Y-133018400D02*
X129513300Y-131826000D01*
X130705700Y-134747000D02*
X130705700Y-133018400D01*
X135763000Y-125944000D02*
X134242700Y-125944000D01*
X134242700Y-127096600D02*
X134242700Y-125944000D01*
X129513300Y-131826000D02*
X134242700Y-127096600D01*
X131986000Y-134747000D02*
X131345900Y-134747000D01*
X131345900Y-134747000D02*
X130705700Y-134747000D01*
X130705700Y-135387200D02*
X130705700Y-136017000D01*
X131345900Y-134747000D02*
X130705700Y-135387200D01*
X131986000Y-136017000D02*
X130705700Y-136017000D01*
D38*
X170434000Y-88392000D02*
X167894000Y-88392000D01*
X167894000Y-88392000D02*
X165354000Y-88392000D01*
X133350000Y-143764000D02*
X133350000Y-142333700D01*
X145812000Y-137414000D02*
X144731700Y-137414000D01*
X126586000Y-138557000D02*
X126586000Y-137287000D01*
X131986000Y-138557000D02*
X131308400Y-138557000D01*
X131986000Y-137287000D02*
X130630700Y-137287000D01*
X130630700Y-137879300D02*
X130630700Y-137287000D01*
X131308400Y-138557000D02*
X130630700Y-137879300D01*
X130481300Y-137287000D02*
X127941300Y-134747000D01*
X130630700Y-137287000D02*
X130481300Y-137287000D01*
X148336000Y-97208000D02*
X148336000Y-98238300D01*
X161274000Y-115062000D02*
X161274000Y-116267300D01*
X127527000Y-134747000D02*
X127941300Y-134747000D01*
X127527000Y-134050300D02*
X126508000Y-133031300D01*
X127527000Y-134747000D02*
X127527000Y-134050300D01*
X126508000Y-131826000D02*
X126508000Y-133031300D01*
X126849300Y-134747000D02*
X127527000Y-134747000D01*
X134484300Y-137414000D02*
X133341300Y-138557000D01*
X136160000Y-137414000D02*
X134484300Y-137414000D01*
X131986000Y-138557000D02*
X133341300Y-138557000D01*
X133341300Y-142325000D02*
X133350000Y-142333700D01*
X133341300Y-138557000D02*
X133341300Y-142325000D01*
X151654000Y-120904000D02*
X150573700Y-120904000D01*
X165534000Y-138684000D02*
X164503700Y-138684000D01*
X152859400Y-122109400D02*
X155431900Y-122109400D01*
X151654000Y-120904000D02*
X152859400Y-122109400D01*
X155431900Y-122109400D02*
X161274000Y-116267300D01*
X159098000Y-141351000D02*
X160528300Y-141351000D01*
X162868800Y-129546300D02*
X162868800Y-137233600D01*
X155431900Y-122109400D02*
X162868800Y-129546300D01*
X163325400Y-137233600D02*
X162868800Y-137233600D01*
X164503700Y-138411900D02*
X163325400Y-137233600D01*
X164503700Y-138684000D02*
X164503700Y-138411900D01*
X161431200Y-140448100D02*
X160528300Y-141351000D01*
X161431200Y-137739400D02*
X161431200Y-140448100D01*
X161937000Y-137233600D02*
X161431200Y-137739400D01*
X162868800Y-137233600D02*
X161937000Y-137233600D01*
X149318300Y-122159400D02*
X150573700Y-120904000D01*
X134432400Y-122159400D02*
X149318300Y-122159400D01*
X134167600Y-121894600D02*
X134432400Y-122159400D01*
X134167600Y-120040600D02*
X134167600Y-121894600D01*
X126849300Y-134747000D02*
X126586000Y-134747000D01*
X125230700Y-134747000D02*
X125230700Y-137287000D01*
X126586000Y-134747000D02*
X125230700Y-134747000D01*
X126586000Y-137287000D02*
X125230700Y-137287000D01*
X139654200Y-114554000D02*
X134167600Y-120040600D01*
X144092000Y-114554000D02*
X139654200Y-114554000D01*
X149984600Y-99886800D02*
X148336000Y-98238300D01*
X150630800Y-99886800D02*
X155646000Y-104902000D01*
X149984600Y-99886800D02*
X150630800Y-99886800D01*
X144092000Y-105779400D02*
X149984600Y-99886800D01*
X144092000Y-114554000D02*
X144092000Y-105779400D01*
X96900000Y-138810000D02*
X96900000Y-127100000D01*
X99060000Y-140970000D02*
X96900000Y-138810000D01*
X134167600Y-120040600D02*
X128416300Y-120040600D01*
X81406000Y-97640000D02*
X77480000Y-101566000D01*
X97790000Y-97640000D02*
X81406000Y-97640000D01*
X65294500Y-112500000D02*
X63500000Y-112500000D01*
X76049700Y-101744800D02*
X65294500Y-112500000D01*
X76049700Y-101566000D02*
X76049700Y-101744800D01*
X77480000Y-101566000D02*
X76049700Y-101566000D01*
X160931000Y-92815000D02*
X165354000Y-88392000D01*
X156739800Y-92815000D02*
X160931000Y-92815000D01*
X156126800Y-92202000D02*
X156739800Y-92815000D01*
X154262000Y-92202000D02*
X156126800Y-92202000D01*
X142191400Y-138619400D02*
X140986000Y-137414000D01*
X143796400Y-138619400D02*
X142191400Y-138619400D01*
X144731700Y-137684100D02*
X143796400Y-138619400D01*
X144731700Y-137414000D02*
X144731700Y-137684100D01*
X137365400Y-136208600D02*
X136160000Y-137414000D01*
X139780600Y-136208600D02*
X137365400Y-136208600D01*
X140986000Y-137414000D02*
X139780600Y-136208600D01*
D37*
X153416000Y-116460000D02*
X153416000Y-117475300D01*
X135763000Y-120944000D02*
X137283300Y-120944000D01*
X153416000Y-117475300D02*
X153416000Y-119308600D01*
X153654000Y-119546600D02*
X153416000Y-119308600D01*
X153654000Y-120904000D02*
X153654000Y-119546600D01*
X138918700Y-119308600D02*
X137283300Y-120944000D01*
X153416000Y-119308600D02*
X138918700Y-119308600D01*
D39*
X91440000Y-138430000D02*
X91440000Y-136629700D01*
X111538000Y-123952000D02*
X111538000Y-125852300D01*
X97507700Y-123952000D02*
X103918000Y-123952000D01*
X91440000Y-130019700D02*
X97507700Y-123952000D01*
X91440000Y-136629700D02*
X91440000Y-130019700D01*
X105818300Y-125852300D02*
X111538000Y-125852300D01*
X103918000Y-123952000D02*
X105818300Y-125852300D01*
X111760000Y-143764000D02*
X117484000Y-143764000D01*
X118438000Y-137160000D02*
X118438000Y-135309700D01*
X115538000Y-124247800D02*
X115538000Y-123952000D01*
X111538000Y-128247800D02*
X115538000Y-124247800D01*
X111538000Y-128270000D02*
X111538000Y-128247800D01*
X115208300Y-132080000D02*
X113538000Y-132080000D01*
X118438000Y-135309700D02*
X115208300Y-132080000D01*
X111628300Y-130170300D02*
X111538000Y-130170300D01*
X113538000Y-132080000D02*
X111628300Y-130170300D01*
X111538000Y-128270000D02*
X111538000Y-130170300D01*
D37*
X96419300Y-93729300D02*
X97790000Y-95100000D01*
X96419300Y-86921900D02*
X96419300Y-93729300D01*
X99584300Y-83756900D02*
X96419300Y-86921900D01*
X168720700Y-83756900D02*
X99584300Y-83756900D01*
X172439200Y-87475400D02*
X168720700Y-83756900D01*
X172439200Y-94580400D02*
X172439200Y-87475400D01*
X171515600Y-95504000D02*
X172439200Y-94580400D01*
X170376400Y-95504000D02*
X171515600Y-95504000D01*
X169503400Y-96377000D02*
X170376400Y-95504000D01*
X169503400Y-97676500D02*
X169503400Y-96377000D01*
X169270500Y-97909400D02*
X169503400Y-97676500D01*
X164281400Y-97909400D02*
X169270500Y-97909400D01*
X163998600Y-97626600D02*
X164281400Y-97909400D01*
X163998600Y-96245300D02*
X163998600Y-97626600D01*
X165234600Y-95009300D02*
X163998600Y-96245300D01*
X165354000Y-95009300D02*
X165234600Y-95009300D01*
X165354000Y-94054000D02*
X165354000Y-95009300D01*
X109146000Y-135166700D02*
X109146000Y-137160000D01*
X101731700Y-127752400D02*
X109146000Y-135166700D01*
X112342000Y-137160000D02*
X111386700Y-137160000D01*
X109146000Y-137160000D02*
X111386700Y-137160000D01*
X114046000Y-102870000D02*
X115351300Y-102870000D01*
X165356600Y-103121400D02*
X164084000Y-104394000D01*
X165356600Y-101282600D02*
X165356600Y-103121400D01*
X160302800Y-96228800D02*
X165356600Y-101282600D01*
X136738100Y-96228800D02*
X160302800Y-96228800D01*
X130096900Y-102870000D02*
X136738100Y-96228800D01*
X115351300Y-102870000D02*
X130096900Y-102870000D01*
D39*
X76625700Y-111588300D02*
X76625700Y-110744000D01*
X61214000Y-127000000D02*
X76625700Y-111588300D01*
X78876000Y-110744000D02*
X76625700Y-110744000D01*
X78876000Y-110744000D02*
X78876000Y-108593700D01*
X93652000Y-116078000D02*
X93652000Y-109256800D01*
X92988900Y-108593700D02*
X78876000Y-108593700D01*
X93652000Y-109256800D02*
X92988900Y-108593700D01*
X124333000Y-125944000D02*
X122317700Y-125944000D01*
X127254000Y-143764000D02*
X121784000Y-143764000D01*
X94212500Y-108696300D02*
X93652000Y-109256800D01*
X128285700Y-108696300D02*
X94212500Y-108696300D01*
X130048000Y-106934000D02*
X128285700Y-108696300D01*
X118538000Y-129723700D02*
X122317700Y-125944000D01*
X118538000Y-132080000D02*
X118538000Y-129723700D01*
X121338000Y-134880000D02*
X121338000Y-137160000D01*
X118538000Y-132080000D02*
X121338000Y-134880000D01*
X91304000Y-110744000D02*
X91304000Y-112894300D01*
X87934400Y-112894300D02*
X91304000Y-112894300D01*
X86376000Y-114452700D02*
X87934400Y-112894300D01*
X86376000Y-116078000D02*
X86376000Y-114452700D01*
X86491300Y-117818600D02*
X86376000Y-117703300D01*
X86491300Y-124460000D02*
X86491300Y-117818600D01*
X86376000Y-116078000D02*
X86376000Y-117703300D01*
X88392000Y-124460000D02*
X87294100Y-124460000D01*
X87294100Y-124460000D02*
X86491300Y-124460000D01*
X84754100Y-127000000D02*
X78994000Y-127000000D01*
X87294100Y-124460000D02*
X84754100Y-127000000D01*
D37*
X145542000Y-143764000D02*
X146897300Y-143764000D01*
X159098000Y-138811000D02*
X157742700Y-138811000D01*
X154286600Y-145373400D02*
X157742600Y-141917400D01*
X148506700Y-145373400D02*
X154286600Y-145373400D01*
X146897300Y-143764000D02*
X148506700Y-145373400D01*
X158912600Y-143087400D02*
X157742600Y-141917400D01*
X163342700Y-143087400D02*
X158912600Y-143087400D01*
X164578700Y-141851400D02*
X163342700Y-143087400D01*
X164578700Y-141732000D02*
X164578700Y-141851400D01*
X157742600Y-138811100D02*
X157742700Y-138811000D01*
X157742600Y-141917400D02*
X157742600Y-138811100D01*
X165534000Y-141732000D02*
X164578700Y-141732000D01*
X154262000Y-91252000D02*
X153226700Y-91252000D01*
X153226700Y-90836800D02*
X153226700Y-91252000D01*
X152811600Y-90421700D02*
X153226700Y-90836800D01*
X140569100Y-90421700D02*
X152811600Y-90421700D01*
X133082900Y-97907900D02*
X140569100Y-90421700D01*
X106169800Y-97907900D02*
X133082900Y-97907900D01*
X102542300Y-101535400D02*
X106169800Y-97907900D01*
X87663600Y-101535400D02*
X102542300Y-101535400D01*
X86285800Y-100157600D02*
X87663600Y-101535400D01*
X83968400Y-100157600D02*
X86285800Y-100157600D01*
X82560000Y-101566000D02*
X83968400Y-100157600D01*
X162634000Y-141732000D02*
X163589300Y-141732000D01*
X162634000Y-138684000D02*
X163589300Y-138684000D01*
X126586000Y-136017000D02*
X127866300Y-136017000D01*
X163589300Y-138684000D02*
X163589300Y-140298500D01*
X163589300Y-140298500D02*
X163589300Y-141732000D01*
X127866300Y-139421000D02*
X127770700Y-139516600D01*
X127866300Y-136017000D02*
X127866300Y-139421000D01*
X166121500Y-140298500D02*
X163589300Y-140298500D01*
X166489400Y-140666400D02*
X166121500Y-140298500D01*
X166489400Y-142794000D02*
X166489400Y-140666400D01*
X163172100Y-146111300D02*
X166489400Y-142794000D01*
X133218700Y-146111300D02*
X163172100Y-146111300D01*
X127770700Y-140663300D02*
X133218700Y-146111300D01*
X127770700Y-139516600D02*
X127770700Y-140663300D01*
X98900000Y-127100000D02*
X99905300Y-127100000D01*
X100258200Y-126747100D02*
X99905300Y-127100000D01*
X103959200Y-126747100D02*
X100258200Y-126747100D01*
X113578400Y-136366300D02*
X103959200Y-126747100D01*
X113578400Y-137522800D02*
X113578400Y-136366300D01*
X115572200Y-139516600D02*
X113578400Y-137522800D01*
X127770700Y-139516600D02*
X115572200Y-139516600D01*
X148532200Y-139451500D02*
X150442700Y-137541000D01*
X141077100Y-139451500D02*
X148532200Y-139451500D01*
X139165300Y-137539700D02*
X141077100Y-139451500D01*
X139165300Y-137414000D02*
X139165300Y-137539700D01*
X138160000Y-137414000D02*
X139165300Y-137414000D01*
X151798000Y-137541000D02*
X150442700Y-137541000D01*
X88376000Y-116078000D02*
X90752000Y-116078000D01*
X149677400Y-143507400D02*
X150188000Y-144018000D01*
X149677400Y-139576300D02*
X149677400Y-143507400D01*
X150442700Y-138811000D02*
X149677400Y-139576300D01*
X151798000Y-138811000D02*
X150442700Y-138811000D01*
X142274000Y-130048000D02*
X142274000Y-130778300D01*
X142986000Y-137414000D02*
X142986000Y-136283700D01*
X153153300Y-137003100D02*
X153153300Y-138811000D01*
X152291900Y-136141700D02*
X153153300Y-137003100D01*
X143128000Y-136141700D02*
X152291900Y-136141700D01*
X143128000Y-131632300D02*
X143128000Y-136141700D01*
X142274000Y-130778300D02*
X143128000Y-131632300D01*
X143128000Y-136141700D02*
X142986000Y-136283700D01*
X151798000Y-138811000D02*
X153153300Y-138811000D01*
D39*
X115538000Y-128270000D02*
X115538000Y-126369700D01*
X124333000Y-120944000D02*
X122317700Y-120944000D01*
X116892000Y-126369700D02*
X122317700Y-120944000D01*
X115538000Y-126369700D02*
X116892000Y-126369700D01*
X110917900Y-115094200D02*
X111760000Y-115094200D01*
X109930000Y-114106300D02*
X110917900Y-115094200D01*
X109930000Y-111506000D02*
X109930000Y-114106300D01*
X111760000Y-117602000D02*
X111760000Y-115094200D01*
X107918000Y-119690600D02*
X110006600Y-117602000D01*
X107918000Y-123952000D02*
X107918000Y-119690600D01*
X111760000Y-117602000D02*
X110006600Y-117602000D01*
D37*
X140174000Y-133096000D02*
X140174000Y-130048000D01*
X140174000Y-130048000D02*
X140174000Y-129317700D01*
X159098000Y-140081000D02*
X160453300Y-140081000D01*
X148586400Y-129317700D02*
X140174000Y-129317700D01*
X152100900Y-132832200D02*
X148586400Y-129317700D01*
X156288400Y-132832200D02*
X152100900Y-132832200D01*
X160453300Y-136997100D02*
X156288400Y-132832200D01*
X160453300Y-140081000D02*
X160453300Y-136997100D01*
X116197300Y-137279400D02*
X116197300Y-137160000D01*
X117678700Y-138760800D02*
X116197300Y-137279400D01*
X122079700Y-138760800D02*
X117678700Y-138760800D01*
X123099400Y-137741100D02*
X122079700Y-138760800D01*
X123099400Y-133349000D02*
X123099400Y-137741100D01*
X131644800Y-124803600D02*
X123099400Y-133349000D01*
X136988300Y-124803600D02*
X131644800Y-124803600D01*
X139368600Y-127183900D02*
X136988300Y-124803600D01*
X139368600Y-133554500D02*
X139368600Y-127183900D01*
X139640400Y-133826300D02*
X139368600Y-133554500D01*
X142274000Y-133826300D02*
X139640400Y-133826300D01*
X142274000Y-133096000D02*
X142274000Y-133826300D01*
X115242000Y-137160000D02*
X116197300Y-137160000D01*
D39*
X83176000Y-110744000D02*
X87004000Y-110744000D01*
D37*
X170942000Y-91440000D02*
X170434000Y-90932000D01*
X170942000Y-94054000D02*
X170942000Y-91440000D01*
X168148000Y-91186000D02*
X167894000Y-90932000D01*
X168148000Y-94054000D02*
X168148000Y-91186000D01*
X166748900Y-92326900D02*
X165354000Y-90932000D01*
X166748900Y-94723200D02*
X166748900Y-92326900D01*
X165473400Y-95998700D02*
X166748900Y-94723200D01*
X165354000Y-95998700D02*
X165473400Y-95998700D01*
X165354000Y-96954000D02*
X165354000Y-95998700D01*
X84462700Y-143256000D02*
X84716700Y-143002000D01*
X78994000Y-143256000D02*
X84462700Y-143256000D01*
X85672000Y-143002000D02*
X84716700Y-143002000D01*
X168224200Y-95998700D02*
X168148000Y-95998700D01*
X169503400Y-94719500D02*
X168224200Y-95998700D01*
X169503400Y-92187800D02*
X169503400Y-94719500D01*
X169166600Y-91851000D02*
X169503400Y-92187800D01*
X169166600Y-90337500D02*
X169166600Y-91851000D01*
X169842100Y-89662000D02*
X169166600Y-90337500D01*
X170968200Y-89662000D02*
X169842100Y-89662000D01*
X171701400Y-88928800D02*
X170968200Y-89662000D01*
X171701400Y-87865700D02*
X171701400Y-88928800D01*
X170931800Y-87096100D02*
X171701400Y-87865700D01*
X119949200Y-87096100D02*
X170931800Y-87096100D01*
X115351300Y-91694000D02*
X119949200Y-87096100D01*
X114046000Y-91694000D02*
X115351300Y-91694000D01*
X168148000Y-96954000D02*
X168148000Y-95998700D01*
X150442700Y-141941400D02*
X150442700Y-140081000D01*
X152132700Y-143631400D02*
X150442700Y-141941400D01*
X152132700Y-144018000D02*
X152132700Y-143631400D01*
X153088000Y-144018000D02*
X152132700Y-144018000D01*
X151798000Y-140081000D02*
X150442700Y-140081000D01*
X144600000Y-133350000D02*
X145555300Y-133350000D01*
X151798000Y-140081000D02*
X153153300Y-140081000D01*
X145555300Y-133469400D02*
X145555300Y-133350000D01*
X146961700Y-134875800D02*
X145555300Y-133469400D01*
X152058900Y-134875800D02*
X146961700Y-134875800D01*
X153883600Y-136700500D02*
X152058900Y-134875800D01*
X153883600Y-139350700D02*
X153883600Y-136700500D01*
X153153300Y-140081000D02*
X153883600Y-139350700D01*
X88572000Y-130285600D02*
X97458900Y-121398700D01*
X88572000Y-143002000D02*
X88572000Y-130285600D01*
X100365300Y-142085400D02*
X105290700Y-137160000D01*
X100365300Y-143510000D02*
X100365300Y-142085400D01*
X99060000Y-143510000D02*
X100365300Y-143510000D01*
X106246000Y-137160000D02*
X105290700Y-137160000D01*
X149486700Y-92202000D02*
X152062000Y-92202000D01*
X148336000Y-93352700D02*
X149486700Y-92202000D01*
X148336000Y-94308000D02*
X148336000Y-93352700D01*
X103446700Y-90020000D02*
X105120700Y-91694000D01*
X97790000Y-90020000D02*
X103446700Y-90020000D01*
X106426000Y-91694000D02*
X105120700Y-91694000D01*
D39*
X115142100Y-115094200D02*
X114300000Y-115094200D01*
X116130000Y-114106300D02*
X115142100Y-115094200D01*
X114300000Y-117602000D02*
X114300000Y-115094200D01*
X116130000Y-111506000D02*
X116130000Y-112806100D01*
X116130000Y-112806100D02*
X116130000Y-114106300D01*
X126715900Y-112806100D02*
X132588000Y-106934000D01*
X116130000Y-112806100D02*
X126715900Y-112806100D01*
D37*
X115351300Y-88289400D02*
X115351300Y-89154000D01*
X117788700Y-85852000D02*
X115351300Y-88289400D01*
X118744000Y-85852000D02*
X117788700Y-85852000D01*
X114046000Y-89154000D02*
X115351300Y-89154000D01*
X125984000Y-105410000D02*
X114046000Y-105410000D01*
X127508000Y-106934000D02*
X125984000Y-105410000D01*
X152146000Y-104902000D02*
X152146000Y-106057300D01*
X159098000Y-137541000D02*
X157742700Y-137541000D01*
X147500000Y-131635200D02*
X147500000Y-133350000D01*
X147500000Y-133350000D02*
X148455300Y-133350000D01*
X151798000Y-141351000D02*
X153153300Y-141351000D01*
X155623900Y-137541000D02*
X157742700Y-137541000D01*
X155623900Y-138880400D02*
X155623900Y-137541000D01*
X153153300Y-141351000D02*
X155623900Y-138880400D01*
X152290900Y-114680000D02*
X153416000Y-114680000D01*
X151061500Y-115909400D02*
X152290900Y-114680000D01*
X146326400Y-115909400D02*
X151061500Y-115909400D01*
X146036600Y-115619600D02*
X146326400Y-115909400D01*
X146036600Y-112166700D02*
X146036600Y-115619600D01*
X152146000Y-106057300D02*
X146036600Y-112166700D01*
X157886700Y-114680000D02*
X158268700Y-115062000D01*
X153416000Y-114680000D02*
X157886700Y-114680000D01*
X126238000Y-94234000D02*
X114046000Y-94234000D01*
X127508000Y-92964000D02*
X126238000Y-94234000D01*
X159274000Y-115062000D02*
X158771400Y-115062000D01*
X158771400Y-115062000D02*
X158268700Y-115062000D01*
X152062000Y-93152000D02*
X153097300Y-93152000D01*
X166087300Y-107746100D02*
X166087300Y-99613200D01*
X158771400Y-115062000D02*
X166087300Y-107746100D01*
X169238100Y-99613200D02*
X166087300Y-99613200D01*
X170942000Y-97909300D02*
X169238100Y-99613200D01*
X153097300Y-93567200D02*
X153097300Y-93152000D01*
X154941000Y-95410900D02*
X153097300Y-93567200D01*
X160517800Y-95410900D02*
X154941000Y-95410900D01*
X164720100Y-99613200D02*
X160517800Y-95410900D01*
X166087300Y-99613200D02*
X164720100Y-99613200D01*
X170942000Y-96954000D02*
X170942000Y-97909300D01*
X151565900Y-133350000D02*
X148455300Y-133350000D01*
X155623900Y-137408000D02*
X151565900Y-133350000D01*
X155623900Y-137541000D02*
X155623900Y-137408000D01*
X107830700Y-86444000D02*
X106426000Y-87848700D01*
X107830700Y-85852000D02*
X107830700Y-86444000D01*
X108786000Y-85852000D02*
X107830700Y-85852000D01*
X106426000Y-89154000D02*
X106426000Y-87848700D01*
X100809600Y-95579600D02*
X97790000Y-92560000D01*
X131776600Y-95579600D02*
X100809600Y-95579600D01*
X137664900Y-89691300D02*
X131776600Y-95579600D01*
X155143900Y-89691300D02*
X137664900Y-89691300D01*
X157187300Y-91734700D02*
X155143900Y-89691300D01*
X151384000Y-114554000D02*
X164084000Y-101854000D01*
X146992000Y-114554000D02*
X151384000Y-114554000D01*
X148999400Y-137414000D02*
X149144200Y-137269200D01*
X147812000Y-137414000D02*
X148999400Y-137414000D01*
X155297300Y-93167000D02*
X155297300Y-93152000D01*
X156186400Y-94056100D02*
X155297300Y-93167000D01*
X154262000Y-93152000D02*
X155297300Y-93152000D01*
X115444000Y-85852000D02*
X111686000Y-85852000D01*
X111686000Y-85852000D02*
X110730700Y-85852000D01*
X110730700Y-85732600D02*
X110730700Y-85852000D01*
X109494700Y-84496600D02*
X110730700Y-85732600D01*
X100773400Y-84496600D02*
X109494700Y-84496600D01*
X97790000Y-87480000D02*
X100773400Y-84496600D01*
M02*
