M48
;DRILL file {KiCad 4.0.5-e0-6337~49~ubuntu14.04.1} date Tue Feb  7 11:28:13 2017
;FORMAT={-:-/ absolute / metric / decimal}
FMAT,2
METRIC,TZ
T1C0.400
T2C0.500
T3C0.635
T4C0.800
T5C0.998
T6C1.100
T7C1.199
T8C1.200
T9C1.450
T10C1.800
%
G90
G05
M71
T1
X92.458Y-132.002
X95.427Y-107.516
X107.696Y-136.607
X108.096Y-127.938
X115.221Y-110.331
X117.103Y-138.515
X122.641Y-137.638
X130.487Y-133.826
X134.721Y-95.787
X137.513Y-107.257
X141.056Y-116.033
X152.209Y-92.202
X156.129Y-141.351
X156.714Y-92.202
X157.403Y-93.152
X162.306Y-143.232
X163.043Y-94.057
X170.688Y-97.984
T2
X124.968Y-92.964
X124.968Y-106.934
X127.508Y-92.964
X127.508Y-106.934
X130.048Y-92.964
X130.048Y-106.934
X132.588Y-92.964
X132.588Y-106.934
T3
X111.76Y-143.764
X134.62Y-143.764
X140.208Y-143.764
X157.734Y-136.906
T4
X91.44Y-138.43
X91.44Y-140.97
X91.44Y-143.51
X99.06Y-138.43
X99.06Y-140.97
X99.06Y-143.51
X106.426Y-89.154
X106.426Y-91.694
X106.426Y-94.234
X106.426Y-100.33
X106.426Y-102.87
X106.426Y-105.41
X114.046Y-89.154
X114.046Y-91.694
X114.046Y-94.234
X114.046Y-100.33
X114.046Y-102.87
X114.046Y-105.41
X152.146Y-104.902
X155.646Y-104.902
X164.084Y-101.854
X164.084Y-104.394
X164.084Y-106.934
T5
X111.76Y-117.602
X114.3Y-117.602
T6
X63.5Y-112.5
X65.5Y-105.9
X65.8Y-110.
X165.354Y-88.392
X165.354Y-90.932
X167.894Y-88.392
X167.894Y-90.932
X170.434Y-88.392
X170.434Y-90.932
T7
X88.392Y-124.46
X90.932Y-124.46
T8
X77.48Y-86.37
X77.48Y-101.566
X80.02Y-86.36
X80.02Y-101.566
X82.56Y-86.36
X82.56Y-101.566
X85.09Y-101.566
X85.1Y-86.36
X97.79Y-87.48
X97.79Y-90.02
X97.79Y-92.56
X97.79Y-95.1
X97.79Y-97.64
X97.79Y-100.18
T9
X61.214Y-127.
X61.214Y-143.256
X78.994Y-117.094
X78.994Y-127.
X78.994Y-133.35
X78.994Y-143.256
T10
X153.416Y-131.064
X157.226Y-131.064
X161.036Y-131.064
T0
M30
