G04 #@! TF.FileFunction,Soldermask,Top*
%FSLAX46Y46*%
G04 Gerber Fmt 4.6, Leading zero omitted, Abs format (unit mm)*
G04 Created by KiCad (PCBNEW 4.0.5-e0-6337~49~ubuntu14.04.1) date Mon Feb  6 21:45:33 2017*
%MOMM*%
%LPD*%
G01*
G04 APERTURE LIST*
%ADD10C,0.100000*%
%ADD11C,3.100000*%
%ADD12C,1.924000*%
%ADD13R,1.460000X1.050000*%
%ADD14R,2.100000X1.050000*%
%ADD15R,2.430000X1.670000*%
%ADD16R,2.100000X1.300000*%
%ADD17R,1.300000X2.100000*%
%ADD18R,2.900000X2.200000*%
%ADD19R,1.400000X1.650000*%
%ADD20C,1.543000*%
%ADD21R,1.950000X1.000000*%
%ADD22R,1.924000X1.924000*%
%ADD23R,2.000000X2.000000*%
%ADD24O,2.000000X2.000000*%
%ADD25C,2.200000*%
%ADD26C,2.900000*%
%ADD27R,2.180000X1.420000*%
%ADD28C,2.000000*%
%ADD29C,3.650000*%
%ADD30R,1.300000X1.600000*%
%ADD31R,2.900000X2.700000*%
%ADD32C,1.700000*%
%ADD33R,1.700000X1.700000*%
%ADD34C,2.400000*%
%ADD35C,2.100000*%
%ADD36R,2.100000X2.100000*%
%ADD37O,1.906220X3.414980*%
%ADD38R,1.000000X0.850000*%
%ADD39O,2.200860X3.900120*%
%ADD40C,10.500360*%
G04 APERTURE END LIST*
D10*
D11*
X170180000Y-80772000D03*
X170180000Y-148844000D03*
X60960000Y-148844000D03*
D12*
X170434000Y-90932000D03*
X167894000Y-90932000D03*
X165354000Y-90932000D03*
X165354000Y-88392000D03*
X167894000Y-88392000D03*
X170434000Y-88392000D03*
X164084000Y-106934000D03*
X169164000Y-106934000D03*
X164084000Y-104394000D03*
X164084000Y-101854000D03*
X169164000Y-101854000D03*
D13*
X155532000Y-93152000D03*
X155532000Y-92202000D03*
X155532000Y-91252000D03*
X153332000Y-91252000D03*
X153332000Y-93152000D03*
X153332000Y-92202000D03*
D14*
X157574000Y-143891000D03*
X157574000Y-142621000D03*
X157574000Y-141351000D03*
X157574000Y-140081000D03*
X150274000Y-140081000D03*
X150274000Y-141351000D03*
X150274000Y-142621000D03*
X150274000Y-143891000D03*
D15*
X121793000Y-125984000D03*
X133223000Y-125984000D03*
X121793000Y-128484000D03*
X133223000Y-128484000D03*
X133223000Y-123484000D03*
X121793000Y-123484000D03*
D16*
X168148000Y-94054000D03*
X168148000Y-96954000D03*
X165354000Y-96954000D03*
X165354000Y-94054000D03*
D17*
X111580000Y-112014000D03*
X114480000Y-112014000D03*
X115242000Y-137160000D03*
X112342000Y-137160000D03*
X144092000Y-141732000D03*
X146992000Y-141732000D03*
X144600000Y-133350000D03*
X147500000Y-133350000D03*
X116914000Y-112014000D03*
X119814000Y-112014000D03*
X161364000Y-138938000D03*
X164264000Y-138938000D03*
X167460000Y-139954000D03*
X170360000Y-139954000D03*
X90752000Y-116078000D03*
X93652000Y-116078000D03*
D18*
X103918000Y-123952000D03*
X107918000Y-123952000D03*
X111538000Y-123952000D03*
X115538000Y-123952000D03*
X111538000Y-128270000D03*
X115538000Y-128270000D03*
D19*
X153654000Y-120904000D03*
X151654000Y-120904000D03*
X128508000Y-134112000D03*
X126508000Y-134112000D03*
X98900000Y-127100000D03*
X96900000Y-127100000D03*
X112538000Y-132080000D03*
X114538000Y-132080000D03*
X159274000Y-115062000D03*
X161274000Y-115062000D03*
D20*
X111760000Y-143764000D03*
X157734000Y-136906000D03*
X140208000Y-143764000D03*
D21*
X126332000Y-137795000D03*
X126332000Y-139065000D03*
X126332000Y-140335000D03*
X126332000Y-141605000D03*
X131732000Y-141605000D03*
X131732000Y-140335000D03*
X131732000Y-139065000D03*
X131732000Y-137795000D03*
D22*
X124968000Y-106934000D03*
D12*
X127508000Y-106934000D03*
X130048000Y-106934000D03*
X132588000Y-106934000D03*
D23*
X106426000Y-89154000D03*
D24*
X114046000Y-94234000D03*
X106426000Y-91694000D03*
X114046000Y-91694000D03*
X106426000Y-94234000D03*
X114046000Y-89154000D03*
D25*
X173736000Y-133604000D03*
X173736000Y-128524000D03*
D26*
X161036000Y-131064000D03*
X157226000Y-131064000D03*
X153416000Y-131064000D03*
D17*
X160856000Y-143764000D03*
X163756000Y-143764000D03*
X106246000Y-137160000D03*
X109146000Y-137160000D03*
X118438000Y-137160000D03*
X121338000Y-137160000D03*
X85672000Y-143002000D03*
X88572000Y-143002000D03*
D16*
X170688000Y-94054000D03*
X170688000Y-96954000D03*
D27*
X153416000Y-114680000D03*
X153416000Y-116460000D03*
D28*
X60000000Y-107000000D03*
X60000000Y-112000000D03*
X65800000Y-110000000D03*
X63500000Y-112500000D03*
X65500000Y-105900000D03*
D29*
X61214000Y-138430000D03*
X73914000Y-138430000D03*
X78994000Y-138430000D03*
D26*
X61214000Y-143256000D03*
X78994000Y-143256000D03*
X78994000Y-133350000D03*
D29*
X61214000Y-122174000D03*
X73914000Y-122174000D03*
X78994000Y-122174000D03*
D26*
X61214000Y-127000000D03*
X78994000Y-127000000D03*
X78994000Y-117094000D03*
D30*
X125856000Y-112014000D03*
X122556000Y-112014000D03*
D31*
X91304000Y-110744000D03*
X87004000Y-110744000D03*
X78876000Y-110744000D03*
X83176000Y-110744000D03*
X117484000Y-143764000D03*
X121784000Y-143764000D03*
D32*
X155646000Y-104902000D03*
D33*
X152146000Y-104902000D03*
D19*
X142986000Y-137414000D03*
X140986000Y-137414000D03*
X86376000Y-116078000D03*
X88376000Y-116078000D03*
X138160000Y-137414000D03*
X136160000Y-137414000D03*
D23*
X99060000Y-143510000D03*
D24*
X91440000Y-138430000D03*
X99060000Y-140970000D03*
X91440000Y-140970000D03*
X99060000Y-138430000D03*
X91440000Y-143510000D03*
D22*
X124968000Y-92964000D03*
D12*
X127508000Y-92964000D03*
X130048000Y-92964000D03*
X132588000Y-92964000D03*
D23*
X106426000Y-100330000D03*
D24*
X114046000Y-105410000D03*
X106426000Y-102870000D03*
X114046000Y-102870000D03*
X106426000Y-105410000D03*
X114046000Y-100330000D03*
D34*
X66080000Y-86320000D03*
X66080000Y-101570000D03*
D35*
X85100000Y-86360000D03*
X85090000Y-101566000D03*
X82560000Y-86360000D03*
X80020000Y-86360000D03*
D36*
X77480000Y-86370000D03*
D35*
X82560000Y-101566000D03*
X80020000Y-101566000D03*
D36*
X77480000Y-101566000D03*
D35*
X97790000Y-87480000D03*
X97790000Y-90020000D03*
X97790000Y-92560000D03*
X97790000Y-95100000D03*
X97790000Y-97640000D03*
D36*
X97790000Y-100180000D03*
D37*
X114300000Y-117602000D03*
X111760000Y-117602000D03*
D38*
X140174000Y-130048000D03*
X142274000Y-130048000D03*
X140174000Y-133096000D03*
X142274000Y-133096000D03*
D39*
X90932000Y-124460000D03*
X88392000Y-124460000D03*
D20*
X134620000Y-143764000D03*
D11*
X60960000Y-80772000D03*
D40*
X69088000Y-80264000D03*
M02*
