M48
;DRILL file {KiCad 4.0.7-e1-6374~58~ubuntu16.04.1} date Fri Sep 22 16:23:31 2017
;FORMAT={-:-/ absolute / metric / decimal}
FMAT,2
METRIC,TZ
T1C0.400
T2C0.500
T3C0.800
T4C1.000
T5C1.100
T6C1.199
T7C1.200
T8C1.450
T9C1.800
%
G90
G05
M71
T1
X84.804Y-115.986
X97.667Y-128.638
X98.593Y-127.667
X103.Y-121.945
X112.598Y-103.5
X122.352Y-92.419
X125.096Y-96.993
X130.505Y-128.796
X143.942Y-131.012
X146.614Y-126.758
X146.913Y-124.4
X151.154Y-88.085
X154.166Y-100.954
X154.698Y-120.798
X156.754Y-92.915
T2
X124.841Y-101.219
X124.968Y-92.964
X127.381Y-101.219
X127.508Y-92.964
X129.921Y-101.219
X130.048Y-92.964
X132.461Y-101.219
X132.588Y-92.964
T3
X106.5Y-141.25
X106.514Y-135.128
X111.5Y-141.25
X111.514Y-135.128
X140.264Y-96.774
X143.764Y-96.774
X164.084Y-101.854
X164.084Y-104.394
X164.084Y-106.934
T4
X122.682Y-143.51
X129.286Y-143.51
X138.8Y-121.7
X139.446Y-143.51
X146.05Y-143.51
X152.654Y-143.51
T5
X63.5Y-112.5
X65.5Y-105.9
X65.8Y-110.
X165.354Y-88.392
X165.354Y-90.932
X167.894Y-88.392
X167.894Y-90.932
X170.434Y-88.392
X170.434Y-90.932
T6
X88.392Y-124.46
X90.932Y-124.46
T7
X77.48Y-86.37
X77.48Y-101.566
X80.02Y-86.36
X80.02Y-101.566
X82.56Y-86.36
X82.56Y-101.566
X85.09Y-101.566
X85.1Y-86.36
X97.79Y-87.48
X97.79Y-90.02
X97.79Y-92.56
X97.79Y-95.1
X97.79Y-97.64
X97.79Y-100.18
T8
X61.214Y-127.
X61.214Y-143.256
X78.994Y-117.094
X78.994Y-127.
X78.994Y-133.35
X78.994Y-143.256
T9
X153.416Y-131.064
X157.226Y-131.064
X161.036Y-131.064
T0
M30
